<?xml version="1.0" standalone="no"?>
<!DOCTYPE svg PUBLIC "-//W3C//DTD SVG 20010904//EN"
 "http://www.w3.org/TR/2001/REC-SVG-20010904/DTD/svg10.dtd">
<svg version="1.0" xmlns="http://www.w3.org/2000/svg"
 width="218.000000pt" height="218.000000pt" viewBox="0 0 218.000000 218.000000"
 preserveAspectRatio="xMidYMid meet">
<metadata>
Created by potrace 1.14, written by Peter Selinger 2001-2017
</metadata>
<g transform="translate(0.000000,218.000000) scale(0.100000,-0.100000)"
fill="#000000" stroke="none">
<path d="M816 2164 c-53 -17 -94 -40 -113 -64 -16 -19 -16 -63 -1 -78 16 -16
8 -21 -48 -27 -82 -10 -125 -55 -86 -92 11 -10 21 -27 23 -38 2 -10 18 -29 34
-40 17 -12 31 -27 33 -35 6 -25 22 -38 54 -45 25 -6 29 -11 24 -28 -17 -61
-36 -163 -36 -196 0 -20 7 -63 15 -95 15 -57 15 -58 -7 -82 -13 -13 -31 -24
-40 -24 -56 0 -192 -272 -269 -535 -24 -83 -39 -118 -63 -143 -17 -18 -29 -34
-27 -35 2 -1 1 -13 -3 -25 -6 -17 -13 -22 -28 -19 -15 4 -17 3 -8 -8 9 -11 8
-19 -3 -35 -7 -11 -17 -18 -20 -15 -4 3 -3 0 1 -5 5 -6 6 -31 2 -56 -4 -24 -4
-47 0 -49 11 -7 5 -50 -6 -48 -6 1 -11 -5 -11 -12 0 -11 4 -12 13 -4 8 6 14 6
18 0 3 -5 0 -12 -6 -14 -9 -4 -8 -6 2 -6 22 -2 43 -52 29 -65 -9 -8 -10 -6 -6
7 4 9 2 17 -4 17 -6 0 -9 -7 -7 -16 2 -8 7 -14 13 -14 5 1 13 -7 17 -17 7 -15
8 -14 4 5 -6 32 10 27 22 -7 8 -23 15 -28 30 -24 11 2 23 0 26 -6 4 -6 16 -11
27 -11 10 0 19 -4 19 -8 0 -4 13 -9 28 -10 21 -1 36 6 55 28 15 16 24 30 21
30 -4 0 -1 6 6 14 9 12 8 17 -8 27 -20 13 -20 14 10 73 17 34 35 64 40 67 5 3
9 10 9 15 -1 5 5 9 12 9 6 0 11 -9 10 -20 -1 -20 -1 -20 13 -1 10 14 14 16 14
5 0 -12 2 -12 10 1 9 14 15 7 11 -14 -1 -5 4 -4 12 2 10 9 19 8 35 -4 12 -8
22 -19 22 -24 0 -6 7 -18 14 -27 8 -10 23 -28 33 -40 18 -22 21 -23 362 -28
189 -3 348 -8 352 -10 10 -7 43 67 85 192 20 59 38 115 42 123 3 8 6 24 7 35
3 31 16 65 24 65 4 0 21 -11 37 -25 16 -14 31 -20 33 -14 4 14 -17 93 -39 144
-11 25 -18 65 -18 105 0 60 -9 147 -17 160 -2 3 34 5 79 5 94 1 144 21 202 83
99 105 151 332 104 455 -36 91 -38 93 -180 100 -29 2 -60 13 -89 31 -51 33
-95 52 -164 73 -48 14 -48 14 -26 32 14 11 23 31 25 59 5 49 -7 53 -72 26 -21
-9 -61 -18 -88 -21 -44 -5 -49 -3 -37 10 7 9 26 19 43 22 40 9 62 58 43 95
-24 46 -109 96 -210 123 -91 24 -119 27 -270 32 -106 3 -152 0 -189 -11z m759
-402 c128 -96 166 -246 98 -389 -24 -52 -88 -117 -105 -107 -4 3 -8 22 -8 43
0 27 -7 44 -24 60 -20 19 -22 27 -15 59 13 56 11 145 -2 136 -8 -5 -9 -2 -1
11 7 13 3 43 -14 108 -13 49 -26 93 -29 97 -5 8 13 16 40 19 6 0 33 -16 60
-37z m-1236 -1238 c-10 -12 -10 -15 2 -12 8 2 13 -3 11 -10 -1 -8 2 -11 8 -7
5 3 10 2 10 -4 0 -6 11 -13 25 -17 14 -3 25 -11 25 -18 0 -6 5 -4 10 4 5 8 10
10 10 4 0 -7 11 -9 26 -6 19 3 25 1 20 -7 -4 -6 -4 -11 1 -11 4 0 7 -33 6 -72
0 -40 -5 -73 -10 -72 -23 3 -53 17 -53 26 0 5 -4 7 -9 3 -6 -3 -20 5 -32 17
-12 13 -18 16 -14 8 5 -8 -5 -4 -21 10 -41 35 -54 52 -48 61 3 5 0 9 -5 9 -6
0 -11 7 -11 15 0 26 42 105 52 99 5 -3 4 -12 -3 -20z m-15 -239 c8 -9 30 -22
48 -31 l33 -15 -35 7 c-19 3 -45 17 -58 30 -25 26 -13 34 12 9z"/>
<path d="M311 650 c-13 -11 -19 -20 -13 -20 10 0 42 27 42 36 0 7 -4 5 -29
-16z"/>
<path d="M278 593 c7 -3 16 -2 19 1 4 3 -2 6 -13 5 -11 0 -14 -3 -6 -6z"/>
<path d="M630 382 c0 -5 7 -9 15 -9 8 0 12 4 9 9 -3 4 -9 8 -15 8 -5 0 -9 -4
-9 -8z"/>
<path d="M228 363 c7 -3 16 -2 19 1 4 3 -2 6 -13 5 -11 0 -14 -3 -6 -6z"/>
<path d="M256 283 c-6 -14 -5 -15 5 -6 7 7 10 15 7 18 -3 3 -9 -2 -12 -12z"/>
<path d="M271 213 c7 -12 15 -20 18 -17 3 2 -3 12 -13 22 -17 16 -18 16 -5 -5z"/>
<path d="M553 210 c-1 -11 2 -20 7 -20 4 0 7 7 6 15 -3 23 -12 26 -13 5z"/>
<path d="M302 180 c0 -14 2 -19 5 -12 2 6 2 18 0 25 -3 6 -5 1 -5 -13z"/>
<path d="M326 177 c3 -10 9 -15 12 -12 3 3 0 11 -7 18 -10 9 -11 8 -5 -6z"/>
<path d="M367 179 c7 -7 15 -10 18 -7 3 3 -2 9 -12 12 -14 6 -15 5 -6 -5z"/>
<path d="M515 180 c-4 -6 1 -7 11 -3 11 4 15 3 10 -5 -3 -6 -1 -14 5 -18 8 -4
9 -3 5 4 -4 7 -1 12 6 12 9 0 9 3 -2 10 -19 12 -27 12 -35 0z"/>
<path d="M350 160 c0 -5 5 -10 11 -10 5 0 7 5 4 10 -3 6 -8 10 -11 10 -2 0 -4
-4 -4 -10z"/>
<path d="M390 160 c-8 -5 -10 -10 -5 -10 6 0 17 5 25 10 8 5 11 10 5 10 -5 0
-17 -5 -25 -10z"/>
<path d="M490 150 c-9 -6 -10 -10 -3 -10 6 0 15 5 18 10 8 12 4 12 -15 0z"/>
<path d="M416 135 c4 -8 8 -15 10 -15 2 0 4 7 4 15 0 8 -4 15 -10 15 -5 0 -7
-7 -4 -15z"/>
<path d="M445 140 c-3 -6 1 -7 9 -4 18 7 21 14 7 14 -6 0 -13 -4 -16 -10z"/>
<path d="M514 135 c-4 -8 -11 -12 -17 -8 -6 3 -7 1 -3 -5 10 -16 14 -15 26 8
6 11 8 20 5 20 -3 0 -8 -7 -11 -15z"/>
<path d="M380 126 c0 -2 7 -6 15 -10 8 -3 15 -1 15 4 0 6 -7 10 -15 10 -8 0
-15 -2 -15 -4z"/>
<path d="M470 121 c0 -6 4 -13 10 -16 6 -3 7 1 4 9 -7 18 -14 21 -14 7z"/>
<path d="M450 111 c0 -6 4 -13 10 -16 6 -3 7 1 4 9 -7 18 -14 21 -14 7z"/>
</g>
</svg>
