<svg xmlns="http://www.w3.org/2000/svg" xmlns:xlink="http://www.w3.org/1999/xlink" viewBox="0 0 1000 400">
  <defs>
    <style>
      .cls-1 {
        fill: none;
      }

      .cls-2 {
        isolation: isolate;
      }

      .cls-3 {
        clip-path: url(#clip-path);
      }

      .cls-4 {
        fill: url(#Ѕезым_нный_градиент_365);
      }

      .cls-5, .cls-6 {
        mix-blend-mode: screen;
        opacity: 0.2;
      }

      .cls-5 {
        fill: url(#Ѕезым_нный_градиент_561);
      }

      .cls-6 {
        fill: url(#Ѕезым_нный_градиент_561-2);
      }
    </style>
    <clipPath id="clip-path">
      <rect class="cls-1" width="1000" height="400"/>
    </clipPath>
    <linearGradient id="Ѕезым_нный_градиент_365" data-name="Ѕезым€нный градиент 365" x1="450.94" y1="407.09" x2="450.94" y2="7.95" gradientUnits="userSpaceOnUse">
      <stop offset="0" stop-color="#406bbb"/>
      <stop offset="0.14" stop-color="#4167b8"/>
      <stop offset="0.28" stop-color="#455bb1"/>
      <stop offset="0.41" stop-color="#4b49a5"/>
      <stop offset="0.51" stop-color="#47449c"/>
      <stop offset="0.66" stop-color="#3a3583"/>
      <stop offset="0.86" stop-color="#271d5c"/>
      <stop offset="1" stop-color="#16093a"/>
    </linearGradient>
    <linearGradient id="Ѕезым_нный_градиент_561" data-name="Ѕезым€нный градиент 561" x1="629.65" y1="140.61" x2="629.65" y2="57.83" gradientUnits="userSpaceOnUse">
      <stop offset="0" stop-color="#59427a"/>
      <stop offset="1" stop-color="#8687b6"/>
    </linearGradient>
    <linearGradient id="Ѕезым_нный_градиент_561-2" x1="874.11" y1="158.47" x2="874.11" y2="70.82" xlink:href="#Ѕезым_нный_градиент_561"/>
  </defs>
  <g class="cls-2">
    <g id="Слой_2" data-name="Слой 2">
      <g id="houses_01">
        <g class="cls-3">
          <g>
            <path class="cls-4" d="M1000,207l-57-33.12-24.83-.49-1-14.46h11.06l-37-86.41L857,156.21l7.45.21v17.26h-8.89l-37.23,26.81h-6.2V189.27l7.62,1.42.58-5.74-17.13-3.89-40.39-46.52h-5.2l-46.94,46.52-13.78,1.78v5.4h9.49l-.53,23.36-30.6,20-4-93.15h9.45L651.53,81.93,578.64,59.42l-47.67,70h16.8L544.3,251l-12-.37-4.53-62-65.42-14.21-4.2,40.23L332.57,199.3l-132.85,14-30.19-25.28-1.41-4.18h-.89l-1.42-4.8h0l-2.29-7.75h0l-1.39-4.73-.81-.16-.18-4.15-.07-2.05s0-1,3.48-1.41l.15-2.78h0l-.12-4.28a2.68,2.68,0,0,0-1.28-1.48l-.35-7.36h0l2.25-4.15.09,0a16.38,16.38,0,0,0,1.59-.58L163.35,135a142,142,0,0,1-7.21-27.5c-.66,7.11-1.41,13.75-2.54,19.74l0-13h0v-.87l1.39-5.27v-2.22a10.22,10.22,0,0,0-1.77-.74l.19-12.67h0l2.43-4.15.06,0a15.19,15.19,0,0,0,1.61-.59l-3.26-3.13a190.75,190.75,0,0,1-5.63-27.45c-1.77,10.79-3.13,20.71-5.66,27.44l-2.26,3.61,1,.35L143.4,93v.24a4.31,4.31,0,0,0-1.57,3.65,4.56,4.56,0,0,0,1.34,3.49l-.16,4.94c-.53.18-1.07.37-1.62.61v2l.37-.13-.37.13,1.35,4.8c-.1,3-.23,7.32-.4,12.5-.72-2.5-1.26-5.24-2-8.89l-7.94-.5h0l3.26.2-.91-23.87,2.77-1.37-2.9-2.05-.58-15.34,7.33-4.76-7.45-5.87c-7.12-15.64-14.55-37.37-14.55-37.37a188.8,188.8,0,0,1-9.31,27.09v-.6l1.11-4.12V46a7.62,7.62,0,0,0-1.37-.58l.23-9.89h0l1.9-3.25,0,0a12.12,12.12,0,0,0,1.25-.46l-2.5-2.44A146.6,146.6,0,0,1,106.59,8C105.15,16.37,104,24.12,102,29.39l-1.77,2.82.8.27L102.34,36,102,45.61c-.41.14-.83.29-1.26.48v1.52l.29-.1-.29.1,1,3.74c-.22,5.59-.61,16.39-.67,18.24l-4.8,5.74,2.78.13,3.43,2.66-2.28,36.94L99,115.3c-.39-2.38-.75-4.87-1.07-7.5-.49,2.75-.94,5.44-1.4,8l-1.76.38A39.24,39.24,0,0,0,92,104.27l0-1.59h0v-.86l1.45-5.25V94.35a6.26,6.26,0,0,0-1-.46,5.68,5.68,0,0,1,1,.46l0-4.51a3.9,3.9,0,0,0-1.59-1.54L92.09,81h0l2.47-4.15.06,0a15.19,15.19,0,0,0,1.61-.59L93,73.1a186.89,186.89,0,0,1-5.29-27.37c-1.89,10.76-3.37,20.65-6,27.37l-2.31,3.6,1,.34,1.59,4.38a4.3,4.3,0,0,0-1.55,3.65,4.6,4.6,0,0,0,1.29,3.45v.19A6.78,6.78,0,0,0,80.49,90L80,94.42l0,2,.38-.13-.38.13,1,3.53c-3.38,3.76-5.73,11.92-5.73,21.38a54,54,0,0,0,.44,7c-.76,4.06-1.46,7.85-2.22,11.32-.72,3-1.51,6-2.35,8.91l-1.86,2.84.76.25.08,0,1.3,3.56,0,.71h0l-.73,16.86L67,186.51l3.09-2.31h0l-11.59,8.67L24.75,214.61h0L.8,234.83l-24.44,20.64h0v11.2h0l-13.79-3.89h0l-12.72-3.59-3.68,4.24-3.43,3.93H-61L-98.11,399.87,1000,407.09ZM140.77,88.1l0,0,.58-.3ZM100.61,32h0l.21-.11Zm.39,15.5h0c.19-.07.47-.15.82-.25ZM79.55,76.64l.06,0c.12-.07.32-.18.58-.3C79.89,76.45,79.67,76.57,79.55,76.64Zm-10,74.52h0l.06,0,.15-.07Zm9.78-5.48c-.44-1.76-.85-3.58-1.24-5.48-.27-1.42-.54-2.87-.8-4.39a23.42,23.42,0,0,0,2.25,5Zm1-49.43h0c.25-.09.61-.2,1.05-.32ZM109,114.32h0Zm46,45.9.05,5.14,0,5.51-1.3-.65,0-11A4,4,0,0,1,154.94,160.22Zm-13.16-52.45h0c.24-.08.6-.2,1.05-.32Z"/>
            <polygon class="cls-5" points="578.64 59.42 614.96 126.89 680.66 138.47 651.53 81.93 578.64 59.42"/>
            <polygon class="cls-6" points="891.22 72.5 882.98 151.08 857 156.21 891.22 72.5"/>
          </g>
        </g>
      </g>
    </g>
  </g>
</svg>
