<svg xmlns="http://www.w3.org/2000/svg" xmlns:xlink="http://www.w3.org/1999/xlink" viewBox="0 0 1000 400">
  <defs>
    <style>
      .cls-1, .cls-85 {
        fill: none;
      }

      .cls-2 {
        isolation: isolate;
      }

      .cls-3 {
        clip-path: url(#clip-path);
      }

      .cls-10, .cls-100, .cls-101, .cls-102, .cls-103, .cls-104, .cls-105, .cls-106, .cls-107, .cls-108, .cls-109, .cls-11, .cls-110, .cls-111, .cls-112, .cls-113, .cls-114, .cls-115, .cls-116, .cls-117, .cls-118, .cls-119, .cls-12, .cls-120, .cls-121, .cls-122, .cls-123, .cls-13, .cls-14, .cls-15, .cls-16, .cls-17, .cls-18, .cls-19, .cls-20, .cls-21, .cls-22, .cls-23, .cls-24, .cls-25, .cls-26, .cls-27, .cls-28, .cls-29, .cls-30, .cls-31, .cls-32, .cls-33, .cls-34, .cls-35, .cls-36, .cls-37, .cls-38, .cls-39, .cls-4, .cls-40, .cls-41, .cls-42, .cls-43, .cls-44, .cls-45, .cls-46, .cls-47, .cls-48, .cls-49, .cls-5, .cls-50, .cls-51, .cls-52, .cls-53, .cls-54, .cls-55, .cls-56, .cls-57, .cls-58, .cls-59, .cls-6, .cls-60, .cls-61, .cls-62, .cls-63, .cls-64, .cls-65, .cls-66, .cls-67, .cls-68, .cls-69, .cls-7, .cls-70, .cls-71, .cls-72, .cls-73, .cls-74, .cls-75, .cls-76, .cls-77, .cls-78, .cls-79, .cls-8, .cls-80, .cls-81, .cls-82, .cls-83, .cls-84, .cls-85, .cls-86, .cls-87, .cls-88, .cls-89, .cls-9, .cls-90, .cls-91, .cls-92, .cls-93, .cls-94, .cls-95, .cls-96, .cls-97, .cls-98, .cls-99 {
        fill-rule: evenodd;
      }

      .cls-4 {
        fill: url(#Ѕезым_нный_градиент_284);
      }

      .cls-5 {
        fill: url(#Ѕезым_нный_градиент_345);
      }

      .cls-6 {
        fill: url(#Ѕезым_нный_градиент_344);
      }

      .cls-7 {
        fill: #482e89;
      }

      .cls-8 {
        fill: url(#Ѕезым_нный_градиент_222);
      }

      .cls-9 {
        fill: #35052a;
      }

      .cls-10 {
        fill: url(#Ѕезым_нный_градиент_345-2);
      }

      .cls-11 {
        fill: #410d37;
      }

      .cls-12 {
        fill: url(#Ѕезым_нный_градиент_228);
      }

      .cls-13 {
        fill: url(#Ѕезым_нный_градиент_222-2);
      }

      .cls-14 {
        fill: url(#Ѕезым_нный_градиент_119);
      }

      .cls-15 {
        fill: url(#Ѕезым_нный_градиент_119-2);
      }

      .cls-16 {
        fill: url(#Ѕезым_нный_градиент_119-3);
      }

      .cls-17 {
        fill: url(#Ѕезым_нный_градиент_119-4);
      }

      .cls-18 {
        fill: url(#Ѕезым_нный_градиент_372);
      }

      .cls-19 {
        fill: url(#Ѕезым_нный_градиент_372-2);
      }

      .cls-20 {
        fill: url(#Ѕезым_нный_градиент_372-3);
      }

      .cls-21 {
        fill: url(#Ѕезым_нный_градиент_372-4);
      }

      .cls-22 {
        fill: url(#Ѕезым_нный_градиент_372-5);
      }

      .cls-23 {
        fill: url(#Ѕезым_нный_градиент_119-5);
      }

      .cls-24 {
        fill: url(#Ѕезым_нный_градиент_119-6);
      }

      .cls-25 {
        fill: url(#Ѕезым_нный_градиент_119-7);
      }

      .cls-26 {
        fill: url(#Ѕезым_нный_градиент_372-6);
      }

      .cls-27 {
        fill: url(#Ѕезым_нный_градиент_119-8);
      }

      .cls-28 {
        fill: url(#Ѕезым_нный_градиент_372-7);
      }

      .cls-29 {
        fill: url(#Ѕезым_нный_градиент_372-8);
      }

      .cls-30 {
        fill: #41071d;
      }

      .cls-31 {
        fill: url(#Ѕезым_нный_градиент_119-9);
      }

      .cls-32 {
        fill: url(#Ѕезым_нный_градиент_372-9);
      }

      .cls-33 {
        fill: url(#Ѕезым_нный_градиент_372-10);
      }

      .cls-34 {
        fill: url(#Ѕезым_нный_градиент_140);
      }

      .cls-35 {
        fill: url(#Ѕезым_нный_градиент_372-11);
      }

      .cls-36 {
        fill: url(#Ѕезым_нный_градиент_119-10);
      }

      .cls-37 {
        fill: url(#Ѕезым_нный_градиент_119-11);
      }

      .cls-38 {
        fill: url(#Ѕезым_нный_градиент_119-12);
      }

      .cls-39 {
        fill: url(#Ѕезым_нный_градиент_119-13);
      }

      .cls-40 {
        fill: url(#Ѕезым_нный_градиент_372-12);
      }

      .cls-41 {
        fill: url(#Ѕезым_нный_градиент_119-14);
      }

      .cls-42 {
        fill: url(#Ѕезым_нный_градиент_372-13);
      }

      .cls-43 {
        fill: url(#Ѕезым_нный_градиент_372-14);
      }

      .cls-44 {
        fill: url(#Ѕезым_нный_градиент_140-2);
      }

      .cls-45 {
        fill: url(#Ѕезым_нный_градиент_119-15);
      }

      .cls-46 {
        fill: url(#Ѕезым_нный_градиент_119-16);
      }

      .cls-47 {
        fill: url(#Ѕезым_нный_градиент_119-17);
      }

      .cls-48 {
        fill: url(#Ѕезым_нный_градиент_372-15);
      }

      .cls-49 {
        fill: url(#Ѕезым_нный_градиент_119-18);
      }

      .cls-50 {
        fill: url(#Ѕезым_нный_градиент_372-16);
      }

      .cls-51 {
        fill: url(#Ѕезым_нный_градиент_372-17);
      }

      .cls-52 {
        fill: url(#Ѕезым_нный_градиент_140-3);
      }

      .cls-53 {
        fill: url(#Ѕезым_нный_градиент_119-19);
      }

      .cls-54 {
        fill: url(#Ѕезым_нный_градиент_119-20);
      }

      .cls-55 {
        fill: url(#Ѕезым_нный_градиент_119-21);
      }

      .cls-56 {
        fill: url(#Ѕезым_нный_градиент_372-18);
      }

      .cls-57 {
        fill: url(#Ѕезым_нный_градиент_119-22);
      }

      .cls-58 {
        fill: url(#Ѕезым_нный_градиент_372-19);
      }

      .cls-59 {
        fill: url(#Ѕезым_нный_градиент_372-20);
      }

      .cls-60 {
        fill: url(#Ѕезым_нный_градиент_140-4);
      }

      .cls-61 {
        fill: url(#Ѕезым_нный_градиент_119-23);
      }

      .cls-62 {
        fill: url(#Ѕезым_нный_градиент_119-24);
      }

      .cls-63 {
        fill: url(#Ѕезым_нный_градиент_372-21);
      }

      .cls-64 {
        fill: url(#Ѕезым_нный_градиент_119-25);
      }

      .cls-65 {
        fill: url(#Ѕезым_нный_градиент_372-22);
      }

      .cls-66 {
        fill: url(#Ѕезым_нный_градиент_119-26);
      }

      .cls-67 {
        fill: url(#Ѕезым_нный_градиент_284-2);
      }

      .cls-68 {
        fill: url(#Ѕезым_нный_градиент_354);
      }

      .cls-69 {
        fill: url(#Ѕезым_нный_градиент_372-23);
      }

      .cls-70 {
        fill: url(#Ѕезым_нный_градиент_372-24);
      }

      .cls-71 {
        fill: url(#Ѕезым_нный_градиент_119-27);
      }

      .cls-72 {
        fill: url(#Ѕезым_нный_градиент_119-28);
      }

      .cls-73 {
        fill: #841648;
      }

      .cls-74 {
        fill: url(#Ѕезым_нный_градиент_140-5);
      }

      .cls-75 {
        fill: url(#Ѕезым_нный_градиент_222-3);
      }

      .cls-76 {
        fill: url(#Ѕезым_нный_градиент_222-4);
      }

      .cls-77 {
        fill: #7268cc;
        opacity: 0.2;
      }

      .cls-123, .cls-77, .cls-84 {
        mix-blend-mode: screen;
      }

      .cls-78 {
        fill: #d55c63;
        opacity: 0.3;
      }

      .cls-78, .cls-80, .cls-83 {
        mix-blend-mode: multiply;
      }

      .cls-79 {
        fill: url(#Ѕезым_нный_градиент_228-2);
      }

      .cls-80 {
        fill: #98256b;
      }

      .cls-80, .cls-83 {
        opacity: 0.5;
      }

      .cls-81 {
        fill: url(#Ѕезым_нный_градиент_119-29);
      }

      .cls-82 {
        fill: url(#Ѕезым_нный_градиент_355);
      }

      .cls-83 {
        fill: #bdafd9;
      }

      .cls-84 {
        fill: #ffa266;
        opacity: 0.43;
      }

      .cls-85 {
        mix-blend-mode: color-dodge;
      }

      .cls-86 {
        fill: #8388e3;
      }

      .cls-87 {
        fill: url(#Ѕезым_нный_градиент_199);
      }

      .cls-88 {
        fill: url(#Ѕезым_нный_градиент_39);
      }

      .cls-89 {
        fill: url(#Ѕезым_нный_градиент_195);
      }

      .cls-90 {
        fill: url(#Ѕезым_нный_градиент_195-2);
      }

      .cls-91 {
        fill: url(#Ѕезым_нный_градиент_39-2);
      }

      .cls-92 {
        fill: url(#Ѕезым_нный_градиент_199-2);
      }

      .cls-93 {
        fill: url(#Ѕезым_нный_градиент_167);
      }

      .cls-94 {
        fill: url(#Ѕезым_нный_градиент_208);
      }

      .cls-95 {
        fill: url(#Ѕезым_нный_градиент_199-3);
      }

      .cls-96 {
        fill: #3c3171;
      }

      .cls-97 {
        fill: url(#Ѕезым_нный_градиент_167-2);
      }

      .cls-98 {
        fill: url(#Ѕезым_нный_градиент_167-3);
      }

      .cls-99 {
        fill: url(#Ѕезым_нный_градиент_119-30);
      }

      .cls-100 {
        fill: url(#Ѕезым_нный_градиент_140-6);
      }

      .cls-101 {
        fill: url(#Ѕезым_нный_градиент_372-25);
      }

      .cls-102 {
        fill: url(#Ѕезым_нный_градиент_119-31);
      }

      .cls-103 {
        fill: url(#Ѕезым_нный_градиент_192);
      }

      .cls-104 {
        fill: url(#Ѕезым_нный_градиент_119-32);
      }

      .cls-105 {
        fill: url(#Ѕезым_нный_градиент_372-26);
      }

      .cls-106 {
        fill: url(#Ѕезым_нный_градиент_119-33);
      }

      .cls-107 {
        fill: url(#Ѕезым_нный_градиент_140-7);
      }

      .cls-108 {
        fill: url(#Ѕезым_нный_градиент_372-27);
      }

      .cls-109 {
        fill: url(#Ѕезым_нный_градиент_119-34);
      }

      .cls-110 {
        fill: url(#Ѕезым_нный_градиент_140-8);
      }

      .cls-111 {
        fill: url(#Ѕезым_нный_градиент_372-28);
      }

      .cls-112 {
        fill: url(#Ѕезым_нный_градиент_119-35);
      }

      .cls-113 {
        fill: url(#Ѕезым_нный_градиент_140-9);
      }

      .cls-114 {
        fill: url(#Ѕезым_нный_градиент_372-29);
      }

      .cls-115 {
        fill: url(#Ѕезым_нный_градиент_119-36);
      }

      .cls-116 {
        fill: url(#Ѕезым_нный_градиент_140-10);
      }

      .cls-117 {
        fill: url(#Ѕезым_нный_градиент_372-30);
      }

      .cls-118 {
        fill: url(#Ѕезым_нный_градиент_119-37);
      }

      .cls-119 {
        fill: url(#Ѕезым_нный_градиент_372-31);
      }

      .cls-120 {
        fill: url(#Ѕезым_нный_градиент_119-38);
      }

      .cls-121 {
        fill: url(#Ѕезым_нный_градиент_372-32);
      }

      .cls-122 {
        fill: url(#Ѕезым_нный_градиент_199-4);
      }

      .cls-123 {
        fill: #2f5eb0;
      }
    </style>
    <clipPath id="clip-path">
      <rect class="cls-1" width="1000" height="400"/>
    </clipPath>
    <linearGradient id="Ѕезым_нный_градиент_284" data-name="Ѕезым€нный градиент 284" x1="187.9" y1="272.68" x2="187.9" y2="203.11" gradientUnits="userSpaceOnUse">
      <stop offset="0" stop-color="#841604"/>
      <stop offset="0.98" stop-color="#590001"/>
    </linearGradient>
    <linearGradient id="Ѕезым_нный_градиент_345" data-name="Ѕезым€нный градиент 345" x1="84.72" y1="347.56" x2="84.72" y2="261.41" gradientUnits="userSpaceOnUse">
      <stop offset="0" stop-color="#a79bfe"/>
      <stop offset="0.99" stop-color="#afacdb"/>
    </linearGradient>
    <linearGradient id="Ѕезым_нный_градиент_344" data-name="Ѕезым€нный градиент 344" x1="181.11" y1="347.45" x2="181.11" y2="213.28" gradientUnits="userSpaceOnUse">
      <stop offset="0" stop-color="#ae951e"/>
      <stop offset="0.99" stop-color="#ceb32d"/>
    </linearGradient>
    <linearGradient id="Ѕезым_нный_градиент_222" data-name="Ѕезым€нный градиент 222" x1="89.15" y1="268.83" x2="89.15" y2="198.5" gradientUnits="userSpaceOnUse">
      <stop offset="0" stop-color="#684aa2"/>
      <stop offset="0.99" stop-color="#665889"/>
    </linearGradient>
    <linearGradient id="Ѕезым_нный_градиент_345-2" x1="75.93" y1="347.56" x2="75.93" y2="189.54" xlink:href="#Ѕезым_нный_градиент_345"/>
    <linearGradient id="Ѕезым_нный_градиент_228" data-name="Ѕезым€нный градиент 228" x1="73.51" y1="261.98" x2="73.51" y2="168.94" gradientUnits="userSpaceOnUse">
      <stop offset="0" stop-color="#684aa2"/>
      <stop offset="0.99" stop-color="#74589a"/>
    </linearGradient>
    <linearGradient id="Ѕезым_нный_градиент_222-2" x1="149.31" y1="268.83" x2="149.31" y2="198.5" xlink:href="#Ѕезым_нный_градиент_222"/>
    <linearGradient id="Ѕезым_нный_градиент_119" data-name="Ѕезым€нный градиент 119" x1="75.93" y1="263.55" x2="75.93" y2="188.62" gradientUnits="userSpaceOnUse">
      <stop offset="0.01" stop-color="#8e3c65"/>
      <stop offset="0.98" stop-color="#9b4561"/>
    </linearGradient>
    <linearGradient id="Ѕезым_нный_градиент_119-2" x1="106.04" y1="347.56" x2="106.04" y2="249.53" xlink:href="#Ѕезым_нный_градиент_119"/>
    <linearGradient id="Ѕезым_нный_градиент_119-3" x1="47.98" y1="253.74" x2="104.81" y2="253.74" xlink:href="#Ѕезым_нный_градиент_119"/>
    <linearGradient id="Ѕезым_нный_градиент_119-4" x1="88.72" y1="267.25" x2="104.36" y2="267.25" xlink:href="#Ѕезым_нный_градиент_119"/>
    <linearGradient id="Ѕезым_нный_градиент_372" data-name="Ѕезым€нный градиент 372" x1="108.67" y1="347.56" x2="108.67" y2="255.05" gradientUnits="userSpaceOnUse">
      <stop offset="0" stop-color="#5e1340"/>
      <stop offset="0.98" stop-color="#3f142f"/>
    </linearGradient>
    <linearGradient id="Ѕезым_нный_градиент_372-2" x1="50.38" y1="223.81" x2="82.01" y2="223.81" xlink:href="#Ѕезым_нный_градиент_372"/>
    <linearGradient id="Ѕезым_нный_градиент_372-3" x1="49.06" y1="347.56" x2="49.06" y2="255.64" xlink:href="#Ѕезым_нный_градиент_372"/>
    <linearGradient id="Ѕезым_нный_градиент_372-4" x1="47.98" y1="266.3" x2="64.44" y2="266.3" xlink:href="#Ѕезым_нный_градиент_372"/>
    <linearGradient id="Ѕезым_нный_градиент_372-5" x1="94.19" y1="264.24" x2="104.36" y2="264.24" xlink:href="#Ѕезым_нный_градиент_372"/>
    <linearGradient id="Ѕезым_нный_градиент_119-5" x1="45.83" y1="347.47" x2="45.83" y2="251.84" xlink:href="#Ѕезым_нный_градиент_119"/>
    <linearGradient id="Ѕезым_нный_градиент_119-6" x1="47.98" y1="266.3" x2="62.64" y2="266.3" xlink:href="#Ѕезым_нный_градиент_119"/>
    <linearGradient id="Ѕезым_нный_градиент_119-7" x1="11.28" y1="347.56" x2="11.28" y2="270.24" xlink:href="#Ѕезым_нный_градиент_119"/>
    <linearGradient id="Ѕезым_нный_градиент_372-6" x1="14.47" y1="347.45" x2="14.47" y2="270.26" xlink:href="#Ѕезым_нный_градиент_372"/>
    <linearGradient id="Ѕезым_нный_градиент_119-8" x1="158.16" y1="347.45" x2="158.16" y2="263.55" xlink:href="#Ѕезым_нный_градиент_119"/>
    <linearGradient id="Ѕезым_нный_градиент_372-7" x1="162.27" y1="347.47" x2="162.27" y2="255.64" xlink:href="#Ѕезым_нный_градиент_372"/>
    <linearGradient id="Ѕезым_нный_градиент_372-8" x1="199.21" y1="347.56" x2="199.21" y2="258.77" xlink:href="#Ѕезым_нный_градиент_372"/>
    <linearGradient id="Ѕезым_нный_градиент_119-9" x1="65.72" y1="244.97" x2="91.49" y2="244.97" xlink:href="#Ѕезым_нный_градиент_119"/>
    <linearGradient id="Ѕезым_нный_градиент_372-9" x1="91.08" y1="244.97" x2="93.3" y2="244.97" xlink:href="#Ѕезым_нный_градиент_372"/>
    <linearGradient id="Ѕезым_нный_градиент_372-10" x1="79.15" y1="243.42" x2="79.15" y2="229.15" xlink:href="#Ѕезым_нный_градиент_372"/>
    <linearGradient id="Ѕезым_нный_градиент_140" data-name="Ѕезым€нный градиент 140" x1="81.43" y1="243.42" x2="81.43" y2="229.15" gradientUnits="userSpaceOnUse">
      <stop offset="0.03" stop-color="#65182c"/>
      <stop offset="1" stop-color="#0f0020"/>
    </linearGradient>
    <linearGradient id="Ѕезым_нный_градиент_372-11" x1="79.72" y1="234.59" x2="91.97" y2="234.59" xlink:href="#Ѕезым_нный_градиент_372"/>
    <linearGradient id="Ѕезым_нный_градиент_119-10" x1="67.29" y1="234.81" x2="90.68" y2="234.81" xlink:href="#Ѕезым_нный_градиент_119"/>
    <linearGradient id="Ѕезым_нный_градиент_119-11" x1="73.15" y1="238.75" x2="79.72" y2="238.75" xlink:href="#Ѕезым_нный_градиент_119"/>
    <linearGradient id="Ѕезым_нный_градиент_119-12" x1="78.98" y1="238.75" x2="85.23" y2="238.75" xlink:href="#Ѕезым_нный_градиент_119"/>
    <linearGradient id="Ѕезым_нный_градиент_119-13" x1="66.51" y1="281.29" x2="84.86" y2="281.29" xlink:href="#Ѕезым_нный_градиент_119"/>
    <linearGradient id="Ѕезым_нный_градиент_372-12" x1="80.52" y1="298.03" x2="80.52" y2="264.54" xlink:href="#Ѕезым_нный_градиент_372"/>
    <linearGradient id="Ѕезым_нный_градиент_119-14" x1="66.51" y1="298.79" x2="84.13" y2="298.79" xlink:href="#Ѕезым_нный_градиент_119"/>
    <linearGradient id="Ѕезым_нный_градиент_372-13" x1="84.44" y1="300.36" x2="84.44" y2="297.22" xlink:href="#Ѕезым_нный_градиент_372"/>
    <linearGradient id="Ѕезым_нный_градиент_372-14" x1="75.65" y1="297.22" x2="75.65" y2="268.24" xlink:href="#Ѕезым_нный_градиент_372"/>
    <linearGradient id="Ѕезым_нный_градиент_140-2" x1="76.61" y1="297.22" x2="76.61" y2="270.05" xlink:href="#Ѕезым_нный_градиент_140"/>
    <linearGradient id="Ѕезым_нный_градиент_119-15" x1="69.79" y1="278.04" x2="82.55" y2="278.04" xlink:href="#Ѕезым_нный_градиент_119"/>
    <linearGradient id="Ѕезым_нный_градиент_119-16" x1="75.65" y1="287.96" x2="77.11" y2="287.96" xlink:href="#Ѕезым_нный_градиент_119"/>
    <linearGradient id="Ѕезым_нный_градиент_119-17" x1="20.91" y1="294.95" x2="39.26" y2="294.95" xlink:href="#Ѕезым_нный_градиент_119"/>
    <linearGradient id="Ѕезым_нный_градиент_372-15" x1="34.92" y1="311.7" x2="34.92" y2="278.2" xlink:href="#Ѕезым_нный_градиент_372"/>
    <linearGradient id="Ѕезым_нный_градиент_119-18" x1="20.91" y1="312.45" x2="38.53" y2="312.45" xlink:href="#Ѕезым_нный_градиент_119"/>
    <linearGradient id="Ѕезым_нный_градиент_372-16" x1="38.85" y1="314.02" x2="38.85" y2="310.88" xlink:href="#Ѕезым_нный_градиент_372"/>
    <linearGradient id="Ѕезым_нный_градиент_372-17" x1="30.06" y1="310.88" x2="30.06" y2="281.9" xlink:href="#Ѕезым_нный_градиент_372"/>
    <linearGradient id="Ѕезым_нный_градиент_140-3" x1="31.01" y1="310.88" x2="31.01" y2="283.72" xlink:href="#Ѕезым_нный_градиент_140"/>
    <linearGradient id="Ѕезым_нный_градиент_119-19" x1="24.19" y1="291.7" x2="36.95" y2="291.7" xlink:href="#Ѕезым_нный_градиент_119"/>
    <linearGradient id="Ѕезым_нный_градиент_119-20" x1="30.06" y1="301.62" x2="31.52" y2="301.62" xlink:href="#Ѕезым_нный_градиент_119"/>
    <linearGradient id="Ѕезым_нный_градиент_119-21" x1="130.31" y1="294.95" x2="148.67" y2="294.95" xlink:href="#Ѕезым_нный_градиент_119"/>
    <linearGradient id="Ѕезым_нный_градиент_372-18" x1="144.33" y1="311.7" x2="144.33" y2="278.2" xlink:href="#Ѕезым_нный_градиент_372"/>
    <linearGradient id="Ѕезым_нный_градиент_119-22" x1="130.31" y1="312.45" x2="147.93" y2="312.45" xlink:href="#Ѕезым_нный_градиент_119"/>
    <linearGradient id="Ѕезым_нный_градиент_372-19" x1="148.25" y1="314.02" x2="148.25" y2="310.88" xlink:href="#Ѕезым_нный_градиент_372"/>
    <linearGradient id="Ѕезым_нный_градиент_372-20" x1="139.46" y1="310.88" x2="139.46" y2="281.9" xlink:href="#Ѕезым_нный_градиент_372"/>
    <linearGradient id="Ѕезым_нный_градиент_140-4" x1="140.41" y1="310.88" x2="140.41" y2="283.72" xlink:href="#Ѕезым_нный_градиент_140"/>
    <linearGradient id="Ѕезым_нный_градиент_119-23" x1="133.6" y1="291.7" x2="146.36" y2="291.7" xlink:href="#Ѕезым_нный_градиент_119"/>
    <linearGradient id="Ѕезым_нный_градиент_119-24" x1="139.46" y1="301.62" x2="140.92" y2="301.62" xlink:href="#Ѕезым_нный_градиент_119"/>
    <linearGradient id="Ѕезым_нный_градиент_372-21" x1="2786.4" y1="344.77" x2="2804.75" y2="344.77" gradientTransform="matrix(-0.74, -0.03, -0.05, 1, 2276.32, 44.92)" xlink:href="#Ѕезым_нный_градиент_372"/>
    <linearGradient id="Ѕезым_нный_градиент_119-25" x1="2410.47" y1="361.44" x2="2410.47" y2="327.95" gradientTransform="matrix(-1, -0.05, -0.05, 1, 2604.04, 60.21)" xlink:href="#Ѕезым_нный_градиент_119"/>
    <linearGradient id="Ѕезым_нный_градиент_372-22" x1="2786.4" y1="362.27" x2="2804.02" y2="362.27" gradientTransform="matrix(-0.74, -0.03, -0.05, 1, 2276.32, 44.92)" xlink:href="#Ѕезым_нный_градиент_372"/>
    <linearGradient id="Ѕезым_нный_градиент_119-26" x1="2413.24" y1="363.77" x2="2413.24" y2="360.63" gradientTransform="matrix(-1, -0.05, -0.05, 1, 2604.04, 60.21)" xlink:href="#Ѕезым_нный_градиент_119"/>
    <linearGradient id="Ѕезым_нный_градиент_284-2" x1="2406.35" y1="360.63" x2="2406.35" y2="331.65" gradientTransform="matrix(-1, -0.05, -0.05, 1, 2604.04, 60.21)" xlink:href="#Ѕезым_нный_градиент_284"/>
    <linearGradient id="Ѕезым_нный_градиент_354" data-name="Ѕезым€нный градиент 354" x1="2407.06" y1="360.63" x2="2407.06" y2="333.46" gradientTransform="matrix(-1, -0.05, -0.05, 1, 2604.04, 60.21)" gradientUnits="userSpaceOnUse">
      <stop offset="0.03" stop-color="#722c3e"/>
      <stop offset="1" stop-color="#1f0024"/>
    </linearGradient>
    <linearGradient id="Ѕезым_нный_градиент_372-23" x1="2789.68" y1="341.52" x2="2802.44" y2="341.52" gradientTransform="matrix(-0.74, -0.03, -0.05, 1, 2276.32, 44.92)" xlink:href="#Ѕезым_нный_градиент_372"/>
    <linearGradient id="Ѕезым_нный_градиент_372-24" x1="2795.55" y1="351.44" x2="2797.01" y2="351.44" gradientTransform="matrix(-0.74, -0.03, -0.05, 1, 2276.32, 44.92)" xlink:href="#Ѕезым_нный_градиент_372"/>
    <linearGradient id="Ѕезым_нный_градиент_119-27" x1="49.19" y1="307.77" x2="103.74" y2="307.77" xlink:href="#Ѕезым_нный_градиент_119"/>
    <linearGradient id="Ѕезым_нный_градиент_119-28" x1="75.47" y1="347.57" x2="75.47" y2="315.04" xlink:href="#Ѕезым_нный_градиент_119"/>
    <linearGradient id="Ѕезым_нный_градиент_140-5" x1="76.63" y1="327.18" x2="76.63" y2="318.76" xlink:href="#Ѕезым_нный_градиент_140"/>
    <linearGradient id="Ѕезым_нный_градиент_222-3" x1="14.42" y1="268.59" x2="14.42" y2="198.5" xlink:href="#Ѕезым_нный_градиент_222"/>
    <linearGradient id="Ѕезым_нный_градиент_222-4" x1="125.97" y1="268.77" x2="125.97" y2="201.91" xlink:href="#Ѕезым_нный_градиент_222"/>
    <linearGradient id="Ѕезым_нный_градиент_228-2" x1="73.32" y1="261.98" x2="73.32" y2="179.36" xlink:href="#Ѕезым_нный_градиент_228"/>
    <linearGradient id="Ѕезым_нный_градиент_119-29" x1="61.16" y1="346.13" x2="85.01" y2="346.13" xlink:href="#Ѕезым_нный_градиент_119"/>
    <linearGradient id="Ѕезым_нный_градиент_355" data-name="Ѕезым€нный градиент 355" x1="86.5" y1="347.57" x2="86.5" y2="344.69" gradientUnits="userSpaceOnUse">
      <stop offset="0" stop-color="#a91a1c"/>
      <stop offset="0.98" stop-color="#ca4a0b"/>
    </linearGradient>
    <linearGradient id="Ѕезым_нный_градиент_199" data-name="Ѕезым€нный градиент 199" x1="862.92" y1="207.83" x2="862.92" y2="156.63" gradientUnits="userSpaceOnUse">
      <stop offset="0" stop-color="#140c11"/>
      <stop offset="0.98" stop-color="#110b38"/>
    </linearGradient>
    <linearGradient id="Ѕезым_нный_градиент_39" data-name="Ѕезым€нный градиент 39" x1="882.24" y1="352.51" x2="882.24" y2="195.58" gradientUnits="userSpaceOnUse">
      <stop offset="0" stop-color="#c3b1ff"/>
      <stop offset="0.99" stop-color="#bbb8ff"/>
    </linearGradient>
    <linearGradient id="Ѕезым_нный_градиент_195" data-name="Ѕезым€нный градиент 195" x1="935.2" y1="215.68" x2="935.2" y2="155.17" gradientUnits="userSpaceOnUse">
      <stop offset="0" stop-color="#140c11"/>
      <stop offset="0.98" stop-color="#2c2556"/>
    </linearGradient>
    <linearGradient id="Ѕезым_нный_градиент_195-2" x1="957.39" y1="219.48" x2="957.39" y2="195.58" xlink:href="#Ѕезым_нный_градиент_195"/>
    <linearGradient id="Ѕезым_нный_градиент_39-2" x1="833.87" y1="180.56" x2="930.55" y2="180.56" xlink:href="#Ѕезым_нный_градиент_39"/>
    <linearGradient id="Ѕезым_нный_градиент_199-2" x1="951.51" y1="219.48" x2="951.51" y2="201.23" xlink:href="#Ѕезым_нный_градиент_199"/>
    <linearGradient id="Ѕезым_нный_градиент_167" data-name="Ѕезым€нный градиент 167" x1="878.36" y1="203.15" x2="878.36" y2="155.17" gradientUnits="userSpaceOnUse">
      <stop offset="0" stop-color="#686cd6"/>
      <stop offset="0.99" stop-color="#8d7dad"/>
    </linearGradient>
    <linearGradient id="Ѕезым_нный_градиент_208" data-name="Ѕезым€нный градиент 208" x1="864.45" y1="151.46" x2="903.82" y2="151.46" gradientUnits="userSpaceOnUse">
      <stop offset="0" stop-color="#868fff"/>
      <stop offset="0.99" stop-color="#a497d5"/>
    </linearGradient>
    <linearGradient id="Ѕезым_нный_градиент_199-3" x1="911.88" y1="169.04" x2="911.88" y2="146.39" xlink:href="#Ѕезым_нный_градиент_199"/>
    <linearGradient id="Ѕезым_нный_градиент_167-2" x1="916.58" y1="188.52" x2="916.58" y2="155.17" xlink:href="#Ѕезым_нный_градиент_167"/>
    <linearGradient id="Ѕезым_нный_градиент_167-3" x1="847.86" y1="190.08" x2="847.86" y2="156.53" xlink:href="#Ѕезым_нный_градиент_167"/>
    <linearGradient id="Ѕезым_нный_градиент_119-30" x1="883.62" y1="204.67" x2="883.62" y2="173.36" xlink:href="#Ѕезым_нный_градиент_119"/>
    <linearGradient id="Ѕезым_нный_градиент_140-6" x1="884.86" y1="202.01" x2="884.86" y2="178.12" xlink:href="#Ѕезым_нный_градиент_140"/>
    <linearGradient id="Ѕезым_нный_градиент_372-25" x1="899" y1="204.67" x2="899" y2="173.36" xlink:href="#Ѕезым_нный_градиент_372"/>
    <linearGradient id="Ѕезым_нный_градиент_119-31" x1="879.62" y1="352.51" x2="879.62" y2="317.32" xlink:href="#Ѕезым_нный_градиент_119"/>
    <linearGradient id="Ѕезым_нный_градиент_192" data-name="Ѕезым€нный градиент 192" x1="880.59" y1="352.51" x2="880.59" y2="321.55" gradientUnits="userSpaceOnUse">
      <stop offset="0.01" stop-color="#822139"/>
      <stop offset="0.98" stop-color="#4c203f"/>
    </linearGradient>
    <linearGradient id="Ѕезым_нный_градиент_119-32" x1="829.56" y1="219.75" x2="958.08" y2="219.75" xlink:href="#Ѕезым_нный_градиент_119"/>
    <linearGradient id="Ѕезым_нный_градиент_372-26" x1="829.56" y1="219.75" x2="958.08" y2="219.75" xlink:href="#Ѕезым_нный_градиент_372"/>
    <linearGradient id="Ѕезым_нный_градиент_119-33" x1="855.62" y1="262.54" x2="855.62" y2="228.69" gradientTransform="translate(-9.56 20.63) rotate(-1.59)" xlink:href="#Ѕезым_нный_градиент_119"/>
    <linearGradient id="Ѕезым_нный_градиент_140-7" x1="856.96" y1="259.64" x2="856.96" y2="233.83" gradientTransform="translate(-9.56 20.63) rotate(-1.59)" xlink:href="#Ѕезым_нный_градиент_140"/>
    <linearGradient id="Ѕезым_нный_градиент_372-27" x1="863.3" y1="262.45" x2="863.3" y2="228.69" gradientTransform="translate(-9.56 20.63) rotate(-1.59)" xlink:href="#Ѕезым_нный_градиент_372"/>
    <linearGradient id="Ѕезым_нный_градиент_119-34" x1="904.85" y1="258.06" x2="904.85" y2="224.26" gradientTransform="translate(3.98 -7.78) rotate(0.57)" xlink:href="#Ѕезым_нный_градиент_119"/>
    <linearGradient id="Ѕезым_нный_градиент_140-8" x1="906.19" y1="255.19" x2="906.19" y2="229.41" gradientTransform="translate(3.98 -7.78) rotate(0.57)" xlink:href="#Ѕезым_нный_градиент_140"/>
    <linearGradient id="Ѕезым_нный_градиент_372-28" x1="912.51" y1="258.06" x2="912.51" y2="224.28" gradientTransform="translate(3.98 -7.78) rotate(0.57)" xlink:href="#Ѕезым_нный_градиент_372"/>
    <linearGradient id="Ѕезым_нный_градиент_119-35" x1="854.15" y1="315.6" x2="854.15" y2="281.5" gradientTransform="translate(-9.56 20.63) rotate(-1.59)" xlink:href="#Ѕезым_нный_градиент_119"/>
    <linearGradient id="Ѕезым_нный_градиент_140-9" x1="855.49" y1="312.74" x2="855.49" y2="286.64" gradientTransform="translate(-9.56 20.63) rotate(-1.59)" xlink:href="#Ѕезым_нный_градиент_140"/>
    <linearGradient id="Ѕезым_нный_градиент_372-29" x1="861.83" y1="315.6" x2="861.83" y2="281.5" gradientTransform="translate(-9.56 20.63) rotate(-1.59)" xlink:href="#Ѕезым_нный_градиент_372"/>
    <linearGradient id="Ѕезым_нный_градиент_119-36" x1="905.37" y1="310.83" x2="905.37" y2="277.09" gradientTransform="translate(3.98 -7.78) rotate(0.57)" xlink:href="#Ѕезым_нный_градиент_119"/>
    <linearGradient id="Ѕезым_нный_градиент_140-10" x1="906.72" y1="307.96" x2="906.72" y2="282.23" gradientTransform="translate(3.98 -7.78) rotate(0.57)" xlink:href="#Ѕезым_нный_градиент_140"/>
    <linearGradient id="Ѕезым_нный_градиент_372-30" x1="913.03" y1="310.83" x2="913.03" y2="277.1" gradientTransform="translate(3.98 -7.78) rotate(0.57)" xlink:href="#Ѕезым_нный_градиент_372"/>
    <linearGradient id="Ѕезым_нный_градиент_119-37" x1="829.56" y1="272.71" x2="955.13" y2="272.71" xlink:href="#Ѕезым_нный_градиент_119"/>
    <linearGradient id="Ѕезым_нный_градиент_372-31" x1="829.56" y1="272.71" x2="955.13" y2="272.71" xlink:href="#Ѕезым_нный_градиент_372"/>
    <linearGradient id="Ѕезым_нный_градиент_119-38" x1="879.86" y1="317.32" x2="879.86" y2="217.13" xlink:href="#Ѕезым_нный_градиент_119"/>
    <linearGradient id="Ѕезым_нный_градиент_372-32" x1="882.64" y1="317.32" x2="882.64" y2="217.13" xlink:href="#Ѕезым_нный_градиент_372"/>
    <linearGradient id="Ѕезым_нный_градиент_199-4" x1="932.88" y1="194.18" x2="932.88" y2="186.96" xlink:href="#Ѕезым_нный_градиент_199"/>
  </defs>
  <g class="cls-2">
    <g id="Слой_2" data-name="Слой 2">
      <g id="houses_02">
        <g class="cls-3">
          <g>
            <g>
              <g>
                <polygon class="cls-4" points="182.95 272.68 166.19 211.31 185.91 203.11 209.6 272.68 182.95 272.68"/>
                <polygon class="cls-5" points="159.96 347.45 10.92 347.56 8.6 267.19 160.84 261.41 159.96 347.45"/>
                <polygon class="cls-6" points="202.26 265.34 198.21 347.45 159.96 347.45 160.84 261.41 183.03 213.28 202.26 265.34"/>
                <polygon class="cls-7" points="202.26 265.34 198.21 347.45 159.96 347.45 160.84 261.41 183.03 213.28 202.26 265.34"/>
                <polygon class="cls-8" points="28.03 199.62 32.48 202.88 179.94 201.55 186.41 198.5 163.23 255.54 153.34 268.83 -8.1 268.59 28.03 199.62"/>
                <polygon class="cls-9" points="-8.1 268.59 -4.8 270.17 116.69 270.74 112.22 268.77 -8.1 268.59"/>
                <polygon class="cls-9" points="46.19 261.98 87.13 195.35 79.88 175.8 34.24 259.68 46.19 261.98"/>
                <polygon class="cls-10" points="45.79 347.47 42.99 256.91 80.51 189.54 108.87 252.05 106.7 347.56 45.79 347.47"/>
                <polygon class="cls-11" points="186.41 198.5 213.68 270.74 209.6 272.68 186.41 208.57 157.59 270.74 153.34 268.83 186.41 198.5"/>
                <polygon class="cls-7" points="124.28 347.23 126.45 256.53 108.87 252.05 106.7 347.56 124.28 347.23"/>
                <polygon class="cls-12" points="34.24 259.68 77.85 182.31 111.46 261.98 116.69 261.78 82.69 179.36 82.69 168.94 74.92 168.94 73.9 179.36 30.33 258.87 34.24 259.68"/>
                <polygon class="cls-13" points="143.21 203.11 112.22 268.77 153.34 268.83 186.41 198.5 179.94 201.55 143.21 203.11"/>
                <polygon class="cls-11" points="82.69 168.94 84.72 169.68 84.72 176.39 139.71 201.91 116.69 261.78 82.69 179.36 82.69 168.94"/>
                <polygon class="cls-9" points="112.22 268.77 116.69 270.74 157.59 270.74 153.34 268.83 112.22 268.77"/>
                <polygon class="cls-14" points="42.99 256.91 43.94 263.55 81.23 195.78 108.63 260.06 108.87 255.05 80.51 188.62 42.99 256.91"/>
                <polygon class="cls-15" points="106.7 347.56 108.87 255.05 104.47 249.53 103.2 347.56 106.7 347.56"/>
                <polygon class="cls-16" points="47.98 251.84 104.81 251.84 104.35 255.64 47.98 255.64 47.98 251.84"/>
                <polygon class="cls-17" points="104.09 278.94 88.72 255.56 94.19 255.64 104.36 272.85 104.09 278.94"/>
                <polygon class="cls-18" points="108.87 255.05 110.64 258.68 108.61 347.56 106.7 347.56 108.87 255.05"/>
                <polygon class="cls-19" points="50.38 251.84 52.72 251.84 82.01 197.76 81.23 195.78 50.38 251.84"/>
                <polygon class="cls-20" points="48.29 255.64 47.98 256.2 48.66 347.47 50.13 347.56 49.46 255.64 48.29 255.64"/>
                <polygon class="cls-21" points="62.64 255.64 47.98 276.96 49.46 276.96 64.44 255.64 62.64 255.64"/>
                <polygon class="cls-22" points="94.19 255.64 104.36 272.85 104.2 271.01 95.66 255.64 94.19 255.64"/>
                <polygon class="cls-23" points="45.79 347.47 42.99 256.91 47.98 251.84 48.66 347.47 45.79 347.47"/>
                <polygon class="cls-24" points="47.98 276.96 62.64 255.64 58.47 255.64 47.98 272 47.98 276.96"/>
                <polygon class="cls-25" points="10.92 347.56 8.6 270.24 13.29 270.26 13.96 347.45 10.92 347.56"/>
                <polygon class="cls-26" points="13.96 347.45 15.65 347.45 14.98 270.26 13.29 270.26 13.96 347.45"/>
                <polygon class="cls-27" points="159.96 347.45 160.92 263.55 157.59 270.74 156 270.73 155.4 347.45 159.96 347.45"/>
                <polygon class="cls-28" points="159.96 347.45 160.92 263.55 164.59 255.64 162.27 347.47 159.96 347.45"/>
                <polygon class="cls-29" points="199.84 258.77 196.16 347.56 198.21 347.45 202.26 265.34 199.84 258.77"/>
                <polygon class="cls-30" points="164.46 260.73 199.7 261.98 199.84 258.77 199.21 257.09 164.59 255.64 164.46 260.73"/>
                <polygon class="cls-30" points="188.22 261.51 198.94 280.37 199.21 275.16 191.07 261.51 188.22 261.51"/>
                <polygon class="cls-30" points="178.16 261.21 163.97 280.37 164.1 275.16 174.37 261.08 178.16 261.21"/>
                <g>
                  <polygon class="cls-31" points="65.72 243.52 91.49 242.99 91.08 246.95 65.72 246.95 65.72 243.52"/>
                  <polygon class="cls-32" points="91.49 242.99 93.3 242.99 93.11 246.95 91.08 246.95 91.49 242.99"/>
                  <path class="cls-33" d="M70.49,243.42s1.5-14.22,8.45-14.27,8.87,13.9,8.87,13.9Z"/>
                  <path class="cls-34" d="M72.77,243.42s1.5-14.22,8.45-14.27,8.87,13.9,8.87,13.9Z"/>
                  <path class="cls-35" d="M92,243s-2.21-16.91-12.25-16.86c0,0,9.93,9.05,10.47,16.92Z"/>
                  <path class="cls-36" d="M67.29,243.48s2.59-16.33,11.32-17.3S90.68,243,90.68,243l-4,0s-.64-13.93-7.7-13.93c-6.23,0-8.45,14.27-8.45,14.27Z"/>
                  <polygon class="cls-37" points="78.98 243.28 73.15 235.73 73.83 234.22 79.72 243.22 78.98 243.28"/>
                  <polygon class="cls-38" points="84.77 234.22 78.98 243.28 80.17 243.16 85.23 235.46 84.77 234.22"/>
                </g>
                <g>
                  <polygon class="cls-39" points="67.56 297.52 66.51 276.92 75.68 264.54 84.86 276.92 83.03 298.03 67.56 297.52"/>
                  <polygon class="cls-40" points="75.68 264.54 76.4 264.54 85.36 276.92 84.44 298.03 83.03 298.03 84.44 276.92 75.68 264.54"/>
                  <polygon class="cls-41" points="66.51 297.22 66.95 300.36 83.53 300.36 84.13 297.22 66.51 297.22"/>
                  <polygon class="cls-42" points="84.13 297.22 85.36 297.35 84.74 300.36 83.53 300.36 84.13 297.22"/>
                  <polygon class="cls-43" points="69.37 297.22 68.76 277.7 75.68 268.24 82.55 277.95 81.43 297.22 69.37 297.22"/>
                  <polygon class="cls-44" points="71.41 297.22 70.66 278.69 76.97 270.05 82.55 277.95 81.43 297.22 71.41 297.22"/>
                  <polygon class="cls-45" points="69.79 278.69 70.49 277.38 82.15 277.38 82.55 277.95 82.51 278.69 69.79 278.69"/>
                  <polygon class="cls-46" points="75.65 297.22 75.68 278.69 77.11 278.69 76.63 297.22 75.65 297.22"/>
                </g>
                <g>
                  <polygon class="cls-47" points="21.96 311.18 20.91 290.58 30.09 278.2 39.26 290.58 37.44 311.7 21.96 311.18"/>
                  <polygon class="cls-48" points="30.09 278.2 30.81 278.2 39.76 290.58 38.85 311.7 37.44 311.7 38.85 290.58 30.09 278.2"/>
                  <polygon class="cls-49" points="20.91 310.88 21.36 314.02 37.94 314.02 38.53 310.88 20.91 310.88"/>
                  <polygon class="cls-50" points="38.53 310.88 39.76 311.01 39.14 314.02 37.94 314.02 38.53 310.88"/>
                  <polygon class="cls-51" points="23.77 310.88 23.16 291.36 30.09 281.9 36.95 291.61 35.83 310.88 23.77 310.88"/>
                  <polygon class="cls-52" points="25.81 310.88 25.07 292.36 31.37 283.72 36.95 291.61 35.83 310.88 25.81 310.88"/>
                  <polygon class="cls-53" points="24.19 292.36 24.89 291.04 36.55 291.04 36.95 291.61 36.91 292.36 24.19 292.36"/>
                  <polygon class="cls-54" points="30.06 310.88 30.09 292.36 31.52 292.36 31.03 310.88 30.06 310.88"/>
                </g>
                <g>
                  <polygon class="cls-55" points="131.36 311.18 130.31 290.58 139.49 278.2 148.67 290.58 146.84 311.7 131.36 311.18"/>
                  <polygon class="cls-56" points="139.49 278.2 140.21 278.2 149.16 290.58 148.25 311.7 146.84 311.7 148.25 290.58 139.49 278.2"/>
                  <polygon class="cls-57" points="130.31 310.88 130.76 314.02 147.34 314.02 147.94 310.88 130.31 310.88"/>
                  <polygon class="cls-58" points="147.94 310.88 149.16 311.01 148.55 314.02 147.34 314.02 147.94 310.88"/>
                  <polygon class="cls-59" points="133.18 310.88 132.57 291.36 139.49 281.9 146.36 291.61 145.24 310.88 133.18 310.88"/>
                  <polygon class="cls-60" points="135.21 310.88 134.47 292.36 140.78 283.72 146.36 291.61 145.24 310.88 135.21 310.88"/>
                  <polygon class="cls-61" points="133.6 292.36 134.3 291.04 145.96 291.04 146.36 291.61 146.31 292.36 133.6 292.36"/>
                  <polygon class="cls-62" points="139.46 310.88 139.49 292.36 140.92 292.36 140.44 310.88 139.46 310.88"/>
                </g>
                <g>
                  <polygon class="cls-63" points="189.61 309.37 191.35 288.82 185.1 276.14 177.72 288.19 178.09 309.34 189.61 309.37"/>
                  <polygon class="cls-64" points="185.1 276.14 183.67 276.53 176.35 287.99 176.4 309.26 178.09 309.34 178.03 288.2 185.1 276.14"/>
                  <polygon class="cls-65" points="190.4 309.1 189.93 312.22 177.61 311.65 177.32 308.49 190.4 309.1"/>
                  <polygon class="cls-66" points="177.32 308.49 175.68 308.65 175.68 311.56 177.61 311.65 177.32 308.49"/>
                  <polygon class="cls-67" points="188.28 309 189.64 289.52 184.93 279.83 179.38 289.3 179.32 308.58 188.28 309"/>
                  <polygon class="cls-68" points="186.77 308.93 188.18 290.45 183.9 281.6 179.38 289.3 179.32 308.58 186.77 308.93"/>
                  <polygon class="cls-69" points="188.83 290.48 188.37 289.14 179.71 288.74 179.38 289.3 179.38 290.04 188.83 290.48"/>
                  <polygon class="cls-70" points="183.61 308.78 184.45 290.28 183.39 290.23 182.89 308.75 183.61 308.78"/>
                </g>
                <polygon class="cls-71" points="49.19 305.87 103.74 305.87 103.69 309.66 49.19 309.66 49.19 305.87"/>
                <g>
                  <path class="cls-30" d="M68.1,347.57l-1.81-21.09s2-11.4,10.1-11.44c7.6,0,10.11,11,10.11,11l-1.4,21.52Z"/>
                  <path class="cls-72" d="M67.17,347.57l-1.8-21.09s2-11.4,10.1-11.44c7.59,0,10.1,11,10.1,11l-1.4,21.52Z"/>
                  <path class="cls-30" d="M83.12,327.66l-1.06,19.15H69.19l-1.37-18.76s.88-10.55,7.65-10.56a4.48,4.48,0,0,1,.73.05C82,318.27,83.12,327.66,83.12,327.66Z"/>
                  <path class="cls-73" d="M83.12,327.66l-1.06,19.15H70.65l-1.37-18.76s.81-9.78,6.92-10.51C82,318.27,83.12,327.66,83.12,327.66Z"/>
                  <path class="cls-74" d="M70.71,327.18H82.55s-1.48-8.42-5.92-8.42C71.69,318.76,70.71,327.18,70.71,327.18Z"/>
                </g>
                <polygon class="cls-11" points="186.41 198.5 172.97 225.08 173.41 226.14 158.55 253.74 159.58 255.56 153.34 268.83 157.59 270.74 186.41 208.57 209.6 272.68 213.68 270.74 209.16 258.77 210.21 258.18 199.21 230.37 199.84 229.89 186.41 198.5"/>
                <polygon class="cls-75" points="28.03 199.62 13.29 223.81 14.78 224.9 -0.76 251.84 0.56 252.05 -8.1 268.59 11.28 268.55 36.95 202.84 32.48 202.88 30.06 198.5 28.03 199.62"/>
                <polygon class="cls-76" points="112.22 268.77 120.21 251.84 118.93 251.84 128.98 229.84 127.9 229.47 139.71 201.91 116.69 268.55 112.22 268.77"/>
                <polygon class="cls-77" points="127.9 229.47 157.59 229.15 169.9 201.66 139.71 201.91 127.9 229.47"/>
                <polygon class="cls-77" points="158.55 253.74 147.97 253.74 162.27 227.56 173.41 226.14 158.55 253.74"/>
                <polygon class="cls-78" points="112.22 268.77 120.21 251.84 143.01 252.05 136.15 268.55 112.22 268.77"/>
                <polygon class="cls-11" points="158.55 253.74 133.06 253.74 159.58 255.56 158.55 253.74"/>
                <polygon class="cls-11" points="145.33 229.15 134.15 253.74 135.36 253.74 145.33 229.15"/>
                <polygon class="cls-11" points="127.9 229.47 128.98 229.84 157.59 229.15 127.9 229.47"/>
                <polygon class="cls-11" points="169.9 201.66 160.84 221.89 171.37 201.91 169.9 201.66"/>
                <polygon class="cls-11" points="13.29 223.81 39.26 223.81 14.78 224.9 13.29 223.81"/>
                <polygon class="cls-11" points="25.01 252.05 39.26 223.81 23.97 250.63 -0.76 251.84 0.56 252.05 25.01 252.05"/>
                <polygon class="cls-77" points="-0.76 251.84 23.97 250.63 39.26 223.81 14.78 224.9 -0.76 251.84"/>
                <polygon class="cls-78" points="36.95 202.84 25.07 220.12 50.13 218.89 60.69 202.63 36.95 202.84"/>
                <polygon class="cls-77" points="3.77 268.55 10.11 260.31 26.27 260.31 20.91 268.83 3.77 268.55"/>
                <polygon class="cls-79" points="82.69 179.36 94.19 204.61 93.52 205.6 108.67 239.46 107.68 239.94 116.31 260.86 111.46 261.98 77.85 182.31 34.24 259.68 30.33 258.87 39.01 243.04 36.95 242.99 51.57 220.12 50.87 219.26 73.9 179.36 82.69 179.36"/>
                <polygon class="cls-11" points="136.03 268.83 140.22 258.77 134.15 268.77 136.03 268.83"/>
                <polygon class="cls-11" points="20.91 268.83 26.27 260.31 22.43 268.77 20.91 268.83"/>
                <polygon class="cls-80" points="8.84 278.2 44.06 291.54 43.41 270.26 8.6 270.24 8.84 278.2"/>
                <polygon class="cls-80" points="42.99 256.91 43.29 266.43 91 213.48 108.87 255.84 108.87 268.83 106.7 347.56 122.62 347.26 129.54 282.44 160.92 280.03 186.41 245.18 201.99 270.94 202.26 265.34 183.51 214.57 157.59 270.74 116.69 270.74 112.22 268.77 115.52 261.78 111.46 261.98 80.51 188.62 42.99 256.91"/>
                <polygon class="cls-81" points="61.16 347.57 62.16 344.69 85.01 344.69 85.01 347.57 61.16 347.57"/>
                <polygon class="cls-82" points="85.01 344.69 87.98 345.32 87.98 347.5 85.01 347.57 85.01 344.69"/>
                <polygon class="cls-77" points="93.52 205.6 103.75 206.58 118.35 239.92 108.67 239.46 93.52 205.6"/>
                <polygon class="cls-78" points="125.7 195.41 134.15 216.38 139.71 201.91 125.7 195.41"/>
                <polygon class="cls-9" points="108.67 239.46 122.19 240.37 107.68 239.94 108.67 239.46"/>
                <polygon class="cls-83" points="25.07 335.81 23.16 328.65 31.52 320.81 44.06 322.97 42.88 337.54 37.94 342.49 28.59 339.33 25.07 335.81"/>
                <polygon class="cls-83" points="21.53 327.93 20.91 326.12 17.81 327.02 17.81 329.2 20.91 329.2 21.53 327.93"/>
                <polygon class="cls-83" points="22.25 326.12 22.25 324.4 23.97 324.4 23.16 326.12 22.25 326.12"/>
                <polygon class="cls-83" points="162.95 320.81 175.68 336.08 187.9 343.51 187.9 347.44 162.27 347.47 162.95 320.81"/>
                <polygon class="cls-83" points="187.9 330.92 190.4 340.25 189.64 347.44 196.16 347.56 197.15 323.84 187.9 330.92"/>
                <polygon class="cls-83" points="145.33 327.66 140.92 339.33 148.67 347.44 155.4 347.45 155.54 329.2 149.31 326.3 145.33 327.66"/>
                <polygon class="cls-83" points="138.01 338.56 139.12 340.6 134.9 345.32 131.37 342.49 132.57 335.18 135.25 335.18 138.01 338.56"/>
                <polygon class="cls-83" points="99.31 294.7 100.42 296.74 96.2 301.46 92.67 298.64 93.86 291.32 96.54 291.32 99.31 294.7"/>
                <polygon class="cls-83" points="136.54 331.65 136.02 329.93 136.84 329.23 139.46 329.93 138.8 331.41 136.54 331.65"/>
                <polygon class="cls-83" points="87.95 318.21 87.43 316.49 88.25 315.79 90.87 316.49 90.21 317.97 87.95 318.21"/>
                <polygon class="cls-78" points="64.44 251.84 75.32 254.49 81.43 255.56 85.85 255.64 78.05 253.74 71.95 251.84 64.44 251.84"/>
                <polygon class="cls-78" points="78.98 251.84 79.72 253.11 85.36 254.33 90.09 255.56 91.97 255.56 86.66 254.06 82.55 252.97 81.43 251.84 78.98 251.84"/>
                <polygon class="cls-78" points="93.3 262.52 97.34 264.24 102.23 271.32 104.23 275.85 104.11 277.38 101.47 271.23 97.25 264.88 94.43 264.24 93.3 262.52"/>
                <polygon class="cls-78" points="91.49 259.78 98.55 263.02 97.59 261.4 94.19 260.58 90.56 258.36 91.49 259.78"/>
                <polygon class="cls-78" points="51.3 305.87 66.2 308.85 82.69 309.66 86.5 309.66 76.63 308.05 70.71 308.32 66.51 308.18 62.2 306.24 61.56 305.87 51.3 305.87"/>
                <polygon class="cls-78" points="85.48 305.87 92.67 309.66 93.3 309.66 89.39 305.87 85.48 305.87"/>
                <polygon class="cls-78" points="104.04 282.73 106.7 290.07 106.04 300.36 107.49 316.43 107.38 318.76 106.04 314.02 105.77 300.74 105.41 297.68 106.04 289.61 104.01 285.63 104.04 282.73"/>
                <polygon class="cls-78" points="103.69 310.12 105.04 320.81 107.19 326.12 107.19 328.47 106.7 327.18 105.44 322.16 104.62 320.77 103.64 314.31 103.69 310.12"/>
                <polygon class="cls-78" points="9.54 301.62 12.83 317.12 12.83 322.62 13.85 334.57 13.79 327.66 13.29 322.28 13.29 317.03 11.7 304.49 9.54 299 9.54 301.62"/>
                <polygon class="cls-78" points="9.77 307.77 11.7 320.81 11.28 333.76 10.62 337.54 9.77 307.77"/>
                <polygon class="cls-78" points="45.79 347.47 44.46 304.44 45.79 308.85 45.83 314.02 48.49 324.4 48.49 330.6 47.98 324.76 45.83 317.49 45.83 316.02 45.83 325.67 47.21 333.32 48.59 337.54 48.66 347.47 45.79 347.47"/>
                <polygon class="cls-80" points="110.11 212.71 124.78 216.78 123.34 208.72 123.03 215.36 110.11 212.71"/>
              </g>
              <polygon class="cls-84" points="213.68 270.74 209.16 258.77 210.21 258.18 199.21 230.37 199.84 229.89 186.41 198.5 179.94 201.55 139.78 201.91 139.71 201.91 84.72 176.39 84.72 169.68 82.69 168.94 74.92 168.94 73.9 179.36 60.47 202.63 36.95 202.84 32.48 202.88 30.06 198.5 28.03 199.62 13.29 223.81 14.78 224.9 14.78 224.9 -0.76 251.84 0.56 252.05 -8.1 268.59 7.45 268.61 7.45 268.61 -8.1 268.59 -4.8 270.17 8.6 270.24 8.6 270.24 8.84 278.2 8.84 278.2 10.62 337.53 10.62 337.54 10.62 337.54 10.92 347.56 49.66 347.53 50.13 347.56 50.13 347.53 61.17 347.52 61.16 347.57 67.17 347.57 68.1 347.57 84.17 347.57 85.01 347.57 85.1 347.57 85.1 347.57 86.78 347.53 103.2 347.56 103.2 347.56 106.7 347.56 108.61 347.56 108.61 347.52 110.61 347.49 159.96 347.45 162.27 347.47 162.27 347.45 162.27 347.45 162.27 347.47 180.99 347.45 190.08 347.45 196.16 347.56 198.21 347.45 201.9 272.68 209.6 272.68 213.68 270.74"/>
            </g>
            <polygon class="cls-85" points="-5.57 193.54 176.44 198.7 180.5 341.37 -9.54 348.59 -5.57 193.54"/>
            <g>
              <g>
                <polygon class="cls-86" points="836.75 344.8 835.46 343.42 835.46 328.97 836.43 328.25 836.29 321.55 835.31 321.55 834.88 301.48 836.05 300.66 834.83 298.72 834.37 276.85 835.56 274.42 835.56 271.38 834.22 269.92 833.98 258.35 835.02 256.7 834.88 255.5 833.89 254.52 833.57 239.16 834.66 238.17 834.64 237.27 833.52 236.79 833.98 232.41 837.54 232.87 836.9 352.51 836.75 344.8"/>
                <polygon class="cls-87" points="813.95 203.15 840.32 207.83 911.88 167.81 905.7 156.63 865.48 159.33 826.19 200.24 813.95 203.15"/>
                <polygon class="cls-88" points="836.9 352.51 833.87 197.96 930.61 195.58 924.81 352.51 836.9 352.51"/>
                <polygon class="cls-7" points="930.61 195.58 957.01 210.33 948.79 352.51 924.81 352.51 930.61 195.58"/>
                <polygon class="cls-89" points="903.82 155.17 924.81 169.04 966.59 215.68 934.39 199.66 903.82 155.17"/>
                <polygon class="cls-90" points="943.54 195.58 971.75 216.51 970.14 219.48 943.03 201.95 943.54 195.58"/>
                <polygon class="cls-91" points="833.87 197.96 866.21 165.53 906.89 163.17 930.55 197.09 833.87 197.96"/>
                <polygon class="cls-92" points="970.14 219.48 956.48 217.11 956.48 215.68 932.87 201.23 943.54 201.23 970.14 219.48"/>
                <polygon class="cls-93" points="943.54 201.23 932.87 201.23 902.43 159.37 865.7 160.42 825.9 201.86 813.95 203.15 813.17 197.96 824.48 198.02 864.45 156.53 903.82 155.17 934.01 195.58 943.54 195.58 943.54 201.23"/>
                <polygon class="cls-94" points="864.45 156.53 898.94 146.39 903.82 155.17 864.45 156.53"/>
                <polygon class="cls-95" points="898.94 146.39 910.19 154.55 924.81 169.04 903.82 155.17 898.94 146.39"/>
                <polygon class="cls-86" points="931.27 226.84 910.96 228.4 910.96 239.16 913.69 240.98 930.75 240.98 931.27 226.84"/>
                <polygon class="cls-86" points="930.54 246.58 923.53 246.58 921.12 250.23 921.12 261.08 929.78 267.14 930.54 246.58"/>
                <polygon class="cls-86" points="929.62 271.38 926.63 272.48 922.93 275.81 922.93 281.64 929.1 285.5 929.62 271.38"/>
                <polygon class="cls-86" points="929.01 288.08 920.2 288.08 911.87 290.86 910.96 298.72 923.69 301.6 928.48 302.31 929.01 288.08"/>
                <polygon class="cls-86" points="928.32 306.63 922.93 306.63 921.12 310.81 921.12 317.32 927.77 321.55 928.32 306.63"/>
                <polygon class="cls-86" points="927.55 327.39 925.83 328.97 924.72 334.42 926.13 336.46 927.55 336.46 927.55 327.39"/>
                <polygon class="cls-86" points="927.55 340.85 916.21 340.85 910.96 346.62 910.96 352.51 926.63 352.51 927.55 340.85"/>
                <polygon class="cls-86" points="833.25 223.7 846.83 223.47 849.76 228.4 847.48 234.06 839.35 236.98 833.52 236.79 833.25 223.7"/>
                <polygon class="cls-86" points="833.57 239.16 837.83 239.16 839.78 243.45 841.5 250.41 837.54 254.52 833.89 254.52 833.57 239.16"/>
                <polygon class="cls-86" points="833.98 258.35 837.54 258.35 841.5 262.11 838.92 265.38 834.22 269.92 833.98 258.35"/>
                <polygon class="cls-86" points="834.37 276.85 837.74 280.86 837.74 294.8 834.83 298.72 834.37 276.85"/>
                <polygon class="cls-86" points="834.88 301.48 837.74 301.48 844.99 309.06 844.99 318.3 841.5 321.55 835.31 321.55 834.88 301.48"/>
                <polygon class="cls-86" points="835.46 328.97 839.94 329.93 841.5 334.42 841.5 340.85 835.46 343.42 835.46 328.97"/>
                <polygon class="cls-86" points="833.87 197.96 840.67 199.33 844.3 210.35 842.49 215.49 833.98 215.68 833.87 197.96"/>
                <polygon class="cls-86" points="930.55 201.23 921.12 203.15 918.17 207.83 915.81 214.18 929.92 214.18 930.55 201.23"/>
                <polygon class="cls-96" points="931.67 226.84 937.57 232.41 937.57 240.98 935.6 242.13 929.29 242.13 914.08 240.98 931.14 240.98 931.67 226.84"/>
                <polygon class="cls-96" points="930.54 246.58 934.29 249.69 934.29 261.44 931.27 265.76 929.78 267.14 930.54 246.58"/>
                <polygon class="cls-96" points="929.62 271.38 931.27 275.71 932.04 281.95 929.1 285.5 929.62 271.38"/>
                <polygon class="cls-96" points="929.01 288.08 937.17 291.31 937.83 294.31 938.54 300.66 932.87 301.48 929.01 303.3 914.49 299.52 928.51 301.48 929.01 288.08"/>
                <polygon class="cls-96" points="928.32 306.63 932.04 309.06 932.87 315.66 932.04 320.21 927.77 321.55 927.55 313.26 926.51 311.51 928.32 306.63"/>
                <polygon class="cls-96" points="927.55 327.39 929.78 330.05 929.62 336.19 927.55 336.46 927.55 327.39"/>
                <polygon class="cls-96" points="927.55 340.85 932.87 345.64 940.25 349 940.25 352.51 926.63 352.51 927.55 340.85"/>
                <polygon class="cls-97" points="903.82 155.17 916.62 170.12 915.81 171.22 929.35 186.96 928.74 188.52 903.82 155.17"/>
                <polygon class="cls-98" points="864.45 156.53 848.85 170.19 850.03 171.5 831.28 188.37 832.13 190.08 864.45 156.53"/>
                <polygon class="cls-80" points="834.37 274.37 834.37 276.85 837.29 279.13 876.87 278.14 929.62 279.21 952.79 283.39 952.69 279.13 954.44 279.13 930.61 272.2 834.37 274.37"/>
                <polygon class="cls-80" points="834.37 219.09 834.37 221.56 839.09 221.13 876.87 222.86 929.62 222.32 955.74 232.41 955.64 229.68 954.44 223.84 930.61 216.92 834.37 219.09"/>
                <g>
                  <polygon class="cls-99" points="867.06 204.67 866.33 180.52 871.12 173.56 896.33 173.36 900.91 180.32 899.04 204.67 867.06 204.67"/>
                  <polygon class="cls-30" points="869.17 202.65 897.26 202.65 898.72 181.32 895.4 175.92 871.94 176.12 868.59 181.12 869.17 202.65"/>
                  <polygon class="cls-73" points="870.24 202.65 869.79 181.52 872.65 177.16 896.04 176.96 898.72 181.32 897.26 202.65 870.24 202.65"/>
                  <polygon class="cls-100" points="871.22 202.01 897.3 202.01 898.72 181.76 896.38 178.12 873.34 178.33 871.01 182.03 871.22 202.01"/>
                  <polygon class="cls-101" points="896.33 173.36 897.48 174.15 901.67 181 899.97 204.67 899.04 204.67 900.91 180.32 896.33 173.36"/>
                  <polygon class="cls-73" points="883.75 178.07 883.47 202.12 884.11 202.12 884.31 178.1 883.75 178.07"/>
                  <polygon class="cls-73" points="875.35 178.28 875.33 202.12 875.9 202.12 875.9 178.31 875.35 178.28"/>
                  <polygon class="cls-73" points="893.23 178.07 892.2 202.01 892.72 202.12 893.7 178.16 893.23 178.07"/>
                  <polygon class="cls-73" points="871.01 182.03 898.72 182.23 898.63 183.14 871.02 182.69 871.01 182.03"/>
                  <polygon class="cls-80" points="868.59 181.12 869.79 181.52 898.5 185.03 898.72 181.76 895.4 175.92 871.94 176.12 868.59 181.12"/>
                </g>
                <polygon class="cls-102" points="867.67 352.51 866.9 317.32 892.34 317.32 891.01 352.51 867.67 352.51"/>
                <polygon class="cls-30" points="870.21 352.51 870.21 321.55 888.85 321.55 887.94 352.51 870.21 352.51"/>
                <polygon class="cls-103" points="872.33 352.51 872.33 321.55 888.85 321.55 887.94 352.51 872.33 352.51"/>
                <polygon class="cls-30" points="892.34 317.32 893.59 317.79 892.34 352.51 891.01 352.51 892.34 317.32"/>
                <polygon class="cls-104" points="829.56 211.31 932.17 209.81 958.08 223.72 957.39 229.68 932.87 217.54 829.56 217.69 829.56 211.31"/>
                <polygon class="cls-105" points="932.17 209.81 930.61 215.72 829.56 217.69 834.37 219.33 930.1 217.61 955.64 229.68 957.39 229.68 958.08 223.72 932.17 209.81"/>
                <g>
                  <polygon class="cls-106" points="844.3 259.52 842.56 233.3 847.55 225.62 856.89 225.31 862.01 232.66 860.61 258.98 844.3 259.52"/>
                  <polygon class="cls-30" points="846.52 257.26 858.64 256.86 859.68 233.81 855.96 228.11 848.5 228.35 845.02 233.87 846.52 257.26"/>
                  <polygon class="cls-73" points="847.67 257.23 846.32 234.25 849.3 229.45 856.68 229.2 859.68 233.81 858.64 256.86 847.67 257.23"/>
                  <polygon class="cls-107" points="848.71 256.5 858.67 256.17 859.69 234.28 857.08 230.45 850.07 230.68 847.64 234.76 848.71 256.5"/>
                  <polygon class="cls-73" points="853.52 256.34 853.11 238.65 854.27 238.61 854.1 256.32 853.52 256.34"/>
                  <polygon class="cls-73" points="847.67 235.9 853.11 238.65 854.27 238.61 859.71 234.95 859.69 234.11 854.25 237.99 857.08 230.45 856.39 230.47 853.67 238.01 850.07 230.68 849.77 231.25 853.3 238.02 847.64 234.76 847.67 235.9"/>
                  <polygon class="cls-108" points="856.89 225.31 858.16 226.12 862.85 233.37 861.61 258.95 860.61 258.98 862.01 232.66 856.89 225.31"/>
                  <polygon class="cls-80" points="845.02 233.87 846.32 234.25 859.53 237.82 859.69 234.28 855.96 228.11 848.5 228.35 845.02 233.87"/>
                </g>
                <g>
                  <polygon class="cls-109" points="897.71 259.12 896.81 232.84 902.04 225.39 911.38 225.5 916.26 233.07 914.03 259.31 897.71 259.12"/>
                  <polygon class="cls-30" points="900 256.97 912.13 257.11 913.9 234.12 910.36 228.25 902.9 228.17 899.24 233.52 900 256.97"/>
                  <polygon class="cls-73" points="901.15 256.98 900.54 233.96 903.66 229.29 911.04 229.38 913.9 234.12 912.13 257.11 901.15 256.98"/>
                  <polygon class="cls-110" points="902.22 256.3 912.18 256.42 913.89 234.59 911.4 230.64 904.39 230.56 901.84 234.53 902.22 256.3"/>
                  <polygon class="cls-73" points="907.03 256.36 907.18 238.66 908.34 238.67 907.61 256.37 907.03 256.36"/>
                  <polygon class="cls-73" points="901.83 235.67 907.18 238.66 908.34 238.67 913.89 235.26 913.89 234.42 908.34 238.05 911.4 230.64 910.72 230.64 907.76 238.05 904.39 230.56 904.08 231.11 907.38 238.04 901.84 234.53 901.83 235.67"/>
                  <polygon class="cls-111" points="911.38 225.5 912.62 226.37 917.08 233.82 915.02 259.32 914.03 259.31 916.26 233.07 911.38 225.5"/>
                  <polygon class="cls-80" points="899.24 233.52 900.54 233.96 913.62 238.12 913.89 234.59 910.36 228.25 902.9 228.17 899.24 233.52"/>
                </g>
                <g>
                  <polygon class="cls-112" points="844.3 312.35 842.56 286.13 847.55 278.45 856.89 278.14 862.01 285.49 860.75 312.14 844.3 312.35"/>
                  <polygon class="cls-30" points="846.52 310.1 858.78 310.03 859.68 286.64 855.96 280.94 848.5 281.19 845.02 286.7 846.52 310.1"/>
                  <polygon class="cls-73" points="847.67 310.06 846.32 287.08 849.3 282.28 856.68 282.04 859.68 286.64 858.78 310.03 847.67 310.06"/>
                  <polygon class="cls-113" points="848.71 309.33 858.82 309.33 859.69 287.12 857.08 283.28 850.07 283.51 847.64 287.59 848.71 309.33"/>
                  <polygon class="cls-73" points="853.67 309.5 853.11 291.48 854.27 291.44 854.25 309.49 853.67 309.5"/>
                  <polygon class="cls-73" points="847.67 288.74 853.11 291.48 854.27 291.44 859.71 287.78 859.69 286.94 854.25 290.82 857.08 283.28 856.39 283.31 853.67 290.84 850.07 283.51 849.77 284.08 853.3 290.86 847.64 287.59 847.67 288.74"/>
                  <polygon class="cls-114" points="856.89 278.14 858.16 278.95 862.85 286.2 861.75 312.11 860.75 312.14 862.01 285.49 856.89 278.14"/>
                  <polygon class="cls-80" points="845.02 286.7 846.32 287.08 859.53 290.65 859.69 287.12 855.96 280.94 848.5 281.19 845.02 286.7"/>
                </g>
                <g>
                  <polygon class="cls-115" points="897.33 311.5 896.81 285.67 902.04 278.22 911.38 278.33 916.26 285.9 914.35 312.09 897.33 311.5"/>
                  <polygon class="cls-30" points="899.62 309.35 912.45 309.89 913.9 286.95 910.36 281.09 902.9 281 899.24 286.35 899.62 309.35"/>
                  <polygon class="cls-73" points="900.77 309.37 900.54 286.8 903.66 282.13 911.04 282.21 913.9 286.95 912.45 309.89 900.77 309.37"/>
                  <polygon class="cls-116" points="901.84 308.69 912.5 309.2 913.89 287.43 911.4 283.48 904.39 283.39 901.84 287.36 901.84 308.69"/>
                  <polygon class="cls-73" points="907.03 309.19 907.18 291.49 908.34 291.5 907.61 309.2 907.03 309.19"/>
                  <polygon class="cls-73" points="901.83 288.5 907.18 291.49 908.34 291.5 913.89 288.09 913.89 287.25 908.34 290.89 911.4 283.48 910.72 283.47 907.76 290.88 904.39 283.39 904.08 283.94 907.38 290.88 901.84 287.36 901.83 288.5"/>
                  <polygon class="cls-117" points="911.38 278.33 912.62 279.2 917.08 286.65 915.35 312.1 914.35 312.09 916.26 285.9 911.38 278.33"/>
                  <polygon class="cls-80" points="899.24 286.35 900.54 286.8 913.62 290.95 913.89 287.43 910.36 281.09 902.9 281 899.24 286.35"/>
                </g>
                <g>
                  <polygon class="cls-118" points="829.56 266.35 932.17 266.3 955.13 273.17 954.44 279.13 932.87 274.02 829.56 272.73 829.56 266.35"/>
                  <polygon class="cls-119" points="932.17 266.3 930.61 272.2 829.56 272.73 834.37 274.37 930.1 274.09 952.69 279.13 954.44 279.13 955.13 273.17 932.17 266.3"/>
                </g>
                <polygon class="cls-80" points="870.21 321.55 872.33 327.39 888.67 327.39 888.85 321.55 870.21 321.55"/>
                <polygon class="cls-78" points="847.86 211.2 867.33 215.68 887.29 215.68 922.93 209.94 914.08 209.94 891.42 213.43 884.4 214.18 868.01 212.81 866.65 210.77 847.86 211.2"/>
                <polygon class="cls-78" points="838.62 211.18 853 217.23 842.56 217.54 840.37 214.36 834.91 211.23 838.62 211.18"/>
                <polygon class="cls-78" points="849.76 266.34 859.68 268.6 884.14 269.92 903.82 267.14 906.53 266.34 899.24 266.26 887.94 268.09 879.62 268.6 861.27 268.09 857.54 266.26 849.76 266.34"/>
                <polygon class="cls-78" points="875.62 272.49 901.84 269.92 915.81 266.3 930.54 266.26 917.08 267.14 903.82 271.38 888.64 272.42 875.62 272.49"/>
                <polygon class="cls-120" points="876.87 317.26 876.87 217.34 882.85 217.13 881.43 317.32 876.87 317.26"/>
                <polygon class="cls-121" points="882.85 217.13 883.85 218.44 883.85 266.26 882.85 266.32 882.85 272.49 883.35 273.93 882.24 317.32 881.43 317.32 882.85 217.13"/>
                <polygon class="cls-78" points="876.87 302.9 879.86 285.98 879.53 273.6 882.43 246.84 882.43 251.37 882.18 264.5 880.16 274.87 880.46 287.78 876.87 311.51 876.87 302.9"/>
                <polygon class="cls-78" points="876.87 257.84 882.67 230.22 882.73 225.58 879.53 242.41 876.87 247.51 876.87 257.84"/>
                <polygon class="cls-86" points="835.46 343.42 846.32 343.42 852.29 349.06 859.87 351.51 867.67 352.51 893.82 352.51 910.96 346.62 910.96 352.51 834.91 352.51 835.46 343.42"/>
                <polygon class="cls-96" points="940.25 349 946.77 346.62 949.68 337.03 951.16 352.51 940.25 352.51 940.25 349"/>
                <polygon class="cls-80" points="829.56 211.31 829.56 217.69 844.99 217.39 848.78 211.18 852.35 211.18 885.4 171.5 910.96 171.5 934.98 204.67 948.23 232.41 955.13 236.13 955.64 229.68 957.39 229.68 958.08 223.72 956.29 222.76 956.48 215.68 932.87 201.23 905.19 163.17 866.21 165.53 833.87 197.96 833.95 211.24 829.56 211.31"/>
                <polygon class="cls-78" points="867.05 324.47 868.95 331.93 868.95 341.92 867.67 352.51 867.56 345.58 868 339.56 868.66 332.22 867.67 329.25 867.15 329.01 867.05 324.47"/>
                <polygon class="cls-78" points="867.05 320.53 869.53 325.3 870.21 330.69 870.21 327.77 869.38 323.77 867.48 317.32 866.9 317.32 867.05 320.53"/>
                <polygon class="cls-78" points="892.18 321.55 890.44 338.49 890.1 339.67 888.85 343.96 887.94 352.51 889.49 352.51 888.85 349.81 889.26 343.96 890.06 340.32 891.54 338.37 892.18 321.55"/>
                <polygon class="cls-122" points="929.35 186.96 937.03 194.18 928.74 188.52 929.35 186.96"/>
                <polygon class="cls-78" points="880.59 352.51 882.24 344.77 884.5 341.81 888.54 331.93 887.94 336.19 884.57 343.42 884.57 352.51 880.59 352.51"/>
                <polygon class="cls-78" points="877.63 352.51 878.44 321.55 881.43 321.55 879.53 352.51 877.63 352.51"/>
              </g>
              <polygon class="cls-123" points="970.14 219.48 971.75 216.51 958.57 206.73 924.81 169.04 910.19 154.55 898.94 146.39 864.45 156.53 848.85 170.19 850.03 171.5 824.48 198.02 813.17 197.96 813.95 203.15 833.92 206.7 833.95 211.24 829.56 211.31 829.56 217.69 834.29 219.3 834.37 223.68 833.25 223.7 833.52 236.79 834.64 237.27 834.66 238.17 833.57 239.16 833.89 254.52 834.88 255.5 835.02 256.7 833.98 258.35 834.14 266.35 829.56 266.35 829.56 272.73 834.37 274.37 834.37 276.85 834.83 298.72 835.88 300.39 835.89 300.78 834.88 301.48 835.31 321.55 836.29 321.55 836.43 328.25 835.46 328.97 835.46 343.42 834.91 352.51 836.9 352.51 867.67 352.51 870.21 352.51 872.33 352.51 877.63 352.51 879.53 352.51 880.59 352.51 884.57 352.51 887.94 352.51 889.49 352.51 891.01 352.51 892.34 352.51 893.82 352.51 910.96 352.51 924.81 352.51 926.63 352.51 940.25 352.51 948.79 352.51 951.16 352.51 949.68 337.03 953.03 279.13 954.44 279.13 955.13 273.17 953.41 272.65 955.89 229.68 957.39 229.68 958.08 223.72 956.29 222.76 956.62 217.14 970.14 219.48"/>
            </g>
          </g>
        </g>
      </g>
    </g>
  </g>
</svg>
