<svg xmlns="http://www.w3.org/2000/svg" xmlns:xlink="http://www.w3.org/1999/xlink" viewBox="0 0 1000 400">
  <defs>
    <style>
      .cls-1 {
        fill: none;
      }

      .cls-2 {
        isolation: isolate;
      }

      .cls-3 {
        clip-path: url(#clip-path);
      }

      .cls-4, .cls-5 {
        fill: #664054;
      }

      .cls-18, .cls-19, .cls-20, .cls-21, .cls-22, .cls-23, .cls-24, .cls-25, .cls-26, .cls-27, .cls-28, .cls-29, .cls-30, .cls-31, .cls-32, .cls-38, .cls-4, .cls-44, .cls-45, .cls-46, .cls-8 {
        fill-rule: evenodd;
      }

      .cls-10, .cls-11, .cls-17, .cls-20, .cls-28, .cls-34, .cls-35, .cls-36, .cls-37, .cls-38, .cls-6, .cls-7 {
        mix-blend-mode: multiply;
      }

      .cls-10, .cls-11, .cls-20, .cls-34, .cls-35, .cls-36, .cls-38, .cls-46, .cls-6, .cls-7 {
        opacity: 0.5;
      }

      .cls-6 {
        fill: url(#Ѕезым_нный_градиент_218);
      }

      .cls-7 {
        fill: url(#Ѕезым_нный_градиент_218-2);
      }

      .cls-8 {
        fill: url(#Ѕезым_нный_градиент_140);
      }

      .cls-9 {
        fill: url(#Ѕезым_нный_градиент_378);
      }

      .cls-10 {
        fill: url(#Ѕезым_нный_градиент_218-3);
      }

      .cls-11 {
        fill: url(#Ѕезым_нный_градиент_218-4);
      }

      .cls-12 {
        fill: url(#Ѕезым_нный_градиент_287);
      }

      .cls-13 {
        fill: url(#Ѕезым_нный_градиент_287-2);
      }

      .cls-14 {
        fill: url(#Ѕезым_нный_градиент_287-3);
      }

      .cls-15 {
        fill: url(#Ѕезым_нный_градиент_287-4);
      }

      .cls-16 {
        fill: url(#Ѕезым_нный_градиент_287-5);
      }

      .cls-17, .cls-28 {
        fill: #d55c63;
        opacity: 0.3;
      }

      .cls-18 {
        fill: url(#Ѕезым_нный_градиент_528);
      }

      .cls-19 {
        fill: #2f1036;
      }

      .cls-20 {
        fill: #98256b;
      }

      .cls-21 {
        fill: #ffff90;
      }

      .cls-22 {
        fill: url(#Ѕезым_нный_градиент_532);
      }

      .cls-23, .cls-24, .cls-27, .cls-31 {
        mix-blend-mode: screen;
      }

      .cls-23 {
        fill: url(#Ѕезым_нный_градиент_161);
      }

      .cls-24 {
        fill: #7268cc;
        opacity: 0.2;
      }

      .cls-25 {
        fill: url(#Ѕезым_нный_градиент_528-2);
      }

      .cls-26 {
        fill: url(#Ѕезым_нный_градиент_532-2);
      }

      .cls-27 {
        fill: url(#Ѕезым_нный_градиент_161-2);
      }

      .cls-29 {
        fill: url(#Ѕезым_нный_градиент_528-3);
      }

      .cls-30 {
        fill: url(#Ѕезым_нный_градиент_532-3);
      }

      .cls-31 {
        fill: url(#Ѕезым_нный_градиент_161-3);
      }

      .cls-32 {
        fill: url(#Ѕезым_нный_градиент_140-2);
      }

      .cls-33 {
        fill: url(#Ѕезым_нный_градиент_378-2);
      }

      .cls-34 {
        fill: url(#Ѕезым_нный_градиент_218-5);
      }

      .cls-35 {
        fill: url(#Ѕезым_нный_градиент_218-6);
      }

      .cls-36 {
        fill: url(#Ѕезым_нный_градиент_218-7);
      }

      .cls-37 {
        opacity: 0.71;
        fill: url(#Ѕезым_нный_градиент_218-8);
      }

      .cls-38 {
        fill: #7e1e44;
      }

      .cls-39 {
        fill: url(#Ѕезым_нный_градиент_287-6);
      }

      .cls-40 {
        fill: url(#Ѕезым_нный_градиент_287-7);
      }

      .cls-41 {
        fill: url(#Ѕезым_нный_градиент_287-8);
      }

      .cls-42 {
        fill: url(#Ѕезым_нный_градиент_287-9);
      }

      .cls-43 {
        fill: url(#Ѕезым_нный_градиент_287-10);
      }

      .cls-44, .cls-45, .cls-46, .cls-47, .cls-48 {
        fill: #ffffed;
      }

      .cls-45, .cls-46, .cls-48 {
        mix-blend-mode: soft-light;
      }
    </style>
    <clipPath id="clip-path">
      <rect class="cls-1" width="1000" height="400"/>
    </clipPath>
    <linearGradient id="Ѕезым_нный_градиент_218" data-name="Ѕезым€нный градиент 218" x1="307.46" y1="261" x2="307.46" y2="249.24" gradientUnits="userSpaceOnUse">
      <stop offset="0" stop-color="#cb6566"/>
      <stop offset="1" stop-color="#ffd5dd"/>
    </linearGradient>
    <linearGradient id="Ѕезым_нный_градиент_218-2" x1="312.13" y1="277.2" x2="312.13" y2="248.13" xlink:href="#Ѕезым_нный_градиент_218"/>
    <linearGradient id="Ѕезым_нный_градиент_140" data-name="Ѕезым€нный градиент 140" x1="281.44" y1="329.47" x2="313.16" y2="329.47" gradientUnits="userSpaceOnUse">
      <stop offset="0.03" stop-color="#65182c"/>
      <stop offset="1" stop-color="#0f0020"/>
    </linearGradient>
    <linearGradient id="Ѕезым_нный_градиент_378" data-name="Ѕезым€нный градиент 378" x1="298.5" y1="311.39" x2="298.5" y2="226.69" gradientUnits="userSpaceOnUse">
      <stop offset="0" stop-color="#2f0c00"/>
      <stop offset="1" stop-color="#433445"/>
    </linearGradient>
    <linearGradient id="Ѕезым_нный_градиент_218-3" x1="298.57" y1="311.39" x2="298.57" y2="270.97" xlink:href="#Ѕезым_нный_градиент_218"/>
    <linearGradient id="Ѕезым_нный_градиент_218-4" x1="282.67" y1="276.34" x2="282.67" y2="262.66" xlink:href="#Ѕезым_нный_градиент_218"/>
    <linearGradient id="Ѕезым_нный_градиент_287" data-name="Ѕезым€нный градиент 287" x1="311.49" y1="266.98" x2="311.49" y2="246.03" gradientUnits="userSpaceOnUse">
      <stop offset="0" stop-color="#4d4d00"/>
      <stop offset="1" stop-color="#744a45"/>
    </linearGradient>
    <linearGradient id="Ѕезым_нный_градиент_287-2" x1="266.03" y1="270.54" x2="266.03" y2="251.79" xlink:href="#Ѕезым_нный_градиент_287"/>
    <linearGradient id="Ѕезым_нный_градиент_287-3" x1="327.25" y1="279.75" x2="327.25" y2="266.98" xlink:href="#Ѕезым_нный_градиент_287"/>
    <linearGradient id="Ѕезым_нный_градиент_287-4" x1="300.47" y1="231.86" x2="300.47" y2="218.43" xlink:href="#Ѕезым_нный_градиент_287"/>
    <linearGradient id="Ѕезым_нный_градиент_287-5" x1="275.5" y1="294.15" x2="275.5" y2="286.81" xlink:href="#Ѕезым_нный_градиент_287"/>
    <linearGradient id="Ѕезым_нный_градиент_528" data-name="Ѕезым€нный градиент 528" x1="982.25" y1="306.56" x2="982.25" y2="293.83" gradientUnits="userSpaceOnUse">
      <stop offset="0" stop-color="#2a0d2f"/>
      <stop offset="0.97" stop-color="#604252"/>
    </linearGradient>
    <linearGradient id="Ѕезым_нный_градиент_532" data-name="Ѕезым€нный градиент 532" x1="980.04" y1="305.86" x2="980.04" y2="294.75" gradientUnits="userSpaceOnUse">
      <stop offset="0.01" stop-color="#ffffd0"/>
      <stop offset="1" stop-color="#ffdbc6"/>
    </linearGradient>
    <radialGradient id="Ѕезым_нный_градиент_161" data-name="Ѕезым€нный градиент 161" cx="982.28" cy="294.52" r="4.13" gradientTransform="translate(0 -71.1) scale(1 1.26)" gradientUnits="userSpaceOnUse">
      <stop offset="0" stop-color="#ffcc61"/>
      <stop offset="0.04" stop-color="#f2c25c"/>
      <stop offset="0.32" stop-color="#9d7e3c"/>
      <stop offset="0.56" stop-color="#5a4822"/>
      <stop offset="0.76" stop-color="#292110"/>
      <stop offset="0.91" stop-color="#0b0904"/>
      <stop offset="1"/>
    </radialGradient>
    <linearGradient id="Ѕезым_нный_градиент_528-2" x1="554.7" y1="306.56" x2="554.7" y2="293.83" xlink:href="#Ѕезым_нный_градиент_528"/>
    <linearGradient id="Ѕезым_нный_градиент_532-2" x1="552.48" y1="305.86" x2="552.48" y2="294.75" xlink:href="#Ѕезым_нный_градиент_532"/>
    <radialGradient id="Ѕезым_нный_градиент_161-2" cx="554.73" cy="294.52" r="4.13" xlink:href="#Ѕезым_нный_градиент_161"/>
    <linearGradient id="Ѕезым_нный_градиент_528-3" x1="127.15" y1="306.56" x2="127.15" y2="293.83" xlink:href="#Ѕезым_нный_градиент_528"/>
    <linearGradient id="Ѕезым_нный_градиент_532-3" x1="124.93" y1="305.86" x2="124.93" y2="294.75" xlink:href="#Ѕезым_нный_градиент_532"/>
    <radialGradient id="Ѕезым_нный_градиент_161-3" cx="127.17" cy="294.52" r="4.13" xlink:href="#Ѕезым_нный_градиент_161"/>
    <linearGradient id="Ѕезым_нный_градиент_140-2" x1="867.68" y1="330.76" x2="904.96" y2="330.76" xlink:href="#Ѕезым_нный_градиент_140"/>
    <linearGradient id="Ѕезым_нный_градиент_378-2" x1="882.16" y1="310.47" x2="882.16" y2="258.67" xlink:href="#Ѕезым_нный_градиент_378"/>
    <linearGradient id="Ѕезым_нный_градиент_218-5" x1="882.16" y1="310.47" x2="882.16" y2="267.23" xlink:href="#Ѕезым_нный_градиент_218"/>
    <linearGradient id="Ѕезым_нный_градиент_218-6" x1="888.65" y1="271.37" x2="888.65" y2="261.79" xlink:href="#Ѕезым_нный_градиент_218"/>
    <linearGradient id="Ѕезым_нный_градиент_218-7" x1="892.46" y1="284.57" x2="892.46" y2="260.89" xlink:href="#Ѕезым_нный_градиент_218"/>
    <linearGradient id="Ѕезым_нный_градиент_218-8" x1="870.1" y1="310.47" x2="870.1" y2="302.35" xlink:href="#Ѕезым_нный_градиент_218"/>
    <linearGradient id="Ѕезым_нный_градиент_287-6" x1="854.08" y1="280.05" x2="854.08" y2="263.55" xlink:href="#Ѕезым_нный_градиент_287"/>
    <linearGradient id="Ѕезым_нный_градиент_287-7" x1="910.44" y1="288.16" x2="910.44" y2="274.8" xlink:href="#Ѕезым_нный_градиент_287"/>
    <linearGradient id="Ѕезым_нный_градиент_287-8" x1="895.67" y1="263.55" x2="895.67" y2="253.7" xlink:href="#Ѕезым_нный_градиент_287"/>
    <linearGradient id="Ѕезым_нный_градиент_287-9" x1="859.15" y1="258.67" x2="859.15" y2="256.54" xlink:href="#Ѕезым_нный_градиент_287"/>
    <linearGradient id="Ѕезым_нный_градиент_287-10" x1="890.19" y1="302.35" x2="890.19" y2="293.74" xlink:href="#Ѕезым_нный_градиент_287"/>
  </defs>
  <g class="cls-2">
    <g id="Слой_2" data-name="Слой 2">
      <g id="lantern_01">
        <g class="cls-3">
          <g>
            <path class="cls-4" d="M905.4,362c0,.68-10,1.24-22.32,1.24s-22.31-.56-22.31-1.24,10-1.24,22.31-1.24S905.4,361.28,905.4,362Z"/>
            <ellipse class="cls-5" cx="301.1" cy="364.98" rx="22.31" ry="1.24"/>
            <g>
              <path class="cls-6" d="M307,261a23.08,23.08,0,0,1,1.13-11.76,57.11,57.11,0,0,0,.12,7.58A39.42,39.42,0,0,0,307,261Z"/>
              <path class="cls-7" d="M324.78,272.54a8.47,8.47,0,0,1-1.12,1.19c-4,3.36-9.73,3.47-9.73,3.47a20.38,20.38,0,0,0-14.45-4.43,20.58,20.58,0,0,0,4-11.41,10.9,10.9,0,0,0-3.52-8.29,27.65,27.65,0,0,1,7,8c-.75,3.17-1.31,7.29.15,9.43,2.57,3.78,7.71,3.46,12.13-5.93s1.88-16.45,1.88-16.45c5.89,7.89,2.65,25,2.54,25.58A15.3,15.3,0,0,1,324.78,272.54Z"/>
              <path class="cls-8" d="M281.44,298.27s3.24,9.21,3,14.36l-.26,5.16s5.17,5.51,6.5,9.71,3.05,16.24,4.11,18.78a20.84,20.84,0,0,1,6.36,4.93c2.66,3.18-1.06,15-1.06,15l4.63-.09s-.38-12.81,1.07-15.92l-3.18-4.58a4.22,4.22,0,0,1-5-1.46c-2.12-2.78-6-16-5.44-18.19s5.44-10.28,9.82-13.35c0,0,4.77-15.17,11.24-17.8l-2.39-1.34s-5.47,10.51-7.92,12.83-3.12-9.48-3.12-9.48l-2.43-1.26s3,8.42,2.7,11l1.45,1.66s-.91,3.4-4.89,7.77-6.51,4.63-7.84,4.3-3.44-4.91-3.44-9.68a32.53,32.53,0,0,0-.54-7l2.13-1.66a35.5,35.5,0,0,1,.92-8.52l-1.19-.77s.2,6.9-.6,8.29a2.33,2.33,0,0,1-2.25,1.2s-2.19-3.92-1.86-6.3Z"/>
              <path class="cls-9" d="M334.75,280.68c-7.36,19.4-27.28,23.75-27.28,23.75l.76-3.2c-7.72,9.67-14.31,10.16-14.31,10.16,5.58-2.13,9.43-11.81,9.67-12.41a16.66,16.66,0,0,1-15,8.16c-10.38-.46-14.07-3.57-14.07-3.57l1.5,2.86a18.93,18.93,0,0,1-8.25-9,54.27,54.27,0,0,1-5.39-19.23s0,0,0,0h0c-1-13.44,4.29-22.45,8.17-22.74,5.54-.44,7.52,7.21,7.52,7.21a32,32,0,0,0-1.46-10.75c2.94,5.89,2.42,15.52,2.42,15.52.36-1.59.79-3.19,1.26-4.77,4.16-13.75,12-26.46,12.55-27.32-3,5.53-4.05,13.39-4.12,13.88.51-1,18-34.79,29.58-17.73,6.83,10,9.25,27,10.07,39.48.6,9,.36,15.64.36,15.64A20,20,0,0,0,334.75,280.68Z"/>
              <path class="cls-10" d="M334.75,280.68c-7.36,19.4-27.28,23.75-27.28,23.75l.76-3.2c-7.72,9.67-14.31,10.16-14.31,10.16,5.58-2.13,9.43-11.81,9.67-12.41a16.66,16.66,0,0,1-15,8.16c-10.38-.46-14.07-3.57-14.07-3.57l1.5,2.86a18.93,18.93,0,0,1-8.25-9,54.27,54.27,0,0,1-5.39-19.23c.13.7,2.33,12,9.2,18.34L270,291.35s8.65,6,21.28,3.17c12.43-2.79,19.5-13.52,19.72-13.85l-4.34,10.46s8.49,1.64,16.63-6c3.26-3.07,4.61-8.62,5.05-14.16.6,9,.36,15.64.36,15.64A20,20,0,0,0,334.75,280.68Z"/>
              <path class="cls-11" d="M279,267.43a11.61,11.61,0,0,1-6.81,8.91s13.5-1.22,20.88-7.3c0,0-10.64-.13-12.8-6.38Z"/>
              <path class="cls-12" d="M306.21,267s7.26-10.36,10.47-21C316.68,246,318.42,259.7,306.21,267Z"/>
              <path class="cls-13" d="M265,270.54s-4.32-12,3.28-18.75C268.28,251.79,265.24,264.71,265,270.54Z"/>
              <path class="cls-14" d="M324.78,279.75A25.75,25.75,0,0,0,329.42,267S331.48,275,324.78,279.75Z"/>
              <path class="cls-15" d="M297.3,231.86s.38-9.52,6.35-13.43C303.65,218.43,298.6,226,297.3,231.86Z"/>
              <path class="cls-16" d="M270.67,286.81a12.77,12.77,0,0,0,9.65,7.34S273.89,290.22,270.67,286.81Z"/>
            </g>
            <g>
              <ellipse class="cls-17" cx="981.55" cy="363.65" rx="16.71" ry="0.45"/>
              <g>
                <polygon class="cls-18" points="978.4 306.44 977.22 294.74 982.87 293.83 987.28 295.26 985.82 306.56 978.4 306.44"/>
                <polygon class="cls-19" points="978.8 306.46 979.28 307.86 984.71 307.86 985.24 306.56 978.8 306.46"/>
                <path class="cls-19" d="M980.34,307.86s1,.75,1.23,3.37,0,44.32,0,44.32l-1,1.59.83.78a12,12,0,0,1-4,4.94l.28.69h4.37V307.86Z"/>
                <path class="cls-19" d="M983.91,307.86s-1,.75-1.23,3.37,0,44.32,0,44.32l1,1.59-.84.78a12,12,0,0,0,4,4.94l-.27.69h-4.37V307.86Z"/>
                <path class="cls-20" d="M980.62,357.14a18.84,18.84,0,0,0,3,0l-.84.78h-1.35Z"/>
                <polygon class="cls-20" points="977.48 362.86 986.77 362.86 986.5 363.55 977.76 363.55 977.48 362.86"/>
                <polygon class="cls-21" points="977.27 295.23 982.8 294.75 987.28 295.81 985.91 305.86 978.34 305.86 977.27 295.23"/>
                <polygon class="cls-22" points="977.27 295.23 982.8 294.75 982.56 305.86 978.34 305.86 977.27 295.23"/>
                <path class="cls-23" d="M986.41,300.64c0,2.88-1.85,5.22-4.13,5.22s-4.14-2.34-4.14-5.22,1.85-5.22,4.14-5.22S986.41,297.76,986.41,300.64Z"/>
                <path class="cls-24" d="M978.25,362.86a18.43,18.43,0,0,0,3.15-3.81h1a8.69,8.69,0,0,1-1.46,3.81Z"/>
              </g>
            </g>
            <g>
              <ellipse class="cls-17" cx="554" cy="363.65" rx="16.71" ry="0.45"/>
              <g>
                <polygon class="cls-25" points="550.85 306.44 549.67 294.74 555.32 293.83 559.73 295.26 558.26 306.56 550.85 306.44"/>
                <polygon class="cls-19" points="551.25 306.46 551.73 307.86 557.16 307.86 557.69 306.56 551.25 306.46"/>
                <path class="cls-19" d="M552.79,307.86s1,.75,1.23,3.37,0,44.32,0,44.32l-.95,1.59.83.78a12,12,0,0,1-4,4.94l.28.69h4.37V307.86Z"/>
                <path class="cls-19" d="M556.36,307.86s-1,.75-1.23,3.37,0,44.32,0,44.32l1,1.59-.83.78a12,12,0,0,0,4,4.94l-.28.69h-4.36V307.86Z"/>
                <path class="cls-20" d="M553.07,357.14a18.73,18.73,0,0,0,3,0l-.83.78H553.9Z"/>
                <polygon class="cls-20" points="549.93 362.86 559.22 362.86 558.95 363.55 550.21 363.55 549.93 362.86"/>
                <polygon class="cls-21" points="549.72 295.23 555.25 294.75 559.73 295.81 558.36 305.86 550.79 305.86 549.72 295.23"/>
                <polygon class="cls-26" points="549.72 295.23 555.25 294.75 555.01 305.86 550.79 305.86 549.72 295.23"/>
                <path class="cls-27" d="M558.86,300.64c0,2.88-1.85,5.22-4.13,5.22s-4.14-2.34-4.14-5.22,1.85-5.22,4.14-5.22S558.86,297.76,558.86,300.64Z"/>
                <path class="cls-24" d="M550.7,362.86a18.43,18.43,0,0,0,3.15-3.81h1a8.83,8.83,0,0,1-1.46,3.81Z"/>
              </g>
            </g>
            <g>
              <path class="cls-28" d="M143.15,363.65c0,.25-7.48.45-16.7.45s-16.71-.2-16.71-.45,7.48-.44,16.71-.44S143.15,363.41,143.15,363.65Z"/>
              <g>
                <polygon class="cls-29" points="123.29 306.44 122.12 294.74 127.77 293.83 132.18 295.26 130.71 306.56 123.29 306.44"/>
                <polygon class="cls-19" points="123.7 306.46 124.18 307.86 129.61 307.86 130.14 306.56 123.7 306.46"/>
                <path class="cls-19" d="M125.24,307.86s1,.75,1.23,3.37,0,44.32,0,44.32l-1,1.59.84.78a12,12,0,0,1-4,4.94l.27.69H127V307.86Z"/>
                <path class="cls-19" d="M128.81,307.86s-1,.75-1.23,3.37,0,44.32,0,44.32l1,1.59-.83.78a12,12,0,0,0,4,4.94l-.28.69H127V307.86Z"/>
                <path class="cls-20" d="M125.51,357.14a18.87,18.87,0,0,0,3,0l-.83.78h-1.35Z"/>
                <polygon class="cls-20" points="122.38 362.86 131.67 362.86 131.39 363.55 122.66 363.55 122.38 362.86"/>
                <polygon class="cls-21" points="122.17 295.23 127.7 294.75 132.18 295.81 130.8 305.86 123.23 305.86 122.17 295.23"/>
                <polygon class="cls-30" points="122.17 295.23 127.7 294.75 127.46 305.86 123.23 305.86 122.17 295.23"/>
                <path class="cls-31" d="M131.31,300.64c0,2.88-1.85,5.22-4.14,5.22s-4.13-2.34-4.13-5.22,1.85-5.22,4.13-5.22S131.31,297.76,131.31,300.64Z"/>
                <path class="cls-24" d="M123.14,362.86a18.34,18.34,0,0,0,3.16-3.81h1a8.83,8.83,0,0,1-1.46,3.81Z"/>
              </g>
            </g>
            <g>
              <path class="cls-32" d="M881.27,363.21s1.43-15.94,1.48-18.68-4.71-8.76-4.71-8.76-2-15.76-3.9-23.7a34,34,0,0,0-6.46-13.25l.59-.51s3,5.79,3.9,7,1.69,3.66,3.6,3.47c0,0,1.21-1,1.72-5.92l1,.25a58.09,58.09,0,0,0-1.53,5.8,19.61,19.61,0,0,0-.26,2.61,4.32,4.32,0,0,0-.63,2.43c-.07,1.72,1.46,17.72,4.14,21.67s4.72,5.1,5.23,5.23,4-10.88,4.08-15.16-1.28-6.33-1.28-6.33l.57-4.71s1.15-8-.31-13.13l.63-.45a87.19,87.19,0,0,1,.39,16.51s.25,3.95,1.14,5.35,3.32-3.57,3.32-7.52l-.7-1.85a13,13,0,0,0,.19-6.18l.51-.76s-.07,5.61.57,7.14,3.33,1.84,4.75-1.85a33.34,33.34,0,0,1,4.3-7.33l1.4.06s-4.39,4.27-7.26,12.68c0,0-1.91-.19-2.68.45s-2.68,7.24-2.68,7.24-1.46,6.91-2,8.19-2,10.83-2,10.83a9.23,9.23,0,0,0-2.74,3.5c-.57,1.79.67,15.63.67,15.63Z"/>
              <path class="cls-33" d="M913.53,302.49c-4.94,5.31-16.7,6.72-16.7,6.72h2.71c-6.16,2.42-16.7-.8-16.7-.8a35.19,35.19,0,0,1-13.54,2,30.67,30.67,0,0,0,7-1.52s-11.71,1-18.91-5.63h0c-.34-.3-.66-.63-1-1-6.93-7.53-10.17-21.33-10.27-21.76,2.83,6,6.31,8.34,6.31,8.34s-5.17-14-.65-21.65h0a9.39,9.39,0,0,1,6.24-4.43,28.6,28.6,0,0,1,23.79,5c-.82-4-6.48-7.31-6.84-7.51a34.25,34.25,0,0,1,6.07,3.49h0l0,0c.52.38,1,.75,1.46,1.12h0a22.31,22.31,0,0,1,5.69,6.53.28.28,0,0,1,0,.07.51.51,0,0,0,0-.13h0a18.87,18.87,0,0,1,.92-9.58,45.92,45.92,0,0,0,.1,6.18s4.38-13.91,10-7.71c.18.2.35.41.52.63,4.8,6.43,2.16,20.37,2.07,20.84a11.56,11.56,0,0,1,.91-1h0a23.92,23.92,0,0,1,5.08-3.38,22.8,22.8,0,0,0-3.58,3.64s8.52-4.11,12-1.66a3.65,3.65,0,0,1,1.12,1.6C919.31,285.69,917.83,297.87,913.53,302.49Z"/>
              <path class="cls-34" d="M913.53,302.49c-4.94,5.31-16.7,6.72-16.7,6.72h2.71c-6.16,2.42-16.7-.8-16.7-.8a35.19,35.19,0,0,1-13.54,2,30.67,30.67,0,0,0,7-1.52s-12.84,1.05-19.89-6.6S846.21,281,846.11,280.54c2.83,6,6.31,8.34,6.31,8.34s-5.17-14-.65-21.65c-.07.28-1.6,6.07,3.88,14.54s16.15,16.3,16.48,16.54a58.14,58.14,0,0,1-8.71-11c8.21,10,22.9,14.5,22.9,14.5-.82-1.13-1.27-4.19-1.27-4.19s5.06,8.81,15.88,5.41a21.31,21.31,0,0,0,13.7-13.17l-.61,4.79a21.62,21.62,0,0,0,3.34-13.7C919.31,285.69,917.83,297.87,913.53,302.49Z"/>
              <path class="cls-35" d="M888.26,271.37a18.87,18.87,0,0,1,.92-9.58,45.92,45.92,0,0,0,.1,6.18A33.19,33.19,0,0,0,888.26,271.37Z"/>
              <path class="cls-36" d="M902.76,280.78a7,7,0,0,1-.92,1c-3.22,2.74-7.92,2.83-7.92,2.83a16.57,16.57,0,0,0-11.77-3.6,16.75,16.75,0,0,0,3.27-9.3,8.85,8.85,0,0,0-2.87-6.76,22.31,22.31,0,0,1,5.69,6.53c-.61,2.58-1.06,5.94.12,7.68,2.1,3.08,6.29,2.82,9.89-4.83s1.53-13.4,1.53-13.4c4.8,6.43,2.16,20.37,2.07,20.84A11.56,11.56,0,0,1,902.76,280.78Z"/>
              <path class="cls-37" d="M882.84,308.41a35.19,35.19,0,0,1-13.54,2,30.67,30.67,0,0,0,7-1.52s-11.71,1-18.91-5.63c.16.12,3.44,2.49,12.74,2.75l-.32-3.67A78.49,78.49,0,0,0,882.84,308.41Z"/>
              <path class="cls-38" d="M888.39,344s-1.79.6-4.24-1l1.5,4.54A9.19,9.19,0,0,1,888.39,344Z"/>
              <path class="cls-39" d="M851,263.55s-1.9,8.7,6.38,16.5C857.36,280.05,851.76,268.5,851,263.55Z"/>
              <path class="cls-40" d="M907.48,288.16s5.31-8.26,5.88-13.36C913.36,274.8,914.3,283.61,907.48,288.16Z"/>
              <path class="cls-41" d="M898.65,263.55s-1.1-7.56-6.19-9.85C892.46,253.7,900.36,254.4,898.65,263.55Z"/>
              <path class="cls-42" d="M863.5,258.67s-4.11-3.3-8.71-1.69C854.79,257,861.93,257.49,863.5,258.67Z"/>
              <path class="cls-43" d="M886.39,293.74s.64,7.92,7.59,8.61C894,302.35,888.72,298.48,886.39,293.74Z"/>
            </g>
            <g>
              <path class="cls-44" d="M136.41,299.48a.68.68,0,1,1-.68-.68A.68.68,0,0,1,136.41,299.48Z"/>
              <path class="cls-45" d="M117,299.48a.68.68,0,1,1-.68-.68A.68.68,0,0,1,117,299.48Z"/>
              <path class="cls-45" d="M134.55,307.52a.34.34,0,0,1-.34.34.34.34,0,1,1,0-.68A.34.34,0,0,1,134.55,307.52Z"/>
              <path class="cls-46" d="M138.92,296.32a1.43,1.43,0,1,1-1.43-1.42A1.43,1.43,0,0,1,138.92,296.32Z"/>
              <path class="cls-46" d="M118.45,305.78a1.42,1.42,0,1,1-1.42-1.43A1.42,1.42,0,0,1,118.45,305.78Z"/>
              <path class="cls-44" d="M127.68,291.67a.37.37,0,0,1-.73,0,.37.37,0,1,1,.73,0Z"/>
              <path class="cls-44" d="M139.08,288.35a.36.36,0,0,1-.36.36.37.37,0,0,1-.37-.36.38.38,0,0,1,.37-.37A.37.37,0,0,1,139.08,288.35Z"/>
              <path class="cls-44" d="M118.65,304.74a.45.45,0,0,1-.44.45.45.45,0,1,1,.44-.45Z"/>
              <path class="cls-44" d="M135.55,308.36a.25.25,0,1,1-.25-.25A.25.25,0,0,1,135.55,308.36Z"/>
              <circle class="cls-47" cx="125.64" cy="292.12" r="0.25"/>
            </g>
            <g>
              <circle class="cls-47" cx="563.67" cy="300.27" r="0.68"/>
              <circle class="cls-48" cx="544.29" cy="300.27" r="0.68"/>
              <path class="cls-45" d="M562.49,308.32a.34.34,0,1,1-.68,0,.34.34,0,0,1,.68,0Z"/>
              <path class="cls-46" d="M566.86,297.12a1.43,1.43,0,1,1-1.43-1.43A1.43,1.43,0,0,1,566.86,297.12Z"/>
              <path class="cls-46" d="M561.16,290.57a1.43,1.43,0,1,1-1.43-1.43A1.43,1.43,0,0,1,561.16,290.57Z"/>
              <path class="cls-44" d="M555.62,292.47a.37.37,0,0,1-.37.36.37.37,0,0,1,0-.73A.37.37,0,0,1,555.62,292.47Z"/>
              <circle class="cls-47" cx="566.66" cy="289.14" r="0.36"/>
              <path class="cls-44" d="M546.59,305.54a.45.45,0,0,1-.89,0,.45.45,0,0,1,.89,0Z"/>
              <path class="cls-44" d="M563.49,309.16a.25.25,0,0,1-.25.25.26.26,0,0,1-.26-.25.26.26,0,0,1,.26-.26A.26.26,0,0,1,563.49,309.16Z"/>
              <path class="cls-44" d="M553.83,292.92a.25.25,0,0,1-.5,0,.25.25,0,1,1,.5,0Z"/>
            </g>
            <g>
              <path class="cls-44" d="M988.83,300.27a.68.68,0,1,1-1.35,0,.68.68,0,1,1,1.35,0Z"/>
              <circle class="cls-48" cx="968.78" cy="300.27" r="0.68"/>
              <path class="cls-45" d="M987,308.32a.34.34,0,1,1-.68,0,.34.34,0,1,1,.68,0Z"/>
              <path class="cls-46" d="M991.34,297.12a1.42,1.42,0,1,1-1.42-1.43A1.42,1.42,0,0,1,991.34,297.12Z"/>
              <path class="cls-46" d="M985.64,290.57a1.42,1.42,0,1,1-1.42-1.43A1.42,1.42,0,0,1,985.64,290.57Z"/>
              <path class="cls-44" d="M980.1,292.47a.36.36,0,0,1-.36.36.37.37,0,1,1,0-.73A.36.36,0,0,1,980.1,292.47Z"/>
              <path class="cls-44" d="M991.51,289.14a.37.37,0,0,1-.37.37.37.37,0,0,1,0-.73A.37.37,0,0,1,991.51,289.14Z"/>
              <path class="cls-44" d="M971.08,305.54a.45.45,0,1,1-.45-.44A.45.45,0,0,1,971.08,305.54Z"/>
              <path class="cls-44" d="M988,309.16a.26.26,0,0,1-.26.25.25.25,0,0,1-.25-.25.26.26,0,0,1,.25-.26A.26.26,0,0,1,988,309.16Z"/>
              <path class="cls-44" d="M978.32,292.92a.25.25,0,0,1-.5,0,.25.25,0,1,1,.5,0Z"/>
            </g>
          </g>
        </g>
      </g>
    </g>
  </g>
</svg>
