<svg xmlns="http://www.w3.org/2000/svg" xmlns:xlink="http://www.w3.org/1999/xlink" viewBox="0 0 1000 400">
  <defs>
    <style>
      .cls-1 {
        fill: none;
      }

      .cls-2 {
        isolation: isolate;
      }

      .cls-3 {
        clip-path: url(#clip-path);
      }

      .cls-4, .cls-5 {
        mix-blend-mode: screen;
      }

      .cls-4 {
        fill: url(#Ѕезым_нный_градиент_550);
      }

      .cls-5 {
        fill: url(#Ѕезым_нный_градиент_558);
      }

      .cls-6 {
        fill: #fff;
      }

      .cls-6, .cls-8 {
        fill-rule: evenodd;
      }

      .cls-7 {
        opacity: 0.2;
      }

      .cls-8 {
        fill: #635eb0;
      }
    </style>
    <clipPath id="clip-path">
      <rect class="cls-1" width="1000" height="400"/>
    </clipPath>
    <radialGradient id="Ѕезым_нный_градиент_550" data-name="Ѕезым€нный градиент 550" cx="-882.17" cy="121.79" r="27.39" gradientTransform="translate(2518.51 -184.81) scale(2.39 2.37)" gradientUnits="userSpaceOnUse">
      <stop offset="0" stop-color="#6a229d"/>
      <stop offset="0.16" stop-color="#672199"/>
      <stop offset="0.32" stop-color="#5f1e8c"/>
      <stop offset="0.48" stop-color="#511a78"/>
      <stop offset="0.64" stop-color="#3d145b"/>
      <stop offset="0.81" stop-color="#240c36"/>
      <stop offset="0.97" stop-color="#060209"/>
      <stop offset="1"/>
    </radialGradient>
    <radialGradient id="Ѕезым_нный_градиент_558" data-name="Ѕезым€нный градиент 558" cx="-881.59" cy="120.74" r="23.37" gradientTransform="matrix(2.39, 0, 0, 2.37, 2516.36, -184.86)" gradientUnits="userSpaceOnUse">
      <stop offset="0" stop-color="#0037a4"/>
      <stop offset="0.15" stop-color="#0036a0"/>
      <stop offset="0.31" stop-color="#003294"/>
      <stop offset="0.47" stop-color="#002b7f"/>
      <stop offset="0.63" stop-color="#002163"/>
      <stop offset="0.79" stop-color="#00153e"/>
      <stop offset="0.95" stop-color="#000611"/>
      <stop offset="1"/>
    </radialGradient>
  </defs>
  <g class="cls-2">
    <g id="Слой_2" data-name="Слой 2">
      <g id="moon_01">
        <g class="cls-3">
          <g>
            <ellipse class="cls-4" cx="406.48" cy="104.28" rx="65.57" ry="65.01" transform="translate(45.32 317.97) rotate(-45)"/>
            <ellipse class="cls-5" cx="405.7" cy="101.53" rx="55.94" ry="55.46" transform="translate(47.06 316.65) rotate(-45.01)"/>
            <path class="cls-6" d="M448.21,102.06a42.11,42.11,0,1,1-84.22,0,43.15,43.15,0,0,1,.25-4.57,42.11,42.11,0,0,1,84,4.57Z"/>
            <g class="cls-7">
              <path class="cls-8" d="M395.46,130.53a10.16,10.16,0,0,0,1.79,3.06,5.69,5.69,0,0,0,3,1.58,4.57,4.57,0,0,0,1.84.46,10.15,10.15,0,0,1,2.06,0c1.34.3,2,1.49,3.55,1.57a9.21,9.21,0,0,0,3.57-.77c1.16-.36,2.51-.86,3.58-1.27s2.23-.76,3.44-1.15,2-1.28,3.61-.83c.11.61,0,1.57.7,1.88.52.2,1.37-.34,1.92-.55,1.43-.55,2.72-.85,4.07-1.42a6,6,0,0,0,1.8-.75c.64-.47,1.33-.83,2-1.27,1.23-.83,2.44-1.72,3.66-2.55a18.89,18.89,0,0,0,5.31-6.13,19.58,19.58,0,0,0,1.66-4c.58-1.72.38-2.21-.77-3.61-2.06.86-2.88-.42-2.31-2.63a15.19,15.19,0,0,0,.29-6.51c-.08-.36-.35-.62-.41-1.13a11.48,11.48,0,0,0-.1-1.54,8.61,8.61,0,0,1-.4-2.55,12,12,0,0,0-.11-3.06,6.06,6.06,0,0,1-.41-1.53,8.17,8.17,0,0,0-.1-1.92c-.5-1.71-2-2.18-3.46-2.67-1-.33-1.44-.66-2.05,0s-.49,1.65-.5,2.56c0,1.7,1.09,3.21,2,4.59.42.62,1.17,1.21,1.06,2.06-.06.46-.64.53-.6,1s.65.74,1,1.14c2.43,3.18-2.15,6-4.34,7.66-1.25,1-3.12,1.45-3.6,3s.67,3.13,1.29,4.59,1.21,4.2.27,5.63a4.36,4.36,0,0,1-1.8,1.27,12.54,12.54,0,0,0-2,1.54,6.79,6.79,0,0,1-4.48,1.15,4.88,4.88,0,0,1-2.55-1,9,9,0,0,0-2.16-1.42,7.59,7.59,0,0,0-1.43-.1c-.72-.09-.85-.39-1.48-.55-1.09-.28-1.86.49-2.71.92a3.59,3.59,0,0,1-2.45.66c-.85-.22-1.83-.76-2.64-.93-1.94-.4-5.09-.54-6.65.78-.79.67-1.06,1.6-1.77,2.3S395.67,129,395.46,130.53Z"/>
              <path class="cls-8" d="M434.23,86.15c-1.87,0-3.59-1.37-5.11-2.42a9.65,9.65,0,0,1-3.18-3.58,11.72,11.72,0,0,1-.38-1.14c0-.09-.49-1.3-.49-1.34a3.68,3.68,0,0,1,1.13-2.1c1.52-1.57,3.84-.44,5.37.5a24.94,24.94,0,0,1,4.05,3.07,9.49,9.49,0,0,1,1.81,1.77,6,6,0,0,1,.37,3.2c0,1.72,2.24,3.71-.5,4.09-1.07.15-4.36-.76-4.6-2Z"/>
              <path class="cls-8" d="M400.57,140.73c-.47.51-1,.16-1.54,0a4.76,4.76,0,0,0-1.53-.25,12.4,12.4,0,0,1-3.18-.25c-1-.25-2-.4-2.94-.64-.38-.1-.75-.31-1.13-.39s-.51,0-.76,0-.12-.16-.2-.18-.39,0-.58-.05a23.27,23.27,0,0,1-2.74-.72,4.16,4.16,0,0,1-1.15-.36c-.4-.24-.93-.51-1.29-.77A34,34,0,0,1,379.4,134c-1.19-1.19-2.4-2.27-3.64-3.38-.29-.26-.52-.59-.82-.83a7.82,7.82,0,0,1-1-.7,15.09,15.09,0,0,1-1.66-2.11,35.2,35.2,0,0,1-3.09-4.23c-.39-.77-.73-1.52-1.18-2.26a9.63,9.63,0,0,1-.77-1.54c-.16-.38-.47-.84-.58-1.2-.16-.55-.15-1.08-.3-1.61-.07-.23-.22-.39-.28-.62s.09-.62,0-.91-.21-.37-.27-.62.08-.62,0-.91-.22-.37-.28-.62.11-.72,0-1-.22-.36-.28-.62a4.52,4.52,0,0,1,0-.9c0-.66-.23-1.16-.26-1.79a8.22,8.22,0,0,1,0-1.92c.05-.26.22-.37.27-.61s-.08-.68,0-1c.69-.18.47,1.28.47,1.64,0,.66.27,1,.26,1.66,0,.79.31.9.77,1.47a4.55,4.55,0,0,1,.77,1.07c.06.21.06.56.11.77a2.34,2.34,0,0,1,.13.77c0,.62-.05.94.44,1.34a3.89,3.89,0,0,0,1.33.71c.58.13,1.09.12,1.68.23.27,0,.37.22.62.28s.66-.12,1,0a2.2,2.2,0,0,1,.76,1,1.84,1.84,0,0,1-.2,1.47c-.09.17-.15.35-.25.51s-.36.37-.46.56c-.48.88.21,2.32.4,3.07.07.29.51,1.17.27,1.43s-1.68,0-2-.12c-.16.32.14.94.24,1.28a6.29,6.29,0,0,0,.54,1.37,5.78,5.78,0,0,0,2.08,1.88c.52.27.84.41.93-.28.05-.32-.05-.49.11-.78s.33-.24.41-.49-.09-.63,0-.92.2-.34.24-.52c.14-.6-.09-1.28,0-1.89a2.54,2.54,0,0,1,2.18-2,19.52,19.52,0,0,0,3.17-1,5.08,5.08,0,0,1,3.59-.32,16.11,16.11,0,0,1,2.64,1.37,9.45,9.45,0,0,0,1.19.47c.47.18,1,.36,1.42.5a10.89,10.89,0,0,1,2.59.84,8,8,0,0,1,2.24,1.72,3.58,3.58,0,0,1,.61,2.92c-.27.65-1.24,1.21-1.7,1.75-.79.91-.58,1.53,0,2.47a5.89,5.89,0,0,1,.68,1.18,6.55,6.55,0,0,1,0,1.77,2.13,2.13,0,0,1-.44,1.21c-.25.38-.84.62-1,1s0,.52.13.79c0,.07.17.1.21.17s0,.35.11.53c.26.58.76.49,1.28.63a2.39,2.39,0,0,0,1.54-.12,2.8,2.8,0,0,1,.75-.27c.38,0,.56.15.83.2.63.13,1-.3,1.61-.33a1.47,1.47,0,0,1,1.2.58c.33.33.78.87.72,1.35S400.92,140.27,400.57,140.73Z"/>
              <path class="cls-8" d="M395.72,121.6a3.11,3.11,0,0,1,.45-.22,6.27,6.27,0,0,0,1.34,1.24c.74.47,1.11.17,1.28-.63.09-.41-.13-.66-.21-1s0-.7-.36-.91-2-.14-1.74.72Z"/>
              <path class="cls-8" d="M371.24,88.7a.46.46,0,0,1-.48.24,4.41,4.41,0,0,1,0-1.62c0-.24.2-.36.24-.65A5.81,5.81,0,0,1,371,86c.07-.31.33-.81.39-1.13a5.81,5.81,0,0,1,.32-1.21c.18-.42.29-1,.47-1.42a6.83,6.83,0,0,1,.61-1.13c.47-.78.86-1.53,1.34-2.31a15.4,15.4,0,0,1,3.08-3.81,16.47,16.47,0,0,1,1.39-1c.16-.11.28-.29.43-.39s.39-.14.53-.24c.39-.29,1.54-1.45,2.06-1.17-.36,1-1,1.9-1.43,2.82-.53,1.07-1.51,1-2.3,1.79-1.23,1.19.82,1.69,1.53,2.15s.71,1.11.7,1.86a5.9,5.9,0,0,0,.26,1.92,8.36,8.36,0,0,1,.27.89l0,.52a.37.37,0,0,0,.21.3,2.73,2.73,0,0,1-.39,1.79,4,4,0,0,1-.89,1.66c-.5.47-1,.31-1.72.32a3.42,3.42,0,0,1-1-.2c-.26-.06-.63-.22-.83-.25s-.6,0-.9-.12-.34-.25-.77-.14-.86.62-1.32.72c-.64.15-1.37-.15-2,0C371,88.3,371,88.37,371.24,88.7Z"/>
            </g>
          </g>
        </g>
      </g>
    </g>
  </g>
</svg>
