<svg xmlns="http://www.w3.org/2000/svg" xmlns:xlink="http://www.w3.org/1999/xlink" viewBox="0 0 1000 400">
  <defs>
    <style>
      .cls-1 {
        fill: none;
      }

      .cls-2 {
        isolation: isolate;
      }

      .cls-3 {
        clip-path: url(#clip-path);
      }

      .cls-4, .cls-6, .cls-7, .cls-8, .cls-9 {
        fill-rule: evenodd;
      }

      .cls-4 {
        fill: url(#Ѕезым_нный_градиент_23);
      }

      .cls-5, .cls-9 {
        opacity: 0.5;
      }

      .cls-6 {
        fill: #68569c;
      }

      .cls-7 {
        fill: #7d67ae;
      }

      .cls-8 {
        fill: #7a6aa4;
      }

      .cls-9 {
        fill: #983e57;
        mix-blend-mode: multiply;
      }
    </style>
    <clipPath id="clip-path">
      <rect class="cls-1" width="1000" height="400"/>
    </clipPath>
    <radialGradient id="Ѕезым_нный_градиент_23" data-name="Ѕезым€нный градиент 23" cx="500" cy="385.25" r="353.71" gradientUnits="userSpaceOnUse">
      <stop offset="0" stop-color="#574593"/>
      <stop offset="1" stop-color="#2e274c"/>
    </radialGradient>
  </defs>
  <g class="cls-2">
    <g id="Слой_2" data-name="Слой 2">
      <g id="road_01">
        <g class="cls-3">
          <g>
            <polygon class="cls-4" points="1000 370.5 1000 400 0 400 0 373.21 1000 370.5"/>
            <g class="cls-5">
              <path class="cls-6" d="M63.06,376.5c-5,1.43,49.45,8.25,67.06,7.62s39.38-7.65,38.33-9.74S74.47,373.25,63.06,376.5Z"/>
              <path class="cls-6" d="M380.91,394c-5,1.43,49.44,8.25,67,7.62s39.39-7.65,38.33-9.75S392.31,390.76,380.91,394Z"/>
              <path class="cls-6" d="M61.65,380.12c2-.89,42.35,3.21,43.16,4.05s-16.74,4.08-28.43,4.08S59.41,381.12,61.65,380.12Z"/>
              <path class="cls-6" d="M107.27,384.75c-1.93.19-4.78,1.19-4.72,1.81s14.49,1,17.08,0S112.68,384.23,107.27,384.75Z"/>
              <path class="cls-6" d="M120.56,385.25c0,.37,7.87.44,8.54,0s-2.43-1-5-.84S120.59,384.91,120.56,385.25Z"/>
              <path class="cls-6" d="M133.71,385.55c-.38-1.39,29.95-5.47,41.4-4.05s19.14,8.67,18.4,9.67S134.8,389.53,133.71,385.55Z"/>
              <path class="cls-6" d="M113,389.17c-1-.47,12.55-3,20.55-2s20.56,3.4,21,4.74S126.41,395.09,113,389.17Z"/>
              <path class="cls-6" d="M79.12,390.67s13.62-3.41,20.91-3.49,19.66,3.86,21.08,6.09S89.31,395.46,79.12,390.67Z"/>
              <path class="cls-6" d="M73.16,391.38c5.69-2.84-58.22-5.15-72.15-1.27S-9.94,400.25-2.13,403,66.74,394.58,73.16,391.38Z"/>
              <path class="cls-6" d="M65.93,395.75c-2.18-.67,8.1-4.2,13.77-3.69s16.14,4.06,16.21,6S74.08,398.24,65.93,395.75Z"/>
              <path class="cls-6" d="M-1.86,377.68C-4,377,6.22,374,11.91,374c6.44-.05,17.21.9,17.28,2.84S6.29,380.18-1.86,377.68Z"/>
              <path class="cls-6" d="M52.1,398.5c-2.22-.8,6.67-3.62,11.45-2.38s9.57,3,9.5,3.44S57.33,400.38,52.1,398.5Z"/>
              <path class="cls-6" d="M94.89,395.22c-.67.25.89,1.86,2.53,2.41s7.17-.84,6.88-2.05S96.66,394.56,94.89,395.22Z"/>
              <path class="cls-7" d="M30.92,380c-10.25,1.93-16.19,5.46-16.07,7s45.41.77,47.55.22-2.87-5.68-6.54-7.18S35.91,379.06,30.92,380Z"/>
              <path class="cls-6" d="M54.12,377.5c-1,.41,2.92,2,5.51,2s5.32-.23,5.65-1S58.39,375.84,54.12,377.5Z"/>
              <path class="cls-6" d="M1.81,382.12c-1,.41,1.11,4.84,3.7,4.84s13.64-4.73,14-5.5S6.08,380.46,1.81,382.12Z"/>
              <path class="cls-6" d="M50,373.21c-1.09.2,6.4,2.73,12.4,2.79s18.11-2.08,18.37-2.79S54.38,372.42,50,373.21Z"/>
              <path class="cls-7" d="M30.38,378.17c.1,1.22,19.22.35,20.68,0S54.17,376.75,54,376s-5.58-2.83-11.78-2.79S30.29,377.15,30.38,378.17Z"/>
              <path class="cls-6" d="M102.55,400a114.07,114.07,0,0,1,25.51-5.3c14.92-1.45,42.72,5.22,42.72,5.22Z"/>
              <path class="cls-6" d="M148.5,394.49c-.17,1.25,14.78,3.69,21.25,3.27s15.76-3.38,15.63-4.49S164,391,159.65,391.38,148.66,393.24,148.5,394.49Z"/>
              <path class="cls-6" d="M170.43,398.89c-.53-.88,9.06-1.61,11.81-1.08a5.05,5.05,0,0,1,3.61,2.19H172.43A2.45,2.45,0,0,1,170.43,398.89Z"/>
              <path class="cls-6" d="M259.49,376.5c-5,1.43,49.44,8.25,67.06,7.62s39.38-7.65,38.33-9.74S270.89,373.25,259.49,376.5Z"/>
              <path class="cls-6" d="M258.07,380.12c2-.89,42.36,3.21,43.16,4.05s-16.73,4.08-28.43,4.08S255.84,381.12,258.07,380.12Z"/>
              <path class="cls-6" d="M303.7,384.75c-1.93.19-4.79,1.19-4.72,1.81s14.48,1,17.07,0S309.11,384.23,303.7,384.75Z"/>
              <path class="cls-6" d="M384.85,377.92c-1.93.18-4.78,1.18-4.72,1.81s14.49,1,17.08,0S390.26,377.39,384.85,377.92Z"/>
              <path class="cls-6" d="M405.87,388c-1.93.18-4.79,1.19-4.72,1.81s14.49,1,17.08,0S411.28,387.45,405.87,388Z"/>
              <path class="cls-6" d="M317,385.25c0,.37,7.88.44,8.54,0s-2.42-1-5-.84S317,384.91,317,385.25Z"/>
              <path class="cls-6" d="M358.69,379.78c0,.37,7.88.44,8.54,0s-2.43-1-5-.84S358.73,379.44,358.69,379.78Z"/>
              <path class="cls-6" d="M337.85,385.17c-.39-1.39,29.94-5.47,41.4-4.06s19.13,8.67,18.39,9.67S338.94,389.14,337.85,385.17Z"/>
              <path class="cls-8" d="M309.39,389.17c-1.06-.47,12.55-3,20.55-2s21.5,1.6,21.94,2.93S322.84,395.09,309.39,389.17Z"/>
              <path class="cls-6" d="M275.55,390.67s13.62-3.41,20.9-3.49,19.67,3.86,21.09,6.09S285.74,395.46,275.55,390.67Z"/>
              <path class="cls-7" d="M388.89,383.19s13.62-3.41,20.91-3.49,19.66,3.87,21.08,6.09S399.08,388,388.89,383.19Z"/>
              <path class="cls-6" d="M165.65,377.9s13.63-3.41,20.91-3.49,19.67,3.86,21.08,6.09S175.84,382.69,165.65,377.9Z"/>
              <path class="cls-6" d="M269.59,392c5.69-2.44-58.22-4.43-72.15-1.08s-11,8.73-3.14,11.09S263.16,394.74,269.59,392Z"/>
              <path class="cls-6" d="M262.35,395.75c-2.17-.67,8.11-4.2,13.77-3.69s16.15,4.06,16.22,6S270.51,398.24,262.35,395.75Z"/>
              <path class="cls-6" d="M248.53,398.5c-2.22-.8,6.67-3.62,11.45-2.38s9.57,3,9.5,3.44S253.75,400.38,248.53,398.5Z"/>
              <path class="cls-6" d="M291.32,395.22c-.67.25.88,1.86,2.52,2.41s7.17-.84,6.89-2.05S293.09,394.56,291.32,395.22Z"/>
              <path class="cls-6" d="M436.08,385.91c-.72-.07-10.81,2.92-9.17,3.47s19.8.95,19.52-.26S439.76,386.25,436.08,385.91Z"/>
              <path class="cls-7" d="M227.35,380c-10.26,1.93-16.19,5.46-16.07,7s45.4.77,47.55.22S256,381.5,252.29,380,232.33,379.06,227.35,380Z"/>
              <path class="cls-6" d="M250.54,377.5c-1,.41,2.93,2,5.52,2s5.31-.23,5.65-1S254.82,375.84,250.54,377.5Z"/>
              <path class="cls-6" d="M425.42,380.74c-1,.41,2.93,2,5.52,2s5.31-.23,5.64-1S429.69,379.08,425.42,380.74Z"/>
              <path class="cls-6" d="M207.86,378.05c-1.05.41,2.92,2,5.51,2s5.32-.23,5.65-1S212.13,376.39,207.86,378.05Z"/>
              <path class="cls-6" d="M191.13,384.17c-1,.44,3.31,4.08,5.9,4.08,6.82,0,15-4,15.29-4.79S196.24,381.93,191.13,384.17Z"/>
              <path class="cls-6" d="M229.54,373.21c-1.09.2,6.41,2.73,12.41,2.79s18.11-2.08,18.36-2.79S233.93,372.42,229.54,373.21Z"/>
              <path class="cls-6" d="M193.75,373.21c-1.09.2,6.4,2.73,12.4,2.79s18.11-2.08,18.37-2.79S198.13,372.42,193.75,373.21Z"/>
              <path class="cls-8" d="M299,400a113.88,113.88,0,0,1,25.5-5.3c14.93-1.45,42.73,5.22,42.73,5.22Z"/>
              <path class="cls-6" d="M344.92,394.49c-.16,1.25,14.78,3.69,21.25,3.27s15.76-3.38,15.63-4.49-21.39-2.26-25.73-1.89S345.09,393.24,344.92,394.49Z"/>
              <path class="cls-6" d="M395.5,375.93c-.16,1.26,14.78,3.7,21.25,3.27s69.71-3.69,69.58-4.79-75.34-2-79.68-1.59S395.67,374.69,395.5,375.93Z"/>
              <path class="cls-6" d="M366.86,398.89c-.54-.88,9.06-1.61,11.8-1.08a5.06,5.06,0,0,1,3.62,2.19H368.85A2.44,2.44,0,0,1,366.86,398.89Z"/>
              <path class="cls-6" d="M477.16,398.89c-.54-.88,9-1.61,11.8-1.08a5.09,5.09,0,0,1,3.62,2.19H479.15A2.43,2.43,0,0,1,477.16,398.89Z"/>
            </g>
            <g class="cls-5">
              <path class="cls-6" d="M566.26,376.5c-5,1.43,49.45,8.25,67.06,7.62s39.38-7.65,38.33-9.74S577.67,373.25,566.26,376.5Z"/>
              <path class="cls-6" d="M884.11,394c-5,1.43,49.44,8.25,67,7.62s39.38-7.65,38.33-9.75S895.51,390.76,884.11,394Z"/>
              <path class="cls-6" d="M564.85,380.12c2-.89,42.35,3.21,43.16,4.05s-16.74,4.08-28.43,4.08S562.61,381.12,564.85,380.12Z"/>
              <path class="cls-6" d="M610.47,384.75c-1.93.19-4.78,1.19-4.72,1.81s14.49,1,17.08,0S615.88,384.23,610.47,384.75Z"/>
              <path class="cls-6" d="M623.76,385.25c0,.37,7.87.44,8.54,0s-2.43-1-5-.84S623.79,384.91,623.76,385.25Z"/>
              <path class="cls-6" d="M636.91,385.55c-.38-1.39,30-5.47,41.4-4.05s19.14,8.67,18.4,9.67S638,389.53,636.91,385.55Z"/>
              <path class="cls-6" d="M616.16,389.17c-1-.47,12.55-3,20.55-2s20.56,3.4,21,4.74S629.61,395.09,616.16,389.17Z"/>
              <path class="cls-7" d="M582.32,390.67s13.62-3.41,20.91-3.49,19.66,3.86,21.08,6.09S592.51,395.46,582.32,390.67Z"/>
              <path class="cls-8" d="M576.36,391.38c5.69-2.84-58.22-5.15-72.15-1.27s-10.95,10.14-3.14,12.89S569.93,394.58,576.36,391.38Z"/>
              <path class="cls-6" d="M569.13,395.75c-2.18-.67,8.1-4.2,13.77-3.69s16.14,4.06,16.21,6S577.28,398.24,569.13,395.75Z"/>
              <path class="cls-6" d="M485,378.56c-2.17-.67,8.08-3.64,13.77-3.69,6.45-.05,17.21.9,17.28,2.84S493.12,381.05,485,378.56Z"/>
              <path class="cls-6" d="M555.3,398.5c-2.22-.8,6.67-3.62,11.45-2.38s9.57,3,9.5,3.44S560.53,400.38,555.3,398.5Z"/>
              <path class="cls-6" d="M598.09,395.22c-.67.25.89,1.86,2.52,2.41s7.18-.84,6.89-2.05S599.86,394.56,598.09,395.22Z"/>
              <path class="cls-7" d="M948.19,381.51c-10.25,1.93-16.19,5.46-16.07,7s45.41.77,47.55.22-2.87-5.68-6.54-7.18S953.18,380.57,948.19,381.51Z"/>
              <path class="cls-6" d="M541,377.5c-1.05.41,2.92,2,5.51,2s5.32-.23,5.65-1S545.22,375.84,541,377.5Z"/>
              <path class="cls-6" d="M438.93,380.55c-1,.41,1.3,3.93,3.71,4.83,6.55,2.47,26.2-2.21,26.2-3C468.84,378.62,443.21,378.89,438.93,380.55Z"/>
              <path class="cls-6" d="M553.2,373.21c-1.09.2,6.4,2.73,12.4,2.79s18.11-2.08,18.37-2.79S557.58,372.42,553.2,373.21Z"/>
              <path class="cls-6" d="M486.31,387.13c.1,1.23,19.22.36,20.68,0s3.11-1.41,2.89-2.16-5.59-2.83-11.78-2.79S486.22,386.11,486.31,387.13Z"/>
              <path class="cls-6" d="M605.75,400a114.07,114.07,0,0,1,25.51-5.3c14.92-1.45,42.72,5.22,42.72,5.22Z"/>
              <path class="cls-7" d="M651.7,394.49c-.17,1.25,14.78,3.69,21.25,3.27s15.76-3.38,15.63-4.49-21.39-2.26-25.73-1.89S651.86,393.24,651.7,394.49Z"/>
              <path class="cls-6" d="M673.63,398.89c-.53-.88,9.06-1.61,11.81-1.08a5.05,5.05,0,0,1,3.61,2.19H675.63A2.45,2.45,0,0,1,673.63,398.89Z"/>
              <path class="cls-7" d="M762.69,376.5c-5,1.43,49.44,8.25,67.06,7.62s39.38-7.65,38.33-9.74S774.09,373.25,762.69,376.5Z"/>
              <path class="cls-6" d="M761.27,380.12c2-.89,42.36,3.21,43.16,4.05s-16.74,4.08-28.43,4.08S759,381.12,761.27,380.12Z"/>
              <path class="cls-6" d="M806.9,384.75c-1.93.19-4.79,1.19-4.72,1.81s14.48,1,17.07,0S812.3,384.23,806.9,384.75Z"/>
              <path class="cls-6" d="M888.05,377.92c-1.93.18-4.78,1.18-4.72,1.81s14.49,1,17.08,0S893.46,377.39,888.05,377.92Z"/>
              <path class="cls-6" d="M909.07,388c-1.93.18-4.79,1.19-4.72,1.81s14.48,1,17.08,0S914.48,387.45,909.07,388Z"/>
              <path class="cls-6" d="M820.18,385.25c0,.37,7.88.44,8.54,0s-2.42-1-5-.84S820.22,384.91,820.18,385.25Z"/>
              <path class="cls-6" d="M861.89,379.78c0,.37,7.87.44,8.54,0s-2.43-1-5-.84S861.92,379.44,861.89,379.78Z"/>
              <path class="cls-7" d="M841,385.17c-.38-1.39,30-5.47,41.41-4.06s19.13,8.67,18.39,9.67S842.14,389.14,841,385.17Z"/>
              <path class="cls-6" d="M812.59,389.17c-1.06-.47,12.55-3,20.55-2s21.5,1.6,21.94,2.93S826,395.09,812.59,389.17Z"/>
              <path class="cls-6" d="M778.75,390.67s13.62-3.41,20.9-3.49,19.67,3.86,21.09,6.09S788.93,395.46,778.75,390.67Z"/>
              <path class="cls-6" d="M892.09,383.19s13.62-3.41,20.91-3.49,19.66,3.87,21.08,6.09S902.28,388,892.09,383.19Z"/>
              <path class="cls-6" d="M668.85,377.9s13.63-3.41,20.91-3.49,19.67,3.86,21.08,6.09S679,382.69,668.85,377.9Z"/>
              <path class="cls-6" d="M772.78,392c5.69-2.44-58.21-4.43-72.14-1.08s-11,8.73-3.14,11.09S766.36,394.74,772.78,392Z"/>
              <path class="cls-6" d="M765.55,395.75c-2.17-.67,8.11-4.2,13.77-3.69s16.15,4.06,16.21,6S773.71,398.24,765.55,395.75Z"/>
              <path class="cls-6" d="M751.73,398.5c-2.22-.8,6.66-3.62,11.45-2.38s9.57,3,9.5,3.44S757,400.38,751.73,398.5Z"/>
              <path class="cls-6" d="M794.52,395.22c-.67.25.88,1.86,2.52,2.41s7.17-.84,6.89-2.05S796.28,394.56,794.52,395.22Z"/>
              <path class="cls-6" d="M990.58,393.48c-.67.25.88,1.87,2.52,2.42s7.18-.85,6.89-2.06S992.35,392.82,990.58,393.48Z"/>
              <path class="cls-7" d="M730.55,380c-10.26,1.93-16.19,5.46-16.07,7s45.4.77,47.55.22-2.87-5.68-6.54-7.18S735.53,379.06,730.55,380Z"/>
              <path class="cls-6" d="M753.74,377.5c-1,.41,2.93,2,5.52,2s5.31-.23,5.65-1S758,375.84,753.74,377.5Z"/>
              <path class="cls-6" d="M928.62,380.74c-1,.41,2.93,2,5.52,2s5.31-.23,5.64-1S932.89,379.08,928.62,380.74Z"/>
              <path class="cls-6" d="M711.06,378.05c-1,.41,2.92,2,5.51,2s5.32-.23,5.65-1S715.33,376.39,711.06,378.05Z"/>
              <path class="cls-6" d="M694.33,384.17c-1,.44,3.31,4.08,5.9,4.08,6.82,0,14.95-4,15.29-4.79S699.44,381.93,694.33,384.17Z"/>
              <path class="cls-6" d="M732.74,373.21c-1.09.2,6.41,2.73,12.41,2.79s18.11-2.08,18.36-2.79S737.13,372.42,732.74,373.21Z"/>
              <path class="cls-6" d="M697,373.21c-1.1.2,6.4,2.73,12.4,2.79s18.11-2.08,18.37-2.79S701.33,372.42,697,373.21Z"/>
              <path class="cls-6" d="M802.18,400a113.88,113.88,0,0,1,25.5-5.3c14.93-1.45,42.73,5.22,42.73,5.22Z"/>
              <path class="cls-6" d="M848.12,394.49c-.16,1.25,14.78,3.69,21.25,3.27s15.76-3.38,15.63-4.49-21.39-2.26-25.73-1.89S848.29,393.24,848.12,394.49Z"/>
              <path class="cls-6" d="M898.7,375.93c-.16,1.26,14.78,3.7,21.25,3.27s69.71-3.69,69.58-4.79-75.34-2-79.68-1.59S898.87,374.69,898.7,375.93Z"/>
              <path class="cls-6" d="M870.06,398.89c-.54-.88,9.06-1.61,11.8-1.08a5.06,5.06,0,0,1,3.62,2.19H872.05A2.44,2.44,0,0,1,870.06,398.89Z"/>
              <path class="cls-6" d="M980.36,398.89c-.54-.88,9-1.61,11.8-1.08a5.09,5.09,0,0,1,3.62,2.19H982.35A2.43,2.43,0,0,1,980.36,398.89Z"/>
            </g>
            <polygon class="cls-9" points="0 369.16 17.81 396.02 411.9 398.89 963.27 373.21 761.24 371.15 1000 370.5 1000 400 0 400 0 369.16"/>
          </g>
        </g>
      </g>
    </g>
  </g>
</svg>
