<svg xmlns="http://www.w3.org/2000/svg" xmlns:xlink="http://www.w3.org/1999/xlink" viewBox="0 0 1000 400">
  <defs>
    <style>
      .cls-1 {
        fill: none;
      }

      .cls-2 {
        isolation: isolate;
      }

      .cls-3 {
        clip-path: url(#clip-path);
      }

      .cls-10, .cls-12, .cls-13, .cls-16, .cls-17, .cls-18, .cls-19, .cls-20, .cls-21, .cls-4, .cls-5, .cls-7 {
        fill-rule: evenodd;
      }

      .cls-4 {
        fill: url(#linear-gradient);
      }

      .cls-5, .cls-6 {
        fill: #09b9ea;
      }

      .cls-7, .cls-8 {
        fill: #0970c0;
      }

      .cls-10, .cls-9 {
        fill: #095cc0;
      }

      .cls-11, .cls-12 {
        fill: #09ffff;
      }

      .cls-13, .cls-14 {
        fill: #92ffff;
      }

      .cls-15 {
        mix-blend-mode: multiply;
      }

      .cls-16, .cls-17, .cls-18, .cls-19, .cls-20, .cls-21 {
        mix-blend-mode: screen;
      }

      .cls-16 {
        opacity: 0.6;
        fill: url(#Ѕезым_нный_градиент_166);
      }

      .cls-17, .cls-18, .cls-19, .cls-20, .cls-21 {
        opacity: 0.5;
      }

      .cls-17 {
        fill: url(#Ѕезым_нный_градиент_166-2);
      }

      .cls-18 {
        fill: url(#Ѕезым_нный_градиент_166-3);
      }

      .cls-19 {
        fill: url(#Ѕезым_нный_градиент_166-4);
      }

      .cls-20 {
        fill: url(#Ѕезым_нный_градиент_166-5);
      }

      .cls-21 {
        fill: url(#Ѕезым_нный_градиент_166-6);
      }
    </style>
    <clipPath id="clip-path">
      <rect class="cls-1" width="1000" height="400"/>
    </clipPath>
    <linearGradient id="linear-gradient" x1="500" y1="409.76" x2="500" gradientUnits="userSpaceOnUse">
      <stop offset="0" stop-color="#c5aeff"/>
      <stop offset="0.14" stop-color="#aea4f3"/>
      <stop offset="0.43" stop-color="#738ad3"/>
      <stop offset="0.75" stop-color="#2c6cae"/>
      <stop offset="0.89" stop-color="#2d347d"/>
      <stop offset="1" stop-color="#2e0452"/>
    </linearGradient>
    <linearGradient id="Ѕезым_нный_градиент_166" data-name="Ѕезым€нный градиент 166" x1="562.95" y1="116.05" x2="562.95" y2="-9.22" gradientUnits="userSpaceOnUse">
      <stop offset="0" stop-color="#59427a"/>
      <stop offset="1" stop-color="#c28781"/>
    </linearGradient>
    <linearGradient id="Ѕезым_нный_градиент_166-2" x1="811.69" y1="99.59" x2="811.69" y2="8.72" xlink:href="#Ѕезым_нный_градиент_166"/>
    <linearGradient id="Ѕезым_нный_градиент_166-3" x1="936.98" y1="122.83" x2="936.98" y2="95.84" gradientTransform="translate(17.83 -158.64) rotate(7.09)" xlink:href="#Ѕезым_нный_градиент_166"/>
    <linearGradient id="Ѕезым_нный_градиент_166-4" x1="438.44" y1="241.54" x2="438.44" y2="214.56" gradientTransform="translate(17.83 -158.64) rotate(7.09)" xlink:href="#Ѕезым_нный_градиент_166"/>
    <linearGradient id="Ѕезым_нный_градиент_166-5" x1="290.17" y1="68.53" x2="290.17" y2="49.81" gradientTransform="matrix(0.99, 0.11, -0.18, 1.61, 6.64, -45.41)" xlink:href="#Ѕезым_нный_градиент_166"/>
    <linearGradient id="Ѕезым_нный_градиент_166-6" x1="598.28" y1="32.35" x2="598.28" y2="24.06" xlink:href="#Ѕезым_нный_градиент_166"/>
  </defs>
  <g class="cls-2">
    <g id="Слой_2" data-name="Слой 2">
      <g id="sky_01">
        <g class="cls-3">
          <g>
            <polygon class="cls-4" points="0 0 0 406.29 1000 409.76 1000 0 0 0"/>
            <g>
              <path class="cls-5" d="M731.16,73.43a.79.79,0,1,1-.79-.78A.79.79,0,0,1,731.16,73.43Z"/>
              <path class="cls-5" d="M715.89,158.05a.79.79,0,1,1-.78-.79A.78.78,0,0,1,715.89,158.05Z"/>
              <circle class="cls-6" cx="649.95" cy="199.31" r="0.79"/>
              <circle class="cls-6" cx="672.21" cy="295.72" r="0.79"/>
              <path class="cls-7" d="M601.22,167.11a.79.79,0,0,1-1.58,0,.79.79,0,1,1,1.58,0Z"/>
              <circle class="cls-8" cx="563.24" cy="149.18" r="0.79"/>
              <circle class="cls-9" cx="517.05" cy="113.24" r="0.79"/>
              <circle class="cls-9" cx="469.48" cy="54.41" r="0.79"/>
              <circle class="cls-9" cx="562.45" cy="27.51" r="0.79"/>
              <path class="cls-10" d="M613.23,166.32a.79.79,0,1,1-.78-.78A.78.78,0,0,1,613.23,166.32Z"/>
              <circle class="cls-9" cx="618.96" cy="20.95" r="0.79"/>
              <circle class="cls-11" cx="460.64" cy="349.29" r="0.79"/>
              <path class="cls-7" d="M825.82,38.92a.79.79,0,0,1-1.58,0,.79.79,0,0,1,1.58,0Z"/>
              <circle class="cls-8" cx="640.36" cy="142.46" r="0.79"/>
              <circle class="cls-8" cx="439.48" cy="104.75" r="0.79"/>
              <circle class="cls-8" cx="937.29" cy="31.87" r="0.79"/>
              <circle class="cls-8" cx="481.02" cy="145.91" r="0.79"/>
              <circle class="cls-8" cx="553.38" cy="359.05" r="0.79"/>
              <circle class="cls-8" cx="991.69" cy="21.73" r="0.79"/>
              <path class="cls-7" d="M492.11,48.88a.79.79,0,1,1-.79-.79A.79.79,0,0,1,492.11,48.88Z"/>
              <path class="cls-7" d="M822.84,250.16a.79.79,0,1,1-.78-.79A.79.79,0,0,1,822.84,250.16Z"/>
              <path class="cls-7" d="M394.63,140.94a.79.79,0,1,1-.79-.79A.78.78,0,0,1,394.63,140.94Z"/>
              <circle class="cls-8" cx="411.69" cy="29.08" r="0.79"/>
              <path class="cls-7" d="M758,215.43a.79.79,0,1,1-.78-.78A.78.78,0,0,1,758,215.43Z"/>
              <path class="cls-7" d="M518.62,84.55a.79.79,0,1,1-.79-.78A.79.79,0,0,1,518.62,84.55Z"/>
              <circle class="cls-8" cx="701.72" cy="272.19" r="0.79"/>
              <circle class="cls-6" cx="834.16" cy="88.47" r="0.79"/>
              <circle class="cls-8" cx="872.73" cy="95.01" r="0.79"/>
              <path class="cls-7" d="M783,298.9a.79.79,0,0,1-1.58,0,.79.79,0,0,1,1.58,0Z"/>
              <path class="cls-12" d="M457.74,117.77A.79.79,0,1,1,457,117,.79.79,0,0,1,457.74,117.77Z"/>
              <circle class="cls-11" cx="708.29" cy="128.03" r="0.79"/>
              <circle class="cls-11" cx="522.51" cy="28.29" r="0.79"/>
              <circle class="cls-11" cx="389.79" cy="87.68" r="0.79"/>
              <path class="cls-13" d="M578.34,241.5a.79.79,0,1,1-.79-.78A.79.79,0,0,1,578.34,241.5Z"/>
              <circle class="cls-11" cx="722.9" cy="57.62" r="0.79"/>
              <circle class="cls-11" cx="871.94" cy="165.21" r="0.79"/>
              <path class="cls-12" d="M535.2,244.08a.79.79,0,1,1-.79-.78A.79.79,0,0,1,535.2,244.08Z"/>
              <circle class="cls-11" cx="425.84" cy="250.95" r="0.79"/>
              <circle class="cls-11" cx="871.15" cy="17.14" r="0.79"/>
              <circle class="cls-11" cx="639.92" cy="72.65" r="0.79"/>
              <circle class="cls-11" cx="613.23" cy="117.77" r="0.79"/>
              <circle class="cls-11" cx="531.96" cy="118.02" r="0.79"/>
              <circle class="cls-11" cx="557.26" cy="255.23" r="0.79"/>
              <circle class="cls-6" cx="254.86" cy="185.76" r="0.79"/>
              <circle class="cls-8" cx="205.34" cy="153.56" r="0.79"/>
              <circle class="cls-8" cx="168.15" cy="135.63" r="0.79"/>
              <path class="cls-10" d="M122.74,99.69a.79.79,0,1,1-.79-.79A.78.78,0,0,1,122.74,99.69Z"/>
              <circle class="cls-9" cx="74.39" cy="40.86" r="0.79"/>
              <circle class="cls-9" cx="167.36" cy="13.96" r="0.79"/>
              <circle class="cls-9" cx="87.63" cy="218.27" r="0.79"/>
              <circle class="cls-9" cx="217.35" cy="152.77" r="0.79"/>
              <circle class="cls-9" cx="223.86" cy="7.4" r="0.79"/>
              <circle class="cls-8" cx="44.39" cy="91.2" r="0.79"/>
              <circle class="cls-8" cx="85.92" cy="132.36" r="0.79"/>
              <circle class="cls-8" cx="96.23" cy="35.33" r="0.79"/>
              <circle class="cls-8" cx="91.9" cy="242.47" r="0.79"/>
              <circle class="cls-8" cx="16.59" cy="15.53" r="0.79"/>
              <circle class="cls-8" cx="122.74" cy="71" r="0.79"/>
              <circle class="cls-11" cx="61.86" cy="104.22" r="0.79"/>
              <circle class="cls-11" cx="127.41" cy="14.74" r="0.79"/>
              <circle class="cls-14" cx="182.46" cy="227.95" r="0.79"/>
              <circle class="cls-11" cx="139.32" cy="230.53" r="0.79"/>
              <circle class="cls-11" cx="30.75" cy="237.4" r="0.79"/>
              <path class="cls-12" d="M245.62,59.1a.79.79,0,1,1-.79-.79A.79.79,0,0,1,245.62,59.1Z"/>
              <circle class="cls-11" cx="218.14" cy="104.22" r="0.79"/>
              <circle class="cls-11" cx="139.41" cy="110.02" r="0.79"/>
              <circle class="cls-11" cx="162.16" cy="241.68" r="0.79"/>
              <circle class="cls-11" cx="817.64" cy="240.22" r="0.79"/>
              <circle class="cls-8" cx="927.57" cy="140.91" r="0.79"/>
              <circle class="cls-8" cx="862.67" cy="106.19" r="0.79"/>
              <circle class="cls-8" cx="340.4" cy="25.67" r="0.79"/>
              <circle class="cls-8" cx="807.23" cy="162.94" r="0.79"/>
              <path class="cls-7" d="M888.46,189.66a.79.79,0,1,1-.78-.79A.78.78,0,0,1,888.46,189.66Z"/>
              <path class="cls-12" d="M923.94,131a.79.79,0,0,1-1.58,0,.79.79,0,0,1,1.58,0Z"/>
            </g>
            <g class="cls-15">
              <path class="cls-16" d="M577.4,6S453.17-7.72,333.12,24.67c0,0,40.75-3.33,55.07-3.33,0,0-92.79,10.5-122.21,29.25s105.9,19.5,105.9,19.5-10.86,1.5-27.6,2.5A941.79,941.79,0,0,0,469,69.09c68.55-6.5-29.28-21.63-29.28-21.63S529.53,12.34,664.7,20s-64.53,58-64.53,58l41.9-7.66s-70.15,30.93-177.86,45.71c0,0,97.85-10.38,231.24-48S864.11-1.66,864.11-1.66s-318.89-17-527.68,0C336.43-1.66,532.34-1.66,577.4,6Z"/>
              <path class="cls-17" d="M666.38,99.59s64.11-4.25,112.44-15.25l-15.9,7.56S860.8,76.34,932.73,42.84L882.05,53.42s49.4-19.58,70.5-35.58-34.84-12.5-126.12,23c0,0,2.27-23.24-91.53,46.5C734.9,87.34,712.61,93.34,666.38,99.59Z"/>
              <path class="cls-18" d="M901.78,75.05s27.05,0,63.81-11l-7.44-.93s5.38-8.17-8.66-9.29S901.78,75.05,901.78,75.05Z"/>
              <path class="cls-19" d="M383.67,130.26s45.14-3.13,81.9-14.14L440,118.32s5.38-8.17-8.66-9.29S383.67,130.26,383.67,130.26Z"/>
              <path class="cls-20" d="M207.87,71.3S294.24,53,360.8,88.81c0,0-28.89-9.69-55.54-9.89,0,0,13.66,1.57,18.16,10.63S271.48,110.2,207.87,71.3Z"/>
              <path class="cls-21" d="M556.6,32.35S593.91,17.52,640,27.52C640,27.52,584.79,28.69,556.6,32.35Z"/>
            </g>
          </g>
        </g>
      </g>
    </g>
  </g>
</svg>
