<svg width="270" height="205" viewBox="0 0 270 205" fill="none" xmlns="http://www.w3.org/2000/svg">
<rect width="270" height="154" rx="77" fill="#F0F0F0"/>
<path d="M183.626 187.192C183.137 190.471 179.1 191.766 176.795 189.383L143.29 154.749C141.229 152.618 142.121 149.064 144.943 148.159L185.556 135.132C188.379 134.226 191.172 136.599 190.734 139.531L183.626 187.192Z" fill="#F0F0F0"/>
<path d="M58.556 43.4H54.336V57H59.016C61.836 57 63.496 55.52 63.496 53.08C63.496 51.48 62.616 50.3 61.136 49.96C62.276 49.44 62.856 48.46 62.856 47.12C62.856 44.92 61.396 43.4 58.556 43.4ZM58.336 49.18H56.436V45.7H58.336C59.936 45.7 60.676 46.16 60.676 47.4C60.676 48.62 59.936 49.18 58.336 49.18ZM58.816 54.7H56.436V50.92H58.816C60.496 50.92 61.316 51.42 61.316 52.76C61.316 54.08 60.496 54.7 58.816 54.7ZM76.0236 47.2H74.0036V57H76.0236V47.2ZM67.5436 47.2H65.5036V57H69.2236C71.2836 57 72.9036 55.9 72.9036 53.6C72.9036 51.34 71.4036 50.5 69.1836 50.5H67.5436V47.2ZM69.1236 52.14C70.4236 52.14 70.9436 52.64 70.9436 53.56C70.9436 54.54 70.2836 54.96 69.0836 54.96H67.5436V52.14H69.1236ZM83.5124 47.44C82.0524 47.44 80.8324 48.02 80.0924 49.22C80.2724 47.06 80.8924 45.96 82.9524 45.64L86.8724 45.04V42.92L82.6324 43.5C79.1324 44 78.0524 46.54 78.0524 50.94C78.0524 55.1 79.8724 57.2 82.9324 57.2C85.9924 57.2 87.7724 55.08 87.7724 52.16C87.7724 49.24 86.0924 47.44 83.5124 47.44ZM83.0524 49.46C84.6924 49.46 85.7324 50.32 85.7324 52.16C85.7324 54 84.6524 55.04 82.9324 55.04C81.1924 55.04 80.1724 53.84 80.1724 51.7V50.58C80.7924 49.82 81.8324 49.46 83.0524 49.46ZM98.1643 53.88H96.3243C95.9443 54.66 95.1243 55.18 93.7643 55.18C92.2643 55.18 91.2643 54.22 91.1043 52.6H98.3643C98.3643 52.52 98.3843 52.26 98.3843 52.18C98.3843 49.08 96.5243 47 93.7643 47C91.0043 47 89.0843 49.16 89.0843 52.1C89.0843 55.04 90.9843 57.2 93.7243 57.2C96.3843 57.2 97.7443 55.68 98.1643 53.88ZM93.7643 49.02C95.2843 49.02 96.1443 49.94 96.3443 51.26H91.1443C91.4043 49.84 92.3443 49.02 93.7643 49.02ZM102.151 48.92V47.2H100.211V61H102.251V55.6C102.871 56.66 103.871 57.18 105.351 57.18C107.971 57.18 109.771 55.08 109.771 52.02C109.771 48.96 107.951 47.02 105.331 47.02C103.751 47.02 102.691 47.76 102.151 48.92ZM104.911 55.02C103.571 55.02 102.671 54.72 102.251 53.88V50.36C102.671 49.54 103.571 49.18 104.891 49.18C106.771 49.18 107.731 50.22 107.731 52.04C107.731 53.84 106.771 55.02 104.911 55.02ZM113.716 47.2H111.676V57H113.616L117.876 50.44V57H119.896V47.2H117.956L113.716 53.68V47.2ZM121.619 47.2V49.32H124.579V57H126.619V49.32H129.579V47.2H121.619ZM139.61 53.88H137.77C137.39 54.66 136.57 55.18 135.21 55.18C133.71 55.18 132.71 54.22 132.55 52.6H139.81C139.81 52.52 139.83 52.26 139.83 52.18C139.83 49.08 137.97 47 135.21 47C132.45 47 130.53 49.16 130.53 52.1C130.53 55.04 132.43 57.2 135.17 57.2C137.83 57.2 139.19 55.68 139.61 53.88ZM135.21 49.02C136.73 49.02 137.59 49.94 137.79 51.26H132.59C132.85 49.84 133.79 49.02 135.21 49.02ZM149.179 57.74C148.879 58.64 148.359 58.98 147.599 58.98C147.159 58.98 146.799 58.92 146.459 58.82V60.9C146.819 61.02 147.279 61.12 147.859 61.12C149.259 61.12 150.119 60.34 150.779 58.38L154.519 47.2H152.599L150.159 54.7L147.739 47.2H145.539L148.799 57H149.399L149.179 57.74ZM157.893 48.92V47.2H155.953V61H157.993V55.6C158.613 56.66 159.613 57.18 161.093 57.18C163.713 57.18 165.513 55.08 165.513 52.02C165.513 48.96 163.693 47.02 161.073 47.02C159.493 47.02 158.433 47.76 157.893 48.92ZM160.653 55.02C159.313 55.02 158.413 54.72 157.993 53.88V50.36C158.413 49.54 159.313 49.18 160.633 49.18C162.513 49.18 163.473 50.22 163.473 52.04C163.473 53.84 162.513 55.02 160.653 55.02ZM171.718 47C168.758 47 166.858 49.2 166.858 52.08C166.858 54.98 168.758 57.2 171.718 57.2C174.678 57.2 176.578 54.98 176.578 52.08C176.578 49.2 174.678 47 171.718 47ZM171.718 49.2C173.418 49.2 174.538 50.34 174.538 52.08C174.538 53.84 173.418 55 171.718 55C170.018 55 168.898 53.84 168.898 52.08C168.898 50.34 170.018 49.2 171.718 49.2ZM182.593 57C184.813 57 186.113 55.98 186.113 54.06C186.113 52.84 185.393 52.06 184.393 51.8C185.173 51.5 185.673 50.76 185.673 49.78C185.673 48.16 184.473 47.2 182.413 47.2H178.433V57H182.593ZM180.413 49.1H182.293C183.293 49.1 183.733 49.44 183.733 50.2C183.733 50.98 183.213 51.32 182.233 51.32H180.413V49.1ZM180.413 52.6H182.373C183.573 52.6 184.153 52.96 184.153 53.84C184.153 54.7 183.593 55.08 182.333 55.08H180.413V52.6ZM196.465 53.88H194.625C194.245 54.66 193.425 55.18 192.065 55.18C190.565 55.18 189.565 54.22 189.405 52.6H196.665C196.665 52.52 196.685 52.26 196.685 52.18C196.685 49.08 194.825 47 192.065 47C189.305 47 187.385 49.16 187.385 52.1C187.385 55.04 189.285 57.2 192.025 57.2C194.685 57.2 196.045 55.68 196.465 53.88ZM192.065 49.02C193.585 49.02 194.445 49.94 194.645 51.26H189.445C189.705 49.84 190.645 49.02 192.065 49.02ZM204.571 57H206.611V47.2H204.571V50.9H200.551V47.2H198.511V57H200.551V53H204.571V57ZM211.098 47.2H209.058V57H212.778C214.838 57 216.458 55.9 216.458 53.6C216.458 51.34 214.958 50.5 212.738 50.5H211.098V47.2ZM212.678 52.14C213.978 52.14 214.498 52.64 214.498 53.56C214.498 54.54 213.838 54.96 212.638 54.96H211.098V52.14H212.678ZM92.1343 69C89.2343 69 87.4143 71.22 87.4143 74.08C87.4143 76.96 89.2343 79.2 92.1343 79.2C94.5143 79.2 96.1143 77.82 96.5143 75.62H94.6943C94.4343 76.42 93.6343 77 92.1543 77C90.4743 77 89.4543 75.8 89.4543 74.08C89.4543 72.38 90.4743 71.2 92.1543 71.2C93.6343 71.2 94.4343 71.76 94.6943 72.6H96.5143C96.1143 70.4 94.5143 69 92.1343 69ZM97.3264 76.84V78.96C97.6064 79.06 98.0464 79.12 98.4664 79.12C100.246 79.12 100.886 77.8 101.186 74.36C101.266 73.42 101.326 72.28 101.366 71.3H104.046V79H106.066V69.2H99.6664C99.6064 71.16 99.5264 72.74 99.3864 74C99.1664 75.98 98.8264 76.9 97.9864 76.9C97.7264 76.9 97.4864 76.86 97.3264 76.84ZM112.802 69C109.842 69 107.942 71.2 107.942 74.08C107.942 76.98 109.842 79.2 112.802 79.2C115.762 79.2 117.662 76.98 117.662 74.08C117.662 71.2 115.762 69 112.802 69ZM112.802 71.2C114.502 71.2 115.622 72.34 115.622 74.08C115.622 75.84 114.502 77 112.802 77C111.102 77 109.982 75.84 109.982 74.08C109.982 72.34 111.102 71.2 112.802 71.2ZM120.468 79L123.748 74.26V79H125.728V74.26L129.008 79H131.508L127.808 73.76L131.468 69.2H129.168L125.728 73.74V69.2H123.748V73.74L120.328 69.2H118.028L121.688 73.74L117.988 79H120.468ZM138.917 79H140.957V69.2H138.917V72.9H134.897V69.2H132.857V79H134.897V75H138.917V79ZM147.704 69C144.744 69 142.844 71.2 142.844 74.08C142.844 76.98 144.744 79.2 147.704 79.2C150.664 79.2 152.564 76.98 152.564 74.08C152.564 71.2 150.664 69 147.704 69ZM147.704 71.2C149.404 71.2 150.524 72.34 150.524 74.08C150.524 75.84 149.404 77 147.704 77C146.004 77 144.884 75.84 144.884 74.08C144.884 72.34 146.004 71.2 147.704 71.2ZM158.58 69C155.68 69 153.86 71.22 153.86 74.08C153.86 76.96 155.68 79.2 158.58 79.2C160.96 79.2 162.56 77.82 162.96 75.62H161.14C160.88 76.42 160.08 77 158.6 77C156.92 77 155.9 75.8 155.9 74.08C155.9 72.38 156.92 71.2 158.6 71.2C160.08 71.2 160.88 71.76 161.14 72.6H162.96C162.56 70.4 160.96 69 158.58 69ZM164.012 69.2V71.32H166.972V79H169.012V71.32H171.972V69.2H164.012ZM175.717 69.2H173.677V79H175.617L179.877 72.44V79H181.897V69.2H179.957L175.717 75.68V69.2ZM33.3019 101H35.3419V91.2H33.3019V94.9H29.2819V91.2H27.2419V101H29.2819V97H33.3019V101ZM44.8288 101.04C45.1288 101.04 45.4888 101.02 45.7888 101V99.08H45.4888C44.9888 99.08 44.7688 98.84 44.7688 98.12L44.8288 94.64C44.8488 92.16 43.3688 91 41.1288 91C39.2088 91 37.6488 92.06 37.3888 94.22H39.1488C39.3088 93.42 40.0088 93.06 41.0488 93.06C41.9688 93.06 42.7088 93.36 42.8288 94.28L40.1288 95.28C38.2688 95.96 37.2688 96.66 37.2688 98.38C37.2688 100.12 38.4088 101.08 40.1488 101.08C41.4888 101.08 42.4088 100.48 42.9888 99.38C43.1088 100.5 43.7888 101.04 44.8288 101.04ZM39.2488 97.94C39.2488 97.2 39.7688 96.84 41.0688 96.34L42.8488 95.66L42.8088 98.36C42.4488 98.76 41.6888 99.04 40.8088 99.04C39.8688 99.04 39.2488 98.7 39.2488 97.94ZM48.661 101L51.941 96.26V101H53.921V96.26L57.201 101H59.701L56.001 95.76L59.661 91.2H57.361L53.921 95.74V91.2H51.941V95.74L48.521 91.2H46.221L49.881 95.74L46.181 101H48.661ZM67.8952 101.04C68.1952 101.04 68.5552 101.02 68.8552 101V99.08H68.5552C68.0552 99.08 67.8352 98.84 67.8352 98.12L67.8952 94.64C67.9152 92.16 66.4352 91 64.1952 91C62.2752 91 60.7152 92.06 60.4552 94.22H62.2152C62.3752 93.42 63.0752 93.06 64.1152 93.06C65.0352 93.06 65.7752 93.36 65.8952 94.28L63.1952 95.28C61.3352 95.96 60.3352 96.66 60.3352 98.38C60.3352 100.12 61.4752 101.08 63.2152 101.08C64.5552 101.08 65.4752 100.48 66.0552 99.38C66.1752 100.5 66.8552 101.04 67.8952 101.04ZM62.3152 97.94C62.3152 97.2 62.8352 96.84 64.1352 96.34L65.9152 95.66L65.8752 98.36C65.5152 98.76 64.7552 99.04 63.8752 99.04C62.9352 99.04 62.3152 98.7 62.3152 97.94ZM69.3144 91.2V93.32H72.2744V101H74.3144V93.32H77.2744V91.2H69.3144ZM81.0202 91.2H78.9802V101H80.9202L85.1802 94.44V101H87.2002V91.2H85.2602L81.0202 97.68V91.2ZM98.1838 97.88H96.3438C95.9638 98.66 95.1438 99.18 93.7838 99.18C92.2838 99.18 91.2838 98.22 91.1238 96.6H98.3838C98.3838 96.52 98.4038 96.26 98.4038 96.18C98.4038 93.08 96.5438 91 93.7838 91C91.0238 91 89.1038 93.16 89.1038 96.1C89.1038 99.04 91.0038 101.2 93.7438 101.2C96.4038 101.2 97.7638 99.68 98.1838 97.88ZM93.7838 93.02C95.3038 93.02 96.1638 93.94 96.3638 95.26H91.1638C91.4238 93.84 92.3638 93.02 93.7838 93.02ZM102.21 101V94L105.13 99.56H105.99L108.91 94V101H110.93V91.2H108.31L105.63 96.44L102.95 91.2H100.23V101H102.21ZM124.298 101H126.338V91.2H124.298V94.9H120.278V91.2H118.238V101H120.278V97H124.298V101ZM135.825 101.04C136.125 101.04 136.485 101.02 136.785 101V99.08H136.485C135.985 99.08 135.765 98.84 135.765 98.12L135.825 94.64C135.845 92.16 134.365 91 132.125 91C130.205 91 128.645 92.06 128.385 94.22H130.145C130.305 93.42 131.005 93.06 132.045 93.06C132.965 93.06 133.705 93.36 133.825 94.28L131.125 95.28C129.265 95.96 128.265 96.66 128.265 98.38C128.265 100.12 129.405 101.08 131.145 101.08C132.485 101.08 133.405 100.48 133.985 99.38C134.105 100.5 134.785 101.04 135.825 101.04ZM130.245 97.94C130.245 97.2 130.765 96.84 132.065 96.34L133.845 95.66L133.805 98.36C133.445 98.76 132.685 99.04 131.805 99.04C130.865 99.04 130.245 98.7 130.245 97.94ZM148.62 101H151.1L147.28 95.74L151.06 91.2H148.78L145.18 95.74V91.2H143.14V101H145.18V96.26L148.62 101ZM156.288 91C153.328 91 151.428 93.2 151.428 96.08C151.428 98.98 153.328 101.2 156.288 101.2C159.248 101.2 161.148 98.98 161.148 96.08C161.148 93.2 159.248 91 156.288 91ZM156.288 93.2C157.988 93.2 159.108 94.34 159.108 96.08C159.108 97.84 157.988 99 156.288 99C154.588 99 153.468 97.84 153.468 96.08C153.468 94.34 154.588 93.2 156.288 93.2ZM161.926 98.84V100.96C162.206 101.06 162.646 101.12 163.066 101.12C164.846 101.12 165.486 99.8 165.786 96.36C165.866 95.42 165.926 94.28 165.966 93.3H168.646V101H170.666V91.2H164.266C164.206 93.16 164.126 94.74 163.986 96C163.766 97.98 163.426 98.9 162.586 98.9C162.326 98.9 162.086 98.86 161.926 98.84ZM178.241 96.52V94.56H172.841V96.52H178.241ZM184.586 101C186.806 101 188.106 99.98 188.106 98.06C188.106 96.84 187.386 96.06 186.386 95.8C187.166 95.5 187.666 94.76 187.666 93.78C187.666 92.16 186.466 91.2 184.406 91.2H180.426V101H184.586ZM182.406 93.1H184.286C185.286 93.1 185.726 93.44 185.726 94.2C185.726 94.98 185.206 95.32 184.226 95.32H182.406V93.1ZM182.406 96.6H184.366C185.566 96.6 186.146 96.96 186.146 97.84C186.146 98.7 185.586 99.08 184.326 99.08H182.406V96.6ZM194.237 91C191.277 91 189.377 93.2 189.377 96.08C189.377 98.98 191.277 101.2 194.237 101.2C197.197 101.2 199.097 98.98 199.097 96.08C199.097 93.2 197.197 91 194.237 91ZM194.237 93.2C195.937 93.2 197.057 94.34 197.057 96.08C197.057 97.84 195.937 99 194.237 99C192.537 99 191.417 97.84 191.417 96.08C191.417 94.34 192.537 93.2 194.237 93.2ZM210.856 91.44C209.396 91.44 208.176 92.02 207.436 93.22C207.616 91.06 208.236 89.96 210.296 89.64L214.216 89.04V86.92L209.976 87.5C206.476 88 205.396 90.54 205.396 94.94C205.396 99.1 207.216 101.2 210.276 101.2C213.336 101.2 215.116 99.08 215.116 96.16C215.116 93.24 213.436 91.44 210.856 91.44ZM210.396 93.46C212.036 93.46 213.076 94.32 213.076 96.16C213.076 98 211.996 99.04 210.276 99.04C208.536 99.04 207.516 97.84 207.516 95.7V94.58C208.136 93.82 209.176 93.46 210.396 93.46ZM219.531 101.74C219.231 102.64 218.711 102.98 217.951 102.98C217.511 102.98 217.151 102.92 216.811 102.82V104.9C217.171 105.02 217.631 105.12 218.211 105.12C219.611 105.12 220.471 104.34 221.131 102.38L224.871 91.2H222.951L220.511 98.7L218.091 91.2H215.891L219.151 101H219.751L219.531 101.74ZM231.784 101H234.264L230.444 95.74L234.224 91.2H231.944L228.344 95.74V91.2H226.304V101H228.344V96.26L231.784 101ZM239.742 101C241.962 101 243.262 99.98 243.262 98.06C243.262 96.84 242.542 96.06 241.542 95.8C242.322 95.5 242.822 94.76 242.822 93.78C242.822 92.16 241.622 91.2 239.562 91.2H235.582V101H239.742ZM237.562 93.1H239.442C240.442 93.1 240.882 93.44 240.882 94.2C240.882 94.98 240.362 95.32 239.382 95.32H237.562V93.1ZM237.562 96.6H239.522C240.722 96.6 241.302 96.96 241.302 97.84C241.302 98.7 240.742 99.08 239.482 99.08H237.562V96.6ZM103.179 123C105.399 123 106.699 121.98 106.699 120.06C106.699 118.84 105.979 118.06 104.979 117.8C105.759 117.5 106.259 116.76 106.259 115.78C106.259 114.16 105.059 113.2 102.999 113.2H99.0193V123H103.179ZM100.999 115.1H102.879C103.879 115.1 104.319 115.44 104.319 116.2C104.319 116.98 103.799 117.32 102.819 117.32H100.999V115.1ZM100.999 118.6H102.959C104.159 118.6 104.739 118.96 104.739 119.84C104.739 120.7 104.179 121.08 102.919 121.08H100.999V118.6ZM117.554 113C114.654 113 112.834 115.22 112.834 118.08C112.834 120.96 114.654 123.2 117.554 123.2C119.934 123.2 121.534 121.82 121.934 119.62H120.114C119.854 120.42 119.054 121 117.574 121C115.894 121 114.874 119.8 114.874 118.08C114.874 116.38 115.894 115.2 117.574 115.2C119.054 115.2 119.854 115.76 120.114 116.6H121.934C121.534 114.4 119.934 113 117.554 113ZM122.746 120.84V122.96C123.026 123.06 123.466 123.12 123.886 123.12C125.666 123.12 126.306 121.8 126.606 118.36C126.686 117.42 126.746 116.28 126.786 115.3H129.466V123H131.486V113.2H125.086C125.026 115.16 124.946 116.74 124.806 118C124.586 119.98 124.246 120.9 123.406 120.9C123.146 120.9 122.906 120.86 122.746 120.84ZM138.222 113C135.262 113 133.362 115.2 133.362 118.08C133.362 120.98 135.262 123.2 138.222 123.2C141.182 123.2 143.082 120.98 143.082 118.08C143.082 115.2 141.182 113 138.222 113ZM138.222 115.2C139.922 115.2 141.042 116.34 141.042 118.08C141.042 119.84 139.922 121 138.222 121C136.522 121 135.402 119.84 135.402 118.08C135.402 116.34 136.522 115.2 138.222 115.2ZM149.097 123C151.317 123 152.617 121.98 152.617 120.06C152.617 118.84 151.897 118.06 150.897 117.8C151.677 117.5 152.177 116.76 152.177 115.78C152.177 114.16 150.977 113.2 148.917 113.2H144.937V123H149.097ZM146.917 115.1H148.797C149.797 115.1 150.237 115.44 150.237 116.2C150.237 116.98 149.717 117.32 148.737 117.32H146.917V115.1ZM146.917 118.6H148.877C150.077 118.6 150.657 118.96 150.657 119.84C150.657 120.7 150.097 121.08 148.837 121.08H146.917V118.6ZM161.489 123.04C161.789 123.04 162.149 123.02 162.449 123V121.08H162.149C161.649 121.08 161.429 120.84 161.429 120.12L161.489 116.64C161.509 114.16 160.029 113 157.789 113C155.869 113 154.309 114.06 154.049 116.22H155.809C155.969 115.42 156.669 115.06 157.709 115.06C158.629 115.06 159.369 115.36 159.489 116.28L156.789 117.28C154.929 117.96 153.929 118.66 153.929 120.38C153.929 122.12 155.069 123.08 156.809 123.08C158.149 123.08 159.069 122.48 159.649 121.38C159.769 122.5 160.449 123.04 161.489 123.04ZM155.909 119.94C155.909 119.2 156.429 118.84 157.729 118.34L159.509 117.66L159.469 120.36C159.109 120.76 158.349 121.04 157.469 121.04C156.529 121.04 155.909 120.7 155.909 119.94ZM162.941 123H165.121L167.341 119.46L169.461 123H171.921L168.601 117.88L171.741 113.2H169.561L167.521 116.44L165.541 113.2H163.081L166.241 118.02L162.941 123Z" fill="black"/>
</svg>
