<svg xmlns="http://www.w3.org/2000/svg" xmlns:xlink="http://www.w3.org/1999/xlink" viewBox="0 0 1645.36 1710.03">
  <defs>
    <style>
      .cls-1 {
        isolation: isolate;
      }

      .cls-10, .cls-100, .cls-101, .cls-102, .cls-103, .cls-104, .cls-105, .cls-106, .cls-107, .cls-108, .cls-109, .cls-11, .cls-110, .cls-111, .cls-112, .cls-113, .cls-114, .cls-115, .cls-116, .cls-117, .cls-118, .cls-119, .cls-12, .cls-120, .cls-121, .cls-122, .cls-123, .cls-124, .cls-125, .cls-126, .cls-127, .cls-128, .cls-129, .cls-13, .cls-130, .cls-131, .cls-132, .cls-133, .cls-134, .cls-135, .cls-136, .cls-137, .cls-138, .cls-139, .cls-14, .cls-140, .cls-141, .cls-142, .cls-143, .cls-144, .cls-145, .cls-146, .cls-147, .cls-148, .cls-149, .cls-15, .cls-150, .cls-151, .cls-152, .cls-153, .cls-154, .cls-155, .cls-156, .cls-157, .cls-158, .cls-159, .cls-16, .cls-160, .cls-161, .cls-162, .cls-163, .cls-164, .cls-165, .cls-166, .cls-167, .cls-168, .cls-169, .cls-17, .cls-18, .cls-19, .cls-2, .cls-20, .cls-21, .cls-22, .cls-23, .cls-24, .cls-25, .cls-26, .cls-27, .cls-28, .cls-29, .cls-3, .cls-30, .cls-31, .cls-32, .cls-33, .cls-34, .cls-35, .cls-36, .cls-37, .cls-38, .cls-39, .cls-4, .cls-40, .cls-41, .cls-42, .cls-43, .cls-44, .cls-45, .cls-46, .cls-47, .cls-48, .cls-49, .cls-5, .cls-50, .cls-51, .cls-52, .cls-53, .cls-54, .cls-55, .cls-56, .cls-57, .cls-58, .cls-59, .cls-6, .cls-60, .cls-61, .cls-62, .cls-63, .cls-64, .cls-65, .cls-66, .cls-67, .cls-68, .cls-69, .cls-7, .cls-70, .cls-71, .cls-72, .cls-73, .cls-74, .cls-75, .cls-76, .cls-77, .cls-78, .cls-79, .cls-8, .cls-80, .cls-81, .cls-82, .cls-83, .cls-84, .cls-85, .cls-86, .cls-87, .cls-88, .cls-89, .cls-9, .cls-90, .cls-91, .cls-92, .cls-93, .cls-94, .cls-95, .cls-96, .cls-97, .cls-98, .cls-99 {
        mix-blend-mode: multiply;
      }

      .cls-105, .cls-106, .cls-2, .cls-3, .cls-33, .cls-34, .cls-69 {
        opacity: 0.42;
      }

      .cls-2 {
        fill: url(#Ѕезым_нный_градиент_2);
      }

      .cls-3 {
        fill: url(#Ѕезым_нный_градиент_2-2);
      }

      .cls-4 {
        fill: url(#Ѕезым_нный_градиент_2-3);
      }

      .cls-5 {
        fill: url(#Ѕезым_нный_градиент_2-4);
      }

      .cls-6 {
        fill: url(#Ѕезым_нный_градиент_2-5);
      }

      .cls-7 {
        fill: url(#Ѕезым_нный_градиент_2-6);
      }

      .cls-8 {
        fill: url(#Ѕезым_нный_градиент_2-7);
      }

      .cls-9 {
        fill: url(#Ѕезым_нный_градиент_2-8);
      }

      .cls-10 {
        fill: url(#Ѕезым_нный_градиент_2-9);
      }

      .cls-11 {
        fill: url(#Ѕезым_нный_градиент_2-10);
      }

      .cls-12 {
        fill: url(#Ѕезым_нный_градиент_2-11);
      }

      .cls-13 {
        fill: url(#Ѕезым_нный_градиент_2-12);
      }

      .cls-14 {
        fill: url(#Ѕезым_нный_градиент_2-13);
      }

      .cls-15 {
        fill: url(#Ѕезым_нный_градиент_2-14);
      }

      .cls-16 {
        fill: url(#Ѕезым_нный_градиент_2-15);
      }

      .cls-17 {
        fill: url(#Ѕезым_нный_градиент_2-16);
      }

      .cls-18 {
        fill: url(#Ѕезым_нный_градиент_2-17);
      }

      .cls-19 {
        fill: url(#Ѕезым_нный_градиент_2-18);
      }

      .cls-20 {
        fill: url(#Ѕезым_нный_градиент_2-19);
      }

      .cls-21 {
        fill: url(#Ѕезым_нный_градиент_2-20);
      }

      .cls-22 {
        fill: url(#Ѕезым_нный_градиент_2-21);
      }

      .cls-23 {
        fill: url(#Ѕезым_нный_градиент_2-22);
      }

      .cls-24 {
        fill: url(#Ѕезым_нный_градиент_2-23);
      }

      .cls-25 {
        fill: url(#Ѕезым_нный_градиент_2-24);
      }

      .cls-26 {
        fill: url(#Ѕезым_нный_градиент_2-25);
      }

      .cls-27 {
        fill: url(#Ѕезым_нный_градиент_2-26);
      }

      .cls-28 {
        fill: url(#Ѕезым_нный_градиент_2-27);
      }

      .cls-29 {
        fill: url(#Ѕезым_нный_градиент_2-28);
      }

      .cls-30 {
        fill: url(#Ѕезым_нный_градиент_2-29);
      }

      .cls-31 {
        fill: url(#Ѕезым_нный_градиент_2-30);
      }

      .cls-32 {
        fill: url(#Ѕезым_нный_градиент_2-31);
      }

      .cls-33 {
        fill: url(#Ѕезым_нный_градиент_2-32);
      }

      .cls-34 {
        fill: url(#Ѕезым_нный_градиент_2-33);
      }

      .cls-35 {
        fill: url(#Ѕезым_нный_градиент_2-34);
      }

      .cls-36 {
        fill: url(#Ѕезым_нный_градиент_2-35);
      }

      .cls-37 {
        fill: url(#Ѕезым_нный_градиент_2-36);
      }

      .cls-38 {
        fill: url(#Ѕезым_нный_градиент_2-37);
      }

      .cls-39 {
        fill: url(#Ѕезым_нный_градиент_2-38);
      }

      .cls-40 {
        fill: url(#Ѕезым_нный_градиент_2-39);
      }

      .cls-41 {
        fill: url(#Ѕезым_нный_градиент_2-40);
      }

      .cls-42 {
        fill: url(#Ѕезым_нный_градиент_2-41);
      }

      .cls-43 {
        fill: url(#Ѕезым_нный_градиент_2-42);
      }

      .cls-44 {
        fill: url(#Ѕезым_нный_градиент_2-43);
      }

      .cls-45 {
        fill: url(#Ѕезым_нный_градиент_2-44);
      }

      .cls-46 {
        fill: url(#Ѕезым_нный_градиент_2-45);
      }

      .cls-47 {
        fill: url(#Ѕезым_нный_градиент_2-46);
      }

      .cls-48 {
        fill: url(#Ѕезым_нный_градиент_2-47);
      }

      .cls-49 {
        fill: url(#Ѕезым_нный_градиент_2-48);
      }

      .cls-50 {
        fill: url(#Ѕезым_нный_градиент_2-49);
      }

      .cls-51 {
        fill: url(#Ѕезым_нный_градиент_2-50);
      }

      .cls-52 {
        fill: url(#Ѕезым_нный_градиент_2-51);
      }

      .cls-53 {
        fill: url(#Ѕезым_нный_градиент_2-52);
      }

      .cls-54 {
        fill: url(#Ѕезым_нный_градиент_2-53);
      }

      .cls-55 {
        fill: url(#Ѕезым_нный_градиент_2-54);
      }

      .cls-56 {
        fill: url(#Ѕезым_нный_градиент_2-55);
      }

      .cls-57 {
        fill: url(#Ѕезым_нный_градиент_2-56);
      }

      .cls-58 {
        fill: url(#Ѕезым_нный_градиент_2-57);
      }

      .cls-59 {
        fill: url(#Ѕезым_нный_градиент_2-58);
      }

      .cls-60 {
        fill: url(#Ѕезым_нный_градиент_2-59);
      }

      .cls-61 {
        fill: url(#Ѕезым_нный_градиент_2-60);
      }

      .cls-62 {
        fill: url(#Ѕезым_нный_градиент_2-61);
      }

      .cls-63 {
        fill: url(#Ѕезым_нный_градиент_2-62);
      }

      .cls-64 {
        fill: url(#Ѕезым_нный_градиент_2-63);
      }

      .cls-65 {
        fill: url(#Ѕезым_нный_градиент_2-65);
      }

      .cls-66 {
        fill: url(#Ѕезым_нный_градиент_2-66);
      }

      .cls-67 {
        fill: url(#Ѕезым_нный_градиент_2-67);
      }

      .cls-68 {
        fill: url(#Ѕезым_нный_градиент_2-68);
      }

      .cls-69 {
        fill: url(#Ѕезым_нный_градиент_2-69);
      }

      .cls-70 {
        fill: url(#Ѕезым_нный_градиент_2-70);
      }

      .cls-71 {
        fill: url(#Ѕезым_нный_градиент_2-71);
      }

      .cls-72 {
        fill: url(#Ѕезым_нный_градиент_2-72);
      }

      .cls-73 {
        fill: url(#Ѕезым_нный_градиент_2-73);
      }

      .cls-74 {
        fill: url(#Ѕезым_нный_градиент_2-74);
      }

      .cls-75 {
        fill: url(#Ѕезым_нный_градиент_2-75);
      }

      .cls-76 {
        fill: url(#Ѕезым_нный_градиент_2-76);
      }

      .cls-77 {
        fill: url(#Ѕезым_нный_градиент_2-77);
      }

      .cls-78 {
        fill: url(#Ѕезым_нный_градиент_2-78);
      }

      .cls-79 {
        fill: url(#Ѕезым_нный_градиент_2-79);
      }

      .cls-80 {
        fill: url(#Ѕезым_нный_градиент_2-80);
      }

      .cls-81 {
        fill: url(#Ѕезым_нный_градиент_2-81);
      }

      .cls-82 {
        fill: url(#Ѕезым_нный_градиент_2-82);
      }

      .cls-83 {
        fill: url(#Ѕезым_нный_градиент_2-83);
      }

      .cls-84 {
        fill: url(#Ѕезым_нный_градиент_2-84);
      }

      .cls-85 {
        fill: url(#Ѕезым_нный_градиент_2-85);
      }

      .cls-86 {
        fill: url(#Ѕезым_нный_градиент_2-86);
      }

      .cls-87 {
        fill: url(#Ѕезым_нный_градиент_2-87);
      }

      .cls-88 {
        fill: url(#Ѕезым_нный_градиент_2-88);
      }

      .cls-89 {
        fill: url(#Ѕезым_нный_градиент_2-89);
      }

      .cls-90 {
        fill: url(#Ѕезым_нный_градиент_2-90);
      }

      .cls-91 {
        fill: url(#Ѕезым_нный_градиент_2-91);
      }

      .cls-92 {
        fill: url(#Ѕезым_нный_градиент_2-92);
      }

      .cls-93 {
        fill: url(#Ѕезым_нный_градиент_2-93);
      }

      .cls-94 {
        fill: url(#Ѕезым_нный_градиент_2-94);
      }

      .cls-95 {
        fill: url(#Ѕезым_нный_градиент_2-95);
      }

      .cls-96 {
        fill: url(#Ѕезым_нный_градиент_2-96);
      }

      .cls-97 {
        fill: url(#Ѕезым_нный_градиент_2-97);
      }

      .cls-98 {
        fill: url(#Ѕезым_нный_градиент_2-98);
      }

      .cls-99 {
        fill: url(#Ѕезым_нный_градиент_2-99);
      }

      .cls-100 {
        fill: url(#Ѕезым_нный_градиент_2-100);
      }

      .cls-101 {
        fill: url(#Ѕезым_нный_градиент_2-101);
      }

      .cls-102 {
        fill: url(#Ѕезым_нный_градиент_2-102);
      }

      .cls-103 {
        fill: url(#Ѕезым_нный_градиент_2-103);
      }

      .cls-104 {
        fill: url(#Ѕезым_нный_градиент_2-104);
      }

      .cls-105 {
        fill: url(#Ѕезым_нный_градиент_2-105);
      }

      .cls-106 {
        fill: url(#Ѕезым_нный_градиент_2-106);
      }

      .cls-107 {
        fill: url(#Ѕезым_нный_градиент_2-107);
      }

      .cls-108 {
        fill: url(#Ѕезым_нный_градиент_2-108);
      }

      .cls-109 {
        fill: url(#Ѕезым_нный_градиент_2-109);
      }

      .cls-110 {
        fill: url(#Ѕезым_нный_градиент_2-110);
      }

      .cls-111 {
        fill: url(#Ѕезым_нный_градиент_2-111);
      }

      .cls-112 {
        fill: url(#Ѕезым_нный_градиент_2-112);
      }

      .cls-113 {
        fill: url(#Ѕезым_нный_градиент_2-113);
      }

      .cls-114 {
        fill: url(#Ѕезым_нный_градиент_2-114);
      }

      .cls-115 {
        fill: url(#Ѕезым_нный_градиент_2-115);
      }

      .cls-116 {
        fill: url(#Ѕезым_нный_градиент_2-116);
      }

      .cls-117 {
        fill: url(#Ѕезым_нный_градиент_2-117);
      }

      .cls-118 {
        fill: url(#Ѕезым_нный_градиент_2-118);
      }

      .cls-119 {
        fill: url(#Ѕезым_нный_градиент_2-119);
      }

      .cls-120 {
        fill: url(#Ѕезым_нный_градиент_2-120);
      }

      .cls-121 {
        fill: url(#Ѕезым_нный_градиент_2-121);
      }

      .cls-122 {
        fill: url(#Ѕезым_нный_градиент_2-122);
      }

      .cls-123 {
        fill: url(#Ѕезым_нный_градиент_2-123);
      }

      .cls-124 {
        fill: url(#Ѕезым_нный_градиент_2-124);
      }

      .cls-125 {
        fill: url(#Ѕезым_нный_градиент_2-125);
      }

      .cls-126 {
        fill: url(#Ѕезым_нный_градиент_2-126);
      }

      .cls-127 {
        fill: url(#Ѕезым_нный_градиент_2-127);
      }

      .cls-128 {
        fill: url(#Ѕезым_нный_градиент_2-128);
      }

      .cls-129 {
        fill: url(#Ѕезым_нный_градиент_2-129);
      }

      .cls-130 {
        fill: url(#Ѕезым_нный_градиент_2-130);
      }

      .cls-131 {
        fill: url(#Ѕезым_нный_градиент_2-131);
      }

      .cls-132 {
        fill: url(#Ѕезым_нный_градиент_2-133);
      }

      .cls-133 {
        fill: url(#Ѕезым_нный_градиент_2-134);
      }

      .cls-134 {
        fill: url(#Ѕезым_нный_градиент_2-135);
      }

      .cls-135 {
        fill: url(#Ѕезым_нный_градиент_2-136);
      }

      .cls-136 {
        fill: url(#Ѕезым_нный_градиент_2-137);
      }

      .cls-137 {
        fill: url(#Ѕезым_нный_градиент_2-138);
      }

      .cls-138 {
        fill: url(#Ѕезым_нный_градиент_2-139);
      }

      .cls-139 {
        fill: url(#Ѕезым_нный_градиент_2-140);
      }

      .cls-140 {
        fill: url(#Ѕезым_нный_градиент_2-141);
      }

      .cls-141 {
        fill: url(#Ѕезым_нный_градиент_2-142);
      }

      .cls-142 {
        fill: url(#Ѕезым_нный_градиент_2-143);
      }

      .cls-143 {
        fill: url(#Ѕезым_нный_градиент_2-144);
      }

      .cls-144 {
        fill: url(#Ѕезым_нный_градиент_2-145);
      }

      .cls-145 {
        fill: url(#Ѕезым_нный_градиент_2-146);
      }

      .cls-146 {
        fill: url(#Ѕезым_нный_градиент_2-147);
      }

      .cls-147 {
        fill: url(#Ѕезым_нный_градиент_2-148);
      }

      .cls-148 {
        fill: url(#Ѕезым_нный_градиент_2-149);
      }

      .cls-149 {
        fill: url(#Ѕезым_нный_градиент_2-150);
      }

      .cls-150 {
        fill: url(#Ѕезым_нный_градиент_2-151);
      }

      .cls-151 {
        fill: url(#Ѕезым_нный_градиент_2-152);
      }

      .cls-152 {
        fill: url(#Ѕезым_нный_градиент_2-153);
      }

      .cls-153 {
        fill: url(#Ѕезым_нный_градиент_2-154);
      }

      .cls-154 {
        fill: url(#Ѕезым_нный_градиент_2-155);
      }

      .cls-155 {
        fill: url(#Ѕезым_нный_градиент_2-156);
      }

      .cls-156 {
        fill: url(#Ѕезым_нный_градиент_2-157);
      }

      .cls-157 {
        fill: url(#Ѕезым_нный_градиент_2-158);
      }

      .cls-158 {
        fill: url(#Ѕезым_нный_градиент_2-159);
      }

      .cls-159 {
        fill: url(#Ѕезым_нный_градиент_2-160);
      }

      .cls-160 {
        fill: url(#Ѕезым_нный_градиент_2-161);
      }

      .cls-161 {
        fill: url(#Ѕезым_нный_градиент_2-162);
      }

      .cls-162 {
        fill: url(#Ѕезым_нный_градиент_2-163);
      }

      .cls-163 {
        fill: url(#Ѕезым_нный_градиент_2-164);
      }

      .cls-164 {
        fill: url(#Ѕезым_нный_градиент_2-165);
      }

      .cls-165 {
        fill: url(#Ѕезым_нный_градиент_2-166);
      }

      .cls-166 {
        fill: url(#Ѕезым_нный_градиент_2-167);
      }

      .cls-167 {
        fill: url(#Ѕезым_нный_градиент_2-168);
      }

      .cls-168 {
        fill: url(#Ѕезым_нный_градиент_2-169);
      }

      .cls-169 {
        fill: url(#Ѕезым_нный_градиент_2-170);
      }
    </style>
    <radialGradient id="Ѕезым_нный_градиент_2" data-name="Ѕезым€нный градиент 2" cx="758" cy="898.29" r="1304.37" gradientUnits="userSpaceOnUse">
      <stop offset="0.25" stop-color="#fff"/>
      <stop offset="0.25" stop-color="#fffffe"/>
      <stop offset="0.45" stop-color="#fee3b9"/>
      <stop offset="0.64" stop-color="#fccd83"/>
      <stop offset="0.8" stop-color="#fcbd5c"/>
      <stop offset="0.92" stop-color="#fbb444"/>
      <stop offset="1" stop-color="#fbb03b"/>
    </radialGradient>
    <radialGradient id="Ѕезым_нный_градиент_2-2" cx="758" cy="898.29" r="1304.37" xlink:href="#Ѕезым_нный_градиент_2"/>
    <radialGradient id="Ѕезым_нный_градиент_2-3" cx="758" cy="898.29" r="1304.37" xlink:href="#Ѕезым_нный_градиент_2"/>
    <radialGradient id="Ѕезым_нный_градиент_2-4" cx="758" cy="898.29" r="1304.38" xlink:href="#Ѕезым_нный_градиент_2"/>
    <radialGradient id="Ѕезым_нный_градиент_2-5" cx="758" cy="898.29" r="1304.37" xlink:href="#Ѕезым_нный_градиент_2"/>
    <radialGradient id="Ѕезым_нный_градиент_2-6" cx="758" cy="898.29" r="1304.37" xlink:href="#Ѕезым_нный_градиент_2"/>
    <radialGradient id="Ѕезым_нный_градиент_2-7" cx="758" cy="898.29" r="1304.37" xlink:href="#Ѕезым_нный_градиент_2"/>
    <radialGradient id="Ѕезым_нный_градиент_2-8" cx="758" cy="898.29" r="1304.37" xlink:href="#Ѕезым_нный_градиент_2"/>
    <radialGradient id="Ѕезым_нный_градиент_2-9" cx="758" cy="898.29" r="1304.37" xlink:href="#Ѕезым_нный_градиент_2"/>
    <radialGradient id="Ѕезым_нный_градиент_2-10" cx="758" cy="898.29" r="1304.37" xlink:href="#Ѕезым_нный_градиент_2"/>
    <radialGradient id="Ѕезым_нный_градиент_2-11" cx="758" cy="898.29" r="1304.37" xlink:href="#Ѕезым_нный_градиент_2"/>
    <radialGradient id="Ѕезым_нный_градиент_2-12" cx="757.99" cy="898.29" r="1304.38" xlink:href="#Ѕезым_нный_градиент_2"/>
    <radialGradient id="Ѕезым_нный_градиент_2-13" cx="758" cy="898.29" r="1304.37" xlink:href="#Ѕезым_нный_градиент_2"/>
    <radialGradient id="Ѕезым_нный_градиент_2-14" cx="758" cy="898.29" r="1304.37" xlink:href="#Ѕезым_нный_градиент_2"/>
    <radialGradient id="Ѕезым_нный_градиент_2-15" cx="758" cy="898.29" r="1304.37" xlink:href="#Ѕезым_нный_градиент_2"/>
    <radialGradient id="Ѕезым_нный_градиент_2-16" cx="757.99" cy="898.29" r="1304.37" xlink:href="#Ѕезым_нный_градиент_2"/>
    <radialGradient id="Ѕезым_нный_градиент_2-17" cx="758" cy="898.29" r="1304.37" xlink:href="#Ѕезым_нный_градиент_2"/>
    <radialGradient id="Ѕезым_нный_градиент_2-18" cx="757.99" cy="898.29" r="1304.37" xlink:href="#Ѕезым_нный_градиент_2"/>
    <radialGradient id="Ѕезым_нный_градиент_2-19" cx="758" cy="898.29" r="1304.37" xlink:href="#Ѕезым_нный_градиент_2"/>
    <radialGradient id="Ѕезым_нный_градиент_2-20" cx="758" cy="898.29" r="1304.37" xlink:href="#Ѕезым_нный_градиент_2"/>
    <radialGradient id="Ѕезым_нный_градиент_2-21" cx="758" cy="898.29" r="1304.37" xlink:href="#Ѕезым_нный_градиент_2"/>
    <radialGradient id="Ѕезым_нный_градиент_2-22" cx="758" cy="898.29" r="1304.38" xlink:href="#Ѕезым_нный_градиент_2"/>
    <radialGradient id="Ѕезым_нный_градиент_2-23" cx="758" cy="898.29" r="1304.38" xlink:href="#Ѕезым_нный_градиент_2"/>
    <radialGradient id="Ѕезым_нный_градиент_2-24" cx="758" cy="898.29" r="1304.37" xlink:href="#Ѕезым_нный_градиент_2"/>
    <radialGradient id="Ѕезым_нный_градиент_2-25" cx="758" cy="898.29" r="1304.38" xlink:href="#Ѕезым_нный_градиент_2"/>
    <radialGradient id="Ѕезым_нный_градиент_2-26" cx="758" cy="898.29" r="1304.37" xlink:href="#Ѕезым_нный_градиент_2"/>
    <radialGradient id="Ѕезым_нный_градиент_2-27" cx="758" cy="898.29" r="1304.36" xlink:href="#Ѕезым_нный_градиент_2"/>
    <radialGradient id="Ѕезым_нный_градиент_2-28" cx="758" cy="898.29" r="1304.37" xlink:href="#Ѕезым_нный_градиент_2"/>
    <radialGradient id="Ѕезым_нный_градиент_2-29" cx="758" cy="898.29" r="1304.37" xlink:href="#Ѕезым_нный_градиент_2"/>
    <radialGradient id="Ѕезым_нный_градиент_2-30" cx="757.99" cy="898.29" r="1304.37" xlink:href="#Ѕезым_нный_градиент_2"/>
    <radialGradient id="Ѕезым_нный_градиент_2-31" cx="758" cy="898.29" r="1304.37" xlink:href="#Ѕезым_нный_градиент_2"/>
    <radialGradient id="Ѕезым_нный_градиент_2-32" cx="758" cy="898.29" r="1304.21" xlink:href="#Ѕезым_нный_градиент_2"/>
    <radialGradient id="Ѕезым_нный_градиент_2-33" cx="758" cy="898.29" r="1304.37" xlink:href="#Ѕезым_нный_градиент_2"/>
    <radialGradient id="Ѕезым_нный_градиент_2-34" cx="757.99" cy="898.29" r="1304.37" xlink:href="#Ѕезым_нный_градиент_2"/>
    <radialGradient id="Ѕезым_нный_градиент_2-35" cx="757.99" cy="898.29" r="1304.37" xlink:href="#Ѕезым_нный_градиент_2"/>
    <radialGradient id="Ѕезым_нный_градиент_2-36" cx="758" cy="898.29" r="1304.37" xlink:href="#Ѕезым_нный_градиент_2"/>
    <radialGradient id="Ѕезым_нный_градиент_2-37" cx="757.99" cy="898.29" r="1304.37" xlink:href="#Ѕезым_нный_градиент_2"/>
    <radialGradient id="Ѕезым_нный_градиент_2-38" cx="758" cy="898.29" r="1304.38" xlink:href="#Ѕезым_нный_градиент_2"/>
    <radialGradient id="Ѕезым_нный_градиент_2-39" cx="757.99" cy="898.29" r="1304.37" xlink:href="#Ѕезым_нный_градиент_2"/>
    <radialGradient id="Ѕезым_нный_градиент_2-40" cx="758" cy="898.29" r="1304.38" xlink:href="#Ѕезым_нный_градиент_2"/>
    <radialGradient id="Ѕезым_нный_градиент_2-41" cx="758" cy="898.29" r="1304.37" xlink:href="#Ѕезым_нный_градиент_2"/>
    <radialGradient id="Ѕезым_нный_градиент_2-42" cx="758" cy="898.29" r="1304.38" xlink:href="#Ѕезым_нный_градиент_2"/>
    <radialGradient id="Ѕезым_нный_градиент_2-43" cx="758" cy="898.29" r="1304.37" xlink:href="#Ѕезым_нный_градиент_2"/>
    <radialGradient id="Ѕезым_нный_градиент_2-44" cx="758" cy="898.29" r="1304.37" xlink:href="#Ѕезым_нный_градиент_2"/>
    <radialGradient id="Ѕезым_нный_градиент_2-45" cx="758" cy="898.29" r="1304.38" xlink:href="#Ѕезым_нный_градиент_2"/>
    <radialGradient id="Ѕезым_нный_градиент_2-46" cx="758" cy="898.29" r="1304.38" xlink:href="#Ѕезым_нный_градиент_2"/>
    <radialGradient id="Ѕезым_нный_градиент_2-47" cx="757.99" cy="898.29" r="1304.37" xlink:href="#Ѕезым_нный_градиент_2"/>
    <radialGradient id="Ѕезым_нный_градиент_2-48" cx="758" cy="898.29" r="1304.38" xlink:href="#Ѕезым_нный_градиент_2"/>
    <radialGradient id="Ѕезым_нный_градиент_2-49" cx="758" cy="898.29" r="1304.37" xlink:href="#Ѕезым_нный_градиент_2"/>
    <radialGradient id="Ѕезым_нный_градиент_2-50" cx="758" cy="898.29" r="1304.36" xlink:href="#Ѕезым_нный_градиент_2"/>
    <radialGradient id="Ѕезым_нный_градиент_2-51" cx="758" cy="898.29" r="1304.37" xlink:href="#Ѕезым_нный_градиент_2"/>
    <radialGradient id="Ѕезым_нный_градиент_2-52" cx="758" cy="898.29" r="1304.37" xlink:href="#Ѕезым_нный_градиент_2"/>
    <radialGradient id="Ѕезым_нный_градиент_2-53" cx="758" cy="898.29" r="1304.37" xlink:href="#Ѕезым_нный_градиент_2"/>
    <radialGradient id="Ѕезым_нный_градиент_2-54" cx="758" cy="898.29" r="1304.37" xlink:href="#Ѕезым_нный_градиент_2"/>
    <radialGradient id="Ѕезым_нный_градиент_2-55" cx="757.99" cy="898.29" r="1304.37" xlink:href="#Ѕезым_нный_градиент_2"/>
    <radialGradient id="Ѕезым_нный_градиент_2-56" cx="758" cy="898.29" r="1304.37" xlink:href="#Ѕезым_нный_градиент_2"/>
    <radialGradient id="Ѕезым_нный_градиент_2-57" cx="758" cy="898.29" r="1304.37" xlink:href="#Ѕезым_нный_градиент_2"/>
    <radialGradient id="Ѕезым_нный_градиент_2-58" cx="758" cy="898.29" r="1304.37" xlink:href="#Ѕезым_нный_градиент_2"/>
    <radialGradient id="Ѕезым_нный_градиент_2-59" cx="758" cy="898.29" r="1304.24" xlink:href="#Ѕезым_нный_градиент_2"/>
    <radialGradient id="Ѕезым_нный_градиент_2-60" cx="758" cy="898.29" r="1304.38" xlink:href="#Ѕезым_нный_градиент_2"/>
    <radialGradient id="Ѕезым_нный_градиент_2-61" cx="758" cy="898.28" r="1304.4" xlink:href="#Ѕезым_нный_градиент_2"/>
    <radialGradient id="Ѕезым_нный_градиент_2-62" cx="758" cy="898.29" r="1304.37" xlink:href="#Ѕезым_нный_градиент_2"/>
    <radialGradient id="Ѕезым_нный_градиент_2-63" cx="758" cy="898.29" r="1304.37" xlink:href="#Ѕезым_нный_градиент_2"/>
    <radialGradient id="Ѕезым_нный_градиент_2-65" cx="758" cy="898.29" r="1304.37" xlink:href="#Ѕезым_нный_градиент_2"/>
    <radialGradient id="Ѕезым_нный_градиент_2-66" cx="758" cy="898.29" r="1304.37" xlink:href="#Ѕезым_нный_градиент_2"/>
    <radialGradient id="Ѕезым_нный_градиент_2-67" cx="758" cy="898.29" r="1304.37" xlink:href="#Ѕезым_нный_градиент_2"/>
    <radialGradient id="Ѕезым_нный_градиент_2-68" cx="757.99" cy="898.29" r="1304.37" xlink:href="#Ѕезым_нный_градиент_2"/>
    <radialGradient id="Ѕезым_нный_градиент_2-69" cx="758" cy="898.29" r="1304.37" xlink:href="#Ѕезым_нный_градиент_2"/>
    <radialGradient id="Ѕезым_нный_градиент_2-70" cx="758" cy="898.29" r="1304.38" xlink:href="#Ѕезым_нный_градиент_2"/>
    <radialGradient id="Ѕезым_нный_градиент_2-71" cx="758" cy="898.29" r="1304.37" xlink:href="#Ѕезым_нный_градиент_2"/>
    <radialGradient id="Ѕезым_нный_градиент_2-72" cx="758" cy="898.29" r="1304.38" xlink:href="#Ѕезым_нный_градиент_2"/>
    <radialGradient id="Ѕезым_нный_градиент_2-73" cx="758" cy="898.29" r="1304.37" xlink:href="#Ѕезым_нный_градиент_2"/>
    <radialGradient id="Ѕезым_нный_градиент_2-74" cx="758" cy="898.29" r="1304.37" xlink:href="#Ѕезым_нный_градиент_2"/>
    <radialGradient id="Ѕезым_нный_градиент_2-75" cx="758" cy="898.29" r="1304.38" xlink:href="#Ѕезым_нный_градиент_2"/>
    <radialGradient id="Ѕезым_нный_градиент_2-76" cx="758" cy="898.29" r="1304.37" xlink:href="#Ѕезым_нный_градиент_2"/>
    <radialGradient id="Ѕезым_нный_градиент_2-77" cx="758" cy="898.29" r="1304.37" xlink:href="#Ѕезым_нный_градиент_2"/>
    <radialGradient id="Ѕезым_нный_градиент_2-78" cx="758" cy="898.29" r="1304.38" xlink:href="#Ѕезым_нный_градиент_2"/>
    <radialGradient id="Ѕезым_нный_градиент_2-79" cx="758" cy="898.3" r="1304.35" xlink:href="#Ѕезым_нный_градиент_2"/>
    <radialGradient id="Ѕезым_нный_градиент_2-80" cx="757.99" cy="898.29" r="1304.37" xlink:href="#Ѕезым_нный_градиент_2"/>
    <radialGradient id="Ѕезым_нный_градиент_2-81" cx="758" cy="898.29" r="1304.37" xlink:href="#Ѕезым_нный_градиент_2"/>
    <radialGradient id="Ѕезым_нный_градиент_2-82" cx="758" cy="898.29" r="1304.37" xlink:href="#Ѕезым_нный_градиент_2"/>
    <radialGradient id="Ѕезым_нный_градиент_2-83" cx="758" cy="898.29" r="1304.37" xlink:href="#Ѕезым_нный_градиент_2"/>
    <radialGradient id="Ѕезым_нный_градиент_2-84" cx="758" cy="898.29" r="1304.37" xlink:href="#Ѕезым_нный_градиент_2"/>
    <radialGradient id="Ѕезым_нный_градиент_2-85" cx="758" cy="898.29" r="1304.37" xlink:href="#Ѕезым_нный_градиент_2"/>
    <radialGradient id="Ѕезым_нный_градиент_2-86" cx="757.99" cy="898.29" r="1304.37" xlink:href="#Ѕезым_нный_градиент_2"/>
    <radialGradient id="Ѕезым_нный_градиент_2-87" cx="758" cy="898.29" r="1304.37" xlink:href="#Ѕезым_нный_градиент_2"/>
    <radialGradient id="Ѕезым_нный_градиент_2-88" cx="758" cy="898.29" r="1304.37" xlink:href="#Ѕезым_нный_градиент_2"/>
    <radialGradient id="Ѕезым_нный_градиент_2-89" cx="758" cy="898.29" r="1304.37" xlink:href="#Ѕезым_нный_градиент_2"/>
    <radialGradient id="Ѕезым_нный_градиент_2-90" cx="758" cy="898.29" r="1304.37" xlink:href="#Ѕезым_нный_градиент_2"/>
    <radialGradient id="Ѕезым_нный_градиент_2-91" cx="758" cy="898.29" r="1304.37" xlink:href="#Ѕезым_нный_градиент_2"/>
    <radialGradient id="Ѕезым_нный_градиент_2-92" cx="758" cy="898.29" r="1304.37" xlink:href="#Ѕезым_нный_градиент_2"/>
    <radialGradient id="Ѕезым_нный_градиент_2-93" cx="758" cy="898.29" r="1304.37" xlink:href="#Ѕезым_нный_градиент_2"/>
    <radialGradient id="Ѕезым_нный_градиент_2-94" cx="758" cy="898.29" r="1304.37" xlink:href="#Ѕезым_нный_градиент_2"/>
    <radialGradient id="Ѕезым_нный_градиент_2-95" cx="757.99" cy="898.29" r="1304.38" xlink:href="#Ѕезым_нный_градиент_2"/>
    <radialGradient id="Ѕезым_нный_градиент_2-96" cx="757.99" cy="898.29" r="1304.38" xlink:href="#Ѕезым_нный_градиент_2"/>
    <radialGradient id="Ѕезым_нный_градиент_2-97" cx="758" cy="898.29" r="1304.37" xlink:href="#Ѕезым_нный_градиент_2"/>
    <radialGradient id="Ѕезым_нный_градиент_2-98" cx="758" cy="898.29" r="1304.36" xlink:href="#Ѕезым_нный_градиент_2"/>
    <radialGradient id="Ѕезым_нный_градиент_2-99" cx="758" cy="898.29" r="1304.37" xlink:href="#Ѕезым_нный_градиент_2"/>
    <radialGradient id="Ѕезым_нный_градиент_2-100" cx="758" cy="898.29" r="1304.37" xlink:href="#Ѕезым_нный_градиент_2"/>
    <radialGradient id="Ѕезым_нный_градиент_2-101" cx="758" cy="898.29" r="1304.37" xlink:href="#Ѕезым_нный_градиент_2"/>
    <radialGradient id="Ѕезым_нный_градиент_2-102" cx="758" cy="898.29" r="1304.37" xlink:href="#Ѕезым_нный_градиент_2"/>
    <radialGradient id="Ѕезым_нный_градиент_2-103" cx="758" cy="898.29" r="1304.37" xlink:href="#Ѕезым_нный_градиент_2"/>
    <radialGradient id="Ѕезым_нный_градиент_2-104" cx="758" cy="898.29" r="1304.38" xlink:href="#Ѕезым_нный_градиент_2"/>
    <radialGradient id="Ѕезым_нный_градиент_2-105" cx="758" cy="898.29" r="1304.37" xlink:href="#Ѕезым_нный_градиент_2"/>
    <radialGradient id="Ѕезым_нный_градиент_2-106" cx="758" cy="898.29" r="1304.37" xlink:href="#Ѕезым_нный_градиент_2"/>
    <radialGradient id="Ѕезым_нный_градиент_2-107" cx="758" cy="898.29" r="1304.37" xlink:href="#Ѕезым_нный_градиент_2"/>
    <radialGradient id="Ѕезым_нный_градиент_2-108" cx="758" cy="898.29" r="1304.37" xlink:href="#Ѕезым_нный_градиент_2"/>
    <radialGradient id="Ѕезым_нный_градиент_2-109" cx="758" cy="898.29" r="1304.37" xlink:href="#Ѕезым_нный_градиент_2"/>
    <radialGradient id="Ѕезым_нный_градиент_2-110" cx="758" cy="898.29" r="1304.37" xlink:href="#Ѕезым_нный_градиент_2"/>
    <radialGradient id="Ѕезым_нный_градиент_2-111" cx="757.99" cy="898.29" r="1304.38" xlink:href="#Ѕезым_нный_градиент_2"/>
    <radialGradient id="Ѕезым_нный_градиент_2-112" cx="758" cy="898.29" r="1304.37" xlink:href="#Ѕезым_нный_градиент_2"/>
    <radialGradient id="Ѕезым_нный_градиент_2-113" cx="758" cy="898.29" r="1304.37" xlink:href="#Ѕезым_нный_градиент_2"/>
    <radialGradient id="Ѕезым_нный_градиент_2-114" cx="758" cy="898.29" r="1304.37" xlink:href="#Ѕезым_нный_градиент_2"/>
    <radialGradient id="Ѕезым_нный_градиент_2-115" cx="758" cy="898.29" r="1304.37" xlink:href="#Ѕезым_нный_градиент_2"/>
    <radialGradient id="Ѕезым_нный_градиент_2-116" cx="758" cy="898.29" r="1304.37" xlink:href="#Ѕезым_нный_градиент_2"/>
    <radialGradient id="Ѕезым_нный_градиент_2-117" cx="758" cy="898.29" r="1304.37" xlink:href="#Ѕезым_нный_градиент_2"/>
    <radialGradient id="Ѕезым_нный_градиент_2-118" cx="758" cy="898.29" r="1304.37" xlink:href="#Ѕезым_нный_градиент_2"/>
    <radialGradient id="Ѕезым_нный_градиент_2-119" cx="758" cy="898.29" r="1304.37" xlink:href="#Ѕезым_нный_градиент_2"/>
    <radialGradient id="Ѕезым_нный_градиент_2-120" cx="758" cy="898.29" r="1304.38" xlink:href="#Ѕезым_нный_градиент_2"/>
    <radialGradient id="Ѕезым_нный_градиент_2-121" cx="758" cy="898.29" r="1304.37" xlink:href="#Ѕезым_нный_градиент_2"/>
    <radialGradient id="Ѕезым_нный_градиент_2-122" cx="757.99" cy="898.29" r="1304.38" xlink:href="#Ѕезым_нный_градиент_2"/>
    <radialGradient id="Ѕезым_нный_градиент_2-123" cx="758" cy="898.29" r="1304.37" xlink:href="#Ѕезым_нный_градиент_2"/>
    <radialGradient id="Ѕезым_нный_градиент_2-124" cx="758" cy="898.29" r="1304.37" xlink:href="#Ѕезым_нный_градиент_2"/>
    <radialGradient id="Ѕезым_нный_градиент_2-125" cx="758" cy="898.29" r="1304.37" xlink:href="#Ѕезым_нный_градиент_2"/>
    <radialGradient id="Ѕезым_нный_градиент_2-126" cx="758" cy="898.29" r="1304.37" xlink:href="#Ѕезым_нный_градиент_2"/>
    <radialGradient id="Ѕезым_нный_градиент_2-127" cx="758" cy="898.29" r="1304.37" xlink:href="#Ѕезым_нный_градиент_2"/>
    <radialGradient id="Ѕезым_нный_градиент_2-128" cx="758" cy="898.29" r="1304.38" xlink:href="#Ѕезым_нный_градиент_2"/>
    <radialGradient id="Ѕезым_нный_градиент_2-129" cx="758" cy="898.29" r="1304.37" xlink:href="#Ѕезым_нный_градиент_2"/>
    <radialGradient id="Ѕезым_нный_градиент_2-130" cx="758" cy="898.29" r="1304.37" xlink:href="#Ѕезым_нный_градиент_2"/>
    <radialGradient id="Ѕезым_нный_градиент_2-131" cx="758" cy="898.3" r="1304.38" xlink:href="#Ѕезым_нный_градиент_2"/>
    <radialGradient id="Ѕезым_нный_градиент_2-133" cx="758" cy="898.29" r="1304.38" xlink:href="#Ѕезым_нный_градиент_2"/>
    <radialGradient id="Ѕезым_нный_градиент_2-134" cx="758" cy="898.29" r="1304.37" xlink:href="#Ѕезым_нный_градиент_2"/>
    <radialGradient id="Ѕезым_нный_градиент_2-135" cx="758" cy="898.29" r="1304.38" xlink:href="#Ѕезым_нный_градиент_2"/>
    <radialGradient id="Ѕезым_нный_градиент_2-136" cx="758" cy="898.29" r="1304.37" xlink:href="#Ѕезым_нный_градиент_2"/>
    <radialGradient id="Ѕезым_нный_градиент_2-137" cx="758" cy="898.29" r="1304.37" xlink:href="#Ѕезым_нный_градиент_2"/>
    <radialGradient id="Ѕезым_нный_градиент_2-138" cx="758" cy="898.29" r="1304.38" xlink:href="#Ѕезым_нный_градиент_2"/>
    <radialGradient id="Ѕезым_нный_градиент_2-139" cx="758" cy="898.29" r="1304.37" xlink:href="#Ѕезым_нный_градиент_2"/>
    <radialGradient id="Ѕезым_нный_градиент_2-140" cx="758" cy="898.29" r="1304.37" xlink:href="#Ѕезым_нный_градиент_2"/>
    <radialGradient id="Ѕезым_нный_градиент_2-141" cx="758" cy="898.29" r="1304.37" xlink:href="#Ѕезым_нный_градиент_2"/>
    <radialGradient id="Ѕезым_нный_градиент_2-142" cx="758" cy="898.29" r="1304.36" xlink:href="#Ѕезым_нный_градиент_2"/>
    <radialGradient id="Ѕезым_нный_градиент_2-143" cx="758" cy="898.29" r="1304.37" xlink:href="#Ѕезым_нный_градиент_2"/>
    <radialGradient id="Ѕезым_нный_градиент_2-144" cx="757.99" cy="898.29" r="1304.37" xlink:href="#Ѕезым_нный_градиент_2"/>
    <radialGradient id="Ѕезым_нный_градиент_2-145" cx="758" cy="898.29" r="1304.37" xlink:href="#Ѕезым_нный_градиент_2"/>
    <radialGradient id="Ѕезым_нный_градиент_2-146" cx="758" cy="898.29" r="1304.38" xlink:href="#Ѕезым_нный_градиент_2"/>
    <radialGradient id="Ѕезым_нный_градиент_2-147" cx="758" cy="898.29" r="1304.36" xlink:href="#Ѕезым_нный_градиент_2"/>
    <radialGradient id="Ѕезым_нный_градиент_2-148" cx="758" cy="898.29" r="1304.38" xlink:href="#Ѕезым_нный_градиент_2"/>
    <radialGradient id="Ѕезым_нный_градиент_2-149" cx="758" cy="898.29" r="1304.37" xlink:href="#Ѕезым_нный_градиент_2"/>
    <radialGradient id="Ѕезым_нный_градиент_2-150" cx="758" cy="898.29" r="1304.38" xlink:href="#Ѕезым_нный_градиент_2"/>
    <radialGradient id="Ѕезым_нный_градиент_2-151" cx="758" cy="898.29" r="1304.37" xlink:href="#Ѕезым_нный_градиент_2"/>
    <radialGradient id="Ѕезым_нный_градиент_2-152" cx="758" cy="898.29" r="1304.37" xlink:href="#Ѕезым_нный_градиент_2"/>
    <radialGradient id="Ѕезым_нный_градиент_2-153" cx="758" cy="898.29" r="1304.38" xlink:href="#Ѕезым_нный_градиент_2"/>
    <radialGradient id="Ѕезым_нный_градиент_2-154" cx="758" cy="898.29" r="1304.37" xlink:href="#Ѕезым_нный_градиент_2"/>
    <radialGradient id="Ѕезым_нный_градиент_2-155" cx="758" cy="898.29" r="1304.37" xlink:href="#Ѕезым_нный_градиент_2"/>
    <radialGradient id="Ѕезым_нный_градиент_2-156" cx="758" cy="898.29" r="1304.37" xlink:href="#Ѕезым_нный_градиент_2"/>
    <radialGradient id="Ѕезым_нный_градиент_2-157" cx="757.99" cy="898.29" r="1304.37" xlink:href="#Ѕезым_нный_градиент_2"/>
    <radialGradient id="Ѕезым_нный_градиент_2-158" cx="757.99" cy="898.29" r="1304.37" xlink:href="#Ѕезым_нный_градиент_2"/>
    <radialGradient id="Ѕезым_нный_градиент_2-159" cx="758" cy="898.29" r="1304.38" xlink:href="#Ѕезым_нный_градиент_2"/>
    <radialGradient id="Ѕезым_нный_градиент_2-160" cx="758" cy="898.29" r="1304.36" xlink:href="#Ѕезым_нный_градиент_2"/>
    <radialGradient id="Ѕезым_нный_градиент_2-161" cx="757.99" cy="898.29" r="1304.37" xlink:href="#Ѕезым_нный_градиент_2"/>
    <radialGradient id="Ѕезым_нный_градиент_2-162" cx="758" cy="898.29" r="1304.37" xlink:href="#Ѕезым_нный_градиент_2"/>
    <radialGradient id="Ѕезым_нный_градиент_2-163" cx="758" cy="898.29" r="1304.37" xlink:href="#Ѕезым_нный_градиент_2"/>
    <radialGradient id="Ѕезым_нный_градиент_2-164" cx="758" cy="898.29" r="1304.38" xlink:href="#Ѕезым_нный_градиент_2"/>
    <radialGradient id="Ѕезым_нный_градиент_2-165" cx="758" cy="898.29" r="1304.38" xlink:href="#Ѕезым_нный_градиент_2"/>
    <radialGradient id="Ѕезым_нный_градиент_2-166" cx="758" cy="898.29" r="1304.37" xlink:href="#Ѕезым_нный_градиент_2"/>
    <radialGradient id="Ѕезым_нный_градиент_2-167" cx="758" cy="898.29" r="1304.37" xlink:href="#Ѕезым_нный_градиент_2"/>
    <radialGradient id="Ѕезым_нный_градиент_2-168" cx="758" cy="898.29" r="1304.37" xlink:href="#Ѕезым_нный_градиент_2"/>
    <radialGradient id="Ѕезым_нный_градиент_2-169" cx="758" cy="898.29" r="1304.37" xlink:href="#Ѕезым_нный_градиент_2"/>
    <radialGradient id="Ѕезым_нный_градиент_2-170" cx="758" cy="898.29" r="1304.37" xlink:href="#Ѕезым_нный_градиент_2"/>
  </defs>
  <g class="cls-1">
    <g id="Слой_2" data-name="Слой 2">
      <g id="_лой_1" data-name="—лой_1">
        <g>
          <path class="cls-2" d="M798.44,366.27c2.84.1,5.66.2,8.5.37l-.1,1.8-1.32,25.61-.27,4.88L803.86,426l-2.24,42.79L779.7,891.2,757.78,468.79l-3.89-74.74-1.33-25.58-.1-1.86,5.56-.27q10.72-.4,21.55-.41C785.87,365.93,792.17,366,798.44,366.27Z"/>
          <path class="cls-3" d="M820.36,108.21,814,230.82l-.65,12.47-1.55,30.25-1,18.67c-3.25-.17-6.47-.34-9.72-.44l-.14,3.93q4.83.15,9.66.41l-2.54,48.68-.14,3q-4.41-.26-8.84-.41-20.94-.7-41.84.2c-1.93.07-3.83.14-5.76.27l-2.68-51.76-.2-3.93-1-18.67-3.53-68.2-5-97.1Z"/>
          <path class="cls-4" d="M757.24,347.6c-1.93.07-3.83.14-5.76.27-7,.34-14,.85-21,1.53l-4.71-51.67-.34-3.93-1.7-18.6L722.34,260l-2.47-27.34-2.34-25.58,26.56-1.76,7.26-.47,2.81,68.33.78,18.7.17,3.93Z"/>
          <path class="cls-5" d="M779.7,891.2,741.42,469.94l-6.78-74.53-2.3-25.48-.17-1.9c6.74-.61,13.52-1.08,20.29-1.42l5.56-.27.07,1.86,1,25.62,3.11,74.77Z"/>
          <path class="cls-6" d="M810.6,296.11q15,.75,29.92,2.33l-5,48.49-2.21,21.71L830.52,396l-.51,4.85-2.77,26.93-4.38,42.69L779.7,891.2l15.08-422.71,1.52-42.83,1-27.1.17-4.85.91-25.68.07-1.76c2.84.1,5.66.2,8.5.37l1-18.83q-4.41-.26-8.84-.41l.14-3,1.72-48.72Q805.77,295.85,810.6,296.11Z"/>
          <path class="cls-7" d="M847.22,233.09l-1.28,12.71L842.82,276l-1.9,18.56c-10-1.05-20-1.79-30.12-2.3-3.25-.17-6.47-.34-9.72-.44l.68-18.7,1.08-30.26.44-12.73,10.71.74Z"/>
          <polygon class="cls-8" points="779.7 891.2 1012.39 254.78 1043.9 267.21 779.7 891.2"/>
          <path class="cls-9" d="M998.83,480q5.24,2.74,10.37,5.69L779.7,891.2,972.14,466.89q9.24,4.17,18.22,8.74C993.21,477.06,996,478.55,998.83,480Z"/>
          <path class="cls-10" d="M1060.22,395.58l-11,19.38-1.43,2.54-10.16,17.95-15.11,26.7c-3.62-2.07-7.28-4.07-10.94-6-3-1.59-6-3.15-9-4.68q-9.55-4.87-19.28-9.25l9.42-20.7,3.28-7.25,8.51-18.76,1.22-2.68,9.18-20.26,22,11.18Z"/>
          <polygon class="cls-11" points="779.7 891.2 906.38 277.73 1000.75 305.08 779.7 891.2"/>
          <path class="cls-12" d="M1151.19,522.42,1133,540.48l-3.46,3.42L1110.3,563l-30.39,30.22L779.7,891.2l282.86-314.61,28.63-31.84,18.09-20.13,3.32-3.66,17.08-19c1.15,1,2.3,2.06,3.45,3.12C1139.3,510.73,1145.33,516.53,1151.19,522.42Z"/>
          <path class="cls-13" d="M1415.59,259.92,1249,425.29l-8.91,8.84-10.6,10.5-11,10.91-13.21,13.15-2.82,2.81L1168,505.72l-2.24,2.17q-9.09-9.19-18.7-18c-.85-.78-1.73-1.56-2.57-2.34-.34-.34-.72-.64-1-.95l2.06-2.3L1178,448.23l15.11-16.84,10.37-11.52,10-11.11,8.34-9.32,157-174.55Z"/>
          <path class="cls-14" d="M1171.86,544.51l-19.18,17-3.66,3.26-20.29,17.92-32.12,28.39L779.7,891.2l306.07-292,31-29.58,19.62-18.7,3.52-3.36,18.53-17.68Q1165.36,537.08,1171.86,544.51Z"/>
          <path class="cls-15" d="M1314.76,418.21l-39.6,35-9.36,8.3-11.21,9.89L1243,481.63,1229,494l-2.92,2.58-36.42,32.18-2.33,2.07c-4.51-5.15-9.19-10.2-14-15.18l2.27-2.17L1210.78,480l2.82-2.71,13.51-12.91,11.22-10.67,10.81-10.3,9.08-8.64,38.21-36.49Z"/>
          <path class="cls-16" d="M1208.68,588.38l-1.32,1-21,14.81c-2-2.78-4-5.52-6-8.27-7.35-10-15.08-19.65-23.07-29l19.44-16.7,1.29-1.09Q1194.35,568,1208.68,588.38Z"/>
          <path class="cls-17" d="M1392.21,458.86l-72.27,51-22.42,15.86-12.61,8.87-15.31,10.85-3.15,2.2-42.25,29.81q-14.84-21.09-31.74-40.72l2.37-2L1231.69,503l3-2.54,14.23-12.2,11.68-10.06,11.35-9.72,9.49-8.17,67.08-57.59Z"/>
          <path class="cls-18" d="M1137.61,665.9q1.11,1.68,2.13,3.36L779.7,891.2l349.94-237.53c2.75,4,5.42,8.1,8,12.2Z"/>
          <path class="cls-19" d="M1239.28,607.9l-12.61,7.79-1.42.85L1203.43,630c-.81-1.32-1.62-2.64-2.5-4-3-4.84-6.14-9.62-9.39-14.36l21.24-14.43,1.39-.92c3.39,5,6.68,10.06,9.86,15.18l12.47-7.86Z"/>
          <path class="cls-20" d="M469.1,356.31c-2.27,1.32-4.54,2.68-6.81,4-2.44,1.46-4.85,2.92-7.25,4.41l-8-13-8-13-6.37-10.33,0,0-31-50.24L464,243.83l8.91,18.3,17,34.76,5.36,11,6.67,13.69,6.67,13.72Q488.49,345,469.1,356.31Z"/>
          <path class="cls-21" d="M779.7,891.2l-222-360-22.53-36.56L520.9,471.57l-2.48-4.07-26-42.21-15.31-24.83L466.93,384c2.3-1.45,4.64-2.88,7-4.23,2.16-1.36,4.37-2.64,6.57-3.9,12.43-7.25,25.14-14,38-20.29l21.28,43.6,1.49,3.05,9,18.53,11.18,23L594.28,511Z"/>
          <polygon class="cls-22" points="779.7 891.2 439.69 425.3 482.02 397.18 779.7 891.2"/>
          <polygon class="cls-23" points="779.7 891.2 443.78 499.08 483.96 467.95 779.7 891.2"/>
          <polygon class="cls-24" points="779.7 891.2 366.04 456.52 388.66 436.06 779.7 891.2"/>
          <path class="cls-25" d="M295.12,800.64l26.67,5a8.72,8.72,0,0,0-.24,1.32c-.14.58-.24,1.15-.34,1.76-2.07,11.35-3.69,22.84-4.88,34.39l-27-2.78-4.81-.51-24.25-2.5-20.53-2.14L187,829.67l-22.49-2.33-6.1-.61-.85-.1,6.2-42.63.51-3.52.61-4.17,6.85,1.29L189.89,781l4.1.78,52,9.69,20.29,3.79,24.06,4.51Z"/>
          <path class="cls-26" d="M779.7,891.2,359,847.53c1.05-10.44,2.54-20.87,4.4-31.24.1-.54.2-1,.31-1.59s.13-.81.2-1.19Z"/>
          <path class="cls-27" d="M299.09,781.63l26.39,6c-.71,3.12-1.39,6.23-2,9.38-.31,1.56-.65,3.09-.92,4.65-.27,1.32-.54,2.64-.74,4a8.72,8.72,0,0,0-.24,1.32c-.14.58-.24,1.15-.34,1.76l-26.66-4.77-4.81-.88-24.09-4.34-20.29-3.66-52.08-9.35-22.29-4-6.71-1.22h-.07L155.88,779l-27.07-4.85L57,761.17,63.73,728l55.49,12.67,15.72,3.56,26.77,6.09,15,3.43,18.05,4.13,4,.91,51.53,11.76,20.09,4.57,23.92,5.46Z"/>
          <path class="cls-28" d="M779.7,891.2,363.39,816.29c.1-.54.2-1,.31-1.59s.13-.81.2-1.19c.24-1.22.47-2.44.71-3.62.27-1.39.54-2.81.81-4.2.61-2.85,1.22-5.66,1.87-8.51Z"/>
          <path class="cls-29" d="M314.37,869.52q-.51,10.82-.51,21.68,0,12.81.68,25.51c.13,2,.23,4,.37,6l-27,1.83-4.84.34-24.12,1.62-20.6,1.39-4.51.31-48.51,3.28L162.69,933l-15.42,1-14.9,1-12.4.85h-.07l-40,2.71V843.77l75.75,5.15,7,.47,22.6,1.53,52.95,3.59,20.57,1.39L283,857.52l4.84.34,27,1.83c-.1,1.76-.2,3.49-.31,5.25C314.5,866.47,314.44,868,314.37,869.52Z"/>
          <path class="cls-30" d="M779.7,891.2l-422,28.59c-.17-1.79-.27-3.59-.34-5.42a402.92,402.92,0,0,1-.23-42.85c.07-1.39.13-2.78.23-4.17.07-1.59.17-3.19.31-4.74Z"/>
          <path class="cls-31" d="M288.75,847l27,2.44c-.34,3.42-.61,6.84-.85,10.26-.1,1.76-.2,3.49-.31,5.25l-27.06-1.52-4.85-.27-24.29-1.39-20.6-1.15-53-3-22.6-1.29-7.45-.41L79.89,851.7l-8.37-.48,1.73-23.65,84.12,7.59,6.34.55v0l22.56,2,52.82,4.77,20.53,1.83,24.26,2.21Z"/>
          <path class="cls-32" d="M779.7,891.2,357.39,867.35c.07-1.59.17-3.19.31-4.74q.3-4.68.71-9.36Z"/>
          <path class="cls-33" d="M322.94,983q-3.56-17.58-5.66-35.4c-.34-2.51-.61-5-.88-7.49l-27,2.85-4.77.51-24,2.54-20.56,2.16-4.51.48-48.34,5.11-22.5,2.38-15.35,1.62-14.9,1.56-12.37,1.29,0,0L0,973.53l12.7,80.33,95.14-20.2,24.93-5.25,12.13-2.57,14.71-3.12,15.17-3.25,18-3.8c-.44-2.06-.88-4.16-1.29-6.23-3-15-5.45-30.26-7.31-45.57-.34-2.78-.65-5.52-.95-8.3l4.2-.44c.27,2.74.61,5.49,1,8.23,1.86,15.11,4.3,30.22,7.38,45.23.37,2.07.78,4.14,1.26,6.2l47.39-10.06,4.61-1,16.67-3.53h0l3.46-.74,23.58-5,4.67-1,26.53-5.62C323.58,986.27,323.24,984.64,322.94,983Z"/>
          <path class="cls-34" d="M779.7,891.2,365.93,979c-.34-1.46-.61-2.92-.91-4.37-2.14-10.64-3.86-21.38-5.19-32.15-.27-2.27-.54-4.54-.74-6.81Z"/>
          <path class="cls-35" d="M198,1038.3l-17.75,4.51-15.11,3.79-14.57,3.7-12,3-24.8,6.26-5.89-25.95-1.59-7.08,25.1-5,12.2-2.44,14.7-3,15.21-3.05,18-3.62c.41,2.07.85,4.17,1.29,6.23C194.33,1023.26,196.09,1030.82,198,1038.3Z"/>
          <path class="cls-36" d="M328,1005.44l-26.25,6.64-4.61,1.15L270.26,1020l-21.11,5.32-47,11.89q-2.83-11.18-5.21-22.46c-.48-2.06-.89-4.13-1.26-6.2l47.5-9.55,4.57-.92,16.74-3.35,3.49-.71,23.61-4.75,4.71-.94,26.6-5.36c.3,1.63.64,3.26,1,4.85C325.18,993.75,326.5,999.61,328,1005.44Z"/>
          <path class="cls-37" d="M779.7,891.2,369.63,994.9c-1.36-5.28-2.58-10.6-3.7-15.95-.34-1.46-.61-2.92-.91-4.37Z"/>
          <path class="cls-38" d="M317.28,947.61l-26.93,3.29-4.78.61-24,2.91-3.45.41-17,2.1-4.54.54-48.21,5.89c-.34-2.74-.68-5.49-1-8.23l-4.2.44c.3,2.78.61,5.52.95,8.3l-18.3,2.24L150.53,968l-14.88,1.83-12.33,1.49-.3,0-1-10.67-.14-1.62v0l-1.66-19-.07-.64-.3-3.46-.75-8.47h.31l12.43-.71,14.91-.81,15.38-.85,22.63-1.22,48.55-2.68,4.51-.23,20.6-1.16,24.19-1.32,4.81-.27,27.07-1.49c.13,2,.23,4,.37,6,.41,5.82.88,11.62,1.49,17.41C316.67,942.63,316.94,945.1,317.28,947.61Z"/>
          <path class="cls-39" d="M779.7,891.2,359.83,942.43c-.27-2.27-.54-4.54-.74-6.81-.58-5.29-1-10.54-1.36-15.83-.17-1.79-.27-3.59-.34-5.42Z"/>
          <path class="cls-40" d="M301.26,772.38l26.29,6.51c-.34,1.39-.68,2.81-1,4.23,0,.21-.1.41-.14.65-.3,1.29-.6,2.57-.91,3.86-.71,3.12-1.39,6.23-2,9.38-.31,1.56-.65,3.09-.92,4.65l-26.59-5.22-4.78-1-24-4.71-20.23-4L195,776.65l-4-.78-18.19-3.55-7.36-1.46-7.75-1.52-27-5.29-16-3.12,4.5-20.29,2.85-12.77,15.82,3.93,26.66,6.64,14.94,3.69,22,5.45,51.26,12.74,20,4.95,6.06,1.52,17.76,4.41Z"/>
          <path class="cls-41" d="M779.7,891.2,364.61,809.89c.27-1.39.54-2.81.81-4.2.61-2.85,1.22-5.66,1.87-8.51.27-1.18.54-2.33.81-3.52,0-.2.1-.41.14-.61.3-1.29.61-2.54.91-3.83Z"/>
          <path class="cls-42" d="M318,718.48,343.33,728c-1.38,3.69-2.71,7.38-4,11.11-1.08,3-2.07,6.07-3.05,9.11-2.06,6.41-4,12.84-5.79,19.35l-26.09-7.18L299.73,759l-17.31-4.75-6.4-1.76L256.13,747l-4.07-1.12L230.65,740l7.59-23.48,8.06-24.87,20.77,7.76,3.86,1.46,19.32,7.21,23.14,8.68Z"/>
          <path class="cls-43" d="M779.7,891.2,371.9,778.92c1.59-5.89,3.35-11.75,5.21-17.58.88-2.74,1.8-5.52,2.78-8.27q1.73-5,3.59-10.06Z"/>
          <path class="cls-44" d="M296.89,791.53,323.45,797c-.31,1.56-.65,3.09-.92,4.65-.27,1.32-.54,2.64-.74,4a8.72,8.72,0,0,0-.24,1.32c-.14.58-.24,1.15-.34,1.76-2.07,11.35-3.69,22.84-4.88,34.39-.2,2.1-.4,4.2-.57,6.34-.34,3.42-.61,6.84-.85,10.26-.1,1.76-.2,3.49-.31,5.25-.1,1.53-.16,3-.23,4.58l-27.07-1.29-4.88-.2-24.26-1.16-20.6-.94-53.05-2.48-22.6-1.05L154,862l.78-6.1.88-7,1.73-13.76,1-8.43L163.77,784l.44-3.52,1.22-9.62.78-6.3,7.79,1.59,18.23,3.79,3.93.78L248,781.43l20.2,4.17,24,4.94Z"/>
          <path class="cls-45" d="M779.7,891.2,357.16,871.52c.07-1.39.13-2.78.23-4.17.07-1.59.17-3.19.31-4.74q.3-4.68.71-9.36c.17-1.89.37-3.82.58-5.72,1.05-10.44,2.54-20.87,4.4-31.24.1-.54.2-1,.31-1.59s.13-.81.2-1.19c.24-1.22.47-2.44.71-3.62.27-1.39.54-2.81.81-4.2Z"/>
          <path class="cls-46" d="M256,507.79v0c-7.21,9.86-14.19,20-20.83,30.29l-10.23-6.61-197-127.76L56.71,361.9,246.17,500.6Z"/>
          <path class="cls-47" d="M779.7,891.2,388.8,637.75,366.07,623l-25-16.23-2.2-1.42-15.11-9.79-3.32-2.17-44.11-28.56L248,546.44q9.77-15.13,20.37-29.61l27.34,20,42.35,31,3.21,2.34,14.57,10.67,2.07,1.53L381.92,600l21.89,16Z"/>
          <path class="cls-48" d="M279.07,478.17c-5.26,6.31-10.34,12.74-15.32,19.28L254,490,212,458l16.84-21.21,40.83,33.68Z"/>
          <path class="cls-49" d="M779.7,891.2,409.33,608.58l-21.51-16.43L362.07,572.5l-17.52-13.39-41.74-31.84L275.88,506.7c4.88-6.37,9.83-12.64,14.94-18.8L317,509.45l40.48,33.43,17,14,25,20.57,20.9,17.24Z"/>
          <path class="cls-50" d="M327.07,426Q305,447.54,285,471l-9.32-7.9-67.42-57.29,48.58-52,61.7,63.42Z"/>
          <path class="cls-51" d="M779.7,891.2,424.61,589.57,404,572.05l-24.67-20.93-16.8-14.3-40-34-25.85-21.92q19.52-23,41.09-43.94l23.62,24.29L398,498.88l15.38,15.82,22.53,23.17,18.91,19.41Z"/>
          <path class="cls-52" d="M405.64,1212.48l-3.59,3.08L384,1231l-2.84,2.48-12.77,11-3.8,3.26-22.26,19.11-17.72,15.21-25.91,22.26L287.5,1314l-9.65,8.27-44.52,38.25-43.64-56.21,16.67-11.65,31.37-22,10.4-7.25,12.13-8.5,28-19.62,43.13-30.22,4-2.81,13.86-9.69,3-2.14,19.62-13.72,3.86-2.71q12.09,17.33,25.51,33.37c.31.41.68.85,1.05,1.26C403.4,1209.9,404.49,1211.19,405.64,1212.48Z"/>
          <path class="cls-53" d="M779.7,891.2,458.86,1166.78l-32.66,28c-1.05-1.22-2.1-2.41-3.11-3.63l-1-1.22q-12.66-15.2-24.05-31.54l35.2-24.66Z"/>
          <path class="cls-54" d="M431.73,1240.7l-3.29,3.29-12.74,12.8-3.93,4-2.74,2.71-11.83,11.89-3.55,3.59-20.91,21-30.39-33.06-4-4.38,22.63-19,3.8-3.18,12.9-10.88,2.88-2.4,18.2-15.31,3.62-3.05c1,1.28,2.14,2.57,3.29,3.86q9.15,10.77,19,21C427,1235.89,429.32,1238.29,431.73,1240.7Z"/>
          <path class="cls-55" d="M779.7,891.2,481.26,1191l-30.39,30.49c-2.27-2.24-4.51-4.54-6.71-6.85-6.2-6.4-12.16-13-18-19.78-1.05-1.22-2.1-2.41-3.11-3.63l33-27.74Z"/>
          <path class="cls-56" d="M460,1266.72l-3,3.59-12,14-29.27-27.55-7.76-7.28,13.32-12.84,3.35-3.22c2.34,2.44,4.71,4.84,7.12,7.25Q445.35,1254.28,460,1266.72Z"/>
          <path class="cls-57" d="M779.7,891.2,505.45,1213.33l-27.92,32.76q-13.81-11.74-26.66-24.63c-2.27-2.24-4.51-4.54-6.71-6.85l31-29.88Z"/>
          <path class="cls-58" d="M480,1283l-2.84,3.69-14.3,18.7-2.37,3.09-10.16,13.31-32.6,42.59-2.54,3.32-.1.13-6.27-5-.44-.37-7.08-5.69-1.93-1.56-8-6.47.1-.14,2.71-3.15,31.44-37.06,3.29-3.86,1.42-1.7,9.39-11,2.54-3,15.24-18,3-3.56c5.45,4.68,11,9.19,16.7,13.56C478.11,1281.52,479.06,1282.24,480,1283Z"/>
          <path class="cls-59" d="M779.7,891.2l-257.08,336-26.15,34.18c-.91-.68-1.8-1.35-2.68-2.07q-8-6.19-15.75-12.8l27.85-32.83Z"/>
          <path class="cls-60" d="M770,1356.94c-1.05,0-2.1,0-3.15-.07l1.18-42.62,11.69-423,22.7,422.58,2.27,42.58c-8.3.48-16.6.68-25,.68C776.45,1357,773.2,1357,770,1356.94Z"/>
          <path class="cls-61" d="M767.17,1490.87c-1.36,0-2.71,0-4-.11l.1-4.13v0l1.35-48.48.14-5,.47-16.81.1-3.82.65-23.35.13-5.15,3.32.1q5.13.11,10.3.11,13.26,0,26.43-.75l.27,5.15,1.46,27.17,1.18,21.82,2.61,48.48.2,4.1c-10.7.61-21.48.88-32.28.88C775.43,1491,771.3,1491,767.17,1490.87Z"/>
          <path class="cls-62" d="M813.24,1515.77l-43.87.54-2.75,0-4.2.07.21-7.18c1.39.07,2.78.1,4.16.1,4.41.14,8.81.17,13.22.17q16.41,0,32.86-.88l.34,6.3Z"/>
          <path class="cls-63" d="M762.63,1509.23c1.39.07,2.78.1,4.16.1l-.17,7v.07l-.47,23.45-1.8,85.54-33.84-1.49,3.83-56.81,1.89-28.57,2.07-30.45c4.2.3,8.44.54,12.67.71,2.1.13,4.17.2,6.27.27C759,1509.16,760.83,1509.2,762.63,1509.23Z"/>
          <path class="cls-64" d="M769.4,1384l-.1,5.12-.51,23.38-.06,3.83-.34,16.8-.14,5-1,48.48-.1,4.17c-1.36,0-2.71,0-4-.11-1.77,0-3.53-.06-5.26-.13-2-.07-4.06-.17-6.06-.27-4.1-.17-8.2-.41-12.3-.68l.27-4.17L743,1437.1l.34-5,1.12-16.74.27-3.86,1.56-23.35.34-5.08c3.35.21,6.74.41,10.13.54,1.66.11,3.32.17,5,.21,1.42.06,2.88.1,4.3.13Z"/>
          <path class="cls-46" d="M779.7,891.2l-8.84,423.12-.88,42.62c-1.05,0-2.1,0-3.15-.07-1.36,0-2.71-.06-4.07-.13-1.56-.07-3.15-.1-4.71-.21q-4.83-.19-9.55-.5l2.85-42.59Z"/>
          <path class="cls-65" d="M936,1575l-85.88,13.58-7.83,1.25-4.71-52.41-2.06-23.17-.65-7.18c2.34-.21,4.64-.41,7-.65,2-.2,4-.4,6.06-.64,6.47-.71,13-1.56,19.45-2.47L864.74,1485q-9.4,1.32-18.87,2.37l-5.9.61c-2.23.24-4.47.44-6.74.61l-.37-4.13-4.3-48.35-2-21.75-2.44-27.1-.44-5.09c1.87-.16,3.69-.33,5.52-.54,1.63-.13,3.26-.3,4.85-.47l-3-26.94h0c-1.49.14-3,.31-4.54.44-1.72.21-3.49.38-5.25.51l-3.79-42.48L779.7,891.2,874,1303.75l9.52,41.67,6,26.43,1.12,4.84,6.1,26.7,4.84,21.14,11.79,51.56,10.88,47.54,2.78,12.26Z"/>
          <path class="cls-66" d="M821.27,1355.21c-3.39.31-6.84.58-10.26.82l-2.88-42.59L779.7,891.2l42.52,421.09,4.3,42.41C824.8,1354.91,823,1355.08,821.27,1355.21Z"/>
          <path class="cls-67" d="M833.23,1488.63q-6.6.61-13.21,1l-.27-4.14-3.29-48.41L815,1415.32l-1.82-27.18-.34-5.08c3.62-.24,7.25-.51,10.87-.85,1.87-.16,3.69-.33,5.52-.54l.51,5.12,2.75,27.07,2.2,21.68,4.88,48.31.4,4.17C837.74,1488.26,835.5,1488.46,833.23,1488.63Z"/>
          <path class="cls-68" d="M851,1596.94l-23.61,2-4.06-60.41-1.6-23.85-.47-6.54c4.57-.3,9.11-.64,13.65-1.08,2.34-.21,4.64-.41,7-.65l.78,7.63,2.27,22.66,5.25,51.87Z"/>
          <polygon class="cls-69" points="779.7 891.2 1060.33 1623.31 983 1648.43 779.7 891.2"/>
          <polygon class="cls-70" points="779.7 891.2 1050.24 1522.63 1018.78 1535.2 779.7 891.2"/>
          <polygon class="cls-71" points="779.7 891.2 961.58 1527.26 918.85 1537.95 779.7 891.2"/>
          <path class="cls-72" d="M751,1508.79c2.1.13,4.17.2,6.27.27l-.3,7.66-.82,22.87-1,28.79-20.73-1.28-13.08-.82,1.39-16.19,1.08-12.47,1.29-14.91,1.36-15.55c4,.34,7.92.65,11.92.92C742.5,1508.38,746.74,1508.62,751,1508.79Z"/>
          <path class="cls-73" d="M761.78,1383.81l-.17,5.15-.85,23.34-.17,3.83-.61,16.8-.16,5-1.77,48.48-.17,4.17c-2-.07-4.06-.17-6.06-.27-4.1-.17-8.2-.41-12.3-.68-3.86-.24-7.72-.51-11.55-.85l.37-4.2,4.17-48.31.44-5,1.46-16.74.3-3.83,2-23.34.44-5.08c3.15.3,6.31.54,9.49.74,3.35.21,6.74.41,10.13.54C758.46,1383.71,760.12,1383.77,761.78,1383.81Z"/>
          <path class="cls-74" d="M779.7,891.2l-15.38,422.92-1.56,42.62c-1.56-.07-3.15-.1-4.71-.21q-4.83-.19-9.55-.5c-3-.21-6-.44-9-.72l3.69-42.51Z"/>
          <path class="cls-75" d="M681.32,1374.32c14.29,2.91,28.83,5.18,43.5,6.78l-.58,5-2.61,23.31-.44,3.83L719.33,1430l-.58,5-2.47,22.16-31.44-5-18.77-3,5.46-26.73,3.35-16.46.74-3.8,4.71-23.07Z"/>
          <path class="cls-76" d="M779.7,891.2l-47.12,420.55-4.75,42.45c-13.85-1.53-27.58-3.66-41.09-6.41l8.53-41.94Z"/>
          <path class="cls-77" d="M762.76,1356.74c-1.56-.07-3.15-.1-4.71-.21l2-42.58L779.7,891.2l46.65,420.61h0l4.67,42.45c-1.49.14-3,.31-4.54.44-1.72.21-3.49.38-5.25.51-3.39.31-6.84.58-10.26.82-2.1.13-4.2.23-6.34.33-8.3.48-16.6.68-25,.68-3.25,0-6.5,0-9.72-.1-1.05,0-2.1,0-3.15-.07C765.47,1356.84,764.12,1356.81,762.76,1356.74Z"/>
          <path class="cls-78" d="M757.88,1490.63c-2-.07-4.06-.17-6.06-.27l.2-4.17,2.27-48.45.24-5,.78-16.84.17-3.79,1.08-23.35.24-5.15c1.66.11,3.32.17,5,.21,1.42.06,2.88.1,4.3.13l3.32.1q5.13.11,10.3.11,13.26,0,26.43-.75c2.23-.07,4.47-.2,6.71-.34,3.62-.24,7.25-.51,10.87-.85,1.87-.16,3.69-.33,5.52-.54,1.63-.13,3.26-.3,4.85-.47l.54,5,3,27.07L840,1435l5.35,48.24.48,4.17-5.9.61c-2.23.24-4.47.44-6.74.61q-6.6.61-13.21,1c-2.71.2-5.42.37-8.17.47-10.7.61-21.48.88-32.28.88-4.14,0-8.27,0-12.4-.13-1.36,0-2.71,0-4-.11C761.37,1490.73,759.61,1490.7,757.88,1490.63Z"/>
          <path class="cls-79" d="M848.78,1513.8l-6.16.21-7.08.2-13.83.44-8.5.27-43.84,1.39-2.75.1-9.68.31-6.34.2.37-8.13c2.1.13,4.17.2,6.27.27,1.8.1,3.59.14,5.39.17,1.39.07,2.78.1,4.16.1,4.41.14,8.81.17,13.22.17q16.41,0,32.86-.88c2.78-.14,5.59-.31,8.37-.51,4.57-.3,9.11-.64,13.65-1.08,2.34-.21,4.64-.41,7-.65,2-.2,4-.4,6.06-.64Z"/>
          <path class="cls-80" d="M579.41,1341.93l-1.9,4.27-9.62,21.68-8.4,18.87-21.65,48.76-9.18,20.66-6.31,14.13-11.11,25.07L415.84,1710l-45.84-22,107.4-208.9,12.53-24.4,7.08-13.72,10.34-20.12,24.42-47.53,9.42-18.33,13-25.24c2,1.08,4,2.1,6.06,3.08C566.57,1336.07,572.94,1339.09,579.41,1341.93Z"/>
          <path class="cls-81" d="M779.7,891.2,607.9,1277.8l-17.48,39.33c-6.1-2.67-12.17-5.52-18.16-8.5-1.9-1-3.8-1.9-5.69-2.88Z"/>
          <path class="cls-82" d="M545.49,1325.3,532,1350.23l-9.79,18.13-25.41,47.06v0l-10.74,19.89-7.32,13.58-13,24.16L440.6,1519.7,417,1506.38l26.9-45.63,13.92-23.62,7.86-13.31,11.49-19.52,27.17-46,10.47-17.78,14.4-24.4C534.55,1319.3,540,1322.35,545.49,1325.3Z"/>
          <path class="cls-83" d="M779.7,891.2,558.37,1301.45c-5.19-2.82-10.34-5.7-15.42-8.71Z"/>
          <path class="cls-84" d="M523.1,1312.46l-14.7,24.15-10.71,17.62-27.85,45.7-11.76,19.32L450,1432.46l-14.26,23.44-46,75.59-59-39.84,52.92-70.78,16.43-22,9.35-12.46,11-14.74,2.54-3.42,32.08-42.89,10-13.42,2.34-3.12,16.87-22.6Q503.09,1300.31,523.1,1312.46Z"/>
          <path class="cls-85" d="M779.7,891.2,537.23,1289.32q-18.91-11.53-36.66-24.8Z"/>
          <path class="cls-86" d="M477.19,1280.75l-2.88,3.69L459.88,1303l-2.37,3.08-8.95,11.49-18.26-14.88-.13-.1,9.38-11.08,2.54-3,15.25-17.92,3-3.56s.11.07.14.1C465.94,1271.87,471.53,1276.38,477.19,1280.75Z"/>
          <path class="cls-87" d="M779.7,891.2,520.22,1225.32l-26.43,34q-8-6.19-15.75-12.8l-.1-.1,27.85-32.83Z"/>
          <polygon class="cls-88" points="779.7 891.2 1328.69 1357.42 1280.02 1409.31 779.7 891.2"/>
          <path class="cls-89" d="M1247,1229.22l-27.89,35.16-3.69,4.68-25.78-22.36-15.55-13.49-18.26-15.82-56.55-49L779.7,891.2l342.79,247.93,34.66,25.07c-1.83,2.61-3.76,5.18-5.69,7.72-4.91,6.54-10.06,12.95-15.35,19.25l20.74,17.48q8.43-10,16.26-20.4c2-2.71,4.07-5.42,6-8.16l4,2.91,14.6,10.57,5,3.63,16.7,12.06Z"/>
          <path class="cls-90" d="M1177.28,1134c-2.2,3.6-4.44,7.15-6.74,10.68-4.27,6.6-8.71,13.11-13.39,19.51-1.83,2.61-3.76,5.18-5.69,7.72l-34.15-25.78L779.7,891.2Z"/>
          <path class="cls-91" d="M1220.34,1160.34l-22.6,33.23-6,8.78-14.71-11.11-4-3c2-2.71,4.07-5.42,6-8.16,4.91-6.78,9.62-13.65,14.13-20.67,2.47-3.72,4.81-7.48,7.11-11.28Z"/>
          <path class="cls-92" d="M1189.41,1112.91c-.55,1-1.05,2-1.6,2.94q-4.92,8.89-10.19,17.59L779.7,891.2Z"/>
          <path class="cls-93" d="M1307.44,1176.77l-15.18,26.46-.23-.17-3.53-2.1-45.16-27.51-2.5-1.53-12.51-7.62-2.6-1.59-25-15.18c3.76-6.13,7.35-12.36,10.8-18.63.58-1.05,1.12-2.07,1.66-3.12l25.75,14,2.68,1.42,15.48,8.37,46.45,25.14,3.63,2Z"/>
          <path class="cls-94" d="M1241.31,828c.14,1,.27,2.06.41,3.11l-42.62,5.56L779.7,891.2l413.57-88.46,42-9C1237.75,805,1239.75,816.46,1241.31,828Z"/>
          <path class="cls-95" d="M1300,819.92c.16,1.15.3,2.3.47,3.49l-27.1,3.52-4.78.64c-.1-1.11-.24-2.2-.41-3.28q-2.43-18.25-6.3-36.19v0l4.61-1,26.73-5.69Q1297.29,800.5,1300,819.92Z"/>
          <path class="cls-96" d="M1399.93,810.46l-25.61,3.32-52.07,6.78c-.14-1.22-.31-2.4-.48-3.62q-2.74-20.24-7-40.19l47.47-10.13q3.66,17.28,6.37,34.83l3.89-.61q-2.68-17.62-6.44-35l18.27-3.93,6.2-1.32.81-.17,7.55,43.91.34,2Z"/>
          <path class="cls-97" d="M1242.77,839.77c.34,3.19.64,6.37,1,9.55l-42.79,3.87-421.23,38,419.06-57.39,42.55-5.86c.14,1,.27,2.06.41,3.11.17,1.36.34,2.68.47,4C1242.39,836.65,1242.56,838.21,1242.77,839.77Z"/>
          <path class="cls-98" d="M1302.7,844l-2.2.2-25,2.27-4.74.45c-.34-3.39-.65-6.75-1-10.1-.2-1.66-.37-3.32-.61-5-.13-1.42-.3-2.85-.54-4.24-.1-1.11-.24-2.2-.41-3.28l4.75-.65,27.07-3.72c.16,1.15.3,2.3.47,3.49.2,1.49.37,3,.58,4.54l.61,5.28c.27,2.61.54,5.25.81,7.86C1302.53,842,1302.6,843,1302.7,844Z"/>
          <path class="cls-99" d="M1511.09,825.17l-56.71,5.11-28.53,2.58-48.95,4.44L1324.62,842c-.34-3.76-.71-7.49-1.12-11.22-.2-1.83-.4-3.66-.64-5.49-.17-1.55-.37-3.15-.61-4.74-.14-1.22-.31-2.4-.48-3.62l52-7.12,25.44-3.49h0l23.24-3.18,84.76-11.62Z"/>
          <path class="cls-100" d="M1357.38,745.86l-47,11.85c-.51-2-1-4-1.56-6-.44-1.76-.92-3.49-1.39-5.22l-21.35,5.86c.48,1.66.92,3.32,1.36,5,.51,1.93,1,3.86,1.49,5.76l-26.49,6.64-4.54,1.15c-.44-1.79-.92-3.59-1.43-5.38-.37-1.56-.78-3.12-1.25-4.68q-6-22-14.09-43.47l-25.34,9.56q7.62,20.28,13.31,41.06c.41,1.49.81,2.95,1.15,4.44.48,1.69.92,3.39,1.36,5.08L1189.85,788,779.7,891.2l392.5-157.57v0l69.42-27.85,25.3-10.16,20.64-8.3,45-18.06c1,2.37,1.9,4.74,2.82,7.12a593.31,593.31,0,0,1,18.83,57.35q.81,2.8,1.53,5.66C1356.3,741.52,1356.84,743.69,1357.38,745.86Z"/>
          <path class="cls-101" d="M1459.9,720.07l-51,12.84-22.6,5.7-7,1.72-18.12,4.58c-.55-2.17-1.12-4.37-1.7-6.54-.47-1.9-1-3.8-1.52-5.73q-8.09-29.31-19-57.69c-.92-2.37-1.87-4.78-2.82-7.15l17.42-7,14.26-5.73,14.06-5.62,11.42-4.61.14,0,37.19-14.94,26.87,82.67Z"/>
          <path class="cls-102" d="M1231.59,777.5c.81,3.35,1.62,6.71,2.37,10.06l-41.91,9.56L779.7,891.2l409-107.8,41.53-11C1230.71,774.11,1231.15,775.81,1231.59,777.5Z"/>
          <path class="cls-103" d="M1360.46,758.7l-47.29,10.8h0l-21.51,4.92L1265,780.48l-4.57,1q-1.22-5.34-2.54-10.64c-.44-1.79-.92-3.59-1.43-5.38l4.58-1.19,26.39-7c.51,1.93,1,3.86,1.49,5.76l21.45-5.39c-.51-2-1-4-1.56-6l46.89-12.37c.61,2.17,1.15,4.34,1.69,6.51C1358.47,750.13,1359.48,754.39,1360.46,758.7Z"/>
          <path class="cls-104" d="M1471.25,733.42l-59,13.45-23.31,5.36-6.4,1.45-18.23,4.14h0c-1-4.31-2-8.61-3.08-12.91-.55-2.17-1.12-4.37-1.7-6.54l18.09-4.78,7.39-2,22.09-5.83,50.41-13.28,8.13-2.14Z"/>
          <path class="cls-105" d="M1148.31,683.79l65.22-36.69c6.27,11.14,12.09,22.53,17.48,34.08,1.12,2.44,2.24,4.88,3.32,7.35L1166,719,779.7,891.2l366.37-211.27C1146.85,681.21,1147.57,682.5,1148.31,683.79Z"/>
          <path class="cls-106" d="M1495.81,572l-112.14,50h-.07l-11.24,5-13.83,6.13q-2.08-4.73-4.27-9.35-7.56-16.37-16.12-32.22-3-5.6-6.1-11.15L1318.62,588c2,3.59,4,7.21,6,10.84q8.28,15.49,15.72,31.47c1.39,3,2.78,6.07,4.13,9.12l-17.17,7.65-3.49,1.56-44.25,19.75-20.33,9c-1.15-2.61-2.3-5.18-3.52-7.76-.31-.68-.61-1.32-.92-2l-1.52.71q-8.13-17.28-17.38-33.88l-22.36,12.57c-.88-1.53-1.73-3.05-2.61-4.58l22.19-12.8,1.46-.85,16.43-9.45,2.85,5,45.06-25.34c-1-1.83-2.07-3.66-3.12-5.49l3.32-1.9,16.26-9.38,13.35-7.69,23.82-13.76,22.12-12.74,84.22-48.58Z"/>
          <path class="cls-107" d="M1253.85,624.4l-16.57,9.32-1.39.81-22.36,12.57c-.88-1.53-1.73-3.05-2.61-4.58-2.44-4.2-4.91-8.4-7.49-12.53-.81-1.32-1.62-2.64-2.5-4l21.75-13.68,1.35-.85,12.47-7.86,3.62-2.27c3.76,6,7.39,12,10.88,18.06Z"/>
          <path class="cls-108" d="M1378.39,554.34l-22.4,12.6-24,13.48L1318.62,588l-16.36,9.21-3.35,1.87c-1-1.83-2.07-3.66-3.12-5.49q-5.74-10-11.89-19.75l3.22-2,15.92-10,13-8.2,23.24-14.64L1361,525.23l13.62,22.87Z"/>
          <path class="cls-109" d="M1393.4,644.79l-3.05-7.18,0-.07-4.06-9.58-.38-.85-2.2-5.15-4.2-9.89-.3.13L1368,617.42l-13.73,6.37q2.19,4.62,4.27,9.35l-14.06,6.27c-1.35-3-2.74-6.1-4.13-9.12l-17.08,7.93-3.45,1.63-43.94,20.43-20.16,9.38c1.22,2.58,2.37,5.15,3.52,7.76,2.71,6,5.25,12.06,7.69,18.16l-25.3,10.16q-3.46-8.68-7.29-17.21c-1.08-2.47-2.2-4.91-3.32-7.35l-67.86,31.58L779.7,891.2l394.46-152.56,69.79-27,25.45-9.86,20.73-8,45.2-17.48c-.92-2.38-1.87-4.75-2.82-7.12-2.77-6.91-5.65-13.79-8.7-20.6l3.49-1.56c3.08,6.88,6,13.79,8.8,20.74,1,2.37,1.9,4.78,2.82,7.15l17.51-6.78,14.37-5.56,14.09-5.45,11.49-4.44.34-.13Z"/>
          <path class="cls-110" d="M1243.72,849.32c.23,3,.47,6,.67,9l-42.79,3L779.7,891.2l419.87-51,42.62-5.14c.2,1.55.37,3.11.58,4.67C1243.11,843,1243.41,846.14,1243.72,849.32Z"/>
          <path class="cls-111" d="M1303.51,854.1l-2.23.17-25,1.76-4.81.34c-.2-3.15-.44-6.33-.71-9.48-.34-3.39-.65-6.75-1-10.1-.2-1.66-.37-3.32-.61-5l4.78-.58L1301,828l.61,5.28c.27,2.61.54,5.25.81,7.86.1.95.17,1.93.27,2.88C1303,847.36,1303.28,850.71,1303.51,854.1Z"/>
          <path class="cls-112" d="M1455.63,843.33l-28.8,2-49,3.49-52.37,3.69c-.24-3.52-.51-7-.85-10.53-.34-3.76-.71-7.49-1.12-11.22-.2-1.83-.4-3.66-.64-5.49L1375,819l26.13-3.15,22.66-2.75,28.63-3.49,2,20.7Z"/>
          <path class="cls-113" d="M1245.07,870c.31,7,.48,14.09.48,21.17,0,6.81-.14,13.62-.45,20.39l-42.85-1.86L779.7,891.2,1202.25,872Z"/>
          <path class="cls-114" d="M1348.64,916.13l-22.33-1-3.76-.17-18.26-.78-2.37-.1L1277.05,913l-4.88-.2c.31-7.18.48-14.36.48-21.58,0-7.49-.17-14.94-.51-22.39l4.85-.24,25-1.12,2.3-.1,18.33-.85,3.69-.17,22.3-1Z"/>
          <path class="cls-115" d="M1242.19,835.1c.2,1.55.37,3.11.58,4.67l-42.69,4.74L779.7,891.2l407.88-111.84,41.5-11.38c.41,1.49.81,2.95,1.15,4.44.48,1.69.92,3.39,1.36,5.08.81,3.35,1.62,6.71,2.37,10.06.51,2.07,1,4.14,1.35,6.2,2.44,11.28,4.44,22.7,6,34.19.14,1,.27,2.06.41,3.11C1241.89,832.42,1242.06,833.74,1242.19,835.1Z"/>
          <path class="cls-116" d="M1402.27,822.05l-26.59,3h0l-52.14,5.79c-.2-1.83-.4-3.66-.64-5.49-.17-1.55-.37-3.15-.61-4.74-.14-1.22-.31-2.4-.48-3.62q-2.74-20.24-7-40.19h0l-21.55,4.65q4.11,19.1,6.78,38.52c.16,1.15.3,2.3.47,3.49.2,1.49.37,3,.58,4.54l.61,5.28-27.18,3-4.74.54c-.2-1.66-.37-3.32-.61-5-.13-1.42-.3-2.85-.54-4.24-.1-1.11-.24-2.2-.41-3.28q-2.43-18.25-6.3-36.19v0c-.44-2.2-.91-4.34-1.42-6.54q-1.22-5.34-2.54-10.64c-.44-1.79-.92-3.59-1.43-5.38-.37-1.56-.78-3.12-1.25-4.68l4.54-1.25,26.32-7.22c.48,1.66.92,3.32,1.36,5,.51,1.93,1,3.86,1.49,5.76l21.45-5.39c-.51-2-1-4-1.56-6-.44-1.76-.92-3.49-1.39-5.22l46.75-12.81q.81,2.8,1.53,5.66c.61,2.17,1.15,4.34,1.69,6.51,1.09,4.27,2.1,8.53,3.08,12.84.61,2.64,1.19,5.28,1.77,7.92q3.66,17.28,6.37,34.83l3.89-.61q-2.68-17.62-6.44-35c-.57-2.67-1.15-5.32-1.76-8h0c-1-4.31-2-8.61-3.08-12.91-.55-2.17-1.12-4.37-1.7-6.54-.47-1.9-1-3.8-1.52-5.73l18-4.94,7.83-2.14,1.15,6.07,1.35,7,2.61,13.62,1.6,8.33,8.36,43.74.38,2,1.83,9.49Z"/>
          <path class="cls-117" d="M1229.72,1011.44q-3.4,12.75-7.55,25.31L779.7,891.2Z"/>
          <path class="cls-118" d="M1645.36,1122.49l-14.5,48.69-223-73.35-11.66-3.83-14.43-4.77-14.67-4.82-17.65-5.79-3.83-1.29-46-15.11-4.1-1.35-16.91-5.56-2.71-.88-28-9.21q4.41-13.28,8-26.77l28.53,7.62,2.64.72,17.28,4.6,4.1,1.09,46.79,12.5,3.86,1,18,4.78,15,4,14.61,3.93,11.89,3.19h0Z"/>
          <path class="cls-119" d="M1219.19,1045.52c-1.93,5.59-4,11.11-6.17,16.57L779.7,891.2Z"/>
          <path class="cls-120" d="M1453.5,1127.81l-9.46,25.38-49.26-19.41-25.54-10.1-14.37-5.66-17.21-6.77-3.83-1.53-49-19.34-16.43-6.47-2.75-1.09h0l-27.31-10.77c2.27-5.8,4.47-11.62,6.51-17.52l27.78,9.73,2.71.94,16.73,5.9,4.1,1.42,45.64,16,3.86,1.39,17.48,6.13,14.61,5.11,14.33,5,11.55,4Z"/>
          <path class="cls-121" d="M1210.55,1068.29c-5.59,13.62-11.83,27-18.74,40L779.7,891.2Z"/>
          <path class="cls-122" d="M1473.11,1176.23,1443,1240.67l-78.36-41.27-24.29-12.84-13.62-7.15-16.4-8.64-3.62-1.93-46.76-24.63-15.55-8.2-2.67-1.39L1215.8,1121q10.92-20.68,19.82-42.35l27.17,11.15,2.71,1.12,16.36,6.7,48.79,20.06,3.79,1.59,17.11,7,14.3,5.89,25.38,10.44Z"/>
          <path class="cls-123" d="M1187.81,1115.85q-4.92,8.89-10.19,17.59s0,.07-.07.1L779.7,891.2Z"/>
          <path class="cls-124" d="M1252.66,1151.53l-11.82,20.39-.07.14-12.5-7.62-2.61-1.59-25-15.18a.31.31,0,0,0,.07-.14c3.76-6.13,7.35-12.36,10.8-18.63l25.62,14.13,2.64,1.45Z"/>
          <path class="cls-125" d="M1033.22,500.33q13.77,8.9,26.87,18.81l-25.78,34.18L779.7,891.2,1022,493.29c1.36.81,2.68,1.62,4,2.47C1028.48,497.25,1030.85,498.77,1033.22,500.33Z"/>
          <path class="cls-126" d="M1213.16,316l-35.51,47.1L1170.2,373l-9.08,12-9.32,12.37-13.62,18L1109,454.19l-1.79,2.4-12.44,16.47-15.45,20.5-2.95,3.93Q1062.52,487,1048,477.57c-2.51-1.63-5-3.22-7.52-4.82-1.42-.88-2.88-1.76-4.34-2.6v0l16-26.19,10.74-17.61,1.52-2.51,15.25-25,29.75-48.85,7.86-12.91,6.43-10.54,30.7-50.41Z"/>
          <path class="cls-127" d="M1022,493.29c1.36.81,2.68,1.62,4,2.47L779.7,891.2,990.36,475.63c2.85,1.43,5.66,2.92,8.47,4.41q5.24,2.74,10.37,5.69C1013.5,488.17,1017.81,490.68,1022,493.29Z"/>
          <path class="cls-128" d="M1084.72,401.68l-15.62,25.07-1.56,2.5-10.91,17.48-16.19,26c-1.42-.88-2.88-1.76-4.34-2.6v0c-4.47-2.74-9-5.39-13.55-8-3.62-2.07-7.28-4.07-10.94-6-3-1.59-6-3.15-9-4.68L1013,431l3.53-6.94,9.31-18.4,1.32-2.57,9.8-19.38,3.55-7,39.1,22Z"/>
          <path class="cls-129" d="M1022.55,435.55l-10.94,20.57c-3-1.59-6-3.15-9-4.68q-9.55-4.87-19.28-9.25l-11.18,24.7q9.24,4.17,18.22,8.74c2.85,1.43,5.66,2.92,8.47,4.41L779.7,891.2,957.37,460.46l10.33-25,8.88-21.55,4.33,2.07,11.83,5.55L1013,431Z"/>
          <polygon class="cls-130" points="779.7 891.2 979.21 325.28 1007.7 336.15 779.7 891.2"/>
          <path class="cls-131" d="M600.89,299.09q-22.07,6.6-43.57,14.94l-2.2-5.69-.31-.78,41.77-14.16,2.34-.82,4-1.35,2,6.64C603.56,298.27,602.21,298.65,600.89,299.09Z"/>
          <path class="cls-65" d="M626,369.35c-1.19.34-2.34.68-3.53,1q-19.41,5.85-38.35,13.15l-1.18-3.08-17.45-45.3q20.73-8,42-14.43c1.32-.41,2.6-.78,3.89-1.15L625,366.2Z"/>
          <path class="cls-132" d="M779.7,891.2,627.62,496.5l-26.9-69.86-9.22-23.85-.74-1.93q18.29-7.07,37-12.74c1.15-.34,2.27-.67,3.42-1l.57,2L639,413.63v0l21.18,71.76Z"/>
          <path class="cls-133" d="M610.07,296.38c-1.73.47-3.46,1-5.15,1.49-1.36.4-2.71.78-4,1.22l-2-6.51v0l-2.44-8.06L592.11,270l-3.56-11.75-21.14-70,32.66-9L614,234.38l4,15.68,3,12,3.69,14.64,3.73,14.77c-4.14,1.05-8.2,2.14-12.3,3.25C614.07,295.23,612.07,295.8,610.07,296.38Z"/>
          <path class="cls-134" d="M646.62,363.73c-3.62.88-7.21,1.83-10.8,2.81-1.8.48-3.56,1-5.32,1.49L626,369.35c-1.19.34-2.34.68-3.53,1l-.94-3.15-14.06-46.51c1.32-.41,2.6-.78,3.89-1.15,1.66-.51,3.32-1,4.95-1.46,1.93-.54,3.89-1.09,5.82-1.59,3.94-1.12,7.9-2.14,11.86-3.15l11.89,47.19Z"/>
          <path class="cls-135" d="M657.43,486.27v0l-21.65-71.62-7.38-24.46-.61-2c1.15-.34,2.27-.67,3.42-1,1.46-.44,2.91-.88,4.4-1.25,1.7-.54,3.39-1,5.12-1.46,3.45-.95,6.94-1.86,10.43-2.74l.51,2,6.27,24.79,18.29,72.57L779.7,891.2Z"/>
          <path class="cls-136" d="M508.56,335.27q-20.07,9.76-39.46,21c-2.27,1.32-4.54,2.68-6.81,4l-7.83-13.08-7.83-13.11-6.26-10.47,0-.06-20.6-34.42,53.16-27.07,24.33-12.4,7-3.6,15.79,37,4.81,11.24,6,14,3.26,7.59,2.74,6.43c-2.13.88-4.27,1.83-6.4,2.78-1.87.78-3.73,1.63-5.56,2.47C519.37,330.05,514,332.63,508.56,335.27Z"/>
          <path class="cls-137" d="M779.7,891.2l-217.06-363-22-36.86L526.69,468,524.22,464l-25.45-42.56-24.86-41.6c2.16-1.36,4.37-2.64,6.57-3.9,12.43-7.25,25.14-14,38-20.29l3.59-1.76c4-1.9,8.07-3.8,12.1-5.63,1.76-.81,3.56-1.59,5.35-2.37,2-.91,4.1-1.79,6.17-2.67l19.07,44.65,1.32,3.08q-2.83,1.17-5.62,2.44c-1.66.71-3.29,1.42-4.91,2.17l7.65,16.94c1.56-.75,3.15-1.42,4.75-2.1,1.79-.85,3.59-1.63,5.42-2.37l.81,1.89,10,23.52,29.37,68.81Z"/>
          <path class="cls-138" d="M549.46,317.11c-4.24,1.7-8.44,3.42-12.64,5.25-2.13.88-4.27,1.83-6.4,2.78l-3-6.81-3.16-7.15-6.13-13.92-4.94-11.18-16-36.35L493.83,242l21.85-9.19,17.89,44.66,4.57,11.35L543.8,303l3.32,8.24Z"/>
          <path class="cls-139" d="M577.2,386.26c-3.72,1.49-7.42,3.05-11.11,4.64q-2.83,1.17-5.62,2.44l-1.36-3.08-19.58-44.42c2-.91,4.1-1.79,6.17-2.67,4-1.73,8.09-3.43,12.19-5.05L576,383.18h0Z"/>
          <path class="cls-140" d="M779.7,891.2,609.22,504.09l-30.15-68.54-10.3-23.34-.81-1.86c1.79-.85,3.59-1.63,5.42-2.37,3.55-1.56,7.14-3.05,10.74-4.48l.78,1.9,9.52,23.75,27.84,69.45Z"/>
          <polygon class="cls-141" points="779.7 891.2 327.29 374.27 353.32 352.6 779.7 891.2"/>
          <path class="cls-142" d="M455,364.75q-6.32,3.86-12.47,7.89c-2.81,1.83-5.59,3.66-8.34,5.56l-17.07-25.35-6.81-10.13-.17-.23,9.11-5.69,1.63-1.05,11.72-7.32,2.71-1.7.54-.34,4.44-2.77,7.18-4.51.17.27,6.1,10.54,7.69,13.21,7.63,13.18c-2.27,1.32-4.54,2.68-6.81,4C459.85,361.8,457.44,363.26,455,364.75Z"/>
          <path class="cls-143" d="M616.1,294.68c-2,.55-4,1.12-6,1.7l-2-7.12-2.14-7.55-4.17-14.57-3.35-11.82-4.51-15.76L614,234.38l12.67-3.29,3.69,16,6.2,26.73L640,288.65c-2.65.58-5.25,1.22-7.86,1.87l-3.76.91C624.26,292.48,620.2,293.57,616.1,294.68Z"/>
          <path class="cls-144" d="M656.86,361.22c-3.43.78-6.85,1.63-10.24,2.51-3.62.88-7.21,1.83-10.8,2.81-1.8.48-3.56,1-5.32,1.49l-.88-3.15-13.35-46.75c1.93-.54,3.89-1.09,5.82-1.59,3.94-1.12,7.9-2.14,11.86-3.15,1.19-.31,2.37-.58,3.59-.89,2.51-.61,5.05-1.22,7.59-1.79Z"/>
          <path class="cls-145" d="M779.7,891.2l-116-406.79-20.53-72-7-24.56-.54-2c1.7-.54,3.39-1,5.12-1.46,3.45-.95,6.94-1.86,10.43-2.74,3.26-.82,6.58-1.63,9.86-2.38l.48,2,5.76,24.94,16.9,72.87Z"/>
          <path class="cls-146" d="M718.21,350.65q-24.19,2.75-48,7.66l-5.12-25,50.21-8Z"/>
          <path class="cls-147" d="M779.7,891.2,694.6,476.85l-15.05-73.31-5.15-25-.4-2q22.92-4.67,46.31-7.28l.24,1.9,2.88,25.44,8.47,74.36Z"/>
          <path class="cls-148" d="M536.82,322.36c-2.13.88-4.27,1.83-6.4,2.78-1.87.78-3.73,1.63-5.56,2.47l-3.25-7.18,5.83-2.1,6.64-2.4,13-4.71,8-2.88,41.46-14.94,2.34-.85,9.12-3.29,6-2.17,2.07,7.59c-2,.55-4,1.12-6,1.7-1.73.47-3.46,1-5.15,1.49-1.36.4-2.71.78-4,1.22q-22.07,6.6-43.57,14.94c-2.61,1-5.25,2-7.86,3.08C545.22,318.81,541,320.53,536.82,322.36Z"/>
          <path class="cls-149" d="M635.82,366.54c-1.8.48-3.56,1-5.32,1.49L626,369.35c-1.19.34-2.34.68-3.53,1q-19.41,5.85-38.35,13.15c-2.3.91-4.61,1.8-6.88,2.71-3.72,1.49-7.42,3.05-11.11,4.64q-2.83,1.17-5.62,2.44c-1.66.71-3.29,1.42-4.91,2.17l-1.39-3.05-20-44.25c1.76-.81,3.56-1.59,5.35-2.37,2-.91,4.1-1.79,6.17-2.67,4-1.73,8.09-3.43,12.19-5.05,2.51-1,5-2,7.56-2.95q20.73-8,42-14.43c1.32-.41,2.6-.78,3.89-1.15,1.66-.51,3.32-1,4.95-1.46,1.93-.54,3.89-1.09,5.82-1.59L635,363.43Z"/>
          <path class="cls-150" d="M779.7,891.2,605.43,505.79l-30.83-68.2-10.54-23.28-.85-1.86c1.56-.75,3.15-1.42,4.75-2.1,1.79-.85,3.59-1.63,5.42-2.37,3.55-1.56,7.14-3.05,10.74-4.48,2.2-.91,4.4-1.76,6.64-2.64q18.29-7.07,37-12.74c1.15-.34,2.27-.67,3.42-1,1.46-.44,2.91-.88,4.4-1.25,1.7-.54,3.39-1,5.12-1.46l.54,2,6.78,24.66,19.78,72.17Z"/>
          <path class="cls-151" d="M841.57,298.55q16.77,1.72,33.5,4.47l-7.79,48-3.49,21.55-4.4,27.2-.78,4.78-4.34,26.76-6.88,42.32L779.7,891.2l43.91-420.68,4.47-42.66,2.81-26.93.51-4.84,2.85-27.35L836.52,347Z"/>
          <path class="cls-152" d="M923.11,6.71l-39.57,244-4.84,30-3,18.32Q859,296.37,842,294.62l1.93-18.57,3.15-30.12L872.74,0Z"/>
          <polygon class="cls-153" points="934.57 194.06 920.4 257.75 915.39 280.35 913.83 287.47 913.8 287.47 909.8 305.56 908.92 309.56 898.35 357.02 893.64 378.33 887.64 405.23 886.63 409.91 880.73 436.37 871.41 478.31 779.7 891.2 855.66 475.13 863.38 432.91 868.23 406.25 869.11 401.51 874.06 374.4 877.99 352.92 886.73 305.05 887.44 301.05 890.79 282.79 896.25 252.91 907.97 188.68 934.57 194.06"/>
          <polygon class="cls-154" points="779.7 891.2 952.74 161.73 1021.11 181.42 779.7 891.2"/>
          <polygon class="cls-155" points="779.7 891.2 962.86 383.35 984.99 391.89 779.7 891.2"/>
          <path class="cls-156" d="M206.66,586.49a639.11,639.11,0,0,0-27.23,58.07l-11.29-4.64L113.5,617.45l30.28-64.4,52.15,27.75Z"/>
          <path class="cls-157" d="M249.93,609.49Q236,635.67,224.69,663.16l-16.94-7-14.2-5.83q5.08-12.5,10.78-24.77c5-10.84,10.26-21.47,15.85-31.91l13.62,7.25Z"/>
          <path class="cls-158" d="M325.68,699.17l24.94,10.54c-.61,1.45-1.25,2.94-1.83,4.44Q345.94,721,343.33,728c-1.38,3.69-2.71,7.38-4,11.11-1.08,3-2.07,6.07-3.05,9.11l-25.78-8.33-4.64-1.49-17.21-5.56-6.24-2-19.65-6.33-4-1.29-20.6-6.64-7.45-2.4L243,681.49l3.49-9.42,2.07-5.56L275.61,678l3.76,1.63,16.33,6.88,2.68,1.15,22.8,9.62Z"/>
          <path class="cls-159" d="M779.7,891.2,377.11,761.34c.88-2.74,1.8-5.52,2.78-8.27q1.73-5,3.59-10.06c1.56-4.2,3.22-8.4,4.95-12.57.54-1.35,1.08-2.71,1.66-4Z"/>
          <path class="cls-160" d="M313.76,730.24l25.61,8.84c-1.08,3-2.07,6.07-3.05,9.11-2.06,6.41-4,12.84-5.79,19.35-1,3.76-2,7.55-3,11.35-.34,1.39-.68,2.81-1,4.23l-26.32-6.3-4.78-1.12-18-4.3,1.35-4.61,3.63-12.5,6.27-21.48,3-10.19,17.48,6Z"/>
          <path class="cls-161" d="M779.7,891.2,368.24,793.05c.3-1.29.61-2.54.91-3.83.88-3.42,1.76-6.88,2.75-10.3,1.59-5.89,3.35-11.75,5.21-17.58.88-2.74,1.8-5.52,2.78-8.27Z"/>
          <path class="cls-162" d="M300,777.53l26.35,6.24c-.3,1.29-.6,2.57-.91,3.86-.71,3.12-1.39,6.23-2,9.38-.31,1.56-.65,3.09-.92,4.65-.27,1.32-.54,2.64-.74,4a8.72,8.72,0,0,0-.24,1.32l-26.66-4.88-4.81-.88L266,796.74,245.73,793l-52-9.59-4.13-.75.33-1.69,1.09-5.12,1.25-5.93,2.54-12.09,1-5,4.1,1L251.35,766l20.06,4.78,23.85,5.66Z"/>
          <path class="cls-163" d="M779.7,891.2l-416-76.5c.06-.41.13-.81.2-1.19.24-1.22.47-2.44.71-3.62.27-1.39.54-2.81.81-4.2.61-2.85,1.22-5.66,1.87-8.51.27-1.18.54-2.33.81-3.52Z"/>
          <polygon class="cls-164" points="779.7 891.2 238.44 1204.62 214.78 1159.64 779.7 891.2"/>
          <polygon class="cls-165" points="779.7 891.2 398.86 1075.3 331.51 1107.86 309.9 1118.33 306.64 1119.89 291.33 1127.31 286.96 1129.41 239.53 1152.34 216.73 1163.35 208.83 1167.18 195.42 1173.65 184.1 1179.14 118.54 1210.82 104.52 1179.99 171.46 1151.36 182.98 1146.41 196.74 1140.55 228.08 1127.14 276.49 1106.44 296.58 1097.83 322.02 1086.95 390.8 1057.55 779.7 891.2"/>
          <path class="cls-166" d="M401.3,1207.36l-3.62,3-18.26,15.24-2.88,2.41-13,10.84-3.82,3.19-40.42,33.77-26.26,21.92-11.35,9.46-9.76,8.16-30.55,25.55-35.07-48.28-16-22.06-4.67-6.44L219.37,1243l10.71-6.71,12.56-7.89,29-18.2,44.59-28,4.13-2.61,14.4-9,3.08-1.93,20.3-12.77,4-2.51c1,1.59,2,3.15,3,4.71,3.49,5.39,7,10.7,10.67,15.92Q387.88,1191.32,401.3,1207.36Z"/>
          <path class="cls-167" d="M779.7,891.2,455.14,1162.37,422.07,1190q-12.66-15.2-24.05-31.54c-3.49-5-6.85-10-10.1-15.08-.95-1.45-1.9-2.91-2.85-4.4l36.42-22.87Z"/>
          <path class="cls-168" d="M365.12,1158.07l-4,2.57-20.16,13-3,2-14.29,9.19-4.1,2.64-44.28,28.49-28.73,18.5-12.47,8-10.64,6.84-33.07,21.31-7.08,4.54L170.75,1255l41-24.49,10.84-6.44,12.78-7.66,29.34-17.51,45.16-27h0l4.2-2.54,14.57-8.71,3.12-1.86,20.6-12.3,4.1-2.44c1.86,3.15,3.76,6.24,5.69,9.32C363.12,1155,364.14,1156.51,365.12,1158.07Z"/>
          <path class="cls-169" d="M779.7,891.2,424,1120.12l-36.12,23.24c-.95-1.45-1.9-2.91-2.85-4.4-1.79-2.91-3.59-5.83-5.35-8.81l36.9-22.05Z"/>
        </g>
      </g>
    </g>
  </g>
</svg>
