<svg width="835" height="876" fill="none" xmlns="http://www.w3.org/2000/svg"><path fill-rule="evenodd" clip-rule="evenodd" d="m451.764 86.644 5.418-35.59-7.374-2.032L462.976 0l8.615 50.715-8.014 1.09 1.167 42.89-11.814-4.44-5.605 1.92 4.439-5.531Z" fill="url(#a)"/><path fill-rule="evenodd" clip-rule="evenodd" d="m358.272 195.108 77.389 30.888 84.913 3.913-53.573-38.901-108.729 4.1ZM718.77 593.828l-63.055-230.849 74.191-30.888 89.165 261.737H718.77Z" fill="#35052A"/><path fill-rule="evenodd" clip-rule="evenodd" d="m632.278 875.128-560.72.414-8.729-302.369 572.76-21.746-3.311 323.701Z" fill="url(#b)"/><path fill-rule="evenodd" clip-rule="evenodd" d="m791.417 566.213-15.236 308.915H632.276l3.311-323.701 83.483-181.038 72.347 195.824Z" fill="url(#c)"/><path fill-rule="evenodd" clip-rule="evenodd" d="m791.417 566.213-15.236 308.915H632.276l3.311-323.701 83.483-181.038 72.347 195.824Z" fill="#482E89"/><path fill-rule="evenodd" clip-rule="evenodd" d="m135.929 318.998 16.741 12.265 554.776-5.041 24.342-11.475-87.208 214.597-37.208 50.037L0 578.441l135.929-259.443Z" fill="url(#d)"/><path fill-rule="evenodd" clip-rule="evenodd" d="m0 578.44 12.415 5.982 457.072 2.107-16.817-7.374L0 578.44ZM204.25 553.572l154.025-250.676-27.276-73.552-171.707 315.575 44.958 8.653Z" fill="#35052A"/><path fill-rule="evenodd" clip-rule="evenodd" d="M202.745 875.204 192.21 534.498l141.159-253.46 106.696 235.176-8.164 359.329-229.156-.339Z" fill="url(#e)"/><path fill-rule="evenodd" clip-rule="evenodd" d="m731.789 314.747 102.595 271.782-15.312 7.299-87.283-241.195-108.427 233.896-15.989-7.148 124.416-264.634Z" fill="#410D37"/><path fill-rule="evenodd" clip-rule="evenodd" d="m498.041 874.301 8.164-341.233-66.14-16.855-8.164 359.329 66.14-1.241Z" fill="#4853AA"/><path fill-rule="evenodd" clip-rule="evenodd" d="m159.291 544.919 164.07-291.045 126.448 299.698 19.677-.715L341.57 242.738v-39.202h-29.232l-3.837 39.202-163.92 299.171 14.71 3.01Z" fill="url(#f)"/><path fill-rule="evenodd" clip-rule="evenodd" d="M569.258 332.091 452.667 579.156l154.702.225 124.417-264.634-24.342 11.475-138.186 5.869Z" fill="url(#g)"/><path fill-rule="evenodd" clip-rule="evenodd" d="m341.572 203.536 7.637 2.784v25.244l206.884 96.049-86.606 225.244-127.915-310.119v-39.202Z" fill="#410D37"/><path fill-rule="evenodd" clip-rule="evenodd" d="m452.667 579.155 16.817 7.374h153.875l-15.99-7.148-154.702-.226Z" fill="#35052A"/><path fill-rule="evenodd" clip-rule="evenodd" d="m192.21 534.497 3.537 25.019 140.33-255.003 103.085 241.836.903-18.812-106.696-249.961L192.21 534.497Z" fill="url(#h)"/><path fill-rule="evenodd" clip-rule="evenodd" d="m431.901 875.543 8.164-348.005-16.554-20.805-4.778 368.81h13.168Z" fill="url(#i)"/><path fill-rule="evenodd" clip-rule="evenodd" d="M210.981 515.46h213.807l-1.731 14.259H210.981V515.46Z" fill="url(#j)"/><path fill-rule="evenodd" clip-rule="evenodd" d="m422.081 617.417-57.826-87.96 20.58.263 38.261 64.748-1.015 22.949Z" fill="url(#k)"/><path fill-rule="evenodd" clip-rule="evenodd" d="m440.065 527.538 6.659 13.619-7.637 334.385h-7.186l8.164-348.004Z" fill="url(#l)"/><path fill-rule="evenodd" clip-rule="evenodd" d="M220.012 515.46h8.803l110.196-203.498-2.935-7.449L220.012 515.46Z" fill="url(#m)"/><path fill-rule="evenodd" clip-rule="evenodd" d="m212.148 529.719-1.167 2.145 2.559 343.377 5.53.301-2.52-345.823h-4.402Z" fill="url(#n)"/><path fill-rule="evenodd" clip-rule="evenodd" d="m266.136 529.719-55.155 80.248h5.569l56.358-80.248h-6.772Z" fill="url(#o)"/><path fill-rule="evenodd" clip-rule="evenodd" d="m384.837 529.719 38.262 64.748-.602-6.923-32.167-57.825h-5.493Z" fill="url(#p)"/><path fill-rule="evenodd" clip-rule="evenodd" d="M202.745 875.203 192.21 534.497l18.774-19.037 2.558 359.781-10.797-.038Z" fill="url(#q)"/><path fill-rule="evenodd" clip-rule="evenodd" d="m210.981 609.967 55.155-80.248h-15.689l-39.466 61.588v18.66Z" fill="url(#r)"/><path fill-rule="evenodd" clip-rule="evenodd" d="m70.501 874.972-7.188-290.619 14.531.075 2.076 290.131-9.419.413Z" fill="url(#s)"/><path fill-rule="evenodd" clip-rule="evenodd" d="M79.88 875.128h6.357l-2.52-290.367-6.359-.038 2.521 290.405Z" fill="url(#t)"/><path fill-rule="evenodd" clip-rule="evenodd" d="m632.274 875.128 3.612-315.612-12.528 27.013-5.982-.038-2.295 288.637h17.193Z" fill="url(#u)"/><path fill-rule="evenodd" clip-rule="evenodd" d="m632.276 875.128 3.611-315.612 13.808-29.797-8.728 345.522-8.691-.113Z" fill="url(#v)"/><path fill-rule="evenodd" clip-rule="evenodd" d="m782.317 541.533-13.845 334.01 7.712-.414 15.237-308.916-9.104-24.68Z" fill="url(#w)"/><path fill-rule="evenodd" clip-rule="evenodd" d="m649.206 548.869 132.58 4.703.527-12.039-2.37-6.359-130.248-5.455-.489 19.15Z" fill="#41071D"/><path fill-rule="evenodd" clip-rule="evenodd" d="m738.594 551.804 40.331 70.955 1.016-19.601-30.625-51.354h-10.722ZM700.748 550.712l-53.386 72.047.489-19.564 38.638-53.009 14.259.526Z" fill="#41071D"/><path fill-rule="evenodd" clip-rule="evenodd" d="m277.722 484.122 96.952-1.994-1.543 14.936h-95.409v-12.942Z" fill="url(#x)"/><path fill-rule="evenodd" clip-rule="evenodd" d="M374.671 482.128h6.809l-.714 14.936h-7.638l1.543-14.936Z" fill="url(#y)"/><path fill-rule="evenodd" clip-rule="evenodd" d="M295.665 483.746s5.643-53.461 31.791-53.649c26.147-.188 33.371 52.257 33.371 52.257l-65.162 1.392Z" fill="url(#z)"/><path fill-rule="evenodd" clip-rule="evenodd" d="M304.249 483.746s5.643-53.461 31.79-53.649c26.148-.188 33.522 52.257 33.522 52.257l-65.312 1.392Z" fill="url(#A)"/><path fill-rule="evenodd" clip-rule="evenodd" d="M376.48 482.128s-8.315-63.581-46.087-63.393c0 0 37.358 34.048 39.39 63.619l6.697-.226Z" fill="url(#B)"/><path fill-rule="evenodd" clip-rule="evenodd" d="M283.63 484.009s9.744-61.437 42.588-65.124c32.844-3.687 45.41 63.431 45.41 63.431h-15.049s-2.408-52.407-28.969-52.407c-23.438 0-31.79 53.649-31.79 53.649l-12.19.451Z" fill="url(#C)"/><path fill-rule="evenodd" clip-rule="evenodd" d="m327.607 483.256-21.933-28.404 2.558-5.681 22.16 33.822-2.785.263Z" fill="url(#D)"/><path fill-rule="evenodd" clip-rule="evenodd" d="m349.392 449.171-21.784 34.085 4.477-.451 19.037-29.007-1.73-4.627Z" fill="url(#E)"/><path fill-rule="evenodd" clip-rule="evenodd" d="m284.649 687.281-3.951-77.502 34.5-46.576 34.537 46.576-6.885 79.458-58.201-1.956Z" fill="url(#F)"/><path fill-rule="evenodd" clip-rule="evenodd" d="M315.199 563.203h2.709l33.709 46.576-3.461 79.458h-5.305l5.305-79.458-32.957-46.576Z" fill="url(#G)"/><path fill-rule="evenodd" clip-rule="evenodd" d="m280.698 686.153 1.656 11.813h62.377l2.257-11.813h-66.29Z" fill="url(#H)"/><path fill-rule="evenodd" clip-rule="evenodd" d="m346.988 686.153 4.627.489-2.332 11.324h-4.553l2.258-11.813Z" fill="url(#I)"/><path fill-rule="evenodd" clip-rule="evenodd" d="m291.459 686.152-2.295-73.438 26.035-35.59 25.846 36.531-4.214 72.497h-45.372Z" fill="url(#J)"/><path fill-rule="evenodd" clip-rule="evenodd" d="m299.098 686.153-2.784-69.676 23.74-32.506 20.993 29.684-4.214 72.498h-37.735Z" fill="url(#K)"/><path fill-rule="evenodd" clip-rule="evenodd" d="m293.036 616.476 2.634-4.966h43.867l1.505 2.145-.15 2.821h-47.856Z" fill="url(#L)"/><path fill-rule="evenodd" clip-rule="evenodd" d="m315.087 686.152.113-69.676h5.38l-1.806 69.676h-3.687Z" fill="url(#M)"/><path fill-rule="evenodd" clip-rule="evenodd" d="m113.092 738.711-3.95-77.502 34.537-46.576 34.499 46.576-6.885 79.42-58.201-1.918Z" fill="url(#N)"/><path fill-rule="evenodd" clip-rule="evenodd" d="M143.678 614.633h2.708l33.672 46.576-3.423 79.42h-5.343l5.343-79.42-32.957-46.576Z" fill="url(#O)"/><path fill-rule="evenodd" clip-rule="evenodd" d="m109.142 737.544 1.692 11.851h62.34l2.258-11.851h-66.29Z" fill="url(#P)"/><path fill-rule="evenodd" clip-rule="evenodd" d="m175.43 737.544 4.627.526-2.332 11.325h-4.553l2.258-11.851Z" fill="url(#Q)"/><path fill-rule="evenodd" clip-rule="evenodd" d="m119.9 737.545-2.295-73.401 26.073-35.591 25.808 36.494-4.213 72.498H119.9Z" fill="url(#R)"/><path fill-rule="evenodd" clip-rule="evenodd" d="m127.576 737.545-2.784-69.677 23.702-32.505 20.993 29.684-4.214 72.498h-37.697Z" fill="url(#S)"/><path fill-rule="evenodd" clip-rule="evenodd" d="m121.482 667.868 2.634-4.928h43.867l1.505 2.107-.151 2.821h-47.855Z" fill="url(#T)"/><path fill-rule="evenodd" clip-rule="evenodd" d="m143.567 737.545.113-69.676h5.38l-1.843 69.676h-3.65Z" fill="url(#U)"/><path fill-rule="evenodd" clip-rule="evenodd" d="m524.672 738.711-3.95-77.502 34.537-46.576 34.537 46.576-6.884 79.42-58.24-1.918Z" fill="url(#V)"/><path fill-rule="evenodd" clip-rule="evenodd" d="M555.259 614.633h2.709l33.672 46.576-3.424 79.42h-5.305l5.305-79.42-32.957-46.576Z" fill="url(#W)"/><path fill-rule="evenodd" clip-rule="evenodd" d="m520.722 737.544 1.693 11.851h62.378l2.219-11.851h-66.29Z" fill="url(#X)"/><path fill-rule="evenodd" clip-rule="evenodd" d="m587.009 737.544 4.628.526-2.295 11.325h-4.552l2.219-11.851Z" fill="url(#Y)"/><path fill-rule="evenodd" clip-rule="evenodd" d="m531.481 737.545-2.257-73.401 26.035-35.591 25.846 36.494-4.251 72.498h-45.373Z" fill="url(#Z)"/><path fill-rule="evenodd" clip-rule="evenodd" d="m539.157 737.545-2.784-69.677 23.701-32.505 21.031 29.684-4.251 72.498h-37.697Z" fill="#FFFF9C"/><path fill-rule="evenodd" clip-rule="evenodd" d="m533.096 667.868 2.634-4.928h43.867l1.505 2.107-.188 2.821h-47.818ZM555.147 737.545l.113-69.676h5.38l-1.806 69.676h-3.687Z" fill="#FF6848"/><path fill-rule="evenodd" clip-rule="evenodd" d="m743.831 731.863 6.546-77.276-23.476-47.742-27.802 45.335 1.392 79.608 43.34.075Z" fill="url(#aa)"/><path fill-rule="evenodd" clip-rule="evenodd" d="m726.898 606.845-5.418 1.505-27.539 43.115.188 80.022 6.358.301-.263-79.533 26.674-45.41Z" fill="url(#ab)"/><path fill-rule="evenodd" clip-rule="evenodd" d="m746.802 730.848-1.769 11.775-46.35-2.182-1.091-11.888 49.21 2.295Z" fill="url(#ac)"/><path fill-rule="evenodd" clip-rule="evenodd" d="m697.592 728.553-6.208.602v10.948l7.298.338-1.09-11.888Z" fill="url(#ad)"/><path fill-rule="evenodd" clip-rule="evenodd" d="m738.826 730.472 5.117-73.251-17.72-36.456-20.881 35.591-.225 72.573 33.709 1.543Z" fill="#41071D"/><path fill-rule="evenodd" clip-rule="evenodd" d="m733.108 730.208 5.342-69.488-16.102-33.296-17.006 28.932-.225 72.573 27.991 1.279Z" fill="#20071D"/><path fill-rule="evenodd" clip-rule="evenodd" d="m740.899 660.832-1.731-5.041-32.581-1.505-1.241 2.069v2.822l35.553 1.655Z" fill="url(#ae)"/><path fill-rule="evenodd" clip-rule="evenodd" d="m721.258 729.681 3.16-69.638-3.988-.188-1.881 69.676 2.709.15Z" fill="url(#af)"/><path fill-rule="evenodd" clip-rule="evenodd" d="M215.537 718.695h205.229l-.151 14.297H215.537v-14.297Z" fill="url(#ag)"/><path fill-rule="evenodd" clip-rule="evenodd" d="m286.796 875.73-6.809-79.308s7.524-42.927 37.998-43.077c28.593 0 38.036 41.384 38.036 41.384l-5.267 81.001h-63.958Z" fill="#41071D"/><path fill-rule="evenodd" clip-rule="evenodd" d="m283.034 875.73-6.772-79.307s7.524-42.927 37.998-43.078c28.555 0 37.998 41.385 37.998 41.385l-5.267 81h-63.957Z" fill="url(#ah)"/><path fill-rule="evenodd" clip-rule="evenodd" d="m343.229 800.712-3.988 72.008h-48.495l-5.116-70.579s3.311-39.691 28.743-39.729c.931.006 1.861.068 2.784.188 21.671 2.784 26.072 38.112 26.072 38.112Z" fill="#41071D"/><path fill-rule="evenodd" clip-rule="evenodd" d="m343.226 800.712-3.988 72.008h-42.965l-5.154-70.579s3.047-36.757 26.035-39.541c21.67 2.784 26.072 38.112 26.072 38.112Z" fill="#841648"/><path fill-rule="evenodd" clip-rule="evenodd" d="M296.505 798.868h44.545s-5.568-31.678-22.272-31.678c-18.586 0-22.273 31.678-22.273 31.678Z" fill="url(#ai)"/><path fill-rule="evenodd" clip-rule="evenodd" d="m380.06 245.898 64.672 122.31 7.938-196.425h-67.832l-4.778 74.115Z" fill="url(#aj)"/><path fill-rule="evenodd" clip-rule="evenodd" d="m452.669 171.783 47.253 44.958-6.584 161.437-48.608-9.97 7.939-196.425Z" fill="#482E89"/><path fill-rule="evenodd" clip-rule="evenodd" d="m358.272 195.108 15.463-19.074 12.227-44.432 71.407-45.9 10.685 35.78-4.101 51.053 3.048 24.379-108.729-1.806Z" fill="url(#ak)"/><path fill-rule="evenodd" clip-rule="evenodd" d="m457.37 85.703 50.075 60.985v56.847l13.13 26.374-53.574-32.995-3.047-24.379 4.1-51.053-10.684-35.78Z" fill="#410D37"/><path fill-rule="evenodd" clip-rule="evenodd" d="m385.968 131.602 82.092-10.12-10.685-35.78-71.407 45.9Z" fill="#7268CC" style="mix-blend-mode:screen" opacity=".2"/><path fill-rule="evenodd" clip-rule="evenodd" d="m397.557 250.864 1.542-47.328h34.048l-3.16 48.607-32.43-1.279Z" fill="url(#al)"/><path fill-rule="evenodd" clip-rule="evenodd" d="m404.177 251.128 2.069-40.03h26.411l-2.672 41.045-25.808-1.015Z" fill="url(#am)"/><path fill-rule="evenodd" clip-rule="evenodd" d="m382.317 211.098 68.209 12.979 47.592 37.133 1.693-41.911-32.807-22.385-84.687-1.43v15.614Z" fill="#98256B" style="mix-blend-mode:multiply" opacity=".5"/><path fill-rule="evenodd" clip-rule="evenodd" d="m358.272 195.108 11.061 1.806 96.764 3.423 48.796 28.969 5.681.602-53.799-34.8H358.272ZM731.789 314.747l-50.564 100 1.655 4.025-55.906 103.8 3.875 6.885-23.476 49.924 15.989 7.148 108.427-233.896 87.283 241.195 15.312-7.299-17.005-44.996 3.951-2.257-41.385-104.59 2.37-1.843-50.526-118.096Z" fill="#410D37"/><path fill-rule="evenodd" clip-rule="evenodd" d="m731.789 314.747-50.564 100 1.655 4.025-55.906 103.8 3.875 6.885-23.476 49.924 15.989 7.148 108.427-233.896 87.283 241.195 15.312-7.299-17.005-44.996 3.951-2.257-41.385-104.59 2.37-1.843-50.526-118.096Z" fill="#410D37"/><path fill-rule="evenodd" clip-rule="evenodd" d="m135.929 318.998-55.455 90.971 5.605 4.1-58.464 101.392 4.966.753L0 578.441l72.912-.151 96.576-247.177-16.818.15-9.104-16.516-7.637 4.251Z" fill="url(#an)"/><path fill-rule="evenodd" clip-rule="evenodd" d="m452.667 579.155 30.06-63.694h-4.816l37.81-82.807-4.063-1.392 44.432-103.649-86.606 250.677-16.817.865Z" fill="url(#ao)"/><path fill-rule="evenodd" clip-rule="evenodd" d="m511.657 431.262 111.7-1.166 46.313-103.461-113.582.978-44.431 103.649ZM626.969 522.571h-39.767l53.762-98.457 41.911-5.343-55.906 103.8Z" fill="#7268CC" style="mix-blend-mode:screen" opacity=".2"/><path fill-rule="evenodd" clip-rule="evenodd" d="m452.667 579.155 30.06-63.695 85.778.753-25.808 62.076-90.03.866Z" fill="#D55C63" style="mix-blend-mode:multiply" opacity=".3"/><path fill-rule="evenodd" clip-rule="evenodd" d="M626.969 522.571H531.07l99.774 6.885-3.875-6.885ZM577.231 430.096l-42.061 92.475h4.552l37.509-92.475Z" fill="#410D37"/><path fill-rule="evenodd" clip-rule="evenodd" d="m511.657 431.262 4.063 1.392 107.637-2.558-111.7 1.166ZM669.675 326.635l-34.086 76.11 39.616-75.132-5.53-.978ZM80.472 409.968h97.705l-92.099 4.101-5.606-4.101ZM124.567 516.213l53.611-106.245-57.524 100.94-93.04 4.552 4.966.753h91.987Z" fill="#410D37"/><path fill-rule="evenodd" clip-rule="evenodd" d="m27.614 515.46 93.04-4.552 57.524-100.94-92.099 4.101L27.614 515.46Z" fill="#7268CC" style="mix-blend-mode:screen" opacity=".2"/><path fill-rule="evenodd" clip-rule="evenodd" d="m169.487 331.112-44.695 64.974 94.281-4.628 39.691-61.174-89.277.828Z" fill="#D55C63" style="mix-blend-mode:multiply" opacity=".3"/><path fill-rule="evenodd" clip-rule="evenodd" d="m44.658 578.29 23.852-31.001h60.798l-20.166 32.092-64.484-1.091Z" fill="#7268CC" style="mix-blend-mode:screen" opacity=".2"/><path fill-rule="evenodd" clip-rule="evenodd" d="m341.57 242.738 43.266 94.996-2.521 3.725 56.998 127.388-3.725 1.806 32.468 78.705-18.247 4.214-126.448-299.698-164.07 291.045-14.71-3.01 32.656-59.556-7.75-.225 55.003-86.042-2.633-3.198 86.644-150.15h33.069Z" fill="url(#ap)"/><path fill-rule="evenodd" clip-rule="evenodd" d="m542.243 579.381 15.764-37.848-22.837 37.622 7.073.226ZM109.141 579.381l20.165-32.092-14.447 31.866-5.718.226Z" fill="#410D37"/><path fill-rule="evenodd" clip-rule="evenodd" d="m63.732 614.632 132.505 50.151-2.483-80.06-130.925-.076.903 29.985ZM192.21 534.497l1.129 35.817 179.495-199.209 67.231 159.367v48.909l-8.164 296.161 55.794-1.016 30.135-243.979 118.058-9.03 95.899-131.113 58.578 96.877 1.053-21.068-70.541-190.97-97.517 211.286H469.486l-16.817-7.374 12.377-26.298-15.237.715-116.44-275.996L192.21 534.497Z" fill="#98256B" style="mix-blend-mode:multiply" opacity=".5"/><path fill-rule="evenodd" clip-rule="evenodd" d="m260.573 875.58 3.762-10.836h85.966v10.836h-89.728Z" fill="url(#aq)"/><path fill-rule="evenodd" clip-rule="evenodd" d="m350.301 864.744 11.173 2.371v8.239l-11.173.226v-10.836Z" fill="url(#ar)"/><path fill-rule="evenodd" clip-rule="evenodd" d="m382.317 341.458 38.487 3.687 54.928 125.432-36.418-1.73-56.997-127.389Z" fill="#7268CC" style="mix-blend-mode:screen" opacity=".2"/><path fill-rule="evenodd" clip-rule="evenodd" d="m503.383 303.121 31.791 78.932 20.918-54.44-52.709-24.492Z" fill="#D55C63" style="mix-blend-mode:multiply" opacity=".3"/><path fill-rule="evenodd" clip-rule="evenodd" d="m439.314 468.847 50.866 3.423-54.59-1.617 3.724-1.806Z" fill="#35052A"/><path fill-rule="evenodd" clip-rule="evenodd" d="m124.791 831.336-7.186-26.9 31.453-29.496 47.178 8.089-4.44 54.853-18.623 18.623-35.139-11.926-13.243-13.243ZM111.474 801.69l-2.332-6.81-11.663 3.424v8.164h11.663l2.332-4.778ZM114.182 794.88v-6.471h6.471l-3.047 6.471h-3.424ZM643.527 774.94l47.855 57.449 46.012 27.954v14.785l-96.425.113 2.558-100.301ZM737.389 812.977l9.406 35.063-2.86 27.088 24.53.414 3.687-89.202-34.763 26.637ZM577.237 800.674l-16.591 43.905 29.157 30.549h25.282l.564-68.66-23.438-10.91-14.974 5.116ZM549.696 841.683l4.176 7.712-15.876 17.72-13.281-10.609 4.515-27.54h10.082l10.384 12.717ZM404.101 676.671l4.176 7.713-15.876 17.758-13.318-10.647 4.514-27.54h10.083l10.421 12.716ZM544.168 815.723l-1.957-6.508 3.085-2.634 9.857 2.634-2.483 5.568-8.502.94ZM361.361 765.158l-1.956-6.508 3.085-2.596 9.857 2.596-2.483 5.568-8.503.94Z" fill="#BDAFD9" style="mix-blend-mode:multiply" opacity=".5"/><path fill-rule="evenodd" clip-rule="evenodd" d="m272.91 515.46 40.933 9.933 22.987 4.063 16.629.263-29.346-7.148-22.949-7.111H272.91ZM327.61 515.46l2.784 4.741 21.219 4.627 17.795 4.628h7.073l-20.015-5.681-15.425-4.063-4.214-4.252h-9.217ZM381.485 555.641l15.2 6.471 18.397 26.599 7.524 17.043-.451 5.756-9.932-23.138-15.877-23.852-10.609-2.408-4.252-6.471ZM374.675 545.296l26.561 12.189-3.612-6.095-12.791-3.047-13.657-8.39 3.499 5.343ZM223.474 718.695l56.057 11.249 62.039 3.048h14.334l-37.133-6.095-22.273 1.016-15.801-.489-16.215-7.337-2.408-1.392h-38.6ZM352.065 718.695l27.013 14.297h2.407l-14.71-14.297h-14.71ZM421.895 631.638l10.008 27.615-2.484 38.713 5.456 60.459-.414 8.765-5.042-17.795-1.015-49.962-1.392-11.55 2.407-30.323-7.637-15.012.113-10.91ZM420.576 734.685l5.079 40.255 8.089 19.94v8.879l-1.844-4.891-4.74-18.849-3.085-5.229-3.725-24.304.226-15.801ZM66.364 702.707l12.378 58.314v20.692l3.837 44.996-.226-26.034-1.88-20.203v-19.79l-5.983-47.178-8.126-20.617v9.82ZM67.231 725.844l7.261 49.096-1.58 48.683-2.483 14.259-3.198-112.038ZM202.743 875.203l-5.003-161.888 5.003 16.629.151 19.451 10.007 39.014v23.364l-1.918-22.009-8.089-27.352v-5.53 36.305l5.192 28.781 5.192 15.914.263 37.359-10.798-.038Z" fill="#D55C63" style="mix-blend-mode:multiply" opacity=".3"/><path fill-rule="evenodd" clip-rule="evenodd" d="m444.73 368.208 55.192 15.349-5.417-30.323-1.167 24.943-48.608-9.969Z" fill="#98256B" style="mix-blend-mode:multiply" opacity=".5"/><path fill-rule="evenodd" clip-rule="evenodd" d="m221.856 392.888 86.644-150.15 3.838-39.202h29.232l7.638 2.784v25.244l30.849 14.334 2.032-41.271-20.955-9.067 12.603-19.526 12.227-44.432 61.362-39.428 4.439-5.53 5.418-35.59-7.374-2.032L462.977 0l-16.404 50.225 6.095 3.16-7.938 35.479-5.305 4.025-59.368 36.531-10.797 45.899-14.748 21.595 25.545 13.168-2.482 30.286-24.756-10.459.677-25.546-13.092-4.401-33.371 1.505-2.596 39.879-82.581 151.542Z" fill="#C5E8FF"/><path fill-rule="evenodd" clip-rule="evenodd" d="m77.69 428.666 8.39-14.597-5.606-4.101 55.455-90.97 7.638-4.252 9.104 16.516 103.273-.94-101.994-4.59-9.368-15.275-15.274 6.81-53.65 92.701 4.816 4.552-2.784 14.146ZM496.498 300.149l59.594 27.464 151.353-1.392 24.342-11.474-29.232 8.615-146.351-1.317-59.443-27.802-.263 5.906Z" fill="#C5E8FF"/><defs><linearGradient id="J" x1="315.086" y1="686.152" x2="315.086" y2="577.124" gradientUnits="userSpaceOnUse"><stop stop-color="#5E1340"/><stop offset=".98" stop-color="#3F142F"/></linearGradient><linearGradient id="a" x1="459.439" y1="94.695" x2="459.439" y2="0" gradientUnits="userSpaceOnUse"><stop stop-color="#B498B0"/><stop offset=".12" stop-color="#946E8F"/><stop offset=".99" stop-color="#9F8697"/></linearGradient><linearGradient id="c" x1="711.847" y1="875.128" x2="711.847" y2="370.389" gradientUnits="userSpaceOnUse"><stop stop-color="#AE951E"/><stop offset=".99" stop-color="#CEB32D"/></linearGradient><linearGradient id="d" x1="365.875" y1="579.381" x2="365.875" y2="314.747" gradientUnits="userSpaceOnUse"><stop stop-color="#4E3999"/><stop offset=".99" stop-color="#665889"/></linearGradient><linearGradient id="e" x1="316.138" y1="875.543" x2="316.138" y2="281.038" gradientUnits="userSpaceOnUse"><stop stop-color="#A79BFE"/><stop offset=".99" stop-color="#AFACDB"/></linearGradient><linearGradient id="f" x1="307.033" y1="553.572" x2="307.033" y2="203.536" gradientUnits="userSpaceOnUse"><stop stop-color="#686EC2"/><stop offset=".99" stop-color="#8158A9"/></linearGradient><linearGradient id="g" x1="592.207" y1="579.381" x2="592.207" y2="314.747" gradientUnits="userSpaceOnUse"><stop stop-color="#4E3999"/><stop offset=".99" stop-color="#665889"/></linearGradient><linearGradient id="h" x1="316.138" y1="559.516" x2="316.138" y2="277.576" gradientUnits="userSpaceOnUse"><stop offset=".01" stop-color="#8E3C65"/><stop offset=".98" stop-color="#9B4561"/></linearGradient><linearGradient id="i" x1="429.418" y1="875.543" x2="429.418" y2="506.733" gradientUnits="userSpaceOnUse"><stop offset=".01" stop-color="#8E3C65"/><stop offset=".98" stop-color="#9B4561"/></linearGradient><linearGradient id="j" x1="210.981" y1="522.571" x2="424.788" y2="522.571" gradientUnits="userSpaceOnUse"><stop offset=".01" stop-color="#8E3C65"/><stop offset=".98" stop-color="#9B4561"/></linearGradient><linearGradient id="k" x1="364.255" y1="573.437" x2="423.096" y2="573.437" gradientUnits="userSpaceOnUse"><stop offset=".01" stop-color="#8E3C65"/><stop offset=".98" stop-color="#9B4561"/></linearGradient><linearGradient id="l" x1="439.312" y1="875.542" x2="439.312" y2="527.538" gradientUnits="userSpaceOnUse"><stop stop-color="#5E1340"/><stop offset=".98" stop-color="#3F142F"/></linearGradient><linearGradient id="m" x1="220.012" y1="409.968" x2="339.011" y2="409.968" gradientUnits="userSpaceOnUse"><stop stop-color="#5E1340"/><stop offset=".98" stop-color="#3F142F"/></linearGradient><linearGradient id="n" x1="215.045" y1="875.542" x2="215.045" y2="529.719" gradientUnits="userSpaceOnUse"><stop stop-color="#5E1340"/><stop offset=".98" stop-color="#3F142F"/></linearGradient><linearGradient id="o" x1="210.981" y1="569.824" x2="272.908" y2="569.824" gradientUnits="userSpaceOnUse"><stop stop-color="#5E1340"/><stop offset=".98" stop-color="#3F142F"/></linearGradient><linearGradient id="p" x1="384.837" y1="562.112" x2="423.099" y2="562.112" gradientUnits="userSpaceOnUse"><stop stop-color="#5E1340"/><stop offset=".98" stop-color="#3F142F"/></linearGradient><linearGradient id="q" x1="202.858" y1="875.241" x2="202.858" y2="515.46" gradientUnits="userSpaceOnUse"><stop offset=".01" stop-color="#8E3C65"/><stop offset=".98" stop-color="#9B4561"/></linearGradient><linearGradient id="r" x1="210.981" y1="569.824" x2="266.136" y2="569.824" gradientUnits="userSpaceOnUse"><stop offset=".01" stop-color="#8E3C65"/><stop offset=".98" stop-color="#9B4561"/></linearGradient><linearGradient id="s" x1="71.617" y1="874.972" x2="71.617" y2="584.353" gradientUnits="userSpaceOnUse"><stop offset=".01" stop-color="#8E3C65"/><stop offset=".98" stop-color="#9B4561"/></linearGradient><linearGradient id="t" x1="81.798" y1="875.128" x2="81.798" y2="584.723" gradientUnits="userSpaceOnUse"><stop stop-color="#5E1340"/><stop offset=".98" stop-color="#3F142F"/></linearGradient><linearGradient id="u" x1="625.502" y1="875.128" x2="625.502" y2="559.516" gradientUnits="userSpaceOnUse"><stop offset=".01" stop-color="#8E3C65"/><stop offset=".98" stop-color="#9B4561"/></linearGradient><linearGradient id="v" x1="640.967" y1="875.241" x2="640.967" y2="529.719" gradientUnits="userSpaceOnUse"><stop stop-color="#5E1340"/><stop offset=".98" stop-color="#3F142F"/></linearGradient><linearGradient id="w" x1="779.946" y1="875.543" x2="779.946" y2="541.533" gradientUnits="userSpaceOnUse"><stop stop-color="#5E1340"/><stop offset=".98" stop-color="#3F142F"/></linearGradient><linearGradient id="x" x1="277.722" y1="489.577" x2="374.674" y2="489.577" gradientUnits="userSpaceOnUse"><stop offset=".01" stop-color="#8E3C65"/><stop offset=".98" stop-color="#9B4561"/></linearGradient><linearGradient id="y" x1="373.128" y1="489.577" x2="381.48" y2="489.577" gradientUnits="userSpaceOnUse"><stop stop-color="#5E1340"/><stop offset=".98" stop-color="#3F142F"/></linearGradient><linearGradient id="z" x1="328.246" y1="483.746" x2="328.246" y2="430.097" gradientUnits="userSpaceOnUse"><stop stop-color="#5E1340"/><stop offset=".98" stop-color="#3F142F"/></linearGradient><linearGradient id="A" x1="336.829" y1="483.746" x2="336.829" y2="430.097" gradientUnits="userSpaceOnUse"><stop offset=".03" stop-color="#65182C"/><stop offset="1" stop-color="#0F0020"/></linearGradient><linearGradient id="B" x1="330.393" y1="450.526" x2="376.48" y2="450.526" gradientUnits="userSpaceOnUse"><stop stop-color="#5E1340"/><stop offset=".98" stop-color="#3F142F"/></linearGradient><linearGradient id="C" x1="283.63" y1="451.391" x2="371.628" y2="451.391" gradientUnits="userSpaceOnUse"><stop offset=".01" stop-color="#8E3C65"/><stop offset=".98" stop-color="#9B4561"/></linearGradient><linearGradient id="D" x1="305.674" y1="466.213" x2="330.392" y2="466.213" gradientUnits="userSpaceOnUse"><stop offset=".01" stop-color="#8E3C65"/><stop offset=".98" stop-color="#9B4561"/></linearGradient><linearGradient id="E" x1="327.608" y1="466.213" x2="351.122" y2="466.213" gradientUnits="userSpaceOnUse"><stop offset=".01" stop-color="#8E3C65"/><stop offset=".98" stop-color="#9B4561"/></linearGradient><linearGradient id="F" x1="280.698" y1="626.22" x2="349.735" y2="626.22" gradientUnits="userSpaceOnUse"><stop offset=".01" stop-color="#8E3C65"/><stop offset=".98" stop-color="#9B4561"/></linearGradient><linearGradient id="G" x1="333.408" y1="689.237" x2="333.408" y2="563.203" gradientUnits="userSpaceOnUse"><stop stop-color="#5E1340"/><stop offset=".98" stop-color="#3F142F"/></linearGradient><linearGradient id="H" x1="280.698" y1="692.06" x2="346.988" y2="692.06" gradientUnits="userSpaceOnUse"><stop offset=".01" stop-color="#8E3C65"/><stop offset=".98" stop-color="#9B4561"/></linearGradient><linearGradient id="I" x1="348.154" y1="697.966" x2="348.154" y2="686.153" gradientUnits="userSpaceOnUse"><stop stop-color="#5E1340"/><stop offset=".98" stop-color="#3F142F"/></linearGradient><linearGradient id="b" x1="349.209" y1="875.542" x2="349.209" y2="551.427" gradientUnits="userSpaceOnUse"><stop stop-color="#A79BFE"/><stop offset=".99" stop-color="#AFACDB"/></linearGradient><linearGradient id="K" x1="318.699" y1="686.153" x2="318.699" y2="583.971" gradientUnits="userSpaceOnUse"><stop offset=".03" stop-color="#65182C"/><stop offset="1" stop-color="#0F0020"/></linearGradient><linearGradient id="L" x1="293.036" y1="613.993" x2="341.042" y2="613.993" gradientUnits="userSpaceOnUse"><stop offset=".01" stop-color="#8E3C65"/><stop offset=".98" stop-color="#9B4561"/></linearGradient><linearGradient id="M" x1="315.087" y1="651.314" x2="320.58" y2="651.314" gradientUnits="userSpaceOnUse"><stop offset=".01" stop-color="#8E3C65"/><stop offset=".98" stop-color="#9B4561"/></linearGradient><linearGradient id="N" x1="109.142" y1="677.612" x2="178.178" y2="677.612" gradientUnits="userSpaceOnUse"><stop offset=".01" stop-color="#8E3C65"/><stop offset=".98" stop-color="#9B4561"/></linearGradient><linearGradient id="O" x1="161.849" y1="740.629" x2="161.849" y2="614.633" gradientUnits="userSpaceOnUse"><stop stop-color="#5E1340"/><stop offset=".98" stop-color="#3F142F"/></linearGradient><linearGradient id="P" x1="109.142" y1="743.488" x2="175.432" y2="743.488" gradientUnits="userSpaceOnUse"><stop offset=".01" stop-color="#8E3C65"/><stop offset=".98" stop-color="#9B4561"/></linearGradient><linearGradient id="Q" x1="176.634" y1="749.395" x2="176.634" y2="737.581" gradientUnits="userSpaceOnUse"><stop stop-color="#5E1340"/><stop offset=".98" stop-color="#3F142F"/></linearGradient><linearGradient id="R" x1="143.565" y1="737.582" x2="143.565" y2="628.553" gradientUnits="userSpaceOnUse"><stop stop-color="#5E1340"/><stop offset=".98" stop-color="#3F142F"/></linearGradient><linearGradient id="S" x1="147.14" y1="737.582" x2="147.14" y2="635.363" gradientUnits="userSpaceOnUse"><stop offset=".03" stop-color="#65182C"/><stop offset="1" stop-color="#0F0020"/></linearGradient><linearGradient id="T" x1="121.482" y1="665.385" x2="169.488" y2="665.385" gradientUnits="userSpaceOnUse"><stop offset=".01" stop-color="#8E3C65"/><stop offset=".98" stop-color="#9B4561"/></linearGradient><linearGradient id="U" x1="143.567" y1="702.707" x2="149.06" y2="702.707" gradientUnits="userSpaceOnUse"><stop offset=".01" stop-color="#8E3C65"/><stop offset=".98" stop-color="#9B4561"/></linearGradient><linearGradient id="V" x1="520.722" y1="677.612" x2="589.796" y2="677.612" gradientUnits="userSpaceOnUse"><stop offset=".01" stop-color="#8E3C65"/><stop offset=".98" stop-color="#9B4561"/></linearGradient><linearGradient id="W" x1="573.468" y1="740.629" x2="573.468" y2="614.633" gradientUnits="userSpaceOnUse"><stop stop-color="#5E1340"/><stop offset=".98" stop-color="#3F142F"/></linearGradient><linearGradient id="X" x1="520.722" y1="743.488" x2="587.012" y2="743.488" gradientUnits="userSpaceOnUse"><stop offset=".01" stop-color="#8E3C65"/><stop offset=".98" stop-color="#9B4561"/></linearGradient><linearGradient id="Y" x1="588.213" y1="749.395" x2="588.213" y2="737.581" gradientUnits="userSpaceOnUse"><stop stop-color="#5E1340"/><stop offset=".98" stop-color="#3F142F"/></linearGradient><linearGradient id="Z" x1="555.146" y1="737.582" x2="555.146" y2="628.553" gradientUnits="userSpaceOnUse"><stop stop-color="#5E1340"/><stop offset=".98" stop-color="#3F142F"/></linearGradient><linearGradient id="aa" x1="762.553" y1="702.119" x2="711.462" y2="699.564" gradientUnits="userSpaceOnUse"><stop stop-color="#5E1340"/><stop offset=".98" stop-color="#3F142F"/></linearGradient><linearGradient id="ab" x1="694.304" y1="711.009" x2="700.604" y2="585.013" gradientUnits="userSpaceOnUse"><stop offset=".01" stop-color="#8E3C65"/><stop offset=".98" stop-color="#9B4561"/></linearGradient><linearGradient id="ac" x1="759.259" y1="767.958" x2="710.227" y2="765.506" gradientUnits="userSpaceOnUse"><stop stop-color="#5E1340"/><stop offset=".98" stop-color="#3F142F"/></linearGradient><linearGradient id="ad" x1="683.408" y1="719.253" x2="683.999" y2="707.439" gradientUnits="userSpaceOnUse"><stop offset=".01" stop-color="#8E3C65"/><stop offset=".98" stop-color="#9B4561"/></linearGradient><linearGradient id="ae" x1="754.034" y1="689.521" x2="718.499" y2="687.744" gradientUnits="userSpaceOnUse"><stop stop-color="#5E1340"/><stop offset=".98" stop-color="#3F142F"/></linearGradient><linearGradient id="af" x1="735.824" y1="726.18" x2="731.761" y2="725.977" gradientUnits="userSpaceOnUse"><stop stop-color="#5E1340"/><stop offset=".98" stop-color="#3F142F"/></linearGradient><linearGradient id="ag" x1="215.537" y1="725.843" x2="420.766" y2="725.843" gradientUnits="userSpaceOnUse"><stop offset=".01" stop-color="#8E3C65"/><stop offset=".98" stop-color="#9B4561"/></linearGradient><linearGradient id="ah" x1="314.411" y1="875.58" x2="314.411" y2="753.195" gradientUnits="userSpaceOnUse"><stop offset=".01" stop-color="#8E3C65"/><stop offset=".98" stop-color="#9B4561"/></linearGradient><linearGradient id="ai" x1="318.778" y1="798.868" x2="318.778" y2="767.19" gradientUnits="userSpaceOnUse"><stop offset=".03" stop-color="#65182C"/><stop offset="1" stop-color="#0F0020"/></linearGradient><linearGradient id="aj" x1="416.365" y1="368.208" x2="416.365" y2="171.783" gradientUnits="userSpaceOnUse"><stop stop-color="#A79BFE"/><stop offset=".99" stop-color="#AFACDB"/></linearGradient><linearGradient id="ak" x1="413.163" y1="196.914" x2="413.163" y2="85.703" gradientUnits="userSpaceOnUse"><stop stop-color="#684AA2"/><stop offset=".99" stop-color="#74589A"/></linearGradient><linearGradient id="al" x1="397.557" y1="227.84" x2="433.185" y2="227.84" gradientUnits="userSpaceOnUse"><stop stop-color="#140C11"/><stop offset=".98" stop-color="#2C2556"/></linearGradient><linearGradient id="am" x1="418.436" y1="252.106" x2="418.436" y2="211.098" gradientUnits="userSpaceOnUse"><stop offset=".03" stop-color="#65182C"/><stop offset="1" stop-color="#0F0020"/></linearGradient><linearGradient id="an" x1="84.725" y1="578.441" x2="84.725" y2="314.747" gradientUnits="userSpaceOnUse"><stop stop-color="#684AA2"/><stop offset=".99" stop-color="#665889"/></linearGradient><linearGradient id="ao" x1="504.397" y1="579.117" x2="504.397" y2="327.613" gradientUnits="userSpaceOnUse"><stop stop-color="#4E3999"/><stop offset=".99" stop-color="#665889"/></linearGradient><linearGradient id="ap" x1="306.319" y1="553.572" x2="306.319" y2="242.738" gradientUnits="userSpaceOnUse"><stop stop-color="#686EC2"/><stop offset=".99" stop-color="#8158A9"/></linearGradient><linearGradient id="aq" x1="260.573" y1="870.162" x2="350.301" y2="870.162" gradientUnits="userSpaceOnUse"><stop offset=".01" stop-color="#8E3C65"/><stop offset=".98" stop-color="#9B4561"/></linearGradient><linearGradient id="ar" x1="355.906" y1="875.58" x2="355.906" y2="864.744" gradientUnits="userSpaceOnUse"><stop stop-color="#A91A1C"/><stop offset=".98" stop-color="#CA4A0B"/></linearGradient></defs></svg>