<svg width="835" height="876" viewBox="0 0 835 876" fill="none" xmlns="http://www.w3.org/2000/svg">
<path fill-rule="evenodd" clip-rule="evenodd" d="M451.764 86.6437L457.182 51.0532L449.808 49.0216L462.976 0L471.591 50.7147L463.577 51.8057L464.744 94.6949L452.93 90.2555L447.325 92.1742L451.764 86.6437Z" fill="url(#paint0_linear_705_8244)"/>
<path fill-rule="evenodd" clip-rule="evenodd" d="M358.272 195.108L435.661 225.996L520.574 229.909L467.001 191.008L358.272 195.108Z" fill="#35052A"/>
<path fill-rule="evenodd" clip-rule="evenodd" d="M718.77 593.828L655.715 362.979L729.906 332.091L819.071 593.828H718.77Z" fill="#35052A"/>
<path fill-rule="evenodd" clip-rule="evenodd" d="M632.278 875.128L71.5575 875.542L62.8291 573.173L635.589 551.427L632.278 875.128Z" fill="url(#paint1_linear_705_8244)"/>
<path fill-rule="evenodd" clip-rule="evenodd" d="M791.417 566.213L776.181 875.128H632.276L635.587 551.427L719.07 370.389L791.417 566.213Z" fill="url(#paint2_linear_705_8244)"/>
<path fill-rule="evenodd" clip-rule="evenodd" d="M791.417 566.213L776.181 875.128H632.276L635.587 551.427L719.07 370.389L791.417 566.213Z" fill="#482E89"/>
<path fill-rule="evenodd" clip-rule="evenodd" d="M135.929 318.998L152.67 331.263L707.446 326.222L731.788 314.747L644.58 529.344L607.372 579.381L0 578.441L135.929 318.998Z" fill="url(#paint3_linear_705_8244)"/>
<path fill-rule="evenodd" clip-rule="evenodd" d="M0 578.44L12.4153 584.422L469.487 586.529L452.67 579.155L0 578.44Z" fill="#35052A"/>
<path fill-rule="evenodd" clip-rule="evenodd" d="M204.25 553.572L358.275 302.896L330.999 229.344L159.292 544.919L204.25 553.572Z" fill="#35052A"/>
<path fill-rule="evenodd" clip-rule="evenodd" d="M202.745 875.204L192.21 534.498L333.369 281.038L440.065 516.214L431.901 875.543L202.745 875.204Z" fill="url(#paint4_linear_705_8244)"/>
<path fill-rule="evenodd" clip-rule="evenodd" d="M731.789 314.747L834.384 586.529L819.072 593.828L731.789 352.633L623.362 586.529L607.373 579.381L731.789 314.747Z" fill="#410D37"/>
<path fill-rule="evenodd" clip-rule="evenodd" d="M498.041 874.301L506.205 533.068L440.065 516.213L431.901 875.542L498.041 874.301Z" fill="#4853AA"/>
<path fill-rule="evenodd" clip-rule="evenodd" d="M159.291 544.919L323.361 253.874L449.809 553.572L469.486 552.857L341.57 242.738V203.536H312.338L308.501 242.738L144.581 541.909L159.291 544.919Z" fill="url(#paint5_linear_705_8244)"/>
<path fill-rule="evenodd" clip-rule="evenodd" d="M569.258 332.091L452.667 579.156L607.369 579.381L731.786 314.747L707.444 326.222L569.258 332.091Z" fill="url(#paint6_linear_705_8244)"/>
<path fill-rule="evenodd" clip-rule="evenodd" d="M341.572 203.536L349.209 206.32V231.564L556.093 327.613L469.487 552.857L341.572 242.738V203.536Z" fill="#410D37"/>
<path fill-rule="evenodd" clip-rule="evenodd" d="M452.667 579.155L469.484 586.529H623.359L607.369 579.381L452.667 579.155Z" fill="#35052A"/>
<path fill-rule="evenodd" clip-rule="evenodd" d="M192.21 534.497L195.747 559.516L336.077 304.513L439.162 546.349L440.065 527.537L333.369 277.576L192.21 534.497Z" fill="url(#paint7_linear_705_8244)"/>
<path fill-rule="evenodd" clip-rule="evenodd" d="M431.901 875.543L440.065 527.538L423.511 506.733L418.733 875.543H431.901Z" fill="url(#paint8_linear_705_8244)"/>
<path fill-rule="evenodd" clip-rule="evenodd" d="M210.981 515.46H424.788L423.057 529.719H210.981V515.46Z" fill="url(#paint9_linear_705_8244)"/>
<path fill-rule="evenodd" clip-rule="evenodd" d="M422.081 617.417L364.255 529.457L384.835 529.72L423.096 594.468L422.081 617.417Z" fill="url(#paint10_linear_705_8244)"/>
<path fill-rule="evenodd" clip-rule="evenodd" d="M440.065 527.538L446.724 541.157L439.087 875.542H431.901L440.065 527.538Z" fill="url(#paint11_linear_705_8244)"/>
<path fill-rule="evenodd" clip-rule="evenodd" d="M220.012 515.46H228.815L339.011 311.962L336.076 304.513L220.012 515.46Z" fill="url(#paint12_linear_705_8244)"/>
<path fill-rule="evenodd" clip-rule="evenodd" d="M212.148 529.719L210.981 531.864L213.54 875.241L219.07 875.542L216.55 529.719H212.148Z" fill="url(#paint13_linear_705_8244)"/>
<path fill-rule="evenodd" clip-rule="evenodd" d="M266.136 529.719L210.981 609.967H216.55L272.908 529.719H266.136Z" fill="url(#paint14_linear_705_8244)"/>
<path fill-rule="evenodd" clip-rule="evenodd" d="M384.837 529.719L423.099 594.467L422.497 587.544L390.33 529.719H384.837Z" fill="url(#paint15_linear_705_8244)"/>
<path fill-rule="evenodd" clip-rule="evenodd" d="M202.745 875.203L192.21 534.497L210.984 515.46L213.542 875.241L202.745 875.203Z" fill="url(#paint16_linear_705_8244)"/>
<path fill-rule="evenodd" clip-rule="evenodd" d="M210.981 609.967L266.136 529.719H250.447L210.981 591.307V609.967Z" fill="url(#paint17_linear_705_8244)"/>
<path fill-rule="evenodd" clip-rule="evenodd" d="M70.5015 874.972L63.3135 584.353L77.8443 584.428L79.9203 874.559L70.5015 874.972Z" fill="url(#paint18_linear_705_8244)"/>
<path fill-rule="evenodd" clip-rule="evenodd" d="M79.8792 875.128H86.2374L83.7165 584.761L77.3584 584.723L79.8792 875.128Z" fill="url(#paint19_linear_705_8244)"/>
<path fill-rule="evenodd" clip-rule="evenodd" d="M632.274 875.128L635.886 559.516L623.358 586.529L617.376 586.491L615.081 875.128H632.274Z" fill="url(#paint20_linear_705_8244)"/>
<path fill-rule="evenodd" clip-rule="evenodd" d="M632.276 875.128L635.887 559.516L649.695 529.719L640.967 875.241L632.276 875.128Z" fill="url(#paint21_linear_705_8244)"/>
<path fill-rule="evenodd" clip-rule="evenodd" d="M782.317 541.533L768.472 875.543L776.184 875.129L791.421 566.213L782.317 541.533Z" fill="url(#paint22_linear_705_8244)"/>
<path fill-rule="evenodd" clip-rule="evenodd" d="M649.206 548.869L781.786 553.572L782.313 541.533L779.943 535.174L649.695 529.719L649.206 548.869Z" fill="#41071D"/>
<path fill-rule="evenodd" clip-rule="evenodd" d="M738.594 551.804L778.925 622.759L779.941 603.158L749.316 551.804H738.594Z" fill="#41071D"/>
<path fill-rule="evenodd" clip-rule="evenodd" d="M700.748 550.712L647.362 622.759L647.851 603.195L686.489 550.186L700.748 550.712Z" fill="#41071D"/>
<path fill-rule="evenodd" clip-rule="evenodd" d="M277.722 484.122L374.674 482.128L373.131 497.064H277.722V484.122Z" fill="url(#paint23_linear_705_8244)"/>
<path fill-rule="evenodd" clip-rule="evenodd" d="M374.671 482.128H381.48L380.766 497.064H373.128L374.671 482.128Z" fill="url(#paint24_linear_705_8244)"/>
<path fill-rule="evenodd" clip-rule="evenodd" d="M295.665 483.746C295.665 483.746 301.308 430.285 327.456 430.097C353.603 429.909 360.827 482.354 360.827 482.354L295.665 483.746Z" fill="url(#paint25_linear_705_8244)"/>
<path fill-rule="evenodd" clip-rule="evenodd" d="M304.249 483.746C304.249 483.746 309.892 430.285 336.039 430.097C362.187 429.909 369.561 482.354 369.561 482.354L304.249 483.746Z" fill="url(#paint26_linear_705_8244)"/>
<path fill-rule="evenodd" clip-rule="evenodd" d="M376.48 482.128C376.48 482.128 368.165 418.547 330.393 418.735C330.393 418.735 367.751 452.783 369.783 482.354L376.48 482.128Z" fill="url(#paint27_linear_705_8244)"/>
<path fill-rule="evenodd" clip-rule="evenodd" d="M283.63 484.009C283.63 484.009 293.374 422.572 326.218 418.885C359.062 415.198 371.628 482.316 371.628 482.316H356.579C356.579 482.316 354.171 429.909 327.61 429.909C304.172 429.909 295.82 483.558 295.82 483.558L283.63 484.009Z" fill="url(#paint28_linear_705_8244)"/>
<path fill-rule="evenodd" clip-rule="evenodd" d="M327.607 483.256L305.674 454.852L308.232 449.171L330.392 482.993L327.607 483.256Z" fill="url(#paint29_linear_705_8244)"/>
<path fill-rule="evenodd" clip-rule="evenodd" d="M349.392 449.171L327.608 483.256L332.085 482.805L351.122 453.798L349.392 449.171Z" fill="url(#paint30_linear_705_8244)"/>
<path fill-rule="evenodd" clip-rule="evenodd" d="M284.649 687.281L280.698 609.779L315.198 563.203L349.735 609.779L342.85 689.237L284.649 687.281Z" fill="url(#paint31_linear_705_8244)"/>
<path fill-rule="evenodd" clip-rule="evenodd" d="M315.199 563.203H317.908L351.617 609.779L348.156 689.237H342.851L348.156 609.779L315.199 563.203Z" fill="url(#paint32_linear_705_8244)"/>
<path fill-rule="evenodd" clip-rule="evenodd" d="M280.698 686.153L282.354 697.966H344.731L346.988 686.153H280.698Z" fill="url(#paint33_linear_705_8244)"/>
<path fill-rule="evenodd" clip-rule="evenodd" d="M346.988 686.153L351.615 686.642L349.283 697.966H344.73L346.988 686.153Z" fill="url(#paint34_linear_705_8244)"/>
<path fill-rule="evenodd" clip-rule="evenodd" d="M291.459 686.152L289.164 612.714L315.199 577.124L341.045 613.655L336.831 686.152H291.459Z" fill="url(#paint35_linear_705_8244)"/>
<path fill-rule="evenodd" clip-rule="evenodd" d="M299.098 686.153L296.314 616.477L320.054 583.971L341.047 613.655L336.833 686.153H299.098Z" fill="url(#paint36_linear_705_8244)"/>
<path fill-rule="evenodd" clip-rule="evenodd" d="M293.036 616.476L295.67 611.51H339.537L341.042 613.655L340.892 616.476H293.036Z" fill="url(#paint37_linear_705_8244)"/>
<path fill-rule="evenodd" clip-rule="evenodd" d="M315.087 686.152L315.2 616.476H320.58L318.774 686.152H315.087Z" fill="url(#paint38_linear_705_8244)"/>
<path fill-rule="evenodd" clip-rule="evenodd" d="M113.092 738.711L109.142 661.209L143.679 614.633L178.178 661.209L171.293 740.629L113.092 738.711Z" fill="url(#paint39_linear_705_8244)"/>
<path fill-rule="evenodd" clip-rule="evenodd" d="M143.678 614.633H146.386L180.058 661.209L176.635 740.629H171.292L176.635 661.209L143.678 614.633Z" fill="url(#paint40_linear_705_8244)"/>
<path fill-rule="evenodd" clip-rule="evenodd" d="M109.142 737.544L110.834 749.395H173.174L175.432 737.544H109.142Z" fill="url(#paint41_linear_705_8244)"/>
<path fill-rule="evenodd" clip-rule="evenodd" d="M175.43 737.544L180.057 738.07L177.725 749.395H173.172L175.43 737.544Z" fill="url(#paint42_linear_705_8244)"/>
<path fill-rule="evenodd" clip-rule="evenodd" d="M119.9 737.545L117.605 664.144L143.678 628.553L169.486 665.047L165.273 737.545H119.9Z" fill="url(#paint43_linear_705_8244)"/>
<path fill-rule="evenodd" clip-rule="evenodd" d="M127.576 737.545L124.792 667.868L148.494 635.363L169.487 665.047L165.273 737.545H127.576Z" fill="url(#paint44_linear_705_8244)"/>
<path fill-rule="evenodd" clip-rule="evenodd" d="M121.482 667.868L124.116 662.94H167.983L169.488 665.047L169.337 667.868H121.482Z" fill="url(#paint45_linear_705_8244)"/>
<path fill-rule="evenodd" clip-rule="evenodd" d="M143.567 737.545L143.68 667.869H149.06L147.217 737.545H143.567Z" fill="url(#paint46_linear_705_8244)"/>
<path fill-rule="evenodd" clip-rule="evenodd" d="M524.672 738.711L520.722 661.209L555.259 614.633L589.796 661.209L582.912 740.629L524.672 738.711Z" fill="url(#paint47_linear_705_8244)"/>
<path fill-rule="evenodd" clip-rule="evenodd" d="M555.259 614.633H557.968L591.64 661.209L588.216 740.629H582.911L588.216 661.209L555.259 614.633Z" fill="url(#paint48_linear_705_8244)"/>
<path fill-rule="evenodd" clip-rule="evenodd" d="M520.722 737.544L522.415 749.395H584.793L587.012 737.544H520.722Z" fill="url(#paint49_linear_705_8244)"/>
<path fill-rule="evenodd" clip-rule="evenodd" d="M587.009 737.544L591.637 738.07L589.342 749.395H584.79L587.009 737.544Z" fill="url(#paint50_linear_705_8244)"/>
<path fill-rule="evenodd" clip-rule="evenodd" d="M531.481 737.545L529.224 664.144L555.259 628.553L581.105 665.047L576.854 737.545H531.481Z" fill="url(#paint51_linear_705_8244)"/>
<path fill-rule="evenodd" clip-rule="evenodd" d="M539.157 737.545L536.373 667.868L560.074 635.363L581.105 665.047L576.854 737.545H539.157Z" fill="#FFFF9C"/>
<path fill-rule="evenodd" clip-rule="evenodd" d="M533.096 667.868L535.73 662.94H579.597L581.102 665.047L580.914 667.868H533.096Z" fill="#FF6848"/>
<path fill-rule="evenodd" clip-rule="evenodd" d="M555.147 737.545L555.26 667.869H560.64L558.834 737.545H555.147Z" fill="#FF6848"/>
<path fill-rule="evenodd" clip-rule="evenodd" d="M743.831 731.863L750.377 654.587L726.901 606.845L699.099 652.18L700.491 731.788L743.831 731.863Z" fill="url(#paint52_linear_705_8244)"/>
<path fill-rule="evenodd" clip-rule="evenodd" d="M726.898 606.845L721.48 608.35L693.941 651.465L694.129 731.487L700.487 731.788L700.224 652.255L726.898 606.845Z" fill="url(#paint53_linear_705_8244)"/>
<path fill-rule="evenodd" clip-rule="evenodd" d="M746.802 730.848L745.033 742.623L698.683 740.441L697.592 728.553L746.802 730.848Z" fill="url(#paint54_linear_705_8244)"/>
<path fill-rule="evenodd" clip-rule="evenodd" d="M697.592 728.553L691.384 729.155V740.103L698.682 740.441L697.592 728.553Z" fill="url(#paint55_linear_705_8244)"/>
<path fill-rule="evenodd" clip-rule="evenodd" d="M738.826 730.472L743.943 657.221L726.223 620.765L705.342 656.356L705.117 728.929L738.826 730.472Z" fill="#41071D"/>
<path fill-rule="evenodd" clip-rule="evenodd" d="M733.108 730.208L738.45 660.72L722.348 627.424L705.342 656.356L705.117 728.929L733.108 730.208Z" fill="#20071D"/>
<path fill-rule="evenodd" clip-rule="evenodd" d="M740.899 660.832L739.168 655.791L706.587 654.286L705.346 656.355V659.177L740.899 660.832Z" fill="url(#paint56_linear_705_8244)"/>
<path fill-rule="evenodd" clip-rule="evenodd" d="M721.258 729.681L724.418 660.043L720.43 659.855L718.549 729.531L721.258 729.681Z" fill="url(#paint57_linear_705_8244)"/>
<path fill-rule="evenodd" clip-rule="evenodd" d="M215.537 718.695H420.766L420.615 732.992H215.537V718.695Z" fill="url(#paint58_linear_705_8244)"/>
<path fill-rule="evenodd" clip-rule="evenodd" d="M286.796 875.73L279.987 796.422C279.987 796.422 287.511 753.495 317.985 753.345C346.578 753.345 356.021 794.729 356.021 794.729L350.754 875.73H286.796Z" fill="#41071D"/>
<path fill-rule="evenodd" clip-rule="evenodd" d="M283.034 875.73L276.262 796.423C276.262 796.423 283.786 753.496 314.26 753.345C342.815 753.345 352.258 794.73 352.258 794.73L346.991 875.73H283.034Z" fill="url(#paint59_linear_705_8244)"/>
<path fill-rule="evenodd" clip-rule="evenodd" d="M343.229 800.712L339.241 872.72H290.746L285.63 802.141C285.63 802.141 288.941 762.45 314.373 762.412C315.304 762.418 316.234 762.48 317.157 762.6C338.828 765.384 343.229 800.712 343.229 800.712Z" fill="#41071D"/>
<path fill-rule="evenodd" clip-rule="evenodd" d="M343.226 800.712L339.238 872.72H296.273L291.119 802.141C291.119 802.141 294.166 765.384 317.154 762.6C338.824 765.384 343.226 800.712 343.226 800.712Z" fill="#841648"/>
<path fill-rule="evenodd" clip-rule="evenodd" d="M296.505 798.868H341.05C341.05 798.868 335.482 767.19 318.778 767.19C300.192 767.19 296.505 798.868 296.505 798.868Z" fill="url(#paint60_linear_705_8244)"/>
<path fill-rule="evenodd" clip-rule="evenodd" d="M380.06 245.898L444.732 368.208L452.67 171.783H384.838L380.06 245.898Z" fill="url(#paint61_linear_705_8244)"/>
<path fill-rule="evenodd" clip-rule="evenodd" d="M452.669 171.783L499.922 216.741L493.338 378.178L444.73 368.208L452.669 171.783Z" fill="#482E89"/>
<path fill-rule="evenodd" clip-rule="evenodd" d="M358.272 195.108L373.735 176.034L385.962 131.602L457.369 85.7029L468.054 121.482L463.953 172.535L467.001 196.914L358.272 195.108Z" fill="url(#paint62_linear_705_8244)"/>
<path fill-rule="evenodd" clip-rule="evenodd" d="M457.37 85.7029L507.445 146.688V203.535L520.575 229.909L467.001 196.914L463.954 172.535L468.054 121.482L457.37 85.7029Z" fill="#410D37"/>
<g style="mix-blend-mode:screen" opacity="0.2">
<path fill-rule="evenodd" clip-rule="evenodd" d="M385.968 131.602L468.06 121.482L457.375 85.7029L385.968 131.602Z" fill="#7268CC"/>
</g>
<path fill-rule="evenodd" clip-rule="evenodd" d="M397.557 250.864L399.099 203.536H433.147L429.987 252.143L397.557 250.864Z" fill="url(#paint63_linear_705_8244)"/>
<path fill-rule="evenodd" clip-rule="evenodd" d="M404.177 251.128L406.246 211.098H432.657L429.985 252.143L404.177 251.128Z" fill="url(#paint64_linear_705_8244)"/>
<g style="mix-blend-mode:multiply" opacity="0.5">
<path fill-rule="evenodd" clip-rule="evenodd" d="M382.317 211.098L450.526 224.077L498.118 261.21L499.811 219.299L467.004 196.914L382.317 195.484V211.098Z" fill="#98256B"/>
</g>
<path fill-rule="evenodd" clip-rule="evenodd" d="M358.272 195.108L369.333 196.914L466.097 200.337L514.893 229.306L520.574 229.908L466.775 195.108H358.272Z" fill="#410D37"/>
<path fill-rule="evenodd" clip-rule="evenodd" d="M731.789 314.747L681.225 414.747L682.88 418.772L626.974 522.572L630.849 529.457L607.373 579.381L623.362 586.529L731.789 352.633L819.072 593.828L834.384 586.529L817.379 541.533L821.33 539.276L779.945 434.686L782.315 432.843L731.789 314.747Z" fill="#410D37"/>
<path fill-rule="evenodd" clip-rule="evenodd" d="M731.789 314.747L681.225 414.747L682.88 418.772L626.974 522.572L630.849 529.457L607.373 579.381L623.362 586.529L731.789 352.633L819.072 593.828L834.384 586.529L817.379 541.533L821.33 539.276L779.945 434.686L782.315 432.843L731.789 314.747Z" fill="#410D37"/>
<path fill-rule="evenodd" clip-rule="evenodd" d="M135.929 318.998L80.4736 409.969L86.0795 414.069L27.6145 515.461L32.5807 516.214L0 578.441L72.9117 578.29L169.488 331.113L152.67 331.263L143.566 314.747L135.929 318.998Z" fill="url(#paint65_linear_705_8244)"/>
<path fill-rule="evenodd" clip-rule="evenodd" d="M452.667 579.155L482.727 515.461H477.911L515.721 432.654L511.658 431.262L556.09 327.613L469.484 578.29L452.667 579.155Z" fill="url(#paint66_linear_705_8244)"/>
<g style="mix-blend-mode:screen" opacity="0.2">
<path fill-rule="evenodd" clip-rule="evenodd" d="M511.657 431.262L623.357 430.096L669.67 326.635L556.088 327.613L511.657 431.262Z" fill="#7268CC"/>
</g>
<g style="mix-blend-mode:screen" opacity="0.2">
<path fill-rule="evenodd" clip-rule="evenodd" d="M626.969 522.571H587.202L640.964 424.114L682.875 418.771L626.969 522.571Z" fill="#7268CC"/>
</g>
<g style="mix-blend-mode:multiply" opacity="0.3">
<path fill-rule="evenodd" clip-rule="evenodd" d="M452.667 579.155L482.727 515.46L568.505 516.213L542.697 578.289L452.667 579.155Z" fill="#D55C63"/>
</g>
<path fill-rule="evenodd" clip-rule="evenodd" d="M626.969 522.571H531.07L630.844 529.456L626.969 522.571Z" fill="#410D37"/>
<path fill-rule="evenodd" clip-rule="evenodd" d="M577.231 430.096L535.17 522.571H539.722L577.231 430.096Z" fill="#410D37"/>
<path fill-rule="evenodd" clip-rule="evenodd" d="M511.657 431.262L515.72 432.654L623.357 430.096L511.657 431.262Z" fill="#410D37"/>
<path fill-rule="evenodd" clip-rule="evenodd" d="M669.675 326.635L635.589 402.745L675.205 327.613L669.675 326.635Z" fill="#410D37"/>
<path fill-rule="evenodd" clip-rule="evenodd" d="M80.4722 409.968H178.177L86.0781 414.069L80.4722 409.968Z" fill="#410D37"/>
<path fill-rule="evenodd" clip-rule="evenodd" d="M124.567 516.213L178.178 409.968L120.654 510.908L27.6143 515.46L32.5804 516.213H124.567Z" fill="#410D37"/>
<g style="mix-blend-mode:screen" opacity="0.2">
<path fill-rule="evenodd" clip-rule="evenodd" d="M27.6143 515.46L120.654 510.908L178.178 409.968L86.0792 414.069L27.6143 515.46Z" fill="#7268CC"/>
</g>
<g style="mix-blend-mode:multiply" opacity="0.3">
<path fill-rule="evenodd" clip-rule="evenodd" d="M169.487 331.112L124.792 396.086L219.073 391.458L258.764 330.284L169.487 331.112Z" fill="#D55C63"/>
</g>
<g style="mix-blend-mode:screen" opacity="0.2">
<path fill-rule="evenodd" clip-rule="evenodd" d="M44.6577 578.29L68.51 547.289H129.308L109.142 579.381L44.6577 578.29Z" fill="#7268CC"/>
</g>
<path fill-rule="evenodd" clip-rule="evenodd" d="M341.57 242.738L384.836 337.734L382.315 341.459L439.313 468.847L435.588 470.653L468.056 549.358L449.809 553.572L323.361 253.874L159.291 544.919L144.581 541.909L177.237 482.353L169.487 482.128L224.49 396.086L221.857 392.888L308.501 242.738H341.57Z" fill="url(#paint67_linear_705_8244)"/>
<path fill-rule="evenodd" clip-rule="evenodd" d="M542.243 579.381L558.007 541.533L535.17 579.155L542.243 579.381Z" fill="#410D37"/>
<path fill-rule="evenodd" clip-rule="evenodd" d="M109.141 579.381L129.306 547.289L114.859 579.155L109.141 579.381Z" fill="#410D37"/>
<g style="mix-blend-mode:multiply" opacity="0.5">
<path fill-rule="evenodd" clip-rule="evenodd" d="M63.7322 614.632L196.237 664.783L193.754 584.723L62.8291 584.647L63.7322 614.632Z" fill="#98256B"/>
</g>
<g style="mix-blend-mode:multiply" opacity="0.5">
<path fill-rule="evenodd" clip-rule="evenodd" d="M192.21 534.497L193.339 570.314L372.834 371.105L440.065 530.472V579.381L431.901 875.542L487.695 874.526L517.83 630.547L635.888 621.517L731.787 490.404L790.365 587.281L791.418 566.213L720.877 375.243L623.36 586.529H469.486L452.669 579.155L465.046 552.857L449.809 553.572L333.369 277.576L192.21 534.497Z" fill="#98256B"/>
</g>
<path fill-rule="evenodd" clip-rule="evenodd" d="M260.573 875.58L264.335 864.744H350.301V875.58H260.573Z" fill="url(#paint68_linear_705_8244)"/>
<path fill-rule="evenodd" clip-rule="evenodd" d="M350.301 864.744L361.474 867.115V875.354L350.301 875.58V864.744Z" fill="url(#paint69_linear_705_8244)"/>
<g style="mix-blend-mode:screen" opacity="0.2">
<path fill-rule="evenodd" clip-rule="evenodd" d="M382.317 341.458L420.804 345.145L475.732 470.577L439.314 468.847L382.317 341.458Z" fill="#7268CC"/>
</g>
<g style="mix-blend-mode:multiply" opacity="0.3">
<path fill-rule="evenodd" clip-rule="evenodd" d="M503.383 303.121L535.174 382.053L556.092 327.613L503.383 303.121Z" fill="#D55C63"/>
</g>
<path fill-rule="evenodd" clip-rule="evenodd" d="M439.314 468.847L490.18 472.27L435.59 470.653L439.314 468.847Z" fill="#35052A"/>
<g style="mix-blend-mode:multiply" opacity="0.5">
<path fill-rule="evenodd" clip-rule="evenodd" d="M124.791 831.336L117.605 804.436L149.058 774.94L196.236 783.029L191.796 837.882L173.173 856.505L138.034 844.579L124.791 831.336Z" fill="#BDAFD9"/>
</g>
<g style="mix-blend-mode:multiply" opacity="0.5">
<path fill-rule="evenodd" clip-rule="evenodd" d="M111.474 801.69L109.142 794.88L97.4785 798.304V806.468H109.142L111.474 801.69Z" fill="#BDAFD9"/>
</g>
<g style="mix-blend-mode:multiply" opacity="0.5">
<path fill-rule="evenodd" clip-rule="evenodd" d="M114.182 794.88V788.409H120.653L117.606 794.88H114.182Z" fill="#BDAFD9"/>
</g>
<g style="mix-blend-mode:multiply" opacity="0.5">
<path fill-rule="evenodd" clip-rule="evenodd" d="M643.527 774.94L691.382 832.389L737.394 860.343V875.128L640.969 875.241L643.527 774.94Z" fill="#BDAFD9"/>
</g>
<g style="mix-blend-mode:multiply" opacity="0.5">
<path fill-rule="evenodd" clip-rule="evenodd" d="M737.389 812.977L746.795 848.04L743.935 875.128L768.465 875.542L772.152 786.34L737.389 812.977Z" fill="#BDAFD9"/>
</g>
<g style="mix-blend-mode:multiply" opacity="0.5">
<path fill-rule="evenodd" clip-rule="evenodd" d="M577.237 800.674L560.646 844.579L589.803 875.128H615.085L615.649 806.468L592.211 795.558L577.237 800.674Z" fill="#BDAFD9"/>
</g>
<g style="mix-blend-mode:multiply" opacity="0.5">
<path fill-rule="evenodd" clip-rule="evenodd" d="M549.696 841.683L553.872 849.395L537.996 867.115L524.715 856.506L529.23 828.966H539.312L549.696 841.683Z" fill="#BDAFD9"/>
</g>
<g style="mix-blend-mode:multiply" opacity="0.5">
<path fill-rule="evenodd" clip-rule="evenodd" d="M404.101 676.671L408.277 684.384L392.401 702.142L379.083 691.495L383.597 663.955H393.68L404.101 676.671Z" fill="#BDAFD9"/>
</g>
<g style="mix-blend-mode:multiply" opacity="0.5">
<path fill-rule="evenodd" clip-rule="evenodd" d="M544.168 815.723L542.211 809.215L545.296 806.581L555.153 809.215L552.67 814.783L544.168 815.723Z" fill="#BDAFD9"/>
</g>
<g style="mix-blend-mode:multiply" opacity="0.5">
<path fill-rule="evenodd" clip-rule="evenodd" d="M361.361 765.158L359.405 758.65L362.49 756.054L372.347 758.65L369.864 764.218L361.361 765.158Z" fill="#BDAFD9"/>
</g>
<g style="mix-blend-mode:multiply" opacity="0.3">
<path fill-rule="evenodd" clip-rule="evenodd" d="M272.91 515.46L313.843 525.393L336.83 529.456L353.459 529.719L324.113 522.571L301.164 515.46H272.91Z" fill="#D55C63"/>
</g>
<g style="mix-blend-mode:multiply" opacity="0.3">
<path fill-rule="evenodd" clip-rule="evenodd" d="M327.61 515.46L330.394 520.201L351.613 524.828L369.408 529.456H376.481L356.466 523.775L341.041 519.712L336.827 515.46H327.61Z" fill="#D55C63"/>
</g>
<g style="mix-blend-mode:multiply" opacity="0.3">
<path fill-rule="evenodd" clip-rule="evenodd" d="M381.485 555.641L396.685 562.112L415.082 588.711L422.606 605.754L422.155 611.51L412.223 588.372L396.346 564.52L385.737 562.112L381.485 555.641Z" fill="#D55C63"/>
</g>
<g style="mix-blend-mode:multiply" opacity="0.3">
<path fill-rule="evenodd" clip-rule="evenodd" d="M374.675 545.296L401.236 557.485L397.624 551.39L384.833 548.343L371.176 539.953L374.675 545.296Z" fill="#D55C63"/>
</g>
<g style="mix-blend-mode:multiply" opacity="0.3">
<path fill-rule="evenodd" clip-rule="evenodd" d="M223.474 718.695L279.531 729.944L341.57 732.992H355.904L318.771 726.897L296.498 727.913L280.697 727.424L264.482 720.087L262.074 718.695H223.474Z" fill="#D55C63"/>
</g>
<g style="mix-blend-mode:multiply" opacity="0.3">
<path fill-rule="evenodd" clip-rule="evenodd" d="M352.065 718.695L379.078 732.992H381.485L366.775 718.695H352.065Z" fill="#D55C63"/>
</g>
<g style="mix-blend-mode:multiply" opacity="0.3">
<path fill-rule="evenodd" clip-rule="evenodd" d="M421.895 631.638L431.903 659.253L429.419 697.966L434.875 758.425L434.461 767.19L429.419 749.395L428.404 699.433L427.012 687.883L429.419 657.56L421.782 642.548L421.895 631.638Z" fill="#D55C63"/>
</g>
<g style="mix-blend-mode:multiply" opacity="0.3">
<path fill-rule="evenodd" clip-rule="evenodd" d="M420.576 734.685L425.655 774.94L433.744 794.88V803.759L431.9 798.868L427.16 780.019L424.075 774.79L420.35 750.486L420.576 734.685Z" fill="#D55C63"/>
</g>
<g style="mix-blend-mode:multiply" opacity="0.3">
<path fill-rule="evenodd" clip-rule="evenodd" d="M66.3638 702.707L78.7416 761.021V781.713L82.5789 826.709L82.3532 800.675L80.4721 780.472V760.682L74.4903 713.504L66.3638 692.887V702.707Z" fill="#D55C63"/>
</g>
<g style="mix-blend-mode:multiply" opacity="0.3">
<path fill-rule="evenodd" clip-rule="evenodd" d="M67.231 725.844L74.492 774.94L72.9119 823.623L70.4287 837.882L67.231 725.844Z" fill="#D55C63"/>
</g>
<g style="mix-blend-mode:multiply" opacity="0.3">
<path fill-rule="evenodd" clip-rule="evenodd" d="M202.743 875.203L197.74 713.315L202.743 729.944L202.894 749.395L212.901 788.409V811.773L210.983 789.764L202.894 762.412V756.882V793.187L208.086 821.968L213.278 837.882L213.541 875.241L202.743 875.203Z" fill="#D55C63"/>
</g>
<g style="mix-blend-mode:multiply" opacity="0.5">
<path fill-rule="evenodd" clip-rule="evenodd" d="M444.73 368.208L499.922 383.557L494.505 353.234L493.338 378.177L444.73 368.208Z" fill="#98256B"/>
</g>
<path fill-rule="evenodd" clip-rule="evenodd" d="M221.856 392.888L308.5 242.738L312.338 203.536H341.57L349.208 206.32V231.564L380.057 245.898L382.089 204.627L361.134 195.56L373.737 176.034L385.964 131.602L447.326 92.1742L451.765 86.6437L457.183 51.0532L449.809 49.0216L462.977 0L446.573 50.2255L452.668 53.3858L444.73 88.8635L439.425 92.889L380.057 129.42L369.26 175.319L354.512 196.914L380.057 210.082L377.575 240.368L352.819 229.909L353.496 204.363L340.404 199.962L307.033 201.467L304.437 241.346L221.856 392.888Z" fill="#C5E8FF"/>
<path fill-rule="evenodd" clip-rule="evenodd" d="M77.6902 428.666L86.0801 414.069L80.4742 409.968L135.929 318.998L143.567 314.746L152.671 331.262L255.944 330.322L153.95 325.732L144.582 310.457L129.308 317.267L75.6587 409.968L80.4742 414.52L77.6902 428.666Z" fill="#C5E8FF"/>
<path fill-rule="evenodd" clip-rule="evenodd" d="M496.498 300.149L556.092 327.613L707.445 326.221L731.787 314.747L702.555 323.362L556.204 322.045L496.761 294.243L496.498 300.149Z" fill="#C5E8FF"/>
<defs>
<linearGradient id="paint0_linear_705_8244" x1="459.439" y1="94.6949" x2="459.439" y2="0" gradientUnits="userSpaceOnUse">
<stop stop-color="#B498B0"/>
<stop offset="0.12" stop-color="#946E8F"/>
<stop offset="0.99" stop-color="#9F8697"/>
</linearGradient>
<linearGradient id="paint1_linear_705_8244" x1="349.209" y1="875.542" x2="349.209" y2="551.427" gradientUnits="userSpaceOnUse">
<stop stop-color="#A79BFE"/>
<stop offset="0.99" stop-color="#AFACDB"/>
</linearGradient>
<linearGradient id="paint2_linear_705_8244" x1="711.847" y1="875.128" x2="711.847" y2="370.389" gradientUnits="userSpaceOnUse">
<stop stop-color="#AE951E"/>
<stop offset="0.99" stop-color="#CEB32D"/>
</linearGradient>
<linearGradient id="paint3_linear_705_8244" x1="365.875" y1="579.381" x2="365.875" y2="314.747" gradientUnits="userSpaceOnUse">
<stop stop-color="#4E3999"/>
<stop offset="0.99" stop-color="#665889"/>
</linearGradient>
<linearGradient id="paint4_linear_705_8244" x1="316.138" y1="875.543" x2="316.138" y2="281.038" gradientUnits="userSpaceOnUse">
<stop stop-color="#A79BFE"/>
<stop offset="0.99" stop-color="#AFACDB"/>
</linearGradient>
<linearGradient id="paint5_linear_705_8244" x1="307.033" y1="553.572" x2="307.033" y2="203.536" gradientUnits="userSpaceOnUse">
<stop stop-color="#686EC2"/>
<stop offset="0.99" stop-color="#8158A9"/>
</linearGradient>
<linearGradient id="paint6_linear_705_8244" x1="592.207" y1="579.381" x2="592.207" y2="314.747" gradientUnits="userSpaceOnUse">
<stop stop-color="#4E3999"/>
<stop offset="0.99" stop-color="#665889"/>
</linearGradient>
<linearGradient id="paint7_linear_705_8244" x1="316.138" y1="559.516" x2="316.138" y2="277.576" gradientUnits="userSpaceOnUse">
<stop offset="0.01" stop-color="#8E3C65"/>
<stop offset="0.98" stop-color="#9B4561"/>
</linearGradient>
<linearGradient id="paint8_linear_705_8244" x1="429.418" y1="875.543" x2="429.418" y2="506.733" gradientUnits="userSpaceOnUse">
<stop offset="0.01" stop-color="#8E3C65"/>
<stop offset="0.98" stop-color="#9B4561"/>
</linearGradient>
<linearGradient id="paint9_linear_705_8244" x1="210.981" y1="522.571" x2="424.788" y2="522.571" gradientUnits="userSpaceOnUse">
<stop offset="0.01" stop-color="#8E3C65"/>
<stop offset="0.98" stop-color="#9B4561"/>
</linearGradient>
<linearGradient id="paint10_linear_705_8244" x1="364.255" y1="573.437" x2="423.096" y2="573.437" gradientUnits="userSpaceOnUse">
<stop offset="0.01" stop-color="#8E3C65"/>
<stop offset="0.98" stop-color="#9B4561"/>
</linearGradient>
<linearGradient id="paint11_linear_705_8244" x1="439.312" y1="875.542" x2="439.312" y2="527.538" gradientUnits="userSpaceOnUse">
<stop stop-color="#5E1340"/>
<stop offset="0.98" stop-color="#3F142F"/>
</linearGradient>
<linearGradient id="paint12_linear_705_8244" x1="220.012" y1="409.968" x2="339.011" y2="409.968" gradientUnits="userSpaceOnUse">
<stop stop-color="#5E1340"/>
<stop offset="0.98" stop-color="#3F142F"/>
</linearGradient>
<linearGradient id="paint13_linear_705_8244" x1="215.045" y1="875.542" x2="215.045" y2="529.719" gradientUnits="userSpaceOnUse">
<stop stop-color="#5E1340"/>
<stop offset="0.98" stop-color="#3F142F"/>
</linearGradient>
<linearGradient id="paint14_linear_705_8244" x1="210.981" y1="569.824" x2="272.908" y2="569.824" gradientUnits="userSpaceOnUse">
<stop stop-color="#5E1340"/>
<stop offset="0.98" stop-color="#3F142F"/>
</linearGradient>
<linearGradient id="paint15_linear_705_8244" x1="384.837" y1="562.112" x2="423.099" y2="562.112" gradientUnits="userSpaceOnUse">
<stop stop-color="#5E1340"/>
<stop offset="0.98" stop-color="#3F142F"/>
</linearGradient>
<linearGradient id="paint16_linear_705_8244" x1="202.858" y1="875.241" x2="202.858" y2="515.46" gradientUnits="userSpaceOnUse">
<stop offset="0.01" stop-color="#8E3C65"/>
<stop offset="0.98" stop-color="#9B4561"/>
</linearGradient>
<linearGradient id="paint17_linear_705_8244" x1="210.981" y1="569.824" x2="266.136" y2="569.824" gradientUnits="userSpaceOnUse">
<stop offset="0.01" stop-color="#8E3C65"/>
<stop offset="0.98" stop-color="#9B4561"/>
</linearGradient>
<linearGradient id="paint18_linear_705_8244" x1="71.6169" y1="874.972" x2="71.6169" y2="584.353" gradientUnits="userSpaceOnUse">
<stop offset="0.01" stop-color="#8E3C65"/>
<stop offset="0.98" stop-color="#9B4561"/>
</linearGradient>
<linearGradient id="paint19_linear_705_8244" x1="81.7979" y1="875.128" x2="81.7979" y2="584.723" gradientUnits="userSpaceOnUse">
<stop stop-color="#5E1340"/>
<stop offset="0.98" stop-color="#3F142F"/>
</linearGradient>
<linearGradient id="paint20_linear_705_8244" x1="625.502" y1="875.128" x2="625.502" y2="559.516" gradientUnits="userSpaceOnUse">
<stop offset="0.01" stop-color="#8E3C65"/>
<stop offset="0.98" stop-color="#9B4561"/>
</linearGradient>
<linearGradient id="paint21_linear_705_8244" x1="640.967" y1="875.241" x2="640.967" y2="529.719" gradientUnits="userSpaceOnUse">
<stop stop-color="#5E1340"/>
<stop offset="0.98" stop-color="#3F142F"/>
</linearGradient>
<linearGradient id="paint22_linear_705_8244" x1="779.946" y1="875.543" x2="779.946" y2="541.533" gradientUnits="userSpaceOnUse">
<stop stop-color="#5E1340"/>
<stop offset="0.98" stop-color="#3F142F"/>
</linearGradient>
<linearGradient id="paint23_linear_705_8244" x1="277.722" y1="489.577" x2="374.674" y2="489.577" gradientUnits="userSpaceOnUse">
<stop offset="0.01" stop-color="#8E3C65"/>
<stop offset="0.98" stop-color="#9B4561"/>
</linearGradient>
<linearGradient id="paint24_linear_705_8244" x1="373.128" y1="489.577" x2="381.48" y2="489.577" gradientUnits="userSpaceOnUse">
<stop stop-color="#5E1340"/>
<stop offset="0.98" stop-color="#3F142F"/>
</linearGradient>
<linearGradient id="paint25_linear_705_8244" x1="328.246" y1="483.746" x2="328.246" y2="430.097" gradientUnits="userSpaceOnUse">
<stop stop-color="#5E1340"/>
<stop offset="0.98" stop-color="#3F142F"/>
</linearGradient>
<linearGradient id="paint26_linear_705_8244" x1="336.829" y1="483.746" x2="336.829" y2="430.097" gradientUnits="userSpaceOnUse">
<stop offset="0.03" stop-color="#65182C"/>
<stop offset="1" stop-color="#0F0020"/>
</linearGradient>
<linearGradient id="paint27_linear_705_8244" x1="330.393" y1="450.526" x2="376.48" y2="450.526" gradientUnits="userSpaceOnUse">
<stop stop-color="#5E1340"/>
<stop offset="0.98" stop-color="#3F142F"/>
</linearGradient>
<linearGradient id="paint28_linear_705_8244" x1="283.63" y1="451.391" x2="371.628" y2="451.391" gradientUnits="userSpaceOnUse">
<stop offset="0.01" stop-color="#8E3C65"/>
<stop offset="0.98" stop-color="#9B4561"/>
</linearGradient>
<linearGradient id="paint29_linear_705_8244" x1="305.674" y1="466.213" x2="330.392" y2="466.213" gradientUnits="userSpaceOnUse">
<stop offset="0.01" stop-color="#8E3C65"/>
<stop offset="0.98" stop-color="#9B4561"/>
</linearGradient>
<linearGradient id="paint30_linear_705_8244" x1="327.608" y1="466.213" x2="351.122" y2="466.213" gradientUnits="userSpaceOnUse">
<stop offset="0.01" stop-color="#8E3C65"/>
<stop offset="0.98" stop-color="#9B4561"/>
</linearGradient>
<linearGradient id="paint31_linear_705_8244" x1="280.698" y1="626.22" x2="349.735" y2="626.22" gradientUnits="userSpaceOnUse">
<stop offset="0.01" stop-color="#8E3C65"/>
<stop offset="0.98" stop-color="#9B4561"/>
</linearGradient>
<linearGradient id="paint32_linear_705_8244" x1="333.408" y1="689.237" x2="333.408" y2="563.203" gradientUnits="userSpaceOnUse">
<stop stop-color="#5E1340"/>
<stop offset="0.98" stop-color="#3F142F"/>
</linearGradient>
<linearGradient id="paint33_linear_705_8244" x1="280.698" y1="692.06" x2="346.988" y2="692.06" gradientUnits="userSpaceOnUse">
<stop offset="0.01" stop-color="#8E3C65"/>
<stop offset="0.98" stop-color="#9B4561"/>
</linearGradient>
<linearGradient id="paint34_linear_705_8244" x1="348.154" y1="697.966" x2="348.154" y2="686.153" gradientUnits="userSpaceOnUse">
<stop stop-color="#5E1340"/>
<stop offset="0.98" stop-color="#3F142F"/>
</linearGradient>
<linearGradient id="paint35_linear_705_8244" x1="315.086" y1="686.152" x2="315.086" y2="577.124" gradientUnits="userSpaceOnUse">
<stop stop-color="#5E1340"/>
<stop offset="0.98" stop-color="#3F142F"/>
</linearGradient>
<linearGradient id="paint36_linear_705_8244" x1="318.699" y1="686.153" x2="318.699" y2="583.971" gradientUnits="userSpaceOnUse">
<stop offset="0.03" stop-color="#65182C"/>
<stop offset="1" stop-color="#0F0020"/>
</linearGradient>
<linearGradient id="paint37_linear_705_8244" x1="293.036" y1="613.993" x2="341.042" y2="613.993" gradientUnits="userSpaceOnUse">
<stop offset="0.01" stop-color="#8E3C65"/>
<stop offset="0.98" stop-color="#9B4561"/>
</linearGradient>
<linearGradient id="paint38_linear_705_8244" x1="315.087" y1="651.314" x2="320.58" y2="651.314" gradientUnits="userSpaceOnUse">
<stop offset="0.01" stop-color="#8E3C65"/>
<stop offset="0.98" stop-color="#9B4561"/>
</linearGradient>
<linearGradient id="paint39_linear_705_8244" x1="109.142" y1="677.612" x2="178.178" y2="677.612" gradientUnits="userSpaceOnUse">
<stop offset="0.01" stop-color="#8E3C65"/>
<stop offset="0.98" stop-color="#9B4561"/>
</linearGradient>
<linearGradient id="paint40_linear_705_8244" x1="161.849" y1="740.629" x2="161.849" y2="614.633" gradientUnits="userSpaceOnUse">
<stop stop-color="#5E1340"/>
<stop offset="0.98" stop-color="#3F142F"/>
</linearGradient>
<linearGradient id="paint41_linear_705_8244" x1="109.142" y1="743.488" x2="175.432" y2="743.488" gradientUnits="userSpaceOnUse">
<stop offset="0.01" stop-color="#8E3C65"/>
<stop offset="0.98" stop-color="#9B4561"/>
</linearGradient>
<linearGradient id="paint42_linear_705_8244" x1="176.634" y1="749.395" x2="176.634" y2="737.581" gradientUnits="userSpaceOnUse">
<stop stop-color="#5E1340"/>
<stop offset="0.98" stop-color="#3F142F"/>
</linearGradient>
<linearGradient id="paint43_linear_705_8244" x1="143.565" y1="737.582" x2="143.565" y2="628.553" gradientUnits="userSpaceOnUse">
<stop stop-color="#5E1340"/>
<stop offset="0.98" stop-color="#3F142F"/>
</linearGradient>
<linearGradient id="paint44_linear_705_8244" x1="147.14" y1="737.582" x2="147.14" y2="635.363" gradientUnits="userSpaceOnUse">
<stop offset="0.03" stop-color="#65182C"/>
<stop offset="1" stop-color="#0F0020"/>
</linearGradient>
<linearGradient id="paint45_linear_705_8244" x1="121.482" y1="665.385" x2="169.488" y2="665.385" gradientUnits="userSpaceOnUse">
<stop offset="0.01" stop-color="#8E3C65"/>
<stop offset="0.98" stop-color="#9B4561"/>
</linearGradient>
<linearGradient id="paint46_linear_705_8244" x1="143.567" y1="702.707" x2="149.06" y2="702.707" gradientUnits="userSpaceOnUse">
<stop offset="0.01" stop-color="#8E3C65"/>
<stop offset="0.98" stop-color="#9B4561"/>
</linearGradient>
<linearGradient id="paint47_linear_705_8244" x1="520.722" y1="677.612" x2="589.796" y2="677.612" gradientUnits="userSpaceOnUse">
<stop offset="0.01" stop-color="#8E3C65"/>
<stop offset="0.98" stop-color="#9B4561"/>
</linearGradient>
<linearGradient id="paint48_linear_705_8244" x1="573.468" y1="740.629" x2="573.468" y2="614.633" gradientUnits="userSpaceOnUse">
<stop stop-color="#5E1340"/>
<stop offset="0.98" stop-color="#3F142F"/>
</linearGradient>
<linearGradient id="paint49_linear_705_8244" x1="520.722" y1="743.488" x2="587.012" y2="743.488" gradientUnits="userSpaceOnUse">
<stop offset="0.01" stop-color="#8E3C65"/>
<stop offset="0.98" stop-color="#9B4561"/>
</linearGradient>
<linearGradient id="paint50_linear_705_8244" x1="588.213" y1="749.395" x2="588.213" y2="737.581" gradientUnits="userSpaceOnUse">
<stop stop-color="#5E1340"/>
<stop offset="0.98" stop-color="#3F142F"/>
</linearGradient>
<linearGradient id="paint51_linear_705_8244" x1="555.146" y1="737.582" x2="555.146" y2="628.553" gradientUnits="userSpaceOnUse">
<stop stop-color="#5E1340"/>
<stop offset="0.98" stop-color="#3F142F"/>
</linearGradient>
<linearGradient id="paint52_linear_705_8244" x1="762.553" y1="702.119" x2="711.462" y2="699.564" gradientUnits="userSpaceOnUse">
<stop stop-color="#5E1340"/>
<stop offset="0.98" stop-color="#3F142F"/>
</linearGradient>
<linearGradient id="paint53_linear_705_8244" x1="694.304" y1="711.009" x2="700.604" y2="585.013" gradientUnits="userSpaceOnUse">
<stop offset="0.01" stop-color="#8E3C65"/>
<stop offset="0.98" stop-color="#9B4561"/>
</linearGradient>
<linearGradient id="paint54_linear_705_8244" x1="759.259" y1="767.958" x2="710.227" y2="765.506" gradientUnits="userSpaceOnUse">
<stop stop-color="#5E1340"/>
<stop offset="0.98" stop-color="#3F142F"/>
</linearGradient>
<linearGradient id="paint55_linear_705_8244" x1="683.408" y1="719.253" x2="683.999" y2="707.439" gradientUnits="userSpaceOnUse">
<stop offset="0.01" stop-color="#8E3C65"/>
<stop offset="0.98" stop-color="#9B4561"/>
</linearGradient>
<linearGradient id="paint56_linear_705_8244" x1="754.034" y1="689.521" x2="718.499" y2="687.744" gradientUnits="userSpaceOnUse">
<stop stop-color="#5E1340"/>
<stop offset="0.98" stop-color="#3F142F"/>
</linearGradient>
<linearGradient id="paint57_linear_705_8244" x1="735.824" y1="726.18" x2="731.761" y2="725.977" gradientUnits="userSpaceOnUse">
<stop stop-color="#5E1340"/>
<stop offset="0.98" stop-color="#3F142F"/>
</linearGradient>
<linearGradient id="paint58_linear_705_8244" x1="215.537" y1="725.843" x2="420.766" y2="725.843" gradientUnits="userSpaceOnUse">
<stop offset="0.01" stop-color="#8E3C65"/>
<stop offset="0.98" stop-color="#9B4561"/>
</linearGradient>
<linearGradient id="paint59_linear_705_8244" x1="314.411" y1="875.58" x2="314.411" y2="753.195" gradientUnits="userSpaceOnUse">
<stop offset="0.01" stop-color="#8E3C65"/>
<stop offset="0.98" stop-color="#9B4561"/>
</linearGradient>
<linearGradient id="paint60_linear_705_8244" x1="318.778" y1="798.868" x2="318.778" y2="767.19" gradientUnits="userSpaceOnUse">
<stop offset="0.03" stop-color="#65182C"/>
<stop offset="1" stop-color="#0F0020"/>
</linearGradient>
<linearGradient id="paint61_linear_705_8244" x1="416.365" y1="368.208" x2="416.365" y2="171.783" gradientUnits="userSpaceOnUse">
<stop stop-color="#A79BFE"/>
<stop offset="0.99" stop-color="#AFACDB"/>
</linearGradient>
<linearGradient id="paint62_linear_705_8244" x1="413.163" y1="196.914" x2="413.163" y2="85.7029" gradientUnits="userSpaceOnUse">
<stop stop-color="#684AA2"/>
<stop offset="0.99" stop-color="#74589A"/>
</linearGradient>
<linearGradient id="paint63_linear_705_8244" x1="397.557" y1="227.84" x2="433.185" y2="227.84" gradientUnits="userSpaceOnUse">
<stop stop-color="#140C11"/>
<stop offset="0.98" stop-color="#2C2556"/>
</linearGradient>
<linearGradient id="paint64_linear_705_8244" x1="418.436" y1="252.106" x2="418.436" y2="211.098" gradientUnits="userSpaceOnUse">
<stop offset="0.03" stop-color="#65182C"/>
<stop offset="1" stop-color="#0F0020"/>
</linearGradient>
<linearGradient id="paint65_linear_705_8244" x1="84.725" y1="578.441" x2="84.725" y2="314.747" gradientUnits="userSpaceOnUse">
<stop stop-color="#684AA2"/>
<stop offset="0.99" stop-color="#665889"/>
</linearGradient>
<linearGradient id="paint66_linear_705_8244" x1="504.397" y1="579.117" x2="504.397" y2="327.613" gradientUnits="userSpaceOnUse">
<stop stop-color="#4E3999"/>
<stop offset="0.99" stop-color="#665889"/>
</linearGradient>
<linearGradient id="paint67_linear_705_8244" x1="306.319" y1="553.572" x2="306.319" y2="242.738" gradientUnits="userSpaceOnUse">
<stop stop-color="#686EC2"/>
<stop offset="0.99" stop-color="#8158A9"/>
</linearGradient>
<linearGradient id="paint68_linear_705_8244" x1="260.573" y1="870.162" x2="350.301" y2="870.162" gradientUnits="userSpaceOnUse">
<stop offset="0.01" stop-color="#8E3C65"/>
<stop offset="0.98" stop-color="#9B4561"/>
</linearGradient>
<linearGradient id="paint69_linear_705_8244" x1="355.906" y1="875.58" x2="355.906" y2="864.744" gradientUnits="userSpaceOnUse">
<stop stop-color="#A91A1C"/>
<stop offset="0.98" stop-color="#CA4A0B"/>
</linearGradient>
</defs>
</svg>
