<svg width="117" height="149" viewBox="0 0 117 149" fill="none" xmlns="http://www.w3.org/2000/svg">
<g clip-path="url(#clip0_682_3480)">
<path d="M99.1404 114.846C98.9088 114.783 98.6916 114.677 98.5016 114.536C98.3117 114.395 98.1529 114.221 98.0346 114.024L98.0164 113.993C98.0175 113.988 98.0092 113.981 98.0061 113.975L97.999 113.963L97.9876 113.941L97.9826 113.932L97.9712 113.91L97.9668 113.902L97.9438 113.852L97.9362 113.834L97.9289 113.819C97.93 113.814 97.9249 113.809 97.9232 113.804C97.9215 113.8 97.9166 113.79 97.9146 113.783L97.9105 113.773C97.792 113.48 97.7781 113.163 97.8708 112.869C98.0606 112.285 98.2536 111.702 98.4499 111.121C98.5797 111.492 98.7825 111.88 99.1137 112.135C99.3137 112.297 99.5318 112.438 99.764 112.557C99.7726 112.558 99.7802 112.56 99.7877 112.567L99.7954 112.568C99.9159 112.625 100.043 112.667 100.174 112.695C100.201 112.701 100.229 112.707 100.259 112.714C100.29 112.721 100.307 112.724 100.334 112.722C100.793 112.762 101.253 112.707 101.679 112.56L101.721 112.547L101.735 112.542L101.743 112.539L101.762 112.533C101.594 112.948 101.422 113.362 101.244 113.771C101.218 113.83 101.193 113.888 101.166 113.947C101.021 114.27 100.765 114.536 100.436 114.706C100.108 114.876 99.7242 114.94 99.3441 114.889C99.2754 114.879 99.2074 114.864 99.1404 114.846V114.846Z" fill="#81ACD2"/>
<path d="M79.1937 109.728C79.5523 109.79 79.9164 109.808 80.2768 109.784C80.9638 109.732 81.6317 109.571 82.2507 109.306C82.2532 109.304 82.2563 109.303 82.2596 109.302L82.3029 109.285C82.4281 109.232 82.5525 109.177 82.6762 109.121C82.5147 109.391 82.2916 109.623 82.0218 109.803C81.752 109.982 81.4417 110.105 81.1117 110.163C80.7817 110.22 80.4397 110.212 80.1085 110.137C79.7774 110.062 79.4648 109.923 79.1916 109.73L79.1937 109.728Z" fill="#81ACD2"/>
<path d="M37.5366 105.987L37.538 105.981L37.3957 105.932L37.1078 105.833L36.8198 105.735C36.3181 105.574 35.8143 105.424 35.3078 105.284C35.5141 105.026 35.7181 104.765 35.9243 104.507C36.2698 104.074 36.6045 103.628 36.9585 103.197C37.0777 103.688 37.1878 104.179 37.2798 104.675C37.3609 105.115 37.4421 105.555 37.5456 105.991L37.5366 105.987Z" fill="#81ACD2"/>
<path d="M31.1725 104.462C31.1118 104.228 31.0512 103.99 30.9852 103.751C30.9269 103.538 30.8623 103.326 30.785 103.118C30.7762 103.097 30.7691 103.076 30.7602 103.056L30.7424 103.011L30.7357 102.993L30.7316 102.983L30.7235 102.963C30.7197 102.952 30.7158 102.942 30.7109 102.932C30.7083 102.927 30.7062 102.923 30.7048 102.919L30.6951 102.898L30.6892 102.884L30.6733 102.847L30.6693 102.837C30.6617 102.823 30.6566 102.809 30.6498 102.795L30.6432 102.781L30.6395 102.773C30.6383 102.77 30.6368 102.768 30.6351 102.765C30.6217 102.737 30.6075 102.708 30.5924 102.679L30.5853 102.663C30.5797 102.654 30.5749 102.644 30.571 102.635L30.5547 102.607L30.5384 102.576C30.5362 102.573 30.5342 102.569 30.5325 102.566L30.51 102.527L30.5047 102.518C30.5009 102.51 30.4965 102.503 30.4916 102.496C30.4885 102.49 30.4848 102.483 30.4806 102.477C30.4764 102.469 30.4715 102.461 30.4662 102.453C30.465 102.45 30.4632 102.447 30.461 102.445L30.4513 102.428L30.4271 102.388C30.4256 102.388 30.4241 102.388 30.4228 102.387C30.4177 102.386 30.4162 102.376 30.4128 102.372L30.3924 102.342L30.3738 102.314L30.369 102.307L30.323 102.244C30.1099 101.958 29.8275 101.721 29.4995 101.554C29.3698 101.488 29.2302 101.443 29.0863 101.418L29.0385 101.407C29.0112 101.401 28.9813 101.399 28.9514 101.396C28.8628 101.388 28.774 101.384 28.6853 101.385C28.3596 101.387 27.9839 101.542 27.7197 101.699C27.4126 101.893 27.1257 102.113 26.8623 102.355C26.609 102.57 26.3578 102.787 26.1087 103.004C25.9725 103.117 25.8362 103.231 25.7005 103.341L25.5914 103.429C25.1891 103.266 24.8368 103.009 24.5705 102.684C24.3111 102.367 24.1369 101.999 24.0631 101.612C24.0082 101.621 23.9525 101.63 23.895 101.634C23.4911 101.675 23.0787 101.604 22.7099 101.43C22.6917 101.371 22.6727 101.311 22.6527 101.252C22.6004 101.093 22.546 100.935 22.4893 100.779L22.4846 100.768L22.4692 100.729C22.3692 100.468 22.2529 100.213 22.121 99.9634L22.1134 99.9494L22.0665 99.8624C22.0632 99.8577 22.0604 99.8526 22.0582 99.8474C21.9622 99.6789 21.8527 99.517 21.7307 99.3631L21.721 99.3503L21.7069 99.3332C21.6578 99.2721 21.6067 99.2121 21.5526 99.1532L21.5416 99.1425L21.5251 99.124L21.5135 99.1116L21.4887 99.0863C21.4552 99.0517 21.4207 99.0177 21.3856 98.986L21.3576 98.9592C20.4645 93.6978 19.6517 88.4263 18.8312 83.1571C18.1162 78.5762 17.568 73.9666 17.2004 69.3626C17.0629 67.6549 16.9258 65.947 16.7891 64.2389C16.5789 61.8237 16.3939 59.4125 16.27 56.9926C16.156 54.7568 16.1604 52.5169 16.2342 50.2867C16.3005 47.6961 16.4343 45.1403 16.6462 42.5838C16.8346 40.2853 17.1733 38.0121 17.7812 35.7889C17.9505 35.2086 18.1568 34.6393 18.3992 34.0838C18.6341 33.5003 18.9087 32.9323 19.2213 32.383C20.2416 30.6605 21.7434 28.6388 24.145 28.6578C24.7491 28.6583 25.3511 28.7741 25.9134 28.9981C26.4599 29.2111 26.9904 29.6081 27.4271 29.976C28.6434 31.0062 29.487 32.3581 30.2096 33.7069C30.9492 35.0957 31.5488 36.5421 32.1376 37.9845C33.1037 40.35 34.0279 42.7271 34.91 45.1156C35.7314 47.36 36.3371 49.6519 36.8385 51.9616C37.2477 53.8568 37.5802 55.7588 37.9266 57.6622C38.2423 59.3901 38.4381 61.1374 38.687 62.8719C38.7944 63.5959 38.8465 64.3273 38.9241 65.0529C39.0232 65.9996 39.1245 66.946 39.2279 67.892C39.5261 64.9442 39.8351 61.9997 40.1919 59.0576C40.3706 57.5848 40.549 56.1133 40.7271 54.6431C40.8426 53.6899 41.0334 52.7485 41.1926 51.8042C41.4113 50.5004 41.6275 49.1953 41.8488 47.8921C42.0591 46.654 42.351 45.4233 42.6016 44.1933C42.8046 43.1971 42.992 42.199 43.2281 41.2068C43.5851 39.7216 43.9409 38.2378 44.2955 36.7554C44.5594 35.6624 44.9451 34.59 45.2746 33.5125C45.5956 32.4734 45.9291 31.4503 46.3123 30.4291C46.7469 29.2821 47.1373 28.112 47.6249 26.9841C48.1125 25.8563 48.5562 24.7005 49.1122 23.5994C49.9767 21.8891 50.8249 20.1917 51.8982 18.5855C52.282 18.001 52.719 17.4489 53.2044 16.9349C53.4512 16.6759 53.7166 16.4327 53.9989 16.2069C54.268 15.9999 54.5558 15.8144 54.8595 15.6524C55.466 15.3061 56.2372 15.1735 56.9423 15.1002C57.7944 15.0102 58.6587 15.2438 59.4233 15.5991C60.7519 16.2133 61.737 17.2759 62.4593 18.4568C63.2864 19.8149 63.8137 21.3325 64.1956 22.8316C65.0445 26.1632 65.1741 29.5995 65.1189 32.9773C65.0713 36.0549 64.8104 39.1212 64.6173 42.1887C64.5494 43.2981 64.4099 44.4031 64.3046 45.5075C64.278 45.7961 64.2505 46.0845 64.2245 46.374C64.2718 46.2143 64.3188 46.0512 64.3643 45.891C64.6167 45.0193 64.8439 44.1394 65.1258 43.2759C65.8958 40.912 66.6109 38.5292 67.5059 36.2071C68.0054 34.9132 68.5099 33.6213 69.0097 32.33C69.1507 31.9624 69.3324 31.6047 69.4932 31.2448C69.8633 30.4141 70.2341 29.5838 70.6058 28.754C71.0187 27.8291 71.454 26.9282 71.9125 26.0233C72.4568 24.9385 72.972 23.8316 73.5799 22.775C74.5264 21.1307 75.4431 19.4879 76.5683 17.9385C77.4133 16.7784 78.33 15.6984 79.4865 14.7968C80.0012 14.4015 80.591 14.0966 81.2285 13.8964C82.0523 13.6397 82.8988 13.6357 83.7687 13.7513C85.2799 13.952 86.4784 15.0457 87.3056 16.1701C88.2826 17.4983 88.7668 18.9881 89.1535 20.5221C89.9958 23.8431 89.987 27.2815 89.8085 30.6294C89.6731 33.2922 89.3889 35.9418 88.9572 38.5676C88.696 40.135 88.4342 41.7019 88.172 43.2686C87.7297 45.9103 87.1794 48.5305 86.6614 51.1587C86.1842 53.587 85.6709 56.0089 85.1648 58.4267C85.1714 58.3969 85.1782 58.3663 85.1854 58.3342C85.1704 58.4016 85.1554 58.469 85.1405 58.5356C85.1348 58.5615 85.1297 58.5842 85.1241 58.6093C85.126 58.6031 85.1274 58.5968 85.1283 58.5905C84.5654 61.3384 84.0056 64.087 83.449 66.8362C84.249 64.4502 85.035 62.0586 85.825 59.6694C86.2187 58.4886 86.6319 57.3129 87.0338 56.1355C87.3851 55.1048 87.7132 54.0657 88.0986 53.0467C88.6141 51.684 89.1316 50.3184 89.6513 48.9501C90.3192 47.1895 91.0328 45.4571 91.8317 43.7437C92.8643 41.5053 94.0733 39.3449 95.4494 37.2795C96.1669 36.2094 96.8748 35.1422 97.6611 34.117C98.0979 33.543 98.5371 32.9703 98.9738 32.3971C99.8183 31.2953 100.811 30.2766 101.813 29.3018C102.814 28.3271 103.95 27.4446 105.263 26.8378C105.914 26.534 106.629 26.3575 107.366 26.3191C107.739 26.2901 108.115 26.3042 108.487 26.3612C108.969 26.4473 109.501 26.523 109.946 26.7388C110.593 27.0523 111.198 27.3952 111.729 27.8763C112.27 28.3495 112.742 28.8859 113.132 29.4711C114.031 30.8643 114.6 32.382 114.936 33.954C115.624 37.1798 115.489 40.511 115.257 43.7419C115.007 47.2128 114.381 50.6116 113.532 53.9772C113.166 55.4251 112.714 56.8463 112.278 58.2727C112.231 58.4268 112.184 58.5826 112.138 58.7401C112.725 57.9802 113.312 57.2219 113.898 56.4651C115.461 54.4438 117.073 52.4574 118.686 50.4687C119.324 49.6795 119.99 48.9163 120.655 48.1489C121.413 47.2728 122.154 46.3931 122.963 45.5572L124.627 43.8391C125.442 43.0005 126.313 42.2102 127.236 41.4724C128.297 40.6196 129.437 39.8089 130.717 39.2491C131.337 38.9757 132.015 38.7474 132.706 38.6603C133.476 38.5642 134.265 38.6235 135.02 38.8342C137.979 39.6255 139.009 42.8484 139.285 45.3178C139.648 48.5617 139.268 51.7768 138.543 54.9183C138.161 56.515 137.688 58.0891 137.128 59.6344C136.779 60.6049 136.432 61.5805 136.016 62.5254C135.388 63.9495 134.759 65.3725 134.13 66.7944C133.942 67.2331 133.732 67.6626 133.52 68.0892C133.566 68.0435 133.609 67.998 133.655 67.9546C134.518 67.0775 135.477 66.2791 136.387 65.4469C136.741 65.1227 137.098 64.7973 137.451 64.4713C137.892 64.0701 138.389 63.7111 138.855 63.3351C139.794 62.5726 140.719 61.8021 141.704 61.0903C142.335 60.6319 142.968 60.1731 143.602 59.7138C144.037 59.3994 144.504 59.1158 144.959 58.8224C145.643 58.3847 146.324 57.9515 147.036 57.5432C148.309 56.8042 149.81 56.0525 151.383 56.067C152.635 56.076 153.884 56.4982 154.794 57.3548C155.244 57.7752 155.624 58.2547 155.921 58.7765C156.325 59.4799 156.513 60.25 156.641 61.0237C156.751 61.7014 156.729 62.4098 156.674 63.0877C156.61 63.8571 156.5 64.621 156.344 65.376C156.013 67.0019 155.494 68.5786 154.904 70.1294C153.717 73.2504 152.051 76.207 150.205 79.0157C150.02 79.2971 149.834 79.5799 149.644 79.86C149.861 79.7198 150.077 79.5812 150.295 79.4456C150.86 79.0975 151.426 78.7506 151.984 78.3968C152.62 77.9939 153.313 77.6594 153.973 77.2972C154.483 77.0184 155.014 76.7689 155.536 76.5076C156.696 75.9325 157.997 75.2861 159.392 75.4913C160.081 75.5883 160.74 75.8427 161.307 76.2312C161.837 76.6094 162.28 77.0821 162.61 77.6196C162.96 78.1665 163.163 78.8071 163.327 79.413C163.55 80.2309 163.582 81.0822 163.612 81.9131C163.669 83.553 163.401 85.2118 163.1 86.8099C162.773 88.5677 162.334 90.3024 161.785 92.0049C160.779 95.1135 159.24 97.9832 157.402 100.715C157.031 101.266 156.629 101.798 156.235 102.337C155.811 102.917 155.412 103.522 154.958 104.082C154.234 104.976 153.545 105.906 152.776 106.764C151.884 107.759 151.003 108.755 150.064 109.714C149.104 110.694 148.132 111.649 147.136 112.599C144.819 114.808 142.316 116.897 139.469 118.509C139.303 118.603 139.133 118.691 138.961 118.779C139.098 118.332 139.215 117.875 138.984 117.419L138.965 117.384L138.948 117.354C138.942 117.343 138.935 117.332 138.928 117.322V117.322C138.859 117.216 138.775 117.118 138.679 117.032L138.671 117.03L138.648 117.01L138.637 117L138.619 116.985L138.603 116.973L138.589 116.962C138.554 116.935 138.518 116.91 138.481 116.885C138.399 116.83 138.312 116.783 138.22 116.745V116.745L138.137 116.714L138.114 116.709C138.043 116.686 137.969 116.67 137.895 116.66L137.872 116.655L137.837 116.647C137.55 116.62 137.27 116.703 136.988 116.744C136.859 116.761 136.728 116.775 136.597 116.786C136.199 116.805 135.796 116.816 135.397 116.809C135.23 116.799 135.066 116.789 134.897 116.766C134.838 116.753 134.779 116.74 134.719 116.726C134.696 116.721 134.674 116.709 134.649 116.701L134.636 116.692C134.62 116.683 134.605 116.673 134.59 116.661C134.583 116.65 134.577 116.639 134.572 116.627C134.563 116.607 134.553 116.589 134.547 116.571C134.55 116.591 134.556 116.61 134.562 116.63C134.554 116.606 134.546 116.582 134.541 116.557C134.53 116.534 134.519 116.508 134.511 116.483C134.518 116.503 134.526 116.522 134.536 116.541C134.512 116.452 134.494 116.363 134.482 116.273C134.337 115.035 134.404 113.758 133.956 112.559C133.696 111.864 133.067 111.385 132.307 111.219L132.246 111.205L132.198 111.194C132.13 111.184 132.061 111.179 131.993 111.178C131.399 111.164 130.806 111.453 130.3 111.701C129.608 112.034 128.912 112.379 128.188 112.653C127.967 112.719 127.744 112.782 127.521 112.833C127.478 112.84 127.429 112.843 127.389 112.851L127.316 112.853C127.298 112.849 127.276 112.849 127.258 112.846C127.254 112.839 127.251 112.832 127.249 112.824C127.065 112.042 126.984 111.244 126.852 110.455C126.757 109.812 126.582 109.179 126.331 108.568C126.093 108.028 125.75 107.468 125.279 107.065C125.005 106.831 124.698 106.634 124.367 106.479L124.338 106.466L124.31 106.453L124.269 106.435C124.261 106.433 124.251 106.431 124.244 106.425L124.194 106.403L124.178 106.399L124.109 106.372C124.109 106.372 124.104 106.37 124.101 106.37C124.081 106.365 124.061 106.354 124.041 106.347L124.018 106.341L123.973 106.326L123.945 106.319L123.901 106.304L123.874 106.298L123.813 106.278L123.766 106.267L123.749 106.264L123.696 106.252L123.691 106.25C123.458 106.182 123.222 106.13 122.982 106.093L122.94 106.083L122.881 106.076C122.618 106.04 122.353 106.021 122.088 106.017L122.036 106.015C121.946 106.015 121.856 106.016 121.766 106.019L121.724 106.021L121.683 106.022C121.602 106.025 121.519 106.029 121.438 106.035L121.358 106.041C119.92 106.158 118.521 106.493 117.218 107.035C115.837 107.62 114.525 108.329 113.302 109.154C112.695 109.552 112.113 109.977 111.526 110.403C110.506 111.141 109.528 111.927 108.489 112.636C108.354 112.718 108.215 112.796 108.074 112.868L108.044 112.883C107.986 111.935 107.962 110.973 107.716 110.042C107.594 109.586 107.441 109.158 107.147 108.77C106.875 108.407 106.495 108.077 106.04 107.915L105.992 107.899L105.901 107.871L105.793 107.847C105.767 107.841 105.74 107.835 105.713 107.829C105.67 107.819 105.627 107.815 105.582 107.81L105.563 107.806C105.511 107.801 105.459 107.796 105.407 107.795L105.4 107.793L105.367 107.792C105.352 107.788 105.336 107.79 105.321 107.791L105.31 107.789L105.256 107.789C105.028 107.795 104.803 107.826 104.585 107.881V107.881C104.514 107.899 104.445 107.919 104.377 107.94C103.896 108.087 103.468 108.374 103.065 108.645C102.556 108.984 102.071 109.342 101.561 109.68C101.403 109.776 101.241 109.871 101.079 109.962C100.976 109.44 100.843 108.922 100.68 108.411C100.581 108.105 100.451 107.807 100.292 107.521C100.127 107.245 99.9326 106.985 99.7113 106.744C99.2709 106.258 98.6658 105.926 98.0018 105.804L97.9165 105.785C97.7136 105.752 97.5094 105.729 97.3046 105.717L97.2161 105.712L97.1152 105.711L97.0795 105.711L97.014 105.711C96.6768 105.726 96.3446 105.781 96.0261 105.876C94.9247 106.172 93.9525 106.701 93.0121 107.288C92.1747 107.806 91.35 108.34 90.4576 108.784C90.3097 108.849 90.16 108.913 90.011 108.972C89.9463 108.993 89.883 109.011 89.8192 109.028C89.6964 109.049 89.5738 109.068 89.449 109.082C89.4159 109.082 89.3824 109.083 89.3472 109.085C89.3361 109.082 89.325 109.08 89.3103 109.081C89.2956 109.083 89.2925 109.072 89.2835 109.069C89.2745 109.065 89.2443 109.044 89.2224 109.03C89.2136 109.023 89.2053 109.016 89.1975 109.008C89.1715 108.972 89.1481 108.937 89.1249 108.9C89.0881 108.836 89.0544 108.77 89.0242 108.705C88.9507 108.524 88.8873 108.334 88.8277 108.147C88.6894 107.63 88.5724 107.11 88.4123 106.598C88.266 106.124 88.0422 105.645 87.649 105.295C87.5842 105.236 87.5158 105.181 87.4441 105.129L87.4398 105.128L87.4304 105.126C87.4222 105.12 87.4136 105.114 87.4047 105.109L87.3807 105.092L87.3557 105.076L87.34 105.066L87.3005 105.042L87.2954 105.041C87.0338 104.882 86.7315 104.794 86.4238 104.788L86.3519 104.789C85.9042 104.808 85.474 104.936 85.1048 105.16C84.6744 105.42 84.2347 105.661 83.8007 105.916C83.1704 106.285 82.5433 106.66 81.8882 106.995C81.5893 107.131 81.2926 107.256 80.9809 107.369C80.8187 107.422 80.6543 107.468 80.4899 107.506C80.3427 107.532 80.1984 107.552 80.0531 107.569C79.9529 107.577 79.8513 107.579 79.7503 107.578C79.6939 107.573 79.6381 107.567 79.5804 107.56C79.5227 107.554 79.4549 107.533 79.3901 107.518C79.3252 107.504 79.2756 107.477 79.2176 107.456L79.1276 107.409L79.0219 107.333C78.9722 107.293 78.9252 107.25 78.8814 107.204C78.8878 107.211 78.8936 107.222 78.9 107.229L78.8752 107.199C78.8588 107.181 78.8416 107.166 78.8275 107.148L78.8673 107.187L78.8148 107.121C78.8353 107.145 78.8532 107.17 78.8735 107.195C78.8939 107.22 78.9127 107.232 78.9339 107.254C78.8935 107.206 78.852 107.163 78.8131 107.117L78.7303 106.998C78.6961 106.934 78.6624 106.868 78.6318 106.801C78.5786 106.665 78.528 106.531 78.4861 106.389C78.428 106.139 78.3826 105.892 78.3437 105.641C78.2759 105.108 78.2307 104.563 78.1241 104.036C77.9939 103.39 77.7666 102.588 77.0121 102.332L76.9448 102.309L76.8485 102.283C76.7294 102.25 76.6081 102.226 76.4856 102.211L76.4549 102.204C76.3641 102.195 76.2731 102.19 76.1821 102.19L76.1428 102.19C76.0738 102.19 76.0059 102.193 75.9348 102.199L75.9102 102.201L75.8371 102.207L75.7728 102.214C75.3637 102.278 74.9684 102.394 74.5984 102.561C73.688 102.941 72.8899 103.468 72.11 104.034C71.469 104.499 70.8481 104.987 70.2271 105.474C69.3239 106.184 68.442 106.939 67.4802 107.578C67.3695 107.648 67.2595 107.716 67.1452 107.783C67.1225 107.74 67.0996 107.698 67.0843 107.654C67.0279 107.505 66.9715 107.356 66.9266 107.207C66.8856 107.034 66.8534 106.856 66.8249 106.679C66.7492 105.941 66.7283 105.198 66.5952 104.464C66.4757 103.822 66.3434 103.182 65.8931 102.649L65.8518 102.602C65.5002 102.206 65.0612 101.92 64.5338 101.847L64.5108 101.842C64.4995 101.839 64.4881 101.836 64.4766 101.835C64.4707 101.833 64.4647 101.832 64.4587 101.831L64.4348 101.825C64.3653 101.82 64.2949 101.818 64.2231 101.819C63.6107 101.834 63.1034 102.145 62.6453 102.468C61.2916 103.423 60.1217 104.578 58.7457 105.5C58.6712 105.545 58.5944 105.588 58.5182 105.629C58.4189 105.673 58.3205 105.712 58.2215 105.754C58.2215 105.754 58.2229 105.748 58.2238 105.744C58.1238 104.954 58.0515 104.157 57.8987 103.375C57.7633 102.696 57.5566 101.983 56.9911 101.477C56.8575 101.357 56.7106 101.251 56.5531 101.159C56.479 101.116 56.4021 101.077 56.3228 101.043V101.043L56.2951 101.031L56.272 101.026L56.2558 101.023C56.1542 100.982 56.0493 100.95 55.9422 100.926C55.8987 100.917 55.8569 100.907 55.8108 100.897L55.7835 100.891C55.7476 100.883 55.7111 100.882 55.6749 100.88L55.6595 100.877C55.448 100.863 55.2368 100.884 55.0363 100.94C54.4259 101.107 53.9172 101.473 53.4219 101.815C53.173 101.991 52.9368 102.175 52.6973 102.362C51.9582 102.937 51.2729 103.557 50.4871 104.082C50.4173 104.125 50.3466 104.165 50.2728 104.203L50.0997 104.281C49.8975 103.732 49.732 103.176 49.5237 102.631C49.264 101.952 48.9337 101.259 48.3132 100.783C48.2731 100.751 48.2313 100.722 48.188 100.694C48.139 100.661 48.0886 100.63 48.0376 100.601C47.9139 100.53 47.7835 100.471 47.6482 100.423C47.6401 100.422 47.6322 100.42 47.6243 100.418C47.5769 100.401 47.5291 100.387 47.4818 100.374C47.3975 100.35 47.3121 100.331 47.2258 100.317L47.19 100.309L47.1652 100.303C46.6881 100.241 46.207 100.313 45.7853 100.511C45.7464 100.528 45.7089 100.548 45.6706 100.567C45.6522 100.577 45.6339 100.587 45.6163 100.598C45.1734 100.845 44.8029 101.274 44.4936 101.65C44.2496 101.941 44.0117 102.236 43.7799 102.534C43.3263 103.111 42.8698 103.689 42.3852 104.248C42.1637 104.482 41.9376 104.709 41.6964 104.928C41.5014 105.083 41.2999 105.232 41.093 105.377C41.1412 105.345 41.1899 105.316 41.2392 105.283C40.977 105.451 40.7165 105.619 40.445 105.765L40.3456 105.809C40.3218 105.723 40.2978 105.637 40.2735 105.554C40.0533 104.696 39.8834 103.834 39.6583 102.978C39.4639 102.242 39.1846 101.534 38.6749 100.922C38.5466 100.769 38.3882 100.639 38.2084 100.54L38.2016 100.538L38.1754 100.523L38.1576 100.514C38.1534 100.511 38.1489 100.509 38.1442 100.506C37.8982 100.382 37.6297 100.304 37.3544 100.276L37.3433 100.274L37.3002 100.27L37.2891 100.267C37.2088 100.261 37.1282 100.259 37.0479 100.261L36.9478 100.264L36.8992 100.269L36.8073 100.279L36.7739 100.284C36.1567 100.373 35.6707 100.842 35.3233 101.284C34.8439 101.896 34.4212 102.548 33.956 103.169C33.6357 103.598 33.3164 104.03 32.985 104.452C32.9199 104.536 32.8542 104.617 32.7875 104.7C32.7815 104.706 32.7753 104.714 32.7702 104.721L32.7689 104.727C32.2222 104.628 31.6963 104.544 31.1725 104.462Z" fill="#81ACD2"/>
<path d="M27.5558 103.863C27.8534 103.62 28.161 103.381 28.4826 103.164L28.5835 103.113C28.611 103.102 28.638 103.093 28.6625 103.084L28.68 103.078L28.7187 103.125C28.7323 103.149 28.7433 103.168 28.7574 103.189L28.7902 103.259C28.8256 103.349 28.8543 103.438 28.8807 103.533L28.9472 103.777L28.9449 103.759C28.9431 103.767 28.9497 103.777 28.9505 103.786C28.9543 103.795 28.957 103.805 28.9584 103.815C28.9615 103.822 28.9638 103.829 28.9653 103.836C28.9887 103.928 29.0132 104.024 29.0317 104.117C28.5402 104.036 28.0504 103.951 27.5558 103.863Z" fill="#81ACD2"/>
<path d="M30.6641 102.378C30.5812 101.178 30.6044 99.9791 30.5699 98.7786C30.5387 97.7148 30.4716 96.651 30.3687 95.5872L30.373 95.6285C30.3695 95.5956 30.3666 95.5645 30.363 95.5324C30.3609 95.5419 30.3648 95.5526 30.3661 95.5628C30.3625 95.5307 30.3597 95.4988 30.3568 95.4677C30.3412 95.3206 30.3253 95.1736 30.309 95.0268C30.3176 95.0929 30.3253 95.1588 30.332 95.2253C30.321 95.1299 30.3112 95.0331 30.3003 94.9369L30.2986 94.9447C30.1999 93.9923 30.0957 93.0404 30.0258 92.087C29.9649 91.2746 29.9398 90.462 29.9012 89.6497C29.8045 87.8677 29.6548 86.0903 29.4776 84.3118C29.4792 84.3245 29.4798 84.3378 29.4823 84.3507C29.3777 83.3402 29.2727 82.3355 29.1958 81.3254C29.123 80.373 29.088 79.42 29.0496 78.4662C28.9695 76.4929 28.8234 74.5223 28.6307 72.5519C28.6279 72.5644 28.6338 72.5781 28.6345 72.5914L28.6289 72.5317C28.6276 72.5259 28.6271 72.52 28.6275 72.5141C28.626 72.5187 28.625 72.5235 28.6243 72.5282C28.5099 71.4572 28.3846 70.387 28.2753 69.3171C28.1446 68.0696 28.0399 66.8263 27.9441 65.5751C27.8642 64.4616 27.8131 63.3478 27.7299 62.2369C27.6439 61.0463 27.5463 59.8569 27.4371 58.6688C27.1447 56.0156 26.8648 53.3587 26.4148 50.7173C25.9286 47.8688 25.3458 45.0317 24.8115 42.1898C24.5679 40.9065 24.3537 39.6199 24.1032 38.3392C23.7685 36.6243 23.4083 34.9153 23.0449 33.2047C22.9099 32.5601 23.4368 31.9477 24.1139 31.8674C24.4518 31.831 24.7965 31.9193 25.074 32.1134C25.3514 32.3074 25.5396 32.5917 25.598 32.9053C25.9345 34.5158 26.2545 36.1293 26.558 37.7456C26.8104 39.1016 27.0441 40.4617 27.2865 41.8187C27.7636 44.5031 28.3122 47.1763 28.7349 49.8675C29.1758 52.6706 29.4448 55.4888 29.6889 58.3064C29.9197 60.9829 29.9816 63.6654 30.1233 66.3434C30.1769 67.3499 30.2634 68.3489 30.3587 69.3573C30.5575 71.0469 30.7721 72.7301 30.9538 74.4158C31.1521 76.2164 31.3261 78.0172 31.4983 79.8185C31.8004 82.436 32.2459 85.0451 32.5728 87.6639C32.744 89.0271 32.9271 90.3904 33.1221 91.7539C33.3162 93.0862 33.5586 94.4153 33.7073 95.7506C33.8314 96.8666 33.9 97.9785 33.9293 99.0981C33.9578 100.265 33.8885 101.434 33.8094 102.593C33.7611 103.313 33.0445 103.86 32.287 103.855C32.2061 103.855 32.1251 103.848 32.0448 103.836C31.6727 103.775 31.331 103.595 31.0789 103.329C30.8267 103.062 30.68 102.726 30.6641 102.378V102.378Z" fill="#5C74A5"/>
<path d="M43.3088 99.0741C43.4355 97.262 43.6889 95.4683 43.9609 93.6755C44.2476 91.7765 44.5395 89.8784 44.8366 87.9811C45.4266 84.2091 46.0764 80.4503 46.6376 76.6751C47.1987 72.8999 47.735 69.1199 48.3233 65.3475C48.9053 61.6238 49.441 57.8906 50.0077 54.1627C51.1014 47.0024 52.6361 39.9214 54.1299 32.8345C54.1335 32.8244 54.1358 32.8139 54.1369 32.8032C54.1491 32.7483 54.1611 32.6942 54.1688 32.6359C54.218 32.3704 54.268 32.1019 54.3205 31.8339C54.3065 31.8966 54.2929 31.9577 54.2856 32.0227C54.3336 31.771 54.3811 31.5175 54.4294 31.2642C54.4155 31.3269 54.4056 31.3913 54.392 31.4524C54.4239 31.2851 54.4555 31.1189 54.4869 30.9537C54.4733 31.0148 54.4634 31.0792 54.4526 31.1402C54.4853 30.9689 54.5175 30.8001 54.5493 30.6294C54.5358 30.6898 54.5219 30.7525 54.5125 30.8146C54.5381 30.6755 54.5634 30.538 54.5898 30.3991C54.6224 30.1269 54.674 29.8575 54.7443 29.5927C54.7579 29.5316 54.7654 29.4699 54.7779 29.4094C54.8037 29.2654 54.8329 29.1222 54.8596 28.9784C54.8461 29.0387 54.8325 29.0999 54.8245 29.1639L54.9707 28.387C54.9567 28.4497 54.9474 28.5117 54.9363 28.5735C54.9461 28.5296 54.956 28.4849 54.9658 28.441C54.9798 28.3783 54.9891 28.3162 55 28.2553C55.0347 28.0672 55.0711 27.8795 55.1058 27.6915L55.1022 27.7079C55.1145 27.6284 55.1304 27.5448 55.146 27.4627L55.1394 27.4925C55.1422 27.4739 55.1463 27.4556 55.1516 27.4376L55.1563 27.4164C55.5089 25.5313 55.8122 23.6343 56.1344 21.7449C56.2595 20.9978 56.9392 20.4433 57.7896 20.5504C58.5735 20.6501 59.2691 21.38 59.1361 22.1262C58.469 25.9264 57.8318 29.7332 57.1158 33.5282C56.7842 35.2905 56.4555 37.0485 56.1187 38.8105C56.1192 38.8073 56.1199 38.8042 56.1208 38.8011C56.1183 38.8121 56.1161 38.8223 56.1136 38.8332C56.1103 38.844 56.1078 38.855 56.1063 38.8662V38.8662C56.0983 38.9022 56.0909 38.9351 56.0872 38.9721C56.1017 38.9071 56.1119 38.8411 56.1255 38.7758C55.9592 39.7079 55.7991 40.6438 55.6321 41.5749C55.4764 42.455 55.2987 43.3335 55.1658 44.2162C54.9019 45.9845 54.5842 47.7491 54.3593 49.5237C54.1085 51.4907 53.8505 53.4578 53.6394 55.4312C53.4257 57.421 53.2178 59.4138 53.0158 61.4096C52.8405 63.0981 52.6151 64.7861 52.3876 66.4713C52.102 68.5745 51.8182 70.6777 51.5363 72.7806C51.0598 76.3164 50.5809 79.8508 50.0427 83.3778C49.6268 86.0822 49.2292 88.7849 48.8166 91.4908C48.404 94.1967 47.939 96.9042 47.4739 99.6083C47.4359 99.8518 47.3561 100.087 47.2375 100.304C46.8995 100.246 46.5544 100.257 46.227 100.337L46.2185 100.339L46.2043 100.342C46.109 100.366 46.0156 100.396 45.9249 100.431C45.8121 100.474 45.7033 100.526 45.5995 100.585L45.5647 100.604L45.5557 100.608L45.5224 100.629L45.4724 100.661C45.3806 100.721 45.2933 100.786 45.2111 100.857L45.1735 100.889L45.1639 100.896C45.164 100.897 45.1636 100.899 45.1627 100.901C45.0568 100.994 44.9556 101.095 44.8592 101.198C43.8719 100.925 43.2433 100.028 43.3088 99.0741Z" fill="#5C74A5"/>
<path d="M58.2124 105.724C58.1132 104.934 58.0401 104.136 57.8873 103.354C57.8804 103.317 57.8729 103.278 57.8644 103.24C58.1006 102.058 58.3668 100.891 58.6335 99.7174C59.0771 97.7694 59.5419 95.827 60.0119 93.8849C60.9276 90.1146 61.9765 86.3855 63.0692 82.6612C65.2816 75.1388 67.5381 67.6278 69.4535 60.0236C69.9292 58.1552 70.3928 56.2841 70.844 54.4102C71.303 52.5059 71.73 50.5921 72.2003 48.6896C72.6685 46.808 73.1289 44.9213 73.6656 43.0583C74.2317 41.1112 74.8098 39.1666 75.3999 37.2244C76.4047 33.919 77.3529 30.5977 78.3814 27.3025C79.4925 23.7388 80.6853 20.2002 81.9598 16.6867C82.2929 15.7737 83.5257 15.3901 84.4709 15.7593C85.489 16.1629 85.9051 17.2065 85.5639 18.1194C84.9621 19.7401 84.4094 21.3775 83.8377 23.0073C83.2332 24.8734 82.6156 26.7341 82.0527 28.6103C81.4743 30.5685 80.9615 32.5414 80.4619 34.5197C79.5144 38.2681 78.4739 41.9876 77.4014 45.7016C76.2892 49.5581 75.0801 53.3873 73.9481 57.2361C72.8426 60.9938 71.8309 64.7732 70.8671 68.5665C69.928 72.2732 69.0661 75.9987 68.183 79.7195C67.2677 83.5804 66.3818 87.4503 65.3608 91.2877C64.6889 93.8183 63.9094 96.3216 63.1336 98.8241C62.6985 100.231 62.2837 101.643 61.8353 103.046C60.9044 103.779 60.0246 104.568 59.0543 105.257L59.0151 105.285L58.9695 105.316C58.891 105.371 58.8118 105.425 58.7317 105.479C58.6517 105.533 58.5813 105.567 58.5051 105.608C58.4058 105.651 58.3072 105.692 58.2084 105.733C58.2137 105.73 58.2115 105.727 58.2124 105.724Z" fill="#5C74A5"/>
<path d="M79.191 109.729C79.2277 109.737 79.2661 109.745 79.3041 109.747C79.4048 109.762 79.5062 109.773 79.6085 109.78C79.8315 109.797 80.0549 109.798 80.2768 109.784C81.1295 109.732 81.9252 109.469 82.6774 109.12C82.5156 109.389 82.2923 109.621 82.0223 109.801C81.7523 109.981 81.4419 110.103 81.1119 110.161C80.7818 110.219 80.4397 110.21 80.1084 110.135C79.7772 110.061 79.4644 109.922 79.191 109.729Z" fill="#5C74A5"/>
<path d="M79.391 107.491C79.3352 107.472 79.2765 107.45 79.2185 107.429L79.1275 107.383L79.0226 107.307C78.9732 107.266 78.9263 107.223 78.8823 107.177C78.8886 107.185 78.8936 107.194 78.9001 107.202L78.8753 107.172C78.8595 107.155 78.8423 107.139 78.8284 107.121C78.8408 107.134 78.8532 107.147 78.8682 107.16L78.8157 107.094L78.8736 107.168C78.8925 107.188 78.9136 107.205 78.9348 107.227C78.8935 107.179 78.8521 107.136 78.814 107.089C78.7759 107.043 78.7587 107.012 78.7312 106.971C78.697 106.907 78.6633 106.841 78.6325 106.774C78.5795 106.638 78.5295 106.505 78.487 106.362C78.4287 106.113 78.3834 105.866 78.3444 105.614C78.3472 105.602 78.3404 105.588 78.3398 105.575C78.3392 105.561 78.3358 105.548 78.3335 105.535L78.3359 105.524C78.4507 104.727 78.6226 103.935 78.807 103.151C79.1179 101.811 79.4904 100.484 79.8491 99.1543C80.2264 97.7576 80.5927 96.3543 81.022 94.9732C81.4854 93.4714 81.986 91.9795 82.5004 90.494C82.4661 90.5958 82.4302 90.6964 82.3956 90.7997C84.9276 83.4513 88.2361 76.3803 90.9825 69.1068C92.2953 65.6248 93.483 62.101 94.7192 58.5929C96.0819 54.7282 97.4398 50.8625 98.7929 46.9957C98.7739 47.045 98.7588 47.0926 98.7397 47.1418C99.8129 44.0079 100.889 40.883 101.935 37.7462C102.129 37.156 102.745 36.7749 103.425 36.9535C104.05 37.1174 104.531 37.7756 104.334 38.3652C102.434 44.065 100.446 49.7338 98.4854 55.4079C98.5036 55.3585 98.52 55.3087 98.5377 55.2616C97.9696 56.9011 97.4039 58.5419 96.8406 60.184C96.8591 60.133 96.8747 60.0831 96.8934 60.0313C95.6849 63.6887 94.5443 67.3628 93.5061 71.0721C92.4214 74.9257 91.3032 78.7727 90.2354 82.6309C89.2187 86.3162 88.0406 89.9573 86.9278 93.6155C86.3694 95.4556 85.8811 97.3188 85.3941 99.1798C84.8867 101.113 84.3726 103.043 83.887 104.983C83.8056 105.316 83.7231 105.646 83.6392 105.979L83.5679 106.021L83.4218 106.107L83.319 106.166C82.8895 106.417 82.4561 106.666 82.0113 106.898L81.8898 106.961C81.5909 107.097 81.294 107.223 80.9825 107.335C80.8207 107.386 80.6561 107.433 80.4907 107.472C80.3443 107.498 80.2 107.518 80.053 107.539C79.953 107.545 79.8522 107.548 79.7504 107.546C79.6949 107.542 79.6389 107.536 79.5811 107.53C79.5234 107.524 79.4546 107.507 79.391 107.491Z" fill="#5C74A5"/>
<path d="M99.1404 114.846C98.9088 114.783 98.6916 114.677 98.5016 114.536C98.3117 114.395 98.1529 114.221 98.0346 114.024L98.0164 113.993C98.0175 113.988 98.0092 113.981 98.0061 113.975L97.999 113.963L97.9876 113.941L97.9826 113.932L97.9712 113.91L97.9668 113.902L97.9438 113.852L97.9362 113.834L97.9289 113.819C97.93 113.814 97.9249 113.809 97.9232 113.804C97.9215 113.8 97.9166 113.79 97.9146 113.783L97.9105 113.773C97.792 113.48 97.7781 113.163 97.8708 112.869C98.0606 112.285 98.2536 111.702 98.4499 111.121C98.4822 111.215 98.5195 111.308 98.5618 111.399L98.572 111.422L98.5755 111.43C98.5933 111.467 98.6117 111.504 98.6312 111.542C98.6338 111.546 98.6358 111.55 98.6373 111.555L98.6461 111.567L98.6641 111.599L98.663 111.604L98.6736 111.621L98.6803 111.635C98.6841 111.642 98.6895 111.65 98.6934 111.657L98.7002 111.666C98.7002 111.666 98.7002 111.666 98.6991 111.671L98.7057 111.682L98.7105 111.689L98.7094 111.693C98.7094 111.693 98.7147 111.702 98.7164 111.706L98.7262 111.718L98.7398 111.738L98.7466 111.748L98.7507 111.753C98.7993 111.824 98.8535 111.891 98.9129 111.954L98.9223 111.964L98.9311 111.973C98.9807 112.024 99.0342 112.072 99.091 112.115C99.291 112.278 99.5092 112.419 99.7414 112.538C99.7499 112.539 99.7576 112.541 99.7651 112.548L99.7728 112.549C99.8933 112.606 100.02 112.648 100.151 112.676C100.179 112.682 100.206 112.688 100.237 112.695C100.267 112.702 100.284 112.705 100.311 112.703C100.77 112.743 101.23 112.688 101.656 112.541L101.698 112.528L101.714 112.523L101.721 112.519C101.727 112.518 101.734 112.516 101.739 112.514C101.544 112.988 101.35 113.46 101.143 113.928C100.999 114.251 100.742 114.517 100.414 114.687C100.085 114.857 99.7016 114.921 99.3214 114.87C99.2608 114.865 99.2004 114.857 99.1404 114.846V114.846Z" fill="#5C74A5"/>
<path d="M100.684 108.386C100.584 108.08 100.454 107.782 100.296 107.496L100.276 107.463C100.274 107.458 100.271 107.454 100.268 107.449L100.264 107.442C100.257 107.431 100.251 107.421 100.244 107.41L100.235 107.396L100.197 107.336C100.181 107.311 100.165 107.285 100.147 107.261L100.142 107.253L100.125 107.23C100.123 107.227 100.121 107.225 100.12 107.222C100.105 107.203 100.092 107.184 100.078 107.164C100.05 107.125 100.021 107.086 99.9912 107.048C99.984 107.038 99.9763 107.028 99.9681 107.019L99.9249 106.963C101.663 102.25 103.587 97.6055 105.501 92.9611C106.757 89.913 108.051 86.8794 109.422 83.8799C109.854 82.9343 110.285 81.9908 110.713 81.0496C111.064 80.2748 111.461 79.5199 111.837 78.7555C112.661 77.0651 113.532 75.3998 114.405 73.7333C116.049 70.5891 117.827 67.5028 119.579 64.4155C121.248 61.472 122.855 58.4932 124.476 55.5257C125.989 52.757 127.479 49.9801 128.932 47.1832C129.127 46.7972 129.322 46.4116 129.518 46.0263C129.885 45.2986 130.751 44.9139 131.608 45.2528C132.386 45.5634 132.888 46.4938 132.519 47.2186C130.701 50.756 128.803 54.2516 126.894 57.7471C125.328 60.6168 123.78 63.5001 122.169 66.348C121.025 68.3727 119.879 70.3972 118.76 72.4341C117.704 74.3601 116.684 76.3056 115.672 78.2546C114.98 79.7119 114.248 81.1533 113.594 82.6299C112.847 84.3161 112.097 85.9985 111.369 87.6955C110.008 90.8665 108.686 94.052 107.446 97.2696C106.371 100.06 105.323 102.856 104.321 105.671C103.99 106.601 103.661 107.531 103.326 108.456C103.312 108.466 103.297 108.475 103.283 108.485L103.16 108.567C103.129 108.587 103.099 108.607 103.07 108.629C102.56 108.968 102.074 109.326 101.565 109.664C101.406 109.76 101.245 109.856 101.083 109.946C100.98 109.421 100.847 108.9 100.684 108.386V108.386Z" fill="#5C74A5"/>
<path d="M91.8095 133.184C91.1289 132.703 90.5614 132.098 90.1448 131.408C89.9379 131.071 89.7499 130.724 89.5814 130.37C89.0169 129.213 88.6457 127.991 88.1653 126.81C88.0833 126.627 87.9996 126.444 87.9022 126.258C87.8822 126.227 87.8601 126.198 87.842 126.162C87.7996 126.18 87.7597 126.198 87.7196 126.217L87.7112 126.223L87.78 126.191C87.7309 126.219 87.6773 126.251 87.6339 126.276C87.4964 126.371 87.3654 126.468 87.2337 126.573L86.9011 126.86L87.0447 126.738C85.9628 127.74 84.9591 128.816 83.6757 129.608C83.1595 129.92 82.5745 130.126 81.9583 130.213C81.5892 130.265 81.2123 130.273 80.8375 130.234C80.3472 130.182 79.8696 130.039 79.4332 129.815C79.0352 129.619 78.6879 129.344 78.3432 129.078C77.9847 128.787 77.6673 128.455 77.3989 128.09C77.1165 127.695 76.8657 127.281 76.6486 126.853C76.4061 126.41 76.1763 125.958 75.9315 125.517C75.7609 125.237 75.5888 124.96 75.3982 124.694C75.3669 124.661 75.3367 124.624 75.3056 124.591C75.2744 124.557 75.2302 124.527 75.1958 124.496C75.0867 124.415 74.9754 124.34 74.8603 124.269L74.706 124.19L74.5851 124.146C74.4717 124.118 74.3569 124.096 74.2413 124.081C74.3036 124.095 74.3641 124.101 74.426 124.112C74.3388 124.102 74.2452 124.091 74.1543 124.085C73.9629 124.088 73.776 124.095 73.5858 124.108C73.4234 124.126 73.2623 124.149 73.1005 124.18C72.8642 124.236 72.6313 124.304 72.4006 124.378C71.6974 124.628 71.0113 124.915 70.3455 125.237C69.6763 125.555 69.004 125.883 68.3136 126.168C67.6457 126.441 66.9271 126.691 66.2045 126.815C65.4793 126.941 64.7354 126.974 63.9933 126.914C63.2645 126.852 62.5236 126.615 61.8619 126.317C61.1748 125.991 60.5368 125.579 59.9667 125.093C58.7845 124.124 57.9337 122.876 56.8966 121.79C56.7653 121.663 56.6302 121.542 56.4877 121.426C56.3551 121.329 56.2161 121.238 56.0749 121.148C55.9542 121.082 55.8344 121.021 55.7084 120.963C55.6704 120.949 55.6304 120.935 55.5921 120.923C55.4396 120.881 55.2853 120.846 55.1295 120.82C55.005 120.803 54.8787 120.792 54.7528 120.786C54.652 120.784 54.5501 120.787 54.4485 120.793C54.2951 120.81 54.1435 120.831 53.992 120.856C53.7249 120.921 53.4608 120.996 53.1995 121.08C52.9137 121.181 52.632 121.292 52.3566 121.418C51.4617 121.857 50.6144 122.364 49.7592 122.858C49.3481 123.095 48.9241 123.33 48.5012 123.556C47.6749 123.992 46.7641 124.39 45.8217 124.571C44.9663 124.736 44.1003 124.764 43.2333 124.571C42.3662 124.378 41.586 123.923 40.909 123.388C40.572 123.103 40.2631 122.791 39.9863 122.455C39.7073 122.132 39.4538 121.792 39.2279 121.436C38.7224 120.666 38.2922 119.854 37.8327 119.058C37.5374 118.57 37.2295 118.09 36.8886 117.63C36.6997 117.4 36.5036 117.179 36.2992 116.962C36.1781 116.846 36.0537 116.735 35.9261 116.627C35.7911 116.529 35.6529 116.437 35.5083 116.351C35.4096 116.295 35.3084 116.243 35.2069 116.196C35.0666 116.138 34.9271 116.085 34.7831 116.04C34.7251 116.027 34.6704 116.015 34.6124 116.002C34.4386 115.978 34.2675 115.962 34.0917 115.951C33.916 115.94 33.7449 115.956 33.5721 115.963C33.4049 115.986 33.2414 116.012 33.0784 116.044C32.7538 116.118 32.4385 116.203 32.1251 116.303C31.9423 116.372 31.7666 116.449 31.5911 116.529C30.6806 116.998 29.8255 117.552 28.972 118.102L29.1143 118.01C28.8039 118.215 28.475 118.395 28.1309 118.549C27.7724 118.701 27.397 118.818 27.0105 118.899C26.2176 119.085 25.3792 119.078 24.575 118.879C23.7274 118.663 22.999 118.193 22.3563 117.644C21.653 117.042 21.0982 116.307 20.4666 115.644C20.3382 115.525 20.21 115.412 20.073 115.304C20.0068 115.255 19.9398 115.21 19.8709 115.166C19.8291 115.144 19.7865 115.122 19.742 115.101C19.6975 115.079 19.6501 115.067 19.6031 115.053C19.5382 115.035 19.4724 115.02 19.406 115.009C19.354 114.997 19.2971 114.995 19.2438 114.989C19.2685 114.995 19.2954 114.991 19.3236 114.993L19.4314 114.996C19.3897 114.994 19.3432 114.989 19.3072 114.99C19.2915 114.985 19.2755 114.982 19.2594 114.979L19.3046 114.99C19.2113 114.986 19.1168 114.988 19.0222 114.991C18.7803 115.019 18.5423 115.054 18.3041 115.098C17.4743 115.301 16.662 115.578 15.8584 115.844C15.2924 116.032 14.7202 116.197 14.1417 116.342C13.8116 116.431 13.4693 116.482 13.1227 116.493C12.7579 116.494 12.3571 116.5 12.0027 116.398C11.6464 116.309 11.3046 116.171 10.9885 115.989C10.6695 115.797 10.3778 115.568 10.121 115.307C9.64609 114.826 9.30625 114.244 9.0011 113.659C8.7107 113.101 8.45277 112.542 8.14711 111.996C8.0547 111.844 7.9546 111.694 7.84645 111.548C7.77525 111.465 7.70352 111.385 7.63127 111.308C7.48311 111.168 7.32327 111.042 7.16979 110.906C6.94728 110.706 6.73951 110.493 6.54797 110.268C6.18515 109.849 5.91704 109.348 5.69739 108.858C5.44716 108.297 5.25594 107.719 5.05411 107.145C4.91621 106.739 4.95388 106.304 5.15905 105.935C5.36423 105.565 5.72057 105.29 6.15172 105.169C6.19346 105.158 6.23758 105.149 6.27812 105.14C5.93858 104.786 5.71199 104.356 5.50627 103.92C5.16775 103.204 4.92633 102.438 4.70689 101.685C4.48745 100.933 4.27341 100.157 4.21507 99.3729C4.19799 98.9679 4.20793 98.5632 4.24483 98.1611C4.25871 97.8977 4.29136 97.6384 4.32896 97.3811C4.36367 97.1568 4.39461 96.9334 4.42983 96.7109C4.42205 96.7659 4.4124 96.8213 4.40462 96.8764C4.5561 95.8703 4.90516 94.6285 6.00189 94.1882C6.57218 93.9565 7.22244 93.9308 7.82816 94.1161C8.56254 94.3619 9.21244 94.8061 9.7607 95.3206C10.2846 95.8074 10.7149 96.3935 11.1166 96.9667C11.4442 97.4336 11.7398 97.9185 12.0016 98.4183C12.2816 98.9471 12.5648 99.4774 12.8172 100.017C13.2886 101.034 13.7545 102.063 14.1087 103.115C14.4629 104.167 14.7706 105.215 15.0604 106.275C15.0698 106.309 15.077 106.341 15.0874 106.374C15.5357 105.375 15.881 104.339 16.3026 103.33C16.7217 102.309 17.163 101.301 17.7188 100.345C18.1804 99.5515 18.7485 98.75 19.7132 98.4564C20.7352 98.1427 21.6267 99.0824 22.0523 99.846C22.6145 100.857 22.8673 101.994 23.151 103.086C23.2518 103.437 23.3515 103.794 23.4689 104.144C23.518 104.253 23.5721 104.36 23.6282 104.466L23.6367 104.477C23.6523 104.482 23.6672 104.489 23.6812 104.498C23.6919 104.499 23.7026 104.501 23.7128 104.505L23.7247 104.508L23.7643 104.507L23.8372 104.493C23.869 104.483 23.901 104.472 23.9337 104.462C24.0824 104.406 24.2279 104.347 24.3699 104.281C24.459 104.231 24.5484 104.179 24.6336 104.123C25.1473 103.771 25.6224 103.383 26.0966 102.987C26.3477 102.768 26.5989 102.552 26.8502 102.338C27.1139 102.095 27.4008 101.876 27.7076 101.681C27.9718 101.524 28.3475 101.37 28.6732 101.367C28.9553 101.355 29.2387 101.412 29.4942 101.534C29.8221 101.701 30.1047 101.938 30.3188 102.223C30.8191 102.905 30.9851 103.76 31.194 104.54C31.2357 104.686 31.2777 104.831 31.3192 104.979C31.401 105.251 31.4862 105.524 31.5929 105.789C31.6039 105.812 31.6173 105.837 31.6286 105.858C31.6648 105.832 31.6987 105.804 31.7365 105.776C31.9604 105.575 32.1788 105.37 32.3847 105.153C32.9377 104.516 33.4386 103.836 33.9408 103.161C34.4052 102.54 34.8289 101.888 35.3084 101.275C35.6548 100.834 36.1381 100.365 36.7589 100.276C37.4308 100.179 38.2233 100.385 38.6635 100.914C39.1741 101.521 39.4533 102.234 39.6469 102.97C39.872 103.825 40.0409 104.688 40.2613 105.544L40.3334 105.8L40.4327 105.756C40.7063 105.61 40.964 105.442 41.2269 105.275C41.1783 105.304 41.1292 105.335 41.0797 105.369C41.2911 105.224 41.4891 105.075 41.6841 104.919C41.9253 104.701 42.1506 104.473 42.3727 104.24C42.8558 103.68 43.313 103.103 43.7667 102.525C44.0019 102.228 44.24 101.933 44.4813 101.641C44.7897 101.265 45.1603 100.836 45.6033 100.589C46.0059 100.353 46.4833 100.244 46.9673 100.277C47.4513 100.309 47.9173 100.482 48.299 100.771C48.9162 101.246 49.25 101.939 49.5104 102.619C49.7179 103.164 49.8842 103.72 50.0864 104.269C50.1437 104.244 50.2014 104.219 50.2593 104.192C50.3326 104.152 50.404 104.113 50.4729 104.069C51.2587 103.545 51.9452 102.924 52.6833 102.349C52.9225 102.163 53.159 101.978 53.4086 101.803C53.9046 101.457 54.4124 101.092 55.023 100.928C55.7459 100.73 56.4444 100.981 56.9819 101.463C57.5481 101.965 57.7543 102.681 57.8895 103.361C58.0423 104.142 58.1136 104.941 58.2139 105.729C58.2129 105.734 58.2125 105.735 58.2115 105.74C58.3104 105.698 58.4087 105.659 58.5082 105.614C58.5835 105.573 58.6611 105.531 58.735 105.485C60.115 104.564 61.2841 103.409 62.6346 102.453C63.0947 102.128 63.6024 101.819 64.2121 101.804C64.9051 101.789 65.4622 102.127 65.8852 102.625C66.3344 103.158 66.4686 103.798 66.5881 104.44C66.7205 105.173 66.7421 105.917 66.818 106.654C66.8463 106.832 66.8785 107.006 66.9195 107.184C66.9644 107.336 67.0172 107.485 67.0763 107.63C67.0959 107.675 67.1188 107.717 67.1374 107.758C67.2522 107.693 67.3625 107.624 67.4731 107.554C68.4351 106.914 69.318 106.155 70.2192 105.45C70.8401 104.963 71.4638 104.475 72.1023 104.009C72.8823 103.442 73.6803 102.916 74.5908 102.535C74.9608 102.369 75.356 102.253 75.7648 102.19C76.1782 102.13 76.6051 102.169 77.0056 102.302C77.7601 102.558 77.9873 103.36 78.1184 104.006C78.2248 104.534 78.2692 105.079 78.3369 105.611C78.3769 105.862 78.4212 106.109 78.4804 106.359C78.5229 106.497 78.573 106.634 78.625 106.771C78.6567 106.838 78.6904 106.904 78.7237 106.967C78.7514 107.008 78.7794 107.047 78.8076 107.086C78.8358 107.124 78.8869 107.176 78.9276 107.223C78.907 107.202 78.8859 107.184 78.8672 107.164C78.8485 107.143 78.8288 107.115 78.8091 107.091C78.8268 107.112 78.8432 107.135 78.8607 107.157L78.8218 107.118C78.8359 107.135 78.8529 107.152 78.8689 107.168L78.8935 107.198L78.8757 107.174C78.9197 107.219 78.9663 107.262 79.0153 107.303C79.0502 107.327 79.084 107.353 79.1209 107.38L79.2112 107.425L79.3844 107.488C79.4484 107.502 79.5107 107.516 79.5747 107.53C79.6387 107.545 79.6884 107.542 79.7441 107.546C79.8449 107.548 79.9466 107.546 80.0465 107.539C80.1922 107.521 80.3372 107.501 80.4842 107.472C80.651 107.427 80.8144 107.381 80.9761 107.335C81.2848 107.222 81.587 107.097 81.8825 106.961C82.5376 106.625 83.1647 106.251 83.7958 105.882C84.2298 105.627 84.6695 105.386 85.0999 105.126C85.4694 104.902 85.8995 104.774 86.3472 104.754C86.8528 104.744 87.2804 104.944 87.6426 105.268C88.0357 105.619 88.2635 106.1 88.4066 106.572C88.5666 107.084 88.6828 107.604 88.8211 108.121C88.8808 108.308 88.9457 108.495 89.0176 108.679C89.0487 108.744 89.0781 108.809 89.1183 108.874C89.1417 108.91 89.1658 108.946 89.1918 108.982C89.1994 108.99 89.2077 108.997 89.2166 109.004C89.2378 109.017 89.2584 109.029 89.2778 109.043L89.3037 109.055C89.3174 109.058 89.3293 109.061 89.3414 109.059C89.3766 109.057 89.4093 109.056 89.4423 109.056C89.5672 109.042 89.6896 109.023 89.8126 109.002C89.8781 108.986 89.9423 108.967 90.0044 108.945C90.156 108.888 90.3005 108.822 90.451 108.758C91.3434 108.314 92.1689 107.78 93.0057 107.261C93.9425 106.674 94.9192 106.145 96.0203 105.85C96.3385 105.755 96.6704 105.7 97.0073 105.686C97.339 105.684 97.6712 105.714 97.9987 105.775C98.6625 105.897 99.2674 106.229 99.7081 106.714C99.93 106.955 100.125 107.215 100.29 107.491C100.448 107.777 100.578 108.075 100.677 108.381C100.84 108.892 100.973 109.41 101.076 109.933C101.238 109.842 101.399 109.746 101.559 109.65C102.067 109.313 102.554 108.955 103.062 108.616C103.466 108.345 103.895 108.061 104.374 107.91C104.903 107.746 105.499 107.687 106.04 107.882C106.49 108.044 106.875 108.374 107.146 108.737C107.44 109.132 107.591 109.553 107.716 110.01C107.957 110.938 107.984 111.902 108.044 112.85L108.073 112.835C108.216 112.763 108.353 112.685 108.489 112.603C109.528 111.895 110.506 111.108 111.525 110.37C112.112 109.947 112.694 109.523 113.301 109.12C114.525 108.296 115.836 107.587 117.218 107.002C118.521 106.461 119.92 106.125 121.358 106.008C122.739 105.895 124.196 106.139 125.27 107.053C125.741 107.456 126.088 108.017 126.322 108.557C126.573 109.168 126.748 109.8 126.842 110.443C126.976 111.233 127.057 112.03 127.24 112.812C127.241 112.82 127.244 112.828 127.248 112.835C127.267 112.839 127.289 112.838 127.307 112.841C127.325 112.845 127.354 112.839 127.38 112.839C127.424 112.832 127.472 112.829 127.512 112.821C127.738 112.768 127.961 112.705 128.179 112.641C128.905 112.364 129.599 112.023 130.292 111.689C130.886 111.397 131.604 111.049 132.3 111.204C133.058 111.373 133.688 111.849 133.949 112.543C134.398 113.743 134.329 115.019 134.474 116.257C134.487 116.347 134.505 116.437 134.528 116.526C134.518 116.507 134.51 116.487 134.504 116.468C134.512 116.492 134.522 116.517 134.533 116.541C134.54 116.566 134.546 116.591 134.554 116.614C134.548 116.593 134.543 116.575 134.539 116.555C134.546 116.573 134.555 116.592 134.564 116.611C134.569 116.623 134.576 116.635 134.583 116.646C134.598 116.657 134.613 116.668 134.629 116.677L134.641 116.685C134.667 116.691 134.689 116.703 134.711 116.71C134.771 116.724 134.83 116.737 134.889 116.75C135.058 116.773 135.222 116.785 135.39 116.794C135.789 116.801 136.191 116.791 136.589 116.771C136.72 116.76 136.852 116.747 136.981 116.729C137.259 116.687 137.545 116.608 137.83 116.632C138.075 116.664 138.31 116.752 138.512 116.889C138.714 117.025 138.877 117.206 138.985 117.414C139.221 117.878 139.095 118.344 138.954 118.798C138.866 119.046 138.763 119.288 138.645 119.525C138.546 119.74 138.448 119.958 138.347 120.173C138.155 120.589 137.949 121.002 137.752 121.418C137.765 121.391 137.778 121.363 137.791 121.337C137.717 121.49 137.644 121.646 137.571 121.799C137.571 121.801 137.571 121.803 137.569 121.806V121.806C137.569 121.81 137.568 121.814 137.567 121.818C137.546 121.861 137.527 121.903 137.505 121.946C137.483 121.989 137.466 122.031 137.446 122.072C136.834 123.374 136.247 124.684 135.719 126.024C135.583 126.368 135.464 126.719 135.344 127.069C135.199 127.492 135.077 127.906 134.857 128.304C134.449 129.048 133.707 129.597 132.969 130.047C132.528 130.308 132.055 130.521 131.558 130.684C130.573 131.024 129.485 131.146 128.432 131.258C127.515 131.359 126.589 131.391 125.661 131.355C125.71 131.356 125.761 131.36 125.811 131.36C124.345 131.317 122.887 130.97 121.499 130.494C120.237 130.065 119.061 129.443 117.793 129.035C117.606 128.988 117.421 128.946 117.232 128.91C117.17 128.903 117.107 128.898 117.044 128.893C116.928 128.893 116.812 128.896 116.697 128.898C116.57 128.913 116.445 128.934 116.32 128.957C116.195 128.98 116.092 129.017 115.98 129.05C115.911 129.072 115.838 129.101 115.773 129.122L115.744 129.13C115.431 129.236 115.127 129.378 114.827 129.514C114.332 129.76 113.854 130.026 113.382 130.312C112.638 130.81 111.916 131.335 111.205 131.877C110.409 132.489 109.63 133.121 108.819 133.713C108.363 134.06 107.872 134.366 107.35 134.625C106.882 134.85 106.222 134.912 105.715 134.729C105.133 134.508 104.656 134.091 104.383 133.565C103.979 132.827 103.918 131.995 103.888 131.196C103.869 130.704 103.88 130.216 103.887 129.726C103.889 129.315 103.887 128.898 103.862 128.482C103.718 128.537 103.58 128.596 103.443 128.659C103.155 128.803 102.884 128.965 102.612 129.132C101.544 129.839 100.528 130.605 99.5058 131.367C98.443 132.171 97.2809 132.857 96.0417 133.413C95.2262 133.775 94.305 133.903 93.3924 133.782C92.8238 133.707 92.2795 133.501 91.8095 133.184ZM35.9219 104.506C35.7156 104.764 35.5116 105.025 35.3054 105.283C35.8161 105.423 36.3157 105.573 36.8174 105.733L37.3941 105.931L37.5354 105.98L37.534 105.987L37.5626 106.075C37.4479 105.609 37.3626 105.139 37.2748 104.669C37.1811 104.172 37.0727 103.682 36.9535 103.191C36.6019 103.628 36.2672 104.073 35.9219 104.506ZM97.8698 112.87C97.8467 112.94 97.8307 113.011 97.8221 113.084C97.781 113.408 97.8567 113.74 98.0376 114.027C98.156 114.224 98.3149 114.398 98.5048 114.539C98.6947 114.68 98.9119 114.785 99.1434 114.849C99.2073 114.867 99.2719 114.881 99.3372 114.892C99.7175 114.943 100.101 114.879 100.43 114.708C100.758 114.538 101.014 114.272 101.159 113.949C101.365 113.481 101.562 113.009 101.756 112.534C101.742 112.54 101.728 112.545 101.713 112.549L101.672 112.563C101.246 112.71 100.786 112.765 100.327 112.725C99.8524 112.679 99.4675 112.416 99.1132 112.141C98.7821 111.886 98.5799 111.499 98.4503 111.128C98.2537 111.705 98.0602 112.286 97.8698 112.87V112.87ZM28.6617 103.084C28.6373 103.093 28.6102 103.102 28.5827 103.113C28.5551 103.124 28.5143 103.147 28.4818 103.164C28.1602 103.381 27.8536 103.62 27.555 103.863C28.0487 103.95 28.5394 104.036 29.0302 104.116C29.01 104.022 28.9828 103.927 28.9646 103.836C28.9633 103.829 28.9609 103.822 28.9575 103.815C28.9561 103.805 28.9535 103.795 28.9498 103.786C28.9517 103.777 28.9456 103.768 28.9441 103.759L28.9464 103.777L28.8797 103.533C28.8523 103.439 28.8245 103.351 28.7894 103.259L28.7557 103.189L28.7172 103.124L28.6792 103.078L28.6617 103.084ZM80.2953 110.171C80.769 110.238 81.2486 110.174 81.6731 109.987C82.0975 109.8 82.4477 109.498 82.679 109.12C81.926 109.469 81.1302 109.732 80.2776 109.784C79.9166 109.808 79.5519 109.79 79.1926 109.729C79.5185 109.957 79.8977 110.109 80.2961 110.171L80.2953 110.171ZM130.18 114.244C130.08 114.291 129.98 114.335 129.881 114.379C129.945 114.665 130.074 114.938 130.257 115.179C130.441 115.421 130.675 115.626 130.946 115.781C131.183 115.909 131.442 115.995 131.711 116.033C131.764 116.045 131.818 116.046 131.87 116.052C131.868 116.024 131.867 115.997 131.866 115.969C131.825 115.213 131.865 114.457 131.779 113.702C131.768 113.646 131.757 113.59 131.745 113.535C131.21 113.748 130.697 114.008 130.181 114.245L130.18 114.244Z" fill="#3A3E56"/>
<path d="M29.4885 107.891C29.2003 107.784 28.9651 107.577 28.8334 107.316C28.7017 107.055 28.6838 106.76 28.7838 106.495C28.7874 106.478 28.7964 106.462 28.8021 106.444C28.8078 106.427 28.7996 106.399 28.7973 106.378C28.7762 106.243 28.7531 106.109 28.7274 105.975C28.6908 106.086 28.6297 106.188 28.5478 106.275C28.466 106.361 28.3652 106.431 28.2516 106.479C27.7432 106.687 27.1926 106.408 26.9995 105.944C26.8743 105.645 26.9685 105.278 27.0239 104.981C27.0734 104.735 27.1198 104.49 27.1789 104.245C27.2555 103.933 27.3484 103.608 27.5499 103.347C27.8232 102.997 28.2769 102.862 28.7413 102.908C29.2922 102.964 29.7703 103.355 30.0526 103.781C30.3349 104.207 30.5322 104.684 30.7184 105.163C30.8153 105.404 30.9104 105.647 31.0039 105.892C31.1182 106.155 31.1677 106.436 31.1487 106.714C31.1227 106.964 31.0427 107.204 30.9134 107.421C30.8014 107.612 30.629 107.764 30.4185 107.86C30.208 107.955 29.9692 107.989 29.7328 107.956C29.6493 107.943 29.5673 107.922 29.4885 107.891V107.891Z" fill="#3A3E56"/>
<path d="M30.1672 110.457C29.9146 110.287 29.711 110.061 29.576 109.801C29.4468 109.524 29.3573 109.234 29.3096 108.938C29.2582 108.674 29.2181 108.408 29.1758 108.143C29.1001 107.679 29.0012 107.222 28.8876 106.763C28.7845 106.45 28.6743 106.14 28.5574 105.832C28.1839 105.024 27.7613 104.238 27.3146 103.461C27.2634 103.608 27.2133 103.755 27.1642 103.903C27.0796 104.283 27.0116 104.669 26.942 105.054C26.8842 105.386 26.8251 105.72 26.7567 106.051C26.658 106.531 26.5634 107.011 26.1927 107.377C25.9982 107.568 25.7453 107.699 25.4655 107.755C25.1857 107.811 24.8914 107.788 24.6193 107.69C24.3472 107.592 24.1094 107.423 23.9355 107.205C23.7617 106.986 23.6596 106.727 23.6418 106.46C23.5949 105.91 23.7549 105.381 23.9177 104.867C23.9372 104.803 23.9574 104.741 23.9769 104.677C24.01 104.488 24.0424 104.299 24.0756 104.11C23.8832 104.439 23.7046 104.774 23.5354 105.115L23.5554 105.074L23.5255 105.135C23.5224 105.141 23.5196 105.147 23.5173 105.153C23.5178 105.148 23.5188 105.144 23.5202 105.139C23.4957 105.189 23.4721 105.239 23.4486 105.288C23.4491 105.284 23.45 105.279 23.4514 105.275C23.4478 105.292 23.4364 105.306 23.4292 105.323C23.4239 105.332 23.4194 105.342 23.4155 105.352C23.4155 105.352 23.4155 105.352 23.4171 105.345C23.2773 105.643 23.1379 105.935 23.0269 106.24L23.0004 106.359C23.1305 106.462 23.2251 106.597 23.2717 106.747C23.3182 106.898 23.3144 107.056 23.2608 107.201C23.2212 107.299 23.1596 107.387 23.0798 107.46C23.0001 107.533 22.9041 107.589 22.7981 107.624C22.692 107.66 22.5783 107.674 22.4643 107.665C22.3503 107.657 22.2386 107.627 22.1365 107.576C21.8328 107.423 21.5903 107.181 21.4484 106.889C21.258 106.518 21.3266 106.089 21.3858 105.702C21.4767 105.156 21.6038 104.616 21.7662 104.086C21.9369 103.461 22.1585 102.851 22.4291 102.26C22.7109 101.678 23.0354 101.115 23.4005 100.577C23.7468 100.059 24.122 99.5567 24.5084 99.0644C24.6907 98.8327 24.8915 98.6109 25.0926 98.3957C25.2714 98.2164 25.4727 98.0575 25.6925 97.9221C26.0064 97.7189 26.4145 97.6642 26.7897 97.6367C27.1534 97.6124 27.5308 97.7194 27.8644 97.8422C28.1846 97.9645 28.4837 98.1322 28.7507 98.339C29.301 98.752 29.7241 99.2855 30.0768 99.8494C30.4299 100.411 30.7416 100.994 31.0099 101.592C31.3005 102.242 31.5471 102.896 31.7734 103.565C32.0102 104.264 32.1612 104.989 32.3103 105.704C32.4405 106.326 32.5392 106.957 32.6485 107.58C32.6951 107.849 32.7449 108.116 32.7862 108.385C32.86 108.858 32.9481 109.308 32.7745 109.766C32.507 110.476 31.6869 110.869 30.9133 110.755C30.6434 110.716 30.3864 110.613 30.1672 110.457V110.457Z" fill="#3A3E56"/>
<path d="M37.4601 110.083C37.3745 109.936 37.3045 109.783 37.2513 109.625C36.9619 109.554 36.7022 109.398 36.512 109.181C36.3218 108.963 36.2115 108.697 36.1979 108.422C36.1882 108.43 36.1777 108.436 36.1671 108.444C35.895 108.632 35.5581 108.724 35.2128 108.707C34.4912 108.689 33.8053 108.19 33.7834 107.484C33.7644 106.937 33.8782 106.398 33.9654 105.862C34.0312 105.458 34.1084 105.054 34.1908 104.652C34.2314 104.446 34.2742 104.242 34.3196 104.038C34.184 104.277 34.0549 104.519 33.9335 104.766C33.7876 105.088 33.6617 105.412 33.5516 105.745C33.5082 105.9 33.4707 106.056 33.4392 106.213C33.592 106.396 33.6935 106.61 33.7343 106.835C33.7751 107.059 33.7538 107.288 33.6724 107.499C33.4118 108.175 32.547 108.555 31.8 108.265C31.6066 108.193 31.4296 108.086 31.28 107.95C31.1304 107.814 31.0113 107.652 30.93 107.474C30.7466 107.091 30.7474 106.685 30.7625 106.28C30.7751 105.953 30.8785 105.622 30.9497 105.302C31.0319 104.933 31.1641 104.572 31.282 104.212C31.6084 103.245 32.1039 102.343 32.5947 101.447C32.7249 101.211 32.871 100.986 33.0102 100.755C33.3547 100.185 33.7451 99.6025 34.3421 99.2303C34.9097 98.8639 35.6154 98.7178 36.314 98.8221C37.048 98.937 37.6736 99.3132 38.1917 99.8062C39.2512 100.816 39.77 102.255 40.0872 103.582C40.3219 104.539 40.3752 105.507 40.4337 106.479C40.4679 107.05 40.4394 107.632 40.4264 108.205C40.422 108.482 40.4073 108.758 40.3911 109.036C40.3716 109.449 40.342 109.847 40.1148 110.208C39.9942 110.414 39.818 110.586 39.6028 110.708C39.3876 110.83 39.1403 110.899 38.8843 110.907C38.7944 110.91 38.7041 110.904 38.6147 110.891C38.121 110.82 37.7105 110.507 37.4601 110.083Z" fill="#3A3E56"/>
<path d="M23.5935 105.241C23.172 104.765 23.2013 103.981 23.742 103.617C23.9819 103.448 24.2674 103.341 24.5704 103.307L24.6455 103.3C24.8985 103.274 25.1447 103.218 25.4009 103.202C26.2178 103.154 26.9139 103.881 26.8563 104.614C26.8397 104.794 26.7824 104.967 26.6881 105.122C26.5938 105.277 26.4646 105.411 26.3088 105.515C26.1531 105.618 25.9744 105.69 25.7842 105.725C25.594 105.759 25.3966 105.756 25.2048 105.716C25.1126 105.695 25.0232 105.671 24.9336 105.646C24.7666 105.689 24.5902 105.698 24.4165 105.672C24.0975 105.626 23.8041 105.473 23.5935 105.241V105.241Z" fill="#3A3E56"/>
<path d="M79.8795 111.034C79.4062 110.878 78.9353 110.712 78.4605 110.568C78.3264 110.531 78.196 110.497 78.0618 110.468C77.9351 110.56 77.7876 110.626 77.6291 110.661C77.4706 110.695 77.3047 110.698 77.1425 110.669C76.9802 110.64 76.8253 110.579 76.688 110.491C76.5507 110.403 76.4342 110.289 76.3461 110.158C76.2581 110.027 76.2006 109.88 76.1774 109.729C76.1542 109.578 76.1659 109.425 76.2117 109.28C76.2574 109.136 76.3362 109.003 76.4429 108.891C76.5495 108.779 76.6814 108.69 76.83 108.63C76.9216 108.595 77.0174 108.57 77.1157 108.554C77.3404 108.501 77.5737 108.48 77.8076 108.492C78.3359 108.533 78.8447 108.682 79.3532 108.824C79.8617 108.966 80.3788 109.117 80.9015 109.215C81.0757 109.238 81.2432 109.253 81.415 109.262C81.5046 109.262 81.5904 109.259 81.6765 109.254C81.8601 109.234 82.0359 109.205 82.2146 109.171C82.3437 109.134 82.4708 109.098 82.598 109.058C82.8515 108.962 83.1016 108.86 83.3471 108.747C83.3868 108.725 83.4264 108.705 83.4658 108.681C84.0304 108.325 84.8677 108.499 85.3004 108.994C85.5367 109.266 85.6517 109.609 85.6208 109.95C85.5899 110.291 85.4156 110.603 85.1351 110.818C84.828 111.037 84.471 111.19 84.0884 111.267C83.6079 111.383 83.1127 111.448 82.6124 111.459C82.1966 111.471 81.7792 111.451 81.3645 111.4L81.2776 111.388C80.8022 111.31 80.3341 111.191 79.8795 111.034V111.034Z" fill="#3A3E56"/>
<path d="M98.0918 117.183C98.0596 117.028 98.0757 116.869 98.1384 116.725C98.201 116.581 98.3075 116.459 98.4452 116.372C98.4462 116.367 98.4389 116.36 98.4367 116.354C98.3067 116.473 98.1452 116.559 97.9671 116.604C97.7891 116.65 97.6 116.653 97.417 116.613C97.1819 116.559 96.9696 116.435 96.8125 116.262C96.6553 116.088 96.5619 115.874 96.5464 115.651C96.5257 115.366 96.5774 115.066 96.5983 114.783C96.6193 114.499 96.6385 114.2 96.6586 113.909C96.6977 113.299 96.6934 112.682 96.7014 112.071C96.6962 112.095 96.7015 112.119 96.7014 112.144C96.7018 112.061 96.7047 111.98 96.7065 111.904C96.6644 111.838 96.6303 111.768 96.6049 111.696C96.5473 111.523 96.5383 111.342 96.5788 111.168C96.6193 110.995 96.7079 110.835 96.8361 110.706C96.8361 110.706 96.8375 110.7 96.8449 110.699C97.2175 110.305 97.9669 110.298 98.3797 110.684C98.6487 110.936 98.8078 111.27 98.8249 111.618C98.8318 111.732 98.8302 111.847 98.8202 111.961C98.8859 111.883 98.9526 111.804 99.0202 111.726C99.1404 111.588 99.2666 111.452 99.3997 111.317C99.5462 111.159 99.7193 111.023 99.9128 110.916C100.06 110.832 100.223 110.772 100.394 110.739C100.607 110.704 100.827 110.708 101.042 110.752C101.245 110.797 101.437 110.88 101.608 110.994C101.778 111.108 101.924 111.252 102.036 111.416C102.129 111.554 102.201 111.703 102.249 111.858C102.368 111.806 102.499 111.777 102.633 111.774C102.767 111.771 102.901 111.792 103.028 111.838C103.216 111.905 103.381 112.022 103.501 112.174C103.621 112.326 103.692 112.505 103.703 112.69C103.718 113.145 103.596 113.551 103.408 113.961C103.689 114.175 103.873 114.478 103.922 114.807C103.947 115.034 103.923 115.261 103.851 115.475C103.779 115.69 103.661 115.887 103.504 116.056C102.869 116.754 101.861 117.159 100.938 117.444C100.36 117.624 99.7643 117.801 99.1491 117.877C99.0605 117.888 98.9701 117.888 98.8808 117.875C98.6901 117.849 98.5109 117.768 98.3691 117.644C98.2273 117.519 98.1302 117.358 98.0918 117.183ZM99.9827 113.828L100.076 113.789C100.084 113.756 100.082 113.722 100.086 113.689L99.9827 113.828Z" fill="#3A3E56"/>
</g>
<defs>
<clipPath id="clip0_682_3480">
<rect width="153" height="117" fill="white" transform="translate(25.5439 0.771332) rotate(12.5533)"/>
</clipPath>
</defs>
</svg>
