<svg width="117" height="149" fill="none" xmlns="http://www.w3.org/2000/svg"><g clip-path="url(#a)"><path d="M99.14 114.846a1.919 1.919 0 0 1-.638-.31 1.783 1.783 0 0 1-.467-.512l-.019-.031c.001-.005-.007-.012-.01-.018l-.007-.012-.011-.022-.005-.009-.012-.022-.004-.008-.023-.05-.008-.018-.007-.015c.001-.005-.004-.01-.006-.015l-.008-.021-.005-.01a1.333 1.333 0 0 1-.04-.904c.19-.584.384-1.167.58-1.748.13.371.332.759.664 1.014.2.162.418.303.65.422a.038.038 0 0 1 .024.01l.007.001c.12.057.248.099.379.127l.085.019c.031.007.048.01.075.008.459.04.919-.015 1.345-.162l.042-.013.014-.005.008-.003.019-.006c-.168.415-.34.829-.518 1.238l-.078.176a1.593 1.593 0 0 1-.73.759c-.328.17-.712.234-1.092.183a1.768 1.768 0 0 1-.204-.043ZM79.194 109.728c.358.062.722.08 1.083.056a6.207 6.207 0 0 0 1.983-.482l.043-.017c.125-.053.25-.108.373-.164-.161.27-.384.502-.654.682-.27.179-.58.302-.91.36a2.57 2.57 0 0 1-1.92-.433l.002-.002ZM37.537 105.987l.001-.006-.142-.049-.288-.099-.288-.098a38.609 38.609 0 0 0-1.512-.451c.206-.258.41-.519.616-.777.346-.433.68-.879 1.035-1.31.119.491.229.982.32 1.478.082.44.163.88.267 1.316l-.01-.004Z" fill="#81ACD2"/><path d="M31.172 104.462c-.06-.234-.12-.472-.187-.711a7.49 7.49 0 0 0-.2-.633l-.025-.062-.018-.045-.006-.018-.004-.01-.008-.02a.268.268 0 0 0-.013-.031l-.006-.013-.01-.021-.006-.014-.016-.037-.004-.01c-.007-.014-.012-.028-.02-.042l-.006-.014-.003-.008-.005-.008a2.85 2.85 0 0 0-.043-.086l-.007-.016a.218.218 0 0 1-.014-.028l-.016-.028-.017-.031-.006-.01-.022-.039-.005-.009a.15.15 0 0 0-.013-.022.169.169 0 0 0-.011-.019.277.277 0 0 0-.02-.032l-.01-.017-.024-.04-.004-.001c-.005-.001-.007-.011-.01-.015l-.02-.03-.02-.028-.004-.007-.046-.063a2.363 2.363 0 0 0-.823-.69 1.462 1.462 0 0 0-.414-.136l-.047-.011c-.028-.006-.058-.008-.088-.011a2.63 2.63 0 0 0-.266-.011c-.325.002-.701.157-.965.314a6.019 6.019 0 0 0-.858.656c-.253.215-.504.432-.753.649-.137.113-.273.227-.409.337l-.109.088a2.562 2.562 0 0 1-1.02-.745 2.408 2.408 0 0 1-.508-1.072 2.254 2.254 0 0 1-1.353-.182 16.246 16.246 0 0 0-.22-.651l-.005-.011-.016-.039a6.991 6.991 0 0 0-.348-.766l-.008-.014-.046-.087a3.84 3.84 0 0 0-.336-.5l-.01-.012-.014-.017c-.05-.06-.1-.12-.154-.18l-.011-.01-.017-.019-.011-.012-.025-.026a2.16 2.16 0 0 0-.103-.1l-.028-.027c-.893-5.261-1.706-10.533-2.527-15.802-.715-4.58-1.263-9.19-1.63-13.794l-.412-5.124a203.6 203.6 0 0 1-.519-7.246 79.869 79.869 0 0 1-.036-6.706c.066-2.59.2-5.147.412-7.703.189-2.299.527-4.572 1.135-6.795.17-.58.376-1.15.618-1.705.235-.584.51-1.152.822-1.701 1.02-1.723 2.522-3.744 4.924-3.725.604 0 1.206.116 1.768.34.547.213 1.077.61 1.514.978 1.216 1.03 2.06 2.382 2.783 3.73.74 1.39 1.339 2.836 1.928 4.278.966 2.366 1.89 4.743 2.772 7.132.821 2.244 1.427 4.536 1.929 6.846.409 1.895.741 3.797 1.088 5.7.315 1.728.511 3.475.76 5.21.107.724.16 1.455.237 2.18.1.948.2 1.894.304 2.84.298-2.948.607-5.892.964-8.834l.535-4.415c.116-.953.306-1.895.466-2.839.218-1.304.434-2.609.656-3.912.21-1.238.502-2.469.753-3.699.203-.996.39-1.994.626-2.986.357-1.485.713-2.97 1.067-4.452.264-1.093.65-2.165.98-3.242.32-1.04.654-2.063 1.037-3.084.435-1.147.825-2.317 1.313-3.445.487-1.128.931-2.284 1.487-3.385.865-1.71 1.713-3.407 2.786-5.014a11.99 11.99 0 0 1 1.306-1.65c.247-.26.513-.502.795-.728.269-.207.557-.393.86-.555.607-.346 1.378-.478 2.083-.552.852-.09 1.717.144 2.481.5 1.329.613 2.314 1.676 3.036 2.857.827 1.358 1.355 2.875 1.737 4.375.849 3.331.978 6.767.923 10.145-.048 3.078-.309 6.144-.502 9.212-.068 1.11-.207 2.214-.312 3.319-.027.288-.055.576-.08.866l.14-.483c.252-.872.479-1.752.76-2.615.77-2.364 1.486-4.747 2.38-7.069.5-1.294 1.005-2.586 1.505-3.877.14-.368.322-.725.483-1.085.37-.83.741-1.661 1.113-2.491.413-.925.848-1.826 1.306-2.73.545-1.085 1.06-2.192 1.668-3.249.946-1.644 1.863-3.287 2.988-4.836.845-1.16 1.762-2.24 2.919-3.142a5.623 5.623 0 0 1 1.742-.9c.823-.257 1.67-.261 2.54-.146 1.51.201 2.71 1.295 3.537 2.42.977 1.327 1.46 2.817 1.847 4.351.843 3.321.834 6.76.655 10.107a71.22 71.22 0 0 1-.85 7.939l-.786 4.7c-.442 2.642-.993 5.263-1.51 7.89-.478 2.429-.991 4.85-1.497 7.269l.02-.093-.044.202-.017.073a3669.354 3669.354 0 0 0-1.675 8.227c.8-2.386 1.586-4.777 2.376-7.167.394-1.18.807-2.356 1.209-3.533.351-1.031.68-2.07 1.065-3.09a3293.31 3293.31 0 0 1 1.552-4.096 76.395 76.395 0 0 1 2.18-5.206 47.676 47.676 0 0 1 3.618-6.465c.718-1.07 1.426-2.137 2.212-3.162l1.313-1.72c.844-1.102 1.837-2.12 2.839-3.095 1.001-.975 2.137-1.857 3.45-2.464a5.672 5.672 0 0 1 2.103-.519 4.895 4.895 0 0 1 1.121.042c.482.086 1.014.162 1.459.378.647.313 1.252.656 1.783 1.137a8.062 8.062 0 0 1 1.403 1.595c.899 1.393 1.468 2.911 1.804 4.483.688 3.226.553 6.557.321 9.788-.25 3.47-.876 6.87-1.725 10.235-.366 1.448-.818 2.87-1.254 4.296-.047.154-.094.31-.14.467l1.76-2.275c1.563-2.021 3.175-4.008 4.788-5.996.638-.79 1.304-1.553 1.969-2.32.758-.876 1.499-1.756 2.308-2.592l1.664-1.718a28.121 28.121 0 0 1 2.609-2.367c1.061-.852 2.201-1.663 3.481-2.223.62-.273 1.298-.502 1.989-.589a5.903 5.903 0 0 1 2.314.174c2.959.791 3.989 4.014 4.265 6.484.363 3.244-.017 6.459-.742 9.6a43.655 43.655 0 0 1-1.415 4.716c-.349.97-.696 1.947-1.112 2.891-.628 1.425-1.257 2.848-1.886 4.27a25.42 25.42 0 0 1-.61 1.294c.046-.046.089-.091.135-.134.863-.877 1.822-1.676 2.732-2.508.354-.324.711-.65 1.064-.976.441-.4.938-.76 1.404-1.136.939-.762 1.864-1.533 2.849-2.245l1.898-1.376c.435-.315.902-.598 1.357-.892.684-.437 1.365-.87 2.077-1.279 1.273-.739 2.774-1.49 4.347-1.476 1.252.009 2.501.431 3.411 1.288.45.42.83.9 1.127 1.422.404.703.592 1.473.72 2.247.11.677.088 1.386.033 2.064-.064.77-.174 1.533-.33 2.288-.331 1.626-.85 3.203-1.44 4.753-1.187 3.121-2.853 6.078-4.699 8.887-.185.281-.371.564-.561.844.217-.14.433-.279.651-.414.565-.349 1.131-.695 1.689-1.05.636-.402 1.329-.737 1.989-1.099.51-.279 1.041-.528 1.563-.79 1.16-.575 2.461-1.22 3.856-1.016a4.507 4.507 0 0 1 1.915.74c.53.378.973.851 1.303 1.389.35.546.553 1.187.717 1.793.223.818.255 1.67.285 2.5.057 1.64-.211 3.299-.512 4.897a41.884 41.884 0 0 1-1.315 5.195c-1.006 3.109-2.545 5.978-4.383 8.71-.371.551-.773 1.083-1.167 1.622-.424.58-.823 1.185-1.277 1.745-.724.894-1.413 1.824-2.182 2.682-.892.995-1.773 1.991-2.712 2.95-.96.98-1.932 1.935-2.928 2.885-2.317 2.209-4.82 4.298-7.667 5.91-.166.094-.336.182-.508.27.137-.447.254-.904.023-1.36l-.019-.035-.017-.03a1.46 1.46 0 0 0-.269-.322l-.008-.002-.023-.02-.011-.01-.018-.015-.016-.012-.014-.011a1.487 1.487 0 0 0-.369-.217l-.083-.031-.023-.005a1.26 1.26 0 0 0-.219-.049l-.023-.005-.035-.008c-.287-.027-.567.056-.849.097-.129.017-.26.031-.391.042-.398.019-.801.03-1.2.023a6.57 6.57 0 0 1-.5-.043 14.667 14.667 0 0 1-.178-.04c-.023-.005-.045-.017-.07-.025l-.013-.009a.337.337 0 0 1-.046-.031.221.221 0 0 1-.018-.034c-.009-.02-.019-.038-.025-.056.003.02.009.039.015.059-.008-.024-.016-.048-.021-.073a.602.602 0 0 1-.005-.016 2.085 2.085 0 0 1-.054-.268c-.145-1.238-.078-2.515-.526-3.714-.26-.695-.889-1.174-1.649-1.34l-.061-.014-.048-.011a1.572 1.572 0 0 0-.205-.016c-.594-.014-1.187.275-1.693.523-.692.333-1.388.678-2.112.952-.221.066-.444.129-.667.18-.043.007-.092.01-.132.018l-.073.002c-.018-.004-.04-.004-.058-.007a.085.085 0 0 1-.009-.022c-.184-.782-.265-1.58-.397-2.369a8.07 8.07 0 0 0-.521-1.887c-.238-.54-.581-1.1-1.052-1.503a4.045 4.045 0 0 0-.912-.586l-.029-.013-.028-.013-.041-.018c-.008-.002-.018-.004-.025-.01l-.05-.022-.016-.004-.069-.027-.008-.002c-.02-.005-.04-.016-.06-.023l-.023-.006-.045-.015-.028-.007-.044-.015-.027-.006-.061-.02-.047-.011-.017-.003-.053-.012-.005-.002a5.537 5.537 0 0 0-.709-.157l-.042-.01-.059-.007a6.58 6.58 0 0 0-.793-.059l-.052-.002c-.09 0-.18.001-.27.004l-.042.002-.041.001a6.698 6.698 0 0 0-.245.013l-.08.006a13.669 13.669 0 0 0-4.14.994 23.138 23.138 0 0 0-3.916 2.119c-.607.398-1.189.823-1.776 1.249-1.02.738-1.998 1.524-3.037 2.233-.135.082-.274.16-.415.232l-.03.015c-.058-.948-.082-1.91-.328-2.841-.122-.456-.275-.884-.569-1.272-.272-.363-.652-.693-1.107-.855l-.048-.016-.091-.028-.108-.024-.08-.018c-.043-.01-.086-.014-.131-.019l-.019-.004c-.052-.005-.104-.01-.156-.011l-.007-.002-.033-.001c-.015-.004-.031-.002-.046-.001l-.011-.002h-.054a3.073 3.073 0 0 0-.671.092c-.071.018-.14.038-.208.059-.481.147-.909.434-1.312.705-.509.339-.994.697-1.504 1.035-.158.096-.32.191-.482.282a14.062 14.062 0 0 0-.399-1.551 5 5 0 0 0-.388-.89 4.76 4.76 0 0 0-.58-.777 3.053 3.053 0 0 0-1.71-.94l-.085-.019a5.997 5.997 0 0 0-.612-.068l-.089-.005-.1-.001H97.013c-.337.015-.67.07-.988.165-1.101.296-2.073.825-3.014 1.412-.837.518-1.662 1.052-2.554 1.496a13.14 13.14 0 0 1-.447.188 3.71 3.71 0 0 1-.192.056c-.123.021-.245.04-.37.054l-.102.003a.106.106 0 0 0-.037-.004c-.014.002-.017-.009-.026-.012-.01-.004-.04-.025-.062-.039a.261.261 0 0 1-.024-.022 1.96 1.96 0 0 1-.073-.108 2.54 2.54 0 0 1-.1-.195 7.727 7.727 0 0 1-.197-.558c-.139-.517-.256-1.037-.416-1.549-.146-.474-.37-.953-.763-1.303a2.371 2.371 0 0 0-.205-.166l-.004-.001-.01-.002a.26.26 0 0 0-.025-.017l-.024-.017-.025-.016-.016-.01-.04-.024-.005-.001a1.748 1.748 0 0 0-.871-.253l-.072.001a2.619 2.619 0 0 0-1.247.371c-.43.26-.87.501-1.304.756-.63.369-1.258.744-1.913 1.079-.299.136-.595.261-.907.374a5.762 5.762 0 0 1-.491.137 7.518 7.518 0 0 1-.437.063c-.1.008-.202.01-.303.009a5.254 5.254 0 0 1-.17-.018c-.057-.006-.125-.027-.19-.042-.065-.014-.114-.041-.172-.062l-.09-.047-.106-.076a1.444 1.444 0 0 1-.14-.129l.018.025-.025-.03c-.016-.018-.033-.033-.047-.051l.04.039-.053-.066.059.074c.02.025.039.037.06.059-.04-.048-.082-.091-.12-.137l-.084-.119a3.546 3.546 0 0 1-.098-.197 5.033 5.033 0 0 1-.146-.412 10.15 10.15 0 0 1-.142-.748c-.068-.533-.113-1.078-.22-1.605-.13-.646-.357-1.448-1.112-1.704l-.067-.023-.096-.026a2.494 2.494 0 0 0-.363-.072l-.031-.007a2.766 2.766 0 0 0-.273-.014h-.04c-.068 0-.136.003-.207.009l-.025.002-.073.006-.064.007a4.57 4.57 0 0 0-1.175.347c-.91.38-1.708.907-2.488 1.473-.641.465-1.262.953-1.883 1.44-.903.71-1.785 1.465-2.747 2.104-.11.07-.22.138-.335.205-.022-.043-.045-.085-.06-.129-.057-.149-.113-.298-.158-.447a7.398 7.398 0 0 1-.102-.528c-.076-.738-.097-1.481-.23-2.215-.12-.642-.252-1.282-.702-1.815l-.041-.047c-.352-.396-.79-.682-1.318-.755l-.023-.005a.204.204 0 0 0-.034-.007.113.113 0 0 0-.018-.004l-.024-.006a2.467 2.467 0 0 0-.212-.006c-.612.015-1.12.326-1.578.649-1.353.955-2.523 2.11-3.9 3.032a5.28 5.28 0 0 1-.227.129c-.1.044-.197.083-.297.125l.003-.01c-.1-.79-.172-1.587-.325-2.369-.136-.679-.342-1.392-.908-1.898a2.668 2.668 0 0 0-.438-.318 2.138 2.138 0 0 0-.23-.116l-.028-.012-.023-.005-.016-.003a2.014 2.014 0 0 0-.314-.097l-.131-.029-.028-.006c-.035-.008-.072-.009-.108-.011l-.015-.003a1.862 1.862 0 0 0-.624.063c-.61.167-1.119.533-1.614.875-.249.176-.485.36-.725.547-.739.575-1.424 1.195-2.21 1.72-.07.043-.14.083-.214.121l-.173.078c-.203-.549-.368-1.105-.576-1.65-.26-.679-.59-1.372-1.21-1.848a2.341 2.341 0 0 0-.665-.36l-.025-.005a2.25 2.25 0 0 0-.398-.101l-.036-.008-.025-.006a2.496 2.496 0 0 0-1.38.208c-.039.017-.076.037-.114.056a1.03 1.03 0 0 0-.055.031c-.443.247-.813.676-1.122 1.052a30.98 30.98 0 0 0-.714.884c-.454.577-.91 1.155-1.395 1.714-.221.234-.447.461-.689.68-.195.155-.396.304-.603.449.048-.032.097-.061.146-.094-.262.168-.522.336-.794.482l-.1.044a18.042 18.042 0 0 0-.072-.255c-.22-.858-.39-1.72-.615-2.576-.194-.736-.473-1.444-.983-2.056a1.642 1.642 0 0 0-.467-.382l-.006-.002-.027-.015-.017-.009-.014-.008a2.266 2.266 0 0 0-.79-.23l-.01-.002-.044-.004-.01-.003c-.081-.006-.162-.008-.242-.006l-.1.003-.049.005-.092.01-.033.005c-.617.089-1.103.558-1.45 1-.48.612-.903 1.264-1.368 1.885-.32.429-.64.861-.971 1.283-.065.084-.13.165-.197.248a.186.186 0 0 0-.018.021l-.001.006a67.034 67.034 0 0 0-1.596-.265Z" fill="#81ACD2"/><path d="M27.556 103.863c.297-.243.605-.482.927-.699l.1-.051.08-.029.017-.006.039.047a.941.941 0 0 0 .038.064l.033.07c.036.09.064.179.09.274l.067.244-.002-.018c-.002.008.005.018.006.027a.117.117 0 0 1 .007.029.107.107 0 0 1 .007.021c.024.092.048.188.067.281-.492-.081-.982-.166-1.476-.254Z" fill="#81ACD2"/><path d="M30.664 102.378c-.083-1.2-.06-2.399-.094-3.6a47.646 47.646 0 0 0-.201-3.19l.004.04-.01-.096c-.002.01.002.02.003.03l-.01-.094a90.022 90.022 0 0 0-.024-.243c-.011-.095-.02-.192-.032-.288l-.001.008c-.1-.953-.203-1.905-.273-2.858-.061-.812-.086-1.625-.125-2.437-.096-1.782-.246-3.56-.423-5.338l.004.039c-.104-1.01-.21-2.016-.286-3.026-.073-.952-.108-1.905-.146-2.859a104.16 104.16 0 0 0-.42-5.914c-.002.012.004.026.005.04l-.006-.06a.061.061 0 0 1-.002-.018.087.087 0 0 0-.003.014c-.114-1.07-.24-2.141-.349-3.21-.13-1.248-.235-2.492-.33-3.743-.08-1.113-.132-2.227-.215-3.338-.086-1.19-.184-2.38-.293-3.568-.292-2.653-.572-5.31-1.022-7.952-.486-2.848-1.07-5.685-1.604-8.527-.243-1.283-.457-2.57-.708-3.85a316.152 316.152 0 0 0-1.058-5.135c-.135-.645.392-1.257 1.069-1.338.338-.036.683.052.96.246.277.194.466.479.524.792.337 1.61.657 3.224.96 4.84.252 1.357.486 2.717.729 4.074.477 2.684 1.025 5.357 1.448 8.048.44 2.804.71 5.622.954 8.44.23 2.676.293 5.358.434 8.036.054 1.007.14 2.006.236 3.014.198 1.69.413 3.373.595 5.059.198 1.8.372 3.601.544 5.403.302 2.617.748 5.226 1.075 7.845.171 1.363.354 2.726.55 4.09.193 1.332.436 2.661.584 3.997a39.58 39.58 0 0 1 .222 3.347c.029 1.167-.04 2.336-.12 3.495-.048.72-.764 1.267-1.522 1.262a1.64 1.64 0 0 1-.242-.019 1.716 1.716 0 0 1-.966-.507 1.488 1.488 0 0 1-.415-.951ZM43.309 99.074c.127-1.812.38-3.606.652-5.398.287-1.9.578-3.798.876-5.695.59-3.772 1.24-7.53 1.8-11.306.562-3.775 1.098-7.555 1.686-11.328.582-3.723 1.118-7.456 1.685-11.184 1.093-7.16 2.628-14.242 4.122-21.328a79.943 79.943 0 0 1 .156-.812l.143-.759c-.014.063-.023.127-.037.188l.095-.498c-.014.06-.024.125-.034.186l.096-.51c-.013.06-.027.123-.036.185.025-.14.05-.277.077-.416.032-.272.084-.541.154-.806.014-.061.021-.123.034-.184.026-.144.055-.287.082-.43-.014.06-.027.12-.035.185l.146-.777c-.014.063-.024.125-.035.186l.03-.132c.014-.063.023-.125.034-.186l.106-.563-.004.016c.013-.08.028-.163.044-.245l-.007.03a.41.41 0 0 1 .013-.055l.004-.022c.353-1.885.656-3.782.978-5.671.126-.747.805-1.302 1.656-1.195.784.1 1.48.83 1.346 1.576-.667 3.8-1.304 7.607-2.02 11.402-.332 1.763-.66 3.52-.997 5.282 0-.003 0-.006.002-.009l-.007.032a.207.207 0 0 0-.008.033c-.008.036-.015.07-.019.106.015-.065.025-.13.038-.196-.166.932-.326 1.868-.493 2.799-.156.88-.333 1.758-.466 2.641-.264 1.768-.582 3.533-.807 5.308-.25 1.967-.509 3.934-.72 5.907-.213 1.99-.421 3.983-.623 5.979-.175 1.688-.4 3.376-.628 5.061-.286 2.103-.57 4.207-.852 6.31-.476 3.535-.955 7.07-1.493 10.597-.416 2.704-.814 5.407-1.226 8.113a433.213 433.213 0 0 1-1.343 8.117 2.137 2.137 0 0 1-.236.696 2.49 2.49 0 0 0-1.011.033l-.008.002-.015.003a2.415 2.415 0 0 0-.605.243l-.034.019-.01.004-.033.021-.05.032c-.091.06-.179.125-.26.196l-.039.032-.01.007v.005a4.36 4.36 0 0 0-.304.297c-.987-.273-1.616-1.17-1.55-2.124ZM58.212 105.724c-.099-.79-.172-1.588-.325-2.37a3.286 3.286 0 0 0-.023-.114c.237-1.182.503-2.349.77-3.523.443-1.948.908-3.89 1.378-5.832.916-3.77 1.965-7.5 3.057-11.224 2.213-7.522 4.47-15.033 6.385-22.637.475-1.869.939-3.74 1.39-5.614.459-1.904.886-3.818 1.356-5.72.468-1.882.929-3.769 1.466-5.632a506.02 506.02 0 0 1 1.734-5.834c1.005-3.305 1.953-6.626 2.981-9.921a244.85 244.85 0 0 1 3.579-10.616c.333-.913 1.566-1.297 2.51-.928 1.019.404 1.435 1.447 1.094 2.36-.602 1.621-1.155 3.259-1.726 4.888-.605 1.866-1.222 3.727-1.785 5.603a153.538 153.538 0 0 0-1.591 5.91c-.948 3.748-1.988 7.468-3.06 11.182-1.113 3.856-2.322 7.685-3.454 11.534a314.636 314.636 0 0 0-3.08 11.33c-.94 3.707-1.802 7.433-2.685 11.153-.915 3.861-1.801 7.731-2.822 11.569-.672 2.53-1.452 5.034-2.227 7.536-.435 1.407-.85 2.819-1.299 4.222-.93.733-1.81 1.522-2.78 2.211l-.04.028-.046.031a16.02 16.02 0 0 1-.237.163c-.08.054-.15.088-.227.129l-.297.125c.006-.003.004-.006.004-.009ZM79.191 109.729a3.847 3.847 0 0 0 .418.051c.222.017.446.018.668.004.852-.052 1.648-.315 2.4-.664a2.157 2.157 0 0 1-.655.681c-.27.18-.58.302-.91.36-.33.058-.672.049-1.004-.026a2.562 2.562 0 0 1-.917-.406ZM79.391 107.491c-.056-.019-.115-.041-.172-.062l-.091-.046-.105-.076a1.663 1.663 0 0 1-.14-.13c.006.008.01.017.017.025l-.025-.03c-.016-.017-.033-.033-.047-.051.013.013.025.026.04.039l-.052-.066.058.074c.019.02.04.037.06.059-.04-.048-.082-.091-.12-.138-.038-.046-.055-.077-.083-.118a3.693 3.693 0 0 1-.099-.197 5.205 5.205 0 0 1-.145-.412 9.905 9.905 0 0 1-.143-.748c.003-.012-.004-.026-.004-.039 0-.014-.004-.027-.007-.04l.003-.011a27.57 27.57 0 0 1 .471-2.373c.31-1.34.683-2.667 1.042-3.997.377-1.396.744-2.8 1.173-4.18.463-1.503.964-2.995 1.478-4.48-.034.102-.07.202-.104.306 2.532-7.349 5.84-14.42 8.587-21.693 1.312-3.482 2.5-7.006 3.736-10.514 1.363-3.865 2.72-7.73 4.074-11.597-.02.049-.034.097-.053.146 1.073-3.134 2.149-6.259 3.195-9.396.194-.59.81-.971 1.49-.793.625.164 1.106.823.909 1.412-1.9 5.7-3.888 11.369-5.849 17.043.019-.05.035-.1.053-.146-.568 1.64-1.134 3.28-1.697 4.922l.052-.153a249.75 249.75 0 0 0-3.387 11.041c-1.085 3.854-2.203 7.7-3.27 11.559-1.017 3.685-2.195 7.326-3.308 10.984-.559 1.84-1.047 3.704-1.534 5.565-.507 1.933-1.021 3.863-1.507 5.803-.081.333-.164.663-.248.996l-.071.042-.146.086-.103.059c-.43.251-.863.5-1.308.732l-.121.063c-.3.136-.596.262-.907.374a6.938 6.938 0 0 1-.492.137c-.147.026-.291.046-.438.067a3.8 3.8 0 0 1-.303.007c-.055-.004-.111-.01-.169-.016a1.458 1.458 0 0 1-.19-.039ZM99.14 114.846a1.919 1.919 0 0 1-.638-.31 1.783 1.783 0 0 1-.467-.512l-.019-.031c.001-.005-.007-.012-.01-.018l-.007-.012-.011-.022-.005-.009-.012-.022-.004-.008-.023-.05-.008-.018-.007-.015c.001-.005-.004-.01-.006-.015l-.008-.021-.005-.01a1.333 1.333 0 0 1-.04-.904c.19-.584.384-1.167.58-1.748.032.094.07.187.112.278l.01.023.004.008a4.843 4.843 0 0 0 .061.125l.01.012.017.032-.001.005.01.017.007.014.013.022.007.009v.005l.006.011.004.007v.004l.006.013.01.012.014.02.007.01.004.005c.048.071.102.138.162.201l.01.01.008.009c.05.051.103.099.16.142.2.163.418.304.65.423a.038.038 0 0 1 .024.01l.008.001c.12.057.247.099.378.127l.086.019c.03.007.047.01.074.008.459.04.919-.015 1.345-.162l.042-.013.016-.005.007-.004a.095.095 0 0 0 .018-.005c-.195.474-.389.946-.596 1.414a1.591 1.591 0 0 1-.729.759 1.85 1.85 0 0 1-1.093.183 1.845 1.845 0 0 1-.18-.024ZM100.684 108.386c-.1-.306-.23-.604-.388-.89l-.02-.033-.008-.014-.004-.007-.02-.032-.009-.014-.038-.06c-.016-.025-.032-.051-.05-.075l-.005-.008-.017-.023-.005-.008c-.015-.019-.028-.038-.042-.058a3.43 3.43 0 0 0-.11-.145l-.043-.056c1.738-4.713 3.662-9.357 5.576-14.002a261.263 261.263 0 0 1 3.921-9.081l1.291-2.83c.351-.775.748-1.53 1.124-2.294a194.58 194.58 0 0 1 2.568-5.023c1.644-3.144 3.422-6.23 5.174-9.318 1.669-2.943 3.276-5.922 4.897-8.89a450.366 450.366 0 0 0 4.456-8.342l.586-1.157a1.633 1.633 0 0 1 2.09-.773c.778.31 1.28 1.24.911 1.966-1.818 3.537-3.716 7.033-5.625 10.528-1.566 2.87-3.114 5.753-4.725 8.601-1.144 2.025-2.29 4.05-3.409 6.086a291.489 291.489 0 0 0-3.088 5.82c-.692 1.458-1.424 2.9-2.078 4.376-.747 1.686-1.497 3.369-2.225 5.066a275.295 275.295 0 0 0-3.923 9.574 347.863 347.863 0 0 0-3.125 8.401c-.331.93-.66 1.86-.995 2.785l-.043.029-.123.082c-.031.02-.061.04-.09.062-.51.339-.996.697-1.505 1.035-.159.096-.32.192-.482.282a14.214 14.214 0 0 0-.399-1.56Z" fill="#5C74A5"/><path d="M91.81 133.184a5.949 5.949 0 0 1-1.665-1.776 11.115 11.115 0 0 1-.564-1.038c-.564-1.157-.935-2.379-1.416-3.56a9.885 9.885 0 0 0-.263-.552c-.02-.031-.042-.06-.06-.096a3.236 3.236 0 0 0-.122.055l-.009.006.069-.032-.146.085a7.21 7.21 0 0 0-.4.297l-.333.287.144-.122c-1.082 1.002-2.086 2.078-3.37 2.87a4.616 4.616 0 0 1-2.838.626 4.006 4.006 0 0 1-1.404-.419c-.398-.196-.745-.471-1.09-.737a5.377 5.377 0 0 1-.944-.988 9.578 9.578 0 0 1-.75-1.237c-.243-.443-.473-.895-.718-1.336-.17-.28-.342-.557-.533-.823-.031-.033-.061-.07-.092-.103-.032-.034-.076-.064-.11-.095a4.7 4.7 0 0 0-.336-.227l-.154-.079-.12-.044a3.098 3.098 0 0 0-.345-.065c.063.014.123.02.185.031-.087-.01-.18-.021-.272-.027-.191.003-.378.01-.568.023a6.2 6.2 0 0 0-.486.072c-.236.056-.469.124-.7.198-.703.25-1.389.537-2.055.859-.669.318-1.341.646-2.031.931-.668.273-1.387.523-2.11.647a8.788 8.788 0 0 1-2.21.099c-.73-.062-1.47-.299-2.132-.597a8.611 8.611 0 0 1-1.895-1.224c-1.182-.969-2.033-2.217-3.07-3.303a6.38 6.38 0 0 0-.41-.364 7.783 7.783 0 0 0-.412-.278 5.897 5.897 0 0 0-.367-.185 2.535 2.535 0 0 0-.116-.04 4.586 4.586 0 0 0-.462-.103 4.305 4.305 0 0 0-.377-.034c-.101-.002-.203.001-.304.007a8.65 8.65 0 0 0-.457.063c-.267.065-.531.14-.792.224-.286.101-.568.212-.843.338-.895.439-1.743.946-2.598 1.44-.41.237-.835.472-1.258.698-.826.436-1.737.834-2.68 1.015-.855.165-1.72.193-2.588 0-.867-.193-1.647-.648-2.324-1.183a7.31 7.31 0 0 1-.923-.933 8.645 8.645 0 0 1-.758-1.019c-.506-.77-.936-1.582-1.395-2.378a18.275 18.275 0 0 0-.944-1.428c-.19-.23-.385-.451-.59-.668a8.143 8.143 0 0 0-.373-.335 5.464 5.464 0 0 0-.418-.276 4.126 4.126 0 0 0-.301-.155 5.046 5.046 0 0 0-.424-.156l-.17-.038a6.95 6.95 0 0 0-.521-.051c-.176-.011-.347.005-.52.012-.167.023-.33.049-.494.081-.324.074-.64.159-.953.259a8.64 8.64 0 0 0-.534.226c-.91.469-1.765 1.023-2.619 1.573l.142-.092c-.31.205-.639.385-.983.539a6.048 6.048 0 0 1-1.12.35 5.21 5.21 0 0 1-2.436-.02c-.848-.216-1.576-.686-2.219-1.235-.703-.602-1.258-1.337-1.89-2a6.468 6.468 0 0 0-.393-.34 3.533 3.533 0 0 0-.202-.138 3.295 3.295 0 0 0-.129-.065c-.044-.022-.092-.034-.139-.048a1.9 1.9 0 0 0-.197-.044c-.052-.012-.109-.014-.162-.02.024.006.051.002.08.004l.107.003c-.041-.002-.088-.007-.124-.006a.394.394 0 0 0-.048-.011l.046.011a3.801 3.801 0 0 0-.283.001c-.242.028-.48.063-.718.107-.83.203-1.642.48-2.446.746-.566.188-1.138.353-1.716.498a4.46 4.46 0 0 1-1.02.151c-.364.001-.765.007-1.12-.095a3.955 3.955 0 0 1-1.014-.409 4.397 4.397 0 0 1-.867-.682c-.475-.481-.815-1.063-1.12-1.648-.29-.558-.548-1.117-.854-1.663a5.915 5.915 0 0 0-.3-.448 7.235 7.235 0 0 0-.216-.24c-.148-.14-.308-.266-.461-.402-.223-.2-.43-.413-.622-.638-.363-.419-.631-.92-.85-1.41-.25-.561-.442-1.139-.644-1.713a1.49 1.49 0 0 1 .105-1.21c.205-.37.562-.645.993-.766.041-.011.086-.02.126-.029-.34-.354-.566-.784-.772-1.22-.338-.716-.58-1.482-.8-2.235-.219-.752-.433-1.528-.49-2.312a9.074 9.074 0 0 1 .029-1.212c.014-.263.046-.523.084-.78.035-.224.066-.448.1-.67l-.024.165c.151-1.006.5-2.248 1.597-2.688a2.742 2.742 0 0 1 1.826-.072c.735.246 1.384.69 1.933 1.205.524.486.954 1.073 1.356 1.646.327.467.623.951.885 1.451.28.53.563 1.06.815 1.599.472 1.017.938 2.046 1.292 3.098.354 1.052.662 2.1.951 3.16l.027.099c.449-.999.794-2.035 1.216-3.044.419-1.021.86-2.029 1.416-2.985.461-.793 1.03-1.595 1.994-1.889 1.022-.313 1.914.626 2.34 1.39.561 1.011.814 2.148 1.098 3.24.1.351.2.708.318 1.058.049.109.103.216.16.322l.008.011c.015.005.03.012.044.021.01.001.022.003.032.007l.012.003.04-.001.072-.014.097-.031a6.3 6.3 0 0 0 .436-.181c.089-.05.178-.102.264-.158.513-.352.988-.74 1.463-1.136.25-.219.502-.435.753-.649a6.06 6.06 0 0 1 .858-.657c.264-.157.64-.311.965-.314.282-.012.566.045.821.167.328.167.61.404.825.689.5.682.666 1.537.875 2.317.042.146.084.291.125.439.082.272.167.545.274.81.01.023.024.048.036.069.036-.026.07-.054.107-.082.224-.201.443-.406.649-.623.553-.637 1.054-1.317 1.556-1.992.464-.621.888-1.273 1.367-1.886.347-.441.83-.91 1.45-.999.673-.097 1.465.109 1.905.638.511.607.79 1.32.984 2.056.225.855.394 1.718.614 2.574l.072.256.1-.044c.273-.146.531-.314.794-.481-.049.029-.098.06-.147.094.211-.145.41-.294.604-.45.241-.218.467-.446.689-.679.483-.56.94-1.137 1.394-1.715.235-.297.473-.592.714-.884.309-.376.68-.805 1.122-1.052a2.38 2.38 0 0 1 1.364-.312c.484.032.95.205 1.332.494.617.475.951 1.168 1.211 1.848.208.545.374 1.101.576 1.65.058-.025.115-.05.173-.077.074-.04.145-.079.214-.123.786-.524 1.472-1.145 2.21-1.72.24-.186.476-.371.726-.546.496-.346 1.003-.711 1.614-.875.723-.198 1.421.053 1.959.535.566.502.772 1.218.907 1.898.153.781.225 1.58.325 2.368l-.002.011c.098-.042.197-.081.296-.126.075-.041.153-.083.227-.129 1.38-.921 2.55-2.076 3.9-3.032.46-.325.967-.634 1.577-.649.693-.015 1.25.323 1.673.821.45.533.584 1.173.703 1.815.133.733.154 1.477.23 2.214.028.178.06.352.102.53.044.152.097.301.156.446.02.045.043.087.061.128a7.97 7.97 0 0 0 .336-.204c.962-.64 1.845-1.399 2.746-2.104.621-.487 1.245-.975 1.883-1.441.78-.567 1.578-1.093 2.489-1.474.37-.166.765-.282 1.174-.345.413-.06.84-.021 1.24.112.755.256.982 1.058 1.113 1.704.107.528.151 1.073.219 1.605.04.251.084.498.143.748.043.138.093.275.145.412.032.067.065.133.099.196.027.041.055.08.084.119.028.038.079.09.12.137-.021-.021-.042-.039-.06-.059-.02-.021-.04-.049-.059-.073.018.021.034.044.052.066l-.04-.039.048.05.025.03-.018-.024c.044.045.09.088.14.129l.105.077.09.045.173.063.19.042c.065.015.114.012.17.016.1.002.203 0 .302-.007.146-.018.291-.038.438-.067.167-.045.33-.091.492-.137.309-.113.611-.238.906-.374.656-.336 1.283-.71 1.914-1.079.434-.255.873-.496 1.304-.756.37-.224.8-.352 1.247-.372.506-.01.933.19 1.296.514.393.351.62.832.764 1.304.16.512.276 1.032.414 1.549.06.187.125.374.197.558.03.065.06.13.1.195.024.036.048.072.074.108a.228.228 0 0 0 .025.022c.02.013.041.025.06.039l.027.012c.013.003.025.006.037.004l.101-.003c.125-.014.248-.033.37-.054.066-.016.13-.035.192-.057.152-.057.296-.123.447-.187.892-.444 1.718-.978 2.555-1.497.936-.587 1.913-1.116 3.014-1.411.319-.095.65-.15.987-.164.332-.002.664.028.992.089a3.059 3.059 0 0 1 1.71.939c.221.241.416.501.581.777.158.286.288.584.387.89.163.511.296 1.029.399 1.552.162-.091.323-.187.483-.283.508-.337.995-.695 1.503-1.034.404-.271.833-.555 1.312-.706.529-.164 1.125-.223 1.666-.028.45.162.835.492 1.106.855.294.395.445.816.57 1.273.241.928.268 1.892.328 2.84l.029-.015c.143-.072.28-.15.416-.232 1.039-.708 2.017-1.495 3.036-2.233.587-.423 1.169-.847 1.776-1.25a23.213 23.213 0 0 1 3.917-2.118 13.698 13.698 0 0 1 4.14-.994c1.381-.113 2.838.131 3.912 1.045.471.403.818.964 1.052 1.504a8.01 8.01 0 0 1 .52 1.886c.134.79.215 1.587.398 2.369a.063.063 0 0 0 .008.023c.019.004.041.003.059.006.018.004.047-.002.073-.002.044-.007.092-.01.132-.018.226-.053.449-.116.667-.18.726-.277 1.42-.618 2.113-.952.594-.292 1.312-.64 2.008-.485.758.169 1.388.645 1.649 1.339.449 1.2.38 2.476.525 3.714.013.09.031.18.054.269a.738.738 0 0 0 .005.015c.007.025.013.05.021.073a.73.73 0 0 1-.015-.059l.025.056a.237.237 0 0 0 .019.035c.015.011.03.022.046.031l.012.008c.026.006.048.018.07.025l.178.04c.169.023.333.035.501.044.399.007.801-.003 1.199-.023.131-.011.263-.024.392-.042.278-.042.564-.121.849-.097.245.032.48.12.682.257.202.136.365.317.473.525.236.464.11.93-.031 1.384-.088.248-.191.49-.309.727-.099.215-.197.433-.298.648-.192.416-.398.829-.595 1.245l.039-.081c-.074.153-.147.309-.22.462 0 .002 0 .004-.002.007a.05.05 0 0 1-.002.012c-.021.043-.04.085-.062.128s-.039.085-.059.126a67.274 67.274 0 0 0-1.727 3.952c-.136.344-.255.695-.375 1.045-.145.423-.267.837-.487 1.235-.408.744-1.15 1.293-1.888 1.743a7.13 7.13 0 0 1-1.411.637c-.985.34-2.073.462-3.126.574a18.69 18.69 0 0 1-2.771.097c.049.001.1.005.15.005-1.466-.043-2.924-.39-4.312-.866-1.262-.429-2.438-1.051-3.706-1.459a9.859 9.859 0 0 0-.561-.125c-.062-.007-.125-.012-.188-.017-.116 0-.232.003-.347.005a5.911 5.911 0 0 0-.377.059c-.125.023-.228.06-.34.093-.069.022-.142.051-.207.072l-.029.008c-.313.106-.617.248-.917.384-.495.246-.973.512-1.445.798a43.586 43.586 0 0 0-2.177 1.565c-.796.612-1.575 1.244-2.386 1.836a9.115 9.115 0 0 1-1.469.912c-.468.225-1.128.287-1.635.104a2.49 2.49 0 0 1-1.332-1.164c-.404-.738-.465-1.57-.495-2.369-.019-.492-.008-.98-.001-1.47.002-.411 0-.828-.025-1.244a6.834 6.834 0 0 0-.419.177c-.288.144-.559.306-.831.473-1.068.707-2.084 1.473-3.106 2.235a17.849 17.849 0 0 1-3.464 2.046 4.942 4.942 0 0 1-2.65.369 3.702 3.702 0 0 1-1.582-.598Zm-55.888-28.678c-.206.258-.41.519-.617.777.511.14 1.01.29 1.512.45l.577.198.141.049-.001.007.029.088c-.115-.466-.2-.936-.288-1.406a29.119 29.119 0 0 0-.322-1.478c-.351.437-.686.882-1.031 1.315Zm61.948 8.364c-.023.07-.04.141-.048.214a1.43 1.43 0 0 0 .216.943c.118.197.277.371.467.512a1.937 1.937 0 0 0 .832.353c.38.051.764-.013 1.093-.184.328-.17.584-.436.729-.759.206-.468.403-.94.597-1.415a.312.312 0 0 1-.043.015l-.041.014a3.262 3.262 0 0 1-1.345.162c-.475-.046-.86-.309-1.214-.584-.33-.255-.533-.642-.663-1.013-.196.577-.39 1.158-.58 1.742Zm-69.208-9.786-.08.029c-.027.011-.068.034-.1.051-.322.217-.628.456-.927.699.494.087.984.173 1.475.253-.02-.094-.047-.189-.065-.28a.083.083 0 0 0-.008-.021.121.121 0 0 0-.007-.029c.002-.009-.004-.018-.006-.027l.002.018-.066-.244a3.496 3.496 0 0 0-.09-.274l-.034-.07-.039-.065-.038-.046-.017.006Zm51.633 7.087c.474.067.954.003 1.378-.184a2.222 2.222 0 0 0 1.006-.867c-.753.349-1.549.612-2.401.664a4.646 4.646 0 0 1-1.085-.055c.326.228.705.38 1.103.442Zm49.885 4.073c-.1.047-.2.091-.299.135.064.286.193.559.376.8.184.242.418.447.689.602.237.128.496.214.765.252.053.012.107.013.159.019a2.305 2.305 0 0 1-.004-.083c-.041-.756-.001-1.512-.087-2.267a8.21 8.21 0 0 0-.034-.167c-.535.213-1.048.473-1.564.71l-.001-.001Z" fill="#3A3E56"/><path d="M29.488 107.891a1.197 1.197 0 0 1-.655-.575 1.017 1.017 0 0 1-.05-.821c.004-.017.013-.033.02-.051.005-.017-.003-.045-.006-.066a11.858 11.858 0 0 0-.07-.403.806.806 0 0 1-.18.3.883.883 0 0 1-.295.204c-.509.208-1.06-.071-1.252-.535-.126-.299-.032-.666.024-.963.05-.246.096-.491.155-.736.077-.312.17-.637.37-.898.274-.35.728-.485 1.192-.439.551.056 1.03.447 1.312.873.282.426.48.903.665 1.382.097.241.192.484.286.729.114.263.164.544.145.822-.026.25-.106.49-.236.707a1.095 1.095 0 0 1-.494.439 1.25 1.25 0 0 1-.686.096 1.149 1.149 0 0 1-.245-.065Z" fill="#3A3E56"/><path d="M30.167 110.457a1.789 1.789 0 0 1-.591-.656 3.273 3.273 0 0 1-.266-.863c-.052-.264-.092-.53-.134-.795a17.385 17.385 0 0 0-.288-1.38 22.163 22.163 0 0 0-.33-.931 30.166 30.166 0 0 0-1.243-2.371c-.052.147-.102.294-.15.442-.085.38-.153.766-.223 1.151-.058.332-.117.666-.185.997-.099.48-.194.96-.564 1.326a1.437 1.437 0 0 1-.728.378 1.587 1.587 0 0 1-1.53-.55 1.344 1.344 0 0 1-.293-.745c-.047-.55.113-1.079.276-1.593l.059-.19.099-.567a16.62 16.62 0 0 0-.54 1.005l.02-.041-.03.061a.18.18 0 0 0-.009.018c0-.005.002-.009.003-.014l-.071.149.002-.013c-.003.017-.015.031-.022.048a.203.203 0 0 0-.013.029l.001-.007c-.14.298-.28.59-.39.895l-.027.119c.13.103.225.238.272.388a.705.705 0 0 1-.011.454.713.713 0 0 1-.181.259.835.835 0 0 1-.615.205.87.87 0 0 1-.328-.089 1.521 1.521 0 0 1-.689-.687c-.19-.371-.121-.8-.062-1.187.09-.546.218-1.086.38-1.616.17-.625.393-1.235.663-1.826.282-.582.606-1.145.972-1.683a24.66 24.66 0 0 1 1.107-1.513c.183-.231.384-.453.585-.668.178-.18.38-.338.6-.474.313-.203.721-.258 1.097-.285.363-.025.74.082 1.074.205.32.123.62.29.887.497.55.413.973.947 1.326 1.51.353.562.665 1.145.933 1.743.29.65.537 1.304.763 1.973.237.699.388 1.424.537 2.139.13.622.23 1.253.338 1.876.047.269.097.536.138.805.074.473.162.923-.011 1.381-.268.71-1.088 1.103-1.862.989a1.712 1.712 0 0 1-.746-.298Z" fill="#3A3E56"/><path d="M37.46 110.083a2.487 2.487 0 0 1-.209-.458 1.44 1.44 0 0 1-.739-.444 1.25 1.25 0 0 1-.314-.759l-.03.022c-.273.188-.61.28-.955.263-.722-.018-1.408-.517-1.43-1.223-.019-.547.095-1.086.182-1.622.066-.404.143-.808.226-1.21.04-.206.083-.41.129-.614-.136.239-.265.481-.386.728a9.862 9.862 0 0 0-.382.979c-.044.155-.081.311-.113.468.153.183.255.397.295.622.041.224.02.453-.062.664-.26.676-1.125 1.056-1.872.766a1.606 1.606 0 0 1-.52-.315 1.471 1.471 0 0 1-.35-.476c-.183-.383-.183-.789-.168-1.194.013-.327.116-.658.188-.978.082-.369.214-.73.332-1.09.326-.967.822-1.869 1.313-2.765.13-.236.276-.461.415-.692.345-.57.735-1.152 1.332-1.525a2.864 2.864 0 0 1 1.972-.408c.734.115 1.36.491 1.878.984 1.06 1.01 1.578 2.449 1.895 3.776.235.957.288 1.925.347 2.897.034.571.005 1.153-.008 1.726-.004.277-.019.553-.035.831-.02.413-.049.811-.276 1.172-.12.206-.297.378-.512.5a1.557 1.557 0 0 1-.988.183c-.494-.071-.904-.384-1.155-.808ZM23.593 105.241c-.421-.476-.392-1.26.149-1.624.24-.169.525-.276.828-.31l.075-.007c.253-.026.5-.082.756-.098.817-.048 1.513.679 1.455 1.412-.016.18-.074.353-.168.508a1.263 1.263 0 0 1-.38.393 1.415 1.415 0 0 1-.524.21c-.19.034-.387.031-.58-.009a5.782 5.782 0 0 1-.27-.07 1.378 1.378 0 0 1-1.34-.405ZM79.88 111.034c-.474-.156-.945-.322-1.42-.466a7.237 7.237 0 0 0-.398-.1 1.163 1.163 0 0 1-.433.193 1.264 1.264 0 0 1-.941-.17 1.178 1.178 0 0 1-.342-.333 1.06 1.06 0 0 1-.169-.429.989.989 0 0 1 .266-.838c.106-.112.238-.201.387-.261.092-.035.187-.06.286-.076.224-.053.458-.074.692-.062.528.041 1.037.19 1.545.332.509.142 1.026.293 1.549.391.174.023.341.038.513.047.09 0 .175-.003.261-.008.184-.02.36-.049.539-.083.129-.037.256-.073.383-.113.254-.096.504-.198.75-.311.039-.022.078-.042.118-.066.564-.356 1.402-.182 1.834.313.237.272.352.615.32.956-.03.341-.204.653-.485.868a2.728 2.728 0 0 1-1.047.449c-.48.116-.975.181-1.476.192a8.272 8.272 0 0 1-1.247-.059l-.087-.012a8.503 8.503 0 0 1-1.399-.354ZM98.092 117.183a.757.757 0 0 1 .046-.458.793.793 0 0 1 .307-.353c.001-.005-.006-.012-.008-.018a1.09 1.09 0 0 1-.47.25 1.173 1.173 0 0 1-1.155-.342 1.018 1.018 0 0 1-.266-.611c-.02-.285.031-.585.052-.868.021-.284.04-.583.06-.874.04-.61.035-1.227.043-1.838-.005.024 0 .048 0 .073 0-.083.004-.164.006-.24a.969.969 0 0 1 .13-1.198s0-.006.008-.007c.373-.394 1.122-.401 1.535-.015.269.252.428.586.445.934.007.114.005.229-.005.343l.2-.235c.12-.138.247-.274.38-.409.146-.158.32-.294.513-.401.147-.084.31-.144.481-.177.213-.035.433-.031.648.013.203.045.395.128.566.242a1.592 1.592 0 0 1 .641.864c.119-.052.25-.081.384-.084a1.088 1.088 0 0 1 .868.4c.12.152.191.331.202.516.015.455-.107.861-.295 1.271.281.214.465.517.514.846.025.227.001.454-.071.668-.072.215-.19.412-.347.581-.635.698-1.643 1.103-2.566 1.388-.578.18-1.174.357-1.789.433a1.005 1.005 0 0 1-.78-.233.865.865 0 0 1-.277-.461Zm1.89-3.355.094-.039c.008-.033.006-.067.01-.1l-.103.139Z" fill="#3A3E56"/></g><defs><clipPath id="a"><path fill="#fff" transform="rotate(12.553 9.266 116.506)" d="M0 0h153v117H0z"/></clipPath></defs></svg>