<svg width="389" height="321" viewBox="0 0 389 321" fill="none" xmlns="http://www.w3.org/2000/svg">
<path d="M390 25.4771C248.993 -6.78886 138.116 -10.1542 0 25.4771V321H390V25.4771Z" fill="#408ACD"/>
<path d="M390 25.4771C248.993 -6.78886 138.116 -10.1542 0 25.4771V321H390V25.4771Z" fill="black" fill-opacity="0.2"/>
<g style="mix-blend-mode:overlay" clip-path="url(#clip0_686_2429)">
<path d="M179.33 32.1294C179.429 31.9796 179.33 27.1362 179.33 27.1362C179.33 27.1362 221.859 25.4485 224 25.079C226.14 24.7095 278.99 21.4539 278.99 21.4539V25.9079" fill="#A5826A"/>
<path d="M100.338 84.6577C100.338 84.6577 108.135 79.4948 123.971 77.4975C139.806 75.5002 165.309 78.3264 165.309 82.4907C165.309 86.655 163.892 88.153 152.083 88.3128C140.274 88.4725 101.288 89.4812 100.338 84.6577Z" fill="#A5826A"/>
<path d="M52.7197 110.792L52.7481 106.668L110.801 110.792" fill="#A5826A"/>
<path d="M61.7783 114.707C60.3607 114.707 45.4754 110.962 57.171 107.467C68.8666 103.971 92.9666 93.985 102.89 94.4843C112.814 94.9837 157.115 92.9864 167.393 95.9823C177.671 98.9782 198.582 110.213 198.936 112.709C199.29 115.206 201.771 121.947 195.392 124.693C189.012 127.439 163.14 131.684 151.09 130.935C139.04 130.186 122.737 128.438 122.737 128.438" fill="#A5826A"/>
<path d="M52.8472 182.614L54.7326 191.272L75.9974 200.919L264.545 171.3L266.388 162.641L265.027 156.32L221.377 163.011" fill="#A5826A"/>
<path d="M151.615 200.59V207.91L170.512 222.889L282.974 215.569L300.936 200.59V194.208" fill="#A5826A"/>
<path d="M151.615 200.59L174.297 190.603C174.297 190.603 261.242 170.63 264.545 171.3C267.848 171.969 300.936 194.208 300.936 194.208C300.936 194.208 285.342 208.249 283.456 209.248C281.571 210.246 170.044 215.569 170.044 215.569L151.615 200.59Z" fill="#BCA18F"/>
<path d="M143.109 232.396L140.118 239.407L152.083 257.592L262.773 273.42L286.093 262.725L288.716 256.603" fill="#A5826A"/>
<path d="M143.109 232.396L168.924 227.403C168.924 227.403 260.349 225.935 263.241 227.243C266.133 228.551 288.758 256.563 288.758 256.563C288.758 256.563 268.075 266.849 265.863 267.418C263.652 267.988 154.677 250.442 154.677 250.442L143.109 232.396Z" fill="#BCA18F"/>
<path d="M116.726 296.878L115.592 304.158L138.005 320.956L286.221 325L312.022 311.918L313 305.576" fill="#A5826A"/>
<path d="M116.727 296.878L147.915 289.239C147.915 289.239 265.041 289.139 269.266 290.138C273.49 291.136 313 305.606 313 305.606C313 305.606 290.445 317.99 287.823 318.798C285.2 319.607 138.516 313.596 138.516 313.596L116.727 296.878Z" fill="#BCA18F"/>
<path d="M33 129.187V146.164C33 146.164 80.1369 161.892 82.6177 162.142C85.0986 162.392 167.322 153.154 167.322 153.154L219.421 147.662C219.421 147.662 190.473 132.433 151.615 130.435C112.757 128.438 56.0368 112.959 33 129.187Z" fill="#BCA18F"/>
<path d="M35.8353 154.902L33 146.164L82.6177 162.142L219.421 147.662L207.725 160.145L84.7442 171.28L35.8353 154.902Z" fill="#A5826A"/>
<path d="M273.348 41.5865V54.389C273.348 54.389 237.808 66.2429 235.937 66.4326C234.065 66.6223 172.142 59.6518 172.142 59.6518L132.874 55.5175C132.874 55.5175 154.691 44.0331 183.98 42.5352C213.268 41.0372 255.982 29.3631 273.348 41.5865Z" fill="#BCA18F"/>
<path d="M271.208 60.97L273.348 54.389L235.951 66.4326L132.831 55.5175L141.649 64.9246L234.335 73.3232L271.208 60.97Z" fill="#A5826A"/>
<path d="M52.8472 182.614C56.1503 180.946 216.827 150.328 220.13 150.987C223.433 151.646 265.027 156.32 265.027 156.32L260.774 166.796L76.9472 196.266L52.8472 182.614Z" fill="#BCA18F"/>
<path d="M61.7783 111.212C60.3607 111.212 45.4754 107.467 57.171 103.971C68.8666 100.476 92.9666 90.4898 102.89 90.9891C112.814 91.4884 157.115 89.4912 167.393 92.4871C177.671 95.483 198.582 106.718 198.936 109.214C199.29 111.711 201.771 118.452 195.392 121.198C189.012 123.944 163.14 128.188 151.09 127.439C139.04 126.69 122.737 124.943 122.737 124.943" fill="#BCA18F"/>
<path d="M100.338 79.9142V84.6577L165.309 83V77.7472" fill="#A5826A"/>
<path d="M100.338 79.9142C100.338 79.9142 108.135 74.7512 123.971 72.754C139.806 70.7567 165.309 73.5828 165.309 77.7472C165.309 81.9115 163.892 83.4094 152.083 83.5692C140.274 83.729 101.288 84.7376 100.338 79.9142Z" fill="#BCA18F"/>
<path d="M173.744 88.5225C173.744 88.5225 182.534 84.2283 198.61 83.8888C214.686 83.5493 239.339 88.9918 238.474 93.1062C237.609 97.2206 235.894 98.5588 224.17 97.5002C212.446 96.4417 173.673 93.3958 173.744 88.5225Z" fill="#A5826A"/>
<path d="M174.737 83.8289L173.744 88.5225L238.361 93.6055L239.466 88.4126" fill="#A5826A"/>
<path d="M174.765 83.8289C174.765 83.8289 183.554 79.5347 199.63 79.1952C215.707 78.8557 240.36 84.2982 239.495 88.4126C238.63 92.527 236.9 93.8652 225.191 92.8066C213.481 91.7481 174.666 88.7022 174.765 83.8289Z" fill="#BCA18F"/>
<path d="M184.334 28.4544C184.334 28.4544 205.797 21.6237 241.252 21.4639C276.708 21.3041 277.19 24.6196 278.608 24.9891C280.025 25.3586 277.899 27.8153 276.722 28.4843C275.545 29.1534 237.028 35.1353 219.066 35.305C201.105 35.4748 166.372 34.9755 184.334 28.4544Z" fill="#A5826A"/>
<path d="M184.334 23.9905C184.334 23.9905 205.797 17.1698 241.252 17C276.708 16.8302 277.19 20.1557 278.608 20.4952C280.025 20.8348 277.899 23.3214 276.722 23.9905C275.545 24.6596 237.028 30.6414 219.066 30.8112C201.105 30.9809 166.372 30.4916 184.334 23.9905Z" fill="#BCA18F"/>
</g>
<defs>
<clipPath id="clip0_686_2429">
<rect width="280" height="308" fill="white" transform="translate(33 17)"/>
</clipPath>
</defs>
</svg>
