<svg width="230" height="252" viewBox="0 0 230 252" fill="none" xmlns="http://www.w3.org/2000/svg">
<path d="M76.9698 38.49L67.7798 41.42L71.7598 59.65L78.5898 59.11L76.9698 38.49Z" fill="#BA96CB"/>
<path d="M159.76 32.95L149.06 32.81L150.68 53.42L157.51 52.89L159.76 32.95Z" fill="#BA96CB"/>
<path d="M54.1802 73.52L110.18 0L177.05 66.54L178.73 85.13L55.8602 94.81L54.1802 73.52Z" fill="#3F5386"/>
<path d="M62.2402 75.62L111.09 11.49L169.42 67.17L170.88 85.74L63.7102 94.19L62.2402 75.62Z" fill="#354656"/>
<path d="M62.3999 75.42L90.1399 39L62.3999 75.42ZM119.63 19.64L111.09 11.49L119.63 19.64Z" fill="#2C4B68"/>
<path d="M63.5499 90.05L62.3999 75.42L90.1399 38.99L111.09 11.49L119.63 19.64L66.1499 89.84L63.5499 90.05Z" fill="#243152"/>
<path d="M76.9697 38.49L110.18 0L77.3297 43.13L76.9697 38.49Z" fill="#BA96CB"/>
<path d="M110.18 0L149.06 32.81L149.56 39.19L110.18 0Z" fill="#BA96CB"/>
<path d="M175.14 138.35L198.05 123.61L200.71 93.32L205.39 91.67V88L199.91 86.67L206.43 64.18L196.38 58.52L192.5 84.72L188.09 86.62V89.54C188.09 89.54 191.74 90.34 192.5 91.14C193.26 91.94 192.5 117.01 192.5 117.01L175.14 135.65V138.35Z" fill="#BA96CB"/>
<path d="M174.02 111.16L197.59 134.72V209.06H202.23V236.72H174.02V111.16Z" fill="#BA96CB"/>
<path d="M32.7601 134.72V148.53L37.1501 149.46L40.5201 151.65L37.0601 150.09L32.7601 150.46V165.46H35.8401L40.5201 164.86L36.2201 166.04L32.7601 166.47V168.2L35.1801 168.6L36.6401 169.08L35.0001 168.86L32.7701 169.34V177L33.4401 177.44L34.8401 177.91L33.2701 177.66H32.7701V187.89L34.8801 189.1L39.6901 189.55L43.0601 188.62C43.0601 188.62 40.1101 189.69 39.9101 189.69L36.2701 189.86L37.6901 190.25H35.1901L32.7701 190.65V209.04H28.1201V236.7H56.3301V111.16L32.7601 134.72Z" fill="#BA96CB"/>
<path d="M229.39 240.56H0V236.72H229.39V240.56Z" fill="#39484F"/>
<path d="M183.37 94.25H151.38V84.76H183.37V94.25Z" fill="#CDCEF0"/>
<path d="M151.38 94.25H78.0098V86.55H151.38V94.25Z" fill="#5990B8"/>
<path d="M82.5298 94.25H78.0098V86.55L82.5298 94.25Z" fill="#3A6E8C"/>
<path d="M151.38 94.25H146.86L151.38 86.55V94.25Z" fill="#3A6E8C"/>
<path d="M168.96 236.72H60.4302V94.25H168.96V236.72Z" fill="#354656"/>
<path d="M49.8901 236.72H70.9601V216.55H49.8901V236.72Z" fill="#5990B8"/>
<path d="M49.8901 114.43H70.9601V94.25H49.8901V114.43Z" fill="#5990B8"/>
<path d="M50.5902 155.19L71.6202 153.78L70.2602 133.65L49.2402 135.06L50.5902 155.19Z" fill="#5990B8"/>
<path d="M54.1802 216.55H66.6702V154.11L54.1802 154.95V216.55Z" fill="#3F5386"/>
<path d="M54 134.74L66.67 133.93V114.44H54.18L54 134.74Z" fill="#3F5386"/>
<path d="M66.6702 120.64L54.1802 118.15V114.44H66.6702V120.64Z" fill="#2C4B68"/>
<path d="M66.6702 159.97L54.1802 157.47V154.95L66.6702 154.11V159.97Z" fill="#2C4B68"/>
<path d="M158.42 236.72H179.49V216.55H158.42V236.72Z" fill="#5990B8"/>
<path d="M158.42 114.43H179.49V94.25H158.42V114.43Z" fill="#5990B8"/>
<path d="M158.42 153.84H179.49V133.67H158.42V153.84Z" fill="#5990B8"/>
<path d="M162.71 216.55H175.2V153.84H162.71V216.55Z" fill="#3F5386"/>
<path d="M162.71 133.67H175.2V114.44H162.71V133.67Z" fill="#3F5386"/>
<path d="M175.2 120.64L162.71 118.15V114.44H175.2V120.64Z" fill="#2C4B68"/>
<path d="M175.2 153.84H162.71V153.77H175.2V153.84Z" fill="#3A6E8C"/>
<path d="M175.2 159.97L162.71 157.47V153.84H175.2V159.97Z" fill="#2C4B68"/>
<path d="M75.81 236.72H70.96V216.55H75.81V236.72Z" fill="#7080AA"/>
<path d="M71.5202 216.55H66.6802V192.46H71.5202V216.55M71.5202 163.05L66.6802 162.94V154.11L71.6202 153.78L70.2602 133.65L66.6802 133.89V114.44H71.5202V133.67H75.8102V153.84H71.5202V163.05" fill="#7080AA"/>
<path d="M71.6199 153.78L70.2599 133.65L66.6699 133.93V133.89L70.2599 133.65L71.6199 153.78Z" fill="#3A6E8C"/>
<path d="M158.42 236.72H153.58V216.55H158.42V236.72Z" fill="#7080AA"/>
<path d="M162.71 216.53H157.86V192.46H162.71V216.53ZM162.71 165.06L157.86 164.96V153.84H153.58V133.67H157.86V114.43H162.71V133.67H158.42V153.84H162.71V165.06" fill="#7080AA"/>
<path d="M158.42 114.43H153.58V99.05H75.81V114.43H70.96V99.05V94.25H75.81H153.58H158.42V99.05V114.43Z" fill="#7080AA"/>
<path d="M70.9601 99.05H49.8901V94.25H70.9601V99.05Z" fill="#3A6E8C"/>
<path d="M179.49 99.05H158.42V94.25H179.49V99.05Z" fill="#3A6E8C"/>
<path d="M50.2601 85.55L70.9601 84.76L71.2401 75.58L49.8901 76.9L50.2601 85.55Z" fill="#5990B8"/>
<path d="M158.42 84.76H179.49V76.9H158.42V84.76Z" fill="#5990B8"/>
<path d="M53.8902 151.58L67.8702 150.64L66.9702 137.26L52.9902 138.2L53.8902 151.58Z" fill="#354656"/>
<path d="M55.7699 149.52L65.7299 148.85L65.0899 139.31L55.1299 139.98L55.7699 149.52Z" fill="#5176BF"/>
<path d="M55.7699 149.52L55.1299 139.98L65.0899 139.31L65.1999 140.94L56.8599 141.5L57.3899 149.41L55.7699 149.52Z" fill="#355592"/>
<path d="M161.95 150.46H175.96V137.05H161.95V150.46Z" fill="#354656"/>
<path d="M163.97 148.53H173.95V138.97H163.97V148.53Z" fill="#5176BF"/>
<path d="M165.59 148.53H163.97V138.97H173.95V140.6H165.59V148.53Z" fill="#355592"/>
<path d="M87.1099 192.45V224.51H110.07V192.45H87.1099Z" fill="#3F5386"/>
<path d="M89.0601 194.39V222.57H108.13V194.39H89.0601Z" fill="#422B1D"/>
<path d="M97.7998 203.13H90.0298V195.36H97.7998V203.13Z" fill="#19191D"/>
<path d="M107.16 203.13H99.3799V195.36H107.16V203.13Z" fill="#19191D"/>
<path d="M97.7998 212.37H90.0298V204.59H97.7998V212.37Z" fill="#19191D"/>
<path d="M107.16 212.37H99.3799V204.59H107.16V212.37Z" fill="#19191D"/>
<path d="M87.1099 192.45L89.0599 194.39H108.13L110.07 192.45H87.1099Z" fill="#354656"/>
<path d="M110.11 224.51L108.16 222.57H89.0599L87.1099 224.51H110.11Z" fill="#5990B8"/>
<path d="M110.07 192.45H87.1099V190.99H110.07V192.45Z" fill="#3F5386"/>
<path d="M111.51 191H85.6802V189.36C94.174 187.36 103.016 187.36 111.51 189.36V191Z" fill="#5990B8"/>
<path d="M110.07 225.97H87.1099V224.51H110.07V225.97Z" fill="#3F5386"/>
<path d="M89.2501 228.59H87.1001V225.97H89.2501V228.59Z" fill="#354656"/>
<path d="M110.07 228.59H107.92V225.97H110.07V228.59Z" fill="#354656"/>
<path d="M97.7998 221.6H90.0298V213.83H97.7998V221.6Z" fill="#19191D"/>
<path d="M107.16 221.6H99.3799V213.83H107.16V221.6Z" fill="#19191D"/>
<path d="M145.23 235.53H116.36V236.72H145.23V235.53Z" fill="#5990B8"/>
<path d="M143.55 192.16H118.04V235.53H143.55V192.16Z" fill="#422B1D"/>
<path d="M132.66 235.53H119.12V193.28L136.43 197.22L132.66 235.53Z" fill="#3F5386"/>
<path d="M124.99 205.21L119.12 204.75V201.68L124.99 203.02L126.13 204.12L124.99 205.21Z" fill="#39484F"/>
<path d="M122.99 227.22L119.12 227.13V224.06L122.99 225.24L123.68 226.23L122.99 227.22Z" fill="#39484F"/>
<path d="M119.12 205.99H118.04V200.44H119.12V205.99Z" fill="#39484F"/>
<path d="M119.12 228.37H118.04V222.82H119.12V228.37Z" fill="#39484F"/>
<path d="M145.23 191.36H116.37V189.52C125.861 187.29 135.739 187.29 145.23 189.52V191.36" fill="#5990B8"/>
<path d="M116.36 191.36L118.04 192.16H143.55L145.23 191.36H116.36Z" fill="#354656"/>
<path d="M133.27 216.67C133.182 216.918 133.024 217.137 132.817 217.299C132.609 217.461 132.359 217.561 132.097 217.587C131.835 217.613 131.57 217.564 131.335 217.445C131.099 217.327 130.903 217.144 130.767 216.917C130.632 216.691 130.564 216.431 130.571 216.167C130.578 215.904 130.66 215.648 130.807 215.429C130.954 215.21 131.16 215.037 131.401 214.931C131.643 214.825 131.909 214.79 132.17 214.83C132.369 214.867 132.558 214.946 132.725 215.062C132.891 215.178 133.031 215.328 133.135 215.502C133.239 215.676 133.305 215.87 133.328 216.071C133.351 216.273 133.331 216.477 133.27 216.67V216.67Z" fill="#5EA0AF"/>
<path d="M131.64 218.23C131.514 218.222 131.39 218.263 131.295 218.346C131.199 218.428 131.14 218.544 131.13 218.67L131.04 219.39C131.028 219.499 131.057 219.609 131.122 219.698C131.186 219.787 131.282 219.848 131.39 219.87C131.499 219.885 131.611 219.856 131.7 219.791C131.789 219.726 131.85 219.629 131.87 219.52L132.01 218.81C132.025 218.748 132.027 218.683 132.016 218.62C132.005 218.556 131.982 218.496 131.947 218.442C131.913 218.388 131.868 218.341 131.815 218.305C131.762 218.268 131.703 218.243 131.64 218.23V218.23Z" fill="#5EA0AF"/>
<path d="M131.74 219C131.749 218.972 131.752 218.942 131.748 218.912C131.744 218.883 131.733 218.854 131.717 218.829C131.701 218.805 131.679 218.784 131.654 218.768C131.628 218.753 131.6 218.743 131.57 218.74C131.54 218.736 131.51 218.738 131.481 218.746C131.452 218.754 131.425 218.767 131.402 218.786C131.378 218.805 131.359 218.828 131.345 218.855C131.331 218.881 131.322 218.91 131.32 218.94C131.315 218.977 131.32 219.015 131.334 219.05C131.348 219.085 131.371 219.116 131.4 219.14L131.29 219.45L131.62 219.5V219.17C131.655 219.156 131.685 219.133 131.708 219.103C131.731 219.073 131.746 219.037 131.75 219H131.74Z" fill="#39484F"/>
<path d="M116.36 191.36V236.72L118.04 235.53V192.16L116.36 191.36Z" fill="#3F5386"/>
<path d="M145.23 191.36V236.72L143.55 235.53V192.16L145.23 191.36Z" fill="#3F5386"/>
<path d="M120.29 235.53H119.12V227.13H120.55L120.29 235.5M120.63 224.5L119.12 224.04V204.75L121.24 204.91L120.63 224.52" fill="#56412D"/>
<path d="M131.84 196.18L119.12 193.28H142.47V195.14L131.84 196.18Z" fill="#2C2117"/>
<path d="M121.33 202.19L119.12 201.68V193.28L131.84 196.18L121.48 197.19L121.33 202.19Z" fill="#56412D"/>
<path d="M121.24 204.91L119.12 204.75V201.68L121.33 202.19L121.24 204.91Z" fill="#283336"/>
<path d="M120.55 227.16L119.12 227.13V224.06L120.63 224.52L120.55 227.16Z" fill="#283336"/>
<path d="M170.87 165.24L109.4 163.89L52.3901 162.63L34.8301 180.19L109.75 182.75L192.57 185.57L170.87 165.24Z" fill="#5176BF"/>
<path d="M77.6701 163.19L76.6001 163.16L63.8301 181.18L64.8801 181.22L77.6701 163.19Z" fill="#36717E"/>
<path d="M98.9399 163.66L98.0499 163.64L93.8799 182.2L94.7699 182.23L98.9399 163.66Z" fill="#36717E"/>
<path d="M36.1699 180.24L53.7199 162.66L52.3899 162.63L34.8599 180.19L36.1699 180.24Z" fill="#36717E"/>
<path d="M120.92 164.14L120 164.12L125.03 183.26L125.96 183.3L120.92 164.14Z" fill="#36717E"/>
<path d="M170.87 165.24L169.32 165.21L190.94 185.51L192.53 185.56L170.87 165.24Z" fill="#36717E"/>
<path d="M143.63 164.64L142.47 164.62L157.34 184.37L158.53 184.41L143.63 164.64Z" fill="#36717E"/>
<path d="M192.76 190.3L34.8301 184.47V180.19L192.57 185.57L192.76 190.3Z" fill="#36717E"/>
<path d="M185 183.31L157 182.39L151.54 175.14L173.36 172.37L185 183.31ZM155.81 182.31L125.43 181.31L124.69 178.51L150.48 175.24L155.81 182.31M124.5 181.31L107.28 180.75L123.8 178.65L124.5 181.31Z" fill="#9AB9DE"/>
<path d="M125.45 181.35L124.52 181.32L123.82 178.66L124.71 178.55L125.45 181.35Z" fill="#798DB5"/>
<path d="M157.01 182.39L155.83 182.35L150.5 175.28L151.55 175.14L157.01 182.39Z" fill="#798DB5"/>
<path d="M217.57 212.26L210.94 214.33V212.96C210.94 210.96 210.83 207.09 210.83 207.09L215.88 197.35L202.53 193L199.78 206.14C199.78 206.14 199.98 207.43 200.09 208.07C200.36 210.01 200.75 211.93 201.09 213.86L202.09 219.65V218.82L202.34 223.21C202.44 224.68 202.47 226.14 202.63 227.61C202.89 230.55 203.16 233.49 203.63 236.44L206.22 236.68C207.22 233.86 208.03 231.02 208.82 228.18C209.24 226.76 209.54 225.33 209.9 223.91L210.95 219.63V218.8V217.15L216.72 215.66L223.72 224.46L225.46 219.8L224 217.31L217.59 212.26H217.57Z" fill="#463D6C"/>
<path d="M210.06 215.1L215.55 212.89L210.93 214.33V213L210.81 207.13L213.76 201.46L210.31 207.18L210.07 215.18L210.06 215.1Z" fill="#603755"/>
<path d="M206.87 234.91L205.38 233.91L204.44 220.13L201.07 213.78C201.065 213.817 201.065 213.854 201.07 213.89L202.07 219.68V218.85L202.32 223.24C202.42 224.71 202.45 226.17 202.61 227.64C202.86 230.58 203.17 233.75 203.61 236.71H206.17C206.39 236.11 206.59 235.5 206.78 234.9L206.87 234.91Z" fill="#603755"/>
<path d="M162.71 192.46V189.19V192.46ZM157.86 192.46H145.23V191.36L143.55 192.16L145.23 191.36H116.37L118.04 192.16L116.37 191.36V192.46H110.07V191H111.51V189.36C103.016 187.36 94.1739 187.36 85.68 189.36V191H87.11V192.46H71.52V185.82L128.02 187.91C124.095 188.081 120.194 188.62 116.37 189.52V191.36H145.23V189.52C142.921 188.982 140.584 188.571 138.23 188.29L157.88 189.01V192.46" fill="#7080AA"/>
<path d="M66.6702 192.46H54.1802V185.19L66.6702 185.65V192.46Z" fill="#2C4B68"/>
<path d="M175.2 192.46H162.71V189.19L175.2 189.65V192.46Z" fill="#2C4B68"/>
<path d="M71.5199 192.46H66.6699V185.65L71.5199 185.82V192.46Z" fill="#4D4981"/>
<path d="M162.71 192.46H157.86V189.01L162.71 189.19V192.46Z" fill="#4D4981"/>
<path d="M110.05 192.46H87.1299L87.1099 192.45H110.07L110.05 192.46Z" fill="#243152"/>
<path d="M110.07 192.45H87.1099V190.99H110.07V192.45Z" fill="#2C4B68"/>
<path d="M111.51 191H85.6802V189.36C94.174 187.36 103.016 187.36 111.51 189.36V191Z" fill="#3A6E8C"/>
<path d="M143.55 192.46H118.04V192.16H143.55V192.46Z" fill="#332317"/>
<path d="M145.23 191.36H116.37V189.52C120.188 188.622 124.082 188.083 128 187.91L138.19 188.29C140.544 188.571 142.881 188.982 145.19 189.52V191.36" fill="#3A6E8C"/>
<path d="M143.55 192.16H118.04L116.36 191.36H145.23L143.55 192.16Z" fill="#243152"/>
<path d="M118.04 192.46H116.36V191.36L118.04 192.16V192.46Z" fill="#2C4B68"/>
<path d="M145.23 192.46H143.55V192.16L145.23 191.36V192.46Z" fill="#2C4B68"/>
<path d="M175.2 184.97L162.39 184.54H175.2V184.97Z" fill="#355592"/>
<path d="M175.2 189.65L162.71 189.19L157.86 189.01L138.21 188.29L128.02 187.91L71.5202 185.82L66.6702 185.65L54.1802 185.19V184.54H162.39L175.2 184.97V189.65Z" fill="#613926"/>
<path d="M87.2 113.25L87.02 145.32L109.98 145.45L110.16 113.38L87.2 113.25Z" fill="#3F5386"/>
<path d="M89.1302 115.21L88.9702 143.39L108.05 143.5L108.2 115.31L89.1302 115.21Z" fill="#422B1D"/>
<path d="M97.8301 124L90.0601 123.96L90.1001 116.18L97.8801 116.23L97.8301 124Z" fill="#19191D"/>
<path d="M107.18 124.05L99.4102 124.01L99.4501 116.24L107.23 116.28L107.18 124.05Z" fill="#19191D"/>
<path d="M97.78 133.23L90 133.19L90.05 125.42L97.82 125.46L97.78 133.23Z" fill="#19191D"/>
<path d="M107.13 133.29L99.3599 133.24L99.3999 125.47L107.18 125.51L107.13 133.29Z" fill="#19191D"/>
<path d="M87.2002 113.25L89.1302 115.2L108.2 115.31L110.16 113.38L87.2002 113.25Z" fill="#354656"/>
<path d="M110.02 145.45L108.08 143.5L88.98 143.39L87.02 145.32L110.02 145.45Z" fill="#5990B8"/>
<path d="M110.16 113.38L87.2002 113.25L87.2102 111.79L110.17 111.92L110.16 113.38Z" fill="#3F5386"/>
<path d="M111.6 111.93L85.77 111.79V110.15C94.2753 108.201 103.116 108.249 111.6 110.29V110.29V111.93Z" fill="#5990B8"/>
<path d="M109.97 146.91L87.0098 146.78L87.0198 145.32L109.98 145.45L109.97 146.91Z" fill="#3F5386"/>
<path d="M89.1302 149.4L86.9902 149.39L87.0002 146.78L89.1502 146.79L89.1302 149.4Z" fill="#354656"/>
<path d="M109.96 149.52L107.81 149.51L107.82 146.9L109.97 146.91L109.96 149.52Z" fill="#354656"/>
<path d="M97.7302 142.47L89.9502 142.42L90.0002 134.65L97.7702 134.69L97.7302 142.47Z" fill="#19191D"/>
<path d="M107.08 142.52L99.3101 142.47L99.3501 134.7L107.12 134.74L107.08 142.52Z" fill="#19191D"/>
<path d="M22.4502 211.05L35.1602 207.71L52.0002 208.31L62.5202 209.85L65.8702 209.38L66.3602 214.89L58.7402 216.15L50.3502 213C50.3502 213 35.4902 211.3 35.2202 211.3C34.9502 211.3 23.1602 213.39 23.1602 213.39L22.4502 211.08V211.05Z" fill="#5176BF"/>
<path d="M25.8401 236.72L23.8701 224.11L24.8601 213.36L23.8701 209.3L28.1501 207.99L29.4601 213.03L27.4901 224.98L28.1501 236.72H25.8401Z" fill="#36717E"/>
<path d="M61.3702 236.72L62.3602 224.44L63.7302 212.59L63.3402 209.3L59.0702 207.99L59.1202 212.26L58.7402 225.31L59.0702 236.72H61.3702Z" fill="#36717E"/>
<path d="M30.0502 212.88H30.0002L23.5502 210.61C23.5225 210.601 23.4969 210.587 23.4748 210.568C23.4528 210.549 23.4347 210.525 23.4217 210.499C23.4086 210.473 23.4009 210.445 23.3989 210.416C23.397 210.387 23.4008 210.358 23.4102 210.33C23.4305 210.276 23.4707 210.231 23.5227 210.205C23.5746 210.179 23.6344 210.174 23.6902 210.19L30.1402 212.46C30.1678 212.469 30.1933 212.483 30.215 212.503C30.2367 212.522 30.2543 212.545 30.2665 212.572C30.2787 212.598 30.2853 212.626 30.286 212.655C30.2866 212.684 30.2812 212.713 30.2702 212.74C30.2573 212.783 30.2309 212.821 30.1949 212.848C30.1589 212.875 30.1152 212.89 30.0702 212.89L30.0502 212.88Z" fill="#CDCEF0"/>
<path d="M24.6501 213.51C24.6142 213.509 24.579 213.5 24.5476 213.482C24.5163 213.465 24.4896 213.44 24.4701 213.41C24.4534 213.387 24.4418 213.36 24.4358 213.332C24.4298 213.304 24.4296 213.275 24.4352 213.247C24.4409 213.219 24.4522 213.192 24.4685 213.169C24.4848 213.145 24.5057 213.125 24.5301 213.11L26.8501 211.5L28.3301 209.26C28.3659 209.223 28.4135 209.2 28.4646 209.194C28.5157 209.189 28.5671 209.202 28.6099 209.23C28.6527 209.259 28.6841 209.301 28.6988 209.351C28.7134 209.4 28.7103 209.453 28.6901 209.5L27.1401 211.84L24.7801 213.47C24.7373 213.48 24.6928 213.48 24.6501 213.47V213.51Z" fill="#CDCEF0"/>
<path d="M63.5599 215.77C63.495 215.766 63.434 215.738 63.3899 215.69L61.5999 213.42L58.8999 209.27C58.8791 209.221 58.8778 209.165 58.8964 209.115C58.915 209.065 58.952 209.024 58.9999 209C59.0241 208.983 59.0514 208.971 59.0802 208.965C59.109 208.959 59.1387 208.959 59.1676 208.964C59.1965 208.97 59.224 208.981 59.2485 208.998C59.2729 209.014 59.2938 209.035 59.3099 209.06L61.9999 213.17L63.7799 215.41C63.8208 215.451 63.8438 215.507 63.8438 215.565C63.8438 215.623 63.8208 215.679 63.7799 215.72C63.7397 215.751 63.6907 215.769 63.6399 215.77H63.5599Z" fill="#CDCEF0"/>
<path d="M58.7401 216.65C58.7007 216.66 58.6595 216.66 58.6201 216.65C58.5954 216.634 58.5743 216.613 58.5579 216.589C58.5415 216.564 58.5301 216.537 58.5245 216.508C58.5189 216.479 58.5192 216.449 58.5253 216.42C58.5314 216.391 58.5432 216.364 58.5601 216.34L61.1401 212.52L63.3901 209.61C63.4098 209.589 63.4337 209.571 63.4604 209.56C63.4871 209.548 63.5159 209.542 63.5451 209.542C63.5742 209.542 63.6031 209.548 63.6298 209.56C63.6565 209.571 63.6804 209.589 63.7001 209.61C63.7387 209.652 63.7602 209.708 63.7602 209.765C63.7602 209.822 63.7387 209.878 63.7001 209.92L61.4601 212.81L58.8801 216.63C58.8605 216.66 58.8339 216.685 58.8025 216.702C58.7711 216.72 58.736 216.729 58.7001 216.73L58.7401 216.65Z" fill="#CDCEF0"/>
<path d="M27.4902 224.98L28.1202 221.14L27.4902 224.98Z" fill="#B0B4C8"/>
<path d="M28.1201 221.14L29.1801 214.73L28.1201 221.14Z" fill="#5F5E9A"/>
<path d="M28.1502 236.72H27.2102L25.9502 226.82L29.1802 214.73L28.1202 221.14L27.4902 224.98L28.1502 236.72Z" fill="#613926"/>
<path d="M66.2202 213.29L63.6202 213.51L63.4102 215.38L66.3602 214.89L66.2202 213.29Z" fill="#36717E"/>
<path d="M59.0102 216.11L59.0802 213.84L50.3602 211.77L35.2202 211.27L50.3502 212.97L58.7402 216.15L59.0102 216.11Z" fill="#36717E"/>
<path d="M153.68 236.72H114.69H75.7101L63.1001 248.36H114.69H166.28L153.68 236.72Z" fill="#5176BF"/>
<path d="M93.3499 236.72H92.6199L83.6699 248.36H84.3999L93.3499 236.72Z" fill="#36717E"/>
<path d="M107.76 236.72H107.16L104.17 248.36H104.78L107.76 236.72Z" fill="#36717E"/>
<path d="M64.0699 248.36L76.6599 236.72H75.7099L63.1299 248.36H64.0699Z" fill="#36717E"/>
<path d="M122.23 236.72H121.63L124.61 248.36H125.21L122.23 236.72Z" fill="#36717E"/>
<path d="M153.68 236.72H152.73L165.32 248.36H166.26L153.68 236.72Z" fill="#36717E"/>
<path d="M136.77 236.72H136.04L144.98 248.36H145.72L136.77 236.72Z" fill="#36717E"/>
<path d="M166.28 251.12H63.1001V248.36H166.28V251.12Z" fill="#36717E"/>
<path d="M161.84 247.19H144.84L141.58 242.94L155.08 240.94L161.87 247.2M144.11 247.2H124.91L124.48 245.5L140.9 243L144.08 247.15M124.31 247.15H113.11L123.9 245.54L124.31 247.15" fill="#9AB9DE"/>
<path d="M124.91 247.19H124.31L123.9 245.58L124.48 245.49L124.91 247.19Z" fill="#798DB5"/>
<path d="M144.81 247.19H144.08L140.9 243.04L141.55 242.94L144.81 247.19Z" fill="#798DB5"/>
<path d="M102.19 49.62L103.4 73.45L127.35 72.23L126.14 48.41L102.19 49.62Z" fill="#3F5386"/>
<path d="M104.32 51.55L105.32 71.32L125.22 70.31L124.22 50.54L104.32 51.55Z" fill="#422B1D"/>
<path d="M105.8 60.62L105.38 52.51L113.5 52.1L113.91 60.21L105.8 60.62Z" fill="#19191D"/>
<path d="M115.55 60.13L115.14 52.01L123.25 51.6L123.66 59.71L115.55 60.13Z" fill="#19191D"/>
<path d="M106.28 70.25L105.87 62.14L113.98 61.73L114.39 69.84L106.28 70.25Z" fill="#19191D"/>
<path d="M116.04 69.76L115.63 61.65L123.74 61.23L124.15 69.34L116.04 69.76Z" fill="#19191D"/>
<path d="M102.19 49.62L104.32 51.55L124.22 50.54L126.14 48.41L102.19 49.62Z" fill="#354656"/>
<path d="M127.39 72.23L125.26 70.31L105.32 71.32L103.4 73.45L127.39 72.23Z" fill="#5990B8"/>
<path d="M126.14 48.41L102.19 49.62L102.11 48.1L126.06 46.89L126.14 48.41Z" fill="#3F5386"/>
<path d="M127.56 46.81L100.61 48.18L100.53 46.47C109.283 43.9344 118.505 43.4654 127.47 45.1L127.56 46.81Z" fill="#5990B8"/>
<path d="M127.42 73.75L103.47 74.97L103.4 73.45L127.35 72.23L127.42 73.75Z" fill="#3F5386"/>
<path d="M105.84 77.58L103.6 77.69L103.46 74.97L105.7 74.85L105.84 77.58Z" fill="#354656"/>
<path d="M127.56 76.48L125.32 76.59L125.19 73.87L127.42 73.75L127.56 76.48Z" fill="#354656"/>
<path d="M119.07 113.5L119.58 145.56L142.53 145.2L142.02 113.14L119.07 113.5Z" fill="#3F5386"/>
<path d="M121.04 115.41L121.49 143.59L140.56 143.29L140.11 115.11L121.04 115.41Z" fill="#422B1D"/>
<path d="M122.15 124.14L122.03 116.37L129.8 116.25L129.93 124.02L122.15 124.14Z" fill="#19191D"/>
<path d="M131.5 123.99L131.38 116.22L139.16 116.1L139.28 123.87L131.5 123.99Z" fill="#19191D"/>
<path d="M122.3 133.37L122.17 125.6L129.95 125.48L130.07 133.25L122.3 133.37Z" fill="#19191D"/>
<path d="M131.65 133.22L131.53 125.45L139.3 125.33L139.43 133.1L131.65 133.22Z" fill="#19191D"/>
<path d="M119.07 113.5L121.04 115.41L140.11 115.11L142.02 113.14L119.07 113.5Z" fill="#354656"/>
<path d="M142.57 145.2L140.59 143.29L121.49 143.59L119.58 145.56L142.57 145.2Z" fill="#5990B8"/>
<path d="M142.02 113.14L119.07 113.5L119.05 112.04L142 111.68L142.02 113.14Z" fill="#3F5386"/>
<path d="M143.44 111.66L117.61 112.06V110.42C126.073 108.289 134.915 108.152 143.44 110.02V111.66Z" fill="#5990B8"/>
<path d="M142.56 146.66L119.6 147.02L119.58 145.56L142.53 145.2L142.56 146.66Z" fill="#3F5386"/>
<path d="M121.78 149.6L119.63 149.64L119.59 147.02L121.73 146.99L121.78 149.6Z" fill="#354656"/>
<path d="M142.6 149.27L140.45 149.31L140.41 146.69L142.56 146.66L142.6 149.27Z" fill="#354656"/>
<path d="M122.44 142.6L122.32 134.83L130.09 134.71L130.22 142.48L122.44 142.6Z" fill="#19191D"/>
<path d="M131.8 142.46L131.67 134.68L139.45 134.56L139.57 142.33L131.8 142.46Z" fill="#19191D"/>
<path d="M110.13 71.07L122.58 69.93L125.26 70.31L127.35 72.23L127 80.29L127.06 74.44L126.4 72.82C126.4 72.82 125.63 74.15 125.63 74.23C125.63 74.31 125.79 84.11 125.79 84.11L125.25 78.26L123.37 74.59L121.7 73.26L120.25 72.65L118.25 73.34L116 72.71L110.51 71.47L106.57 71.25L110.13 71.07V71.07Z" fill="#BA96CB"/>
<path d="M96.41 163.6H116.06L121.04 162.63L131.07 163.6L144.87 161.04H151.9L160.34 157.95L162.71 155.92L163.6 164.36L169.32 165.21L126.97 164.87L116.9 167.01L111.16 164.62H105.2L97.48 166.14L81.12 163.64H70.75L77.35 163.18L96.41 163.6Z" fill="#354656"/>
<path d="M70.96 222.95L73.39 229.55L78.67 233.94L90.03 234.53L99.94 236.12L111.51 236.72H70.96V222.95Z" fill="#3F5386"/>
<path d="M169.62 236.72L181.66 235.53L187.69 232.78L194.1 233.12L200.01 234.75H209.57L225.44 236.72H169.62Z" fill="#3F5386"/>
<path d="M108.13 222.57L110.07 224.57L109.35 226.64L108.84 229.34V226.81L108.18 224.11L107.53 223.37L106.39 224.27L106.33 226.71L106.14 227.71L105.78 224.95C105.422 224.66 105.088 224.343 104.78 224C104.06 223.807 103.328 223.657 102.59 223.55L99.78 223.77L98.34 224.89L98 227.37C98 227.37 97.68 226.23 97.64 226.23C97.6 226.23 97.64 223.42 97.64 223.42L96.52 223.2L93.52 222.91L90 222.57H101.75L104.96 222.22L107.7 221.64L108.17 220.41V222.57H108.13Z" fill="#BA96CB"/>
<path d="M86.2402 118.73L111.05 121.09V125.14H86.2402V118.73Z" fill="#5990B8"/>
<path d="M86.52 127.17L111.05 127.45V134.15L86.52 131.95V127.17Z" fill="#3F5386"/>
<path d="M86.52 137.69C86.63 137.69 110.04 133.42 110.04 133.42L112.04 137.35L86.27 143.75L85 138.09L86.52 137.69Z" fill="#5990B8"/>
<path d="M88.0702 122.43C88.0677 122.509 88.0353 122.584 87.9796 122.639C87.9238 122.695 87.849 122.728 87.7702 122.73C87.6906 122.73 87.6143 122.698 87.5581 122.642C87.5018 122.586 87.4702 122.51 87.4702 122.43C87.4702 122.35 87.5018 122.274 87.5581 122.218C87.6143 122.162 87.6906 122.13 87.7702 122.13C87.849 122.133 87.9238 122.165 87.9796 122.221C88.0353 122.276 88.0677 122.351 88.0702 122.43V122.43Z" fill="#422B1D"/>
<path d="M88.4099 139.32C88.4119 139.38 88.3957 139.439 88.3635 139.49C88.3313 139.541 88.2846 139.581 88.2294 139.605C88.1742 139.629 88.1131 139.636 88.0539 139.624C87.9948 139.613 87.9405 139.584 87.8979 139.542C87.8554 139.499 87.8266 139.445 87.8154 139.386C87.8041 139.327 87.8109 139.266 87.8348 139.21C87.8588 139.155 87.8987 139.109 87.9496 139.076C88.0004 139.044 88.0598 139.028 88.1199 139.03C88.1968 139.03 88.2706 139.061 88.325 139.115C88.3793 139.169 88.4099 139.243 88.4099 139.32V139.32Z" fill="#422B1D"/>
<path d="M110 124.35C110.008 124.393 110.006 124.438 109.995 124.48C109.984 124.523 109.964 124.563 109.935 124.596C109.907 124.63 109.872 124.657 109.832 124.676C109.792 124.695 109.749 124.704 109.705 124.704C109.661 124.704 109.617 124.695 109.577 124.676C109.538 124.657 109.502 124.63 109.474 124.596C109.446 124.563 109.426 124.523 109.415 124.48C109.403 124.438 109.402 124.393 109.41 124.35C109.423 124.281 109.459 124.219 109.513 124.174C109.567 124.129 109.635 124.104 109.705 124.104C109.775 124.104 109.843 124.129 109.897 124.174C109.951 124.219 109.987 124.281 110 124.35V124.35Z" fill="#422B1D"/>
<path d="M109.19 132.74C109.19 132.82 109.158 132.896 109.102 132.952C109.046 133.008 108.969 133.04 108.89 133.04C108.81 133.04 108.734 133.008 108.678 132.952C108.621 132.896 108.59 132.82 108.59 132.74C108.59 132.66 108.621 132.584 108.678 132.528C108.734 132.472 108.81 132.44 108.89 132.44C108.969 132.44 109.046 132.472 109.102 132.528C109.158 132.584 109.19 132.66 109.19 132.74V132.74Z" fill="#422B1D"/>
<path d="M110 121.94C110 121.999 109.982 122.057 109.949 122.107C109.916 122.156 109.87 122.194 109.815 122.217C109.76 122.24 109.7 122.246 109.641 122.234C109.583 122.223 109.53 122.194 109.488 122.152C109.446 122.11 109.417 122.057 109.406 121.998C109.394 121.94 109.4 121.88 109.423 121.825C109.445 121.77 109.484 121.723 109.533 121.691C109.583 121.658 109.641 121.64 109.7 121.64C109.74 121.639 109.779 121.645 109.816 121.66C109.853 121.675 109.887 121.697 109.915 121.725C109.943 121.753 109.965 121.786 109.98 121.824C109.994 121.861 110.001 121.9 110 121.94Z" fill="#422B1D"/>
<path d="M86.3799 212.93L111.19 215.29V219.34H86.3799V212.93Z" fill="#354656"/>
<path d="M88.2101 216.63C88.2075 216.708 88.1748 216.782 88.1188 216.836C88.0628 216.89 87.988 216.92 87.9101 216.92C87.8332 216.92 87.7594 216.889 87.7051 216.835C87.6507 216.781 87.6201 216.707 87.6201 216.63C87.6201 216.552 87.6503 216.477 87.7044 216.421C87.7585 216.365 87.8323 216.333 87.9101 216.33C87.9889 216.332 88.0637 216.365 88.1195 216.421C88.1752 216.476 88.2076 216.551 88.2101 216.63V216.63Z" fill="#422B1D"/>
<path d="M110.16 218.55C110.147 218.619 110.111 218.681 110.057 218.726C110.003 218.771 109.935 218.795 109.865 218.795C109.795 218.795 109.727 218.771 109.673 218.726C109.619 218.681 109.583 218.619 109.57 218.55C109.562 218.507 109.564 218.462 109.575 218.42C109.586 218.377 109.606 218.337 109.634 218.304C109.662 218.27 109.698 218.243 109.738 218.224C109.777 218.205 109.821 218.195 109.865 218.195C109.909 218.195 109.952 218.205 109.992 218.224C110.032 218.243 110.067 218.27 110.096 218.304C110.124 218.337 110.144 218.377 110.155 218.42C110.166 218.462 110.168 218.507 110.16 218.55V218.55Z" fill="#422B1D"/>
<path d="M110.16 216.14C110.16 216.199 110.142 216.257 110.11 216.307C110.077 216.356 110.03 216.394 109.975 216.417C109.92 216.44 109.86 216.446 109.802 216.434C109.743 216.423 109.69 216.394 109.648 216.352C109.606 216.31 109.577 216.257 109.566 216.199C109.554 216.14 109.56 216.08 109.583 216.025C109.606 215.97 109.644 215.924 109.693 215.891C109.743 215.858 109.801 215.84 109.86 215.84C109.9 215.839 109.939 215.845 109.976 215.86C110.014 215.875 110.047 215.897 110.075 215.925C110.103 215.953 110.125 215.987 110.14 216.024C110.155 216.061 110.161 216.1 110.16 216.14V216.14Z" fill="#422B1D"/>
<path d="M109.72 129.38C109.72 129.457 109.69 129.531 109.635 129.585C109.581 129.639 109.507 129.67 109.43 129.67C109.387 129.678 109.342 129.676 109.3 129.665C109.257 129.654 109.218 129.634 109.184 129.606C109.15 129.577 109.123 129.542 109.104 129.502C109.085 129.462 109.076 129.419 109.076 129.375C109.076 129.331 109.085 129.287 109.104 129.248C109.123 129.208 109.15 129.172 109.184 129.144C109.218 129.116 109.257 129.096 109.3 129.085C109.342 129.074 109.387 129.072 109.43 129.08C109.469 129.08 109.508 129.088 109.544 129.103C109.579 129.118 109.612 129.14 109.639 129.168C109.666 129.196 109.687 129.23 109.701 129.266C109.715 129.302 109.722 129.341 109.72 129.38V129.38Z" fill="#422B1D"/>
<path d="M89.0002 130.66C89.0002 130.737 88.9696 130.811 88.9152 130.865C88.8608 130.919 88.7871 130.95 88.7102 130.95C88.6323 130.95 88.5575 130.92 88.5015 130.866C88.4455 130.812 88.4128 130.738 88.4102 130.66C88.4127 130.581 88.4451 130.506 88.5008 130.451C88.5565 130.395 88.6314 130.362 88.7102 130.36C88.788 130.363 88.8617 130.395 88.9158 130.451C88.97 130.507 89.0002 130.582 89.0002 130.66V130.66Z" fill="#422B1D"/>
<path d="M86 206L110.53 206.28V212.97L86 210.78V206Z" fill="#5990B8"/>
<path d="M108.2 211.57C108.187 211.639 108.151 211.701 108.097 211.746C108.043 211.791 107.975 211.815 107.905 211.815C107.835 211.815 107.767 211.791 107.713 211.746C107.659 211.701 107.623 211.639 107.61 211.57C107.602 211.527 107.604 211.482 107.615 211.44C107.626 211.397 107.646 211.357 107.674 211.324C107.703 211.29 107.738 211.263 107.778 211.244C107.817 211.225 107.861 211.215 107.905 211.215C107.949 211.215 107.992 211.225 108.032 211.244C108.072 211.263 108.107 211.29 108.136 211.324C108.164 211.357 108.184 211.397 108.195 211.44C108.206 211.482 108.208 211.527 108.2 211.57V211.57Z" fill="#422B1D"/>
<path d="M108.74 208.2C108.748 208.243 108.746 208.288 108.735 208.33C108.724 208.373 108.704 208.413 108.676 208.446C108.647 208.48 108.612 208.508 108.572 208.526C108.533 208.545 108.489 208.555 108.445 208.555C108.401 208.555 108.358 208.545 108.318 208.526C108.278 208.508 108.243 208.48 108.214 208.446C108.186 208.413 108.166 208.373 108.155 208.33C108.144 208.288 108.142 208.243 108.15 208.2C108.163 208.131 108.199 208.069 108.253 208.024C108.307 207.979 108.375 207.955 108.445 207.955C108.515 207.955 108.583 207.979 108.637 208.024C108.691 208.069 108.727 208.131 108.74 208.2V208.2Z" fill="#422B1D"/>
<path d="M88.0002 209.48C88.0022 209.54 87.986 209.599 87.9539 209.65C87.9217 209.701 87.8749 209.741 87.8197 209.765C87.7645 209.789 87.7034 209.796 87.6443 209.785C87.5852 209.773 87.5308 209.744 87.4883 209.702C87.4457 209.659 87.4169 209.605 87.4057 209.546C87.3944 209.487 87.4012 209.426 87.4251 209.37C87.4491 209.315 87.4891 209.269 87.5399 209.236C87.5907 209.204 87.6501 209.188 87.7102 209.19C87.7871 209.19 87.8609 209.221 87.9153 209.275C87.9697 209.329 88.0002 209.403 88.0002 209.48Z" fill="#422B1D"/>
<path d="M109.72 137C109.72 137.077 109.69 137.151 109.635 137.205C109.581 137.259 109.507 137.29 109.43 137.29C109.387 137.298 109.342 137.296 109.3 137.285C109.257 137.274 109.218 137.254 109.184 137.226C109.15 137.197 109.123 137.162 109.104 137.122C109.085 137.082 109.076 137.039 109.076 136.995C109.076 136.951 109.085 136.907 109.104 136.868C109.123 136.828 109.15 136.792 109.184 136.764C109.218 136.736 109.257 136.716 109.3 136.705C109.342 136.694 109.387 136.692 109.43 136.7C109.469 136.7 109.508 136.708 109.544 136.723C109.579 136.738 109.612 136.76 109.639 136.788C109.666 136.816 109.687 136.85 109.701 136.886C109.715 136.922 109.722 136.961 109.72 137Z" fill="#422B1D"/>
<path d="M88.1202 142.29C88.1202 142.37 88.0886 142.446 88.0323 142.502C87.976 142.558 87.8997 142.59 87.8202 142.59C87.7512 142.577 87.6889 142.541 87.6441 142.487C87.5993 142.433 87.5747 142.365 87.5747 142.295C87.5747 142.225 87.5993 142.157 87.6441 142.103C87.6889 142.049 87.7512 142.013 87.8202 142C87.898 142 87.9728 142.03 88.0288 142.084C88.0848 142.138 88.1176 142.212 88.1202 142.29V142.29Z" fill="#422B1D"/>
<path d="M132.32 86.55L141.32 86.27L145.2 84.41L148.41 84.76L151.73 84.11L154.99 82.89L156.99 79.29L157.89 76.7L161.61 74.22L166 75.57C166 75.57 177.53 76.9 176.91 76.9H158.42C158.42 76.9 158.7 84.76 158.42 84.76H151.42V86.55H132.32Z" fill="#BA96CB"/>
<path d="M183.37 94.62L151.38 95.5V84.76H183.37V94.62Z" fill="#CDCEF0"/>
<path d="M78.33 94.81L46.02 94.89V85.4L77.69 83.48L78.33 94.81Z" fill="#CDCEF0"/>
</svg>
