<svg width="230" height="252" fill="none" xmlns="http://www.w3.org/2000/svg"><path d="m76.97 38.49-9.19 2.93 3.98 18.23 6.83-.54-1.62-20.62ZM159.76 32.95l-10.7-.14 1.62 20.61 6.83-.53 2.25-19.94Z" fill="#BA96CB"/><path d="m54.18 73.52 56-73.52 66.87 66.54 1.68 18.59-122.87 9.68-1.68-21.29Z" fill="#3F5386"/><path d="m62.24 75.62 48.85-64.13 58.33 55.68 1.46 18.57-107.17 8.45-1.47-18.57Z" fill="#354656"/><path d="M62.4 75.42 90.14 39 62.4 75.42Zm57.23-55.78-8.54-8.15 8.54 8.15Z" fill="#2C4B68"/><path d="M63.55 90.05 62.4 75.42l27.74-36.43 20.95-27.5 8.54 8.15-53.48 70.2-2.6.21Z" fill="#243152"/><path d="M76.97 38.49 110.18 0 77.33 43.13l-.36-4.64ZM110.18 0l38.88 32.81.5 6.38L110.18 0ZM175.14 138.35l22.91-14.74 2.66-30.29 4.68-1.65V88l-5.48-1.33 6.52-22.49-10.05-5.66-3.88 26.2-4.41 1.9v2.92s3.65.8 4.41 1.6c.76.8 0 25.87 0 25.87l-17.36 18.64v2.7Z" fill="#BA96CB"/><path d="m174.02 111.16 23.57 23.56v74.34h4.64v27.66h-28.21V111.16ZM32.76 134.72v13.81l4.39.93 3.37 2.19-3.46-1.56-4.3.37v15h3.08l4.68-.6-4.3 1.18-3.46.43v1.73l2.42.4 1.46.48-1.64-.22-2.23.48V177l.67.44 1.4.47-1.57-.25h-.5v10.23l2.11 1.21 4.81.45 3.37-.93s-2.95 1.07-3.15 1.07l-3.64.17 1.42.39h-2.5l-2.42.4v18.39h-4.65v27.66h28.21V111.16l-23.57 23.56Z" fill="#BA96CB"/><path d="M229.39 240.56H0v-3.84h229.39v3.84Z" fill="#39484F"/><path d="M183.37 94.25h-31.99v-9.49h31.99v9.49Z" fill="#CDCEF0"/><path d="M151.38 94.25H78.01v-7.7h73.37v7.7Z" fill="#5990B8"/><path d="M82.53 94.25h-4.52v-7.7l4.52 7.7ZM151.38 94.25h-4.52l4.52-7.7v7.7Z" fill="#3A6E8C"/><path d="M168.96 236.72H60.43V94.25h108.53v142.47Z" fill="#354656"/><path d="M49.89 236.72h21.07v-20.17H49.89v20.17ZM49.89 114.43h21.07V94.25H49.89v20.18ZM50.59 155.19l21.03-1.41-1.36-20.13-21.02 1.41 1.35 20.13Z" fill="#5990B8"/><path d="M54.18 216.55h12.49v-62.44l-12.49.84v61.6ZM54 134.74l12.67-.81v-19.49H54.18l-.18 20.3Z" fill="#3F5386"/><path d="m66.67 120.64-12.49-2.49v-3.71h12.49v6.2ZM66.67 159.97l-12.49-2.5v-2.52l12.49-.84v5.86Z" fill="#2C4B68"/><path d="M158.42 236.72h21.07v-20.17h-21.07v20.17ZM158.42 114.43h21.07V94.25h-21.07v20.18ZM158.42 153.84h21.07v-20.17h-21.07v20.17Z" fill="#5990B8"/><path d="M162.71 216.55h12.49v-62.71h-12.49v62.71ZM162.71 133.67h12.49v-19.23h-12.49v19.23Z" fill="#3F5386"/><path d="m175.2 120.64-12.49-2.49v-3.71h12.49v6.2Z" fill="#2C4B68"/><path d="M175.2 153.84h-12.49v-.07h12.49v.07Z" fill="#3A6E8C"/><path d="m175.2 159.97-12.49-2.5v-3.63h12.49v6.13Z" fill="#2C4B68"/><path d="M75.81 236.72h-4.85v-20.17h4.85v20.17ZM71.52 216.55h-4.84v-24.09h4.84v24.09m0-53.5-4.84-.11v-8.83l4.94-.33-1.36-20.13-3.58.24v-19.45h4.84v19.23h4.29v20.17h-4.29v9.21" fill="#7080AA"/><path d="m71.62 153.78-1.36-20.13-3.59.28v-.04l3.59-.24 1.36 20.13Z" fill="#3A6E8C"/><path d="M158.42 236.72h-4.84v-20.17h4.84v20.17ZM162.71 216.53h-4.85v-24.07h4.85v24.07Zm0-51.47-4.85-.1v-11.12h-4.28v-20.17h4.28v-19.24h4.85v19.24h-4.29v20.17h4.29v11.22M158.42 114.43h-4.84V99.05H75.81v15.38h-4.85V94.25h87.46v20.18Z" fill="#7080AA"/><path d="M70.96 99.05H49.89v-4.8h21.07v4.8ZM179.49 99.05h-21.07v-4.8h21.07v4.8Z" fill="#3A6E8C"/><path d="m50.26 85.55 20.7-.79.28-9.18-21.35 1.32.37 8.65ZM158.42 84.76h21.07V76.9h-21.07v7.86Z" fill="#5990B8"/><path d="m53.89 151.58 13.98-.94-.9-13.38-13.98.94.9 13.38Z" fill="#354656"/><path d="m55.77 149.52 9.96-.67-.64-9.54-9.96.67.64 9.54Z" fill="#5176BF"/><path d="m55.77 149.52-.64-9.54 9.96-.67.11 1.63-8.34.56.53 7.91-1.62.11Z" fill="#355592"/><path d="M161.95 150.46h14.01v-13.41h-14.01v13.41Z" fill="#354656"/><path d="M163.97 148.53h9.98v-9.56h-9.98v9.56Z" fill="#5176BF"/><path d="M165.59 148.53h-1.62v-9.56h9.98v1.63h-8.36v7.93Z" fill="#355592"/><path d="M87.11 192.45v32.06h22.96v-32.06H87.11Z" fill="#3F5386"/><path d="M89.06 194.39v28.18h19.07v-28.18H89.06Z" fill="#422B1D"/><path d="M97.8 203.13h-7.77v-7.77h7.77v7.77ZM107.16 203.13h-7.78v-7.77h7.78v7.77ZM97.8 212.37h-7.77v-7.78h7.77v7.78ZM107.16 212.37h-7.78v-7.78h7.78v7.78Z" fill="#19191D"/><path d="m87.11 192.45 1.95 1.94h19.07l1.94-1.94H87.11Z" fill="#354656"/><path d="m110.11 224.51-1.95-1.94h-19.1l-1.95 1.94h23Z" fill="#5990B8"/><path d="M110.07 192.45H87.11v-1.46h22.96v1.46Z" fill="#3F5386"/><path d="M111.51 191H85.68v-1.64c8.494-2 17.336-2 25.83 0V191Z" fill="#5990B8"/><path d="M110.07 225.97H87.11v-1.46h22.96v1.46Z" fill="#3F5386"/><path d="M89.25 228.59H87.1v-2.62h2.15v2.62ZM110.07 228.59h-2.15v-2.62h2.15v2.62Z" fill="#354656"/><path d="M97.8 221.6h-7.77v-7.77h7.77v7.77ZM107.16 221.6h-7.78v-7.77h7.78v7.77Z" fill="#19191D"/><path d="M145.23 235.53h-28.87v1.19h28.87v-1.19Z" fill="#5990B8"/><path d="M143.55 192.16h-25.51v43.37h25.51v-43.37Z" fill="#422B1D"/><path d="M132.66 235.53h-13.54v-42.25l17.31 3.94-3.77 38.31Z" fill="#3F5386"/><path d="m124.99 205.21-5.87-.46v-3.07l5.87 1.34 1.14 1.1-1.14 1.09ZM122.99 227.22l-3.87-.09v-3.07l3.87 1.18.69.99-.69.99Z" fill="#39484F"/><path d="M119.12 205.99h-1.08v-5.55h1.08v5.55ZM119.12 228.37h-1.08v-5.55h1.08v5.55Z" fill="#39484F"/><path d="M145.23 191.36h-28.86v-1.84a63.086 63.086 0 0 1 28.86 0v1.84" fill="#5990B8"/><path d="m116.36 191.36 1.68.8h25.51l1.68-.8h-28.87Z" fill="#354656"/><path d="M133.27 216.67a1.392 1.392 0 0 1-2.503.247 1.39 1.39 0 0 1 1.403-2.087 1.431 1.431 0 0 1 1.1 1.84ZM131.64 218.23a.477.477 0 0 0-.51.44l-.09.72a.44.44 0 0 0 .35.48.43.43 0 0 0 .48-.35l.14-.71a.468.468 0 0 0-.063-.368.466.466 0 0 0-.307-.212Z" fill="#5EA0AF"/><path d="M131.74 219a.2.2 0 0 0-.086-.232.209.209 0 0 0-.084-.028.223.223 0 0 0-.225.115.21.21 0 0 0-.025.085.218.218 0 0 0 .08.2l-.11.31.33.05v-.33a.208.208 0 0 0 .13-.17h-.01Z" fill="#39484F"/><path d="M116.36 191.36v45.36l1.68-1.19v-43.37l-1.68-.8ZM145.23 191.36v45.36l-1.68-1.19v-43.37l1.68-.8Z" fill="#3F5386"/><path d="M120.29 235.53h-1.17v-8.4h1.43l-.26 8.37m.34-11-1.51-.46v-19.29l2.12.16-.61 19.61" fill="#56412D"/><path d="m131.84 196.18-12.72-2.9h23.35v1.86l-10.63 1.04Z" fill="#2C2117"/><path d="m121.33 202.19-2.21-.51v-8.4l12.72 2.9-10.36 1.01-.15 5Z" fill="#56412D"/><path d="m121.24 204.91-2.12-.16v-3.07l2.21.51-.09 2.72ZM120.55 227.16l-1.43-.03v-3.07l1.51.46-.08 2.64Z" fill="#283336"/><path d="m170.87 165.24-61.47-1.35-57.01-1.26-17.56 17.56 74.92 2.56 82.82 2.82-21.7-20.33Z" fill="#5176BF"/><path d="m77.67 163.19-1.07-.03-12.77 18.02 1.05.04 12.79-18.03ZM98.94 163.66l-.89-.02-4.17 18.56.89.03 4.17-18.57ZM36.17 180.24l17.55-17.58-1.33-.03-17.53 17.56 1.31.05ZM120.92 164.14l-.92-.02 5.03 19.14.93.04-5.04-19.16ZM170.87 165.24l-1.55-.03 21.62 20.3 1.59.05-21.66-20.32ZM143.63 164.64l-1.16-.02 14.87 19.75 1.19.04-14.9-19.77Z" fill="#36717E"/><path d="m192.76 190.3-157.93-5.83v-4.28l157.74 5.38.19 4.73Z" fill="#36717E"/><path d="m185 183.31-28-.92-5.46-7.25 21.82-2.77L185 183.31Zm-29.19-1-30.38-1-.74-2.8 25.79-3.27 5.33 7.07m-31.31-1-17.22-.56 16.52-2.1.7 2.66Z" fill="#9AB9DE"/><path d="m125.45 181.35-.93-.03-.7-2.66.89-.11.74 2.8ZM157.01 182.39l-1.18-.04-5.33-7.07 1.05-.14 5.46 7.25Z" fill="#798DB5"/><path d="m217.57 212.26-6.63 2.07v-1.37c0-2-.11-5.87-.11-5.87l5.05-9.74-13.35-4.35-2.75 13.14s.2 1.29.31 1.93c.27 1.94.66 3.86 1 5.79l1 5.79v-.83l.25 4.39c.1 1.47.13 2.93.29 4.4.26 2.94.53 5.88 1 8.83l2.59.24c1-2.82 1.81-5.66 2.6-8.5.42-1.42.72-2.85 1.08-4.27l1.05-4.28v-2.48l5.77-1.49 7 8.8 1.74-4.66-1.46-2.49-6.41-5.05h-.02Z" fill="#463D6C"/><path d="m210.06 215.1 5.49-2.21-4.62 1.44V213l-.12-5.87 2.95-5.67-3.45 5.72-.24 8-.01-.08ZM206.87 234.91l-1.49-1-.94-13.78-3.37-6.35a.405.405 0 0 0 0 .11l1 5.79v-.83l.25 4.39c.1 1.47.13 2.93.29 4.4.25 2.94.56 6.11 1 9.07h2.56c.22-.6.42-1.21.61-1.81l.09.01Z" fill="#603755"/><path d="M162.71 192.46v-3.27 3.27Zm-4.85 0h-12.63v-1.1l-1.68.8 1.68-.8h-28.86l1.67.8-1.67-.8v1.1h-6.3V191h1.44v-1.64c-8.494-2-17.336-2-25.83 0V191h1.43v1.46H71.52v-6.64l56.5 2.09c-3.925.171-7.826.71-11.65 1.61v1.84h28.86v-1.84a64.583 64.583 0 0 0-7-1.23l19.65.72v3.45" fill="#7080AA"/><path d="M66.67 192.46H54.18v-7.27l12.49.46v6.81ZM175.2 192.46h-12.49v-3.27l12.49.46v2.81Z" fill="#2C4B68"/><path d="M71.52 192.46h-4.85v-6.81l4.85.17v6.64ZM162.71 192.46h-4.85v-3.45l4.85.18v3.27Z" fill="#4D4981"/><path d="M110.05 192.46H87.13l-.02-.01h22.96l-.02.01Z" fill="#243152"/><path d="M110.07 192.45H87.11v-1.46h22.96v1.46Z" fill="#2C4B68"/><path d="M111.51 191H85.68v-1.64c8.494-2 17.336-2 25.83 0V191Z" fill="#3A6E8C"/><path d="M143.55 192.46h-25.51v-.3h25.51v.3Z" fill="#332317"/><path d="M145.23 191.36h-28.86v-1.84a62.922 62.922 0 0 1 11.63-1.61l10.19.38c2.354.281 4.691.692 7 1.23v1.84" fill="#3A6E8C"/><path d="M143.55 192.16h-25.51l-1.68-.8h28.87l-1.68.8Z" fill="#243152"/><path d="M118.04 192.46h-1.68v-1.1l1.68.8v.3ZM145.23 192.46h-1.68v-.3l1.68-.8v1.1Z" fill="#2C4B68"/><path d="m175.2 184.97-12.81-.43h12.81v.43Z" fill="#355592"/><path d="m175.2 189.65-12.49-.46-4.85-.18-19.65-.72-10.19-.38-56.5-2.09-4.85-.17-12.49-.46v-.65h108.21l12.81.43v4.68Z" fill="#613926"/><path d="m87.2 113.25-.18 32.07 22.96.13.18-32.07-22.96-.13Z" fill="#3F5386"/><path d="m89.13 115.21-.16 28.18 19.08.11.15-28.19-19.07-.1Z" fill="#422B1D"/><path d="m97.83 124-7.77-.04.04-7.78 7.78.05-.05 7.77ZM107.18 124.05l-7.77-.04.04-7.77 7.78.04-.05 7.77ZM97.78 133.23l-7.78-.04.05-7.77 7.77.04-.04 7.77ZM107.13 133.29l-7.77-.05.04-7.77 7.78.04-.05 7.78Z" fill="#19191D"/><path d="m87.2 113.25 1.93 1.95 19.07.11 1.96-1.93-22.96-.13Z" fill="#354656"/><path d="m110.02 145.45-1.94-1.95-19.1-.11-1.96 1.93 23 .13Z" fill="#5990B8"/><path d="m110.16 113.38-22.96-.13.01-1.46 22.96.13-.01 1.46Z" fill="#3F5386"/><path d="m111.6 111.93-25.83-.14v-1.64a56.487 56.487 0 0 1 25.83.14v1.64Z" fill="#5990B8"/><path d="m109.97 146.91-22.96-.13.01-1.46 22.96.13-.01 1.46Z" fill="#3F5386"/><path d="m89.13 149.4-2.14-.01.01-2.61 2.15.01-.02 2.61ZM109.96 149.52l-2.15-.01.01-2.61 2.15.01-.01 2.61Z" fill="#354656"/><path d="m97.73 142.47-7.78-.05.05-7.77 7.77.04-.04 7.78ZM107.08 142.52l-7.77-.05.04-7.77 7.77.04-.04 7.78Z" fill="#19191D"/><path d="m22.45 211.05 12.71-3.34 16.84.6 10.52 1.54 3.35-.47.49 5.51-7.62 1.26-8.39-3.15s-14.86-1.7-15.13-1.7c-.27 0-12.06 2.09-12.06 2.09l-.71-2.31v-.03Z" fill="#5176BF"/><path d="m25.84 236.72-1.97-12.61.99-10.75-.99-4.06 4.28-1.31 1.31 5.04-1.97 11.95.66 11.74h-2.31ZM61.37 236.72l.99-12.28 1.37-11.85-.39-3.29-4.27-1.31.05 4.27-.38 13.05.33 11.41h2.3Z" fill="#36717E"/><path d="M30.05 212.88H30l-6.45-2.27a.219.219 0 0 1-.14-.28.23.23 0 0 1 .28-.14l6.45 2.27a.201.201 0 0 1 .075.043.206.206 0 0 1 .055.237.21.21 0 0 1-.2.15l-.02-.01Z" fill="#CDCEF0"/><path d="M24.65 213.51a.217.217 0 0 1-.102-.028.216.216 0 0 1-.078-.072.207.207 0 0 1-.035-.163.207.207 0 0 1 .095-.137l2.32-1.61 1.48-2.24a.223.223 0 0 1 .135-.066.22.22 0 0 1 .226.306l-1.55 2.34-2.36 1.63a.285.285 0 0 1-.13 0v.04ZM63.56 215.77a.25.25 0 0 1-.17-.08l-1.79-2.27-2.7-4.15a.21.21 0 0 1 .1-.27.217.217 0 0 1 .248-.002.21.21 0 0 1 .062.062l2.69 4.11 1.78 2.24a.22.22 0 0 1 0 .31.237.237 0 0 1-.14.05h-.08Z" fill="#CDCEF0"/><path d="M58.74 216.65c-.04.01-.08.01-.12 0a.222.222 0 0 1-.095-.142.223.223 0 0 1 .035-.168l2.58-3.82 2.25-2.91a.206.206 0 0 1 .07-.05.206.206 0 0 1 .17 0c.026.011.05.029.07.05a.23.23 0 0 1 0 .31l-2.24 2.89-2.58 3.82a.216.216 0 0 1-.078.072.217.217 0 0 1-.102.028l.04-.08Z" fill="#CDCEF0"/><path d="m27.49 224.98.63-3.84-.63 3.84Z" fill="#B0B4C8"/><path d="m28.12 221.14 1.06-6.41-1.06 6.41Z" fill="#5F5E9A"/><path d="M28.15 236.72h-.94l-1.26-9.9 3.23-12.09-1.06 6.41-.63 3.84.66 11.74Z" fill="#613926"/><path d="m66.22 213.29-2.6.22-.21 1.87 2.95-.49-.14-1.6ZM59.01 216.11l.07-2.27-8.72-2.07-15.14-.5 15.13 1.7 8.39 3.18.27-.04Z" fill="#36717E"/><path d="M153.68 236.72H75.71L63.1 248.36h103.18l-12.6-11.64Z" fill="#5176BF"/><path d="M93.35 236.72h-.73l-8.95 11.64h.73l8.95-11.64ZM107.76 236.72h-.6l-2.99 11.64h.61l2.98-11.64ZM64.07 248.36l12.59-11.64h-.95l-12.58 11.64h.94ZM122.23 236.72h-.6l2.98 11.64h.6l-2.98-11.64ZM153.68 236.72h-.95l12.59 11.64h.94l-12.58-11.64ZM136.77 236.72h-.73l8.94 11.64h.74l-8.95-11.64ZM166.28 251.12H63.1v-2.76h103.18v2.76Z" fill="#36717E"/><path d="M161.84 247.19h-17l-3.26-4.25 13.5-2 6.79 6.26m-17.76 0h-19.2l-.43-1.7 16.42-2.5 3.18 4.15m-19.77 0h-11.2l10.79-1.61.41 1.61" fill="#9AB9DE"/><path d="M124.91 247.19h-.6l-.41-1.61.58-.09.43 1.7ZM144.81 247.19h-.73l-3.18-4.15.65-.1 3.26 4.25Z" fill="#798DB5"/><path d="m102.19 49.62 1.21 23.83 23.95-1.22-1.21-23.82-23.95 1.21Z" fill="#3F5386"/><path d="m104.32 51.55 1 19.77 19.9-1.01-1-19.77-19.9 1.01Z" fill="#422B1D"/><path d="m105.8 60.62-.42-8.11 8.12-.41.41 8.11-8.11.41ZM115.55 60.13l-.41-8.12 8.11-.41.41 8.11-8.11.42ZM106.28 70.25l-.41-8.11 8.11-.41.41 8.11-8.11.41ZM116.04 69.76l-.41-8.11 8.11-.42.41 8.11-8.11.42Z" fill="#19191D"/><path d="m102.19 49.62 2.13 1.93 19.9-1.01 1.92-2.13-23.95 1.21Z" fill="#354656"/><path d="m127.39 72.23-2.13-1.92-19.94 1.01-1.92 2.13 23.99-1.22Z" fill="#5990B8"/><path d="m126.14 48.41-23.95 1.21-.08-1.52 23.95-1.21.08 1.52Z" fill="#3F5386"/><path d="m127.56 46.81-26.95 1.37-.08-1.71a58.87 58.87 0 0 1 26.94-1.37l.09 1.71Z" fill="#5990B8"/><path d="m127.42 73.75-23.95 1.22-.07-1.52 23.95-1.22.07 1.52Z" fill="#3F5386"/><path d="m105.84 77.58-2.24.11-.14-2.72 2.24-.12.14 2.73ZM127.56 76.48l-2.24.11-.13-2.72 2.23-.12.14 2.73Z" fill="#354656"/><path d="m119.07 113.5.51 32.06 22.95-.36-.51-32.06-22.95.36Z" fill="#3F5386"/><path d="m121.04 115.41.45 28.18 19.07-.3-.45-28.18-19.07.3Z" fill="#422B1D"/><path d="m122.15 124.14-.12-7.77 7.77-.12.13 7.77-7.78.12ZM131.5 123.99l-.12-7.77 7.78-.12.12 7.77-7.78.12ZM122.3 133.37l-.13-7.77 7.78-.12.12 7.77-7.77.12ZM131.65 133.22l-.12-7.77 7.77-.12.13 7.77-7.78.12Z" fill="#19191D"/><path d="m119.07 113.5 1.97 1.91 19.07-.3 1.91-1.97-22.95.36Z" fill="#354656"/><path d="m142.57 145.2-1.98-1.91-19.1.3-1.91 1.97 22.99-.36Z" fill="#5990B8"/><path d="m142.02 113.14-22.95.36-.02-1.46 22.95-.36.02 1.46Z" fill="#3F5386"/><path d="m143.44 111.66-25.83.4v-1.64a56.37 56.37 0 0 1 25.83-.4v1.64Z" fill="#5990B8"/><path d="m142.56 146.66-22.96.36-.02-1.46 22.95-.36.03 1.46Z" fill="#3F5386"/><path d="m121.78 149.6-2.15.04-.04-2.62 2.14-.03.05 2.61ZM142.6 149.27l-2.15.04-.04-2.62 2.15-.03.04 2.61Z" fill="#354656"/><path d="m122.44 142.6-.12-7.77 7.77-.12.13 7.77-7.78.12ZM131.8 142.46l-.13-7.78 7.78-.12.12 7.77-7.77.13Z" fill="#19191D"/><path d="m110.13 71.07 12.45-1.14 2.68.38 2.09 1.92-.35 8.06.06-5.85-.66-1.62s-.77 1.33-.77 1.41c0 .08.16 9.88.16 9.88l-.54-5.85-1.88-3.67-1.67-1.33-1.45-.61-2 .69-2.25-.63-5.49-1.24-3.94-.22 3.56-.18Z" fill="#BA96CB"/><path d="M96.41 163.6h19.65l4.98-.97 10.03.97 13.8-2.56h7.03l8.44-3.09 2.37-2.03.89 8.44 5.72.85-42.35-.34-10.07 2.14-5.74-2.39h-5.96l-7.72 1.52-16.36-2.5H70.75l6.6-.46 19.06.42Z" fill="#354656"/><path d="m70.96 222.95 2.43 6.6 5.28 4.39 11.36.59 9.91 1.59 11.57.6H70.96v-13.77ZM169.62 236.72l12.04-1.19 6.03-2.75 6.41.34 5.91 1.63h9.56l15.87 1.97h-55.82Z" fill="#3F5386"/><path d="m108.13 222.57 1.94 2-.72 2.07-.51 2.7v-2.53l-.66-2.7-.65-.74-1.14.9-.06 2.44-.19 1-.36-2.76a8.717 8.717 0 0 1-1-.95 18.98 18.98 0 0 0-2.19-.45l-2.81.22-1.44 1.12-.34 2.48s-.32-1.14-.36-1.14c-.04 0 0-2.81 0-2.81l-1.12-.22-3-.29-3.52-.34h11.75l3.21-.35 2.74-.58.47-1.23v2.16h-.04Z" fill="#BA96CB"/><path d="m86.24 118.73 24.81 2.36v4.05H86.24v-6.41Z" fill="#5990B8"/><path d="m86.52 127.17 24.53.28v6.7l-24.53-2.2v-4.78Z" fill="#3F5386"/><path d="M86.52 137.69c.11 0 23.52-4.27 23.52-4.27l2 3.93-25.77 6.4-1.27-5.66 1.52-.4Z" fill="#5990B8"/><path d="M88.07 122.43a.307.307 0 0 1-.09.209.307.307 0 0 1-.21.091.301.301 0 0 1-.212-.512.301.301 0 0 1 .212-.088.312.312 0 0 1 .3.3ZM88.41 139.32a.3.3 0 1 1-.29-.29.292.292 0 0 1 .29.29ZM110 124.35a.3.3 0 1 1-.59.107.3.3 0 0 1 .59-.107ZM109.19 132.74a.3.3 0 1 1-.6 0 .3.3 0 0 1 .6 0ZM110 121.94a.304.304 0 0 1-.185.277.296.296 0 0 1-.327-.065.294.294 0 0 1-.082-.154.293.293 0 0 1 .017-.173.304.304 0 0 1 .277-.185.287.287 0 0 1 .215.085.289.289 0 0 1 .085.215Z" fill="#422B1D"/><path d="m86.38 212.93 24.81 2.36v4.05H86.38v-6.41Z" fill="#354656"/><path d="M88.21 216.63a.3.3 0 0 1-.3.29.291.291 0 0 1-.206-.499.301.301 0 0 1 .206-.091.307.307 0 0 1 .21.091c.055.055.088.13.09.209ZM110.16 218.55a.3.3 0 0 1-.59 0 .3.3 0 1 1 .59 0ZM110.16 216.14a.311.311 0 0 1-.05.167.303.303 0 0 1-.308.127.294.294 0 0 1-.154-.082.296.296 0 0 1 .045-.461.304.304 0 0 1 .167-.051.287.287 0 0 1 .215.085.299.299 0 0 1 .085.215ZM109.72 129.38a.29.29 0 0 1-.29.29.3.3 0 1 1 0-.59.298.298 0 0 1 .209.088.297.297 0 0 1 .081.212ZM89 130.66a.289.289 0 0 1-.29.29.3.3 0 0 1-.3-.29.307.307 0 0 1 .09-.209.307.307 0 0 1 .21-.091.301.301 0 0 1 .29.3Z" fill="#422B1D"/><path d="m86 206 24.53.28v6.69L86 210.78V206Z" fill="#5990B8"/><path d="M108.2 211.57a.3.3 0 0 1-.59 0 .3.3 0 1 1 .59 0ZM108.74 208.2a.3.3 0 1 1-.59.107.3.3 0 0 1 .59-.107ZM88 209.48a.3.3 0 1 1-.29-.29.292.292 0 0 1 .29.29ZM109.72 137a.29.29 0 0 1-.29.29.3.3 0 1 1 0-.59.298.298 0 0 1 .209.088.297.297 0 0 1 .081.212ZM88.12 142.29a.298.298 0 0 1-.3.3.3.3 0 0 1 0-.59.3.3 0 0 1 .3.29Z" fill="#422B1D"/><path d="m132.32 86.55 9-.28 3.88-1.86 3.21.35 3.32-.65 3.26-1.22 2-3.6.9-2.59 3.72-2.48 4.39 1.35s11.53 1.33 10.91 1.33h-18.49s.28 7.86 0 7.86h-7v1.79h-19.1Z" fill="#BA96CB"/><path d="m183.37 94.62-31.99.88V84.76h31.99v9.86ZM78.33 94.81l-32.31.08V85.4l31.67-1.92.64 11.33Z" fill="#CDCEF0"/></svg>