<svg xmlns="http://www.w3.org/2000/svg" viewBox="0 0 829.61 357.6">
  <defs>
    <style>
      .cls-1 {
        fill: #f15a24;
      }

      .cls-2 {
        fill: #ed1c24;
      }

      .cls-3 {
        fill: #ff931e;
      }

      .cls-4 {
        fill: #fff;
      }
    </style>
  </defs>
  <g id="Слой_2" data-name="Слой 2">
    <g id="图层_1" data-name="图层 1">
      <g>
        <path class="cls-1" d="M798.07,357.6s-164-28.39-164-51.52V156.77s126.17,47.32,195.57,51.52l-58.88,66.25Z"/>
        <path class="cls-1" d="M52.57,251.4s105.15-33.64,144.05-67.29L142,59S79.91,113.66,0,117.87l49.42,56.78Z"/>
        <path class="cls-2" d="M634,306.08s91.47,29.44,97.78,9.46S634,269.28,634,269.28Z"/>
        <path class="cls-2" d="M196.62,184.11s-78.86,33.65-84.11,21,72.55-48.37,72.55-48.37Z"/>
        <path class="cls-1" d="M229.22,179.9s79.91-54.67,164-65.19,213.45,20,213.45,20l-67.3,7.36Z"/>
        <path class="cls-3" d="M63.05,77.39s214.81-131.08,542.6-52l1.05,109.35S304.81,86.62,112.4,204.64Z"/>
        <path class="cls-3" d="M770.28,184.35S548.34,72,228.79,179.63L234.15,289s296.12-74.17,498.18,26.43Z"/>
      </g>
      <path class="cls-4" d="M78.68,108,67.61,81.07s12.65-9.49,34-15.81c0,0-23.72,13.44-27.67,17.39Z"/>
      <path class="cls-4" d="M592.61,81.6v39s-53-6-68-5c0,0,47-2,64,0Z"/>
      <path class="cls-4" d="M235.61,254.13l1.32,24.47s30.43-7.93,41.68-7.27a169.22,169.22,0,0,0-38.37,4Z"/>
      <path class="cls-4" d="M707.61,173.6s29,5,48,16l-13,44,8-43S735.61,181.6,707.61,173.6Z"/>
    </g>
    <g id="Слой_2-2" data-name="Слой 2">
      <g>
        <g>
          <path class="cls-4" d="M123,85.18q16.38-4.38,32.85-8.42,1.49,5.42,2.95,10.83Q148.08,90.2,137.45,93l2,7q8.34-2.16,16.71-4.24l2.61,9.61q-8.31,2.06-16.61,4.21,1.1,3.87,2.18,7.76,10.49-2.72,21-5.29l2.88,10.84q-16,3.92-31.95,8.16Q129.7,108.06,123,85.18Z"/>
          <path class="cls-4" d="M171.67,122q3.84-11,7.81-21.89-8.26-6.16-16.64-12.24c3.89-.95,7.8-1.88,11.7-2.8q7.68,6.33,15.24,12.73-1.93-7.68-3.88-15.36,5.26-1.2,10.54-2.37,1.91,7.68,3.78,15.38,3.76-8.94,7.62-17.87,5.9-1.26,11.8-2.48-4.56,9.06-9,18.16,8.64,8,17.13,16.16-6.37,1.32-12.75,2.68-7-6.83-14-13.58,1.93,7.89,3.84,15.8-5.17,1.14-10.33,2.32-1.95-7.89-3.93-15.78-3.17,9.06-6.23,18.12Q178,120.42,171.67,122Z"/>
          <path class="cls-4" d="M246.42,106.56c-10.54,2-19.78-3.25-22.34-14.32s3.86-19.85,14.75-22,20.08,3,22.45,14.52c.15.75.32,1.93.4,2.7q-13.31,2.45-26.55,5.08c1.77,4.08,5.29,5.45,9.58,4.61s6.7-2.78,7.32-5c3.2-.61,6.4-1.2,9.61-1.79C261.73,98.1,256.67,104.57,246.42,106.56ZM234,86.72q8.1-1.6,16.23-3.15c-1.62-3.55-5.16-4.87-9.35-4.06C237,80.27,234.26,82.67,234,86.72Z"/>
          <path class="cls-4" d="M264.76,91.42l3.93-.71c3.28-3.93,3.37-13,1.07-25.25q13.9-2.44,27.88-4.66,2.24,12.14,4.44,24.28l5.86-.92q1.69,9.57,3.37,19.13c-3.46.53-6.92,1.08-10.38,1.63-.53-2.89-1.05-5.79-1.58-8.69q-11.07,1.78-22.1,3.71c.56,2.89,1.13,5.78,1.69,8.67l-10.33,1.84Q266.7,100.94,264.76,91.42Zm14.39-2.55c4.06-.7,8.14-1.39,12.21-2.06Q290.07,79.9,288.75,73l-8.27,1.39C281.38,80.17,280.92,84.73,279.15,88.87Z"/>
          <path class="cls-4" d="M335.31,78.11q-6.19.86-12.39,1.75Q324,86.09,325,92.31q-5.36.76-10.69,1.58-3-17.37-6.11-34.73,5.46-.82,10.91-1.62l2,11.88q6.22-.9,12.46-1.76-1-6-1.95-11.9,5.47-.76,10.95-1.48,2.75,17.43,5.41,34.85-5.37.7-10.72,1.44Q336.32,84.35,335.31,78.11Z"/>
          <path class="cls-4" d="M372.69,87c-10.74,1.24-19.61-4.75-21.33-16s5.39-19.5,16.48-20.79,19.94,4.5,21.44,16.18c.09.77.17,2,.19,2.73q-13.55,1.42-27.05,3c1.47,4.2,4.9,5.83,9.27,5.33,4.53-.53,6.94-2.27,7.74-4.48q4.89-.54,9.78-1C388.72,79.73,383.14,85.8,372.69,87Zm-11-20.73q8.25-1,16.53-1.91c-1.35-3.66-4.81-5.25-9.07-4.76C365.22,60.07,362.31,62.26,361.72,66.28Z"/>
          <path class="cls-4" d="M397.42,83.41q-2.16-17.49-4.4-35,9.18-.93,18.38-1.76c8.55-.77,13.27,2.51,13.88,8.22a7.39,7.39,0,0,1-3.81,7.5c3.63.89,6.63,3.39,7.06,7.43.71,6.84-4.35,11.1-12.17,11.8Q406.88,82.47,397.42,83.41Zm8-21.69c1.91-.19,3.83-.36,5.75-.54,3.1-.28,4.41-1.24,4.18-3.19s-1.71-2.6-4.83-2.31q-2.88.26-5.76.54Zm1.39,11.69,6.79-.63c3.09-.27,4.84-1.34,4.6-3.5s-2-2.85-5.14-2.57l-7,.64Q406.44,70.38,406.78,73.41Z"/>
          <path class="cls-4" d="M458,65.77q-6.3.41-12.58.85.6,6.28,1.19,12.57c-3.62.26-7.23.53-10.85.81Q434,62.45,432.1,44.91c3.69-.29,7.38-.56,11.08-.83q.58,6,1.18,12,6.31-.45,12.65-.85-.54-6-1.09-12,5.55-.36,11.1-.68,1.51,17.57,2.92,35.15c-3.63.21-7.25.43-10.88.66Q458.52,72.07,458,65.77Z"/>
          <path class="cls-4" d="M498.46,70.13c-1.54,3.92-4.85,6.72-10.72,7-7.19.33-11.81-3.34-12.29-9.35-.52-6.64,3.72-9.41,11.46-12l9.3-3.07c-.77-2.07-3.09-2.61-6.08-2.48-3.69.17-5.74,1.18-6.22,3.17-3,.14-5.91.29-8.86.45.21-8.08,5.76-13,15.33-13.38s16.42,3.78,16.74,13l.42,10.79c0,2.1,1,2.84,3.29,2.76h.46l.51,9c-1.39.11-3,.24-4.41.29C502.67,76.34,499.36,74.37,498.46,70.13Zm-7.62-3.19c2.8-.12,5.48-.93,6.28-1.88l-.36-6.65c-2.28.8-4.55,1.59-6.82,2.4-3.13,1.12-4.31,2-4.19,3.77S488,67.07,490.84,66.94Z"/>
          <path class="cls-4" d="M524.17,62.14c-5.83-.62-9.84-3.72-10.2-10-.46-7.77,5.8-11.9,13.65-12.08q9.42-.21,18.87-.31.71,17.63,1.33,35.25c-3.65,0-7.31.09-11,.15q-.27-6.51-.55-13-4.84,6.6-9.62,13.24-6.33.14-12.65.34Q519.07,68.93,524.17,62.14ZM536,55.79l-.27-6-5.84.11c-3.54.08-5,1.17-4.88,3.13s1.64,3,5.18,2.9Z"/>
        </g>
        <g>
          <path class="cls-4" d="M374,213.65c2.7-.12,4.06-1.71,4.38-5.93.34-3.94.5-10.67.43-19.14q13.18-.53,26.37-.82.43,17.61.84,35.21c-3.32.07-6.64.16-10,.25q-.36-12.32-.74-24.63l-7.75.25c0,3.29-.1,7.35-.27,10.44-.63,10.6-3.45,14.82-10.07,15.09a22.17,22.17,0,0,1-4.54-.29c-.16-3.48-.31-7-.47-10.42C372.71,213.63,373.49,213.67,374,213.65Z"/>
          <path class="cls-4" d="M448.08,205c-.05,10.72-6.95,18.5-18.31,18.58s-18.36-7.6-18.6-18.31,6.61-18.64,18.28-18.73S448.13,194.25,448.08,205Zm-26.9.11c.07,5,3.52,7.65,8.5,7.62s8.39-2.77,8.38-7.74-3.47-7.63-8.51-7.59S421.11,200.09,421.18,205.06Z"/>
          <path class="cls-4" d="M481.21,187.88c-.08,3.53-.17,7.05-.25,10.57-3.29-.08-6.57-.16-9.85-.22l-.45,24.64c-3.33-.07-6.65-.12-10-.16q.15-12.33.29-24.64-4.94-.07-9.85-.1c0-3.52,0-7.05,0-10.57Q466.19,187.49,481.21,187.88Z"/>
          <path class="cls-4" d="M500.57,224.65c-10-.39-17.05-7.64-16.78-19s8.14-18.42,18.45-18,17.39,7.44,16.8,19.18c0,.77-.17,1.95-.28,2.72q-12.54-.63-25.1-1.05c.65,4.36,3.5,6.49,7.56,6.65s6.68-1.2,7.77-3.26l9.07.43C516.32,219.88,510.26,225,500.57,224.65ZM494,202.55q7.68.27,15.36.6c-.63-3.81-3.5-5.9-7.47-6.05A7.38,7.38,0,0,0,494,202.55Z"/>
          <path class="cls-4" d="M546.58,190.07c8.57.57,15.66,7.24,14.72,19.38s-8.72,18-17,17.44c-5.52-.37-8.51-2.58-10.38-6q-.54,9.22-1.09,18.45-4.95-.3-9.9-.56,1.32-24.58,2.57-49.15c3.26.17,6.52.36,9.78.55l-.36,6.29A11.93,11.93,0,0,1,546.58,190.07Zm4.69,18.71c.36-5.24-2.57-7.84-7.9-8.19-4.24-.27-7,.54-8.47,2.77-.17,3-.35,6-.53,9.08,1.15,2.39,3.81,3.32,8,3.59C547.66,216.38,550.9,214,551.27,208.78Z"/>
          <path class="cls-4" d="M581.11,229.88c-10-.91-16.69-8.52-15.83-19.83s9.11-18,19.41-17,17,8.34,15.84,20c-.08.77-.27,1.95-.42,2.71q-12.54-1.29-25.08-2.37c.42,4.39,3.16,6.66,7.22,7s6.75-.84,8-2.84q4.53.43,9.06.9C597.13,225.94,590.79,230.77,581.11,229.88Zm-5.44-22.41q7.68.66,15.35,1.4c-.43-3.84-3.2-6.08-7.16-6.44C580.19,202.1,577.08,203.66,575.67,207.47Z"/>
          <path class="cls-4" d="M612.93,218.81c-5.2-1.35-8.37-4.91-7.73-11.11.79-7.73,7.12-11,14.29-10.2q8.61,1,17.21,2.05-2.13,17.49-4.29,35c-3.32-.42-6.65-.82-10-1.22q.75-6.47,1.51-12.93-5.43,5.91-10.78,11.87-5.76-.64-11.53-1.25Q607.25,224.88,612.93,218.81ZM624.69,214l.69-6-5.32-.62c-3.23-.37-4.71.53-4.93,2.47s1,3.15,4.26,3.51Z"/>
        </g>
      </g>
    </g>
  </g>
</svg>
