<svg xmlns="http://www.w3.org/2000/svg" viewBox="0 0 83.86 83.86"><defs><radialGradient id="radial-gradient" cx="57.62" cy="31.67" r="41.93" gradientTransform="rotate(14.42 41.926 41.92)" gradientUnits="userSpaceOnUse"><stop offset="0" stop-color="#fff"/><stop offset="1" stop-color="#f29600"/></radialGradient><style>.cls-3{fill:#ec7c16}.cls-5{fill:#f1d56f}</style></defs><g id="Слой_2" data-name="Слой 2"><g id="Слой_2-2" data-name="Слой 2"><circle cx="41.93" cy="41.93" r="41.93" transform="rotate(-14.42 41.92 41.926)" style="fill:url(#radial-gradient)"/><path d="M68.18 68.76a49.44 49.44 0 0 1-47.51-63 41.94 41.94 0 1 0 53.81 62.61 50.5 50.5 0 0 1-6.3.39Z" style="fill:#f18f1b"/><path class="cls-3" d="M52.23 75.12A41.93 41.93 0 0 1 20.32 6a41.93 41.93 0 1 0 53.52 63.13 41.75 41.75 0 0 1-21.61 5.99Z"/><path d="M72.54 17.14c10.14 12.38 11.6 28 3.26 34.78s-23.31 2.33-33.45-10.05-11.6-27.95-3.26-34.78 23.32-2.33 33.45 10.05Z" style="fill:#f3d56a;opacity:.6"/><path class="cls-3" d="M48.49 26.16a10.88 10.88 0 1 1-10.88-10.87 10.87 10.87 0 0 1 10.88 10.87Z"/><path class="cls-5" d="M47.38 26.72A10.32 10.32 0 1 1 37.06 16.4a10.32 10.32 0 0 1 10.32 10.32Z"/><path class="cls-3" d="M74.83 49.92a8.06 8.06 0 1 1-8.06-8.06 8.06 8.06 0 0 1 8.06 8.06Z"/><path class="cls-5" d="M74 50.32a7.66 7.66 0 1 1-7.65-7.65A7.65 7.65 0 0 1 74 50.32Z"/><circle class="cls-5" cx="48.49" cy="72.05" r="8.06"/><path class="cls-3" d="M56.54 71.63A7.64 7.64 0 1 1 48.9 64a7.65 7.65 0 0 1 7.64 7.63Z"/><path class="cls-5" d="M15.29 18.16a2.43 2.43 0 1 1-2.42-2.43 2.42 2.42 0 0 1 2.42 2.43Z"/><path class="cls-3" d="M15.4 18.11a2.28 2.28 0 1 1-2.28-2.28 2.29 2.29 0 0 1 2.28 2.28Z"/><path class="cls-5" d="M35.19 54.15a2.43 2.43 0 1 1-2.42-2.42 2.42 2.42 0 0 1 2.42 2.42Z"/><path class="cls-3" d="M35.19 53.81a2.08 2.08 0 1 1-2.08-2.08 2.08 2.08 0 0 1 2.08 2.08Z"/><path class="cls-5" d="M43.68 47.32a2.25 2.25 0 1 1-2.25-2.24 2.24 2.24 0 0 1 2.25 2.24Z"/><path class="cls-3" d="M41.43 45.08a2.18 2.18 0 0 0-1.57.65 2.19 2.19 0 0 1 .93-.21 2.24 2.24 0 0 1 1.57 3.84 2.24 2.24 0 0 0-.93-4.28ZM67.78 68.4a2.65 2.65 0 1 1-2.65-2.64 2.65 2.65 0 0 1 2.65 2.64Z"/><path class="cls-5" d="M67.61 68.2a2.28 2.28 0 1 1-2.28-2.28 2.28 2.28 0 0 1 2.28 2.28ZM26 56.88a2.95 2.95 0 1 1-3-2.94 2.95 2.95 0 0 1 3 2.94Z"/><path class="cls-3" d="M25.34 57.19a2.64 2.64 0 1 1-2.64-2.64 2.64 2.64 0 0 1 2.64 2.64Z"/><path class="cls-5" d="M12.3 26.3a2 2 0 1 1-2-2 2 2 0 0 1 2 2Z"/><path class="cls-3" d="M12.3 26.3a1.77 1.77 0 1 1-1.77-1.77 1.77 1.77 0 0 1 1.77 1.77ZM62.72 59.83a3 3 0 1 1-3-3 3 3 0 0 1 3 3Z"/><path class="cls-5" d="M62.4 60.15a2.68 2.68 0 1 1-2.68-2.68 2.68 2.68 0 0 1 2.68 2.68ZM67 15.09a5.64 5.64 0 1 1-5.64-5.64A5.63 5.63 0 0 1 67 15.09Z"/><path class="cls-3" d="M60.93 10.05a5.63 5.63 0 0 1 4.88 8.46 5.64 5.64 0 0 0-4.48-9.06 5.64 5.64 0 0 0-4.89 2.82 5.64 5.64 0 0 1 4.49-2.22Z"/><path class="cls-5" d="M21.93 33.59A5.65 5.65 0 1 1 16.29 28a5.64 5.64 0 0 1 5.64 5.59Z"/><path class="cls-3" d="M16.29 28a5.63 5.63 0 0 0-3.42 1.15 5.64 5.64 0 0 1 6 9.53A5.64 5.64 0 0 0 16.29 28Z"/><path class="cls-5" d="M19.52 47.5a5.65 5.65 0 1 1-5.65-5.64 5.65 5.65 0 0 1 5.65 5.64Z"/><path class="cls-3" d="M19.52 47a5.11 5.11 0 1 1-5.11-5.11A5.1 5.1 0 0 1 19.52 47Z"/><path class="cls-5" d="M30.34 71.05a5.43 5.43 0 1 1-5.42-5.43 5.42 5.42 0 0 1 5.42 5.43Z"/><path class="cls-3" d="M30.34 70.65a5 5 0 1 1-5-5 5 5 0 0 1 5 5Z"/></g></g></svg>