<svg xmlns="http://www.w3.org/2000/svg" viewBox="0 0 306.27 368.64">
  <defs>
    <style>
      .cls-1 {
        fill: #ec407a;
      }

      .cls-2 {
        fill: #d81b60;
        fill-rule: evenodd;
      }
    </style>
  </defs>
  <g id="Слой_2" data-name="Слой 2">
    <g id="Layer_1" data-name="Layer 1">
      <g>
        <path class="cls-1" d="M5.76,59H84.49c-.4-1-.77-1.92-1.1-2.91a42.5,42.5,0,1,1,80.54,0c-.33,1-.7,2-1.1,2.91h78.73a5.76,5.76,0,0,1,5.76,5.76V134.9c1-.4,1.93-.77,2.91-1.1a42.49,42.49,0,1,1,0,80.54c-1-.33-2-.7-2.91-1.1v87.27a5.76,5.76,0,0,1-5.76,5.76H161.22a41.73,41.73,0,0,1,1.82,3.89,42.5,42.5,0,1,1-78.76,0,41.73,41.73,0,0,1,1.82-3.89H5.76A5.76,5.76,0,0,1,0,300.51V224.89a42.28,42.28,0,0,0,42.28-42.28A42.28,42.28,0,0,0,0,140.33V64.71A5.76,5.76,0,0,1,5.76,59Z"/>
        <path class="cls-2" d="M1.07,303.86,244.91,60a5.77,5.77,0,0,1,2.41,4.69V134.9c1-.4,1.93-.77,2.91-1.1a42.49,42.49,0,1,1,0,80.54c-1-.33-2-.7-2.91-1.1v87.27a5.76,5.76,0,0,1-5.76,5.76H161.22a41.73,41.73,0,0,1,1.82,3.89,42.5,42.5,0,1,1-78.76,0,41.73,41.73,0,0,1,1.82-3.89H5.76A5.77,5.77,0,0,1,1.07,303.86Z"/>
      </g>
    </g>
  </g>
</svg>
