<svg xmlns="http://www.w3.org/2000/svg" xmlns:xlink="http://www.w3.org/1999/xlink" viewBox="0 0 856.65 1878.1">
  <defs>
    <style>
      .cls-1 {
        fill: url(#Безымянный_градиент_2);
      }

      .cls-2 {
        fill: #264963;
      }

      .cls-2, .cls-3 {
        opacity: 0.5;
      }

      .cls-3 {
        fill: #6fabc9;
      }
    </style>
    <linearGradient id="Безымянный_градиент_2" data-name="Безымянный градиент 2" x1="428.07" y1="1861.47" x2="428.07" y2="27.36" gradientUnits="userSpaceOnUse">
      <stop offset="0.38" stop-color="#3e4160"/>
      <stop offset="0.43" stop-color="#505067"/>
      <stop offset="0.54" stop-color="#7f7678"/>
      <stop offset="0.62" stop-color="#a98"/>
      <stop offset="0.89" stop-color="#2e86e5"/>
    </linearGradient>
  </defs>
  <g id="Слой_2" data-name="Слой 2">
    <g id="Слой_2-2" data-name="Слой 2">
      <g>
        <rect id="задник_вверх_вниз" data-name="задник вверх вниз" class="cls-1" x="7.12" width="841.89" height="1878.1"/>
        <path class="cls-2" d="M856.65,1513.48a478.43,478.43,0,0,1-138.38-15.2c-125.2-33-153.77-96.78-246.35-103.41-72.7-5.21-87,31.87-184.76,55.31-63.41,15.2-158.39,23.82-286.65-14.25l6.61-117.09a521.15,521.15,0,0,0,112,24.33c185.64,19.16,240.66-78.4,390.81-53.22,87.62,14.69,109.56,54.72,209.86,53.22,55.17-.83,100.11-13.71,129.22-24.33Q852.83,1416.16,856.65,1513.48Z"/>
        <path class="cls-3" d="M856.13,337.77a478.57,478.57,0,0,1-138.38-15.21C592.56,289.62,564,225.79,471.41,219.16c-72.71-5.21-87,31.86-184.76,55.3C223.24,289.67,128.26,298.29,0,260.22l6.61-117.1a520.54,520.54,0,0,0,112,24.33c185.64,19.17,240.65-78.39,390.81-53.22C597,128.92,619,169,719.27,167.45c55.17-.82,100.12-13.71,129.23-24.33Q852.33,240.46,856.13,337.77Z"/>
      </g>
    </g>
  </g>
</svg>
