<svg width="223" height="328" viewBox="0 0 223 328" fill="none" xmlns="http://www.w3.org/2000/svg">
<ellipse cx="95.5" cy="301.5" rx="71.5" ry="13.5" fill="#3A4970"/>
<ellipse cx="156.931" cy="308.77" rx="23.5" ry="10" fill="#3A4970"/>
<ellipse cx="43.5" cy="310" rx="23.5" ry="10" fill="#3A4970"/>
<ellipse cx="104.431" cy="310.77" rx="40" ry="17" fill="#3A4970"/>
<g clip-path="url(#clip0_685_4734)">
<path d="M46.6157 47.8258L44.0444 23.715V19.6476L49.024 24.1927L56.2926 30.7442L58.4186 27.68L62.4825 15.1913L63.9375 14.5088L67.6752 19.1904L73.6143 26.6222L75.2261 27.4002L76.5431 24.9639L78.8133 18.3987L81.1651 13.956L82.8898 15.1571L89.1236 23.4966L92.4224 27.1136L93.777 27.1272L96.9127 23.0189L100.82 17.0202L101.623 18.3987L103.661 28.5331L106.082 41.4859L105.053 44.243L100.023 47.4436L91.1492 50.617L59.9237 53.3127L49.9835 51.7021L46.9481 49.4159L46.6157 47.8258Z" fill="#F7A566"/>
<path d="M106.082 41.4859L104.301 39.3225L99.6912 37.3025H94.9939L79.4595 36.934L68.9987 37.9986L60.0369 40.3394L47.3309 46.1265L46.7163 48.6379L48.234 50.965L51.5516 52.248H71.1436L95.6837 49.1361L104.332 45.1711L106.082 41.4859Z" fill="#B36341"/>
<path d="M77.2371 53.0269C93.6613 51.1137 106.629 46.0417 106.202 41.6982C105.775 37.3547 92.114 35.3845 75.6898 37.2977C59.2656 39.2108 46.2975 44.2829 46.7248 48.6264C47.1521 52.9699 60.8129 54.9401 77.2371 53.0269Z" stroke="#6D1300" stroke-width="2" stroke-miterlimit="10"/>
<path d="M106.082 41.1924C106.082 41.1924 102.143 17.846 101.065 17.0339C99.9859 16.2217 95.5646 27.1409 93.1626 27.3729C90.7606 27.6049 83.0781 13.492 81.1528 13.956C79.2274 14.4201 76.5997 27.5435 74.8813 27.5435C73.163 27.5435 64.9725 14.4201 63.1036 14.577C61.2347 14.734 58.6446 30.3893 56.7192 30.7101C54.7939 31.0308 45.3742 19.6203 44.1763 19.9684C42.9785 20.3164 46.6849 48.6311 46.6849 48.6311" stroke="#6D1300" stroke-width="2" stroke-miterlimit="10"/>
<path d="M42.6336 17.6139C44.3724 17.6139 45.7819 16.0801 45.7819 14.1881C45.7819 12.296 44.3724 10.7622 42.6336 10.7622C40.8949 10.7622 39.4854 12.296 39.4854 14.1881C39.4854 16.0801 40.8949 17.6139 42.6336 17.6139Z" fill="#F7A566" stroke="#6D1300" stroke-width="2" stroke-miterlimit="10"/>
<path d="M63.9378 10.5028C65.6557 10.5028 67.0484 8.98736 67.0484 7.11792C67.0484 5.24847 65.6557 3.73299 63.9378 3.73299C62.2198 3.73299 60.8271 5.24847 60.8271 7.11792C60.8271 8.98736 62.2198 10.5028 63.9378 10.5028Z" fill="#F7A566" stroke="#6D1300" stroke-width="2" stroke-miterlimit="10"/>
<path d="M82.3194 9.39728C83.7568 9.39728 84.9221 8.12929 84.9221 6.56514C84.9221 5.00098 83.7568 3.73299 82.3194 3.73299C80.882 3.73299 79.7168 5.00098 79.7168 6.56514C79.7168 8.12929 80.882 9.39728 82.3194 9.39728Z" fill="#F7A566" stroke="#6D1300" stroke-width="2" stroke-miterlimit="10"/>
<path d="M100.82 14.5088C102.389 14.5088 103.661 13.1247 103.661 11.4173C103.661 9.70995 102.389 8.32585 100.82 8.32585C99.2509 8.32585 97.979 9.70995 97.979 11.4173C97.979 13.1247 99.2509 14.5088 100.82 14.5088Z" fill="#F7A566" stroke="#6D1300" stroke-width="2" stroke-miterlimit="10"/>
<g opacity="0.53">
<path d="M33.3457 7.11788C33.3457 7.11788 36.0675 51.511 38.9461 54.5137C41.8247 57.5165 60.5638 66.9274 77.3775 64.1499C94.1913 61.3723 107.48 53.5924 112.692 47.4572C117.904 41.3221 111.714 10.3117 108.716 5.25481C105.718 0.197885 96.3549 1.42629 95.5898 5.25481C94.8247 9.08333 89.3748 0.19106 82.1564 -2.45601e-05C74.9379 -0.191109 76.0793 6.47638 72.398 6.55145C68.7166 6.62652 68.7292 -0.341247 63.2856 -2.45601e-05C57.842 0.341198 55.9229 9.02191 51.7587 9.39725C47.5944 9.7726 43.6058 4.89311 38.7893 5.24116C33.9728 5.5892 33.3457 7.11788 33.3457 7.11788Z" fill="#73EDFB"/>
</g>
<path d="M85.7059 258.415L72.7867 255.166L69.8015 271.6L68.3528 281.884L69.8015 290.128L71.244 294.776L66.346 291.739L64.0193 288.681L62.1316 286.306L59.9428 285.89L57.9485 287.74L55.7911 285.767L52.9439 285.037L50.6548 287.432L49.112 285.767L44.7095 285.624L41.6177 289.016L39.5669 293.499L38.7642 300.351L41.1912 308.247L43.6433 303.135L47.4877 298.611L48.4222 304.487L49.5134 308.247L52.9439 304.105L56.5939 301.395L57.9485 306.152L60.0306 309.08L60.8334 302.671L64.6025 305.858L71.338 309.08H85.6244L82.8211 301.743L79.585 289.016L78.5502 281.181L80.5822 272.821L85.7059 258.415Z" fill="#F7A566"/>
<path d="M127.443 252.143L116.769 255.166L120.4 269.539L124.119 286.764L127.443 310.342H138.436L145.962 307.783L149.324 304.883L151.468 307.08L153.488 312.662L155.081 309.08L155.971 304.418L158.599 305.777L162.318 309.762L163.88 312.171V306.971L163.604 303.879L169.505 307.019L173.237 312.662L171.888 305.367L168.96 298.099L165.705 293.213L163.096 291.739L160.004 293.615L158.185 292.182L154.065 294.189L152.102 291.739L146.978 293.499L139.503 299.191L137.659 299.648L136.492 291.254L132.46 273.285L127.443 252.143Z" fill="#F7A566"/>
<path d="M118.587 265C122.331 280.09 125.161 295.43 127.06 310.922C127.064 311.123 127.14 311.315 127.271 311.457C127.401 311.599 127.577 311.681 127.762 311.687C132.459 311.913 137.162 311.426 141.735 310.24C143.07 309.892 144.373 309.415 145.629 308.813C146.884 308.206 147.987 306.766 149.16 306.295C149.957 305.961 149.631 306.084 150.352 306.698C151.18 307.38 151.769 309.189 152.12 310.206C152.479 311.259 152.754 312.343 152.942 313.447C152.985 313.582 153.061 313.702 153.163 313.792C153.264 313.883 153.387 313.941 153.517 313.96C153.647 313.979 153.779 313.958 153.899 313.9C154.019 313.842 154.122 313.749 154.196 313.632C155.915 309.864 157.1 305.326 156.661 301.109C156.354 298.167 155.407 292.81 152.453 291.322C150.377 290.278 147.555 292.687 145.874 293.759C142.701 295.806 138.348 299.846 134.479 299.696C133.576 299.696 133.576 301.197 134.479 301.231C140.123 301.45 145.096 295.171 150.082 293.042C153.437 291.602 154.554 297.321 155.043 299.867C155.871 304.2 154.773 308.943 152.979 312.833L154.271 313.017C153.72 309.742 152.465 305.927 149.674 304.2C149.541 304.114 149.384 304.079 149.23 304.1C149.075 304.121 148.932 304.197 148.822 304.316C144.469 310.315 134.19 310.376 127.756 310.131L128.464 310.902C126.558 295.272 123.711 279.795 119.942 264.57C119.88 264.39 119.758 264.241 119.6 264.153C119.442 264.065 119.26 264.045 119.089 264.097C118.918 264.148 118.771 264.267 118.677 264.431C118.583 264.594 118.548 264.79 118.581 264.98L118.587 265Z" fill="#6D1300"/>
<path d="M128.753 261.035C132.102 273.893 135.338 286.586 136.981 299.853C137.1 300.829 138.461 300.413 138.342 299.45C136.699 286.177 133.463 273.483 130.114 260.626C130.052 260.445 129.93 260.296 129.772 260.209C129.614 260.121 129.432 260.101 129.261 260.152C129.09 260.204 128.943 260.323 128.849 260.486C128.755 260.65 128.721 260.846 128.753 261.035Z" fill="#6D1300"/>
<path d="M154.566 294.735C155.01 294.068 155.573 293.506 156.222 293.083C158.178 292.148 159.05 293.806 159.847 295.342C160.953 297.447 161.839 299.682 162.487 302.003C163.409 305.415 163.403 309.155 163.459 312.662L164.77 312.273C162.938 308.957 159.978 304.268 156.052 304.084C155.143 304.05 155.149 305.585 156.052 305.62C159.339 305.749 162.023 310.253 163.578 313.024C163.66 313.164 163.781 313.271 163.923 313.331C164.065 313.391 164.221 313.4 164.368 313.356C164.515 313.313 164.645 313.219 164.74 313.09C164.835 312.96 164.889 312.801 164.895 312.635C164.807 307.176 164.375 302.187 162.293 297.157C161.54 295.335 160.361 291.827 158.392 291.09C156.579 290.408 154.666 292.237 153.594 293.622C153.011 294.373 154.002 295.465 154.591 294.707L154.566 294.735Z" fill="#6D1300"/>
<path d="M161.358 294.352C164.776 289.268 169.511 300.399 170.483 303.115C171.516 306.269 172.212 309.541 172.559 312.867L173.845 312.273C171.775 307.646 168.432 304.405 163.81 303.135C163.636 303.1 163.456 303.138 163.306 303.24C163.155 303.342 163.046 303.502 162.999 303.688C162.951 303.874 162.97 304.073 163.05 304.245C163.131 304.416 163.268 304.549 163.434 304.616C167.699 305.783 170.753 308.813 172.647 313.051C173.029 313.904 174.039 313.243 173.939 312.458C173.192 306.664 171.725 301.347 168.852 296.366C166.89 292.953 163.296 288.907 160.16 293.574C159.621 294.373 160.844 295.137 161.377 294.352H161.358Z" fill="#6D1300"/>
<path d="M83.8245 261.82C81.0274 269.136 77.321 278.076 78.3746 286.143C79.4282 294.209 82.2692 302.044 85.0223 309.496L85.7059 308.527C81.9011 309.039 78.0594 309.147 74.2355 308.848C69.7075 308.39 65.4554 305.756 61.6926 303.054C60.9337 302.508 60.225 303.838 60.9776 304.384C64.6339 307.032 68.8608 309.646 73.2759 310.274C77.3524 310.847 81.5981 310.526 85.6746 310.062C86.0759 310.015 86.54 309.598 86.3519 309.093C83.7304 301.996 81.1466 294.571 79.8986 287.03C78.5377 278.793 82.288 269.716 85.154 262.23C85.499 261.322 84.1381 260.919 83.7931 261.82H83.8245Z" fill="#6D1300"/>
<path d="M70.5667 262.803C69.6259 268.324 68.5159 273.859 67.8198 279.421C67.1926 284.58 69.0741 290.142 70.5667 294.98C70.8551 295.908 72.2161 295.513 71.9276 294.571C70.3973 289.63 68.541 284.075 69.3375 278.834C70.1339 273.592 71.0433 268.413 71.9276 263.212C72.0906 262.243 70.7297 261.848 70.5667 262.803Z" fill="#6D1300"/>
<path d="M76.2863 296.591C71.5477 295.293 67.3656 292.256 64.4459 287.992C62.6459 285.378 60.0558 283.577 57.6978 286.77C55.7787 289.384 55.9041 293.998 55.8916 297.171C55.8916 301.9 56.6881 306.534 59.4789 310.274C59.9053 310.847 60.6328 310.322 60.683 309.735C61.1971 304.361 62.9771 299.222 65.8507 294.816C66.3775 294.004 65.1545 293.24 64.5964 294.038C61.6115 298.686 59.7777 304.092 59.2719 309.735L60.476 309.189C57.773 305.565 57.2023 300.897 57.3403 296.366C57.403 293.636 57.6539 284.184 61.9561 287.125C63.2104 288.006 64.1887 290.292 65.236 291.527C66.4185 292.896 67.7793 294.069 69.2749 295.008C71.3487 296.332 73.5702 297.362 75.885 298.072C76.0593 298.107 76.2393 298.069 76.3896 297.967C76.5399 297.865 76.6495 297.705 76.6967 297.519C76.7439 297.333 76.7254 297.135 76.6448 296.963C76.5642 296.791 76.4274 296.658 76.2612 296.591H76.2863Z" fill="#6D1300"/>
<path d="M58.5567 287.351C57.3965 285.706 55.3081 284.054 53.2949 284.409C50.686 284.873 48.6415 288.804 47.8827 291.234C46.2897 296.291 46.873 303.879 48.9049 308.663C48.9665 308.786 49.0572 308.888 49.1676 308.959C49.2779 309.03 49.4038 309.068 49.5321 309.068C49.6603 309.068 49.7862 309.03 49.8966 308.959C50.0069 308.888 50.0976 308.786 50.1592 308.663C51.9036 305.895 54.2469 303.636 56.9825 302.085C57.7853 301.62 57.0703 300.297 56.2676 300.761C53.3197 302.438 50.7956 304.877 48.9175 307.865H50.1717C48.5098 303.954 48.491 299.123 48.7858 294.898C49.0931 290.565 53.1758 282.205 57.3839 288.115C57.9295 288.893 59.1587 288.115 58.6006 287.344L58.5567 287.351Z" fill="#6D1300"/>
<path d="M46.8856 298.413C44.377 301.191 41.7744 304.378 40.5076 308.042L41.7995 307.865C40.4347 305.475 39.6634 302.741 39.5612 299.93C39.459 297.119 40.0292 294.327 41.2162 291.827C41.9334 290.161 42.8856 288.628 44.0384 287.282C45.6878 285.528 48.8674 285.167 50.0464 287.821C50.4415 288.715 51.6582 287.937 51.2631 287.05C50.4666 285.262 48.3218 284.218 46.5783 284.273C43.9819 284.341 42.3953 286.852 41.0908 289.002C39.2776 291.874 38.2652 295.255 38.175 298.737C38.0849 302.22 38.921 305.658 40.5828 308.636C40.6542 308.764 40.7582 308.866 40.8822 308.931C41.0061 308.995 41.1446 309.019 41.2808 309C41.4171 308.98 41.5451 308.918 41.6495 308.821C41.7538 308.723 41.8299 308.595 41.8685 308.452C43.0538 305.04 45.5686 302.085 47.8828 299.498C48.5099 298.816 47.519 297.703 46.8856 298.413V298.413Z" fill="#6D1300"/>
<path d="M131.343 137.363L138.267 133.821L143.297 134.312L150.603 139.089L165.805 154.656L173.224 158.17L180.994 158.375L184.099 156.894L186.262 154.308L190.107 153.434L195.945 152.39L199.376 150.425L202.543 146.289L204.393 141.73L206.318 146.903L204.914 154.785L199.991 162.756L196.228 165.5L200.273 165.848L210.081 165.022L217.582 162.047L222.285 158.054L221.37 162.668L215.726 168.905L212.859 177.627L207.585 182.991L199.307 187.713L189.868 190.068L177.087 189.031L167.335 186.001L161.283 182.186L155.118 177.354L150.716 171.253L143.867 162.354L135.344 147.599L131.343 137.363Z" fill="#4B4A6B"/>
<path d="M206.193 146.289C206.193 146.289 204.155 152.608 200.912 154.874C197.67 157.14 193.161 156.792 190.652 157.795C188.144 158.798 184.487 161.712 183.647 162.456C182.807 163.2 181.22 163.534 180.888 162.586C180.405 161.187 182.813 158.88 183.685 158.054C184.149 157.673 184.509 157.161 184.726 156.573L187.046 153.782L192.534 152.827L198.015 151.462L201.577 147.92L204.33 141.874L205.622 143.969L206.193 146.289Z" fill="#88CAFD"/>
<path d="M222.21 158.778L215.161 163.5L202.756 166.196L196.416 165.377L199.834 166.196C198.02 165.879 196.163 166.055 194.428 166.708C192.878 167.375 191.268 167.862 189.624 168.161C189.624 168.161 183.421 167.677 179.991 165.834C176.56 163.992 176.303 163.309 175.262 162.654C174.221 161.999 172.34 162.306 171.7 163.487C171.06 164.667 171.073 166.182 171.7 166.797C170.659 166.36 168.182 166.797 167.661 167.711C167.141 168.625 166.137 171.123 168.915 172.979C171.694 174.836 179.721 180.254 183.885 180.998C188.049 181.742 202.417 182.131 208.024 177.9C213.079 174.092 215.5 169.895 216.064 167.342C216.628 164.79 216.39 168.755 216.39 168.755L219.388 166.182L222.21 158.778Z" fill="#88CAFD"/>
<path d="M131.343 137.854L137.264 133.834L143.673 134.223L149.148 137.854L152.102 140.993C152.102 140.993 151.901 149.23 153.061 155.714C154.077 161.378 156.279 168.305 161.841 176.187C164.839 180.445 172.195 184.294 172.503 187.393C169.761 186.183 166.936 185.209 164.055 184.479L156.385 178.282L148.684 169.233L140.801 159.87L131.644 143.082L131.343 137.854Z" fill="#43375D"/>
<path d="M131.701 138.025C134.68 135.834 138.675 133.93 142.318 134.81C146.545 135.82 150.239 139.54 153.249 142.679C159.226 148.91 164.356 156.935 172.967 158.894C175.946 159.576 179.558 159.904 182.443 158.73C183.416 158.324 184.319 157.743 185.115 157.01C187.159 155.154 187.924 154.28 190.759 153.946C194.221 153.496 198.04 152.95 200.712 150.254C202.875 148.077 204.249 144.794 205.102 141.792L203.822 141.949C209.14 150.957 199.301 167.11 189.862 166.926C189.686 166.944 189.523 167.033 189.405 167.175C189.286 167.317 189.22 167.502 189.22 167.694C189.22 167.886 189.286 168.071 189.405 168.213C189.523 168.355 189.686 168.444 189.862 168.462C200.298 168.666 210.94 151.175 205.045 141.164C204.971 141.039 204.866 140.94 204.742 140.878C204.619 140.815 204.481 140.792 204.346 140.812C204.21 140.831 204.083 140.892 203.978 140.987C203.873 141.082 203.795 141.207 203.753 141.348C202.53 145.532 200.411 149.537 196.46 151.134C193.161 152.452 188.808 151.523 185.974 153.946C184.883 154.881 184.092 156.075 182.838 156.812C181.095 157.843 179.075 157.863 177.144 157.802C173.599 157.735 170.135 156.64 167.109 154.629C159.213 149.394 154.623 139.867 146.413 134.96C141.221 131.842 135.752 133.145 130.954 136.667C130.202 137.213 130.91 138.543 131.663 137.99L131.701 138.025Z" fill="#18013D"/>
<path d="M144.187 164.128C149.913 172.939 157.194 182.452 166.607 186.512C180.919 192.654 197.57 193.064 209.974 181.995C214.609 177.852 216.033 171.99 217.042 165.752C217.108 165.566 217.104 165.359 217.032 165.175C216.96 164.992 216.825 164.846 216.656 164.768C216.487 164.69 216.297 164.687 216.126 164.758C215.955 164.83 215.816 164.971 215.738 165.152C210.821 174.133 199.263 176.071 190.408 175.136C189.504 175.04 189.511 176.576 190.408 176.672C199.777 177.682 211.774 175.395 216.955 165.923L215.663 165.336C215.227 168.197 214.574 171.014 213.712 173.757C212.314 178.118 209.467 180.848 205.917 183.271C197.306 189.16 187.868 190.409 177.996 188.437C169.216 186.683 161.879 183.134 155.501 176.283C151.793 172.305 148.416 167.977 145.41 163.35C144.889 162.552 143.667 163.316 144.156 164.128H144.187Z" fill="#18013D"/>
<path d="M196.673 166.571C205.24 167.11 216.641 166.032 222.787 158.771L221.583 158.225C221.156 162.122 218.892 165.793 216.008 168.107C215.286 168.687 216.008 170.018 216.723 169.431C218.413 168.125 219.842 166.458 220.92 164.531C221.998 162.605 222.704 160.459 222.994 158.225C223.069 157.543 222.179 157.229 221.79 157.686C215.907 164.633 204.857 165.548 196.704 165.036C195.795 164.981 195.801 166.517 196.704 166.571H196.673Z" fill="#18013D"/>
<path d="M130.754 136.687C130.754 136.687 140.161 147.299 142.337 152.847C144.513 158.396 145.912 169.963 145.429 177.163C144.946 184.363 136.649 224.934 123.479 235.996C127.273 242.5 131.857 264.338 131.857 264.338L126.363 256.443L125.881 267.3L120.28 258.244L118.399 270.207C118.399 270.207 113.808 253.146 111.299 248.424C105.586 249.591 96.1414 250.922 90.8546 248.656C88.6157 252.901 87.3363 267.88 87.3363 267.88L83.1971 259.329L76.9257 266.154L75.4895 258.196L69.4564 265.11C69.4564 265.11 70.7107 249.488 73.4576 243.21C66.3081 239.613 48.3718 215.332 44.5337 206.508C40.6956 197.684 39.4036 186.908 39.6231 178.705C39.8426 170.502 42.8341 162.251 45.2298 158.996C46.9592 156.771 48.9279 154.78 51.0936 153.066L78.0608 132.019L122.92 130.388L130.754 136.687Z" fill="#71578D"/>
<path d="M130.252 137.226C134.115 141.607 138.21 146.303 140.964 151.612C142.845 155.202 143.51 159.528 144.068 163.562C144.794 168.174 145.004 172.864 144.695 177.531C144.244 182.684 142.995 187.836 141.804 192.832C140.078 200.267 137.884 207.563 135.238 214.67C132.422 222.116 128.916 230.298 122.996 235.444C122.885 235.563 122.814 235.719 122.794 235.887C122.773 236.055 122.805 236.225 122.883 236.372C125.693 241.401 127.079 247.55 128.527 253.174C129.493 256.934 130.409 260.721 131.199 264.53L132.491 263.943L126.991 256.04C126.909 255.9 126.788 255.793 126.646 255.733C126.504 255.673 126.348 255.664 126.201 255.708C126.054 255.751 125.923 255.845 125.829 255.974C125.734 256.104 125.68 256.263 125.674 256.429L125.197 267.287L126.508 266.904L120.907 257.842C120.6 257.35 119.728 257.323 119.616 258.026L117.734 269.989H119.095C117.132 262.687 115.332 254.709 111.927 248.028C111.847 247.884 111.726 247.771 111.582 247.707C111.439 247.643 111.28 247.631 111.13 247.673C104.784 248.936 97.3331 250.328 91.0616 247.905C90.9115 247.86 90.7518 247.87 90.6076 247.934C90.4634 247.999 90.343 248.113 90.2652 248.26C87.4995 253.938 87.1922 261.561 86.6466 267.867L87.9636 267.485L83.7993 258.947C83.7438 258.847 83.6682 258.761 83.5781 258.697C83.488 258.633 83.3858 258.592 83.2791 258.577C83.1724 258.562 83.0639 258.573 82.9618 258.61C82.8597 258.647 82.7665 258.709 82.6893 258.79L76.4178 265.615L77.5969 265.949L76.1356 257.964C76.1015 257.836 76.0373 257.719 75.9493 257.626C75.8612 257.533 75.7524 257.466 75.6335 257.432C75.5146 257.398 75.3897 257.399 75.271 257.434C75.1523 257.468 75.044 257.536 74.9566 257.63L68.9235 264.536L70.1276 265.082C70.6983 258.019 71.3129 250.069 74.0347 243.572C74.127 243.395 74.1525 243.187 74.1056 242.991C74.0587 242.794 73.9433 242.626 73.7838 242.521C67.9012 239.381 63.1224 232.557 58.9895 227.241C54.1667 221.058 49.2248 214.506 45.6877 207.327C40.6706 197.09 38.7892 182.957 41.1221 171.621C42.32 165.739 44.3896 160.409 48.5224 156.294C49.8099 155.04 51.1648 153.871 52.5801 152.793L65.9069 142.385C69.8767 139.294 73.7587 135.732 77.9418 132.995C78.3494 132.729 78.431 132.654 78.0923 132.756C78.5078 132.693 78.9284 132.679 79.3466 132.715L85.0599 132.51L103.611 131.828L121.171 131.193C122.99 131.125 122.494 130.934 123.679 131.876L130.453 137.335C131.18 137.922 131.889 136.591 131.161 136.011L124.953 131.002C123.911 130.17 123.479 129.712 122.287 129.637C117.477 129.303 112.41 129.992 107.599 130.17L87.3113 130.9L80.2873 131.152C79.4971 131.152 78.4686 131.03 77.7097 131.343C76.5182 131.835 75.2639 133.254 74.2416 134.073L66.6971 139.901L52.0972 151.305C47.1615 155.154 43.3548 159.426 41.2288 165.746C37.4659 176.992 38.4066 190.204 41.8559 201.417C44.5965 210.289 50.0778 217.796 55.4336 225.016C58.5258 229.225 61.8209 233.252 65.3048 237.082C67.6064 239.572 70.0962 242.289 73.0438 243.865L72.7929 242.814C69.9582 249.598 69.2809 257.732 68.6914 265.096C68.6952 265.247 68.7392 265.393 68.818 265.517C68.8968 265.641 69.007 265.737 69.1352 265.794C69.2635 265.852 69.4042 265.867 69.5403 265.839C69.6764 265.81 69.802 265.74 69.9018 265.635L75.9287 258.729L74.7496 258.388L76.1921 266.345C76.2269 266.473 76.2914 266.588 76.3792 266.681C76.467 266.774 76.5753 266.841 76.6937 266.875C76.812 266.909 76.9365 266.91 77.0551 266.877C77.1737 266.844 77.2825 266.778 77.3711 266.686L83.6425 259.862L82.5388 259.705L86.6967 268.242C87.0542 268.972 87.951 268.556 88.0137 267.853C88.3724 263.189 89.0156 258.557 89.9391 253.986C90.1648 252.921 90.3342 251.099 90.9425 250.191C91.5508 249.284 90.7669 249.68 92.0463 249.864C92.6734 249.959 93.3507 250.178 94.0092 250.287C97.3763 250.748 100.783 250.748 104.15 250.287C105.549 250.13 106.941 249.932 108.333 249.707C108.822 249.625 110.215 249.065 110.729 249.27C110.973 249.372 110.992 249.68 111.262 250.028C112.767 251.966 113.426 255.91 114.178 258.285C115.432 262.284 116.603 266.313 117.69 270.371C117.872 271.054 118.944 271.156 119.051 270.371L120.933 258.408L119.641 258.585L125.247 267.648C125.329 267.788 125.45 267.896 125.592 267.955C125.734 268.015 125.89 268.024 126.037 267.98C126.184 267.937 126.315 267.844 126.409 267.714C126.504 267.584 126.558 267.425 126.564 267.259L127.041 256.402L125.73 256.791L131.224 264.686C131.312 264.845 131.45 264.963 131.612 265.02C131.774 265.077 131.949 265.069 132.106 264.997C132.262 264.925 132.39 264.794 132.466 264.628C132.541 264.462 132.559 264.272 132.516 264.093C130.841 256.163 128.973 248.124 126.244 240.542C125.906 239.586 124.313 236.379 124.363 236.14C124.526 235.614 126.012 234.495 126.389 234.058C127.114 233.215 127.797 232.328 128.433 231.404C131.181 227.327 133.484 222.916 135.294 218.26C139.162 208.562 142.163 198.481 144.256 188.157C146.137 179.285 146.608 171.171 145.234 162.094C144.281 155.755 142.531 150.827 138.925 145.764C136.508 142.398 133.931 139.173 131.205 136.1C130.622 135.424 129.625 136.489 130.252 137.226Z" fill="#18013D"/>
<path d="M91.2249 248.001C88.1846 247.154 85.2256 245.993 82.3884 244.534C81.5731 244.111 80.8519 245.435 81.6735 245.858C84.6193 247.38 87.6916 248.593 90.8486 249.482C91.0229 249.517 91.203 249.479 91.3533 249.377C91.5035 249.275 91.6131 249.115 91.6603 248.929C91.7076 248.743 91.6891 248.544 91.6085 248.373C91.5278 248.201 91.391 248.068 91.2249 248.001Z" fill="#18013D"/>
<path d="M119.961 137.369C128.113 137.144 131.337 142.242 133.099 145.443C134.862 148.643 139.371 158.321 138.543 159.842C137.715 161.364 124.934 164.128 121.253 160.743C117.571 157.358 112.121 152.868 111.563 145.443C111.005 138.018 119.961 137.369 119.961 137.369Z" fill="#847AA6"/>
<path d="M51.2758 157.16C48.3345 150.268 42.1508 152.342 42.1508 152.342L22.8159 159.849L12.3614 166.674L6.39103 172.925L2.39612 181.408L0.759277 189.242L2.26442 197.5L6.27188 203.737L15.1209 210.152L36.563 219.707L38.3691 226.415L42.1696 232.291L44.6782 233.301C44.6782 233.301 46.5973 235 46.798 235.3C46.9986 235.601 52.5175 239.538 52.5175 239.538L57.8043 240.903L61.1972 240.774L65.167 241.654L70.6859 242.473L70.573 241.306L66.0513 237.996L61.9247 230.489L59.8865 222.907L59.4851 212.807L56.9201 206.665L51.9029 202.482L41.8686 198.912L36.6633 193.903L34.6627 188.764L35.1832 184.451L37.9866 178.992L42.3076 172.365L48.8174 165.664L51.3259 160.682L51.2758 157.16Z" fill="#4B4A6B"/>
<path d="M59.2969 211.647C58.6698 209.211 56.3242 207.361 54.2421 207.552C52.16 207.743 49.9148 208.508 48.8738 211.21C42.9535 208.685 21.7372 198.489 16.5319 193.528C11.3266 188.567 5.96453 187.775 3.80088 188.648C1.63723 189.522 0.627527 191.085 0.928557 192.654C1.22959 194.224 4.69142 202.836 4.69142 202.836L20.2822 212.875L33.2892 218.519L36.8702 219.386L38.0743 225.746L41.21 230.721L44.6593 232.564L49.6765 237.941L56.0044 240.903L61.6487 240.821L69.1368 242.664L70.9116 242.22L69.789 240.903L66.0889 237.948L62.0877 231.847L60.1624 222.784L59.6167 213.988L59.2969 211.647Z" fill="#43375D"/>
<path d="M46.0765 157.358C44.1951 153.455 29.3756 159.201 25.6567 161.624C16.4502 167.636 5.88281 177.395 8.52309 181.142C11.1634 184.888 15.0893 181.462 18.1309 179.094C21.1726 176.726 35.346 166.169 40.8712 164.517C46.3963 162.866 47.2743 159.842 46.0765 157.358Z" fill="#2A769F"/>
<path d="M40.4825 223.74C40.2944 233.676 52.9564 243.531 61.5546 241.483C62.4389 241.272 62.0626 239.791 61.1783 240.002C53.4519 241.852 41.7368 232.659 41.8936 223.753C41.877 223.562 41.7955 223.385 41.6651 223.256C41.5346 223.126 41.3645 223.055 41.1881 223.055C41.0117 223.055 40.8416 223.126 40.7111 223.256C40.5806 223.385 40.4991 223.562 40.4825 223.753V223.74Z" fill="#18013D"/>
<path d="M48.4346 223.426C50.5293 232.038 55.8788 240.173 64.1132 242.398C65.0414 242.65 71.595 244.971 71.6389 242.036C71.6389 240.412 68.5032 238.972 67.7193 238.249C61.4478 232.339 61.0465 224.484 60.5134 216.062C60.1371 210.132 58.6821 205.409 53.458 202.802C47.9768 200.073 41.4419 199.124 37.4596 193.692C33.2891 188.007 36.7509 181.517 40.2943 176.631C44.0571 171.383 53.364 165.254 52.0971 157.604C51.5327 154.192 48.56 152.049 45.5309 151.68C41.4984 151.196 37.2965 152.547 33.5462 154.048C26.4783 156.887 19.4668 160.327 13.2769 165.036C4.45296 171.744 -3.1543 185.298 1.36114 197.179C5.85776 208.931 19.6173 213.803 29.6955 217.925C31.5116 218.754 33.3663 219.478 35.252 220.096C35.6337 220.168 36.0034 220.302 36.3495 220.491C35.4339 219.809 36.0548 220.491 36.2366 221.283C37.2338 225.835 39.8302 232.202 44.0509 234.086C44.8912 234.454 45.2612 232.973 44.4271 232.605C39.987 230.653 39.1403 224.333 37.3969 220.171C36.7697 218.683 35.8039 218.683 34.3364 218.123C25.8198 214.895 16.8391 211.299 9.43249 205.587C4.72263 201.956 1.36741 196.196 1.47402 189.768C1.58064 182.943 4.82298 175.266 9.28824 170.509C15.5597 163.821 24.2143 159.542 32.3233 156.178C37.1523 154.171 46.5845 150.036 49.9523 156.225C53.5207 162.797 43.5617 169.922 40.0873 174.447C34.8695 181.271 30.9185 189.979 38.2623 196.858C41.9123 200.27 46.6221 201.547 51.0122 203.389C53.6085 204.474 56.1986 205.778 57.5972 208.576C59.1713 211.729 59.0521 215.687 59.234 219.167C59.5915 226.149 60.6702 232.687 65.286 237.901C66.5404 239.376 67.9854 240.645 69.5756 241.668C70.3157 242.118 70.3345 241.954 69.7889 241.906C63.1537 241.381 57.6223 238.706 53.8594 232.598C52.0364 229.676 50.6657 226.448 49.8018 223.044C49.7398 222.863 49.6179 222.714 49.46 222.626C49.3021 222.539 49.1198 222.518 48.9489 222.57C48.778 222.621 48.6311 222.74 48.537 222.904C48.443 223.067 48.4087 223.263 48.4409 223.453L48.4346 223.426Z" fill="#18013D"/>
<path d="M80.1554 130.224C75.9645 130.53 71.8633 131.687 68.0641 133.637C65.104 135.124 67.2237 140.113 70.2403 139.246C72.6372 138.541 75.0735 138.005 77.534 137.642L76.7814 131.616C72.0774 132.824 67.4796 134.477 63.0407 136.557C60.1307 137.922 62.2379 143.457 65.2168 142.167C67.7162 140.999 70.3293 140.142 73.006 139.615L70.8298 134.005L58.2869 140.324L61.1341 145.634C62.2452 144.905 63.402 144.262 64.596 143.709L61.8365 138.536C58.9736 141.047 55.8321 143.157 52.4858 144.815L55.9038 149.64C58.4123 147.067 60.9585 145.088 60.3941 141.048C60.1746 139.444 58.2493 138.455 56.926 138.905C56.3887 139.054 55.8848 139.32 55.4449 139.687C55.0051 140.054 54.6384 140.515 54.3673 141.041C52.398 144.378 57.2835 147.463 59.2402 144.139L59.5537 143.607L57.8667 145.02L58.4249 144.829L54.9568 142.679C54.8878 142.194 52.1409 145.054 51.9088 145.293C49.4442 147.838 52.536 151.51 55.3331 150.118C59.1055 148.205 62.6396 145.779 65.8503 142.897C67.97 141.014 65.6809 136.612 63.1034 137.765C61.4498 138.494 59.8428 139.342 58.2932 140.304C55.101 142.351 57.8981 147.244 61.1404 145.613L73.6833 139.287C76.819 137.704 74.3982 133.186 71.5071 133.671C68.8326 134.199 66.2217 135.055 63.7242 136.223L65.8942 141.839C69.9027 140.012 74.0489 138.564 78.2865 137.513C81.3156 136.748 80.7387 131.036 77.5402 131.48C74.5806 131.882 71.6479 132.49 68.7602 133.302L70.9301 138.919C73.8403 137.454 76.9745 136.589 80.1742 136.366C83.7803 136.1 83.8054 129.951 80.1742 130.224H80.1554Z" fill="#F7A566"/>
<path d="M50.6546 145.764L49.6637 146.501L53.5269 150.698L53.6712 150.363C55.1763 146.828 50.4477 143.703 48.7983 147.265L48.5662 147.756L53.7276 150.138C54.267 147.927 53.1632 146.207 53.3639 144.071C53.5646 141.935 54.5429 139.806 55.1826 137.82C56.2676 134.449 51.6581 132.572 50.0212 135.452C49.1352 137.015 48.4733 138.715 48.0582 140.495L53.5019 142.133C53.5768 141.535 53.7157 140.949 53.9158 140.386L48.7544 138.018C48.0457 140.632 47.4562 143.266 47.7259 146.002C48.1147 149.886 53.759 149.933 53.3702 146.002C53.1507 143.737 53.6147 141.805 54.198 139.649C55.0823 136.407 50.3222 134.025 49.0429 137.288C48.6095 138.315 48.2793 139.39 48.0582 140.495C47.3872 144.33 52.5988 146.009 53.5019 142.133C53.7879 140.86 54.2601 139.646 54.9004 138.536L49.739 136.168C48.9904 138.194 48.3784 140.277 47.9077 142.399C47.7181 143.372 47.6464 144.368 47.6945 145.361C47.7447 146.207 48.4722 147.722 48.284 148.493C47.4813 151.769 51.9654 154.048 53.4454 150.861L53.6712 150.37L48.7983 147.272L48.654 147.606C47.5816 150.118 49.9585 153.748 52.5172 151.81L53.5019 151.073C56.4808 148.848 53.6586 143.525 50.6546 145.77V145.764Z" fill="#F7A566"/>
<path d="M70.7672 131.712L69.7011 131.289V137.213C74.5175 135.274 79.3277 133.329 84.2132 131.616C89.2868 129.842 94.4921 127.911 99.8918 128.204L99.1392 122.171C92.3426 124.144 85.6859 126.648 79.2211 129.665C76.0854 131.111 78.4873 135.848 81.3973 135.274C84.4515 134.681 87.5057 134.237 90.5975 133.95L89.1739 128.232C88.0653 128.86 86.904 129.372 85.7058 129.76L88.8917 134.271L89.3307 133.589L87.6437 134.995L88.3711 134.715C91.7703 133.398 90.309 127.46 86.8723 128.791C85.6789 129.169 84.6601 130.021 84.0188 131.18C82.614 133.411 84.9407 136.435 87.2047 135.691C88.8698 135.144 90.4828 134.424 92.0211 133.541C94.4168 132.176 93.4008 127.556 90.5975 127.815C87.0019 128.147 83.4355 128.664 79.8984 129.364L82.0746 134.974C88.1022 132.213 94.3064 129.932 100.638 128.15C103.805 127.249 102.996 122.294 99.8855 122.117C94.3729 121.803 89.0422 123.564 83.8432 125.345C78.6441 127.126 73.3824 129.242 68.2022 131.33C67.6231 131.528 67.1173 131.922 66.7582 132.455C66.3992 132.988 66.2056 133.631 66.2056 134.292C66.2056 134.952 66.3992 135.596 66.7582 136.128C67.1173 136.661 67.6231 137.055 68.2022 137.253L69.2683 137.677C72.6863 139.041 74.16 133.097 70.7672 131.753V131.712Z" fill="#F7A566"/>
<path d="M96.7872 133.036C101.848 130.033 108.076 131.036 113.62 130.033C116.492 129.508 116.128 124.888 113.62 124.11C109.418 122.822 105.136 121.868 100.807 121.257V127.399C103.671 127.144 106.537 126.917 109.405 126.716C111.97 126.539 115.1 125.809 117.558 126.792C120.976 128.156 122.45 122.226 119.063 120.868C116.367 119.79 113.369 120.308 110.566 120.493C107.317 120.711 104.068 120.966 100.82 121.257C97.1196 121.591 97.2701 126.88 100.82 127.399C104.636 127.98 108.409 128.86 112.108 130.033V124.11C105.887 125.242 99.672 124.321 93.9211 127.733C90.729 129.631 93.5762 134.933 96.7684 133.036H96.7872Z" fill="#F7A566"/>
<path d="M119.333 130.593H119.208V124.669C118.48 124.853 117.326 124.417 116.593 124.348C115.859 124.28 115.2 124.253 114.504 124.253C113.018 124.253 111.538 124.587 110.058 124.519V130.661L109.136 130.409C110.39 131.405 112.272 130.627 112.999 129.31C113.852 127.761 113.206 126.089 111.983 125.106C111.425 124.67 110.743 124.462 110.058 124.519C106.42 124.621 106.433 130.484 110.058 130.661C111.77 130.743 113.476 130.354 115.2 130.402C117.082 130.456 118.869 131.043 120.707 130.593C123.692 129.863 123.065 125.693 120.707 124.669C120.271 124.482 119.8 124.412 119.333 124.464C115.74 124.792 115.708 130.934 119.333 130.606V130.593Z" fill="#F7A566"/>
<path d="M118.493 132.005C120.078 131.803 121.685 131.975 123.203 132.51V126.587C121.949 126.819 120.406 126.246 119.177 126.007L118.424 132.04C120.125 132.144 121.82 132.358 123.498 132.681C124.927 132.961 126.414 133.589 127.888 133.561C128.381 133.56 128.865 133.419 129.293 133.152C129.72 132.885 130.077 132.502 130.327 132.04C131.801 129.016 129.236 124.615 127.104 122.711C124.376 120.281 119.892 120.274 116.586 120.697C113.018 121.155 112.98 127.303 116.586 126.839C118.495 126.525 120.438 126.574 122.331 126.983C122.938 127.055 123.5 127.365 123.912 127.856C124.22 128.281 124.488 128.739 124.714 129.221C124.965 130.327 125.21 130.224 125.454 128.928L127.888 127.406C126.458 127.406 124.802 126.682 123.366 126.45C121.729 126.184 120.092 126 118.443 125.884C115.307 125.659 114.542 131.343 117.69 131.917C120.073 132.374 122.312 132.934 124.727 132.497C127.649 131.971 127.154 127.419 124.727 126.573C122.723 125.867 120.607 125.621 118.512 125.85C114.937 126.252 114.899 132.394 118.512 131.992L118.493 132.005Z" fill="#F7A566"/>
<path d="M131.418 133.377L131.105 131.412C130.823 129.631 128.408 130.17 128.333 131.814C128.295 132.614 128.32 133.415 128.408 134.21L130.816 133.125C129.53 131.915 128.092 130.911 126.546 130.142C126.22 129.949 125.838 129.898 125.479 130.001C125.12 130.104 124.81 130.352 124.614 130.695C124.43 131.048 124.38 131.466 124.475 131.859C124.57 132.251 124.802 132.588 125.122 132.797C126.458 133.434 127.704 134.275 128.822 135.295C129.637 136.052 131.387 135.657 131.23 134.21C131.142 133.415 131.117 132.614 131.155 131.814L128.383 132.224L128.697 134.189C128.796 134.582 129.034 134.916 129.359 135.117C129.684 135.319 130.07 135.372 130.431 135.264C130.792 135.156 131.098 134.897 131.284 134.543C131.469 134.189 131.517 133.77 131.418 133.377V133.377Z" fill="#F7A566"/>
<path d="M125.686 121.926C125.686 121.926 129.223 123.809 129.938 126.375C130.653 128.941 130.753 136.435 130.753 136.435L125.467 133.398L119.672 131.917C119.672 131.917 119.277 123.154 117.621 121.086C115.965 119.019 125.686 121.926 125.686 121.926Z" fill="#3D383C"/>
<path d="M107.906 121.475C107.906 121.475 108.816 128.675 108.709 130.245C108.602 131.814 104.758 131.2 104.758 131.2L95.0936 132.981L93.3125 128.75C93.3125 128.75 92.6478 124.615 93.3125 123.857C93.9773 123.1 97.7026 122.492 97.7026 122.492L107.906 121.475Z" fill="#3D383C"/>
<path d="M79.8981 127.433C79.8981 127.433 79.2709 133.166 79.8981 136.435C76.7623 137.376 67.6311 142.406 67.6311 142.406C66.8587 140.522 66.4204 138.496 66.3392 136.435C66.2765 133.254 67.8757 129.828 67.8757 129.828L79.8981 127.433Z" fill="#3D383C"/>
<path d="M55.8158 143.218C55.8158 143.218 55.4709 146.439 56.6437 148.821C54.6182 149.968 52.7344 151.39 51.037 153.052L47.2741 149.456L46.647 143.935L49.1054 134.919L54.2793 137.786L55.8158 143.218Z" fill="#3D383C"/>
<g opacity="0.49">
<path d="M125.686 121.475C125.686 121.475 127.254 126.621 125.417 128.402C123.579 130.183 118.518 129.358 115.288 128.969C112.058 128.58 98.2989 128.621 95.3639 129.269C92.4289 129.917 75.7343 135.329 72.7867 136.899C69.8391 138.468 68.8043 139.574 67.7696 138.898C66.7348 138.223 67.2992 133.534 67.2992 133.534L48.2905 136.885C47.7877 138.222 47.3563 139.589 46.9985 140.98C46.9985 141.457 47.2368 148.903 47.2368 148.903L50.4917 153.052L60.2877 146.726L70.2405 140.98L80.9772 136.202L105.436 130.818L115.646 131.152L124.369 133.288L130.973 136.878L131.099 131.999L129.819 125.966L127.373 122.738L125.686 121.475Z" fill="#18013D"/>
</g>
<g opacity="0.49">
<path d="M114.881 123.523C107.474 123.523 99.9233 123.775 92.6171 125.12C85.3109 126.464 78.1489 129.631 71.2942 132.702C69.6448 133.445 70.366 136.421 72.0468 135.663C78.6569 132.688 85.5617 129.644 92.6171 128.218C99.8731 126.751 107.48 126.6 114.856 126.594C116.668 126.594 116.674 123.516 114.856 123.523H114.881Z" fill="#73EDFB"/>
</g>
<path d="M125.228 122.206C130.245 124.417 130.873 131.794 130.314 136.885L131.374 136.202C123.328 130.02 112.591 129.863 103.153 130.484C102.25 130.545 102.243 132.081 103.153 132.019C112.378 131.412 122.826 131.5 130.672 137.526C131.161 137.902 131.682 137.376 131.738 136.844C132.365 130.948 131.305 123.195 125.617 120.684C124.77 120.308 124.407 121.796 125.241 122.165L125.228 122.206Z" fill="#18013D"/>
<path d="M80.7638 135.697C73.3552 138.479 66.2657 142.179 59.6353 146.726C57.3587 148.268 55.0508 149.749 52.7367 151.189C52.1095 151.564 51.4824 151.926 50.8552 152.322C50.2281 152.718 51.0685 152.895 50.7047 152.233C50.341 151.571 49.5131 150.868 49.0679 150.118C48.1833 148.529 47.7189 146.706 47.7258 144.849C47.7341 142.249 48.2225 139.678 49.1619 137.288C49.5194 136.394 48.3028 135.609 47.9453 136.516C45.6813 142.256 45.2987 149.838 50.3849 153.926C50.494 153.993 50.6171 154.028 50.7424 154.028C50.8676 154.028 50.9907 153.993 51.0998 153.926C56.5246 150.718 61.548 146.733 67.0105 143.627C71.5657 141.095 76.2887 138.937 81.14 137.172C81.993 136.858 81.6292 135.37 80.7638 135.697Z" fill="#18013D"/>
<path d="M60.9458 187.365L69.0485 179.483L72.2532 187.87L79.1518 178.023L83.9557 187.386L85.9626 180.343L87.4991 168.967V165.131H90.2209L93.9273 163.084L95.6206 170.175L99.0887 177.026L100.788 177.709L102.281 171.157L103.78 170.113L105.423 172.788C105.423 172.788 112.196 194.354 119.126 201.117C126.056 207.88 135.896 214.418 135.896 214.418V212.923L131.87 202.236L141.503 204.665L136.717 194.558L144.08 195.425L137.501 189.174L130.603 180.432L126.056 171.976L122.607 166.121L119.565 162.265L117.094 160.9L114.88 163.104L112.152 165.793L109.242 161.862L106.928 155.29L105.448 147.531L104.419 139.826L103.479 133.186L101.861 129.515H99.7159L96.3795 132.005L93.8709 128.737L90.9923 129.255L87.4677 133.575L85.0783 132.463L82.5321 132.899L81.1085 135.752L80.0047 143.716L79.0201 149.019L73.0246 150.472L68.4778 150.65L66.1699 153.168L65.3107 161.276L63.8369 175.313L60.9458 187.365Z" fill="#F7A566"/>
<path d="M102.181 170.325C102.018 170.556 101.829 170.762 101.616 170.939L102.193 170.461C101.997 170.608 101.786 170.731 101.566 170.83L102.237 170.523L102.149 170.564L105.718 173.525C105.714 173.46 105.714 173.393 105.718 173.328L105.617 174.14C105.634 174.011 105.663 173.886 105.705 173.764L105.423 174.495C105.47 174.375 105.531 174.262 105.605 174.16L105.16 174.781C105.238 174.68 105.326 174.588 105.423 174.508L104.852 174.986L104.928 174.931L101.064 170.727C101.008 170.823 100.951 170.912 100.889 171L101.334 170.379C101.148 170.631 100.938 170.859 100.707 171.062L101.278 170.584L101.196 170.652C100.873 170.835 100.6 171.109 100.406 171.444C100.155 171.737 99.9799 172.098 99.8978 172.488C99.6996 173.273 99.7957 174.111 100.165 174.818C100.534 175.526 101.146 176.045 101.867 176.262C102.229 176.378 102.61 176.411 102.985 176.358C103.36 176.305 103.72 176.168 104.043 175.955C104.42 175.666 104.775 175.344 105.103 174.993C105.411 174.621 105.692 174.224 105.943 173.805L106.226 173.068C106.345 172.674 106.363 172.251 106.276 171.847C106.214 171.178 105.942 170.554 105.504 170.079C105.142 169.724 104.714 169.457 104.25 169.294C103.887 169.184 103.507 169.154 103.133 169.207C102.76 169.26 102.399 169.394 102.074 169.601C101.464 170.014 100.961 170.587 100.61 171.269C100.259 171.95 100.072 172.717 100.067 173.498C100.068 173.967 100.17 174.428 100.363 174.846C100.557 175.265 100.838 175.628 101.183 175.907C101.521 176.21 101.921 176.419 102.35 176.516C102.778 176.612 103.222 176.593 103.642 176.46C104.614 176.113 105.481 175.486 106.15 174.645C106.421 174.376 106.622 174.034 106.734 173.655C106.909 173.292 106.993 172.884 106.978 172.474C106.971 171.66 106.675 170.879 106.15 170.297C105.619 169.726 104.903 169.405 104.156 169.403C103.784 169.397 103.415 169.474 103.072 169.627C102.728 169.781 102.416 170.009 102.156 170.297L102.181 170.325Z" fill="#F7A566"/>
<path d="M84.3887 187.365L79.3715 178.494L72.5858 187.365L68.685 179.258L60.4819 187.365L63.9689 174.706L65.1353 165.206L65.2231 159.01C68.6319 159.233 72.0526 159.079 75.4331 158.553C80.7136 157.679 83.1218 156.614 84.5956 156.444C86.0694 156.273 86.5962 157.167 86.5962 157.167L87.8505 166.681L86.9223 174.249L84.3887 187.365Z" fill="#3D383C"/>
<path d="M136.047 213.305L126.683 207.764L118.963 201.356L112.692 191.678C112.692 191.678 119.177 189.283 122.977 186.669C126.778 184.056 129.744 179.081 129.744 179.081L134.899 186.99L140.054 191.767L143.673 195.084L136.862 194.326L138.743 198.817L141.252 204.147L131.638 201.342L136.047 213.305Z" fill="#3D383C"/>
<path d="M122.92 167.506C121.255 169.773 119.236 171.704 116.956 173.212C113.112 175.784 107.185 177.627 107.185 177.627L105.881 174.092L104.507 176.139L100.606 177.374L102.488 170.584L109.01 167.486L114.849 162.825L117.213 160.777L119.615 162.313L122.92 167.506Z" fill="#3D383C"/>
<path d="M96.3547 144.856C96.3547 144.856 91.7891 146.944 88.9042 147.163C86.0194 147.381 88.9042 148.862 88.9042 148.862L90.0645 152.445L92.4978 158.416L94.7116 161.303L96.8313 161.624L97.7219 160.259L97.9916 154.799L96.3547 144.856Z" fill="#3D383C"/>
<path d="M103.955 138.714C103.955 138.714 100.293 137.731 97.9912 139.069L98.3048 140.27C97.6318 140.171 96.9473 140.312 96.3544 140.673C95.351 141.28 96.9126 146.289 96.9126 146.289L97.6714 155.004L97.5083 159.842C98.5996 159.135 99.8445 158.759 101.114 158.75C103.234 158.75 103.999 157.659 104.959 157.386C105.815 157.245 106.686 157.245 107.543 157.386L105.561 151.639L104.934 143.73L103.955 138.714Z" fill="#3D383C"/>
<g opacity="0.49">
<path d="M92.9243 129.132C91.8418 129.393 90.8356 129.942 89.9955 130.729C89.5142 131.196 89.0924 131.731 88.7413 132.319C88.5092 132.708 88.0326 134.251 87.7378 134.367C86.9727 134.599 85.8564 133.207 85.1038 132.92C84.5838 132.695 84.0237 132.601 83.4655 132.644C82.9073 132.688 82.3654 132.869 81.8803 133.172C80.2811 134.114 81.7047 136.762 83.3039 135.827C84.2133 135.288 85.8125 137.062 86.6278 137.41C86.9983 137.611 87.4048 137.722 87.8187 137.734C88.2326 137.745 88.6438 137.658 89.0235 137.479C89.7572 137.015 90.121 135.998 90.5035 135.24C91.2812 133.677 91.9836 132.565 93.6393 132.121C95.4078 131.651 94.6615 128.709 92.893 129.16L92.9243 129.132Z" fill="#73EDFB"/>
</g>
<g opacity="0.49">
<path d="M99.3271 134.906C99.5968 134.558 99.8665 134.223 100.155 133.882C100.268 133.753 100.387 133.63 100.506 133.507C100.832 133.179 100.331 133.616 100.669 133.357C101.123 133.033 101.626 132.802 102.156 132.674C103.874 132.06 103.14 129.098 101.409 129.712C100.646 129.941 99.9175 130.288 99.2456 130.743C98.5246 131.327 97.881 132.015 97.3328 132.79C97.076 133.082 96.9326 133.471 96.9326 133.875C96.9326 134.28 97.076 134.668 97.3328 134.96C97.5982 135.246 97.9565 135.407 98.33 135.407C98.7034 135.407 99.0617 135.246 99.3271 134.96V134.906Z" fill="#73EDFB"/>
</g>
<g opacity="0.49">
<path d="M116.731 161.378C113.685 165.046 109.82 167.797 105.511 169.363C103.793 169.99 104.533 172.959 106.257 172.324C111.038 170.614 115.332 167.592 118.725 163.548C119.948 162.094 117.96 159.917 116.731 161.378V161.378Z" fill="#73EDFB"/>
</g>
<g opacity="0.49">
<path d="M84.0375 147.408C78.6166 149.794 72.8491 151.111 67.0043 151.298C65.1918 151.36 65.1855 154.431 67.0043 154.369C73.1027 154.183 79.1232 152.829 84.7901 150.37C86.4583 149.647 85.7308 146.678 84.0375 147.408V147.408Z" fill="#73EDFB"/>
</g>
<g opacity="0.49">
<path d="M86.5838 146.289L85.4424 149.305L86.0131 156.894L87.4681 165.111L90.6289 164.544L95.9094 162.238L94.191 160.743L91.9145 157.59L89.8826 151.871L88.2771 147.886L86.5838 146.289Z" fill="#18013D"/>
</g>
<g opacity="0.49">
<path d="M96.3544 133.411C96.3544 133.411 99.7661 156.075 101.372 161.132C102.977 166.189 104.463 169.67 104.463 169.67L105.611 173.853L103.93 176.16L100.412 177.914L98.3049 176.549L94.542 166.189L94.1406 162.948L97.2074 161.057L97.9662 157.577L97.2074 149.305L95.6207 141.328L94.2222 134.919L96.3544 133.411Z" fill="#18013D"/>
</g>
<g opacity="0.49">
<path d="M97.7031 137.574C99.1456 143.534 100.782 149.431 102.614 155.263C102.908 156.198 104.269 155.795 103.975 154.861C102.143 149.019 100.515 143.122 99.0891 137.172C99.0272 136.991 98.9052 136.842 98.7474 136.754C98.5895 136.666 98.4071 136.646 98.2362 136.698C98.0654 136.749 97.9184 136.868 97.8244 137.032C97.7303 137.195 97.696 137.391 97.7282 137.581L97.7031 137.574Z" fill="#18013D"/>
</g>
<g opacity="0.49">
<path d="M88.9794 142.85C88.5378 141.594 88.3248 140.256 88.3522 138.912C88.3476 138.729 88.2834 138.554 88.1711 138.418C88.0588 138.282 87.9057 138.193 87.7392 138.169C87.5726 138.144 87.4034 138.185 87.2618 138.283C87.1203 138.382 87.0155 138.532 86.9663 138.707L86.3391 141.601C86.2011 142.222 86.0005 142.856 86.59 143.266C87.3614 143.798 88.07 142.467 87.3049 141.942L87.2422 141.894L87.5934 142.577C87.646 142.005 87.764 141.444 87.9446 140.905L88.3272 139.137L86.9412 138.932C86.9126 140.417 87.1512 141.894 87.6436 143.279C87.9697 144.194 89.3369 143.791 89.0045 142.87L88.9794 142.85Z" fill="#18013D"/>
</g>
<path d="M103.422 170.994C108.1 169.753 112.353 167.079 115.677 163.289C116.962 161.883 117.138 161.139 119.214 162.934C119.791 163.5 120.318 164.124 120.788 164.797C122.278 166.788 123.618 168.905 124.795 171.13C128.151 177.211 130.979 183.005 135.551 188.15C138.081 191.017 140.807 193.673 143.704 196.094L144.061 194.661L136.717 193.815C136.147 193.746 135.883 194.497 136.09 194.975L140.894 205.075L141.691 203.949L131.769 200.728C131.293 200.571 130.691 201.117 130.897 201.67L135.62 214.213L136.661 213.346C130.753 210.043 124.551 206.112 119.897 200.912C114.629 195.036 110.685 186.676 108.038 179.04C107.104 176.344 106.878 172.277 104.714 170.304C103.504 169.192 102.375 169.274 101.673 170.782C100.851 172.543 101.234 179.442 98.7814 175.279C96.7144 171.772 95.3866 167.81 94.8931 163.678C94.8053 162.702 93.3879 162.695 93.482 163.678C93.9352 167.363 94.9975 170.928 96.6177 174.201C97.2449 175.518 98.6371 178.937 100.45 178.732C102.431 178.507 102.387 174.795 102.607 173.341C102.795 172.147 102.607 170.564 104.401 172.29C105.241 173.096 105.504 175.293 105.812 176.446C106.171 177.849 106.601 179.23 107.097 180.582C109.919 188.089 113.651 196.149 118.906 202.018C123.648 207.306 129.957 211.34 135.959 214.697C136.441 214.964 137.25 214.499 136.993 213.831L132.271 201.281L131.405 202.229L141.321 205.416C141.455 205.451 141.596 205.443 141.726 205.393C141.856 205.343 141.97 205.253 142.055 205.134C142.139 205.015 142.19 204.872 142.201 204.722C142.212 204.572 142.183 204.422 142.117 204.29L137.345 194.169L136.717 195.323L144.08 196.196C144.864 196.285 144.92 195.166 144.438 194.763C140.924 191.836 137.677 188.547 134.742 184.943C130.076 179.244 127.542 172.249 123.491 166.1C122.168 164.094 119.251 158.996 116.592 160.272C115.288 160.893 114.034 163.002 112.961 164.033C110.141 166.733 106.739 168.611 103.071 169.492C102.187 169.717 102.557 171.198 103.441 170.973L103.422 170.994Z" fill="#18013D"/>
<path d="M84.9403 188.055C86.5114 182.283 87.5513 176.355 88.0447 170.359C88.3048 165.899 88.0478 161.421 87.2796 157.031C86.9409 154.833 86.4768 152.629 86.2887 150.411C86.1695 149.046 86.1946 146.234 87.5994 148.132C89.0042 150.029 89.4809 153.045 90.3275 155.209C91.1741 157.372 92.0271 159.767 93.62 161.351C94.4666 162.19 96.0596 163.077 97.1885 162.292C98.5243 161.364 98.3738 158.389 98.4427 156.928C98.4962 151.32 97.8184 145.732 96.4296 140.331C95.8965 138.12 95.2694 135.95 94.7363 133.739C94.5858 133.118 93.9398 131.459 94.197 130.9C94.5294 130.163 95.9216 130.995 96.1599 131.951C96.209 132.147 96.3278 132.314 96.4901 132.415C96.6524 132.517 96.8449 132.543 97.0254 132.49C97.2059 132.437 97.3594 132.307 97.4524 132.131C97.5453 131.954 97.5699 131.745 97.5208 131.548C97.1195 129.924 95.5767 127.713 93.758 128.668C92.165 129.508 92.8737 131.992 93.1873 133.445C94.4917 139.349 96.2791 144.992 96.8122 151.087C97.0482 153.453 97.0965 155.836 96.9564 158.211C96.8122 160.259 96.3293 161.999 94.4478 160.122C92.3594 158.027 91.4501 154.253 90.4467 151.482C89.8571 149.851 89.1924 146.944 87.7625 145.927C82.8394 142.515 86.0316 158.259 86.1633 159.187C87.5053 168.776 86.0253 178.425 83.5606 187.673C83.5284 187.862 83.5627 188.058 83.6568 188.222C83.7508 188.385 83.8978 188.504 84.0686 188.556C84.2395 188.607 84.4219 188.587 84.5798 188.499C84.7376 188.412 84.8596 188.263 84.9215 188.082L84.9403 188.055Z" fill="#18013D"/>
<path d="M86.3954 145.552C81.4347 147.565 76.3611 149.374 71.0868 149.892C68.0138 150.193 65.731 151.066 65.0788 154.574C63.9123 160.846 64.5959 167.404 63.4357 173.737C62.5695 178.48 61.3552 183.14 59.8045 187.673C59.5411 188.423 60.5069 188.915 60.9835 188.416L69.3873 179.62L68.2082 179.278L71.576 188.082C71.6168 188.223 71.6939 188.349 71.7982 188.445C71.9025 188.54 72.0297 188.601 72.1648 188.62C72.2999 188.64 72.4373 188.617 72.5607 188.554C72.6842 188.491 72.7886 188.391 72.8616 188.266L79.7602 178.419H78.5436L83.3475 187.782C83.7865 188.642 85.0094 187.87 84.5642 187.004L79.7602 177.641C79.6951 177.529 79.6052 177.438 79.4988 177.374C79.3925 177.311 79.2732 177.277 79.1519 177.277C79.0306 177.277 78.9113 177.311 78.805 177.374C78.6986 177.438 78.6087 177.529 78.5436 177.641L71.645 187.488L72.9369 187.673L69.5691 178.876C69.5343 178.748 69.4698 178.632 69.382 178.539C69.2942 178.446 69.1859 178.38 69.0675 178.345C68.9492 178.311 68.8247 178.311 68.7061 178.344C68.5875 178.377 68.4787 178.443 68.3901 178.535L59.9864 187.331L61.1654 188.082C64.5582 178.262 65.5993 168.475 66.1825 158.089C66.2766 156.348 66.1825 153.857 67.4745 152.574C68.8793 151.175 71.5384 151.482 73.3132 151.209C77.9164 150.568 82.4569 148.787 86.7905 147.033C87.6372 146.692 87.2671 145.204 86.4142 145.552H86.3954Z" fill="#18013D"/>
<path d="M96.0034 161.057C94.9498 161.665 93.8774 162.224 92.7924 162.75C91.4441 163.432 89.1926 164.756 87.6498 164.34C87.4765 164.308 87.2986 164.348 87.1506 164.451C87.0026 164.554 86.8952 164.713 86.849 164.898C86.8029 165.083 86.8215 165.279 86.9011 165.45C86.9807 165.62 87.1157 165.752 87.2798 165.821C88.9919 166.285 91.0427 165.227 92.5541 164.524C93.9652 163.882 95.3574 163.159 96.7121 162.381C97.5148 161.917 96.8061 160.586 96.0034 161.057Z" fill="#18013D"/>
<path d="M96.0909 129.153C92.4032 125.782 88.6341 130.149 86.853 133.534L87.8188 133.261C79.3586 126.682 79.459 142.631 78.7001 147.92C78.5559 148.882 79.9168 149.285 80.061 148.323C80.4875 145.375 80.9265 142.426 81.2589 139.451C81.339 138.129 81.5493 136.82 81.886 135.547C82.9146 132.367 84.9151 132.879 87.0976 134.578C87.2599 134.68 87.4526 134.708 87.6336 134.655C87.8145 134.603 87.9691 134.475 88.0634 134.298C89.2675 132.005 92.2276 127.624 95.0812 130.204C95.771 130.838 96.7744 129.753 96.0783 129.119L96.0909 129.153Z" fill="#18013D"/>
<path d="M112.064 165.22C109.518 162.265 108.239 157.713 107.329 153.926C105.881 147.865 105.448 141.58 104.589 135.404C104.3 133.309 103.767 128.709 101.278 128.491C98.932 128.286 95.7399 132.483 94.2096 134.073C93.5825 134.756 94.5546 135.848 95.2068 135.158C96.1412 134.189 97.0882 133.241 98.0854 132.333C98.7125 131.746 99.6156 130.572 100.456 130.381C101.93 130.04 102.199 131.405 102.601 132.742C103.479 135.663 103.585 138.884 103.968 141.887C104.965 149.756 105.749 160.136 111.067 166.305C111.694 167.029 112.685 165.943 112.064 165.22V165.22Z" fill="#18013D"/>
<path d="M95.3262 131.767L95.3763 131.705L95.0628 131.903H95.138H94.7617C94.9566 132.065 95.1064 132.282 95.1945 132.531L95.4014 131.985L95.3512 132.033L95.853 131.808C96.0035 131.808 95.9157 131.808 95.853 131.705C95.7902 131.603 95.7401 131.555 95.6836 131.466C95.6272 131.378 95.414 131.091 95.414 130.941L95.3199 131.33L95.3575 131.248L94.9373 131.603H95.0063L94.4607 131.528L94.5297 131.576L94.2788 131.303C94.4093 131.564 94.4828 131.854 94.4937 132.151C94.5046 132.448 94.4525 132.744 94.3415 133.015L95.3763 132.558L95.2948 132.497L95.5457 132.77C95.4199 132.471 95.3252 132.157 95.2634 131.835L94.9499 130.763L93.589 131.166C93.7408 131.52 93.8056 131.91 93.7771 132.299L95.0628 132.115L94.9561 131.958C94.8575 131.787 94.7025 131.663 94.523 131.613C94.3435 131.562 94.153 131.588 93.9903 131.685C93.8296 131.788 93.7131 131.957 93.6661 132.154C93.6191 132.351 93.6455 132.56 93.7395 132.736L93.8461 132.893C93.9184 133.021 94.0231 133.124 94.1476 133.189C94.2721 133.254 94.4113 133.279 94.5485 133.261C94.6862 133.243 94.8158 133.181 94.9209 133.083C95.0259 132.984 95.1015 132.854 95.138 132.708C95.2396 132.054 95.1746 131.381 94.9499 130.763C94.8959 130.57 94.7762 130.407 94.6154 130.307C94.4545 130.207 94.2646 130.177 94.0844 130.224C93.9054 130.28 93.7534 130.41 93.6609 130.586C93.5684 130.762 93.5425 130.97 93.589 131.166L94.0217 132.654C94.0867 133.133 94.3097 133.569 94.6488 133.882C94.7422 133.941 94.8465 133.975 94.9539 133.983C95.0613 133.991 95.169 133.972 95.2687 133.928C95.3684 133.884 95.4576 133.816 95.5295 133.729C95.6014 133.641 95.6541 133.538 95.6836 133.425C95.8698 132.861 95.9237 132.256 95.8404 131.664C95.8296 131.391 95.7686 131.122 95.6609 130.875C95.5531 130.628 95.401 130.406 95.2133 130.224C95.093 130.149 94.9567 130.108 94.8178 130.107C94.6789 130.106 94.5421 130.144 94.4208 130.217C94.2994 130.291 94.1977 130.398 94.1256 130.527C94.0534 130.656 94.0133 130.803 94.0091 130.954C94.0612 131.526 94.2811 132.065 94.6363 132.49C94.7652 132.723 94.9402 132.921 95.1485 133.071C95.3568 133.221 95.5931 133.319 95.8404 133.357C95.9745 133.353 96.1056 133.313 96.222 133.241C96.3385 133.169 96.4365 133.066 96.5074 132.942C96.5783 132.818 96.6198 132.677 96.6282 132.532C96.6366 132.386 96.6115 132.24 96.5554 132.108C96.3045 131.309 95.2007 129.685 94.3541 130.743C93.7269 131.473 94.7429 132.565 95.3512 131.828L95.3262 131.767Z" fill="#18013D"/>
<path d="M86.8596 141.321L87.7564 136.967H87.2108L88.8727 142.802C88.9793 143.177 89.4998 143.02 89.4183 142.638L87.7564 136.803C87.7404 136.738 87.705 136.68 87.6557 136.638C87.6063 136.597 87.5458 136.575 87.4836 136.575C87.4213 136.575 87.3608 136.597 87.3114 136.638C87.2621 136.68 87.2267 136.738 87.2108 136.803L86.3139 141.157C86.2324 141.539 86.778 141.71 86.8596 141.321Z" fill="#18013D"/>
<path d="M96.8813 135.807C98.5683 142.631 100.017 149.995 102.896 156.348C103.052 156.703 103.523 156.396 103.379 156.041C100.531 149.742 99.0951 142.392 97.4269 135.643C97.4069 135.564 97.3591 135.497 97.2938 135.457C97.2285 135.417 97.1512 135.406 97.0788 135.428C97.0065 135.45 96.945 135.502 96.908 135.573C96.8709 135.644 96.8613 135.728 96.8813 135.807V135.807Z" fill="#18013D"/>
<path d="M105.028 174.303C103.874 176.098 102.563 176.624 100.638 176.863C99.7474 176.972 99.7349 178.507 100.638 178.398C101.766 178.331 102.874 178.05 103.912 177.566C104.875 176.963 105.684 176.106 106.263 175.075C106.784 174.262 105.561 173.498 105.047 174.303H105.028Z" fill="#18013D"/>
<path d="M118.53 67.2755C118.53 67.2755 129.098 81.9071 129.738 94.9759C130.377 108.045 125.429 121.475 125.429 121.475C113.153 120.457 100.807 121.544 88.8414 124.696C69.7825 129.924 66.7409 134.107 66.7409 134.107C66.7409 134.107 64.9033 143.082 61.2157 143.607C57.5281 144.132 58.2556 136.284 58.2556 136.284C58.2556 136.284 57.0703 144.897 52.7994 145.422C48.5286 145.948 50.3975 137.492 50.3975 137.492C50.3975 137.492 38.9458 130.873 38.1493 112.399C37.3529 93.925 39.2657 87.2234 39.2657 87.2234C39.2657 87.2234 29.5825 90.97 28.3032 87.2234C27.0238 83.4767 35.7474 82.1733 35.7474 82.1733L42.4704 79.7301C42.4704 79.7301 24.1389 87.4827 22.615 81.4772C21.091 75.4717 34.2234 80.1123 42.0564 72.8511C49.8895 65.5898 51.7458 61.5225 56.3114 59.8846C60.8771 58.2467 75.4456 51.2585 92.8991 53.7835C110.352 56.3086 113.476 54.5683 118.838 49.8663C124.2 45.1643 125.561 45.5942 126.84 46.8158C128.119 48.0373 127.643 52.1252 125.962 53.961C124.281 55.7968 126.74 52.8008 127.574 53.5242C129.041 54.8004 132.058 58.0352 124.281 63.4538C121.497 65.3919 120.079 66.3201 118.518 67.2891" fill="#71578D"/>
<path d="M118.029 67.8146C123.717 75.7515 128.815 85.9881 129.079 96.2248C129.261 103.507 127.9 110.856 125.868 117.77C125.553 118.949 125.178 120.109 124.745 121.243C125.372 119.756 125.611 121.168 124.864 120.663C124.346 120.525 123.809 120.484 123.278 120.54C111.64 119.76 99.9605 120.91 88.6406 123.953C83.182 125.339 77.8342 127.199 72.6484 129.515C70.7294 130.409 68.4403 131.378 66.8662 132.927C65.7059 134.073 65.6809 135.581 65.1227 137.199C64.4956 139.028 61.3222 145.839 59.4031 141.437C58.776 139.935 58.8136 137.902 58.9453 136.264C59.0206 135.411 57.691 135.206 57.5656 136.059C57.1768 138.687 56.3113 142.713 54.016 144.126C50.0712 146.589 50.5855 140.031 51.0747 137.69C51.1147 137.528 51.1052 137.355 51.0476 137.199C50.9899 137.043 50.8872 136.911 50.7548 136.824C43.8562 132.777 40.0557 123.55 39.115 115.538C38.3834 108.422 38.3476 101.241 39.0084 94.1161C39.1112 91.8554 39.4264 89.6121 39.9491 87.4213C39.9806 87.291 39.9801 87.154 39.9478 87.0239C39.9154 86.8939 39.8524 86.7753 39.7648 86.6801C39.6773 86.5848 39.5683 86.5162 39.4488 86.481C39.3293 86.4458 39.2034 86.4453 39.0837 86.4795C37.3583 87.1499 35.5772 87.6367 33.7655 87.9331C32.599 88.1174 28.1212 88.7111 29.0494 85.8858C29.4758 84.6164 31.7837 84.0022 32.8122 83.6746C36.111 82.6169 39.3972 81.6819 42.6835 80.4876L42.3072 79.0067C40.0132 79.9643 37.675 80.7912 35.302 81.484C32.5927 82.2893 26.522 84.5755 24.0134 82.2825C21.6804 80.1601 24.9917 78.9931 26.5596 78.7133C28.8424 78.3038 31.1628 78.181 33.4582 77.7169C39.3157 76.5294 43.1664 73.1582 47.3682 68.7291C50.6106 65.3169 53.2885 61.9046 57.622 60.2258C61.819 58.5024 66.1082 57.0575 70.466 55.8991C77.4568 54.1022 84.6751 53.5947 91.8202 54.3977C97.4645 55.0802 103.209 56.1789 108.904 55.5442C112.011 55.2285 114.982 54.0099 117.508 52.016C119.527 50.4327 121.346 48.399 123.629 47.2389C127.988 45.0892 127.122 51.8249 124.971 53.9814L125.975 55.0665C127.981 52.8964 129.154 56.4314 128.402 58.2672C126.796 62.1503 121.503 64.5593 118.242 66.593C118.099 66.7054 117.999 66.8718 117.963 67.0598C117.926 67.2477 117.956 67.4437 118.045 67.6093C118.135 67.7749 118.278 67.8982 118.446 67.9551C118.615 68.012 118.797 67.9984 118.957 67.917C122.406 65.7673 130.954 61.775 130.126 56.1789C129.675 53.1011 127.091 51.6952 124.971 53.9814C124.344 54.6639 125.303 55.7353 125.975 55.0665C128.151 52.8827 130.101 46.3449 125.862 45.2803C122.099 44.3317 118.298 49.7571 115.407 51.668C111.375 54.3363 106.627 54.3158 102.03 54.0087C93.4445 53.456 85.2917 51.8659 76.681 53.0943C70.467 54.0869 64.3694 55.8052 58.4938 58.2194C54.1853 59.9119 51.4008 62.1435 48.1396 65.6854C45.5307 68.5107 42.8591 71.7046 39.6732 73.7587C36.4873 75.8129 32.5237 76.3861 28.8487 76.8502C26.4404 77.1573 21.3229 77.2255 21.8623 81.2042C22.9159 88.9022 39.1401 81.9617 42.6772 80.474C43.505 80.1259 43.1789 78.6723 42.3009 78.9931C40.0181 79.8188 37.729 80.8425 35.4023 81.4635C33.0756 82.0845 29.4884 82.4258 27.9895 84.8758C26.4906 87.3257 28.6166 89.2366 30.7238 89.5505C33.5836 89.9736 36.8009 88.95 39.5039 87.9331L38.6384 86.9845C37.6475 90.5264 37.5472 94.5323 37.3841 98.1834C37.0141 107.485 36.757 117.565 40.5198 126.164C42.2382 130.122 45.4743 135.718 49.3563 137.629C49.6887 137.793 50.2531 138.516 49.9082 137.704C49.5632 136.892 49.488 138.884 49.4315 139.458C49.2497 141.369 49.1242 144.235 50.7297 145.545C55.2326 149.319 58.4436 139.738 58.9516 136.489L57.5656 136.284C57.321 139.212 57.7663 145.6 61.9117 144.221C64.1318 143.491 65.3673 140.679 66.1826 138.55C66.609 137.424 66.9163 136.257 67.2613 135.097C67.4933 134.298 67.3114 134.599 67.3491 134.544C69.2305 131.944 73.8651 130.572 76.4803 129.535C86.2464 125.657 96.4474 123.227 106.809 122.308C113.007 121.673 119.246 121.653 125.448 122.246C125.601 122.243 125.75 122.186 125.872 122.084C125.994 121.982 126.082 121.841 126.125 121.68C129.581 112.228 131.857 100.524 129.888 90.4513C128.232 81.9071 123.961 73.5949 119.045 66.7432C118.486 65.9652 117.496 67.0571 118.047 67.8283L118.029 67.8146Z" fill="#18013D"/>
<path d="M124.952 53.9678C121.369 57.3447 117.104 59.7532 112.504 60.997C112.337 61.0644 112.201 61.1971 112.12 61.3689C112.039 61.5407 112.021 61.7391 112.068 61.9251C112.115 62.111 112.225 62.2709 112.375 62.3732C112.525 62.4756 112.706 62.5129 112.88 62.4779C117.713 61.1562 122.19 58.6123 125.95 55.0529C126.639 54.4114 125.636 53.3263 124.952 53.9678Z" fill="#18013D"/>
<path d="M76.3486 51.7635L76.5681 55.8582L77.9541 55.6534L77.0949 51.5997C77.0498 51.4211 76.9467 51.2664 76.8046 51.1643C76.6626 51.0622 76.4913 51.0198 76.3227 51.0448C76.154 51.0698 75.9995 51.1606 75.8877 51.3004C75.776 51.4401 75.7147 51.6192 75.7152 51.8044L75.9849 56.4314L77.3709 56.2267L75.364 50.0847C75.3032 49.9013 75.1809 49.7499 75.0216 49.6607C74.8624 49.5715 74.678 49.5513 74.5056 49.604C74.3332 49.6567 74.1855 49.7786 74.0923 49.945C73.9991 50.1114 73.9672 50.31 74.0031 50.501L75.132 56.7931L75.9974 55.8513C75.7716 55.7831 75.2637 53.804 75.1633 53.4901L74.2665 50.965C73.9466 50.0642 72.661 50.3986 72.9056 51.3745C73.3446 53.1534 73.8442 54.9187 74.4045 56.6703L75.6588 56.0834C74.9814 54.4091 74.2477 52.7667 73.4575 51.1561C73.3668 51.005 73.2304 50.8932 73.0719 50.8403C72.9133 50.7874 72.7428 50.7966 72.5899 50.8664C72.4369 50.9363 72.3114 51.0622 72.235 51.2224C72.1586 51.3825 72.1363 51.5668 72.1718 51.743L73.8275 57.032C74.116 57.9601 75.4769 57.5643 75.1884 56.6225C74.361 53.5862 73.1964 50.6711 71.7203 47.9418C71.3064 47.2593 70.1524 47.6756 70.4284 48.5355C71.3252 51.2653 72.2534 53.9951 73.8651 56.3563C73.9471 56.496 74.0679 56.6036 74.21 56.6633C74.3521 56.7231 74.508 56.7319 74.655 56.6885C74.802 56.6451 74.9324 56.5517 75.0272 56.422C75.122 56.2923 75.1763 56.133 75.1821 55.9674C75.1241 53.4327 74.7979 50.9138 74.2101 48.4605L72.8491 48.8699C73.4324 50.8149 74.0031 52.7599 74.6052 54.698C74.8309 55.4487 75.1006 56.4587 76.01 56.329C76.1952 56.3255 76.372 56.2439 76.5031 56.1013C76.6341 55.9587 76.7091 55.7663 76.7124 55.5647C76.5933 53.1578 76.3167 50.7631 75.8845 48.399L74.5926 48.9859C75.5772 51.238 75.9033 53.8927 76.4239 56.3086C76.4731 56.4835 76.5779 56.6336 76.7195 56.7322C76.861 56.8308 77.0302 56.8714 77.1968 56.8468C77.3633 56.8222 77.5164 56.734 77.6287 56.5979C77.7411 56.4618 77.8052 56.2867 77.8099 56.1038C77.7696 53.1325 77.537 50.1678 77.1137 47.232L75.8218 47.8258C77.1576 50.0915 77.1702 53.0328 77.3959 55.6398C77.4837 56.602 78.8133 56.643 78.807 55.6398C78.807 52.9919 78.7213 50.3508 78.5499 47.7166H77.1388C77.4209 50.3092 77.5153 52.9219 77.421 55.5306H78.8321C78.8885 53.5788 78.9011 51.627 78.8823 49.6752L77.4963 49.8799L77.766 51.1834C77.9416 52.0911 79.0767 51.784 79.1519 50.9787C79.2083 50.3528 79.2209 49.7231 79.1896 49.0951H77.766C77.95 51.2091 77.9898 53.3351 77.8851 55.4555H79.2962C79.2144 54.7769 79.1829 54.0923 79.2021 53.4082C79.1855 53.2171 79.104 53.0395 78.9736 52.9103C78.8431 52.7811 78.673 52.7095 78.4966 52.7095C78.3202 52.7095 78.1501 52.7811 78.0196 52.9103C77.8891 53.0395 77.8076 53.2171 77.791 53.4082C77.7718 54.0923 77.8033 54.7769 77.8851 55.4555C77.9017 55.6466 77.9832 55.8242 78.1137 55.9534C78.2441 56.0826 78.4142 56.1542 78.5907 56.1542C78.7671 56.1542 78.9372 56.0826 79.0676 55.9534C79.1981 55.8242 79.2796 55.6466 79.2962 55.4555C79.4009 53.3351 79.361 51.2091 79.177 49.0951C79.0955 48.1261 77.7158 48.0919 77.766 49.0951C77.7973 49.7231 77.7847 50.3528 77.7283 50.9787L79.1143 50.7739L78.8509 49.4705C78.8017 49.2956 78.6969 49.1454 78.5553 49.0468C78.4137 48.9482 78.2446 48.9076 78.078 48.9322C77.9114 48.9568 77.7583 49.0451 77.646 49.1812C77.5337 49.3173 77.4695 49.4924 77.4649 49.6752C77.4649 51.627 77.4649 53.5788 77.4148 55.5306C77.4148 56.5201 78.7945 56.5133 78.8258 55.5306C78.9201 52.9219 78.8257 50.3092 78.5436 47.7166C78.4433 46.7543 77.0761 46.7134 77.1325 47.7166C77.2956 50.3508 77.3813 52.9919 77.3897 55.6398H78.8007C78.5562 52.7667 78.5123 49.5524 77.0322 47.0546C76.9351 46.9234 76.8012 46.8304 76.651 46.7898C76.5008 46.7492 76.3425 46.7632 76.2003 46.8298C76.058 46.8963 75.9398 47.0117 75.8635 47.1583C75.7872 47.3049 75.7572 47.4746 75.7779 47.6415C76.1686 50.4406 76.3781 53.266 76.4051 56.097L77.791 55.8923C77.2329 53.3263 76.8629 50.6033 75.8155 48.2079C75.4581 47.3822 74.3794 47.9896 74.5613 48.7948C74.9779 51.0278 75.2483 53.2901 75.3703 55.5647L76.0789 54.7935C76.0789 54.7935 74.4296 48.9655 74.279 48.4605C74.2171 48.2797 74.0952 48.1308 73.9373 48.0431C73.7794 47.9553 73.597 47.9352 73.4262 47.9866C73.2553 48.038 73.1084 48.1572 73.0143 48.3208C72.9203 48.4843 72.8859 48.6802 72.9181 48.8699C73.4634 51.1884 73.7601 53.5678 73.8024 55.9605L75.1194 55.5715C73.5766 53.3195 72.6798 50.7466 71.8206 48.1192L70.5287 48.713C71.9471 51.325 73.0655 54.1166 73.8588 57.0251L75.2198 56.6157L73.5641 51.3199L72.2722 51.9068C73.0624 53.5242 73.7961 55.1621 74.4735 56.8341C74.7933 57.6257 76.0225 57.0661 75.7654 56.2472C75.2072 54.4933 74.7055 52.7326 74.2665 50.9446L72.9056 51.354C73.4261 52.8213 73.9466 54.3022 74.4735 55.7694C74.7369 56.4928 74.8811 57.1343 75.6211 57.3118C75.7427 57.3482 75.8709 57.3492 75.993 57.3148C76.1151 57.2805 76.2267 57.2119 76.3168 57.1159C76.407 57.0199 76.4724 56.8999 76.5065 56.7678C76.5407 56.6357 76.5425 56.4962 76.5117 56.3632L75.3828 50.0778L74.0031 50.501L76.01 56.643C76.2608 57.4073 77.4524 57.3595 77.3959 56.4382L77.1388 51.784L75.7528 51.9887L76.6057 56.0424C76.655 56.2173 76.7597 56.3675 76.9013 56.4661C77.0429 56.5646 77.2121 56.6053 77.3786 56.5807C77.5452 56.5561 77.6983 56.4678 77.8106 56.3317C77.9229 56.1956 77.9871 56.0205 77.9917 55.8377L77.7722 51.743C77.7158 50.7671 76.3047 50.7603 76.3612 51.743L76.3486 51.7635Z" fill="#71578D"/>
<path d="M81.378 70.4966C81.378 70.4966 93.4443 54.3773 95.7083 44.4477C97.9723 34.5181 96.2727 32.6891 92.027 31.0308C87.7812 29.3725 82.5006 35.0368 80.983 41.6633C79.4653 48.2898 79.459 57.4278 79.459 57.4278" fill="#71578D"/>
<path d="M81.8799 71.0426C85.5091 66.2154 88.8063 61.1036 91.7449 55.749C93.6263 52.2685 95.4451 48.5969 96.3921 44.6524C97.1446 41.52 98.1543 37.2547 96.8624 34.1155C96.0283 32.0681 94.1093 30.8875 92.2153 30.2938C88.9165 29.2564 85.8937 31.3857 83.8053 34.0404C78.97 40.1824 78.7881 49.7366 78.7505 57.4278C78.7671 57.6189 78.8486 57.7965 78.979 57.9257C79.1095 58.0549 79.2796 58.1265 79.456 58.1265C79.6324 58.1265 79.8025 58.0549 79.933 57.9257C80.0635 57.7965 80.145 57.6189 80.1616 57.4278C80.1616 50.9241 80.2556 43.0964 83.36 37.3639C85.4045 33.59 88.9541 30.1777 93.087 32.3138C95.7022 33.6787 96.1663 36.0126 95.928 38.9949C94.9998 50.5351 87.3988 61.2427 80.8765 69.9507C80.3058 70.715 81.2967 71.8069 81.8737 71.0426H81.8799Z" fill="#18013D"/>
<path d="M73.0562 73.4584C73.0562 73.4584 57.1204 63.9656 51.1061 52.1115C45.0918 40.2575 49.5822 38.6947 50.5417 38.5241C51.3382 38.3807 60.946 37.1046 68.9107 48.2353C69.7008 49.3466 70.4316 50.5064 71.0995 51.7089C72.0387 53.4093 72.8767 55.1737 73.6081 56.991" fill="#71578D"/>
<path d="M73.4073 72.7965C69.4045 70.3498 65.6154 67.5104 62.0873 64.3137C56.443 59.2636 49.5444 51.7635 48.8295 43.3626C48.472 39.111 51.2064 38.8994 54.2606 39.3089C63.3981 40.5373 69.4626 48.8017 73.0373 57.38C73.4136 58.2808 74.6302 57.5029 74.2539 56.6089C71.1182 49.1361 66.3958 42.1751 59.1648 39.111C56.6186 38.0327 52.5861 36.8248 49.8329 37.9508C46.6972 39.2338 47.1738 43.5878 47.9829 46.3722C50.1716 53.9814 55.1887 60.103 60.7452 65.119C64.4589 68.5244 68.4613 71.5384 72.6986 74.1204C73.4951 74.5981 74.2038 73.2742 73.4073 72.7965Z" fill="#18013D"/>
<path d="M71.1497 50.617C71.1497 50.617 67.8697 42.0932 72.8367 40.7898C77.8037 39.4863 79.7353 49.3272 79.7353 49.3272" fill="#71578D"/>
<path d="M71.8333 50.4123C70.8299 47.778 69.469 41.2402 73.8276 41.4381C76.9633 41.5814 78.4873 46.768 79.0392 49.5319C79.2336 50.4941 80.5945 50.0847 80.4001 49.1224C79.6663 45.4372 77.4901 39.3771 73.1754 39.9504C68.2649 40.6328 69.1178 47.2525 70.4724 50.8217C70.8111 51.7225 72.1782 51.3267 71.8333 50.4123V50.4123Z" fill="#18013D"/>
<path d="M59.9551 63.3787C59.9551 63.3787 49.7766 70.0053 48.0394 74.1818C46.3022 78.3584 44.9036 91.6115 45.2423 101.248C45.581 110.884 46.8415 121.114 48.7606 125.529C50.097 128.355 52.1322 130.719 54.6369 132.353C54.6369 132.353 53.3826 138.243 53.4579 140.597C53.5331 142.952 53.4579 144.255 54.292 143.907C54.6934 143.737 56.3678 141.505 56.7128 140.495C57.1361 139.181 57.4406 137.826 57.6221 136.448C57.6848 135.882 58.1552 134.223 59.4346 134.251C60.7139 134.278 60.9335 135.418 61.015 136.298C61.0965 137.178 60.9585 139.99 61.2282 141.15C61.4979 142.31 61.7676 142.604 62.125 142.474C63.4295 141.996 64.8343 139.198 65.3611 137.813C65.8144 136.579 66.1711 135.305 66.4272 134.005C66.6279 132.777 66.722 130.463 67.8446 129.126C68.9672 127.788 80.1492 122.983 83.749 121.898C87.3488 120.813 101.867 115.859 106.753 115.477C111.638 115.094 118.468 115.627 120.042 113.88C121.616 112.133 124.526 106.154 122.927 94.8326C121.327 83.5109 116.028 75.7241 114.874 72.8783C113.72 70.0326 112.836 69.7391 113.319 67.4734C113.802 65.2077 117.64 63.6449 119.722 62.512C121.804 61.3791 124.921 60.2463 125.448 58.936C125.975 57.6257 125.448 55.1006 125.448 55.1006L121.666 57.5165C121.342 57.2288 121.101 56.8449 120.973 56.4112C120.845 55.9776 120.835 55.5129 120.945 55.0733C121.265 53.4218 123.422 53.1284 123.748 50.617C123.871 49.9496 123.845 49.2601 123.672 48.6059C123.5 47.9518 123.186 47.352 122.757 46.8567L118.863 49.8526L116.022 52.1252L109.882 55.2781L103.479 55.9605L96.11 54.541L92.5102 53.7972L95.232 43.9495C95.232 43.9495 94.9937 40.2029 91.9457 39.2474C90.7629 38.8667 89.5003 38.8974 88.3344 39.3355C87.1684 39.7735 86.1573 40.5969 85.4423 41.6906C84.3448 43.3421 80.7387 48.3922 79.6976 55.5374C79.4593 51.2721 79.2147 48.324 79.2147 48.324C78.8679 47.7859 78.4083 47.3455 77.8738 47.0393C77.3394 46.7331 76.7456 46.5699 76.1417 46.5633C74.0972 46.5633 71.4695 47.0887 71.1246 50.228C70.7796 53.3672 71.7517 52.1525 71.7517 52.1525L74.0031 57.3254C74.0031 57.3254 70.002 50.3576 63.9688 47.9213C57.9357 45.485 55.402 47.9213 54.9254 49.6616C54.4488 51.4018 53.3701 54.3227 55.4836 57.6735C56.794 59.734 58.2921 61.6454 59.9551 63.3787V63.3787Z" fill="#847AA6"/>
<path d="M71.8333 50.7603C70.8299 48.1192 69.469 41.5814 73.8276 41.7861C76.9633 41.9294 78.4873 47.1092 79.0392 49.8731C79.2336 50.8422 80.5945 50.4327 80.4001 49.4636C79.6475 45.7853 77.4901 39.7251 73.1754 40.2643C68.2649 40.9467 69.1178 47.5664 70.4724 51.1425C70.8111 52.0433 72.1782 51.6475 71.8333 50.733V50.7603Z" fill="#18013D"/>
<path d="M73.4073 72.7965C69.4045 70.3498 65.6154 67.5104 62.0873 64.3137C56.443 59.2636 49.5444 51.7635 48.8295 43.3626C48.472 39.111 51.2064 38.8994 54.2606 39.3089C63.3981 40.5373 69.4626 48.8017 73.0373 57.38C73.4136 58.2808 74.6302 57.5029 74.2539 56.6089C71.1182 49.1361 66.3958 42.1751 59.1648 39.111C56.6186 38.0327 52.5861 36.8248 49.8329 37.9508C46.6972 39.2338 47.1738 43.5878 47.9829 46.3722C50.1716 53.9814 55.1887 60.103 60.7452 65.119C64.4589 68.5244 68.4613 71.5384 72.6986 74.1204C73.4951 74.5981 74.2038 73.2742 73.4073 72.7965Z" fill="#18013D"/>
<path d="M81.8799 71.0426C85.5091 66.2154 88.8063 61.1036 91.7449 55.749C93.6263 52.2685 95.4451 48.5969 96.3921 44.6524C97.1446 41.52 98.1543 37.2547 96.8624 34.1155C96.0283 32.0681 94.1093 30.8875 92.2153 30.2938C88.9165 29.2564 85.8937 31.3857 83.8053 34.0404C78.97 40.1824 78.7881 49.7366 78.7505 57.4278C78.7671 57.6189 78.8486 57.7965 78.979 57.9257C79.1095 58.0549 79.2796 58.1265 79.456 58.1265C79.6324 58.1265 79.8025 58.0549 79.933 57.9257C80.0635 57.7965 80.145 57.6189 80.1616 57.4278C80.1616 50.9241 80.2556 43.0964 83.36 37.3639C85.4045 33.59 88.9541 30.1777 93.087 32.3138C95.7022 33.6787 96.1663 36.0126 95.928 38.9949C94.9998 50.5351 87.3988 61.2427 80.8765 69.9507C80.3058 70.715 81.2967 71.8069 81.8737 71.0426H81.8799Z" fill="#18013D"/>
<path d="M80.7385 65.0985C82.3941 65.9788 90.1895 50.46 91.2306 48.1056C92.2716 45.7511 93.7391 41.868 91.3936 40.7352C89.0481 39.6023 86.9033 45.2325 85.9187 47.0887C84.934 48.945 79.2709 64.3137 80.7385 65.0985Z" fill="#88CAFD"/>
<path d="M74.0972 66.8797C75.7779 65.1599 68.5971 54.2476 66.954 52.1388C65.4551 50.2212 63.5611 48.2011 62.0058 47.3617C60.4505 46.5223 58.0046 45.5532 56.4807 46.7748C54.9567 47.9964 54.9191 51.2926 55.7406 52.9168C56.9009 55.2235 62.6016 60.7104 64.7841 62.3687C66.9665 64.027 72.2345 68.7496 74.0972 66.8797Z" fill="#88CAFD"/>
<path d="M77.9041 56.0151C77.5992 54.0911 77.4232 52.1456 77.3773 50.1939C77.2268 48.2421 74.4046 48.2216 74.5551 50.1939C74.6158 52.4209 74.8254 54.6402 75.1823 56.8341C75.5962 58.7586 78.318 57.9464 77.9041 56.0151Z" fill="#88CAFD"/>
<path d="M60.5009 69.0498L57.2648 70.5376L54.1981 75.3283L52.718 81.0404L52.417 87.4281L52.8372 93.9318L54.3172 102.299L54.6622 104.667L60.5009 98.3472L66.9542 95.3103L69.5819 95.3854L69.5443 88.8203L68.936 79.3479L67.2051 73.5676L64.4958 70.1213L60.5009 69.0498Z" fill="url(#paint0_radial_685_4734)"/>
<path d="M110.628 92.0209L104.119 90.0965L96.2167 89.5437L91.9019 90.5537L89.0798 84.0159L86.2388 75.1099L85.5991 68.6677L87.4492 63.795L91.5758 61.1198L95.8717 61.6112L99.6911 64.0816L104.062 69.0157L107.267 74.9393L108.879 81.7024L110.628 92.0209Z" fill="url(#paint1_radial_685_4734)"/>
<path d="M106.239 89.8917C105.141 82.8079 103.78 74.5981 98.8696 69.3365C97.1889 67.5416 94.2601 65.2418 91.7515 66.3815C89.0297 67.644 89.3307 71.5612 89.6694 74.1545C89.7948 75.1304 91.1557 74.7141 91.0303 73.7519C90.7857 71.9093 90.4032 68.4356 92.5731 67.6918C93.9465 67.2209 95.6712 68.5107 96.6558 69.316C99.3149 71.4725 101.115 74.8847 102.225 78.2355C103.434 82.1645 104.322 86.2021 104.878 90.3012C105.028 91.2771 106.389 90.8608 106.239 89.8917V89.8917Z" fill="#0097AC"/>
<path d="M91.2244 81.5522C92.141 84.3756 93.3442 87.0789 94.8116 89.6119C95.3008 90.4445 96.5175 89.6733 96.0346 88.8339C94.625 86.4181 93.4681 83.8384 92.5853 81.1428C92.2843 80.2146 90.9171 80.6173 91.2244 81.5522V81.5522Z" fill="#0097AC"/>
<path d="M65.4801 82.3166C65.938 86.3933 66.1934 90.4939 66.2452 94.6006C66.2617 94.7917 66.3432 94.9693 66.4737 95.0985C66.6042 95.2277 66.7743 95.2993 66.9507 95.2993C67.1271 95.2993 67.2972 95.2277 67.4277 95.0985C67.5582 94.9693 67.6397 94.7917 67.6562 94.6006C67.6044 90.4939 67.349 86.3933 66.8911 82.3166C66.7782 81.3475 65.3672 81.3339 65.4801 82.3166Z" fill="#0097AC"/>
<path d="M65.9442 77.9899C65.7128 77.2387 65.3197 76.5586 64.7976 76.0063C64.2756 75.4541 63.6397 75.0457 62.9431 74.8153C62.2465 74.5849 61.5093 74.5391 60.7932 74.6818C60.077 74.8244 59.4025 75.1514 58.8261 75.6354C54.1351 79.5936 54.5615 88.0355 56.1482 93.4404C56.4242 94.3754 57.7851 93.9796 57.5091 93.031C56.2109 88.6155 55.8535 83.5313 57.9418 79.3002C59.2463 76.6659 63.3227 74.1682 64.5833 78.3993C64.8593 79.3343 66.2202 78.9316 65.9442 77.9899V77.9899Z" fill="#0097AC"/>
<path d="M70.2904 95.3854C70.3531 89.7484 70.535 83.7838 69.4626 78.2151C68.3588 72.3392 63.2664 64.9347 57.2207 69.6094C53.138 72.776 52.0468 78.9794 51.821 84.0568C51.4949 91.4477 52.4858 97.9309 53.7463 105.097C53.9157 106.072 55.2766 105.656 55.1073 104.694C54.1289 99.1252 53.0816 93.8499 53.1255 88.1515C53.1694 82.999 53.2697 77.8056 55.9664 73.3356C58.3872 69.3296 62.9716 68.4356 65.8126 72.6531C67.6564 75.3829 68.2459 78.7952 68.5219 82.0572C68.848 86.4928 68.9673 90.9435 68.8793 95.3922C68.8959 95.5834 68.9774 95.7609 69.1079 95.8901C69.2384 96.0193 69.4085 96.0909 69.5849 96.0909C69.7613 96.0909 69.9314 96.0193 70.0619 95.8901C70.1923 95.7609 70.2738 95.5834 70.2904 95.3922V95.3854Z" fill="#18013D"/>
<path d="M69.3369 94.4778C62.1875 94.0342 55.5398 101.084 52.2284 107.342C52.1345 107.523 52.1104 107.737 52.1616 107.937C52.2127 108.138 52.3349 108.308 52.5012 108.41C52.6676 108.512 52.8644 108.538 53.0485 108.483C53.2325 108.427 53.3887 108.294 53.4827 108.113C56.5056 102.367 62.7143 95.6038 69.3369 96.0133C70.2463 96.0679 70.24 94.5324 69.3369 94.4778Z" fill="#18013D"/>
<path d="M92.1903 89.7689C90.5421 86.0535 89.089 82.2393 87.8379 78.3447C86.5146 74.0999 85.4109 67.0912 88.5842 63.447C91.0614 60.6148 95.5643 61.8705 98.2297 63.6585C101.278 65.7058 103.517 69.0567 105.128 72.4825C107.919 78.4676 108.954 85.1487 109.97 91.7002C110.12 92.6693 111.481 92.2598 111.331 91.2907C110.076 83.2379 108.734 74.8233 104.3 68.0193C101.165 63.2422 94.2661 57.4824 88.6783 61.386C84.6959 64.1772 84.7586 71.3565 85.6743 75.7856C86.7216 80.8698 88.9479 85.8448 90.9862 90.5469C91.3687 91.4409 92.5854 90.6561 92.2028 89.7689H92.1903Z" fill="#18013D"/>
<path d="M90.9358 91.7275C97.941 89.1615 107.185 90.5332 113.701 94.3549C114.498 94.819 115.213 93.495 114.41 93.0241C107.58 89.025 97.9285 87.5646 90.5783 90.2466C89.7191 90.5537 90.0892 92.0414 90.9546 91.7275H90.9358Z" fill="#18013D"/>
<path d="M92.0083 98.395C92.0083 98.395 95.0687 97.2417 96.3983 99.1593C97.7278 101.077 95.2004 104.564 93.758 105.868C92.3156 107.171 91.2494 114.583 86.4706 116.323C84.3859 117.016 82.1682 117.085 80.0504 116.523C77.9327 115.961 75.9932 114.788 74.4357 113.129C72.1905 110.515 67.8193 113.013 66.5399 108.83C65.2606 104.646 69.7384 103.779 69.7384 103.779C69.7384 103.779 71.739 85.9199 77.6655 84.9576C83.592 83.9954 92.0083 98.395 92.0083 98.395Z" fill="#F7A566" stroke="#6D1300" stroke-width="2" stroke-miterlimit="10"/>
<path d="M93.482 100.108C91.3685 104.325 86.8405 105.615 82.8205 106.741C78.6563 107.915 74.5924 107.526 70.4219 106.598C69.5376 106.4 69.1676 107.881 70.0518 108.079C74.862 109.15 79.3838 109.382 84.1375 107.942C88.2704 106.687 92.5036 105.213 94.6861 100.879C95.1188 100.012 93.9021 99.2344 93.4631 100.108H93.482Z" fill="#6D1300"/>
<path d="M76.3924 90.5742C77.3979 93.2729 78.1297 96.083 78.5749 98.9546C78.832 100.586 80.6821 101.507 82.043 101.097C83.6359 100.62 84.2756 98.9614 84.0185 97.3167C83.569 94.4551 82.8373 91.6545 81.836 88.9636C81.2653 87.4281 79.9546 86.343 78.3679 86.8207C77.0258 87.2233 75.8217 89.0523 76.3924 90.5946V90.5742Z" fill="#FFEFBC"/>
<path d="M166.645 88.4722L169.881 88.404L170.025 91.9186L171.248 95.2762L168.583 103.745L167.209 115.361L166.325 125.12L167.918 132.545L171.568 138.714L174.572 139.929L166.902 138.188L161.12 133.814L157.689 127.679L156.905 120.943L158.592 110.256L160.743 100.558L163.716 93.2289L166.645 88.4722Z" fill="#18013D"/>
<path d="M176.817 86.2065L169.342 88.404L170.358 93.2971L173.374 98.2517L178.536 102.756L184.268 108.352L186.801 112.174L188.984 119.605L187.755 125.693L185.491 132.749L181.828 137.363L187.128 135.998L192.841 132.033L194.923 126.648L195.826 119.667L194.697 111.409L192.615 105.199L188.313 100.633L181.671 96.1429L177.777 91.8981L176.817 86.2065Z" fill="#2A769F"/>
<path d="M168.872 88.8817C168.602 95.7062 173.632 99.6916 178.034 103.452C181.17 106.141 184.569 109.137 186.344 113.149C188.119 117.162 187.673 122.588 186.676 126.873C185.704 131.05 183.798 135.534 180.166 137.683C176.021 140.133 172.283 139.239 168.056 137.683C163.961 136.189 160.706 133.35 159.326 128.812C157.765 123.611 158.461 117.347 159.163 112.037C160.179 104.435 162.117 94.8395 167.222 89.1274C167.956 88.3085 166.802 87.0801 166.068 87.8717C161.22 93.2971 159.05 102.203 157.915 109.423C156.492 118.377 154.962 130.838 162.807 136.885C168.909 141.587 178.373 143.259 183.929 136.742C188.777 131.057 190.96 119.824 187.93 112.672C185.892 107.854 181.847 104.441 178.078 101.275C174.309 98.1084 170.295 94.5665 170.515 88.909C170.565 87.7625 168.928 87.7625 168.884 88.909L168.872 88.8817Z" fill="#18013D"/>
<path d="M175.996 86.7388C175.996 91.2362 178.436 94.7985 181.759 97.1666C184.97 99.446 188.965 101.261 191.079 104.919C193.173 108.497 194.491 112.546 194.936 116.76C195.318 120.963 194.766 126.014 193.054 129.856C191.8 132.667 189.774 133.834 187.26 134.974C183.785 136.557 180.179 137.854 176.598 139.069C175.595 139.41 176.021 141.116 177.031 140.782C181.02 139.494 184.94 137.963 188.771 136.196C194.095 133.65 195.67 128.777 196.378 122.704C197.168 115.777 195.575 106.946 190.866 101.78C186.363 96.8595 177.639 95.1193 177.627 86.7661C177.609 86.5434 177.515 86.336 177.363 86.185C177.212 86.034 177.014 85.9502 176.808 85.9502C176.603 85.9502 176.405 86.034 176.253 86.185C176.102 86.336 176.008 86.5434 175.99 86.7661L175.996 86.7388Z" fill="#18013D"/>
<path d="M170.094 95.481C167.37 104.192 165.832 113.29 165.529 122.485C165.328 130.333 168.207 140.768 176.817 140.823C177.022 140.803 177.213 140.701 177.351 140.536C177.49 140.371 177.567 140.156 177.567 139.932C177.567 139.708 177.49 139.493 177.351 139.328C177.213 139.163 177.022 139.061 176.817 139.041C167.053 138.98 166.833 125.126 167.485 117.558C168.12 110.206 169.523 102.957 171.669 95.9519C172.001 94.8668 170.414 94.3959 170.094 95.481V95.481Z" fill="#18013D"/>
<path d="M170.885 87.8035C181.185 87.8035 189.536 78.6189 189.536 67.2891C189.536 55.9594 181.185 46.7748 170.885 46.7748C160.584 46.7748 152.233 55.9594 152.233 67.2891C152.233 78.6189 160.584 87.8035 170.885 87.8035Z" fill="#6D1300"/>
<path d="M188.771 67.2891C188.551 77.9216 180.881 86.9709 170.884 86.9709C161.051 86.9709 153.023 77.9216 153.023 67.2891C153.023 56.6566 161.076 47.6074 170.91 47.6074C180.887 47.6074 188.551 56.643 188.771 67.2891C188.788 67.4961 188.876 67.6885 189.017 67.8286C189.158 67.9687 189.342 68.0464 189.533 68.0464C189.724 68.0464 189.908 67.9687 190.049 67.8286C190.19 67.6885 190.277 67.4961 190.295 67.2891C190.113 58.4583 185.309 50.3918 177.595 47.2594C173.791 45.7519 169.649 45.5742 165.748 46.7511C161.847 47.928 158.381 50.4008 155.833 53.8245C144.739 68.7769 156.905 91.8231 174.44 88.2743C183.728 86.3908 190.119 77.3552 190.295 67.2891C190.277 67.0822 190.19 66.8898 190.049 66.7497C189.908 66.6095 189.724 66.5319 189.533 66.5319C189.342 66.5319 189.158 66.6095 189.017 66.7497C188.876 66.8898 188.788 67.0822 188.771 67.2891V67.2891Z" fill="#6D1300"/>
<path d="M168.564 88.4722C177.361 88.4722 184.493 79.2877 184.493 67.9579C184.493 56.6282 177.361 47.4436 168.564 47.4436C159.766 47.4436 152.634 56.6282 152.634 67.9579C152.634 79.2877 159.766 88.4722 168.564 88.4722Z" fill="#F7A566"/>
<path d="M183.791 67.9579C183.615 77.3347 178.147 87.626 168.564 87.7011C159.157 87.7761 153.343 77.2187 153.343 67.9579C153.343 58.6971 159.132 48.2148 168.564 48.2148C178.134 48.2148 183.615 58.6426 183.791 67.9579C183.808 68.1491 183.889 68.3266 184.02 68.4558C184.15 68.585 184.32 68.6566 184.497 68.6566C184.673 68.6566 184.843 68.585 184.973 68.4558C185.104 68.3266 185.185 68.1491 185.202 67.9579C185.052 59.7686 181.439 51.2312 174.158 47.9145C167.441 44.8571 160.116 47.9145 155.933 54.1111C151.236 61.0857 150.678 71.0153 154.202 78.6791C157.394 85.6537 164.193 90.5332 171.493 88.9158C180.323 86.9231 185.033 77.1095 185.202 67.9716C185.187 67.7802 185.107 67.6018 184.978 67.4713C184.848 67.3408 184.679 67.2675 184.502 67.2658C184.326 67.2641 184.155 67.3341 184.024 67.4621C183.892 67.5901 183.809 67.7669 183.791 67.9579V67.9579Z" fill="#6D1300"/>
<path d="M176.56 67.7123C176.397 72.6122 173.763 78.4949 168.564 78.4949C163.547 78.4949 160.536 72.619 160.574 67.7123C160.612 62.8055 163.453 56.9228 168.564 56.9228C173.675 56.9228 176.397 62.785 176.56 67.7123C176.591 68.8519 178.228 68.8519 178.19 67.7123C178.002 61.85 174.691 55.1143 168.564 55.1484C162.593 55.1484 158.925 61.7886 158.943 67.7123C158.962 73.6359 162.568 80.2693 168.564 80.2693C174.691 80.2693 178.002 73.5949 178.19 67.7123C178.228 66.5657 176.591 66.5657 176.56 67.7123Z" fill="#FFEFBC"/>
<g opacity="0.6">
<path d="M170.885 91.6115C183.856 91.6115 194.371 80.5326 194.371 66.866C194.371 53.1995 183.856 42.1205 170.885 42.1205C157.913 42.1205 147.398 53.1995 147.398 66.866C147.398 80.5326 157.913 91.6115 170.885 91.6115Z" fill="#73EDFB"/>
<path d="M159.759 78.4812C159.759 78.4812 153.488 96.9619 152.635 106.018C151.782 115.074 148.79 128.272 152.635 134.681C156.479 141.089 165.447 150.029 178.68 145.443C191.913 140.857 200.674 136.769 202.593 133.841C204.512 130.914 205.371 119.51 203.446 114.412C201.521 109.314 200.31 100.395 194.622 95.2012C188.934 90.0078 180.58 78.4812 180.58 78.4812H159.759Z" fill="#73EDFB"/>
</g>
</g>
<defs>
<radialGradient id="paint0_radial_685_4734" cx="0" cy="0" r="1" gradientUnits="userSpaceOnUse" gradientTransform="translate(61.0026 86.8548) scale(13.0697 14.2222)">
<stop stop-color="white"/>
<stop offset="0.14" stop-color="#FBFEFE"/>
<stop offset="0.27" stop-color="#F0F9FA"/>
<stop offset="0.39" stop-color="#DEF2F4"/>
<stop offset="0.51" stop-color="#C4E7EC"/>
<stop offset="0.63" stop-color="#A3D9E1"/>
<stop offset="0.74" stop-color="#7AC9D4"/>
<stop offset="0.86" stop-color="#49B5C4"/>
<stop offset="0.97" stop-color="#129EB2"/>
<stop offset="1" stop-color="#0097AC"/>
</radialGradient>
<radialGradient id="paint1_radial_685_4734" cx="0" cy="0" r="1" gradientUnits="userSpaceOnUse" gradientTransform="translate(98.1106 76.5704) scale(13.3833 14.5634)">
<stop stop-color="white"/>
<stop offset="0.14" stop-color="#FBFEFE"/>
<stop offset="0.27" stop-color="#F0F9FA"/>
<stop offset="0.39" stop-color="#DEF2F4"/>
<stop offset="0.51" stop-color="#C4E7EC"/>
<stop offset="0.63" stop-color="#A3D9E1"/>
<stop offset="0.74" stop-color="#7AC9D4"/>
<stop offset="0.86" stop-color="#49B5C4"/>
<stop offset="0.97" stop-color="#129EB2"/>
<stop offset="1" stop-color="#0097AC"/>
</radialGradient>
<clipPath id="clip0_685_4734">
<rect width="223" height="314" fill="white"/>
</clipPath>
</defs>
</svg>
