<svg xmlns="http://www.w3.org/2000/svg" viewBox="0 0 829.61 357.6">
  <defs>
    <style>
      .cls-1 {
        fill: #f15a24;
      }

      .cls-2 {
        fill: #ed1c24;
      }

      .cls-3 {
        fill: #ff931e;
      }

      .cls-4, .cls-5 {
        fill: #fff;
      }

      .cls-5 {
        font-size: 70px;
        font-family: BeelineSans-Black, Beeline Sans;
        font-weight: 800;
      }
    </style>
  </defs>
  <g id="Слой_2" data-name="Слой 2">
    <g id="图层_1" data-name="图层 1">
      <g>
        <path class="cls-1" d="M798.07,357.6s-164-28.39-164-51.52V156.77s126.17,47.32,195.57,51.52l-58.88,66.25Z"/>
        <path class="cls-1" d="M52.57,251.4s105.15-33.64,144.05-67.29L142,59S79.91,113.66,0,117.87l49.42,56.78Z"/>
        <path class="cls-2" d="M634,306.08s91.47,29.44,97.78,9.46S634,269.28,634,269.28Z"/>
        <path class="cls-2" d="M196.62,184.11s-78.86,33.65-84.11,21,72.55-48.37,72.55-48.37Z"/>
        <path class="cls-1" d="M229.22,179.9s79.91-54.67,164-65.19,213.45,20,213.45,20l-67.3,7.36Z"/>
        <path class="cls-3" d="M63.05,77.39s214.81-131.08,542.6-52l1.05,109.35S304.81,86.62,112.4,204.64Z"/>
        <path class="cls-3" d="M770.28,184.35S548.34,72,228.79,179.63L234.15,289s296.12-74.17,498.18,26.43Z"/>
      </g>
      <path class="cls-4" d="M78.68,108,67.61,81.07s12.65-9.49,34-15.81c0,0-23.72,13.44-27.67,17.39Z"/>
      <path class="cls-4" d="M592.61,81.6v39s-53-6-68-5c0,0,47-2,64,0Z"/>
      <path class="cls-4" d="M235.61,254.13l1.32,24.47s30.43-7.93,41.68-7.27a169.22,169.22,0,0,0-38.37,4Z"/>
      <path class="cls-4" d="M707.61,173.6s29,5,48,16l-13,44,8-43S735.61,181.6,707.61,173.6Z"/>
    </g>
    <g id="Слой_3" data-name="Слой 3">
      <g>
        <path class="cls-4" d="M227.71,77.15c-1.88-3.45-5.22-5.28-11-3.86-6.47,1.57-9.94,7-7.63,15.63s7.91,11.69,14.14,10.17c5.62-1.36,7.68-4.41,7.8-8.32q5.11-1.18,10.27-2.29c.79,11.3-5,19.26-15.33,21.76-14.15,3.47-24-5.48-27.74-18.43s.43-25.92,15.62-29.65c11-2.68,20.26,2.08,24.37,12.65Q232.92,75.95,227.71,77.15Z"/>
        <path class="cls-4" d="M282,79.93c1.76,10.58-3.79,19.36-14.94,21.43s-19.46-4.13-21.78-14.6S248.27,67.18,260,65,280.26,69.37,282,79.93Zm-26.81,4.8c1,4.88,4.92,6.88,9.84,6s7.84-4.18,7-9.08-4.84-6.91-9.88-6S254.21,79.87,255.21,84.73Z"/>
        <path class="cls-4" d="M324.27,75c1.22,10.87-5.42,18.43-16.45,19.87s-19.41-4.14-22.13-20.31S286.91,50.17,299.13,47q8.6-2.19,17.27-4.18c.44,3.31.86,6.63,1.29,9.94Q310,54.65,302.3,56.64c-6.1,1.59-7.93,4.77-7.4,12a13.78,13.78,0,0,1,11.33-8.18C315.16,59.3,323,64.12,324.27,75Zm-27.64-.87.42,2.77c.86,5.61,4.23,8.31,9.44,7.62s8.23-3.78,7.65-8.37-4-6.44-9.25-5.76C301.54,70.87,298.2,72.32,296.63,74.17Z"/>
        <path class="cls-4" d="M347.52,90.75c-10,.79-18-5.47-19.34-16.75s5.72-19.34,16.35-20.18S363.3,59.22,364.05,71c.05.77.05,2,0,2.74q-12.81.72-25.55,1.85c1.23,4.25,4.36,6,8.47,5.69s6.6-2,7.46-4.13q4.6-.33,9.22-.58C362.79,84.23,357.27,90,347.52,90.75Zm-9.43-21.14q7.83-.69,15.68-1.23c-1.11-3.72-4.31-5.47-8.37-5.15C341.64,63.53,338.8,65.61,338.09,69.61Z"/>
        <path class="cls-4" d="M390.4,51.56c8.91-.21,16.91,5.89,17.05,18.08s-7.26,18.62-15.72,18.81c-5.62.13-8.85-1.78-11.09-5q.41,9.24.75,18.47-5,.18-9.95.42-1.24-24.57-2.85-49.16c3.37-.16,6.75-.31,10.12-.43.12,2.1.22,4.2.33,6.3C380.34,55.35,384.45,51.69,390.4,51.56Zm6.72,18.23c-.13-5.25-3.41-7.6-8.91-7.46-4.39.12-7.16,1.2-8.38,3.56q.23,4.55.43,9.09c1.42,2.27,4.22,2.94,8.52,2.83C394.17,77.67,397.25,75.05,397.12,69.79Z"/>
        <path class="cls-4" d="M423.78,71.32q6.5-9.37,13.24-18.65c3.36.12,6.72.25,10.08.41q-.5,17.63-1.17,35.22-5.13-.24-10.24-.41.24-9.42.43-18.84-6.47,9.21-12.69,18.51-5-.09-10-.12,0-17.61-.24-35.24,5.32,0,10.66.13Q423.83,61.83,423.78,71.32Z"/>
      </g>
      <text class="cls-5" transform="translate(418.13 224.44)">пазл</text>
    </g>
  </g>
</svg>
