<svg width="158" height="328" viewBox="0 0 158 328" fill="none" xmlns="http://www.w3.org/2000/svg">
<path d="M93.6214 259.27C89.6892 259.326 85.7566 259.184 81.8387 258.844C77.9174 258.387 74.1224 257.172 70.665 255.267C68.1532 255.16 65.6566 255.023 63.1448 254.901C59.4332 254.692 55.7375 254.26 52.0777 253.607C48.0596 252.953 44.0844 252.058 40.1733 250.928C32.5135 248.736 25.4471 244.844 19.5004 239.542C15.1449 235.596 11.3176 231.103 8.11352 226.176L8.52454 226.816L7.00224 224.593C6.16932 223.229 5.45136 221.799 4.85579 220.316C4.2012 218.793 3.72928 217.271 3.2117 215.627C2.37259 212.857 1.69153 210.041 1.17181 207.194V207.194C1.16587 207.082 1.16587 206.971 1.17181 206.859V206.859C0.161258 202.063 -0.192112 197.152 0.12142 192.261C0.552236 187.577 1.3979 182.942 2.64845 178.408C3.29116 175.868 4.1362 173.384 5.17547 170.979C6.25683 168.693 7.51397 166.495 8.93556 164.403C11.4778 160.43 14.5681 156.792 17.3539 153.047C18.2673 151.799 19.0284 150.505 19.7896 149.181C20.1245 148.526 20.4137 147.872 20.703 147.187C20.703 146.974 20.8248 146.745 20.8704 146.532C20.9161 146.319 20.9618 146.045 20.9922 145.801C20.9846 145.903 20.9846 146.004 20.9922 146.106C21.0074 145.852 21.0074 145.598 20.9922 145.345L20.8857 144.614L20.7486 144.066C20.6573 143.822 20.5507 143.579 20.4442 143.335C19.9723 142.422 19.4851 141.539 18.9219 140.671C17.9728 139.327 16.9566 138.032 15.8773 136.79C14.492 135.267 13.0915 133.639 11.7518 132.025C9.01056 128.63 6.80321 124.836 5.20592 120.776C3.4836 116.395 2.45634 111.773 2.16131 107.075C1.91997 102.566 2.43451 98.049 3.68361 93.7099C5.0257 89.1224 6.87933 84.7004 9.20958 80.5271C11.5057 76.3651 14.2966 72.4959 17.5214 69.0037C20.4533 65.7207 23.8977 62.9344 27.7208 60.7531C29.441 59.8093 31.2069 58.9264 32.8966 57.9369L33.1707 57.7238L33.2924 57.6172L33.4903 57.5411L33.5969 57.3889V57.2976C33.7014 56.9223 33.7828 56.5411 33.8405 56.1559C33.8405 56.4299 33.7339 56.6887 33.673 56.9474C33.7491 56.5212 33.7948 56.0797 33.8405 55.6383C33.8405 54.3748 33.8405 53.1266 33.7339 51.8631C33.4599 48.3163 33.1554 44.7694 33.0945 41.2073C33.0614 37.702 33.8103 34.2334 35.2867 31.0539C37.0552 27.4657 39.3772 24.1781 42.1675 21.3115C44.8337 18.3367 47.8261 15.6712 51.0882 13.3653C54.7026 10.9056 58.5838 8.86297 62.6577 7.2763C66.5851 5.69317 70.6127 4.37101 74.7143 3.31844C79.3052 2.0428 83.98 1.09158 88.7043 0.471824C97.4042 -0.64124 106.243 0.238474 114.553 3.04443C118.605 4.43939 122.466 6.33669 126.046 8.69199C129.783 11.2519 133.219 14.2237 136.292 17.5515C139.506 21.1362 142.524 24.8915 145.334 28.801C147.298 31.3888 149.033 34.1745 150.799 36.9146C152.507 39.7001 153.877 42.6794 154.879 45.7893C156.109 49.3093 157.001 52.9386 157.543 56.6278C158.669 64.4369 157.543 72.3831 156.203 80.1009C155.153 86.1899 153.889 92.279 152.641 98.368V98.2157C152.504 98.8703 152.367 99.5249 152.245 100.195V100.088C151.713 102.722 151.164 105.355 150.479 107.958C150.038 109.633 149.612 111.307 149.17 112.982C148.729 114.656 148.105 116.27 147.648 117.898C146.78 120.608 145.821 123.318 144.756 125.966C143.431 129.27 141.97 132.543 140.721 135.876C140.539 136.445 140.371 137.008 140.219 137.566C140.219 137.87 140.219 138.175 140.113 138.479C140.097 138.738 140.097 138.997 140.113 139.256C140.172 139.917 140.279 140.573 140.432 141.219C140.432 140.961 140.326 140.702 140.28 140.428C140.356 140.793 140.463 141.143 140.569 141.493C140.676 141.844 140.919 142.422 141.132 142.863C141.765 144.091 142.461 145.285 143.218 146.441C144.482 148.313 145.791 150.155 147.069 152.012C149.077 154.907 150.843 157.962 152.352 161.146C153.175 163.016 153.842 164.95 154.346 166.93C154.898 168.933 155.33 170.966 155.64 173.019C156.347 177.617 156.501 182.283 156.097 186.917C155.267 194.816 153.739 202.625 151.53 210.254C150.503 214.476 149.212 218.63 147.663 222.69C146.068 226.387 144.067 229.894 141.696 233.148C140.837 234.419 139.912 235.644 138.925 236.817C137.57 238.339 136.231 239.983 134.769 241.475C132.256 243.951 129.443 246.104 126.397 247.884C123.504 249.634 120.597 251.354 117.643 253.014C114.787 254.619 111.797 255.973 108.707 257.063C104.007 258.624 99.0752 259.37 94.1237 259.27H93.6214Z" fill="#81ACD2"/>
<path d="M72.8878 324.621C71.8679 316.842 71.8222 308.957 71.1981 301.147C70.8784 297.053 70.6957 292.973 70.6196 288.878C70.5435 284.783 70.4521 280.719 70.3304 276.624C70.0868 268.891 70.0107 261.143 69.8128 253.394C69.7214 249.467 69.6453 245.54 69.6758 241.597C69.7062 237.654 69.6758 233.605 69.6758 229.617C69.6758 221.488 69.6758 213.359 69.9193 205.261C70.1477 196.599 70.4826 187.953 70.8327 179.382C71.122 171.771 71.5025 164.251 71.9288 156.686C72.1571 152.499 72.4007 148.313 72.5986 144.127C72.7051 141.889 72.8269 139.667 72.9335 137.429C73.0248 135.465 73.0248 133.486 73.0705 131.523C73.0705 129.848 73.1466 128.189 73.1923 126.515C73.1923 122.846 73.1923 119.177 73.1923 115.493C73.1923 111.444 73.0705 107.395 73.1009 103.315C73.1923 95.1256 73.3141 86.9359 73.8317 78.7614C74.9429 61.4991 76.3891 44.2672 78.3986 27.0961C78.4733 26.1938 78.9034 25.3581 79.5942 24.7729C80.2851 24.1876 81.1802 23.9008 82.0825 23.9755C82.9849 24.0502 83.8206 24.4803 84.4059 25.1711C84.9911 25.862 85.278 26.757 85.2033 27.6594C83.2243 44.7391 81.7476 61.971 80.3623 79.1572C79.9361 84.546 79.6469 89.9348 79.3881 95.3388C79.3272 98.6674 79.2561 102.011 79.1749 105.37C79.1749 112.982 79.4337 120.76 79.4337 128.448C79.4337 132.619 79.4337 136.775 79.4337 140.93C79.4337 145.086 79.1597 149.44 79.0684 153.748C78.9314 159.015 78.84 164.266 78.703 169.518C78.703 176.17 78.5204 182.823 78.3986 189.475V188.942C78.3986 191.987 78.3478 195.072 78.2463 198.197V198.289C78.2463 198.426 78.2463 198.563 78.2463 198.7V198.578C78.1246 206.331 78.0687 214.085 78.0789 221.838C78.0789 229.891 77.8658 237.943 77.9419 245.996C77.9419 250.045 78.0941 254.095 78.155 258.174C78.2159 262.254 78.2768 266.425 78.3529 270.565C78.429 274.341 78.5965 278.177 78.703 281.921C78.8248 285.94 78.8857 289.989 79.0988 294.008C79.3576 298.925 80.0122 303.796 80.3471 308.698C80.682 313.599 80.9865 318.745 81.0474 323.783C81.0841 324.78 80.7638 325.757 80.1443 326.538C79.5247 327.32 78.6465 327.854 77.6679 328.046C77.4401 328.068 77.2106 328.068 76.9828 328.046C76.0051 328.053 75.0566 327.712 74.3066 327.085C73.5566 326.457 73.0538 325.584 72.8878 324.621V324.621Z" fill="#5C74A5"/>
<path d="M74.4102 90.0565C74.1525 89.5139 74.0045 88.9258 73.9745 88.3259C73.9444 87.726 74.0331 87.126 74.2353 86.5604C74.4375 85.9948 74.7493 85.4746 75.1529 85.0297C75.5564 84.5848 76.0438 84.2238 76.5871 83.9675C78.627 82.9933 80.6212 81.9125 82.6763 80.8469C86.1269 78.8172 89.5673 76.7115 92.9975 74.5296C96.24 72.505 99.8022 71.0436 103.182 69.2626C104.902 68.2731 106.576 67.238 108.251 66.2181C110.215 65.0003 112.239 63.9195 114.34 62.8995C116.441 61.8796 118.146 61.1794 120.034 60.2965C121.921 59.4136 123.946 58.3328 125.879 57.252L125.529 57.4347C127.645 56.2777 129.761 55.0904 131.938 54.0248C132.988 53.5225 134.024 53.0353 135.089 52.5026C136.155 51.9698 137.373 51.5435 138.469 50.9803C140.752 49.6255 142.823 47.9358 145.197 46.6723C145.622 46.4809 146.101 46.4477 146.548 46.579C146.995 46.7102 147.38 46.9972 147.633 47.3878C147.884 47.7802 147.983 48.2511 147.91 48.7112C147.837 49.1714 147.597 49.5887 147.237 49.8843C145.974 50.8737 144.786 51.9698 143.538 52.9288C142.661 53.6226 141.746 54.268 140.798 54.862C139.885 55.4405 138.895 55.9124 137.951 56.3843C135.598 57.7429 133.317 59.2214 131.116 60.8141C128.589 62.6864 126.108 64.6045 123.505 66.2789C122.211 67.0705 120.871 67.8012 119.562 68.5014C118.253 69.2017 116.654 70.1607 115.223 71.0588C112.635 72.6572 110.2 74.5143 107.612 76.1432C105.024 77.772 101.994 79.2942 99.3151 80.6795C96.6358 82.0647 93.9718 84.2415 91.3382 85.9465C89.8159 86.875 88.2936 87.8797 86.7713 88.7322C84.6553 89.9195 82.5393 91.1526 80.3776 92.2486C79.794 92.5312 79.1536 92.677 78.5052 92.6748C77.6473 92.6594 76.8106 92.4065 76.0877 91.9443C75.3648 91.4821 74.7842 90.8287 74.4102 90.0565V90.0565Z" fill="#5C74A5"/>
<path d="M65.9764 86.6771C63.9083 86.1297 61.875 85.4587 59.8872 84.6677C59.0347 84.3176 58.2127 83.9218 57.3754 83.5717C56.5381 83.2216 55.4421 82.8106 54.4526 82.4757C52.7781 82.0038 51.1035 81.5319 49.4442 80.9534C47.7849 80.375 46.0951 79.8726 44.4206 79.4312C42.1219 78.7614 39.8537 78.1373 37.4789 77.5436C35.1041 76.9499 32.7445 76.5085 30.3545 76.0213C28.7561 75.793 27.1424 75.5494 25.544 75.3515C24.825 75.2819 24.1616 74.9342 23.6953 74.3825C23.2289 73.8309 22.9965 73.1189 23.0474 72.3984C23.1095 71.6763 23.455 71.0082 24.0085 70.5403C24.562 70.0724 25.2784 69.8428 26.0007 69.9019C29.3249 70.2952 32.6236 70.8797 35.8805 71.6525C39.0316 72.444 42.1828 73.2965 45.3188 74.1642C48.4547 75.0319 51.134 75.6864 54.0872 76.2497C55.55 76.5234 56.994 76.8895 58.4106 77.3457C59.9329 77.8937 61.4552 78.5026 63.0688 79.0811L67.7423 80.8012C68.429 81.0382 69.0082 81.5128 69.3756 82.1395C69.7429 82.7661 69.8741 83.5034 69.7455 84.2183C69.6168 84.9332 69.2368 85.5785 68.6741 86.0378C68.1113 86.4971 67.4029 86.74 66.6767 86.7228C66.4423 86.7333 66.2075 86.718 65.9764 86.6771V86.6771Z" fill="#5C74A5"/>
<path d="M65.6416 137.003C63.4344 136.509 61.2587 135.884 59.1261 135.13C57.1775 134.445 55.2594 133.715 53.2957 133.075C49.3833 131.781 45.471 130.472 41.5283 129.285C38.9403 128.554 36.3676 127.793 33.8102 127.002C27.8427 125.266 21.8296 123.698 15.7556 122.435C15.4408 122.37 15.1418 122.244 14.8758 122.063C14.6097 121.883 14.3819 121.651 14.2052 121.383C14.0285 121.114 13.9064 120.813 13.8459 120.498C13.7855 120.182 13.7878 119.857 13.8528 119.543C13.9177 119.228 14.0441 118.929 14.2246 118.663C14.4051 118.397 14.6363 118.169 14.9048 117.992C15.4473 117.635 16.1092 117.509 16.7451 117.64C21.4947 118.69 26.2139 119.893 30.9178 121.11C32.8055 121.613 34.7083 122.1 36.6112 122.541C38.5141 122.983 40.6453 123.333 42.7004 123.668C46.902 124.277 51.1492 124.703 55.3356 125.449C57.4477 125.856 59.5323 126.395 61.577 127.063C63.7082 127.702 65.8395 128.356 67.925 129.118C68.8356 129.456 69.5968 130.106 70.0736 130.953C70.5503 131.799 70.7118 132.787 70.5293 133.742C70.3469 134.696 69.8323 135.555 69.0769 136.166C68.3214 136.777 67.374 137.1 66.4027 137.079C66.1472 137.077 65.8924 137.051 65.6416 137.003V137.003Z" fill="#5C74A5"/>
<path d="M75.7954 136.851C75.4599 135.783 75.5595 134.625 76.0726 133.631C76.5857 132.636 77.4709 131.884 78.5356 131.538C85.3403 129.726 92.2363 128.219 99.0867 126.575C101.599 125.936 104.095 125.266 106.576 124.505C109.058 123.744 111.752 122.983 114.371 122.222C119.806 120.538 125.432 119.545 131.116 119.269C132.455 119.244 133.754 119.719 134.762 120.601C135.77 121.482 136.413 122.707 136.567 124.037C136.721 125.367 136.374 126.707 135.595 127.795C134.815 128.883 133.658 129.642 132.349 129.924C130.553 130.244 128.756 130.457 126.945 130.655C124.722 130.929 122.469 131.173 120.232 131.416C117.537 131.766 114.843 132.147 112.163 132.664C109.484 133.182 106.79 133.76 104.08 134.187C98.6605 135.207 93.2867 136.409 87.913 137.688C85.66 138.282 83.3461 138.875 81.1692 139.499C80.7685 139.615 80.3531 139.671 79.9361 139.667C79.0351 139.704 78.146 139.45 77.4004 138.943C76.6547 138.436 76.092 137.702 75.7954 136.851V136.851Z" fill="#5C74A5"/>
<path d="M74.349 190.525C74.298 190.16 74.3229 189.788 74.4221 189.433C74.5213 189.078 74.6927 188.748 74.9256 188.462C75.1585 188.176 75.4479 187.941 75.7757 187.773C76.1034 187.604 76.4625 187.504 76.8304 187.481H77.211C78.0635 187.237 78.8855 186.948 79.7076 186.644C81.4332 185.851 83.2138 185.185 85.0356 184.649V184.649L85.5684 184.512H85.7359H85.8577L86.2382 184.406L86.6949 184.284H86.5731H86.8776H87.1668H86.9689L89.3894 183.69C91.0031 183.234 92.5862 182.747 94.1694 182.168L96.5595 181.361C97.3511 181.103 98.0818 180.889 98.9343 180.646C101.979 179.763 105.023 179.367 108.068 178.621L109.392 178.286H109.225L109.88 178.119C111.402 177.647 112.772 177.16 114.203 176.597L118.146 175.074L119.927 174.374C122.18 173.4 124.387 172.35 126.64 171.33C128.893 170.31 131.207 169.473 133.414 168.513C135.622 167.554 137.981 166.443 140.204 165.317C142.426 164.19 144.466 163.247 146.582 162.272L146.872 162.12C147.456 161.948 148.083 161.991 148.639 162.24C149.195 162.489 149.644 162.929 149.904 163.48C150.165 164.03 150.221 164.656 150.061 165.244C149.901 165.832 149.537 166.344 149.033 166.687C146.872 167.798 144.725 168.909 142.548 169.99C141.437 170.538 140.341 171.071 139.214 171.512C138.088 171.954 136.885 172.487 135.713 173.035C133.445 173.948 131.146 174.877 128.954 175.866C126.762 176.855 124.387 177.951 122.012 178.91C120.323 179.565 118.572 180.083 116.852 180.661L114.066 181.59C113.168 181.894 112.254 182.122 111.341 182.366C110.428 182.61 109.545 182.747 108.647 182.914C107.748 183.081 106.942 183.173 106.104 183.295L103.334 183.721C102.436 183.873 101.553 184.101 100.654 184.299L98.4167 184.984C97.7773 185.182 97.1532 185.426 96.529 185.669C95.3112 186.126 94.0933 186.628 92.8603 187.055C91.6272 187.481 89.9527 188.014 88.476 188.455L86.3905 189.064C85.7968 189.247 85.2335 189.475 84.655 189.673C83.6199 190.13 82.6152 190.632 81.6104 191.089C80.6057 191.545 79.5705 191.911 78.5658 192.291C78.3527 192.382 78.1396 192.489 77.9112 192.565C77.6569 192.655 77.3893 192.701 77.1196 192.702C76.4741 192.729 75.8402 192.525 75.3322 192.125C74.8242 191.726 74.4755 191.159 74.349 190.525V190.525Z" fill="#5C74A5"/>
<path d="M80.56 232.905C79.8429 232.8 79.1928 232.426 78.742 231.859C78.2912 231.292 78.0737 230.574 78.1339 229.852C78.194 229.129 78.5273 228.457 79.0658 227.973C79.6043 227.488 80.3074 227.226 81.0319 227.242C81.9301 227.242 82.813 227.242 83.7112 227.242H83.3306C86.5122 227.151 89.6481 226.983 92.7993 226.679C96.3006 226.207 99.7715 225.552 103.273 225.157C106.912 224.754 110.526 224.144 114.096 223.33C116.304 222.736 118.496 222.112 120.703 221.549C122.911 220.986 124.935 220.529 127.051 220.027C130.187 219.159 133.293 218.169 136.444 217.378C137.966 216.997 139.488 216.632 141.011 216.312C142.533 215.993 143.873 215.81 145.273 215.475L146.202 215.171L147.085 214.79C147.583 214.558 148.154 214.533 148.67 214.722C149.187 214.91 149.608 215.296 149.84 215.795C150.072 216.293 150.097 216.864 149.908 217.38C149.72 217.897 149.334 218.318 148.835 218.55C146.603 219.549 144.291 220.358 141.924 220.97C140.752 221.32 139.58 221.655 138.423 222.021C137.266 222.386 136.048 222.843 134.861 223.284C132.577 224.213 130.294 225.157 127.919 225.857C125.544 226.557 122.697 227.379 120.079 228.049C117.682 228.751 115.241 229.296 112.772 229.678C110.291 230.013 107.794 230.271 105.313 230.561C103.44 230.789 101.583 231.109 99.741 231.489C98.7059 231.702 97.6859 231.931 96.6964 232.113C95.7069 232.296 94.7326 232.418 93.7584 232.539C91.5815 232.813 89.3741 232.844 87.182 232.92C86.0403 232.92 84.8833 232.92 83.7416 232.92C82.5999 232.92 81.6256 232.905 80.56 232.905Z" fill="#5C74A5"/>
<path d="M67.1637 182.747C65.8393 182.579 64.5302 182.275 63.2058 182.062C58.2735 181.407 53.2956 181.27 48.3481 180.539C45.7145 180.174 43.0809 179.778 40.4473 179.428C37.8137 179.078 35.3932 178.85 32.8358 178.484C29.7912 178.043 26.7466 177.54 23.7019 177.053C20.2006 176.505 16.6841 175.957 13.1828 175.379C12.8433 175.247 12.5623 174.998 12.3906 174.677C12.219 174.356 12.1682 173.984 12.2474 173.629C12.3266 173.273 12.5305 172.958 12.8222 172.74C13.114 172.522 13.4741 172.416 13.8374 172.441L20.9161 173.552C25.483 174.237 30.2022 175.074 34.8757 175.348C37.1287 175.501 39.4426 175.501 41.6195 175.638C43.7964 175.775 46.4604 175.957 48.8809 176.049C50.4032 176.049 51.8494 176.049 53.3412 176.049L58.2583 175.699C61.5733 175.36 64.9194 175.488 68.1989 176.079C68.9846 176.265 69.6789 176.723 70.1584 177.372C70.6379 178.022 70.8713 178.82 70.8173 179.626C70.7203 180.441 70.3361 181.196 69.7336 181.753C69.1311 182.311 68.3496 182.636 67.5291 182.67L67.1637 182.747Z" fill="#5C74A5"/>
<path d="M24.2195 221.138C21.0835 220.97 17.9628 220.742 14.8573 220.361C14.1204 220.288 13.442 219.928 12.969 219.358C12.4961 218.788 12.2666 218.055 12.3303 217.317C12.3627 216.951 12.4674 216.594 12.6383 216.268C12.8092 215.943 13.0429 215.654 13.326 215.419C13.6091 215.184 13.9359 215.008 14.2875 214.9C14.6392 214.792 15.0087 214.754 15.3749 214.79C17.3386 215.034 19.3024 215.201 21.2662 215.384C22.7885 215.521 24.3108 215.536 25.757 215.597C27.599 215.597 29.4257 215.597 31.2677 215.597C33.1097 215.597 35.1496 215.277 37.0829 215.064H36.7176C38.453 214.851 40.1732 214.607 41.8934 214.333C43.6136 214.059 45.3795 213.633 47.1301 213.283C50.6162 212.583 54.1327 212.035 57.6036 211.213C60.1763 210.528 62.7338 209.782 65.2151 208.868C65.7059 208.681 66.2298 208.596 66.7547 208.618C67.2795 208.64 67.7944 208.768 68.2679 208.996C68.7415 209.223 69.1636 209.545 69.5087 209.941C69.8538 210.337 70.1146 210.799 70.2751 211.3C70.4356 211.8 70.4925 212.327 70.4424 212.85C70.3922 213.373 70.236 213.88 69.9833 214.341C69.7306 214.801 69.3867 215.206 68.9726 215.529C68.5585 215.852 68.0828 216.088 67.5747 216.221C65.9867 216.676 64.3759 217.046 62.749 217.332C61.0745 217.652 59.3999 217.971 57.7102 218.23C54.4677 218.717 51.1947 218.991 47.9217 219.342C42.6241 219.996 37.2656 220.864 31.9984 221.153C31.1307 221.153 30.2782 221.153 29.4257 221.153C27.6446 221.305 25.8788 221.214 24.2195 221.138Z" fill="#5C74A5"/>
<path d="M21.9364 205.778C21.2897 205.722 20.6625 205.528 20.0965 205.21C19.5305 204.892 19.0389 204.458 18.6542 203.935C18.2696 203.412 18.0009 202.813 17.866 202.178C17.731 201.543 17.733 200.887 17.8718 200.252C17.8718 200.252 17.8718 200.146 17.8718 200.085C17.5643 199.23 17.4996 198.307 17.685 197.417C17.8704 196.528 18.2987 195.707 18.9222 195.046C19.6843 194.37 20.5835 193.866 21.5582 193.569C22.5329 193.273 23.5602 193.19 24.5699 193.326C26.4095 193.46 28.1562 194.186 29.5479 195.396C30.2239 196.017 30.7216 196.808 30.9892 197.686C31.2569 198.564 31.2849 199.497 31.0702 200.389C30.7532 201.342 30.2281 202.212 29.5329 202.936C28.8377 203.66 27.99 204.22 27.0513 204.576C25.5908 205.315 23.984 205.721 22.3474 205.763L21.9364 205.778Z" fill="#5C74A5"/>
<path d="M44.7707 195.868C43.7575 194.912 43.1477 193.606 43.0658 192.215C43.0035 190.798 43.5023 189.414 44.4542 188.362C45.406 187.31 46.7341 186.677 48.1502 186.598C49.5908 186.548 50.9942 187.061 52.0626 188.029C53.0758 188.985 53.6856 190.292 53.7676 191.682C53.8301 193.094 53.3354 194.474 52.39 195.525C51.4446 196.576 50.1243 197.213 48.7135 197.299C47.2625 197.357 45.8467 196.844 44.7707 195.868V195.868Z" fill="#5C74A5"/>
<path d="M31.6485 155.544C31.6162 154.874 31.7833 154.209 32.1288 153.634C32.4742 153.058 32.9823 152.598 33.5891 152.311C34.1958 152.025 34.8739 151.924 35.5377 152.023C36.2015 152.121 36.8212 152.415 37.3185 152.865C37.8158 153.316 38.1685 153.903 38.3319 154.554C38.4952 155.205 38.4621 155.89 38.2365 156.522C38.0109 157.154 37.6031 157.705 37.0645 158.105C36.526 158.505 35.8809 158.737 35.2106 158.771C34.3121 158.809 33.4349 158.491 32.7684 157.887C32.1019 157.283 31.6996 156.442 31.6485 155.544V155.544Z" fill="#5C74A5"/>
<path d="M39.5798 107.639C39.5563 107.118 39.6875 106.603 39.9568 106.158C40.2261 105.712 40.6215 105.356 41.0929 105.135C41.5643 104.914 42.0906 104.838 42.6054 104.916C43.1201 104.994 43.6002 105.223 43.985 105.574C44.3697 105.924 44.6419 106.381 44.7671 106.887C44.8922 107.392 44.8648 107.923 44.6883 108.413C44.5117 108.903 44.194 109.329 43.7752 109.638C43.3563 109.947 42.8553 110.126 42.3352 110.15C41.6407 110.168 40.9663 109.916 40.4529 109.448C39.9395 108.98 39.6267 108.332 39.5798 107.639Z" fill="#5C74A5"/>
<path d="M107.17 95.6128C106.532 95.0174 106.084 94.2477 105.881 93.3995C105.678 92.5513 105.729 91.6621 106.027 90.8426C106.326 90.0231 106.859 89.3095 107.56 88.7908C108.262 88.2721 109.1 87.9711 109.971 87.9254C111.164 87.8912 112.325 88.3162 113.213 89.1127C113.851 89.7081 114.299 90.4778 114.502 91.326C114.705 92.1742 114.654 93.0634 114.356 93.8829C114.057 94.7024 113.524 95.416 112.823 95.9347C112.122 96.4534 111.283 96.7544 110.412 96.8001C109.218 96.8439 108.054 96.4176 107.17 95.6128V95.6128Z" fill="#5C74A5"/>
<path d="M114.477 46.307C114.442 45.5766 114.624 44.8522 115 44.2252C115.377 43.5983 115.93 43.0969 116.591 42.7845C117.253 42.4721 117.992 42.3627 118.715 42.47C119.438 42.5773 120.113 42.8966 120.655 43.3875C121.197 43.8785 121.582 44.519 121.76 45.2282C121.938 45.9374 121.902 46.6835 121.656 47.3722C121.41 48.0609 120.966 48.6613 120.379 49.0976C119.792 49.5338 119.089 49.7864 118.359 49.8234C117.381 49.861 116.426 49.514 115.701 48.8567C114.975 48.1994 114.536 47.2842 114.477 46.307V46.307Z" fill="#5C74A5"/>
<path d="M100.031 65.7005C99.5968 65.6018 99.2182 65.339 98.9741 64.9672C98.73 64.5954 98.6394 64.1435 98.7213 63.7063C99.178 61.3773 99.6804 59.0634 100.244 56.7801C100.364 56.3136 100.644 55.9041 101.035 55.6232C101.362 55.3714 101.764 55.2357 102.177 55.2377C102.59 55.2396 102.99 55.3791 103.315 55.634C103.64 55.8889 103.87 56.2446 103.97 56.6452C104.07 57.0457 104.034 57.4681 103.867 57.8456L103.182 60.0834C102.786 61.6056 102.39 62.9909 102.025 64.4522C101.934 64.8271 101.723 65.1616 101.423 65.4038C101.123 65.6461 100.751 65.7824 100.365 65.7918L100.031 65.7005Z" fill="#3A3E56"/>
<path d="M109.042 61.0423C108.948 61.0078 108.862 60.9538 108.79 60.8838C108.717 60.8138 108.661 60.7294 108.623 60.636C108.586 60.5426 108.569 60.4424 108.573 60.342C108.577 60.2415 108.602 60.143 108.647 60.0529C108.936 59.4744 109.225 58.8959 109.499 58.3023C109.58 58.1492 109.718 58.0336 109.882 57.9797C110.047 57.9258 110.226 57.9377 110.382 58.013C110.539 58.0946 110.658 58.2335 110.715 58.4009C110.771 58.5683 110.761 58.7511 110.686 58.9112C110.504 59.2917 110.352 59.6723 110.184 60.0529C110.184 60.0529 110.184 60.0529 110.184 59.9768C110.093 60.1899 110.001 60.403 109.925 60.6161C109.87 60.7504 109.778 60.8662 109.659 60.9499C109.541 61.0335 109.4 61.0814 109.255 61.088C109.182 61.0842 109.11 61.0688 109.042 61.0423V61.0423Z" fill="#3A3E56"/>
<path d="M132.257 47.54C132.054 47.393 131.915 47.1733 131.87 46.9266C131.825 46.6799 131.876 46.4253 132.014 46.2156C132.729 45.1044 133.536 44.0083 134.191 42.9123C134.328 42.7068 134.539 42.562 134.78 42.5081C135.021 42.4542 135.273 42.4954 135.485 42.6231C135.695 42.768 135.839 42.9895 135.888 43.24C135.936 43.4905 135.884 43.75 135.744 43.9627C135.013 45.0587 134.221 46.1547 133.567 47.266C133.477 47.3925 133.358 47.4959 133.221 47.5674C133.083 47.6389 132.93 47.6764 132.775 47.677C132.593 47.679 132.414 47.6316 132.257 47.54V47.54Z" fill="#3A3E56"/>
<path d="M128.391 72.6419C128.293 72.4583 128.234 72.2567 128.218 72.0494C128.201 71.8421 128.227 71.6336 128.294 71.4368C128.361 71.24 128.468 71.0589 128.608 70.9049C128.747 70.7509 128.917 70.6271 129.106 70.5412C129.873 70.2113 130.675 69.9712 131.496 69.8258L133.232 69.3691C133.676 69.2783 134.138 69.3675 134.516 69.6173C134.895 69.8671 135.158 70.257 135.249 70.7011C135.34 71.1452 135.25 71.6072 135.001 71.9854C134.751 72.3637 134.361 72.6272 133.917 72.718C132.821 72.8855 131.725 73.0529 130.659 73.3117H130.811H130.644H130.507C130.323 73.4118 130.12 73.4728 129.911 73.4907C129.702 73.5087 129.491 73.4833 129.293 73.4161C129.094 73.349 128.911 73.2415 128.756 73.1004C128.601 72.9593 128.477 72.7877 128.391 72.5963V72.6419Z" fill="#3A3E56"/>
<path d="M123.732 83.3129C122.21 83.1303 120.688 82.9628 119.166 82.6736C118.948 82.6276 118.741 82.5392 118.557 82.4133C118.373 82.2874 118.216 82.1266 118.095 81.94C117.849 81.5632 117.764 81.1043 117.856 80.6642C117.949 80.2242 118.213 79.839 118.59 79.5935C118.967 79.348 119.426 79.2622 119.866 79.3551L121.556 79.6443H121.312L123.976 79.964C124.398 80.004 124.791 80.2002 125.076 80.514C125.362 80.8279 125.52 81.237 125.52 81.6613C125.52 82.0856 125.362 82.4947 125.076 82.8086C124.791 83.1224 124.398 83.3186 123.976 83.3586L123.732 83.3129Z" fill="#3A3E56"/>
<path d="M59.8109 56.232C58.8367 54.8924 57.8624 53.5681 56.8729 52.2589C56.3096 51.5435 55.7616 50.8433 55.1527 50.1887C55.0283 50.0542 54.8962 49.9271 54.7569 49.8081C54.3244 49.5602 53.9593 49.2098 53.6939 48.7877C53.4285 48.3657 53.2708 47.885 53.2346 47.3877C53.2174 46.9833 53.2843 46.5797 53.4312 46.2026C53.5781 45.8254 53.8018 45.4828 54.088 45.1966C54.3742 44.9104 54.7168 44.6868 55.094 44.5399C55.4712 44.393 55.8748 44.326 56.2792 44.3432C57.0021 44.3949 57.6777 44.7218 58.1668 45.2566C59.7328 46.7357 61.1038 48.4085 62.2466 50.2343C62.9469 51.2086 63.6167 52.2133 64.2865 53.2027C64.673 53.7989 64.8112 54.5225 64.6719 55.2192C64.5326 55.9158 64.1266 56.5306 63.5406 56.9323C63.0914 57.2341 62.5593 57.3884 62.0183 57.3737C61.5875 57.3649 61.1645 57.2574 60.7819 57.0595C60.3992 56.8616 60.067 56.5785 59.8109 56.232V56.232Z" fill="#3A3E56"/>
<path d="M62.6884 35.6207C62.1535 35.1316 61.8266 34.456 61.775 33.7331C61.7248 32.9964 61.9692 32.2699 62.4545 31.7133C62.9398 31.1567 63.6262 30.8155 64.3629 30.7647C65.1073 30.7296 65.837 30.9801 66.4028 31.465C66.8117 31.8307 67.1035 32.309 67.2416 32.84C67.3797 33.3709 67.358 33.9307 67.1791 34.4494C67.0003 34.968 66.6723 35.4222 66.2363 35.7552C65.8003 36.0882 65.2757 36.285 64.7283 36.321C63.9843 36.353 63.2557 36.1029 62.6884 35.6207V35.6207Z" fill="#3A3E56"/>
<path d="M27.6297 116.605C25.4477 114.981 23.3064 113.362 21.2056 111.749C21.0179 111.601 20.8963 111.385 20.8678 111.148C20.8392 110.911 20.906 110.673 21.0534 110.485C21.2007 110.297 21.4166 110.176 21.6536 110.147C21.8905 110.119 22.1291 110.186 22.3169 110.333C24.4024 111.962 26.5184 113.545 28.6192 115.174C28.8085 115.303 28.9388 115.503 28.9816 115.728C29.0244 115.953 28.9762 116.186 28.8476 116.376C28.765 116.493 28.6555 116.589 28.5284 116.655C28.4013 116.722 28.2602 116.756 28.1169 116.757C27.9426 116.758 27.7723 116.705 27.6297 116.605V116.605Z" fill="#3A3E56"/>
<path d="M48.3936 119.969C48.1957 119.634 47.9978 119.299 47.8151 118.949C47.6183 118.633 47.4695 118.289 47.3737 117.929C47.3217 117.623 47.3479 117.309 47.4498 117.016C47.4498 117.016 47.4498 117.016 47.4498 117.016V116.879C47.5759 116.57 47.8066 116.316 48.1014 116.162C48.3962 116.007 48.7361 115.96 49.0615 116.031C49.3869 116.102 49.6769 116.286 49.8805 116.549C50.0841 116.813 50.1883 117.14 50.1747 117.472C50.3574 117.853 50.5705 118.218 50.7684 118.599C50.8757 118.814 50.9257 119.054 50.9135 119.294C50.9013 119.534 50.8274 119.767 50.6989 119.971C50.5704 120.174 50.3916 120.341 50.1798 120.456C49.968 120.57 49.7303 120.628 49.4897 120.623C49.2666 120.615 49.0492 120.551 48.8576 120.437C48.666 120.322 48.5064 120.161 48.3936 119.969Z" fill="#3A3E56"/>
<path d="M64.3018 117.899C63.9045 117.542 63.6593 117.046 63.6168 116.513C63.5875 115.971 63.772 115.44 64.1307 115.033C64.4895 114.626 64.9937 114.376 65.5349 114.336C66.09 114.307 66.6352 114.492 67.0572 114.854C67.2544 115.03 67.415 115.242 67.53 115.48C67.6449 115.718 67.7119 115.976 67.727 116.239C67.7605 116.78 67.5794 117.311 67.2231 117.719C66.8668 118.126 66.3641 118.377 65.8241 118.416C65.269 118.446 64.7238 118.26 64.3018 117.899V117.899Z" fill="#3A3E56"/>
<path d="M46.1562 69.293C45.6539 68.197 45.182 67.1009 44.7253 65.9745C44.5122 65.4569 44.3447 64.8937 44.162 64.3609C44.073 64.0821 44.0944 63.7797 44.2219 63.5163C44.3494 63.2528 44.5732 63.0484 44.8471 62.9452C44.986 62.8974 45.1329 62.8777 45.2795 62.8871C45.4261 62.8965 45.5693 62.9349 45.701 63C45.8326 63.0651 45.9501 63.1557 46.0465 63.2665C46.1429 63.3773 46.2165 63.5061 46.2628 63.6454C46.5825 64.6044 46.9478 65.5635 47.3436 66.5072C47.3351 66.5576 47.3351 66.6091 47.3436 66.6595V66.5377C47.5111 66.9183 47.6633 67.2988 47.8308 67.6946V67.5576C47.9526 67.8316 48.0591 68.1056 48.1809 68.3644C48.251 68.4967 48.2935 68.6418 48.3061 68.791C48.3187 68.9402 48.301 69.0904 48.2541 69.2326C48.2071 69.3747 48.132 69.506 48.0331 69.6184C47.9342 69.7308 47.8136 69.822 47.6786 69.8867C47.5327 69.9613 47.3704 69.9979 47.2066 69.9932C46.9798 70.0036 46.7555 69.9413 46.5666 69.8154C46.3776 69.6894 46.2339 69.5064 46.1562 69.293Z" fill="#3A3E56"/>
<path d="M102.207 122.1C101.576 121.867 101.062 121.394 100.777 120.784C100.492 120.174 100.459 119.476 100.685 118.842C101.157 117.496 101.753 116.196 102.466 114.961C102.44 115.031 102.404 115.098 102.36 115.159C102.569 114.745 102.865 114.381 103.228 114.092C103.59 113.803 104.011 113.596 104.46 113.484C104.871 113.404 105.295 113.419 105.7 113.529C106.104 113.638 106.477 113.839 106.792 114.115C107.107 114.392 107.354 114.736 107.514 115.123C107.675 115.51 107.745 115.928 107.718 116.346C107.689 116.746 107.57 117.135 107.37 117.483C107.169 117.831 106.893 118.129 106.561 118.355C106.12 119.162 105.724 119.999 105.359 120.852C105.146 121.276 104.817 121.632 104.41 121.877C104.003 122.122 103.535 122.247 103.06 122.237C102.77 122.242 102.481 122.196 102.207 122.1V122.1Z" fill="#3A3E56"/>
<path d="M125.362 115.509C125.044 115.349 124.761 115.128 124.529 114.858C124.297 114.588 124.12 114.275 124.01 113.937C123.9 113.599 123.857 113.242 123.885 112.887C123.914 112.533 124.012 112.187 124.174 111.87C124.936 110.089 125.803 108.384 126.701 106.68C127.059 106.065 127.637 105.611 128.319 105.409C129.001 105.207 129.733 105.274 130.367 105.595C131.002 105.916 131.489 106.467 131.73 107.136C131.971 107.804 131.948 108.54 131.664 109.191C130.751 110.896 129.853 112.586 129 114.321C128.776 114.777 128.429 115.16 127.999 115.429C127.569 115.698 127.072 115.842 126.564 115.844C126.142 115.832 125.729 115.717 125.362 115.509V115.509Z" fill="#3A3E56"/>
<path d="M141.026 103.513C140.69 103.211 140.483 102.791 140.448 102.341C140.429 102.112 140.456 101.881 140.527 101.663C140.599 101.444 140.713 101.242 140.863 101.067C141.013 100.893 141.196 100.75 141.402 100.648C141.608 100.545 141.832 100.484 142.061 100.469C142.518 100.452 142.965 100.609 143.31 100.91C143.481 101.056 143.621 101.235 143.72 101.436C143.82 101.638 143.877 101.858 143.888 102.082C143.915 102.525 143.773 102.961 143.49 103.303C143.207 103.645 142.806 103.867 142.366 103.924C142.126 103.948 141.885 103.924 141.655 103.854C141.425 103.783 141.211 103.667 141.026 103.513V103.513Z" fill="#3A3E56"/>
<path d="M92.9667 178.317C92.3432 178.178 91.7985 177.801 91.4488 177.266C91.0991 176.732 90.9718 176.082 91.0943 175.455C91.3531 174.313 91.6118 173.172 91.9315 172.03C92.099 171.497 92.2512 170.949 92.4034 170.416C92.5586 169.802 92.7886 169.209 93.0885 168.65C93.424 168.05 93.9644 167.591 94.6108 167.357C95.1583 167.156 95.7573 167.145 96.3119 167.325C96.8664 167.506 97.3444 167.867 97.669 168.351C97.9937 168.836 98.1464 169.415 98.1025 169.996C98.0586 170.578 97.8207 171.128 97.4271 171.558L97.3357 171.649C96.9399 172.684 96.6355 173.735 96.331 174.8C96.1788 175.348 96.0418 175.896 95.9047 176.444C95.7793 176.983 95.4775 177.464 95.0472 177.812C94.617 178.159 94.0829 178.353 93.5299 178.362L92.9667 178.317Z" fill="#3A3E56"/>
<path d="M113.183 167.737C112.666 167.614 112.217 167.293 111.933 166.844C111.649 166.395 111.551 165.852 111.661 165.332C111.843 164.419 112.041 163.505 112.285 162.607C112.377 161.984 112.591 161.384 112.915 160.844C113.239 160.303 113.666 159.831 114.172 159.456C114.678 159.212 115.259 159.175 115.792 159.355C116.324 159.534 116.764 159.915 117.019 160.415C117.202 160.791 117.269 161.214 117.213 161.628C117.156 162.043 116.977 162.431 116.699 162.744V162.896C116.486 163.429 116.304 163.977 116.136 164.54V164.723C116.131 164.794 116.131 164.865 116.136 164.936C116.13 164.911 116.13 164.885 116.136 164.86C116.06 165.119 115.999 165.362 115.923 165.606V165.454L115.74 166.139C115.636 166.589 115.385 166.992 115.027 167.284C114.669 167.576 114.223 167.741 113.761 167.752C113.569 167.777 113.374 167.772 113.183 167.737V167.737Z" fill="#3A3E56"/>
<path d="M132.44 160.72C132.017 160.347 131.714 159.858 131.57 159.313C131.425 158.769 131.446 158.194 131.628 157.661C131.811 157.128 132.147 156.661 132.595 156.319C133.044 155.978 133.583 155.777 134.145 155.742C134.905 155.711 135.649 155.967 136.231 156.457C136.51 156.701 136.738 156.997 136.903 157.328C137.067 157.66 137.165 158.021 137.19 158.39C137.236 159.146 136.982 159.89 136.483 160.46C135.985 161.03 135.281 161.38 134.526 161.435C133.766 161.465 133.022 161.21 132.44 160.72Z" fill="#3A3E56"/>
<path d="M44.5728 168.407C44.2074 167.433 43.842 166.474 43.4463 165.53C43.4463 165.606 43.5224 165.697 43.5528 165.789C43.4158 165.469 43.2788 165.165 43.1266 164.86C42.8297 164.633 42.5927 164.337 42.4362 163.997C42.2797 163.657 42.2084 163.285 42.2284 162.912C42.2636 162.472 42.4263 162.052 42.6967 161.703C42.9671 161.354 43.3334 161.092 43.7507 160.948C44.2065 160.793 44.7 160.79 45.158 160.938C45.6159 161.086 46.014 161.378 46.293 161.77C46.9166 162.608 47.4284 163.524 47.8153 164.495C48.1502 165.21 48.5003 165.91 48.8352 166.626C49.1014 167.18 49.1405 167.817 48.9443 168.4C48.7481 168.983 48.3321 169.466 47.7848 169.746C47.4728 169.901 47.1284 169.98 46.7801 169.975C46.2968 169.967 45.8271 169.813 45.433 169.534C45.0389 169.254 44.739 168.861 44.5728 168.407V168.407Z" fill="#3A3E56"/>
<path d="M55.5032 164.129C55.3967 163.079 55.2749 162.013 55.1835 160.948C55.1565 160.539 55.2103 160.129 55.3419 159.741C55.4734 159.353 55.68 158.995 55.95 158.686C56.22 158.378 56.5481 158.126 56.9154 157.945C57.2828 157.764 57.6823 157.656 58.0911 157.629C58.5 157.602 58.9101 157.656 59.2981 157.788C59.6861 157.919 60.0445 158.126 60.3526 158.396C60.6608 158.666 60.9128 158.994 61.0941 159.361C61.2755 159.729 61.3828 160.128 61.4098 160.537C61.4098 161.602 61.4098 162.668 61.4098 163.734C61.4513 164.531 61.178 165.313 60.6486 165.91C60.1251 166.487 59.4005 166.841 58.6239 166.9H58.426C57.685 166.873 56.9792 166.577 56.4411 166.067C55.903 165.557 55.5695 164.868 55.5032 164.129Z" fill="#3A3E56"/>
<path d="M19.9268 167.783C19.9099 167.513 19.9992 167.247 20.1756 167.043C20.3519 166.838 20.6014 166.71 20.8707 166.687C21.1419 166.674 21.4075 166.767 21.6119 166.945C21.8162 167.124 21.9434 167.375 21.9667 167.646C21.9757 167.78 21.9582 167.914 21.9153 168.041C21.8724 168.168 21.8048 168.286 21.7164 168.387C21.6281 168.488 21.5207 168.571 21.4004 168.63C21.2801 168.69 21.1492 168.725 21.0153 168.734C20.8813 168.743 20.7469 168.726 20.6198 168.683C20.4926 168.64 20.3751 168.572 20.274 168.484C20.0699 168.305 19.945 168.053 19.9268 167.783V167.783Z" fill="#3A3E56"/>
<path d="M25.4375 216.388C23.0779 215.825 20.7335 215.201 18.4196 214.516L17.6737 214.349C17.3589 214.422 17.0318 214.425 16.7156 214.358C16.3994 214.291 16.1018 214.155 15.8438 213.96C15.5858 213.766 15.3737 213.517 15.2226 213.231C15.0714 212.945 14.9848 212.63 14.969 212.307C14.9531 211.984 15.0083 211.662 15.1308 211.363C15.2532 211.063 15.4399 210.795 15.6775 210.576C15.9152 210.357 16.1981 210.192 16.5062 210.095C16.8143 209.997 17.1401 209.968 17.4606 210.01C18.6154 210.125 19.751 210.386 20.8401 210.786L22.9409 211.395L26.5335 212.476C26.9829 212.639 27.3609 212.954 27.6017 213.367C27.8424 213.779 27.9307 214.264 27.8509 214.735C27.7712 215.206 27.5286 215.634 27.1654 215.945C26.8022 216.255 26.3415 216.428 25.8637 216.434C25.7204 216.434 25.5775 216.419 25.4375 216.388V216.388Z" fill="#3A3E56"/>
<path d="M50.0379 212.933C49.6573 212.476 49.2768 212.004 48.9266 211.517C48.6676 211.2 48.4667 210.839 48.3329 210.452C48.3181 210.3 48.3181 210.147 48.3329 209.995C48.3646 209.844 48.4105 209.696 48.4699 209.553V209.553C48.5152 209.4 48.6126 209.268 48.7453 209.179C48.878 209.09 49.0376 209.05 49.1966 209.066C49.3556 209.082 49.5038 209.154 49.6158 209.268C49.7277 209.382 49.7963 209.531 49.8096 209.69V209.767C49.8362 209.823 49.8722 209.874 49.9161 209.919C50.2358 210.315 50.5859 210.68 50.9361 211.045L51.3471 211.441C51.5174 211.619 51.6124 211.857 51.6124 212.103C51.6124 212.35 51.5174 212.587 51.3471 212.765C51.2557 212.863 51.1448 212.941 51.0216 212.993C50.8984 213.046 50.7655 213.072 50.6316 213.07C50.4236 213.097 50.2127 213.049 50.0379 212.933V212.933Z" fill="#3A3E56"/>
<path d="M35.3934 229.145C35.0517 228.831 34.8462 228.396 34.8206 227.932C34.795 227.469 34.9513 227.013 35.2563 226.664C36.5394 225.253 37.9915 224.005 39.5797 222.949C39.7666 222.825 39.9761 222.739 40.1962 222.696C40.4164 222.653 40.6428 222.654 40.8626 222.699C41.0824 222.743 41.2913 222.831 41.4773 222.956C41.6634 223.081 41.8229 223.242 41.9469 223.429C42.0708 223.616 42.1567 223.825 42.1997 224.045C42.2427 224.265 42.2419 224.492 42.1974 224.712C42.1528 224.931 42.0655 225.14 41.9402 225.326C41.8149 225.512 41.6543 225.672 41.4673 225.796L41.1781 226.009C40.7823 226.313 40.3865 226.618 39.9907 226.953C39.5949 227.288 39.1839 227.668 38.7881 228.049C38.3923 228.429 38.1944 228.673 37.9204 229.008C37.6062 229.35 37.171 229.555 36.7075 229.581C36.2441 229.606 35.7889 229.45 35.439 229.145H35.3934Z" fill="#3A3E56"/>
<path d="M50.997 230.956C50.6625 230.887 50.369 230.688 50.1808 230.402C49.9926 230.117 49.9248 229.769 49.9923 229.434C50.2206 228.14 50.4946 226.877 50.8143 225.628C51.134 224.38 51.4994 223.223 51.8799 222.036C52.0006 221.703 52.2465 221.431 52.5651 221.278C52.8836 221.124 53.2497 221.101 53.5849 221.214C53.915 221.338 54.1846 221.584 54.3377 221.902C54.4908 222.219 54.5156 222.583 54.407 222.919C54.2091 223.543 54.0112 224.167 53.8285 224.791V224.669V224.822C53.7067 225.278 53.5849 225.735 53.4479 226.192V226.024C53.0978 227.333 52.7933 228.643 52.5041 229.967C52.4414 230.26 52.2803 230.522 52.0476 230.71C51.8149 230.899 51.5247 231.002 51.2253 231.002L50.997 230.956Z" fill="#3A3E56"/>
<path d="M96.8184 219.981C96.5393 219.737 96.3109 219.441 96.1463 219.11C95.9818 218.778 95.8842 218.417 95.8593 218.048C95.8133 217.292 96.0671 216.548 96.5659 215.978C97.0646 215.408 97.768 215.058 98.5234 215.003C99.2835 214.973 100.028 215.228 100.609 215.719C101.04 216.086 101.352 216.574 101.505 217.119C101.658 217.665 101.644 218.244 101.466 218.781C101.288 219.319 100.953 219.792 100.505 220.138C100.057 220.485 99.515 220.69 98.9496 220.727C98.1699 220.76 97.4069 220.493 96.8184 219.981Z" fill="#3A3E56"/>
<path d="M123.474 208.975C123.277 208.802 123.117 208.592 123.002 208.357C122.887 208.122 122.82 207.866 122.804 207.605C122.779 207.082 122.959 206.569 123.306 206.177C123.653 205.785 124.139 205.543 124.661 205.504C125.215 205.466 125.762 205.646 126.184 206.007C126.568 206.357 126.802 206.842 126.838 207.361C126.857 207.623 126.824 207.886 126.74 208.136C126.657 208.385 126.525 208.615 126.352 208.813C126.18 209.011 125.97 209.173 125.735 209.29C125.499 209.406 125.243 209.475 124.981 209.493C124.43 209.525 123.889 209.339 123.474 208.975Z" fill="#3A3E56"/>
<path d="M132.897 213.816C132.604 213.359 132.501 212.807 132.609 212.275C132.717 211.744 133.028 211.275 133.476 210.969C133.841 210.695 134.206 210.421 134.587 210.162C134.81 209.994 135.065 209.873 135.337 209.807C135.608 209.741 135.89 209.731 136.166 209.778C136.442 209.824 136.705 209.927 136.939 210.078C137.174 210.23 137.375 210.428 137.531 210.66C137.686 210.893 137.793 211.154 137.844 211.429C137.895 211.704 137.889 211.986 137.827 212.259C137.766 212.531 137.649 212.788 137.484 213.014C137.32 213.24 137.111 213.43 136.87 213.572L135.744 214.394C135.427 214.629 135.042 214.752 134.648 214.744C134.302 214.743 133.963 214.658 133.658 214.496C133.353 214.334 133.092 214.101 132.897 213.816V213.816Z" fill="#3A3E56"/>
<path d="M115.695 240.044L114.173 239.816L113.153 239.725C112.495 239.678 111.882 239.372 111.449 238.874C111.017 238.376 110.8 237.726 110.847 237.068C110.893 236.41 111.199 235.797 111.697 235.365C112.195 234.932 112.845 234.716 113.503 234.762C114.584 234.884 115.665 235.082 116.73 235.31C117.356 235.445 117.903 235.821 118.253 236.357C118.604 236.893 118.729 237.544 118.603 238.172C118.485 238.726 118.177 239.221 117.732 239.572C117.287 239.922 116.733 240.106 116.167 240.09L115.695 240.044Z" fill="#3A3E56"/>
<path d="M92.0688 244.215C91.9065 244.08 91.774 243.913 91.6797 243.725C91.5853 243.536 91.5312 243.33 91.5208 243.119C91.5085 242.907 91.5381 242.695 91.608 242.494C91.6778 242.294 91.7866 242.109 91.928 241.951C92.0695 241.792 92.2407 241.663 92.4321 241.571C92.6234 241.479 92.8311 241.426 93.0431 241.414C93.4705 241.389 93.891 241.531 94.2153 241.81C94.3748 241.946 94.5045 242.114 94.5961 242.302C94.6878 242.491 94.7396 242.697 94.7481 242.906C94.7625 243.118 94.7343 243.332 94.6652 243.533C94.5961 243.734 94.4875 243.92 94.3456 244.079C94.2038 244.238 94.0317 244.366 93.8394 244.458C93.6471 244.549 93.4385 244.601 93.2258 244.611C92.8031 244.636 92.3876 244.494 92.0688 244.215V244.215Z" fill="#3A3E56"/>
</svg>
