<svg width="159" height="206" viewBox="0 0 159 206" fill="none" xmlns="http://www.w3.org/2000/svg">
<g clip-path="url(#clip0_690_2870)">
<path d="M95.1652 138.388C93.2373 138.33 91.3719 137.819 89.5384 137.248C89.516 137.154 89.4924 137.061 89.4688 136.966C89.2967 136.26 89.1387 135.554 89.0101 134.848C88.9547 134.452 88.9087 134.057 88.8757 133.659C88.8757 133.455 88.8757 133.251 88.8875 133.044C88.8993 132.837 88.9512 132.644 88.9913 132.443C89.0491 132.237 89.1179 132.035 89.1976 131.838C89.1681 131.922 89.1339 132.005 89.1033 132.091C89.2318 131.78 89.371 131.479 89.529 131.178C90.3638 129.713 91.4427 128.425 92.3589 127.011C93.242 125.655 94.1618 124.33 94.953 122.908C95.7784 121.422 96.6037 119.936 97.3419 118.403C98.2769 116.466 99.1507 114.491 100.149 112.591C100.493 111.965 100.869 111.357 101.275 110.769C101.464 110.534 101.65 110.298 101.851 110.073C102.016 109.91 102.186 109.749 102.363 109.597C102.494 109.497 102.624 109.402 102.765 109.314L102.573 109.432C102.711 109.34 102.854 109.257 103.003 109.182C103.184 109.103 103.371 109.03 103.559 108.967C104.373 108.731 105.201 108.562 106.023 108.368C106.72 108.201 107.408 108.015 108.099 107.826C110.575 107.131 112.872 106.061 114.876 104.431C117.162 102.549 118.978 100.162 120.182 97.4592L120.231 97.3415L120.245 97.3109C120.257 97.2838 120.268 97.2579 120.28 97.232C120.285 97.2176 120.291 97.2034 120.298 97.1896C120.311 97.1567 120.326 97.1249 120.34 97.0931L120.361 97.0401C120.369 97.0189 120.379 97.0001 120.387 96.9801C120.395 96.9601 120.403 96.9365 120.413 96.9165C120.422 96.8965 120.423 96.8918 120.428 96.8788C121.47 94.3633 122.138 91.5099 121.411 88.8378C121.058 87.5123 120.197 86.1562 118.909 85.5641C118.572 85.4088 118.218 85.2904 117.855 85.211L117.722 85.1839C117.545 85.149 117.366 85.1246 117.187 85.1109C117.053 85.1004 116.918 85.0945 116.783 85.0945H116.681C116.243 85.1048 115.807 85.1668 115.384 85.2793C115.331 85.2922 115.278 85.3075 115.225 85.3228L115.121 85.3534C113.768 85.7701 112.535 86.5847 111.378 87.384C110.834 87.7607 110.298 88.1527 109.759 88.5423C108.952 89.1226 108.151 89.7195 107.341 90.2986L106.915 90.6059C107.281 89.7701 107.631 88.9343 107.968 88.0832C108.96 85.6303 109.602 83.0508 109.877 80.42C109.954 79.6572 110.012 78.8615 110.012 78.0657C110.012 76.1246 109.684 74.167 108.455 72.6509C108.415 72.6003 108.373 72.5497 108.329 72.5002L108.317 72.4861L108.281 72.4449L108.255 72.4166L108.204 72.3613L108.17 72.3248L108.145 72.2989C108.126 72.2777 108.105 72.2565 108.085 72.2365C107.495 71.6409 106.788 71.2948 106.018 70.9994C105.784 70.9144 105.541 70.8586 105.294 70.8334C105.156 70.8181 105.017 70.8098 104.877 70.8063H104.709H104.623C104.424 70.8063 104.226 70.8181 104.033 70.8275C103.387 70.8569 102.706 71.11 102.133 71.3902C101.551 71.6746 101.009 72.0331 100.52 72.4567C98.4373 74.2565 96.9386 76.5602 95.6298 78.9521C94.5249 80.9733 93.5286 83.058 92.6254 85.1804C91.7516 87.231 90.8567 89.2792 90.0218 91.3463C89.1174 93.5722 88.2225 95.7959 87.3098 98.0183C86.4396 100.137 85.4798 102.218 84.4905 104.291C83.5779 106.21 82.6039 108.103 81.7078 110.03C80.7303 112.149 79.7775 114.279 78.6762 116.335C78.4781 116.69 78.2647 117.037 78.036 117.374C78.0242 117.392 78.0088 117.407 77.997 117.425C77.9927 117.412 77.9876 117.4 77.9817 117.388C77.4299 115.526 77.0679 113.621 76.7083 111.714C76.2213 108.51 75.798 105.298 75.278 102.097C75.1601 101.346 75.028 100.599 74.9148 99.8452C74.7969 99.046 74.6412 98.2467 74.5611 97.4403C74.475 96.6163 74.3406 95.7723 74.3075 94.9401C74.2769 94.1459 74.2454 93.3525 74.2132 92.5599C74.2344 90.3987 74.2769 88.2469 74.3712 86.0856C74.4231 84.8794 74.473 83.6725 74.521 82.4647C74.5563 81.563 74.5905 80.6543 74.5941 79.7444C74.5941 79.5713 74.5941 79.3912 74.5941 79.2241V79.1711C74.5941 79.1381 74.5941 79.104 74.5941 79.0699C74.5941 78.8203 74.5835 78.5707 74.5729 78.3224L74.5658 78.1164C74.495 76.6143 74.3795 75.0275 73.8406 73.6091C73.402 72.4625 72.7476 71.216 71.6486 70.5685C71.4773 70.4679 71.301 70.376 71.1204 70.2931C70.5853 70.0414 70.0061 69.897 69.4153 69.8681C69.3635 69.8681 69.3116 69.8681 69.2585 69.8681H69.1795C68.92 69.8728 68.6617 69.9036 68.4084 69.9599C67.2875 70.2168 66.2662 70.7949 65.47 71.6232C64.5757 72.5316 63.8478 73.5894 63.3192 74.7486C63.069 75.3127 62.8475 75.889 62.6554 76.4754C62.6094 76.4024 62.5646 76.3271 62.5186 76.2506C61.514 74.6308 60.1733 73.0288 58.4117 72.2048C58.2431 72.1259 58.0744 72.0529 57.9035 71.9893C57.1958 71.7159 56.4464 71.5657 55.6879 71.5455H55.4969H55.419H55.3377C54.4527 71.58 53.5832 71.7884 52.779 72.1588C51.0044 72.9499 49.4774 74.4837 48.7393 76.2906C48.04 77.9939 47.678 79.8715 47.9021 81.7137C47.9015 81.7184 47.9015 81.7231 47.9021 81.7278C47.908 81.7761 47.915 81.8244 47.9221 81.8738C48.1709 83.6701 48.7617 85.4052 50.1566 86.6401C50.9265 87.3228 51.8074 87.8337 52.7106 88.3175C53.036 89.663 53.4181 90.9943 53.819 92.3198C54.3366 94.0337 54.8566 95.7606 55.5877 97.3956C55.7669 97.7817 55.9414 98.1678 56.1171 98.5539L56.0994 98.5174C56.123 98.5751 56.1501 98.6351 56.1784 98.6881C56.1911 98.7125 56.2021 98.7376 56.2114 98.7635C56.2127 98.7673 56.2127 98.7714 56.2114 98.7752C56.2114 98.7752 56.2114 98.7823 56.2185 98.7846C56.2185 98.7846 56.2185 98.7846 56.2185 98.7917C56.2621 98.8882 56.3069 98.9824 56.3494 99.0801L56.4225 99.2414C56.38 99.1437 56.334 99.046 56.2916 98.9494C56.6453 99.7334 57.0804 100.48 57.4825 101.244C57.8481 101.931 58.2144 102.618 58.5815 103.305C58.6121 103.374 58.6451 103.441 58.6758 103.511C58.6664 103.487 58.6546 103.463 58.6451 103.438L59.3845 105.055C59.3793 105.041 59.3734 105.027 59.3668 105.013C59.4281 105.147 59.4847 105.28 59.5495 105.413C59.6675 105.674 59.7476 105.952 59.8514 106.219C60.0483 106.748 60.2464 107.279 60.441 107.81C60.8407 108.881 61.172 109.979 61.5246 111.067C61.8783 112.137 62.2321 113.203 62.5858 114.271C63.2933 116.41 64.0585 118.536 64.7837 120.672C65.4912 122.755 66.135 124.863 66.8389 126.948C67.1608 127.902 67.4957 128.831 67.8766 129.766C67.9733 130.001 68.0688 130.244 68.1643 130.485C68.2893 130.797 68.4131 131.11 68.5392 131.427L68.6194 131.628C67.4167 132.126 66.181 132.57 64.957 132.983C64.0774 133.284 63.1883 133.622 62.2898 133.859C61.2027 134.141 60.1191 134.366 59.0177 134.579C57.589 134.831 56.1382 134.937 54.688 134.895C52.4075 134.85 50.1908 134.245 48.1355 133.284C47.1903 132.846 46.2959 132.306 45.4683 131.674C44.5852 131.002 43.8518 130.144 43.1372 129.309C42.2175 128.23 41.556 126.868 40.9711 125.58C40.1858 123.84 39.4984 121.972 39.1058 120.099C38.2804 116.193 37.659 112.142 38.0646 108.145C38.0823 107.953 38.1094 107.765 38.1436 107.58C37.8028 107.604 37.4573 107.629 37.1107 107.646C34.449 107.791 31.7865 107.377 29.2954 106.43C27.0956 105.562 25.0157 104.417 23.1061 103.024C21.1971 101.65 19.544 99.9229 18.4721 97.817C17.4463 95.7982 17.0984 93.5193 16.9923 91.2815C16.9381 90.1044 17.069 88.9025 17.1998 87.7324C17.3761 86.3202 17.6901 84.9285 18.1373 83.5771C18.8447 81.3582 19.992 79.2029 21.3209 77.2877C18.9517 76.6625 16.6439 75.8253 14.4254 74.7862C12.0081 73.675 9.66402 72.3743 7.56045 70.7416C3.67285 67.7293 1.55395 63.0583 0.567019 58.3615C0.0763539 56.068 -0.0954494 53.7179 0.0564548 51.3776C0.241578 48.676 0.862981 46.1275 1.82515 43.6084C3.73063 38.6103 7.03456 34.0865 10.8762 30.402C14.5315 26.8942 18.9379 24.0455 23.77 22.4693C26.2647 21.6622 28.8947 21.3554 31.5086 21.5664C32.6039 21.6558 33.689 21.8422 34.7512 22.1232C34.7607 19.9043 35.2229 17.676 35.9032 15.5724C36.6652 13.2144 37.8733 11.0241 39.4619 9.12049C40.8992 7.40892 42.7339 6.03755 44.7137 5.01697C46.9956 3.81473 49.4896 3.06634 52.0573 2.81335C55.5146 2.49731 58.9744 3.39118 61.8441 5.34186C64.5962 7.24177 66.7965 9.90446 68.5215 12.7496C68.5546 12.8038 68.5876 12.8673 68.6253 12.9168C68.744 12.6554 68.8678 12.3961 68.9967 12.1387C70.4188 9.24762 72.3797 6.76149 74.9337 4.79213C77.5608 2.76745 80.7114 1.64563 83.9092 0.886372C87.312 0.0743131 90.8241 -0.182486 94.3092 0.125937C97.2711 0.387263 100.264 1.36665 102.727 3.03819C105.483 4.90161 107.444 7.67025 108.871 10.6366C109.079 11.0651 109.275 11.5046 109.461 11.955C109.658 11.8008 109.854 11.6455 110.051 11.496C111.71 10.227 113.423 8.99806 115.378 8.22586C117.244 7.48779 119.236 7.1111 121.224 6.88038C122.61 6.70937 124.011 6.69476 125.4 6.83683C127.148 7.0287 128.844 7.69497 130.336 8.60254C132.074 9.66197 133.566 11.0486 135.015 12.4683C136.41 13.8361 137.845 15.1604 139.26 16.5082C140.69 17.8612 142.012 19.3233 143.215 20.8813C144.394 22.4116 145.337 24.142 146.163 25.8936C148.002 29.8205 148.589 34.103 148.842 38.3913C148.891 39.2671 148.934 40.157 148.903 41.0352C148.878 41.7591 148.83 42.4737 148.754 43.1941C148.647 44.2335 148.345 45.2152 148.002 46.197C147.795 46.7855 147.466 47.3458 147.186 47.8967C147.112 48.038 147.036 48.1781 146.957 48.3182C147.496 48.5042 148.026 48.716 148.553 48.9538C151.147 50.1204 153.75 51.713 155.355 54.1121C156.566 55.9225 157.23 57.9319 157.64 60.0566C157.848 61.1361 157.896 62.2638 157.973 63.3526C158.036 64.3014 158.091 65.2467 158.125 66.1943C158.159 67.1419 158.031 68.1271 157.9 69.0794C157.626 71.0947 156.916 73.1029 156.164 74.9816C155.846 75.7866 155.475 76.5696 155.053 77.3253C155.335 77.5957 155.594 77.8895 155.827 78.2035C156.467 79.0815 157.014 80.0241 157.459 81.0157C157.996 82.1928 158.262 83.4712 158.512 84.7295C158.889 86.6224 158.944 88.5894 158.983 90.5129C159.054 94.3324 158.648 98.1458 157.775 101.865C157.552 102.835 157.336 103.829 156.971 104.756C156.607 105.696 156.19 106.613 155.72 107.504C154.681 109.467 153.216 111.073 151.527 112.497C150.465 113.394 149.18 114.13 147.928 114.726C146.534 115.388 145.127 116.005 143.683 116.534C142.238 117.062 140.778 117.537 139.289 117.926C137.941 118.279 136.577 118.564 135.21 118.841C133.568 119.202 131.903 119.453 130.228 119.592C128.92 119.682 127.589 119.722 126.298 119.521C126.249 119.813 126.192 120.102 126.128 120.393C125.641 122.63 124.822 124.78 123.698 126.775C122.668 128.597 121.231 130.12 119.618 131.436C117.876 132.859 115.761 133.853 113.733 134.795C111.833 135.676 109.891 136.518 107.894 137.163C106.875 137.5 105.834 137.768 104.779 137.965C103.438 138.195 102.083 138.334 100.724 138.383C99.8711 138.418 99.0151 138.433 98.1567 138.433C97.1603 138.439 96.1604 138.418 95.1652 138.388Z" fill="#81ACD2"/>
<path d="M35.574 53.2728C34.6696 53.2481 33.9327 52.8502 33.2901 52.2392C32.9693 51.9367 32.6616 51.6236 32.3468 51.3128C32.3126 51.2905 32.2772 51.2669 32.2442 51.2434C32.0308 51.1001 31.8332 50.9348 31.6546 50.7502C31.381 50.4615 31.1628 50.1252 31.0108 49.7578C30.9253 49.565 30.8574 49.3649 30.808 49.1598C30.7779 49.0337 30.7551 48.906 30.7396 48.7773L30.729 48.7043C30.6193 47.626 31.012 46.4736 31.835 45.7555C32.6993 45.0022 33.7016 44.7291 34.8335 44.8562C36.2403 45.0139 37.2543 46.0828 37.6234 47.3459L38.0431 47.8285C39.2022 49.1634 39.2058 51.1751 37.8757 52.4099C37.277 52.9637 36.4916 53.2725 35.6754 53.2751L35.574 53.2728Z" fill="#5C74A5"/>
<path d="M45.3164 36.256C45.36 34.8905 46.5049 33.8723 47.8444 33.8723C49.1839 33.8723 50.2676 35.0882 50.2298 36.3949C50.1886 37.7592 49.0436 38.7774 47.7041 38.7774C46.3646 38.7774 45.2787 37.5591 45.3164 36.256Z" fill="#5C74A5"/>
<path fill-rule="evenodd" clip-rule="evenodd" d="M16.682 42.2229C16.6937 41.9425 16.7883 41.6719 16.9537 41.4449C17.1191 41.218 17.348 41.045 17.6117 40.9476C17.8753 40.8502 18.1619 40.8328 18.4355 40.8976C18.709 40.9624 18.9572 41.1065 19.1489 41.3118C19.3407 41.517 19.4673 41.7743 19.513 42.0512C19.5586 42.3281 19.5213 42.6124 19.4055 42.8681C19.2898 43.1239 19.101 43.3398 18.8627 43.4887C18.6244 43.6376 18.3473 43.7128 18.0663 43.705C17.6859 43.6915 17.3265 43.5278 17.067 43.2499C16.8074 42.972 16.6689 42.6027 16.682 42.2229V42.2229Z" fill="#5C74A5"/>
<path d="M21.1735 64.6804C21.2301 62.724 22.875 61.2667 24.7958 61.2667C26.7166 61.2667 28.2754 63.0089 28.2153 64.8841C28.1575 66.8417 26.5138 68.2978 24.593 68.2978C22.6722 68.2978 21.1145 66.5568 21.1735 64.6804Z" fill="#5C74A5"/>
<path d="M49.9467 47.759C49.9997 46.0086 51.4701 44.6984 53.1904 44.6984C54.9108 44.6984 56.3022 46.2581 56.2503 47.9356C56.1984 49.686 54.7269 50.9961 53.0077 50.9961C51.2885 50.9961 49.896 49.44 49.9467 47.759Z" fill="#5C74A5"/>
<path d="M109.267 32.8199C108.119 32.4668 107.593 31.2896 107.873 30.1784C108.293 28.5092 108.784 26.8565 109.362 25.2344C109.767 24.1126 110.926 23.4299 112.106 23.7936C113.205 24.1314 113.957 25.411 113.548 26.5293C112.958 28.1467 112.464 29.7935 111.913 31.4227C111.772 31.8504 111.5 32.2235 111.136 32.49C110.772 32.7564 110.334 32.903 109.883 32.9094C109.674 32.9105 109.467 32.8803 109.267 32.8199V32.8199Z" fill="#5C74A5"/>
<path d="M126.696 31.9841C125.413 31.7722 124.445 30.4892 124.692 29.1908C124.763 28.8294 124.836 28.4692 124.917 28.109C124.945 27.9913 124.975 27.863 125.004 27.7394C125.004 27.75 124.998 27.7605 124.996 27.7711L125.007 27.7288C125.029 27.6311 125.053 27.5345 125.076 27.438C125.057 27.5098 125.04 27.5828 125.023 27.6546C125.057 27.5028 125.095 27.3533 125.134 27.2038C125.471 25.8689 127.034 25.1485 128.298 25.5405C128.934 25.7442 129.464 26.189 129.775 26.7792C130.085 27.3695 130.152 28.0579 129.959 28.6964C129.789 29.2367 129.605 29.7723 129.417 30.3067C129.063 31.3155 128.148 32.0171 127.093 32.0171C126.96 32.0168 126.827 32.0058 126.696 31.9841Z" fill="#5C74A5"/>
<path d="M116.419 46.0521C116.441 45.5144 116.673 45.0067 117.065 44.6371C117.457 44.2675 117.978 44.0652 118.517 44.0734C119.628 44.0734 120.533 45.0833 120.5 46.1675C120.477 46.7054 120.245 47.2133 119.853 47.5829C119.461 47.9526 118.94 48.1547 118.401 48.1463C117.29 48.1451 116.386 47.1375 116.419 46.0521Z" fill="#5C74A5"/>
<path d="M144.433 64.7805L144.066 64.7264C143.263 64.6805 142.459 64.6652 141.654 64.6734C141.576 64.6764 141.498 64.6641 141.425 64.6371C141.352 64.6101 141.285 64.5691 141.228 64.5162C141.17 64.4634 141.124 64.3998 141.092 64.3291C141.059 64.2584 141.041 64.182 141.038 64.1042C141.035 64.0265 141.047 63.9489 141.074 63.8759C141.101 63.8029 141.142 63.736 141.195 63.6788C141.248 63.6217 141.312 63.5756 141.382 63.543C141.453 63.5105 141.53 63.4922 141.608 63.4892C142.079 63.4397 142.551 63.3856 143.03 63.3279C143.367 63.2879 143.702 63.2243 144.04 63.1725C144.007 63.1758 143.973 63.1809 143.94 63.1878L144.375 63.0784C144.495 63.0493 144.621 63.0461 144.742 63.0692C144.864 63.0923 144.979 63.1411 145.08 63.2123C145.181 63.2834 145.266 63.3754 145.329 63.4819C145.392 63.5885 145.431 63.7072 145.444 63.8301C145.457 63.953 145.444 64.0772 145.405 64.1945C145.366 64.3118 145.302 64.4195 145.218 64.5103C145.134 64.601 145.032 64.6728 144.918 64.7209C144.803 64.7689 144.68 64.792 144.557 64.7888C144.515 64.7889 144.474 64.7861 144.433 64.7805V64.7805Z" fill="#5C74A5"/>
<path d="M137.626 82.3081L137.154 82.2081C136.003 81.9726 135.184 80.9262 135.386 79.7361C135.587 78.546 136.698 77.822 137.862 77.9703C138.023 77.9927 138.184 78.0104 138.345 78.028C139.524 78.1681 140.321 79.4029 140.133 80.5271C139.968 81.5253 139.041 82.3528 138.023 82.3528C137.89 82.3523 137.756 82.3373 137.626 82.3081V82.3081Z" fill="#5C74A5"/>
<path d="M137.983 92.7071C138.023 91.3969 139.125 90.4187 140.41 90.4187C141.694 90.4187 142.739 91.5864 142.703 92.8413C142.663 94.1514 141.56 95.1296 140.276 95.1296C138.992 95.1296 137.946 93.9631 137.983 92.7071Z" fill="#5C74A5"/>
<path d="M87.4171 205.502C87.0821 205.337 86.7598 205.148 86.4526 204.936C85.4893 205.025 84.4646 204.511 84.1592 203.541C83.971 202.884 83.8687 202.205 83.855 201.521C83.7889 201.362 83.7217 201.202 83.6569 201.04C83.5061 200.654 83.4408 200.24 83.4654 199.827C83.49 199.413 83.604 199.01 83.7996 198.645C83.7889 198.278 83.7795 197.906 83.7665 197.539C83.7029 196.45 83.6486 195.36 83.5838 194.271C83.5142 193.058 83.3833 191.848 83.2855 190.636C83.1239 188.682 82.8751 186.724 82.5957 184.778C81.9519 180.275 81.3128 175.77 80.6336 171.268C80.248 169.195 79.8518 167.126 79.3707 165.074C78.7898 162.603 78.1778 160.14 77.5348 157.685C76.9901 155.594 76.3746 153.521 75.7661 151.446C75.1601 149.394 74.5693 147.343 73.955 145.297C73.6979 144.444 73.4362 143.591 73.1838 142.736C72.7935 141.608 72.408 140.483 72.0177 139.355C71.8384 138.836 71.5908 138.331 71.3786 137.825C71.1769 137.338 70.9883 136.846 70.7725 136.366L70.7643 136.347C70.7667 136.352 70.7687 136.357 70.7702 136.363C70.7675 136.356 70.7643 136.351 70.7607 136.345C70.7607 136.336 70.7607 136.326 70.7525 136.318C70.7516 136.321 70.7516 136.323 70.7525 136.326C70.7516 136.323 70.7516 136.321 70.7525 136.318C70.7525 136.318 70.7525 136.318 70.7525 136.308C70.7525 136.299 70.7525 136.308 70.7525 136.318C70.2289 135.178 69.6995 134.038 69.1783 132.904C68.7161 131.874 68.3164 130.816 67.8931 129.774C67.5134 128.841 67.1785 127.91 66.8554 126.956C66.148 124.871 65.51 122.762 64.8002 120.679C64.0762 118.543 63.311 116.418 62.6023 114.278C62.2462 113.212 61.8925 112.144 61.5411 111.074C61.1873 109.986 60.856 108.889 60.4563 107.817C60.2582 107.287 60.0617 106.757 59.8667 106.227C59.763 105.959 59.6804 105.683 59.5649 105.421C59.5047 105.287 59.447 105.154 59.3821 105.02C59.388 105.035 59.3951 105.047 59.401 105.062C59.1533 104.526 58.9081 103.984 58.6617 103.446C58.6699 103.47 58.6829 103.494 58.6911 103.519C58.6617 103.448 58.6275 103.383 58.5968 103.312C58.2289 102.624 57.8626 101.937 57.4978 101.251C57.0958 100.491 56.6607 99.7405 56.3069 98.9565C56.3506 99.053 56.3954 99.1507 56.4378 99.2484C56.4142 99.1931 56.3906 99.1425 56.3647 99.0872C56.3234 98.9895 56.2774 98.8953 56.2338 98.7988C56.2338 98.7988 56.2338 98.7988 56.2338 98.7917C56.2338 98.7846 56.2338 98.7858 56.2338 98.7835C56.2329 98.7788 56.2308 98.7743 56.2279 98.7705C56.2185 98.747 56.2055 98.7187 56.1937 98.6952C56.1666 98.6375 56.1395 98.5833 56.1147 98.5245C56.1203 98.537 56.1266 98.5492 56.1336 98.561C55.9567 98.1749 55.7799 97.7888 55.603 97.4027C54.8731 95.7688 54.3519 94.0419 53.8343 92.328C53.4322 91.0026 53.0525 89.6712 52.7271 88.3257C51.825 87.8419 50.9419 87.3322 50.1719 86.6483C48.777 85.4111 48.1862 83.6784 47.9374 81.882C47.8803 81.469 47.8519 81.0524 47.8525 80.6355C47.8677 79.1452 48.1737 77.6722 48.7534 76.2989C49.4892 74.4931 51.0185 72.9581 52.7931 72.1671C53.6756 71.7533 54.6398 71.5427 55.6147 71.5506C56.5896 71.5586 57.5503 71.7849 58.4258 72.213C60.1886 73.037 61.5281 74.6391 62.5327 76.2588C62.5787 76.3354 62.6247 76.4119 62.6707 76.4837C62.8617 75.8951 63.0846 75.323 63.3334 74.758C63.8608 73.5967 64.5883 72.5368 65.4829 71.6268C66.2798 70.7992 67.3008 70.2213 68.4213 69.9635C69.5627 69.7092 70.6746 69.9953 71.6604 70.5756C72.7593 71.223 73.4149 72.4684 73.8524 73.615C74.3924 75.0346 74.5068 76.6202 74.5776 78.1222C74.6011 78.6626 74.6106 79.2076 74.6106 79.7514C74.6106 80.6602 74.574 81.5689 74.5375 82.4718C74.4887 83.6788 74.4392 84.8853 74.3889 86.0915C74.2946 88.2527 74.2521 90.4046 74.2297 92.5658C74.2627 93.3592 74.2946 94.1526 74.3252 94.946C74.3583 95.7782 74.4915 96.6163 74.5776 97.4474C74.6589 98.2526 74.8134 99.0519 74.9313 99.8511C75.0492 100.605 75.1671 101.352 75.2933 102.103C75.8145 105.305 76.2366 108.516 76.7248 111.72C77.0785 113.63 77.4452 115.532 77.997 117.395C78.0031 117.407 78.0083 117.418 78.0124 117.431C78.0242 117.413 78.0395 117.398 78.0525 117.38C78.2797 117.043 78.4927 116.696 78.6916 116.341C79.7929 114.285 80.7468 112.149 81.7243 110.037C82.6181 108.11 83.5932 106.216 84.5059 104.298C85.4951 102.224 86.455 100.147 87.3252 98.0242C88.2355 95.8018 89.1316 93.5781 90.0372 91.3533C90.8732 89.2863 91.7658 87.2333 92.6395 85.1863C93.5439 83.0674 94.5391 80.9792 95.6439 78.958C96.954 76.5661 98.4514 74.2624 100.535 72.4626C101.024 72.0387 101.566 71.6802 102.148 71.3961C102.72 71.1159 103.401 70.864 104.048 70.8334C104.694 70.8028 105.412 70.7734 106.032 71.0064C106.803 71.2984 107.513 71.6491 108.1 72.2436C109.633 73.8033 110.031 75.9457 110.027 78.0705C110.027 78.8697 109.969 79.6655 109.893 80.4247C109.618 83.0552 108.975 85.6343 107.984 88.0868C107.646 88.9378 107.296 89.7736 106.931 90.6094L107.356 90.3022C108.167 89.7218 108.968 89.125 109.775 88.5459C110.314 88.1562 110.849 87.7642 111.394 87.3875C112.552 86.5883 113.785 85.7737 115.136 85.3582C116.424 84.9626 117.696 85.005 118.924 85.57C120.211 86.1586 121.066 87.5182 121.426 88.8437C121.628 89.6021 121.731 90.3836 121.731 91.1685C121.74 93.3333 121.06 95.5145 120.198 97.4604C118.995 100.164 117.178 102.55 114.892 104.433C112.888 106.062 110.589 107.132 108.114 107.829C107.423 108.019 106.736 108.202 106.038 108.369C105.213 108.564 104.387 108.734 103.575 108.968C103.386 109.032 103.201 109.105 103.018 109.184C102.87 109.258 102.726 109.342 102.588 109.433L102.78 109.315C102.641 109.404 102.51 109.498 102.379 109.598C102.202 109.75 102.025 109.911 101.867 110.076C101.666 110.303 101.479 110.535 101.291 110.771C100.884 111.361 100.508 111.97 100.165 112.598C99.1672 114.498 98.2934 116.474 97.3572 118.41C96.6214 119.94 95.7901 121.428 94.9683 122.914C94.1795 124.336 93.2597 125.661 92.3742 127.017C91.4545 128.43 90.3756 129.725 89.5443 131.184C89.3863 131.486 89.246 131.787 89.1186 132.097C89.1481 132.012 89.1823 131.929 89.2129 131.845C89.1329 132.042 89.0636 132.244 89.0054 132.449C88.9665 132.65 88.93 132.85 88.9017 133.051C88.8934 133.257 88.8899 133.461 88.8899 133.665C88.9229 134.062 88.9689 134.458 89.0243 134.853C89.2884 136.306 89.6752 137.747 90.0584 139.172C90.4416 140.598 90.8201 142.008 91.2069 143.424C91.8731 145.862 92.5711 148.279 93.301 150.694C93.3104 150.727 93.3234 150.761 93.3317 150.794C93.6158 151.697 93.9012 152.6 94.1806 153.502C94.1476 153.384 94.1111 153.277 94.078 153.164C94.6079 154.847 95.1558 156.524 95.7218 158.194C96.2276 159.686 96.8667 161.127 97.5129 162.565C98.0211 163.632 98.5175 164.695 98.9856 165.778C99.4718 166.863 99.8862 167.978 100.226 169.117C100.393 169.705 100.563 170.304 100.731 170.898C100.883 171.433 100.983 171.983 101.102 172.527C101.335 173.591 101.511 174.666 101.629 175.749C101.874 177.977 101.916 180.223 101.754 182.458C101.574 184.896 101.307 187.313 100.954 189.732C100.734 191.252 100.463 192.756 100.153 194.26C99.824 195.862 99.2721 197.37 98.6425 198.874C98.3032 199.655 97.9137 200.413 97.4763 201.144C96.4929 202.848 95.0532 204.312 93.2656 205.155C92.3579 205.566 91.3931 205.837 90.4039 205.96C90.1768 205.99 89.9479 206.005 89.7188 206.005C88.9236 206.011 88.1371 205.839 87.4171 205.502V205.502Z" fill="#5C74A5"/>
<path d="M129.456 106.212C128.277 105.607 127.917 103.948 128.84 102.954C129.12 102.653 129.398 102.353 129.666 102.042C130.079 101.561 130.575 101.206 131.227 101.148C131.842 101.094 132.394 101.367 132.814 101.802C133.486 102.495 133.411 103.796 132.677 104.418C132.585 104.588 132.504 104.764 132.425 104.941C132.411 104.974 132.396 105.008 132.381 105.041C132.386 105.031 132.391 105.021 132.394 105.011C132.385 105.033 132.375 105.056 132.365 105.079C132.145 105.573 131.83 105.975 131.334 106.222C131.041 106.364 130.72 106.437 130.394 106.436C130.068 106.434 129.747 106.358 129.456 106.212V106.212Z" fill="#3A3E56"/>
<path d="M141.502 104.11C140.741 103.431 140.275 102.483 140.205 101.466C140.074 99.4591 141.709 97.3356 143.83 97.3356C144.892 97.3356 145.862 97.5898 146.672 98.3102C147.433 98.9889 147.899 99.9377 147.969 100.954C148.101 102.955 146.466 105.086 144.343 105.086C143.283 105.086 142.312 104.83 141.502 104.11Z" fill="#3A3E56"/>
<path d="M121.32 76.5272C120.738 76.0078 120.383 75.2813 120.331 74.5037C120.23 72.9734 121.479 71.3455 123.104 71.3455C123.914 71.3455 124.656 71.5397 125.278 72.0906C125.86 72.6105 126.215 73.3373 126.267 74.1153C126.369 75.6456 125.12 77.2724 123.494 77.2724C122.684 77.2724 121.941 77.0781 121.32 76.5272Z" fill="#3A3E56"/>
<path d="M143.237 75.4301C142.655 74.9106 142.299 74.1851 142.245 73.4077C142.145 71.8704 143.395 70.2448 145.019 70.2448C145.831 70.2448 146.578 70.439 147.195 70.9922C147.777 71.5114 148.133 72.2364 148.188 73.0134C148.288 74.5507 147.037 76.1776 145.415 76.1776C144.601 76.1776 143.854 75.9821 143.237 75.4301Z" fill="#3A3E56"/>
<path d="M82.7853 117.282C82.5011 117.083 82.3062 116.78 82.2421 116.439C82.178 116.098 82.2498 115.746 82.4422 115.457C83.2181 114.212 84.0222 112.985 84.8252 111.764C85.5905 110.594 86.4147 109.464 87.1599 108.283C88.2695 106.374 89.1468 104.345 90.2257 102.417C90.7763 101.429 91.3458 100.454 91.9024 99.4745C92.4467 98.4968 92.9375 97.4905 93.3728 96.4598C94.0684 94.8248 94.7653 93.1956 95.5412 91.5994C96.2946 90.0397 97.0929 88.5023 97.8263 86.9344C98.2037 86.028 98.5503 85.1145 98.8652 84.1834C99.1517 83.3323 99.4229 82.4777 99.6905 81.6208C100.428 79.2861 101.164 76.951 101.898 74.6156C102.154 73.8069 103.106 73.3902 103.886 73.6633C104.273 73.8046 104.588 74.0914 104.766 74.4623C104.944 74.8332 104.969 75.2587 104.836 75.6479C103.783 78.8639 102.742 82.0951 101.6 85.2805C101.067 86.7635 100.445 88.2128 99.7365 89.6206C99.0609 90.9614 98.3357 92.2798 97.6966 93.6394C97.3303 94.4179 96.9766 95.2026 96.6354 95.9937C96.1249 97.2203 95.6379 98.4845 94.9846 99.6428C94.3314 100.801 93.6227 101.963 92.9294 103.118C92.0439 104.616 91.2503 106.15 90.4532 107.696C89.6915 109.174 88.7907 110.571 87.9322 111.995C87.7353 112.324 87.5443 112.655 87.3427 112.987C86.9783 113.605 86.6104 114.224 86.1977 114.814C85.6884 115.54 85.1507 116.239 84.6118 116.942C84.4818 117.115 84.3139 117.256 84.1211 117.355C83.9282 117.454 83.7154 117.507 83.4987 117.512C83.2432 117.509 82.9944 117.429 82.7853 117.282V117.282Z" fill="#3A3E56"/>
<path d="M84.2878 123.891C83.9777 123.678 83.8551 123.195 84.0991 122.881C84.4199 122.468 84.7371 122.051 85.066 121.642C85.8832 120.59 86.7168 119.556 87.5493 118.513C87.5455 118.517 87.5423 118.522 87.5398 118.526L87.5516 118.51C87.5551 118.506 87.5583 118.502 87.5611 118.498V118.504C88.1436 117.755 88.765 117.039 89.3687 116.306C89.8946 115.666 90.4299 115.03 90.9688 114.398C92.0771 113.088 93.2091 111.799 94.2939 110.465C94.5934 110.099 94.8941 109.733 95.1901 109.364C95.1783 109.379 95.1653 109.394 95.1535 109.411C95.6794 108.714 96.2147 108.03 96.717 107.313C97.2382 106.56 97.7492 105.798 98.2499 105.027C98.7216 104.301 99.1932 103.572 99.6755 102.854C100.158 102.136 100.701 101.405 101.208 100.675C101.651 100.044 102.067 99.3979 102.468 98.7399C102.883 98.0336 103.268 97.3108 103.616 96.5692C103.721 96.3628 103.904 96.2065 104.124 96.1347C104.345 96.0628 104.584 96.0813 104.791 96.186C104.998 96.2908 105.154 96.4732 105.226 96.6932C105.298 96.9132 105.28 97.1527 105.175 97.3591C104.832 98.1279 104.446 98.8773 104.021 99.6039C104.027 99.5898 104.035 99.576 104.043 99.5627C103.556 100.393 103.044 101.201 102.497 101.991C102 102.709 101.483 103.411 100.985 104.128C100.502 104.819 100.042 105.526 99.5705 106.222C99.0682 106.957 98.5482 107.678 98.0212 108.398C97.7653 108.751 97.4917 109.098 97.217 109.434C96.9422 109.771 96.6722 110.112 96.3916 110.441C95.7462 111.188 95.0969 111.931 94.4437 112.671C93.261 113.994 92.1031 115.325 90.9464 116.655C90.5572 117.106 90.1882 117.573 89.8109 118.03C89.4335 118.486 89.068 118.92 88.7013 119.372C87.8759 120.438 87.0258 121.49 86.1886 122.55L86.2334 122.49C85.9197 122.891 85.6084 123.296 85.2983 123.696C85.227 123.792 85.1347 123.871 85.0284 123.925C84.9221 123.98 84.8047 124.01 84.6852 124.012C84.5435 124.012 84.4051 123.97 84.2878 123.891V123.891Z" fill="#3A3E56"/>
<path d="M108.48 99.9394C108.086 99.8577 107.741 99.6242 107.519 99.2897C107.293 98.9473 107.212 98.5296 107.294 98.1278C107.393 97.6487 107.704 97.3038 108.119 97.0684C108.272 96.9789 108.425 96.8942 108.573 96.8059L108.406 96.9071C111.074 95.3623 113.653 93.6676 116.129 91.8313C117.132 91.0002 118.111 90.1409 119.077 89.2686C119.337 89.0439 119.672 88.9262 120.015 88.9393C120.359 88.9525 120.684 89.0956 120.926 89.3395C121.168 89.5834 121.307 89.91 121.317 90.2529C121.326 90.5958 121.204 90.9295 120.976 91.1862C120.505 91.6971 120.033 92.195 119.545 92.6788L119.673 92.5505C119.479 92.7459 119.281 92.9401 119.084 93.1391L119.096 93.1285C117.856 94.3162 116.469 95.3486 115.048 96.2903C113.273 97.4792 111.489 98.6375 109.64 99.7134C109.381 99.873 109.084 99.9604 108.779 99.9665C108.679 99.968 108.579 99.9589 108.48 99.9394Z" fill="#3A3E56"/>
<path d="M82.9224 149.834C82.5758 148.086 82.2244 146.335 81.8506 144.591C81.6678 143.728 81.4969 142.862 81.287 142.001C81.0594 141.05 80.8224 140.105 80.5878 139.156C80.5807 139.129 80.5713 139.098 80.5665 139.071C80.5748 139.098 80.5807 139.129 80.5901 139.156C80.3543 138.294 80.1043 137.438 79.8744 136.574L79.8815 136.594C79.8815 136.583 79.8744 136.572 79.8709 136.56L79.8567 136.506C79.8561 136.513 79.8561 136.519 79.8567 136.526C79.6315 135.747 79.4004 134.972 79.1693 134.197C78.9264 133.384 78.6552 132.583 78.3993 131.774C78.2896 131.421 78.1564 131.075 78.0338 130.725C77.851 130.195 77.6694 129.666 77.4831 129.142C77.2119 128.366 76.9018 127.606 76.6094 126.841C76.0823 125.469 75.5199 124.114 74.9586 122.756C74.9716 122.785 74.9834 122.816 74.9951 122.847C74.6414 122.001 74.3006 121.148 73.9669 120.293C73.9669 120.304 73.9752 120.313 73.9799 120.325C73.8361 119.972 73.7158 119.602 73.5849 119.242C73.4127 118.762 73.2382 118.282 73.0661 117.801C72.9552 117.498 72.8609 117.188 72.7583 116.883C72.5815 116.343 72.4046 115.804 72.2218 115.263C71.7042 113.692 71.2019 112.117 70.689 110.547C70.1925 109.041 69.6843 107.54 69.1997 106.032C68.6278 104.236 68.0642 102.443 67.5136 100.641C67.2541 99.7981 66.9995 98.956 66.7495 98.1148C66.5357 97.3771 66.3203 96.6406 66.1033 95.9053C65.9854 95.5251 65.8675 95.146 65.772 94.7623C65.772 94.7811 65.7802 94.8011 65.7849 94.8223C65.5491 94.0277 65.3345 93.232 65.1081 92.4374C64.8817 91.6429 64.6494 90.8777 64.4431 90.0961C64.2332 89.3969 64.0446 88.6835 63.8453 87.9843C63.7915 87.8191 63.8043 87.6394 63.8809 87.4834C63.9574 87.3274 64.0919 87.2073 64.2556 87.1485C64.5811 87.039 64.9949 87.2156 65.0928 87.5593C65.3062 88.308 65.5326 89.0567 65.7319 89.8112C65.9677 90.5928 66.1788 91.378 66.3993 92.1655C66.6198 92.953 66.8591 93.7158 67.0655 94.4986C67.3166 95.3226 67.5595 96.1607 67.8083 96.9918C68.0064 97.6545 68.1927 98.3208 68.405 98.9788C68.7493 100.041 69.0893 101.1 69.4249 102.157C69.6478 102.847 69.8848 103.531 70.1159 104.215C70.3659 104.945 70.6088 105.671 70.8646 106.397C71.1606 107.231 71.4625 108.059 71.7455 108.895C72.0591 109.826 72.3822 110.753 72.6888 111.684C72.9777 112.537 73.2453 113.398 73.5224 114.257C74.112 116.114 74.7251 117.968 75.409 119.795C75.3982 119.765 75.3852 119.736 75.3701 119.707C75.7238 120.552 76.0611 121.409 76.3995 122.263C76.3865 122.232 76.3747 122.203 76.3594 122.172C76.7344 123.056 77.0905 123.95 77.4548 124.841C77.7472 125.547 78.0066 126.274 78.2802 126.992C78.5538 127.71 78.8132 128.405 79.0561 129.123C79.3332 129.947 79.6256 130.771 79.8815 131.595C80.0972 132.327 80.3401 133.052 80.5394 133.789C80.535 133.769 80.5295 133.749 80.5229 133.729C81.0111 135.408 81.458 137.099 81.8942 138.791C81.8848 138.764 81.8777 138.733 81.8695 138.706C81.9638 139.043 82.0346 139.387 82.1159 139.73C82.2503 140.299 82.3844 140.87 82.518 141.442C82.7102 142.256 82.8717 143.08 83.0392 143.901C83.3729 145.517 83.6783 147.14 83.9825 148.764C84.0367 149.037 84.0851 149.308 84.1369 149.581C84.1671 149.741 84.1334 149.906 84.0431 150.042C83.9529 150.178 83.8131 150.274 83.6535 150.308C83.6146 150.315 83.5751 150.319 83.5356 150.319C83.3933 150.32 83.2549 150.272 83.1434 150.184C83.0319 150.096 82.9539 149.972 82.9224 149.834V149.834Z" fill="#3A3E56"/>
<path d="M87.2886 178.352C86.8523 175.991 86.429 173.626 86.0033 171.263C85.962 171.058 86.0039 170.845 86.1198 170.671C86.2357 170.497 86.416 170.376 86.6212 170.335C86.8263 170.294 87.0395 170.336 87.2137 170.451C87.388 170.567 87.509 170.747 87.5503 170.952C87.9701 173.317 88.3969 175.682 88.8108 178.046C88.8495 178.248 88.8073 178.457 88.6933 178.628C88.5793 178.799 88.4026 178.919 88.2012 178.961C88.153 178.97 88.1041 178.975 88.055 178.975C87.8749 178.976 87.7002 178.914 87.5605 178.8C87.4208 178.687 87.3247 178.529 87.2886 178.352Z" fill="#3A3E56"/>
<path d="M90.8011 201.537C90.7834 200.485 90.7586 199.431 90.6761 198.379C90.6395 197.895 90.6124 197.407 90.5582 196.923C90.498 196.394 90.4403 195.864 90.3801 195.333C90.2787 194.669 90.1867 194 90.0771 193.332C89.9651 192.625 89.8554 191.906 89.7434 191.195C89.5017 189.658 89.3342 188.107 89.1538 186.559C89.1447 186.402 89.1981 186.248 89.3022 186.129C89.4064 186.011 89.553 185.938 89.7104 185.927C89.8671 185.92 90.0205 185.974 90.1385 186.077C90.2566 186.18 90.33 186.325 90.3436 186.481C90.4623 187.524 90.5892 188.565 90.7244 189.605V189.593C90.8494 190.458 90.9862 191.317 91.1253 192.183C91.2633 192.997 91.4213 193.805 91.564 194.62C91.7066 195.413 91.8352 196.213 91.9319 197.011C92.0356 197.864 92.1488 198.715 92.2125 199.568C92.2608 200.191 92.3068 200.811 92.341 201.435C92.3537 201.639 92.2853 201.84 92.1507 201.994C92.0161 202.148 91.8261 202.244 91.6218 202.259H91.5781C91.189 202.259 90.807 201.945 90.8011 201.537Z" fill="#3A3E56"/>
<path d="M93.6311 193.822C93.4153 190.4 93.4637 186.971 93.3422 183.546C93.2207 180.121 92.9095 176.701 92.5475 173.293C92.4555 172.417 92.334 171.543 92.2267 170.667C92.097 169.93 91.9685 169.193 91.8412 168.455C91.7799 168.121 91.6737 167.789 91.5912 167.46C91.5016 167.107 91.4155 166.754 91.3259 166.408C91.1042 165.673 90.8684 164.938 90.6691 164.194C90.6844 164.248 90.6998 164.311 90.7151 164.361C90.2552 162.674 89.8048 160.987 89.4782 159.266C89.1398 157.468 88.8061 155.668 88.4618 153.868C88.1752 152.355 87.8533 150.845 87.5668 149.33C87.2225 147.504 86.8994 145.681 86.5834 143.844C86.2969 142.182 85.9939 140.523 85.6578 138.869C85.4939 138.064 85.3406 137.255 85.1461 136.456L84.4386 133.553C84.1029 132.312 83.7684 131.069 83.4351 129.825C83.4564 129.9 83.4788 129.977 83.4988 130.053C83.0425 128.39 82.605 126.724 82.1723 125.06C81.9223 124.093 82.6687 123.09 83.6097 122.901C84.6225 122.697 85.5246 123.372 85.7675 124.336C86.1507 125.852 86.5339 127.366 86.9324 128.879C87.2862 130.192 87.6281 131.512 87.9748 132.828L87.9111 132.599C88.358 134.232 88.7176 135.895 89.0431 137.55C89.1928 138.32 89.3603 139.089 89.4853 139.865C89.6566 140.904 89.828 141.944 89.9994 142.985C90.2588 144.581 90.484 146.18 90.7328 147.779C90.9816 149.377 91.2599 150.964 91.491 152.562C91.7834 154.569 92.0617 156.572 92.3317 158.581C92.4496 159.478 92.6206 160.372 92.7644 161.265C92.8246 161.63 92.9189 161.985 93.0002 162.344C93.104 162.804 93.1925 163.267 93.3139 163.721C93.7549 165.332 94.2242 166.948 94.5225 168.596C94.6841 169.486 94.835 170.37 94.9576 171.267C95.0802 172.164 95.2041 173.082 95.3196 173.991C95.5295 175.669 95.7394 177.346 95.9316 179.023C96.1261 180.754 96.2511 182.483 96.3466 184.222C96.428 185.76 96.4103 187.313 96.4009 188.854C96.3879 190.513 96.3643 192.17 96.3207 193.826C96.303 194.489 95.7087 195.034 95.0673 195.073C95.0378 195.073 95.0083 195.073 94.98 195.073C94.6389 195.072 94.3106 194.943 94.0606 194.711C93.8105 194.479 93.6572 194.162 93.6311 193.822V193.822Z" fill="#3A3E56"/>
<path d="M67.5642 112.653C67.1008 111.924 66.6504 111.186 66.2 110.447C66.0514 110.204 65.9076 109.96 65.7613 109.717C65.5361 109.341 65.2897 108.969 65.0857 108.577C64.7815 107.997 64.4549 107.422 64.1778 106.827C63.8736 106.17 63.5599 105.517 63.2616 104.86C62.6614 103.538 62.0471 102.216 61.5235 100.858C61 99.4991 60.4894 98.1737 60.0084 96.8023C59.5025 95.3473 58.979 93.8971 58.5227 92.4257C57.8647 90.3162 57.2044 88.2139 56.6195 86.0856C56.5064 85.7362 56.5326 85.3568 56.6926 85.0262C56.8577 84.7032 57.144 84.4587 57.4892 84.3459C57.8343 84.2332 58.2101 84.2615 58.5344 84.4246C58.7169 84.5215 58.8762 84.6567 59.0014 84.8209C59.1266 84.9851 59.2147 85.1744 59.2596 85.3758C59.3705 85.7925 59.4789 86.2139 59.5933 86.6306L59.5792 86.5788C59.9329 87.8737 60.3373 89.1473 60.7206 90.4304C60.9918 91.3356 61.2559 92.242 61.5613 93.1378C62.0211 94.4857 62.4751 95.8311 62.9373 97.1778C63.2816 98.1784 63.6908 99.1589 64.0728 100.144C64.6082 101.393 65.1623 102.626 65.7354 103.858C66.2884 105.041 66.8886 106.198 67.5124 107.344C68.2776 108.613 69.037 109.891 69.8117 111.156C70.0048 111.455 70.0737 111.818 70.0037 112.167C69.9337 112.516 69.7303 112.824 69.4367 113.026C69.2151 113.17 68.956 113.246 68.6915 113.245C68.4688 113.249 68.2488 113.197 68.0517 113.093C67.8546 112.99 67.687 112.838 67.5642 112.653V112.653Z" fill="#3A3E56"/>
<path d="M69.8351 85.2511C68.9956 81.6412 68.1918 78.0242 67.4238 74.4002C67.3537 74.001 67.4425 73.5903 67.6714 73.2557C67.9003 72.921 68.2511 72.6889 68.649 72.6087C69.0469 72.5286 69.4604 72.6068 69.8014 72.8266C70.1423 73.0465 70.3838 73.3907 70.4742 73.7857C71.23 77.4148 72.013 81.0357 72.8501 84.646C73.0388 85.4606 72.4469 86.294 71.6474 86.4553C71.5487 86.4742 71.4485 86.4841 71.3479 86.4847C70.9934 86.4794 70.6511 86.3547 70.3765 86.1307C70.1018 85.9068 69.9111 85.5968 69.8351 85.2511V85.2511Z" fill="#3A3E56"/>
<path d="M31.2974 91.0909C31.2537 91.0638 31.2077 91.0367 31.1606 91.0108C31.1936 91.0285 31.2266 91.0497 31.2573 91.0697C30.472 90.6047 29.7244 90.0856 29.1348 89.3805C28.5131 88.6388 28.1662 87.706 28.1526 86.739C28.1255 85.7749 28.3507 84.8202 28.6361 83.9056C28.754 83.5383 28.8518 83.1605 28.9827 82.7967C29.5275 81.2735 30.1052 79.7585 30.6453 78.233C30.6524 78.2023 30.6594 78.1706 30.6653 78.1411C30.6652 77.9411 30.7088 77.7435 30.7931 77.5621C30.8774 77.3807 31.0003 77.2198 31.1533 77.0907C31.3064 76.9617 31.4858 76.8675 31.6791 76.8148C31.8723 76.7622 32.0748 76.7523 32.2723 76.7858C32.4698 76.8194 32.6575 76.8956 32.8225 77.0091C32.9874 77.1226 33.1255 77.2707 33.2272 77.4431C33.3288 77.6154 33.3915 77.8078 33.4109 78.0069C33.4304 78.2059 33.406 78.4068 33.3396 78.5955C33.2759 78.7721 33.2052 78.9487 33.1297 79.1182C33.1392 79.0982 33.1474 79.0781 33.158 79.0581C32.8161 79.8598 32.4965 80.6685 32.1805 81.4807C31.8975 82.1976 31.6676 82.9333 31.4341 83.6655C31.2573 84.3482 31.0804 85.031 30.9696 85.729C30.9377 86.0068 30.9212 86.2846 30.9141 86.5648C30.9141 86.6601 30.9141 86.7543 30.9283 86.8485C30.9424 86.9426 30.966 87.0651 30.9908 87.1722C31.0096 87.2322 31.0309 87.2899 31.0533 87.3511C31.1051 87.4733 31.1662 87.5913 31.236 87.7042C31.2089 87.6525 31.1783 87.6042 31.1511 87.5524C31.2537 87.7113 31.3598 87.8655 31.4719 88.0233C31.6204 88.1975 31.7737 88.3646 31.9329 88.5294C32.1947 88.779 32.4694 89.0132 32.7465 89.244C33.1969 89.6183 33.2582 90.3199 32.9352 90.7907C32.8306 90.9467 32.6887 91.0741 32.5223 91.1614C32.356 91.2488 32.1704 91.2933 31.9824 91.291C31.7402 91.2869 31.5036 91.2177 31.2974 91.0909V91.0909Z" fill="#3A3E56"/>
<path d="M42.2316 92.4281C41.6927 92.2244 41.1503 92.022 40.6268 91.7783C40.1033 91.5346 39.601 91.2921 39.1965 90.8754C39.041 90.7137 38.9077 90.532 38.8003 90.3351C38.6879 90.097 38.6196 89.8406 38.5987 89.5782C38.5648 89.2817 38.5538 88.983 38.5657 88.6848C38.5861 88.4724 38.689 88.2765 38.8522 88.1389C39.0154 88.0012 39.2261 87.9328 39.4392 87.9482C39.6523 87.9635 39.851 88.0615 39.9927 88.2211C40.1344 88.3808 40.2079 88.5894 40.1976 88.8025C40.1752 89.0026 40.1469 89.2015 40.1139 89.4016C40.1045 89.4734 40.0986 89.5464 40.095 89.6194C40.095 89.6406 40.095 89.6618 40.095 89.6842L40.1021 89.7159C40.108 89.7301 40.1127 89.7442 40.1174 89.7595V89.7677L40.1516 89.8172C40.1693 89.8384 40.187 89.8595 40.207 89.8796C40.2896 89.9596 40.3721 90.0291 40.4582 90.0997L40.4146 90.0632C40.4664 90.102 40.5195 90.1374 40.5726 90.1727C40.8685 90.3386 41.1775 90.4787 41.4852 90.6141C41.8861 90.7836 42.2917 90.9378 42.7009 91.085C42.8603 91.1415 42.9945 91.2525 43.0797 91.3984C43.1649 91.5442 43.1956 91.7155 43.1664 91.8819C43.1371 92.0482 43.0498 92.1988 42.9199 92.307C42.79 92.4151 42.626 92.4739 42.4568 92.4728C42.3797 92.4715 42.3034 92.4563 42.2316 92.4281V92.4281Z" fill="#3A3E56"/>
<path d="M50.0622 115.249C49.573 114.983 49.1127 114.668 48.6885 114.308C48.1862 113.873 47.7841 113.318 47.428 112.764C46.7854 111.761 46.4847 110.528 46.5142 109.341C46.5349 108.696 46.6103 108.053 46.7394 107.42C46.8434 106.818 47.0771 106.246 47.4245 105.743C47.6493 105.456 47.8991 105.189 48.1709 104.946C48.4361 104.68 48.7687 104.492 49.133 104.402C49.3444 104.362 49.5618 104.367 49.771 104.417C49.9802 104.467 50.1766 104.56 50.3474 104.69C50.5183 104.821 50.6597 104.986 50.7625 105.174C50.8653 105.363 50.9272 105.571 50.9442 105.785C50.9619 106.175 50.8315 106.557 50.579 106.856C50.3265 107.154 49.9705 107.346 49.5823 107.393L49.4549 107.42L49.3924 107.441C49.3854 107.457 49.3783 107.473 49.37 107.488C49.3406 107.567 49.3134 107.645 49.2887 107.724C49.2344 107.95 49.1884 108.179 49.1472 108.411C49.1165 108.684 49.0941 108.956 49.0823 109.235C49.0823 109.426 49.0965 109.615 49.1142 109.81C49.1413 109.969 49.1719 110.125 49.2085 110.281C49.245 110.436 49.3075 110.596 49.3653 110.751C49.4266 110.89 49.4915 111.026 49.5622 111.161C49.6978 111.377 49.8405 111.583 49.9914 111.787C50.1176 111.944 50.2473 112.096 50.3841 112.245C50.515 112.37 50.6482 112.491 50.7885 112.609C50.9831 112.75 51.1824 112.877 51.3887 113.003C51.937 113.344 52.0962 114.112 51.8156 114.669C51.701 114.884 51.5305 115.064 51.3219 115.19C51.1133 115.316 50.8744 115.384 50.6305 115.386C50.4326 115.389 50.237 115.342 50.0622 115.249V115.249Z" fill="#3A3E56"/>
<path d="M67.1889 54.8195C66.9954 54.8034 66.8074 54.7468 66.6373 54.6533C66.4671 54.5598 66.3186 54.4316 66.2013 54.2771C66.0841 54.1225 66.0008 53.945 65.9568 53.7561C65.9128 53.5673 65.9092 53.3713 65.9461 53.1809C66.1478 52.211 66.8199 51.3599 67.4908 50.6677C68.2603 49.8533 69.2348 49.2601 70.3125 48.9503C71.4692 48.6395 72.6106 48.7043 73.7768 48.9197C74.1837 48.9944 74.5854 49.0951 74.9795 49.221C75.0856 48.7949 75.1988 48.3711 75.3332 47.9509C75.7541 46.6358 76.4145 45.4094 77.2811 44.3335C78.0735 43.3459 79.2184 42.649 80.4058 42.2476C80.9863 42.0592 81.5914 41.9569 82.2016 41.9439C82.8514 41.9239 83.4527 42.0793 84.0682 42.2582L84.2003 42.2912C84.2498 42.2912 84.2993 42.2936 84.3488 42.2983C84.3995 42.2983 84.4503 42.2983 84.501 42.2888C84.9089 42.2159 85.3134 42.1252 85.7237 42.0687C86.148 42.0152 86.5755 41.9928 87.0031 42.0016C87.9806 42.0087 88.9758 42.2606 89.9108 42.5255C90.7838 42.7736 91.6374 43.0852 92.4648 43.4577C93.1169 43.7556 93.3539 44.6102 93.0402 45.2235C92.7089 45.8791 91.9236 46.0957 91.2715 45.7979L90.8352 45.6013C90.1855 45.3506 89.5311 45.1246 88.8626 44.9268C88.3909 44.8009 87.9134 44.6973 87.4299 44.6149C87.4877 44.6219 87.5478 44.6314 87.6056 44.6372C87.3121 44.5958 87.0164 44.5719 86.7201 44.5654C86.5302 44.5713 86.3428 44.5831 86.1541 44.6008C85.9183 44.6478 85.6824 44.7032 85.4466 44.762C85.1193 44.862 84.7851 44.9379 84.4467 44.9892C83.9303 45.0551 83.4244 44.9833 82.9138 44.9574C82.7629 44.9645 82.6167 44.9774 82.4681 44.9951C82.2323 45.0304 82.0106 45.0763 81.7842 45.1328C81.5578 45.1893 81.335 45.287 81.1133 45.3741C80.9211 45.4612 80.736 45.5554 80.5497 45.6566C80.3881 45.7555 80.2313 45.8591 80.078 45.9698C79.9601 46.0698 79.8422 46.1711 79.7243 46.277C79.5592 46.4524 79.4036 46.6301 79.2526 46.8185C79.0758 47.0539 78.9119 47.3023 78.7539 47.5518C78.5261 47.9428 78.3203 48.346 78.1372 48.7596C77.9014 49.3482 77.7292 49.9485 77.5476 50.5547C77.4777 50.8312 77.3826 51.1007 77.2634 51.3599C77.0977 51.6725 76.8478 51.9326 76.5418 52.1109C75.878 52.517 75.1764 52.2946 74.5172 52.0144C74.3805 51.965 74.2449 51.9202 74.1069 51.8778C73.5916 51.7401 73.074 51.6201 72.5493 51.5329C72.2875 51.5047 72.0257 51.4859 71.7616 51.4776C71.6614 51.4776 71.5623 51.4859 71.4633 51.4965C71.2735 51.5247 71.0872 51.56 70.9008 51.6024C70.8006 51.6318 70.7004 51.6648 70.6014 51.7013C70.5023 51.7378 70.3844 51.8013 70.2783 51.859C70.1262 51.9532 69.9788 52.0509 69.8314 52.1545C69.684 52.2581 69.5673 52.3817 69.4387 52.5006C69.3102 52.6194 69.2029 52.756 69.085 52.8867C68.9671 53.0173 68.8786 53.1727 68.7831 53.3222C68.7466 53.3869 68.7124 53.4517 68.6794 53.5188C68.6664 53.5506 68.6546 53.5835 68.644 53.6153C68.6334 53.6471 68.6322 53.66 68.6275 53.6824C68.6275 53.6742 68.6275 53.6648 68.6275 53.6565C68.5768 53.9777 68.414 54.2707 68.1678 54.4836C67.9215 54.6964 67.6078 54.8154 67.2821 54.8195C67.2514 54.8231 67.2208 54.8207 67.1889 54.8195Z" fill="#3A3E56"/>
<path d="M67.9577 34.083C67.2149 34.0312 66.5322 33.332 66.6336 32.5598C66.6851 32.0965 66.7965 31.6419 66.9649 31.2072C67.2105 30.6271 67.5231 30.0776 67.8964 29.5698C68.2641 29.065 68.6651 28.5852 69.0968 28.1337C69.5897 27.6005 70.0873 27.0637 70.6709 26.6281C71.1279 26.2803 71.6271 25.9916 72.1566 25.7688C72.8153 25.5075 73.5083 25.3425 74.2142 25.2791C74.8722 25.2156 75.4995 25.3615 76.1244 25.5381C76.7861 25.7426 77.4324 25.9939 78.0582 26.2903C78.6937 26.5752 78.9744 27.3839 78.7492 28.016C78.6211 28.3664 78.3607 28.6527 78.0236 28.8135C77.6866 28.9744 77.2998 28.997 76.9463 28.8765C76.543 28.7411 76.1386 28.6081 75.7282 28.4904C75.4334 28.4139 75.1387 28.3409 74.8392 28.2832C74.7495 28.275 74.6599 28.2691 74.5703 28.2667C74.4524 28.2667 74.3427 28.2785 74.2295 28.2903C73.9866 28.3279 73.7496 28.3727 73.5115 28.4303C73.3499 28.4821 73.1931 28.5375 73.0398 28.5987C72.8865 28.6599 72.7273 28.7494 72.5681 28.8341C72.409 28.9189 72.2804 29.0177 72.1401 29.1154C71.8253 29.3709 71.5281 29.644 71.2381 29.9241C70.8914 30.2773 70.5554 30.6304 70.2429 31.0095C70.0896 31.2155 69.9481 31.4274 69.8113 31.6451C69.717 31.8182 69.6298 31.9912 69.5472 32.1678C69.5472 32.1878 69.5342 32.2078 69.5283 32.2278C69.513 32.2902 69.5 32.3526 69.4883 32.4162C69.48 32.5339 69.4753 32.6457 69.4753 32.7634C69.4635 33.5074 68.7537 34.0877 68.0403 34.0877C68.0179 34.0853 67.9872 34.0853 67.9577 34.083Z" fill="#3A3E56"/>
<path d="M94.8173 20.2998C94.5555 19.9808 94.2914 19.67 94.0072 19.3699C93.7231 19.0697 93.4177 18.8201 93.1005 18.5647C93.0002 18.4905 92.8977 18.4211 92.7915 18.3563C92.6854 18.2916 92.5982 18.2551 92.4991 18.2092C92.3175 18.1374 92.1371 18.0715 91.9508 18.0114C91.7645 17.9514 91.5534 17.922 91.3495 17.8855C91.2315 17.8737 91.1231 17.8666 91.0099 17.8608C90.8029 18.0427 90.559 18.1777 90.2948 18.2565C90.0306 18.3354 89.7524 18.3562 89.4794 18.3176C89.2064 18.2789 88.945 18.1817 88.7132 18.0327C88.4814 17.8836 88.2847 17.6862 88.1365 17.454C87.9884 17.2219 87.8923 16.9605 87.855 16.6877C87.8177 16.415 87.8399 16.1374 87.9202 15.8741C88.0005 15.6107 88.137 15.3679 88.3202 15.1622C88.5035 14.9565 88.7292 14.7928 88.9818 14.6825L88.9487 14.6966C89.2696 14.5348 89.6089 14.4123 89.9593 14.3317C90.4435 14.2486 90.9358 14.2229 91.4261 14.2552C92.2662 14.321 93.0904 14.5197 93.8681 14.8437C95.467 15.4912 96.6273 16.8072 97.593 18.1845C98.0882 18.8908 97.9267 19.9102 97.284 20.4693C96.9608 20.7441 96.5494 20.8937 96.1249 20.8907C95.8767 20.8952 95.6306 20.8446 95.4044 20.7424C95.1782 20.6401 94.9777 20.489 94.8173 20.2998Z" fill="#3A3E56"/>
<path d="M93.1656 38.1947C92.8408 37.9038 92.642 37.4981 92.6114 37.0635C92.5571 36.2066 93.254 35.2978 94.1607 35.2978C94.6042 35.2778 95.0388 35.4268 95.3764 35.7145C95.7014 36.0048 95.9002 36.4102 95.9306 36.8446C95.9849 37.7027 95.288 38.6103 94.3812 38.6103C93.9379 38.6306 93.5034 38.4821 93.1656 38.1947Z" fill="#3A3E56"/>
<path d="M54.8187 16.746C54.6739 16.6706 54.5475 16.5641 54.4486 16.4343C54.3498 16.3045 54.2809 16.1545 54.2468 15.995C54.2123 15.8307 54.2172 15.6607 54.2611 15.4987C54.3049 15.3366 54.3865 15.1873 54.4991 15.0627C54.7509 14.8291 55.0543 14.6581 55.3847 14.5636C55.9141 14.3811 56.4777 14.3058 57.0354 14.221C57.6132 14.1351 58.1957 14.0715 58.7794 14.0044C59.2947 13.9468 59.7816 14.3576 59.8783 14.8473C59.9892 15.3817 59.6236 16.0044 59.0529 16.0833C58.1403 16.2128 57.2088 16.3246 56.3174 16.5447C56.1794 16.5847 56.045 16.6283 55.9117 16.6777C55.7271 16.8014 55.5103 16.8685 55.288 16.8708C55.1233 16.8712 54.9613 16.8282 54.8187 16.746V16.746Z" fill="#3A3E56"/>
<path d="M16.8156 46.144C16.7676 45.9401 16.736 45.7326 16.7213 45.5236C16.706 45.4 16.6942 45.2776 16.6789 45.154C16.657 44.9288 16.6642 44.7017 16.7001 44.4783C16.706 44.4017 16.7276 44.3272 16.7635 44.2592C16.7993 44.1913 16.8488 44.1314 16.9087 44.0832C16.9687 44.035 17.0379 43.9997 17.1121 43.9792C17.1862 43.9588 17.2638 43.9537 17.34 43.9643C17.4162 43.975 17.4895 44.0011 17.5552 44.041C17.6209 44.081 17.6777 44.1339 17.7222 44.1966C17.7666 44.2593 17.7977 44.3305 17.8136 44.4056C17.8294 44.4808 17.8297 44.5584 17.8144 44.6337C17.7837 44.7514 17.7578 44.8691 17.7354 44.9869C17.7106 45.1821 17.6973 45.3786 17.6953 45.5754V45.7873C17.6966 45.8444 17.701 45.9014 17.7082 45.958C17.7077 45.9498 17.7077 45.9415 17.7082 45.9333C17.7224 46.0399 17.6996 46.1481 17.6436 46.24C17.5877 46.3319 17.5018 46.4018 17.4005 46.4383C17.3547 46.4543 17.3064 46.4622 17.2578 46.4618C17.1595 46.4641 17.0631 46.4343 16.9833 46.377C16.9035 46.3196 16.8446 46.2378 16.8156 46.144V46.144Z" fill="#3A3E56"/>
<path d="M38.4998 34.4184C38.3623 34.4079 38.2285 34.3684 38.1074 34.3025C37.9862 34.2366 37.8805 34.1459 37.797 34.0362C37.7136 33.9265 37.6544 33.8005 37.6233 33.6663C37.5922 33.5321 37.5899 33.3929 37.6166 33.2578C37.7145 32.8422 38.0187 32.5327 38.3418 32.2737C38.8288 31.8817 39.3853 31.5862 39.9301 31.2919C40.3935 31.04 40.9913 31.2696 41.2177 31.7263C41.328 31.9547 41.3444 32.2171 41.2633 32.4573C41.1822 32.6976 41.0101 32.8966 40.7838 33.0118C40.6659 33.0765 40.5539 33.1401 40.4383 33.2024C40.1464 33.3686 39.8631 33.5494 39.5893 33.7439C39.5339 33.7875 39.4809 33.8334 39.429 33.8805C39.3506 34.0418 39.2286 34.1781 39.0766 34.2738C38.9247 34.3695 38.749 34.4208 38.5694 34.422L38.4998 34.4184Z" fill="#3A3E56"/>
<path d="M124.398 18.1904C124.012 17.8278 123.621 17.4711 123.204 17.1415C123.001 16.9885 122.792 16.8461 122.574 16.713L122.647 16.7578C122.351 16.5831 122.044 16.4259 121.729 16.2869C121.512 16.1975 121.291 16.1209 121.066 16.0515C120.924 16.0162 120.783 15.9856 120.638 15.962C120.623 15.962 120.609 15.962 120.593 15.962C120.436 15.9511 120.289 15.8782 120.186 15.7593C120.082 15.6404 120.03 15.4853 120.041 15.3281C120.052 15.1709 120.125 15.0245 120.244 14.9211C120.363 14.8177 120.518 14.7657 120.676 14.7766C121.179 14.8182 121.675 14.9275 122.149 15.1015C122.684 15.2737 123.199 15.5063 123.682 15.7949C124.282 16.1762 124.847 16.6095 125.371 17.0897C125.516 17.2211 125.603 17.404 125.615 17.5989C125.626 17.7939 125.56 17.9855 125.431 18.1327C125.36 18.2111 125.273 18.2737 125.176 18.3163C125.079 18.3589 124.974 18.3805 124.868 18.3799C124.693 18.3784 124.525 18.3106 124.398 18.1904Z" fill="#3A3E56"/>
<path d="M113.757 54.4828C113.217 53.7672 112.641 53.0793 112.032 52.4217C111.875 52.271 111.714 52.1238 111.547 51.9826C111.436 51.9002 111.324 51.8225 111.207 51.7472C111.171 51.7272 111.134 51.7095 111.097 51.693C110.826 51.5529 110.621 51.3122 110.527 51.0229C110.432 50.7336 110.455 50.4188 110.591 50.1462C110.871 49.6024 111.589 49.3434 112.14 49.6413C113.048 50.1392 113.77 50.9208 114.391 51.7354C114.753 52.2157 115.099 52.7018 115.438 53.2033C115.579 53.4177 115.637 53.6755 115.603 53.9295C115.569 54.1835 115.444 54.4167 115.252 54.5864C115.054 54.7527 114.803 54.8436 114.544 54.843C114.394 54.8478 114.245 54.8177 114.108 54.7552C113.972 54.6927 113.851 54.5995 113.757 54.4828V54.4828Z" fill="#3A3E56"/>
<path d="M127.741 54.8737C127.726 54.7124 127.706 54.5523 127.687 54.3887C127.58 53.5388 127.429 52.6949 127.236 51.8602C127.206 51.766 127.174 51.6719 127.137 51.5777C127.127 51.5565 127.117 51.5341 127.106 51.5106C126.596 51.3736 126.15 51.0657 125.841 50.6387C125.532 50.2116 125.38 49.6915 125.41 49.1657C125.504 47.8367 126.804 46.822 128.122 47.1163C129.937 47.5236 130.96 49.2352 131.349 50.9279C131.611 52.1392 131.808 53.3636 131.939 54.5959C132.079 55.7295 131.075 56.7583 129.978 56.8266C129.93 56.8266 129.881 56.8325 129.834 56.8325C128.723 56.8325 127.867 55.9625 127.741 54.8737Z" fill="#3A3E56"/>
</g>
<defs>
<clipPath id="clip0_690_2870">
<rect width="159" height="206" fill="white"/>
</clipPath>
</defs>
</svg>
