<svg xmlns="http://www.w3.org/2000/svg" viewBox="0 0 280 308.01">
  <defs>
    <style>
      .cls-1 {
        opacity: 0.5;
      }

      .cls-2 {
        fill: #a5826a;
      }

      .cls-3 {
        fill: #bca18f;
      }
    </style>
  </defs>
  <g id="Слой_2" data-name="Слой 2">
    <g id="Слой_1-2" data-name="Слой 1">
      <g class="cls-1">
        <path class="cls-2" d="M146.33,15.14c.1-.15,0-5,0-5S188.86,8.45,191,8.09s55-3.63,55-3.63V8.91"/>
        <path class="cls-2" d="M67.34,67.66S75.14,62.5,91,60.5s41.34.83,41.34,5-1.42,5.66-13.23,5.82S68.29,72.49,67.34,67.66Z"/>
        <path class="cls-2" d="M19.72,93.8l0-4.13L77.8,93.8"/>
        <path class="cls-2" d="M28.78,97.71c-1.42,0-16.3-3.74-4.61-7.24S60,77,69.89,77.49s54.23-1.5,64.5,1.5,31.19,14.23,31.55,16.73,2.83,9.23-3.55,12-32.25,7-44.3,6.24-28.35-2.5-28.35-2.5"/>
        <path class="cls-2" d="M19.85,165.62l1.88,8.66L43,183.93l188.55-29.62,1.84-8.66L232,139.33,188.38,146"/>
        <path class="cls-2" d="M118.62,183.6v7.32l18.89,15L250,198.58l18-15v-6.39"/>
        <path class="cls-3" d="M118.62,183.6l22.68-10s86.94-20,90.25-19.3,36.39,22.9,36.39,22.9-15.6,14-17.48,15S137,198.58,137,198.58Z"/>
        <path class="cls-2" d="M110.11,215.4l-3,7,12,18.19,110.69,15.83,23.32-10.7,2.63-6.12"/>
        <path class="cls-3" d="M110.11,215.4l25.81-5s91.43-1.47,94.32-.16,25.52,29.32,25.52,29.32-20.68,10.29-22.9,10.85-111.18-17-111.18-17Z"/>
        <path class="cls-2" d="M83.73,279.88l-1.14,7.28L105,304,253.22,308,279,294.92l1-6.34"/>
        <path class="cls-3" d="M83.73,279.88l31.18-7.63s117.13-.1,121.36.89S280,288.61,280,288.61,257.45,301,254.82,301.8s-149.3-5.2-149.3-5.2Z"/>
        <path class="cls-3" d="M0,112.19v17s47.14,15.73,49.62,16,84.7-9,84.7-9l52.1-5.49s-28.95-15.23-67.8-17.23S23,96,0,112.19Z"/>
        <path class="cls-2" d="M2.84,137.91,0,129.17l49.62,16,136.8-14.48-11.69,12.48-123,11.14Z"/>
        <path class="cls-3" d="M240.35,24.59V37.4s-35.54,11.85-37.41,12-63.8-6.78-63.8-6.78L99.87,38.52a135.61,135.61,0,0,1,51.11-13C180.27,24,223,12.37,240.35,24.59Z"/>
        <path class="cls-2" d="M238.21,44l2.14-6.58-37.4,12L99.83,38.52l8.82,9.41,92.69,8.4Z"/>
        <path class="cls-3" d="M19.85,165.62c3.3-1.67,164-32.29,167.28-31.63s44.9,5.34,44.9,5.34l-4.26,10.47L44,179.27Z"/>
        <path class="cls-3" d="M28.78,94.22c-1.42,0-16.3-3.75-4.61-7.24S60,73.5,69.89,74s54.23-1.5,64.5,1.49,31.19,14.23,31.55,16.73,2.83,9.24-3.55,12-32.25,7-44.3,6.25S89.74,108,89.74,108"/>
        <path class="cls-2" d="M67.34,62.92v4.74l65-1.65V60.75"/>
        <path class="cls-3" d="M67.34,62.92s7.8-5.16,23.63-7.16,41.34.83,41.34,5-1.42,5.67-13.23,5.83S68.29,67.74,67.34,62.92Z"/>
        <path class="cls-2" d="M140.74,71.53s8.79-4.3,24.87-4.63,40.73,5.1,39.86,9.21-2.58,5.46-14.3,4.4S140.67,76.4,140.74,71.53Z"/>
        <path class="cls-2" d="M141.74,66.84l-1,4.69,64.62,5.08,1.11-5.19"/>
        <path class="cls-3" d="M141.76,66.84s8.79-4.3,24.87-4.64,40.73,5.1,39.86,9.22-2.59,5.45-14.3,4.39S141.67,71.71,141.76,66.84Z"/>
        <path class="cls-2" d="M151.33,11.46s21.47-6.83,56.92-7S244.19,7.63,245.61,8s-.71,2.82-1.89,3.49S204,18.14,186.07,18.31,133.37,18,151.33,11.46Z"/>
        <path class="cls-3" d="M151.33,7S172.8.18,208.25,0s35.94,3.15,37.36,3.49-.71,2.83-1.89,3.5S204,13.65,186.07,13.82,133.37,13.5,151.33,7Z"/>
      </g>
    </g>
  </g>
</svg>
