<svg width="280" height="346" viewBox="0 0 280 346" fill="none" xmlns="http://www.w3.org/2000/svg">
<g style="mix-blend-mode:overlay" clip-path="url(#clip0_691_3205)">
<path d="M146.33 16.996C146.429 16.8277 146.33 11.3867 146.33 11.3867C146.33 11.3867 188.859 9.49081 191 9.07572C193.14 8.66064 245.99 5.00342 245.99 5.00342V10.0069" fill="#A5826A"/>
<path d="M67.3384 76.0051C67.3384 76.0051 75.1355 70.2052 90.9706 67.9615C106.806 65.7178 132.309 68.8926 132.309 73.5707C132.309 78.2488 130.892 79.9316 119.083 80.1111C107.274 80.2906 68.2882 81.4237 67.3384 76.0051Z" fill="#A5826A"/>
<path d="M19.7197 105.364L19.7481 100.731L77.8008 105.364" fill="#A5826A"/>
<path d="M28.7783 109.761C27.3607 109.761 12.4754 105.555 24.171 101.628C35.8666 97.7016 59.9666 86.4832 69.8902 87.0441C79.8137 87.605 124.115 85.3613 134.393 88.7269C144.671 92.0924 165.582 104.713 165.936 107.518C166.29 110.322 168.771 117.895 162.392 120.98C156.012 124.065 130.14 128.833 118.09 127.992C106.04 127.15 89.7373 125.187 89.7373 125.187" fill="#A5826A"/>
<path d="M19.8472 186.047L21.7326 195.773L42.9974 206.61L231.545 173.336L233.388 163.61L232.027 156.509L188.377 164.025" fill="#A5826A"/>
<path d="M118.615 206.24V214.464L137.512 231.291L249.974 223.068L267.936 206.24V199.072" fill="#A5826A"/>
<path d="M118.615 206.24L141.297 195.022C141.297 195.022 228.242 172.585 231.545 173.337C234.848 174.088 267.936 199.072 267.936 199.072C267.936 199.072 252.342 214.845 250.456 215.967C248.571 217.089 137.044 223.068 137.044 223.068L118.615 206.24Z" fill="#BCA18F"/>
<path d="M110.109 241.971L107.118 249.847L119.083 270.275L229.773 288.057L253.093 276.042L255.716 269.165" fill="#A5826A"/>
<path d="M110.109 241.971L135.924 236.362C135.924 236.362 227.349 234.713 230.241 236.182C233.133 237.652 255.758 269.12 255.758 269.12C255.758 269.12 235.075 280.675 232.863 281.314C230.652 281.954 121.677 262.243 121.677 262.243L110.109 241.971Z" fill="#BCA18F"/>
<path d="M83.7264 314.409L82.5923 322.587L105.005 341.457L253.221 346L279.022 331.304L280 324.18" fill="#A5826A"/>
<path d="M83.7266 314.409L114.915 305.827C114.915 305.827 232.041 305.714 236.266 306.836C240.49 307.958 280 324.214 280 324.214C280 324.214 257.445 338.125 254.823 339.033C252.2 339.942 105.516 333.188 105.516 333.188L83.7266 314.409Z" fill="#BCA18F"/>
<path d="M0 126.028V145.1C0 145.1 47.1369 162.769 49.6177 163.049C52.0986 163.33 134.322 152.953 134.322 152.953L186.421 146.782C186.421 146.782 157.473 129.674 118.615 127.431C79.757 125.187 23.0368 107.798 0 126.028Z" fill="#BCA18F"/>
<path d="M2.8353 154.916L0 145.1L49.6177 163.049L186.421 146.782L174.725 160.805L51.7442 173.314L2.8353 154.916Z" fill="#A5826A"/>
<path d="M240.348 27.6198V42.0019C240.348 42.0019 204.808 55.3182 202.937 55.5314C201.065 55.7445 139.142 47.914 139.142 47.914L99.8735 43.2696C99.8735 43.2696 121.691 30.3684 150.98 28.6856C180.268 27.0028 222.982 13.8884 240.348 27.6198Z" fill="#BCA18F"/>
<path d="M238.208 49.3949L240.348 42.002L202.951 55.5314L99.8311 43.2696L108.649 53.8374L201.335 63.2722L238.208 49.3949Z" fill="#A5826A"/>
<path d="M19.8472 186.047C23.1503 184.174 183.827 149.778 187.13 150.518C190.433 151.259 232.027 156.509 232.027 156.509L227.774 168.277L43.9472 201.383L19.8472 186.047Z" fill="#BCA18F"/>
<path d="M28.7783 105.835C27.3607 105.835 12.4754 101.628 24.171 97.7016C35.8666 93.7751 59.9666 82.5567 69.8902 83.1176C79.8137 83.6785 124.115 81.4348 134.393 84.8003C144.671 88.1659 165.582 100.787 165.936 103.591C166.29 106.396 168.771 113.968 162.392 117.053C156.012 120.139 130.14 124.906 118.09 124.065C106.04 123.224 89.7373 121.26 89.7373 121.26" fill="#BCA18F"/>
<path d="M67.3384 70.6763V76.0051L132.309 74.1429V68.2419" fill="#A5826A"/>
<path d="M67.3384 70.6764C67.3384 70.6764 75.1355 64.8765 90.9706 62.6328C106.806 60.3891 132.309 63.5639 132.309 68.242C132.309 72.9201 130.892 74.6029 119.083 74.7824C107.274 74.9619 68.2882 76.0949 67.3384 70.6764Z" fill="#BCA18F"/>
<path d="M140.744 80.3466C140.744 80.3466 149.534 75.5227 165.61 75.1413C181.686 74.7598 206.339 80.8739 205.474 85.4959C204.609 90.1179 202.894 91.6212 191.17 90.432C179.446 89.2429 140.673 85.8213 140.744 80.3466Z" fill="#A5826A"/>
<path d="M141.737 75.074L140.744 80.3467L205.361 86.0569L206.466 80.2233" fill="#A5826A"/>
<path d="M141.765 75.0739C141.765 75.0739 150.554 70.25 166.63 69.8686C182.707 69.4871 207.36 75.6012 206.495 80.2232C205.63 84.8452 203.9 86.3485 192.191 85.1593C180.481 83.9702 141.666 80.5485 141.765 75.0739Z" fill="#BCA18F"/>
<path d="M151.334 12.8676C151.334 12.8676 172.797 5.1942 208.252 5.0147C243.708 4.83521 244.19 8.55974 245.608 8.97482C247.025 9.38991 244.899 12.1496 243.722 12.9013C242.545 13.6529 204.028 20.3728 186.066 20.5635C168.105 20.7542 133.372 20.1933 151.334 12.8676Z" fill="#A5826A"/>
<path d="M151.334 7.8529C151.334 7.8529 172.797 0.190689 208.252 -2.46643e-05C243.708 -0.190739 244.19 3.54501 245.608 3.92644C247.025 4.30787 244.899 7.10127 243.722 7.8529C242.545 8.60454 204.028 15.3244 186.066 15.5151C168.105 15.7058 133.372 15.1561 151.334 7.8529Z" fill="#BCA18F"/>
</g>
<defs>
<clipPath id="clip0_691_3205">
<rect width="280" height="346" fill="white"/>
</clipPath>
</defs>
</svg>
